<?xml version="1.0" encoding="utf-8" standalone="no"?>
<!DOCTYPE svg PUBLIC "-//W3C//DTD SVG 1.1//EN"
  "http://www.w3.org/Graphics/SVG/1.1/DTD/svg11.dtd">
<svg xmlns:xlink="http://www.w3.org/1999/xlink" width="249.1075pt" height="173.15pt" viewBox="0 0 249.1075 173.15" xmlns="http://www.w3.org/2000/svg" version="1.1">
 <metadata>
  <rdf:RDF xmlns:dc="http://purl.org/dc/elements/1.1/" xmlns:cc="http://creativecommons.org/ns#" xmlns:rdf="http://www.w3.org/1999/02/22-rdf-syntax-ns#">
   <cc:Work>
    <dc:type rdf:resource="http://purl.org/dc/dcmitype/StillImage"/>
    <dc:date>2026-04-16T01:29:26.437412</dc:date>
    <dc:format>image/svg+xml</dc:format>
    <dc:creator>
     <cc:Agent>
      <dc:title>Matplotlib v3.10.7, https://matplotlib.org/</dc:title>
     </cc:Agent>
    </dc:creator>
   </cc:Work>
  </rdf:RDF>
 </metadata>
 <defs>
  <style type="text/css">*{stroke-linejoin: round; stroke-linecap: butt}</style>
 </defs>
 <g id="figure_1">
  <g id="patch_1">
   <path d="M 0 173.15 
L 249.1075 173.15 
L 249.1075 0 
L 0 0 
z
" style="fill: #ffffff"/>
  </g>
  <g id="axes_1">
   <g id="patch_2">
    <path d="M 34.605 140.2 
L 241.9075 140.2 
L 241.9075 7.2 
L 34.605 7.2 
z
" style="fill: #ffffff"/>
   </g>
   <g id="FillBetweenPolyCollection_1">
    <path d="M 79.681834 134.154545 
L 44.027841 134.154545 
L 44.156533 132.933242 
L 45.824213 131.711938 
L 47.246106 130.490634 
L 49.202942 129.26933 
L 50.536703 128.048026 
L 51.727258 126.826722 
L 53.20168 125.605418 
L 54.11902 124.384114 
L 55.052622 123.16281 
L 55.957701 121.941506 
L 56.483184 120.720202 
L 57.124005 119.498898 
L 57.627474 118.277594 
L 58.017186 117.05629 
L 58.627964 115.834986 
L 59.088606 114.613682 
L 59.399682 113.392378 
L 59.673461 112.171074 
L 59.81934 110.94977 
L 60.075381 109.728466 
L 60.399653 108.507163 
L 60.608502 107.285859 
L 60.793162 106.064555 
L 60.923468 104.843251 
L 61.007719 103.621947 
L 61.116704 102.400643 
L 61.185784 101.179339 
L 61.239445 99.958035 
L 61.298882 98.736731 
L 61.333883 97.515427 
L 61.407537 96.294123 
L 61.507509 95.072819 
L 61.575859 93.851515 
L 61.631564 92.630211 
L 61.672268 91.408907 
L 61.692274 90.187603 
L 61.702884 88.966299 
L 61.700943 87.744995 
L 61.701155 86.523691 
L 61.705321 85.302388 
L 61.707897 84.081084 
L 61.731761 82.85978 
L 61.770086 81.638476 
L 61.79443 80.417172 
L 61.801998 79.195868 
L 61.799229 77.974564 
L 61.796202 76.75326 
L 61.797311 75.531956 
L 61.797988 74.310652 
L 61.805534 73.089348 
L 61.821964 71.868044 
L 61.834012 70.64674 
L 61.835156 69.425436 
L 61.82883 68.204132 
L 61.82538 66.982828 
L 61.832994 65.761524 
L 61.845052 64.54022 
L 61.852229 63.318916 
L 61.854275 62.097612 
L 61.853657 60.876309 
L 61.849925 59.655005 
L 61.842422 58.433701 
L 61.836362 57.212397 
L 61.838654 55.991093 
L 61.846494 54.769789 
L 61.852306 53.548485 
L 61.854385 52.327181 
L 61.85479 51.105877 
L 61.854834 49.884573 
L 61.854837 48.663269 
L 61.854837 47.441965 
L 61.854837 46.220661 
L 61.854837 44.999357 
L 61.854837 43.778053 
L 61.854837 42.556749 
L 61.854837 41.335445 
L 61.854837 40.114141 
L 61.854837 38.892837 
L 61.854837 37.671534 
L 61.854837 36.45023 
L 61.854837 35.228926 
L 61.854837 34.007622 
L 61.854837 32.786318 
L 61.854837 31.565014 
L 61.854837 30.34371 
L 61.854837 29.122406 
L 61.854837 27.901102 
L 61.854837 26.679798 
L 61.854837 25.458494 
L 61.854837 24.23719 
L 61.854837 23.015886 
L 61.854837 21.794582 
L 61.854837 20.573278 
L 61.854825 19.351974 
L 61.854702 18.13067 
L 61.853972 16.909366 
L 61.851584 15.688062 
L 61.847632 14.466758 
L 61.845445 13.245455 
L 61.864229 13.245455 
L 61.864229 13.245455 
L 61.862043 14.466758 
L 61.858091 15.688062 
L 61.855702 16.909366 
L 61.854972 18.13067 
L 61.85485 19.351974 
L 61.854838 20.573278 
L 61.854837 21.794582 
L 61.854837 23.015886 
L 61.854837 24.23719 
L 61.854837 25.458494 
L 61.854837 26.679798 
L 61.854837 27.901102 
L 61.854837 29.122406 
L 61.854837 30.34371 
L 61.854837 31.565014 
L 61.854837 32.786318 
L 61.854837 34.007622 
L 61.854837 35.228926 
L 61.854837 36.45023 
L 61.854837 37.671534 
L 61.854837 38.892837 
L 61.854837 40.114141 
L 61.854837 41.335445 
L 61.854837 42.556749 
L 61.854837 43.778053 
L 61.854837 44.999357 
L 61.854837 46.220661 
L 61.854837 47.441965 
L 61.854837 48.663269 
L 61.85484 49.884573 
L 61.854885 51.105877 
L 61.855289 52.327181 
L 61.857369 53.548485 
L 61.86318 54.769789 
L 61.87102 55.991093 
L 61.873313 57.212397 
L 61.867253 58.433701 
L 61.85975 59.655005 
L 61.856018 60.876309 
L 61.8554 62.097612 
L 61.857446 63.318916 
L 61.864623 64.54022 
L 61.876681 65.761524 
L 61.884295 66.982828 
L 61.880845 68.204132 
L 61.874518 69.425436 
L 61.875662 70.64674 
L 61.88771 71.868044 
L 61.90414 73.089348 
L 61.911687 74.310652 
L 61.912364 75.531956 
L 61.913472 76.75326 
L 61.910445 77.974564 
L 61.907676 79.195868 
L 61.915245 80.417172 
L 61.939588 81.638476 
L 61.977913 82.85978 
L 62.001777 84.081084 
L 62.004353 85.302388 
L 62.00852 86.523691 
L 62.008732 87.744995 
L 62.00679 88.966299 
L 62.0174 90.187603 
L 62.037407 91.408907 
L 62.078111 92.630211 
L 62.133815 93.851515 
L 62.202165 95.072819 
L 62.302138 96.294123 
L 62.375792 97.515427 
L 62.410792 98.736731 
L 62.470229 99.958035 
L 62.52389 101.179339 
L 62.592971 102.400643 
L 62.701956 103.621947 
L 62.786207 104.843251 
L 62.916512 106.064555 
L 63.101173 107.285859 
L 63.310022 108.507163 
L 63.634293 109.728466 
L 63.890334 110.94977 
L 64.036213 112.171074 
L 64.309993 113.392378 
L 64.621068 114.613682 
L 65.081711 115.834986 
L 65.692489 117.05629 
L 66.0822 118.277594 
L 66.585669 119.498898 
L 67.22649 120.720202 
L 67.751973 121.941506 
L 68.657053 123.16281 
L 69.590654 124.384114 
L 70.507995 125.605418 
L 71.982417 126.826722 
L 73.172971 128.048026 
L 74.506732 129.26933 
L 76.463568 130.490634 
L 77.885461 131.711938 
L 79.553141 132.933242 
L 79.681834 134.154545 
z
" clip-path="url(#p7d842d8566)" style="fill: #888780; fill-opacity: 0.7"/>
   </g>
   <g id="FillBetweenPolyCollection_2">
    <path d="M 130.616109 134.154545 
L 94.962116 134.154545 
L 95.090809 132.933242 
L 96.758488 131.711938 
L 98.180382 130.490634 
L 100.137218 129.26933 
L 101.470978 128.048026 
L 102.661533 126.826722 
L 104.135955 125.605418 
L 105.053296 124.384114 
L 105.986897 123.16281 
L 106.891977 121.941506 
L 107.41746 120.720202 
L 108.05828 119.498898 
L 108.561749 118.277594 
L 108.951461 117.05629 
L 109.562239 115.834986 
L 110.022882 114.613682 
L 110.333957 113.392378 
L 110.607736 112.171074 
L 110.753615 110.94977 
L 111.009656 109.728466 
L 111.333928 108.507163 
L 111.542777 107.285859 
L 111.727438 106.064555 
L 111.857743 104.843251 
L 111.941994 103.621947 
L 112.050979 102.400643 
L 112.120059 101.179339 
L 112.17372 99.958035 
L 112.233157 98.736731 
L 112.268158 97.515427 
L 112.341812 96.294123 
L 112.441784 95.072819 
L 112.510134 93.851515 
L 112.565839 92.630211 
L 112.606543 91.408907 
L 112.626549 90.187603 
L 112.63716 88.966299 
L 112.635218 87.744995 
L 112.63543 86.523691 
L 112.639596 85.302388 
L 112.642172 84.081084 
L 112.666036 82.85978 
L 112.704361 81.638476 
L 112.728705 80.417172 
L 112.736274 79.195868 
L 112.733504 77.974564 
L 112.730477 76.75326 
L 112.731586 75.531956 
L 112.732263 74.310652 
L 112.739809 73.089348 
L 112.756239 71.868044 
L 112.768287 70.64674 
L 112.769431 69.425436 
L 112.763105 68.204132 
L 112.759655 66.982828 
L 112.767269 65.761524 
L 112.779327 64.54022 
L 112.786504 63.318916 
L 112.78855 62.097612 
L 112.787932 60.876309 
L 112.7842 59.655005 
L 112.776697 58.433701 
L 112.770637 57.212397 
L 112.77293 55.991093 
L 112.78077 54.769789 
L 112.786581 53.548485 
L 112.78866 52.327181 
L 112.789065 51.105877 
L 112.789109 49.884573 
L 112.789112 48.663269 
L 112.789112 47.441965 
L 112.789112 46.220661 
L 112.789112 44.999357 
L 112.789112 43.778053 
L 112.789112 42.556749 
L 112.789112 41.335445 
L 112.789112 40.114141 
L 112.789112 38.892837 
L 112.789112 37.671534 
L 112.789112 36.45023 
L 112.789112 35.228926 
L 112.789112 34.007622 
L 112.789112 32.786318 
L 112.789112 31.565014 
L 112.789112 30.34371 
L 112.789112 29.122406 
L 112.789112 27.901102 
L 112.789112 26.679798 
L 112.789112 25.458494 
L 112.789112 24.23719 
L 112.789112 23.015886 
L 112.789112 21.794582 
L 112.789112 20.573278 
L 112.7891 19.351974 
L 112.788977 18.13067 
L 112.788248 16.909366 
L 112.785859 15.688062 
L 112.781907 14.466758 
L 112.77972 13.245455 
L 112.798505 13.245455 
L 112.798505 13.245455 
L 112.796318 14.466758 
L 112.792366 15.688062 
L 112.789977 16.909366 
L 112.789248 18.13067 
L 112.789125 19.351974 
L 112.789113 20.573278 
L 112.789112 21.794582 
L 112.789112 23.015886 
L 112.789112 24.23719 
L 112.789112 25.458494 
L 112.789112 26.679798 
L 112.789112 27.901102 
L 112.789112 29.122406 
L 112.789112 30.34371 
L 112.789112 31.565014 
L 112.789112 32.786318 
L 112.789112 34.007622 
L 112.789112 35.228926 
L 112.789112 36.45023 
L 112.789112 37.671534 
L 112.789112 38.892837 
L 112.789112 40.114141 
L 112.789112 41.335445 
L 112.789112 42.556749 
L 112.789112 43.778053 
L 112.789112 44.999357 
L 112.789112 46.220661 
L 112.789112 47.441965 
L 112.789113 48.663269 
L 112.789115 49.884573 
L 112.78916 51.105877 
L 112.789565 52.327181 
L 112.791644 53.548485 
L 112.797455 54.769789 
L 112.805295 55.991093 
L 112.807588 57.212397 
L 112.801528 58.433701 
L 112.794025 59.655005 
L 112.790293 60.876309 
L 112.789675 62.097612 
L 112.791721 63.318916 
L 112.798898 64.54022 
L 112.810956 65.761524 
L 112.81857 66.982828 
L 112.81512 68.204132 
L 112.808794 69.425436 
L 112.809938 70.64674 
L 112.821986 71.868044 
L 112.838415 73.089348 
L 112.845962 74.310652 
L 112.846639 75.531956 
L 112.847747 76.75326 
L 112.84472 77.974564 
L 112.841951 79.195868 
L 112.84952 80.417172 
L 112.873864 81.638476 
L 112.912188 82.85978 
L 112.936052 84.081084 
L 112.938629 85.302388 
L 112.942795 86.523691 
L 112.943007 87.744995 
L 112.941065 88.966299 
L 112.951675 90.187603 
L 112.971682 91.408907 
L 113.012386 92.630211 
L 113.068091 93.851515 
L 113.13644 95.072819 
L 113.236413 96.294123 
L 113.310067 97.515427 
L 113.345067 98.736731 
L 113.404505 99.958035 
L 113.458166 101.179339 
L 113.527246 102.400643 
L 113.636231 103.621947 
L 113.720482 104.843251 
L 113.850787 106.064555 
L 114.035448 107.285859 
L 114.244297 108.507163 
L 114.568568 109.728466 
L 114.824609 110.94977 
L 114.970489 112.171074 
L 115.244268 113.392378 
L 115.555343 114.613682 
L 116.015986 115.834986 
L 116.626764 117.05629 
L 117.016475 118.277594 
L 117.519944 119.498898 
L 118.160765 120.720202 
L 118.686248 121.941506 
L 119.591328 123.16281 
L 120.524929 124.384114 
L 121.44227 125.605418 
L 122.916692 126.826722 
L 124.107246 128.048026 
L 125.441007 129.26933 
L 127.397843 130.490634 
L 128.819736 131.711938 
L 130.487416 132.933242 
L 130.616109 134.154545 
z
" clip-path="url(#p7d842d8566)" style="fill: #378add; fill-opacity: 0.7"/>
   </g>
   <g id="FillBetweenPolyCollection_3">
    <path d="M 181.550384 134.154545 
L 145.896391 134.154545 
L 146.855225 133.340343 
L 149.529268 132.52614 
L 151.21294 131.711938 
L 152.016412 130.897735 
L 153.35536 130.083532 
L 155.06886 129.26933 
L 156.062583 128.455127 
L 156.456111 127.640924 
L 157.19137 126.826722 
L 158.293074 126.012519 
L 159.032294 125.198316 
L 159.317493 124.384114 
L 159.694067 123.569911 
L 160.266152 122.755709 
L 160.626629 121.941506 
L 160.707192 121.127303 
L 160.873362 120.313101 
L 161.220781 119.498898 
L 161.454588 118.684695 
L 161.487526 117.870493 
L 161.591128 117.05629 
L 161.88716 116.242088 
L 162.160712 115.427885 
L 162.271156 114.613682 
L 162.360283 113.79948 
L 162.546648 112.985277 
L 162.727521 112.171074 
L 162.798778 111.356872 
L 162.824273 110.542669 
L 162.872324 109.728466 
L 162.882866 108.914264 
L 162.819094 108.100061 
L 162.792313 107.285859 
L 162.905896 106.471656 
L 163.094588 105.657453 
L 163.233275 104.843251 
L 163.304397 104.029048 
L 163.361371 103.214845 
L 163.412467 102.400643 
L 163.432334 101.58644 
L 163.434928 100.772238 
L 163.456603 99.958035 
L 163.493413 99.143832 
L 163.514129 98.32963 
L 163.517093 97.515427 
L 163.524913 96.701224 
L 163.537137 95.887022 
L 163.53462 95.072819 
L 163.523788 94.258616 
L 163.533851 93.444414 
L 163.570549 92.630211 
L 163.608614 91.816009 
L 163.63084 91.001806 
L 163.64464 90.187603 
L 163.659154 89.373401 
L 163.670959 88.559198 
L 163.676255 87.744995 
L 163.679493 86.930793 
L 163.684492 86.11659 
L 163.688319 85.302388 
L 163.688667 84.488185 
L 163.689036 83.673982 
L 163.692363 82.85978 
L 163.696001 82.045577 
L 163.697144 81.231374 
L 163.698022 80.417172 
L 163.701788 79.602969 
L 163.707293 78.788766 
L 163.711401 77.974564 
L 163.71347 77.160361 
L 163.714719 76.346159 
L 163.715437 75.531956 
L 163.715247 74.717753 
L 163.714776 73.903551 
L 163.714972 73.089348 
L 163.715469 72.275145 
L 163.715321 71.460943 
L 163.71481 70.64674 
L 163.71491 69.832537 
L 163.715439 69.018335 
L 163.715438 68.204132 
L 163.715135 67.38993 
L 163.715853 66.575727 
L 163.717997 65.761524 
L 163.720498 64.947322 
L 163.722242 64.133119 
L 163.723053 63.318916 
L 163.723311 62.504714 
L 163.723339 61.690511 
L 163.723192 60.876309 
L 163.722639 60.062106 
L 163.721271 59.247903 
L 163.718969 58.433701 
L 163.716526 57.619498 
L 163.715224 56.805295 
L 163.715296 55.991093 
L 163.715552 55.17689 
L 163.715247 54.362687 
L 163.715299 53.548485 
L 163.731476 53.548485 
L 163.731476 53.548485 
L 163.731528 54.362687 
L 163.731224 55.17689 
L 163.731479 55.991093 
L 163.731551 56.805295 
L 163.730249 57.619498 
L 163.727806 58.433701 
L 163.725504 59.247903 
L 163.724136 60.062106 
L 163.723583 60.876309 
L 163.723436 61.690511 
L 163.723465 62.504714 
L 163.723722 63.318916 
L 163.724533 64.133119 
L 163.726278 64.947322 
L 163.728778 65.761524 
L 163.730922 66.575727 
L 163.73164 67.38993 
L 163.731337 68.204132 
L 163.731337 69.018335 
L 163.731865 69.832537 
L 163.731965 70.64674 
L 163.731454 71.460943 
L 163.731306 72.275145 
L 163.731803 73.089348 
L 163.732 73.903551 
L 163.731528 74.717753 
L 163.731338 75.531956 
L 163.732056 76.346159 
L 163.733305 77.160361 
L 163.735374 77.974564 
L 163.739483 78.788766 
L 163.744987 79.602969 
L 163.748753 80.417172 
L 163.749631 81.231374 
L 163.750774 82.045577 
L 163.754412 82.85978 
L 163.757739 83.673982 
L 163.758108 84.488185 
L 163.758456 85.302388 
L 163.762284 86.11659 
L 163.767282 86.930793 
L 163.770521 87.744995 
L 163.775816 88.559198 
L 163.787621 89.373401 
L 163.802135 90.187603 
L 163.815935 91.001806 
L 163.838161 91.816009 
L 163.876226 92.630211 
L 163.912924 93.444414 
L 163.922987 94.258616 
L 163.912155 95.072819 
L 163.909638 95.887022 
L 163.921862 96.701224 
L 163.929682 97.515427 
L 163.932646 98.32963 
L 163.953362 99.143832 
L 163.990172 99.958035 
L 164.011847 100.772238 
L 164.014441 101.58644 
L 164.034308 102.400643 
L 164.085404 103.214845 
L 164.142378 104.029048 
L 164.2135 104.843251 
L 164.352187 105.657453 
L 164.540879 106.471656 
L 164.654462 107.285859 
L 164.627681 108.100061 
L 164.563909 108.914264 
L 164.574451 109.728466 
L 164.622503 110.542669 
L 164.647998 111.356872 
L 164.719254 112.171074 
L 164.900127 112.985277 
L 165.086492 113.79948 
L 165.175619 114.613682 
L 165.286064 115.427885 
L 165.559616 116.242088 
L 165.855647 117.05629 
L 165.95925 117.870493 
L 165.992187 118.684695 
L 166.225995 119.498898 
L 166.573413 120.313101 
L 166.739583 121.127303 
L 166.820146 121.941506 
L 167.180623 122.755709 
L 167.752708 123.569911 
L 168.129283 124.384114 
L 168.414481 125.198316 
L 169.153701 126.012519 
L 170.255405 126.826722 
L 170.990664 127.640924 
L 171.384192 128.455127 
L 172.377916 129.26933 
L 174.091415 130.083532 
L 175.430363 130.897735 
L 176.233835 131.711938 
L 177.917507 132.52614 
L 180.59155 133.340343 
L 181.550384 134.154545 
z
" clip-path="url(#p7d842d8566)" style="fill: #ba7517; fill-opacity: 0.7"/>
   </g>
   <g id="FillBetweenPolyCollection_4">
    <path d="M 232.484659 134.154545 
L 196.830666 134.154545 
L 199.578589 133.272493 
L 203.637945 132.39044 
L 203.864509 131.508387 
L 203.638798 130.626334 
L 206.042974 129.744281 
L 207.994861 128.862228 
L 207.638897 127.980175 
L 207.789317 127.098123 
L 209.645473 126.21607 
L 210.909783 125.334017 
L 210.864732 124.451964 
L 211.161363 123.569911 
L 212.027841 122.687858 
L 212.233296 121.805806 
L 211.947544 120.923753 
L 212.266418 120.0417 
L 212.937168 119.159647 
L 213.088739 118.277594 
L 212.995733 117.395541 
L 213.284695 116.513488 
L 213.661626 115.631436 
L 213.691026 114.749383 
L 213.663422 113.86733 
L 213.877644 112.985277 
L 214.071799 112.103224 
L 214.056213 111.221171 
L 214.058734 110.339118 
L 214.184611 109.457066 
L 214.23136 108.575013 
L 214.163101 107.69296 
L 214.18492 106.810907 
L 214.31372 105.928854 
L 214.371882 105.046801 
L 214.353943 104.164748 
L 214.392868 103.282696 
L 214.479848 102.400643 
L 214.518285 101.51859 
L 214.519799 100.636537 
L 214.545905 99.754484 
L 214.582607 98.872431 
L 214.593221 97.990379 
L 214.593944 97.108326 
L 214.608484 96.226273 
L 214.623509 95.34422 
L 214.625511 94.462167 
L 214.625665 93.580114 
L 214.630218 92.698061 
L 214.628421 91.816009 
L 214.620153 90.933956 
L 214.620559 90.051903 
L 214.630383 89.16985 
L 214.635175 88.287797 
L 214.633656 87.405744 
L 214.636092 86.523691 
L 214.641796 85.641639 
L 214.642987 84.759586 
L 214.641599 83.877533 
L 214.643456 82.99548 
L 214.645576 82.113427 
L 214.643604 81.231374 
L 214.641821 80.349321 
L 214.64408 79.467269 
L 214.645509 78.585216 
L 214.643103 77.703163 
L 214.642627 76.82111 
L 214.6476 75.939057 
L 214.653554 75.057004 
L 214.656649 74.174952 
L 214.657512 73.292899 
L 214.657649 72.410846 
L 214.657662 71.528793 
L 214.657663 70.64674 
L 214.657663 69.764687 
L 214.657663 68.882634 
L 214.657663 68.000582 
L 214.657663 67.118529 
L 214.657663 66.236476 
L 214.657663 65.354423 
L 214.657663 64.47237 
L 214.657663 63.590317 
L 214.657663 62.708264 
L 214.657663 61.826212 
L 214.657663 60.944159 
L 214.657663 60.062106 
L 214.657663 59.180053 
L 214.657663 58.298 
L 214.657663 57.415947 
L 214.657663 56.533895 
L 214.657663 55.651842 
L 214.657663 54.769789 
L 214.657663 53.887736 
L 214.657663 53.005683 
L 214.657662 52.12363 
L 214.657649 51.241577 
L 214.65753 50.359525 
L 214.656886 49.477472 
L 214.654917 48.595419 
L 214.651805 47.713366 
L 214.650122 46.831313 
L 214.665204 46.831313 
L 214.665204 46.831313 
L 214.663521 47.713366 
L 214.660409 48.595419 
L 214.658439 49.477472 
L 214.657795 50.359525 
L 214.657676 51.241577 
L 214.657664 52.12363 
L 214.657663 53.005683 
L 214.657663 53.887736 
L 214.657663 54.769789 
L 214.657663 55.651842 
L 214.657663 56.533895 
L 214.657663 57.415947 
L 214.657663 58.298 
L 214.657663 59.180053 
L 214.657663 60.062106 
L 214.657663 60.944159 
L 214.657663 61.826212 
L 214.657663 62.708264 
L 214.657663 63.590317 
L 214.657663 64.47237 
L 214.657663 65.354423 
L 214.657663 66.236476 
L 214.657663 67.118529 
L 214.657663 68.000582 
L 214.657663 68.882634 
L 214.657663 69.764687 
L 214.657663 70.64674 
L 214.657664 71.528793 
L 214.657676 72.410846 
L 214.657814 73.292899 
L 214.658677 74.174952 
L 214.661772 75.057004 
L 214.667726 75.939057 
L 214.672698 76.82111 
L 214.672222 77.703163 
L 214.669816 78.585216 
L 214.671245 79.467269 
L 214.673505 80.349321 
L 214.671722 81.231374 
L 214.669749 82.113427 
L 214.67187 82.99548 
L 214.673727 83.877533 
L 214.672338 84.759586 
L 214.673529 85.641639 
L 214.679233 86.523691 
L 214.68167 87.405744 
L 214.68015 88.287797 
L 214.684942 89.16985 
L 214.694766 90.051903 
L 214.695173 90.933956 
L 214.686904 91.816009 
L 214.685107 92.698061 
L 214.689661 93.580114 
L 214.689814 94.462167 
L 214.691816 95.34422 
L 214.706842 96.226273 
L 214.721382 97.108326 
L 214.722104 97.990379 
L 214.732718 98.872431 
L 214.76942 99.754484 
L 214.795526 100.636537 
L 214.79704 101.51859 
L 214.835477 102.400643 
L 214.922457 103.282696 
L 214.961382 104.164748 
L 214.943443 105.046801 
L 215.001606 105.928854 
L 215.130406 106.810907 
L 215.152225 107.69296 
L 215.083966 108.575013 
L 215.130714 109.457066 
L 215.256592 110.339118 
L 215.259113 111.221171 
L 215.243526 112.103224 
L 215.437682 112.985277 
L 215.651903 113.86733 
L 215.6243 114.749383 
L 215.6537 115.631436 
L 216.03063 116.513488 
L 216.319592 117.395541 
L 216.226586 118.277594 
L 216.378157 119.159647 
L 217.048907 120.0417 
L 217.367781 120.923753 
L 217.082029 121.805806 
L 217.287484 122.687858 
L 218.153963 123.569911 
L 218.450594 124.451964 
L 218.405543 125.334017 
L 219.669853 126.21607 
L 221.526009 127.098123 
L 221.676429 127.980175 
L 221.320465 128.862228 
L 223.272351 129.744281 
L 225.676527 130.626334 
L 225.450817 131.508387 
L 225.677381 132.39044 
L 229.736737 133.272493 
L 232.484659 134.154545 
z
" clip-path="url(#p7d842d8566)" style="fill: #1d9e75; fill-opacity: 0.7"/>
   </g>
   <g id="matplotlib.axis_1">
    <g id="xtick_1">
     <g id="line2d_1">
      <defs>
       <path id="m9163fcbfde" d="M 0 0 
L 0 3.5 
" style="stroke: #000000; stroke-width: 0.8"/>
      </defs>
      <g>
       <use xlink:href="#m9163fcbfde" x="61.854837" y="140.2" style="stroke: #000000; stroke-width: 0.8"/>
      </g>
     </g>
     <g id="text_1">
      <!-- original -->
      <g transform="translate(48.959212 152.92625) scale(0.08 -0.08)">
       <defs>
        <path id="ArialMT-6f" d="M 213 1659 
Q 213 2581 725 3025 
Q 1153 3394 1769 3394 
Q 2453 3394 2887 2945 
Q 3322 2497 3322 1706 
Q 3322 1066 3130 698 
Q 2938 331 2570 128 
Q 2203 -75 1769 -75 
Q 1072 -75 642 372 
Q 213 819 213 1659 
z
M 791 1659 
Q 791 1022 1069 705 
Q 1347 388 1769 388 
Q 2188 388 2466 706 
Q 2744 1025 2744 1678 
Q 2744 2294 2464 2611 
Q 2184 2928 1769 2928 
Q 1347 2928 1069 2612 
Q 791 2297 791 1659 
z
" transform="scale(0.015625)"/>
        <path id="ArialMT-72" d="M 416 0 
L 416 3319 
L 922 3319 
L 922 2816 
Q 1116 3169 1280 3281 
Q 1444 3394 1641 3394 
Q 1925 3394 2219 3213 
L 2025 2691 
Q 1819 2813 1613 2813 
Q 1428 2813 1281 2702 
Q 1134 2591 1072 2394 
Q 978 2094 978 1738 
L 978 0 
L 416 0 
z
" transform="scale(0.015625)"/>
        <path id="ArialMT-69" d="M 425 3934 
L 425 4581 
L 988 4581 
L 988 3934 
L 425 3934 
z
M 425 0 
L 425 3319 
L 988 3319 
L 988 0 
L 425 0 
z
" transform="scale(0.015625)"/>
        <path id="ArialMT-67" d="M 319 -275 
L 866 -356 
Q 900 -609 1056 -725 
Q 1266 -881 1628 -881 
Q 2019 -881 2231 -725 
Q 2444 -569 2519 -288 
Q 2563 -116 2559 434 
Q 2191 0 1641 0 
Q 956 0 581 494 
Q 206 988 206 1678 
Q 206 2153 378 2554 
Q 550 2956 876 3175 
Q 1203 3394 1644 3394 
Q 2231 3394 2613 2919 
L 2613 3319 
L 3131 3319 
L 3131 450 
Q 3131 -325 2973 -648 
Q 2816 -972 2473 -1159 
Q 2131 -1347 1631 -1347 
Q 1038 -1347 672 -1080 
Q 306 -813 319 -275 
z
M 784 1719 
Q 784 1066 1043 766 
Q 1303 466 1694 466 
Q 2081 466 2343 764 
Q 2606 1063 2606 1700 
Q 2606 2309 2336 2618 
Q 2066 2928 1684 2928 
Q 1309 2928 1046 2623 
Q 784 2319 784 1719 
z
" transform="scale(0.015625)"/>
        <path id="ArialMT-6e" d="M 422 0 
L 422 3319 
L 928 3319 
L 928 2847 
Q 1294 3394 1984 3394 
Q 2284 3394 2536 3286 
Q 2788 3178 2913 3003 
Q 3038 2828 3088 2588 
Q 3119 2431 3119 2041 
L 3119 0 
L 2556 0 
L 2556 2019 
Q 2556 2363 2490 2533 
Q 2425 2703 2258 2804 
Q 2091 2906 1866 2906 
Q 1506 2906 1245 2678 
Q 984 2450 984 1813 
L 984 0 
L 422 0 
z
" transform="scale(0.015625)"/>
        <path id="ArialMT-61" d="M 2588 409 
Q 2275 144 1986 34 
Q 1697 -75 1366 -75 
Q 819 -75 525 192 
Q 231 459 231 875 
Q 231 1119 342 1320 
Q 453 1522 633 1644 
Q 813 1766 1038 1828 
Q 1203 1872 1538 1913 
Q 2219 1994 2541 2106 
Q 2544 2222 2544 2253 
Q 2544 2597 2384 2738 
Q 2169 2928 1744 2928 
Q 1347 2928 1158 2789 
Q 969 2650 878 2297 
L 328 2372 
Q 403 2725 575 2942 
Q 747 3159 1072 3276 
Q 1397 3394 1825 3394 
Q 2250 3394 2515 3294 
Q 2781 3194 2906 3042 
Q 3031 2891 3081 2659 
Q 3109 2516 3109 2141 
L 3109 1391 
Q 3109 606 3145 398 
Q 3181 191 3288 0 
L 2700 0 
Q 2613 175 2588 409 
z
M 2541 1666 
Q 2234 1541 1622 1453 
Q 1275 1403 1131 1340 
Q 988 1278 909 1158 
Q 831 1038 831 891 
Q 831 666 1001 516 
Q 1172 366 1500 366 
Q 1825 366 2078 508 
Q 2331 650 2450 897 
Q 2541 1088 2541 1459 
L 2541 1666 
z
" transform="scale(0.015625)"/>
        <path id="ArialMT-6c" d="M 409 0 
L 409 4581 
L 972 4581 
L 972 0 
L 409 0 
z
" transform="scale(0.015625)"/>
       </defs>
       <use xlink:href="#ArialMT-6f"/>
       <use xlink:href="#ArialMT-72" transform="translate(55.615234 0)"/>
       <use xlink:href="#ArialMT-69" transform="translate(88.916016 0)"/>
       <use xlink:href="#ArialMT-67" transform="translate(111.132812 0)"/>
       <use xlink:href="#ArialMT-69" transform="translate(166.748047 0)"/>
       <use xlink:href="#ArialMT-6e" transform="translate(188.964844 0)"/>
       <use xlink:href="#ArialMT-61" transform="translate(244.580078 0)"/>
       <use xlink:href="#ArialMT-6c" transform="translate(300.195312 0)"/>
      </g>
     </g>
    </g>
    <g id="xtick_2">
     <g id="line2d_2">
      <g>
       <use xlink:href="#m9163fcbfde" x="112.789112" y="140.2" style="stroke: #000000; stroke-width: 0.8"/>
      </g>
     </g>
     <g id="text_2">
      <!-- s1 only -->
      <g transform="translate(100.115987 152.95) scale(0.08 -0.08)">
       <defs>
        <path id="ArialMT-73" d="M 197 991 
L 753 1078 
Q 800 744 1014 566 
Q 1228 388 1613 388 
Q 2000 388 2187 545 
Q 2375 703 2375 916 
Q 2375 1106 2209 1216 
Q 2094 1291 1634 1406 
Q 1016 1563 777 1677 
Q 538 1791 414 1992 
Q 291 2194 291 2438 
Q 291 2659 392 2848 
Q 494 3038 669 3163 
Q 800 3259 1026 3326 
Q 1253 3394 1513 3394 
Q 1903 3394 2198 3281 
Q 2494 3169 2634 2976 
Q 2775 2784 2828 2463 
L 2278 2388 
Q 2241 2644 2061 2787 
Q 1881 2931 1553 2931 
Q 1166 2931 1000 2803 
Q 834 2675 834 2503 
Q 834 2394 903 2306 
Q 972 2216 1119 2156 
Q 1203 2125 1616 2013 
Q 2213 1853 2448 1751 
Q 2684 1650 2818 1456 
Q 2953 1263 2953 975 
Q 2953 694 2789 445 
Q 2625 197 2315 61 
Q 2006 -75 1616 -75 
Q 969 -75 630 194 
Q 291 463 197 991 
z
" transform="scale(0.015625)"/>
        <path id="ArialMT-31" d="M 2384 0 
L 1822 0 
L 1822 3584 
Q 1619 3391 1289 3197 
Q 959 3003 697 2906 
L 697 3450 
Q 1169 3672 1522 3987 
Q 1875 4303 2022 4600 
L 2384 4600 
L 2384 0 
z
" transform="scale(0.015625)"/>
        <path id="ArialMT-20" transform="scale(0.015625)"/>
        <path id="ArialMT-79" d="M 397 -1278 
L 334 -750 
Q 519 -800 656 -800 
Q 844 -800 956 -737 
Q 1069 -675 1141 -563 
Q 1194 -478 1313 -144 
Q 1328 -97 1363 -6 
L 103 3319 
L 709 3319 
L 1400 1397 
Q 1534 1031 1641 628 
Q 1738 1016 1872 1384 
L 2581 3319 
L 3144 3319 
L 1881 -56 
Q 1678 -603 1566 -809 
Q 1416 -1088 1222 -1217 
Q 1028 -1347 759 -1347 
Q 597 -1347 397 -1278 
z
" transform="scale(0.015625)"/>
       </defs>
       <use xlink:href="#ArialMT-73"/>
       <use xlink:href="#ArialMT-31" transform="translate(50 0)"/>
       <use xlink:href="#ArialMT-20" transform="translate(105.615234 0)"/>
       <use xlink:href="#ArialMT-6f" transform="translate(133.398438 0)"/>
       <use xlink:href="#ArialMT-6e" transform="translate(189.013672 0)"/>
       <use xlink:href="#ArialMT-6c" transform="translate(244.628906 0)"/>
       <use xlink:href="#ArialMT-79" transform="translate(266.845703 0)"/>
      </g>
     </g>
    </g>
    <g id="xtick_3">
     <g id="line2d_3">
      <g>
       <use xlink:href="#m9163fcbfde" x="163.723388" y="140.2" style="stroke: #000000; stroke-width: 0.8"/>
      </g>
     </g>
     <g id="text_3">
      <!-- switch -->
      <g transform="translate(152.610263 152.92625) scale(0.08 -0.08)">
       <defs>
        <path id="ArialMT-77" d="M 1034 0 
L 19 3319 
L 600 3319 
L 1128 1403 
L 1325 691 
Q 1338 744 1497 1375 
L 2025 3319 
L 2603 3319 
L 3100 1394 
L 3266 759 
L 3456 1400 
L 4025 3319 
L 4572 3319 
L 3534 0 
L 2950 0 
L 2422 1988 
L 2294 2553 
L 1622 0 
L 1034 0 
z
" transform="scale(0.015625)"/>
        <path id="ArialMT-74" d="M 1650 503 
L 1731 6 
Q 1494 -44 1306 -44 
Q 1000 -44 831 53 
Q 663 150 594 308 
Q 525 466 525 972 
L 525 2881 
L 113 2881 
L 113 3319 
L 525 3319 
L 525 4141 
L 1084 4478 
L 1084 3319 
L 1650 3319 
L 1650 2881 
L 1084 2881 
L 1084 941 
Q 1084 700 1114 631 
Q 1144 563 1211 522 
Q 1278 481 1403 481 
Q 1497 481 1650 503 
z
" transform="scale(0.015625)"/>
        <path id="ArialMT-63" d="M 2588 1216 
L 3141 1144 
Q 3050 572 2676 248 
Q 2303 -75 1759 -75 
Q 1078 -75 664 370 
Q 250 816 250 1647 
Q 250 2184 428 2587 
Q 606 2991 970 3192 
Q 1334 3394 1763 3394 
Q 2303 3394 2647 3120 
Q 2991 2847 3088 2344 
L 2541 2259 
Q 2463 2594 2264 2762 
Q 2066 2931 1784 2931 
Q 1359 2931 1093 2626 
Q 828 2322 828 1663 
Q 828 994 1084 691 
Q 1341 388 1753 388 
Q 2084 388 2306 591 
Q 2528 794 2588 1216 
z
" transform="scale(0.015625)"/>
        <path id="ArialMT-68" d="M 422 0 
L 422 4581 
L 984 4581 
L 984 2938 
Q 1378 3394 1978 3394 
Q 2347 3394 2619 3248 
Q 2891 3103 3008 2847 
Q 3125 2591 3125 2103 
L 3125 0 
L 2563 0 
L 2563 2103 
Q 2563 2525 2380 2717 
Q 2197 2909 1863 2909 
Q 1613 2909 1392 2779 
Q 1172 2650 1078 2428 
Q 984 2206 984 1816 
L 984 0 
L 422 0 
z
" transform="scale(0.015625)"/>
       </defs>
       <use xlink:href="#ArialMT-73"/>
       <use xlink:href="#ArialMT-77" transform="translate(50 0)"/>
       <use xlink:href="#ArialMT-69" transform="translate(122.216797 0)"/>
       <use xlink:href="#ArialMT-74" transform="translate(144.433594 0)"/>
       <use xlink:href="#ArialMT-63" transform="translate(172.216797 0)"/>
       <use xlink:href="#ArialMT-68" transform="translate(222.216797 0)"/>
      </g>
     </g>
    </g>
    <g id="xtick_4">
     <g id="line2d_4">
      <g>
       <use xlink:href="#m9163fcbfde" x="214.657663" y="140.2" style="stroke: #000000; stroke-width: 0.8"/>
      </g>
     </g>
     <g id="text_4">
      <!-- blend -->
      <g transform="translate(204.871413 152.92625) scale(0.08 -0.08)">
       <defs>
        <path id="ArialMT-62" d="M 941 0 
L 419 0 
L 419 4581 
L 981 4581 
L 981 2947 
Q 1338 3394 1891 3394 
Q 2197 3394 2470 3270 
Q 2744 3147 2920 2923 
Q 3097 2700 3197 2384 
Q 3297 2069 3297 1709 
Q 3297 856 2875 390 
Q 2453 -75 1863 -75 
Q 1275 -75 941 416 
L 941 0 
z
M 934 1684 
Q 934 1088 1097 822 
Q 1363 388 1816 388 
Q 2184 388 2453 708 
Q 2722 1028 2722 1663 
Q 2722 2313 2464 2622 
Q 2206 2931 1841 2931 
Q 1472 2931 1203 2611 
Q 934 2291 934 1684 
z
" transform="scale(0.015625)"/>
        <path id="ArialMT-65" d="M 2694 1069 
L 3275 997 
Q 3138 488 2766 206 
Q 2394 -75 1816 -75 
Q 1088 -75 661 373 
Q 234 822 234 1631 
Q 234 2469 665 2931 
Q 1097 3394 1784 3394 
Q 2450 3394 2872 2941 
Q 3294 2488 3294 1666 
Q 3294 1616 3291 1516 
L 816 1516 
Q 847 969 1125 678 
Q 1403 388 1819 388 
Q 2128 388 2347 550 
Q 2566 713 2694 1069 
z
M 847 1978 
L 2700 1978 
Q 2663 2397 2488 2606 
Q 2219 2931 1791 2931 
Q 1403 2931 1139 2672 
Q 875 2413 847 1978 
z
" transform="scale(0.015625)"/>
        <path id="ArialMT-64" d="M 2575 0 
L 2575 419 
Q 2259 -75 1647 -75 
Q 1250 -75 917 144 
Q 584 363 401 755 
Q 219 1147 219 1656 
Q 219 2153 384 2558 
Q 550 2963 881 3178 
Q 1213 3394 1622 3394 
Q 1922 3394 2156 3267 
Q 2391 3141 2538 2938 
L 2538 4581 
L 3097 4581 
L 3097 0 
L 2575 0 
z
M 797 1656 
Q 797 1019 1065 703 
Q 1334 388 1700 388 
Q 2069 388 2326 689 
Q 2584 991 2584 1609 
Q 2584 2291 2321 2609 
Q 2059 2928 1675 2928 
Q 1300 2928 1048 2622 
Q 797 2316 797 1656 
z
" transform="scale(0.015625)"/>
       </defs>
       <use xlink:href="#ArialMT-62"/>
       <use xlink:href="#ArialMT-6c" transform="translate(55.615234 0)"/>
       <use xlink:href="#ArialMT-65" transform="translate(77.832031 0)"/>
       <use xlink:href="#ArialMT-6e" transform="translate(133.447266 0)"/>
       <use xlink:href="#ArialMT-64" transform="translate(189.0625 0)"/>
      </g>
     </g>
    </g>
    <g id="text_5">
     <!-- Decision mode -->
     <g transform="translate(111.800625 164.36) scale(0.08 -0.08)">
      <defs>
       <path id="ArialMT-44" d="M 494 0 
L 494 4581 
L 2072 4581 
Q 2606 4581 2888 4516 
Q 3281 4425 3559 4188 
Q 3922 3881 4101 3404 
Q 4281 2928 4281 2316 
Q 4281 1794 4159 1391 
Q 4038 988 3847 723 
Q 3656 459 3429 307 
Q 3203 156 2883 78 
Q 2563 0 2147 0 
L 494 0 
z
M 1100 541 
L 2078 541 
Q 2531 541 2789 625 
Q 3047 709 3200 863 
Q 3416 1078 3536 1442 
Q 3656 1806 3656 2325 
Q 3656 3044 3420 3430 
Q 3184 3816 2847 3947 
Q 2603 4041 2063 4041 
L 1100 4041 
L 1100 541 
z
" transform="scale(0.015625)"/>
       <path id="ArialMT-6d" d="M 422 0 
L 422 3319 
L 925 3319 
L 925 2853 
Q 1081 3097 1340 3245 
Q 1600 3394 1931 3394 
Q 2300 3394 2536 3241 
Q 2772 3088 2869 2813 
Q 3263 3394 3894 3394 
Q 4388 3394 4653 3120 
Q 4919 2847 4919 2278 
L 4919 0 
L 4359 0 
L 4359 2091 
Q 4359 2428 4304 2576 
Q 4250 2725 4106 2815 
Q 3963 2906 3769 2906 
Q 3419 2906 3187 2673 
Q 2956 2441 2956 1928 
L 2956 0 
L 2394 0 
L 2394 2156 
Q 2394 2531 2256 2718 
Q 2119 2906 1806 2906 
Q 1569 2906 1367 2781 
Q 1166 2656 1075 2415 
Q 984 2175 984 1722 
L 984 0 
L 422 0 
z
" transform="scale(0.015625)"/>
      </defs>
      <use xlink:href="#ArialMT-44"/>
      <use xlink:href="#ArialMT-65" transform="translate(72.216797 0)"/>
      <use xlink:href="#ArialMT-63" transform="translate(127.832031 0)"/>
      <use xlink:href="#ArialMT-69" transform="translate(177.832031 0)"/>
      <use xlink:href="#ArialMT-73" transform="translate(200.048828 0)"/>
      <use xlink:href="#ArialMT-69" transform="translate(250.048828 0)"/>
      <use xlink:href="#ArialMT-6f" transform="translate(272.265625 0)"/>
      <use xlink:href="#ArialMT-6e" transform="translate(327.880859 0)"/>
      <use xlink:href="#ArialMT-20" transform="translate(383.496094 0)"/>
      <use xlink:href="#ArialMT-6d" transform="translate(411.279297 0)"/>
      <use xlink:href="#ArialMT-6f" transform="translate(494.580078 0)"/>
      <use xlink:href="#ArialMT-64" transform="translate(550.195312 0)"/>
      <use xlink:href="#ArialMT-65" transform="translate(605.810547 0)"/>
     </g>
    </g>
   </g>
   <g id="matplotlib.axis_2">
    <g id="ytick_1">
     <g id="line2d_5">
      <path d="M 34.605 134.154545 
L 241.9075 134.154545 
" clip-path="url(#p7d842d8566)" style="fill: none; stroke: #b0b0b0; stroke-opacity: 0.3; stroke-width: 0.8; stroke-linecap: square"/>
     </g>
     <g id="line2d_6">
      <defs>
       <path id="m299bcf66a5" d="M 0 0 
L -3.5 0 
" style="stroke: #000000; stroke-width: 0.8"/>
      </defs>
      <g>
       <use xlink:href="#m299bcf66a5" x="34.605" y="134.154545" style="stroke: #000000; stroke-width: 0.8"/>
      </g>
     </g>
     <g id="text_6">
      <!-- 0 -->
      <g transform="translate(23.15625 137.01767) scale(0.08 -0.08)">
       <defs>
        <path id="ArialMT-30" d="M 266 2259 
Q 266 3072 433 3567 
Q 600 4063 929 4331 
Q 1259 4600 1759 4600 
Q 2128 4600 2406 4451 
Q 2684 4303 2865 4023 
Q 3047 3744 3150 3342 
Q 3253 2941 3253 2259 
Q 3253 1453 3087 958 
Q 2922 463 2592 192 
Q 2263 -78 1759 -78 
Q 1097 -78 719 397 
Q 266 969 266 2259 
z
M 844 2259 
Q 844 1131 1108 757 
Q 1372 384 1759 384 
Q 2147 384 2411 759 
Q 2675 1134 2675 2259 
Q 2675 3391 2411 3762 
Q 2147 4134 1753 4134 
Q 1366 4134 1134 3806 
Q 844 3388 844 2259 
z
" transform="scale(0.015625)"/>
       </defs>
       <use xlink:href="#ArialMT-30"/>
      </g>
     </g>
    </g>
    <g id="ytick_2">
     <g id="line2d_7">
      <path d="M 34.605 117.361616 
L 241.9075 117.361616 
" clip-path="url(#p7d842d8566)" style="fill: none; stroke: #b0b0b0; stroke-opacity: 0.3; stroke-width: 0.8; stroke-linecap: square"/>
     </g>
     <g id="line2d_8">
      <g>
       <use xlink:href="#m299bcf66a5" x="34.605" y="117.361616" style="stroke: #000000; stroke-width: 0.8"/>
      </g>
     </g>
     <g id="text_7">
      <!-- 5 -->
      <g transform="translate(23.15625 120.224741) scale(0.08 -0.08)">
       <defs>
        <path id="ArialMT-35" d="M 266 1200 
L 856 1250 
Q 922 819 1161 601 
Q 1400 384 1738 384 
Q 2144 384 2425 690 
Q 2706 997 2706 1503 
Q 2706 1984 2436 2262 
Q 2166 2541 1728 2541 
Q 1456 2541 1237 2417 
Q 1019 2294 894 2097 
L 366 2166 
L 809 4519 
L 3088 4519 
L 3088 3981 
L 1259 3981 
L 1013 2750 
Q 1425 3038 1878 3038 
Q 2478 3038 2890 2622 
Q 3303 2206 3303 1553 
Q 3303 931 2941 478 
Q 2500 -78 1738 -78 
Q 1113 -78 717 272 
Q 322 622 266 1200 
z
" transform="scale(0.015625)"/>
       </defs>
       <use xlink:href="#ArialMT-35"/>
      </g>
     </g>
    </g>
    <g id="ytick_3">
     <g id="line2d_9">
      <path d="M 34.605 100.568687 
L 241.9075 100.568687 
" clip-path="url(#p7d842d8566)" style="fill: none; stroke: #b0b0b0; stroke-opacity: 0.3; stroke-width: 0.8; stroke-linecap: square"/>
     </g>
     <g id="line2d_10">
      <g>
       <use xlink:href="#m299bcf66a5" x="34.605" y="100.568687" style="stroke: #000000; stroke-width: 0.8"/>
      </g>
     </g>
     <g id="text_8">
      <!-- 10 -->
      <g transform="translate(18.7075 103.431812) scale(0.08 -0.08)">
       <use xlink:href="#ArialMT-31"/>
       <use xlink:href="#ArialMT-30" transform="translate(55.615234 0)"/>
      </g>
     </g>
    </g>
    <g id="ytick_4">
     <g id="line2d_11">
      <path d="M 34.605 83.775758 
L 241.9075 83.775758 
" clip-path="url(#p7d842d8566)" style="fill: none; stroke: #b0b0b0; stroke-opacity: 0.3; stroke-width: 0.8; stroke-linecap: square"/>
     </g>
     <g id="line2d_12">
      <g>
       <use xlink:href="#m299bcf66a5" x="34.605" y="83.775758" style="stroke: #000000; stroke-width: 0.8"/>
      </g>
     </g>
     <g id="text_9">
      <!-- 15 -->
      <g transform="translate(18.7075 86.638883) scale(0.08 -0.08)">
       <use xlink:href="#ArialMT-31"/>
       <use xlink:href="#ArialMT-35" transform="translate(55.615234 0)"/>
      </g>
     </g>
    </g>
    <g id="ytick_5">
     <g id="line2d_13">
      <path d="M 34.605 66.982828 
L 241.9075 66.982828 
" clip-path="url(#p7d842d8566)" style="fill: none; stroke: #b0b0b0; stroke-opacity: 0.3; stroke-width: 0.8; stroke-linecap: square"/>
     </g>
     <g id="line2d_14">
      <g>
       <use xlink:href="#m299bcf66a5" x="34.605" y="66.982828" style="stroke: #000000; stroke-width: 0.8"/>
      </g>
     </g>
     <g id="text_10">
      <!-- 20 -->
      <g transform="translate(18.7075 69.845953) scale(0.08 -0.08)">
       <defs>
        <path id="ArialMT-32" d="M 3222 541 
L 3222 0 
L 194 0 
Q 188 203 259 391 
Q 375 700 629 1000 
Q 884 1300 1366 1694 
Q 2113 2306 2375 2664 
Q 2638 3022 2638 3341 
Q 2638 3675 2398 3904 
Q 2159 4134 1775 4134 
Q 1369 4134 1125 3890 
Q 881 3647 878 3216 
L 300 3275 
Q 359 3922 746 4261 
Q 1134 4600 1788 4600 
Q 2447 4600 2831 4234 
Q 3216 3869 3216 3328 
Q 3216 3053 3103 2787 
Q 2991 2522 2730 2228 
Q 2469 1934 1863 1422 
Q 1356 997 1212 845 
Q 1069 694 975 541 
L 3222 541 
z
" transform="scale(0.015625)"/>
       </defs>
       <use xlink:href="#ArialMT-32"/>
       <use xlink:href="#ArialMT-30" transform="translate(55.615234 0)"/>
      </g>
     </g>
    </g>
    <g id="ytick_6">
     <g id="line2d_15">
      <path d="M 34.605 50.189899 
L 241.9075 50.189899 
" clip-path="url(#p7d842d8566)" style="fill: none; stroke: #b0b0b0; stroke-opacity: 0.3; stroke-width: 0.8; stroke-linecap: square"/>
     </g>
     <g id="line2d_16">
      <g>
       <use xlink:href="#m299bcf66a5" x="34.605" y="50.189899" style="stroke: #000000; stroke-width: 0.8"/>
      </g>
     </g>
     <g id="text_11">
      <!-- 25 -->
      <g transform="translate(18.7075 53.053024) scale(0.08 -0.08)">
       <use xlink:href="#ArialMT-32"/>
       <use xlink:href="#ArialMT-35" transform="translate(55.615234 0)"/>
      </g>
     </g>
    </g>
    <g id="ytick_7">
     <g id="line2d_17">
      <path d="M 34.605 33.39697 
L 241.9075 33.39697 
" clip-path="url(#p7d842d8566)" style="fill: none; stroke: #b0b0b0; stroke-opacity: 0.3; stroke-width: 0.8; stroke-linecap: square"/>
     </g>
     <g id="line2d_18">
      <g>
       <use xlink:href="#m299bcf66a5" x="34.605" y="33.39697" style="stroke: #000000; stroke-width: 0.8"/>
      </g>
     </g>
     <g id="text_12">
      <!-- 30 -->
      <g transform="translate(18.7075 36.260095) scale(0.08 -0.08)">
       <defs>
        <path id="ArialMT-33" d="M 269 1209 
L 831 1284 
Q 928 806 1161 595 
Q 1394 384 1728 384 
Q 2125 384 2398 659 
Q 2672 934 2672 1341 
Q 2672 1728 2419 1979 
Q 2166 2231 1775 2231 
Q 1616 2231 1378 2169 
L 1441 2663 
Q 1497 2656 1531 2656 
Q 1891 2656 2178 2843 
Q 2466 3031 2466 3422 
Q 2466 3731 2256 3934 
Q 2047 4138 1716 4138 
Q 1388 4138 1169 3931 
Q 950 3725 888 3313 
L 325 3413 
Q 428 3978 793 4289 
Q 1159 4600 1703 4600 
Q 2078 4600 2393 4439 
Q 2709 4278 2876 4000 
Q 3044 3722 3044 3409 
Q 3044 3113 2884 2869 
Q 2725 2625 2413 2481 
Q 2819 2388 3044 2092 
Q 3269 1797 3269 1353 
Q 3269 753 2831 336 
Q 2394 -81 1725 -81 
Q 1122 -81 723 278 
Q 325 638 269 1209 
z
" transform="scale(0.015625)"/>
       </defs>
       <use xlink:href="#ArialMT-33"/>
       <use xlink:href="#ArialMT-30" transform="translate(55.615234 0)"/>
      </g>
     </g>
    </g>
    <g id="ytick_8">
     <g id="line2d_19">
      <path d="M 34.605 16.60404 
L 241.9075 16.60404 
" clip-path="url(#p7d842d8566)" style="fill: none; stroke: #b0b0b0; stroke-opacity: 0.3; stroke-width: 0.8; stroke-linecap: square"/>
     </g>
     <g id="line2d_20">
      <g>
       <use xlink:href="#m299bcf66a5" x="34.605" y="16.60404" style="stroke: #000000; stroke-width: 0.8"/>
      </g>
     </g>
     <g id="text_13">
      <!-- 35 -->
      <g transform="translate(18.7075 19.467165) scale(0.08 -0.08)">
       <use xlink:href="#ArialMT-33"/>
       <use xlink:href="#ArialMT-35" transform="translate(55.615234 0)"/>
      </g>
     </g>
    </g>
    <g id="text_14">
     <!-- First-departure timestep (hours) -->
     <g transform="translate(13.02375 129.935625) rotate(-90) scale(0.08 -0.08)">
      <defs>
       <path id="ArialMT-46" d="M 525 0 
L 525 4581 
L 3616 4581 
L 3616 4041 
L 1131 4041 
L 1131 2622 
L 3281 2622 
L 3281 2081 
L 1131 2081 
L 1131 0 
L 525 0 
z
" transform="scale(0.015625)"/>
       <path id="ArialMT-2d" d="M 203 1375 
L 203 1941 
L 1931 1941 
L 1931 1375 
L 203 1375 
z
" transform="scale(0.015625)"/>
       <path id="ArialMT-70" d="M 422 -1272 
L 422 3319 
L 934 3319 
L 934 2888 
Q 1116 3141 1344 3267 
Q 1572 3394 1897 3394 
Q 2322 3394 2647 3175 
Q 2972 2956 3137 2557 
Q 3303 2159 3303 1684 
Q 3303 1175 3120 767 
Q 2938 359 2589 142 
Q 2241 -75 1856 -75 
Q 1575 -75 1351 44 
Q 1128 163 984 344 
L 984 -1272 
L 422 -1272 
z
M 931 1641 
Q 931 1000 1190 694 
Q 1450 388 1819 388 
Q 2194 388 2461 705 
Q 2728 1022 2728 1688 
Q 2728 2322 2467 2637 
Q 2206 2953 1844 2953 
Q 1484 2953 1207 2617 
Q 931 2281 931 1641 
z
" transform="scale(0.015625)"/>
       <path id="ArialMT-75" d="M 2597 0 
L 2597 488 
Q 2209 -75 1544 -75 
Q 1250 -75 995 37 
Q 741 150 617 320 
Q 494 491 444 738 
Q 409 903 409 1263 
L 409 3319 
L 972 3319 
L 972 1478 
Q 972 1038 1006 884 
Q 1059 663 1231 536 
Q 1403 409 1656 409 
Q 1909 409 2131 539 
Q 2353 669 2445 892 
Q 2538 1116 2538 1541 
L 2538 3319 
L 3100 3319 
L 3100 0 
L 2597 0 
z
" transform="scale(0.015625)"/>
       <path id="ArialMT-28" d="M 1497 -1347 
Q 1031 -759 709 28 
Q 388 816 388 1659 
Q 388 2403 628 3084 
Q 909 3875 1497 4659 
L 1900 4659 
Q 1522 4009 1400 3731 
Q 1209 3300 1100 2831 
Q 966 2247 966 1656 
Q 966 153 1900 -1347 
L 1497 -1347 
z
" transform="scale(0.015625)"/>
       <path id="ArialMT-29" d="M 791 -1347 
L 388 -1347 
Q 1322 153 1322 1656 
Q 1322 2244 1188 2822 
Q 1081 3291 891 3722 
Q 769 4003 388 4659 
L 791 4659 
Q 1378 3875 1659 3084 
Q 1900 2403 1900 1659 
Q 1900 816 1576 28 
Q 1253 -759 791 -1347 
z
" transform="scale(0.015625)"/>
      </defs>
      <use xlink:href="#ArialMT-46"/>
      <use xlink:href="#ArialMT-69" transform="translate(61.083984 0)"/>
      <use xlink:href="#ArialMT-72" transform="translate(83.300781 0)"/>
      <use xlink:href="#ArialMT-73" transform="translate(116.601562 0)"/>
      <use xlink:href="#ArialMT-74" transform="translate(166.601562 0)"/>
      <use xlink:href="#ArialMT-2d" transform="translate(194.384766 0)"/>
      <use xlink:href="#ArialMT-64" transform="translate(227.685547 0)"/>
      <use xlink:href="#ArialMT-65" transform="translate(283.300781 0)"/>
      <use xlink:href="#ArialMT-70" transform="translate(338.916016 0)"/>
      <use xlink:href="#ArialMT-61" transform="translate(394.53125 0)"/>
      <use xlink:href="#ArialMT-72" transform="translate(450.146484 0)"/>
      <use xlink:href="#ArialMT-74" transform="translate(483.447266 0)"/>
      <use xlink:href="#ArialMT-75" transform="translate(511.230469 0)"/>
      <use xlink:href="#ArialMT-72" transform="translate(566.845703 0)"/>
      <use xlink:href="#ArialMT-65" transform="translate(600.146484 0)"/>
      <use xlink:href="#ArialMT-20" transform="translate(655.761719 0)"/>
      <use xlink:href="#ArialMT-74" transform="translate(683.544922 0)"/>
      <use xlink:href="#ArialMT-69" transform="translate(711.328125 0)"/>
      <use xlink:href="#ArialMT-6d" transform="translate(733.544922 0)"/>
      <use xlink:href="#ArialMT-65" transform="translate(816.845703 0)"/>
      <use xlink:href="#ArialMT-73" transform="translate(872.460938 0)"/>
      <use xlink:href="#ArialMT-74" transform="translate(922.460938 0)"/>
      <use xlink:href="#ArialMT-65" transform="translate(950.244141 0)"/>
      <use xlink:href="#ArialMT-70" transform="translate(1005.859375 0)"/>
      <use xlink:href="#ArialMT-20" transform="translate(1061.474609 0)"/>
      <use xlink:href="#ArialMT-28" transform="translate(1089.257812 0)"/>
      <use xlink:href="#ArialMT-68" transform="translate(1122.558594 0)"/>
      <use xlink:href="#ArialMT-6f" transform="translate(1178.173828 0)"/>
      <use xlink:href="#ArialMT-75" transform="translate(1233.789062 0)"/>
      <use xlink:href="#ArialMT-72" transform="translate(1289.404297 0)"/>
      <use xlink:href="#ArialMT-73" transform="translate(1322.705078 0)"/>
      <use xlink:href="#ArialMT-29" transform="translate(1372.705078 0)"/>
     </g>
    </g>
   </g>
   <g id="LineCollection_1">
    <path d="M 52.941339 126.059794 
L 70.768335 126.059794 
" clip-path="url(#p7d842d8566)" style="fill: none; stroke: #1f77b4; stroke-width: 1.5"/>
   </g>
   <g id="LineCollection_2">
    <path d="M 52.941339 13.245455 
L 70.768335 13.245455 
" clip-path="url(#p7d842d8566)" style="fill: none; stroke: #1f77b4; stroke-width: 1.5"/>
   </g>
   <g id="LineCollection_3">
    <path d="M 52.941339 134.154545 
L 70.768335 134.154545 
" clip-path="url(#p7d842d8566)" style="fill: none; stroke: #1f77b4; stroke-width: 1.5"/>
   </g>
   <g id="LineCollection_4">
    <path d="M 61.854837 134.154545 
L 61.854837 13.245455 
" clip-path="url(#p7d842d8566)" style="fill: none; stroke: #1f77b4; stroke-width: 1.5"/>
   </g>
   <g id="LineCollection_5">
    <path d="M 52.941339 127.437374 
L 70.768335 127.437374 
" clip-path="url(#p7d842d8566)" style="fill: none; stroke: #1f77b4; stroke-width: 1.5"/>
   </g>
   <g id="LineCollection_6">
    <path d="M 103.875614 126.059794 
L 121.702611 126.059794 
" clip-path="url(#p7d842d8566)" style="fill: none; stroke: #ff7f0e; stroke-width: 1.5"/>
   </g>
   <g id="LineCollection_7">
    <path d="M 103.875614 13.245455 
L 121.702611 13.245455 
" clip-path="url(#p7d842d8566)" style="fill: none; stroke: #ff7f0e; stroke-width: 1.5"/>
   </g>
   <g id="LineCollection_8">
    <path d="M 103.875614 134.154545 
L 121.702611 134.154545 
" clip-path="url(#p7d842d8566)" style="fill: none; stroke: #ff7f0e; stroke-width: 1.5"/>
   </g>
   <g id="LineCollection_9">
    <path d="M 112.789112 134.154545 
L 112.789112 13.245455 
" clip-path="url(#p7d842d8566)" style="fill: none; stroke: #ff7f0e; stroke-width: 1.5"/>
   </g>
   <g id="LineCollection_10">
    <path d="M 103.875614 127.437374 
L 121.702611 127.437374 
" clip-path="url(#p7d842d8566)" style="fill: none; stroke: #ff7f0e; stroke-width: 1.5"/>
   </g>
   <g id="LineCollection_11">
    <path d="M 154.809889 127.843763 
L 172.636886 127.843763 
" clip-path="url(#p7d842d8566)" style="fill: none; stroke: #2ca02c; stroke-width: 1.5"/>
   </g>
   <g id="LineCollection_12">
    <path d="M 154.809889 53.548485 
L 172.636886 53.548485 
" clip-path="url(#p7d842d8566)" style="fill: none; stroke: #2ca02c; stroke-width: 1.5"/>
   </g>
   <g id="LineCollection_13">
    <path d="M 154.809889 134.154545 
L 172.636886 134.154545 
" clip-path="url(#p7d842d8566)" style="fill: none; stroke: #2ca02c; stroke-width: 1.5"/>
   </g>
   <g id="LineCollection_14">
    <path d="M 163.723388 134.154545 
L 163.723388 53.548485 
" clip-path="url(#p7d842d8566)" style="fill: none; stroke: #2ca02c; stroke-width: 1.5"/>
   </g>
   <g id="LineCollection_15">
    <path d="M 154.809889 130.79596 
L 172.636886 130.79596 
" clip-path="url(#p7d842d8566)" style="fill: none; stroke: #2ca02c; stroke-width: 1.5"/>
   </g>
   <g id="LineCollection_16">
    <path d="M 205.744165 128.720354 
L 223.571161 128.720354 
" clip-path="url(#p7d842d8566)" style="fill: none; stroke: #d62728; stroke-width: 1.5"/>
   </g>
   <g id="LineCollection_17">
    <path d="M 205.744165 46.831313 
L 223.571161 46.831313 
" clip-path="url(#p7d842d8566)" style="fill: none; stroke: #d62728; stroke-width: 1.5"/>
   </g>
   <g id="LineCollection_18">
    <path d="M 205.744165 134.154545 
L 223.571161 134.154545 
" clip-path="url(#p7d842d8566)" style="fill: none; stroke: #d62728; stroke-width: 1.5"/>
   </g>
   <g id="LineCollection_19">
    <path d="M 214.657663 134.154545 
L 214.657663 46.831313 
" clip-path="url(#p7d842d8566)" style="fill: none; stroke: #d62728; stroke-width: 1.5"/>
   </g>
   <g id="LineCollection_20">
    <path d="M 205.744165 130.79596 
L 223.571161 130.79596 
" clip-path="url(#p7d842d8566)" style="fill: none; stroke: #d62728; stroke-width: 1.5"/>
   </g>
   <g id="patch_3">
    <path d="M 34.605 140.2 
L 34.605 7.2 
" style="fill: none; stroke: #000000; stroke-width: 0.5; stroke-linejoin: miter; stroke-linecap: square"/>
   </g>
   <g id="patch_4">
    <path d="M 34.605 140.2 
L 241.9075 140.2 
" style="fill: none; stroke: #000000; stroke-width: 0.5; stroke-linejoin: miter; stroke-linecap: square"/>
   </g>
   <g id="text_15">
    <g id="patch_5">
     <path d="M 165.7127 23.658125 
L 237.76145 23.658125 
Q 239.56145 23.658125 239.56145 21.858125 
L 239.56145 9.930312 
Q 239.56145 8.130312 237.76145 8.130312 
L 165.7127 8.130312 
Q 163.9127 8.130312 163.9127 9.930312 
L 163.9127 21.858125 
Q 163.9127 23.658125 165.7127 23.658125 
z
" style="fill: #ffffff; opacity: 0.9; stroke: #808080; stroke-linejoin: miter"/>
    </g>
    <!-- α=2.0, β=2.0, κ=5.0 -->
    <g transform="translate(185.641138 14.227812) scale(0.06 -0.06)">
     <defs>
      <path id="ArialMT-3b1" d="M 2884 3319 
L 3459 3319 
Q 3241 2631 3056 1659 
Q 3275 453 3459 0 
L 2900 0 
Q 2766 313 2697 606 
Q 2438 -75 1613 -75 
Q 988 -75 606 394 
Q 225 863 225 1666 
Q 225 2491 608 2942 
Q 991 3394 1622 3394 
Q 2013 3394 2259 3236 
Q 2506 3078 2719 2756 
Q 2741 2866 2884 3319 
z
M 1716 2928 
Q 1313 2928 1078 2603 
Q 844 2278 844 1666 
Q 844 1069 1066 728 
Q 1288 388 1684 388 
Q 2072 388 2331 723 
Q 2591 1059 2591 1691 
Q 2591 2303 2348 2615 
Q 2106 2928 1716 2928 
z
" transform="scale(0.015625)"/>
      <path id="ArialMT-3d" d="M 3381 2694 
L 356 2694 
L 356 3219 
L 3381 3219 
L 3381 2694 
z
M 3381 1303 
L 356 1303 
L 356 1828 
L 3381 1828 
L 3381 1303 
z
" transform="scale(0.015625)"/>
      <path id="ArialMT-2e" d="M 581 0 
L 581 641 
L 1222 641 
L 1222 0 
L 581 0 
z
" transform="scale(0.015625)"/>
      <path id="ArialMT-2c" d="M 569 0 
L 569 641 
L 1209 641 
L 1209 0 
Q 1209 -353 1084 -570 
Q 959 -788 688 -906 
L 531 -666 
Q 709 -588 793 -436 
Q 878 -284 888 0 
L 569 0 
z
" transform="scale(0.015625)"/>
      <path id="ArialMT-3b2" d="M 997 422 
L 997 -1272 
L 438 -1272 
L 438 3144 
Q 438 3672 580 3970 
Q 722 4269 1069 4464 
Q 1416 4659 1841 4659 
Q 2469 4659 2792 4298 
Q 3116 3938 3116 3509 
Q 3116 3091 2855 2834 
Q 2594 2578 2256 2519 
Q 2800 2466 3095 2128 
Q 3391 1791 3391 1297 
Q 3391 766 3042 345 
Q 2694 -75 2034 -75 
Q 1359 -75 997 422 
z
M 1494 2700 
Q 2069 2700 2331 2900 
Q 2594 3100 2594 3478 
Q 2594 3784 2370 3990 
Q 2147 4197 1813 4197 
Q 1522 4197 1308 4044 
Q 1094 3891 1045 3703 
Q 997 3516 997 3047 
L 997 1788 
Q 997 1250 1072 997 
Q 1147 744 1394 541 
Q 1641 338 1963 338 
Q 2353 338 2579 605 
Q 2806 872 2806 1266 
Q 2806 1591 2639 1848 
Q 2472 2106 2226 2198 
Q 1981 2291 1575 2291 
L 1494 2291 
L 1494 2700 
z
" transform="scale(0.015625)"/>
      <path id="ArialMT-3ba" d="M 419 3319 
L 978 3319 
L 978 2016 
L 2325 3319 
L 3069 3319 
L 1584 1941 
L 3197 0 
L 2478 0 
L 1184 1563 
L 978 1372 
L 978 0 
L 419 0 
L 419 3319 
z
" transform="scale(0.015625)"/>
     </defs>
     <use xlink:href="#ArialMT-3b1"/>
     <use xlink:href="#ArialMT-3d" transform="translate(57.8125 0)"/>
     <use xlink:href="#ArialMT-32" transform="translate(116.210938 0)"/>
     <use xlink:href="#ArialMT-2e" transform="translate(171.826172 0)"/>
     <use xlink:href="#ArialMT-30" transform="translate(199.609375 0)"/>
     <use xlink:href="#ArialMT-2c" transform="translate(255.224609 0)"/>
     <use xlink:href="#ArialMT-20" transform="translate(283.007812 0)"/>
     <use xlink:href="#ArialMT-3b2" transform="translate(310.791016 0)"/>
     <use xlink:href="#ArialMT-3d" transform="translate(368.310547 0)"/>
     <use xlink:href="#ArialMT-32" transform="translate(426.708984 0)"/>
     <use xlink:href="#ArialMT-2e" transform="translate(482.324219 0)"/>
     <use xlink:href="#ArialMT-30" transform="translate(510.107422 0)"/>
     <use xlink:href="#ArialMT-2c" transform="translate(565.722656 0)"/>
     <use xlink:href="#ArialMT-20" transform="translate(593.505859 0)"/>
     <use xlink:href="#ArialMT-3ba" transform="translate(621.289062 0)"/>
     <use xlink:href="#ArialMT-3d" transform="translate(671.289062 0)"/>
     <use xlink:href="#ArialMT-35" transform="translate(729.6875 0)"/>
     <use xlink:href="#ArialMT-2e" transform="translate(785.302734 0)"/>
     <use xlink:href="#ArialMT-30" transform="translate(813.085938 0)"/>
    </g>
    <!-- N_agents=500, N_runs=10 -->
    <g transform="translate(165.7127 20.595312) scale(0.06 -0.06)">
     <defs>
      <path id="ArialMT-4e" d="M 488 0 
L 488 4581 
L 1109 4581 
L 3516 984 
L 3516 4581 
L 4097 4581 
L 4097 0 
L 3475 0 
L 1069 3600 
L 1069 0 
L 488 0 
z
" transform="scale(0.015625)"/>
      <path id="ArialMT-5f" d="M -97 -1272 
L -97 -866 
L 3631 -866 
L 3631 -1272 
L -97 -1272 
z
" transform="scale(0.015625)"/>
     </defs>
     <use xlink:href="#ArialMT-4e"/>
     <use xlink:href="#ArialMT-5f" transform="translate(72.216797 0)"/>
     <use xlink:href="#ArialMT-61" transform="translate(127.832031 0)"/>
     <use xlink:href="#ArialMT-67" transform="translate(183.447266 0)"/>
     <use xlink:href="#ArialMT-65" transform="translate(239.0625 0)"/>
     <use xlink:href="#ArialMT-6e" transform="translate(294.677734 0)"/>
     <use xlink:href="#ArialMT-74" transform="translate(350.292969 0)"/>
     <use xlink:href="#ArialMT-73" transform="translate(378.076172 0)"/>
     <use xlink:href="#ArialMT-3d" transform="translate(428.076172 0)"/>
     <use xlink:href="#ArialMT-35" transform="translate(486.474609 0)"/>
     <use xlink:href="#ArialMT-30" transform="translate(542.089844 0)"/>
     <use xlink:href="#ArialMT-30" transform="translate(597.705078 0)"/>
     <use xlink:href="#ArialMT-2c" transform="translate(653.320312 0)"/>
     <use xlink:href="#ArialMT-20" transform="translate(681.103516 0)"/>
     <use xlink:href="#ArialMT-4e" transform="translate(708.886719 0)"/>
     <use xlink:href="#ArialMT-5f" transform="translate(781.103516 0)"/>
     <use xlink:href="#ArialMT-72" transform="translate(836.71875 0)"/>
     <use xlink:href="#ArialMT-75" transform="translate(870.019531 0)"/>
     <use xlink:href="#ArialMT-6e" transform="translate(925.634766 0)"/>
     <use xlink:href="#ArialMT-73" transform="translate(981.25 0)"/>
     <use xlink:href="#ArialMT-3d" transform="translate(1031.25 0)"/>
     <use xlink:href="#ArialMT-31" transform="translate(1089.648438 0)"/>
     <use xlink:href="#ArialMT-30" transform="translate(1145.263672 0)"/>
    </g>
   </g>
  </g>
 </g>
 <defs>
  <clipPath id="p7d842d8566">
   <rect x="34.605" y="7.2" width="207.3025" height="133"/>
  </clipPath>
 </defs>
</svg>
