<?xml version="1.0" encoding="utf-8" standalone="no"?>
<!DOCTYPE svg PUBLIC "-//W3C//DTD SVG 1.1//EN"
  "http://www.w3.org/Graphics/SVG/1.1/DTD/svg11.dtd">
<svg xmlns:xlink="http://www.w3.org/1999/xlink" width="249.1075pt" height="173.15pt" viewBox="0 0 249.1075 173.15" xmlns="http://www.w3.org/2000/svg" version="1.1">
 <metadata>
  <rdf:RDF xmlns:dc="http://purl.org/dc/elements/1.1/" xmlns:cc="http://creativecommons.org/ns#" xmlns:rdf="http://www.w3.org/1999/02/22-rdf-syntax-ns#">
   <cc:Work>
    <dc:type rdf:resource="http://purl.org/dc/dcmitype/StillImage"/>
    <dc:date>2026-04-16T01:28:21.588806</dc:date>
    <dc:format>image/svg+xml</dc:format>
    <dc:creator>
     <cc:Agent>
      <dc:title>Matplotlib v3.10.7, https://matplotlib.org/</dc:title>
     </cc:Agent>
    </dc:creator>
   </cc:Work>
  </rdf:RDF>
 </metadata>
 <defs>
  <style type="text/css">*{stroke-linejoin: round; stroke-linecap: butt}</style>
 </defs>
 <g id="figure_1">
  <g id="patch_1">
   <path d="M 0 173.15 
L 249.1075 173.15 
L 249.1075 0 
L 0 0 
z
" style="fill: #ffffff"/>
  </g>
  <g id="axes_1">
   <g id="patch_2">
    <path d="M 34.605 140.2 
L 241.9075 140.2 
L 241.9075 7.2 
L 34.605 7.2 
z
" style="fill: #ffffff"/>
   </g>
   <g id="FillBetweenPolyCollection_1">
    <path d="M 79.515982 134.154545 
L 44.193692 134.154545 
L 44.027841 133.096082 
L 45.312912 132.037619 
L 46.34652 130.979155 
L 47.285067 129.920692 
L 48.671255 128.862228 
L 49.967212 127.803765 
L 50.716784 126.745301 
L 51.430679 125.686838 
L 52.420495 124.628375 
L 53.227031 123.569911 
L 53.705923 122.511448 
L 54.344675 121.452984 
L 55.256185 120.394521 
L 56.00663 119.336058 
L 56.48198 118.277594 
L 56.9659 117.219131 
L 57.473418 116.160667 
L 57.803151 115.102204 
L 58.056352 114.04374 
L 58.470977 112.985277 
L 58.968807 111.926814 
L 59.334825 110.86835 
L 59.588533 109.809887 
L 59.840971 108.751423 
L 60.050527 107.69296 
L 60.165758 106.634496 
L 60.268485 105.576033 
L 60.411559 104.51757 
L 60.527821 103.459106 
L 60.592356 102.400643 
L 60.678135 101.342179 
L 60.804538 100.283716 
L 60.907942 99.225253 
L 60.977327 98.166789 
L 61.066403 97.108326 
L 61.178814 96.049862 
L 61.267254 94.991399 
L 61.324849 93.932935 
L 61.379486 92.874472 
L 61.428766 91.816009 
L 61.45493 90.757545 
L 61.468844 89.699082 
L 61.485285 88.640618 
L 61.49351 87.582155 
L 61.490932 86.523691 
L 61.503634 85.465228 
L 61.544119 84.406765 
L 61.589565 83.348301 
L 61.621067 82.289838 
L 61.645804 81.231374 
L 61.670137 80.172911 
L 61.686699 79.114448 
L 61.693939 78.055984 
L 61.699285 76.997521 
L 61.702572 75.939057 
L 61.700263 74.880594 
L 61.701557 73.82213 
L 61.718647 72.763667 
L 61.746827 71.705204 
L 61.771164 70.64674 
L 61.785312 69.588277 
L 61.79151 68.529813 
L 61.791553 67.47135 
L 61.788162 66.412886 
L 61.787127 65.354423 
L 61.790493 64.29596 
L 61.794405 63.237496 
L 61.797757 62.179033 
L 61.805312 61.120569 
L 61.819322 60.062106 
L 61.834993 59.003642 
L 61.846401 57.945179 
L 61.852124 56.886716 
L 61.854128 55.828252 
L 61.854444 54.769789 
L 61.853832 53.711325 
L 61.852159 52.652862 
L 61.849364 51.594399 
L 61.846278 50.535935 
L 61.844253 49.477472 
L 61.843678 48.419008 
L 61.84359 47.360545 
L 61.843279 46.302081 
L 61.843146 45.243618 
L 61.843442 44.185155 
L 61.843644 43.126691 
L 61.843807 42.068228 
L 61.844992 41.009764 
L 61.847648 39.951301 
L 61.850765 38.892837 
L 61.853085 37.834374 
L 61.854261 36.775911 
L 61.854645 35.717447 
L 61.854552 34.658984 
L 61.853888 33.60052 
L 61.852259 32.542057 
L 61.84956 31.483594 
L 61.846726 30.42513 
L 61.845476 29.366667 
L 61.864198 29.366667 
L 61.864198 29.366667 
L 61.862949 30.42513 
L 61.860114 31.483594 
L 61.857415 32.542057 
L 61.855786 33.60052 
L 61.855123 34.658984 
L 61.855029 35.717447 
L 61.855413 36.775911 
L 61.85659 37.834374 
L 61.858909 38.892837 
L 61.862026 39.951301 
L 61.864682 41.009764 
L 61.865868 42.068228 
L 61.866031 43.126691 
L 61.866233 44.185155 
L 61.866528 45.243618 
L 61.866396 46.302081 
L 61.866084 47.360545 
L 61.865996 48.419008 
L 61.865421 49.477472 
L 61.863397 50.535935 
L 61.86031 51.594399 
L 61.857516 52.652862 
L 61.855843 53.711325 
L 61.85523 54.769789 
L 61.855546 55.828252 
L 61.85755 56.886716 
L 61.863273 57.945179 
L 61.874681 59.003642 
L 61.890352 60.062106 
L 61.904363 61.120569 
L 61.911917 62.179033 
L 61.915269 63.237496 
L 61.919182 64.29596 
L 61.922547 65.354423 
L 61.921512 66.412886 
L 61.918121 67.47135 
L 61.918164 68.529813 
L 61.924362 69.588277 
L 61.93851 70.64674 
L 61.962848 71.705204 
L 61.991028 72.763667 
L 62.008117 73.82213 
L 62.009411 74.880594 
L 62.007103 75.939057 
L 62.010389 76.997521 
L 62.015736 78.055984 
L 62.022975 79.114448 
L 62.039538 80.172911 
L 62.06387 81.231374 
L 62.088607 82.289838 
L 62.12011 83.348301 
L 62.165555 84.406765 
L 62.206041 85.465228 
L 62.218742 86.523691 
L 62.216164 87.582155 
L 62.22439 88.640618 
L 62.24083 89.699082 
L 62.254745 90.757545 
L 62.280909 91.816009 
L 62.330189 92.874472 
L 62.384826 93.932935 
L 62.44242 94.991399 
L 62.530861 96.049862 
L 62.643272 97.108326 
L 62.732347 98.166789 
L 62.801733 99.225253 
L 62.905137 100.283716 
L 63.031539 101.342179 
L 63.117319 102.400643 
L 63.181853 103.459106 
L 63.298115 104.51757 
L 63.441189 105.576033 
L 63.543916 106.634496 
L 63.659147 107.69296 
L 63.868704 108.751423 
L 64.121142 109.809887 
L 64.374849 110.86835 
L 64.740867 111.926814 
L 65.238697 112.985277 
L 65.653323 114.04374 
L 65.906524 115.102204 
L 66.236256 116.160667 
L 66.743775 117.219131 
L 67.227694 118.277594 
L 67.703045 119.336058 
L 68.45349 120.394521 
L 69.365 121.452984 
L 70.003751 122.511448 
L 70.482644 123.569911 
L 71.289179 124.628375 
L 72.278996 125.686838 
L 72.99289 126.745301 
L 73.742462 127.803765 
L 75.038419 128.862228 
L 76.424607 129.920692 
L 77.363155 130.979155 
L 78.396762 132.037619 
L 79.681834 133.096082 
L 79.515982 134.154545 
z
" clip-path="url(#p3d065fb9c3)" style="fill: #888780; fill-opacity: 0.7"/>
   </g>
   <g id="FillBetweenPolyCollection_2">
    <path d="M 130.450258 134.154545 
L 95.127967 134.154545 
L 94.962116 133.096082 
L 96.247187 132.037619 
L 97.280795 130.979155 
L 98.219343 129.920692 
L 99.60553 128.862228 
L 100.901488 127.803765 
L 101.65106 126.745301 
L 102.364954 125.686838 
L 103.35477 124.628375 
L 104.161306 123.569911 
L 104.640199 122.511448 
L 105.27895 121.452984 
L 106.19046 120.394521 
L 106.940905 119.336058 
L 107.416255 118.277594 
L 107.900175 117.219131 
L 108.407694 116.160667 
L 108.737426 115.102204 
L 108.990627 114.04374 
L 109.405252 112.985277 
L 109.903082 111.926814 
L 110.2691 110.86835 
L 110.522808 109.809887 
L 110.775246 108.751423 
L 110.984802 107.69296 
L 111.100034 106.634496 
L 111.202761 105.576033 
L 111.345835 104.51757 
L 111.462096 103.459106 
L 111.526631 102.400643 
L 111.61241 101.342179 
L 111.738813 100.283716 
L 111.842217 99.225253 
L 111.911602 98.166789 
L 112.000678 97.108326 
L 112.113089 96.049862 
L 112.201529 94.991399 
L 112.259124 93.932935 
L 112.313761 92.874472 
L 112.363041 91.816009 
L 112.389205 90.757545 
L 112.403119 89.699082 
L 112.41956 88.640618 
L 112.427785 87.582155 
L 112.425208 86.523691 
L 112.437909 85.465228 
L 112.478394 84.406765 
L 112.52384 83.348301 
L 112.555342 82.289838 
L 112.580079 81.231374 
L 112.604412 80.172911 
L 112.620974 79.114448 
L 112.628214 78.055984 
L 112.633561 76.997521 
L 112.636847 75.939057 
L 112.634539 74.880594 
L 112.635832 73.82213 
L 112.652922 72.763667 
L 112.681102 71.705204 
L 112.705439 70.64674 
L 112.719587 69.588277 
L 112.725785 68.529813 
L 112.725828 67.47135 
L 112.722437 66.412886 
L 112.721402 65.354423 
L 112.724768 64.29596 
L 112.72868 63.237496 
L 112.732033 62.179033 
L 112.739587 61.120569 
L 112.753597 60.062106 
L 112.769268 59.003642 
L 112.780677 57.945179 
L 112.7864 56.886716 
L 112.788403 55.828252 
L 112.788719 54.769789 
L 112.788107 53.711325 
L 112.786434 52.652862 
L 112.783639 51.594399 
L 112.780553 50.535935 
L 112.778528 49.477472 
L 112.777953 48.419008 
L 112.777865 47.360545 
L 112.777554 46.302081 
L 112.777422 45.243618 
L 112.777717 44.185155 
L 112.777919 43.126691 
L 112.778082 42.068228 
L 112.779267 41.009764 
L 112.781924 39.951301 
L 112.785041 38.892837 
L 112.78736 37.834374 
L 112.788536 36.775911 
L 112.78892 35.717447 
L 112.788827 34.658984 
L 112.788164 33.60052 
L 112.786534 32.542057 
L 112.783835 31.483594 
L 112.781001 30.42513 
L 112.779751 29.366667 
L 112.798474 29.366667 
L 112.798474 29.366667 
L 112.797224 30.42513 
L 112.794389 31.483594 
L 112.79169 32.542057 
L 112.790061 33.60052 
L 112.789398 34.658984 
L 112.789305 35.717447 
L 112.789689 36.775911 
L 112.790865 37.834374 
L 112.793184 38.892837 
L 112.796301 39.951301 
L 112.798958 41.009764 
L 112.800143 42.068228 
L 112.800306 43.126691 
L 112.800508 44.185155 
L 112.800803 45.243618 
L 112.800671 46.302081 
L 112.800359 47.360545 
L 112.800272 48.419008 
L 112.799696 49.477472 
L 112.797672 50.535935 
L 112.794586 51.594399 
L 112.791791 52.652862 
L 112.790118 53.711325 
L 112.789506 54.769789 
L 112.789822 55.828252 
L 112.791825 56.886716 
L 112.797548 57.945179 
L 112.808957 59.003642 
L 112.824627 60.062106 
L 112.838638 61.120569 
L 112.846192 62.179033 
L 112.849545 63.237496 
L 112.853457 64.29596 
L 112.856823 65.354423 
L 112.855788 66.412886 
L 112.852396 67.47135 
L 112.85244 68.529813 
L 112.858637 69.588277 
L 112.872786 70.64674 
L 112.897123 71.705204 
L 112.925303 72.763667 
L 112.942393 73.82213 
L 112.943686 74.880594 
L 112.941378 75.939057 
L 112.944664 76.997521 
L 112.950011 78.055984 
L 112.95725 79.114448 
L 112.973813 80.172911 
L 112.998145 81.231374 
L 113.022883 82.289838 
L 113.054385 83.348301 
L 113.09983 84.406765 
L 113.140316 85.465228 
L 113.153017 86.523691 
L 113.15044 87.582155 
L 113.158665 88.640618 
L 113.175105 89.699082 
L 113.18902 90.757545 
L 113.215184 91.816009 
L 113.264464 92.874472 
L 113.319101 93.932935 
L 113.376696 94.991399 
L 113.465136 96.049862 
L 113.577547 97.108326 
L 113.666622 98.166789 
L 113.736008 99.225253 
L 113.839412 100.283716 
L 113.965815 101.342179 
L 114.051594 102.400643 
L 114.116129 103.459106 
L 114.23239 104.51757 
L 114.375464 105.576033 
L 114.478191 106.634496 
L 114.593422 107.69296 
L 114.802979 108.751423 
L 115.055417 109.809887 
L 115.309124 110.86835 
L 115.675142 111.926814 
L 116.172972 112.985277 
L 116.587598 114.04374 
L 116.840799 115.102204 
L 117.170531 116.160667 
L 117.67805 117.219131 
L 118.16197 118.277594 
L 118.63732 119.336058 
L 119.387765 120.394521 
L 120.299275 121.452984 
L 120.938026 122.511448 
L 121.416919 123.569911 
L 122.223454 124.628375 
L 123.213271 125.686838 
L 123.927165 126.745301 
L 124.676737 127.803765 
L 125.972695 128.862228 
L 127.358882 129.920692 
L 128.29743 130.979155 
L 129.331037 132.037619 
L 130.616109 133.096082 
L 130.450258 134.154545 
z
" clip-path="url(#p3d065fb9c3)" style="fill: #378add; fill-opacity: 0.7"/>
   </g>
   <g id="FillBetweenPolyCollection_3">
    <path d="M 181.550384 134.154545 
L 145.896391 134.154545 
L 147.754745 132.933242 
L 150.837817 131.711938 
L 151.710767 130.490634 
L 153.259466 129.26933 
L 155.5945 128.048026 
L 156.470076 126.826722 
L 157.074619 125.605418 
L 158.376346 124.384114 
L 159.000602 123.16281 
L 159.175874 121.941506 
L 159.958773 120.720202 
L 160.614526 119.498898 
L 160.750382 118.277594 
L 161.151496 117.05629 
L 161.686116 115.834986 
L 161.843414 114.613682 
L 162.010319 113.392378 
L 162.350257 112.171074 
L 162.488795 110.94977 
L 162.54166 109.728466 
L 162.745397 108.507163 
L 162.876449 107.285859 
L 162.878481 106.064555 
L 162.93357 104.843251 
L 162.93763 103.621947 
L 162.845311 102.400643 
L 162.920189 101.179339 
L 163.166703 99.958035 
L 163.33462 98.736731 
L 163.407597 97.515427 
L 163.472046 96.294123 
L 163.4991 95.072819 
L 163.501227 93.851515 
L 163.533289 92.630211 
L 163.563319 91.408907 
L 163.564703 90.187603 
L 163.571648 88.966299 
L 163.575222 87.744995 
L 163.555191 86.523691 
L 163.555139 85.302388 
L 163.587504 84.081084 
L 163.606518 82.85978 
L 163.61415 81.638476 
L 163.639046 80.417172 
L 163.665105 79.195868 
L 163.67617 77.974564 
L 163.683784 76.75326 
L 163.689609 75.531956 
L 163.688931 74.310652 
L 163.688938 73.089348 
L 163.689735 71.868044 
L 163.685112 70.64674 
L 163.684572 69.425436 
L 163.69702 68.204132 
L 163.712411 66.982828 
L 163.720639 65.761524 
L 163.722973 64.54022 
L 163.723324 63.318916 
L 163.723158 62.097612 
L 163.722216 60.876309 
L 163.719761 59.655005 
L 163.716578 58.433701 
L 163.715227 57.212397 
L 163.715754 55.991093 
L 163.715569 54.769789 
L 163.715345 53.548485 
L 163.717456 52.327181 
L 163.720663 51.105877 
L 163.722632 49.884573 
L 163.723262 48.663269 
L 163.723375 47.441965 
L 163.723387 46.220661 
L 163.723388 44.999357 
L 163.723388 43.778053 
L 163.723388 42.556749 
L 163.723388 41.335445 
L 163.723388 40.114141 
L 163.723388 38.892837 
L 163.723388 37.671534 
L 163.723388 36.45023 
L 163.723388 35.228926 
L 163.723388 34.007622 
L 163.723388 32.786318 
L 163.723388 31.565014 
L 163.723388 30.34371 
L 163.723388 29.122406 
L 163.723388 27.901102 
L 163.723388 26.679798 
L 163.723388 25.458494 
L 163.723388 24.23719 
L 163.723388 23.015886 
L 163.723388 21.794582 
L 163.723387 20.573278 
L 163.723375 19.351974 
L 163.723262 18.13067 
L 163.722632 16.909366 
L 163.720668 15.688062 
L 163.717523 14.466758 
L 163.71581 13.245455 
L 163.730965 13.245455 
L 163.730965 13.245455 
L 163.729252 14.466758 
L 163.726107 15.688062 
L 163.724143 16.909366 
L 163.723513 18.13067 
L 163.7234 19.351974 
L 163.723388 20.573278 
L 163.723388 21.794582 
L 163.723388 23.015886 
L 163.723388 24.23719 
L 163.723388 25.458494 
L 163.723388 26.679798 
L 163.723388 27.901102 
L 163.723388 29.122406 
L 163.723388 30.34371 
L 163.723388 31.565014 
L 163.723388 32.786318 
L 163.723388 34.007622 
L 163.723388 35.228926 
L 163.723388 36.45023 
L 163.723388 37.671534 
L 163.723388 38.892837 
L 163.723388 40.114141 
L 163.723388 41.335445 
L 163.723388 42.556749 
L 163.723388 43.778053 
L 163.723388 44.999357 
L 163.723388 46.220661 
L 163.7234 47.441965 
L 163.723513 48.663269 
L 163.724143 49.884573 
L 163.726112 51.105877 
L 163.729319 52.327181 
L 163.731431 53.548485 
L 163.731206 54.769789 
L 163.731021 55.991093 
L 163.731548 57.212397 
L 163.730197 58.433701 
L 163.727014 59.655005 
L 163.724559 60.876309 
L 163.723617 62.097612 
L 163.723451 63.318916 
L 163.723802 64.54022 
L 163.726137 65.761524 
L 163.734364 66.982828 
L 163.749755 68.204132 
L 163.762203 69.425436 
L 163.761664 70.64674 
L 163.75704 71.868044 
L 163.757838 73.089348 
L 163.757845 74.310652 
L 163.757166 75.531956 
L 163.762991 76.75326 
L 163.770605 77.974564 
L 163.78167 79.195868 
L 163.807729 80.417172 
L 163.832625 81.638476 
L 163.840257 82.85978 
L 163.859271 84.081084 
L 163.891636 85.302388 
L 163.891584 86.523691 
L 163.871553 87.744995 
L 163.875127 88.966299 
L 163.882072 90.187603 
L 163.883456 91.408907 
L 163.913486 92.630211 
L 163.945548 93.851515 
L 163.947675 95.072819 
L 163.97473 96.294123 
L 164.039179 97.515427 
L 164.112155 98.736731 
L 164.280072 99.958035 
L 164.526587 101.179339 
L 164.601464 102.400643 
L 164.509145 103.621947 
L 164.513206 104.843251 
L 164.568294 106.064555 
L 164.570326 107.285859 
L 164.701379 108.507163 
L 164.905115 109.728466 
L 164.95798 110.94977 
L 165.096518 112.171074 
L 165.436456 113.392378 
L 165.603362 114.613682 
L 165.760659 115.834986 
L 166.295279 117.05629 
L 166.696394 118.277594 
L 166.83225 119.498898 
L 167.488002 120.720202 
L 168.270901 121.941506 
L 168.446173 123.16281 
L 169.070429 124.384114 
L 170.372156 125.605418 
L 170.976699 126.826722 
L 171.852275 128.048026 
L 174.187309 129.26933 
L 175.736008 130.490634 
L 176.608958 131.711938 
L 179.69203 132.933242 
L 181.550384 134.154545 
z
" clip-path="url(#p3d065fb9c3)" style="fill: #ba7517; fill-opacity: 0.7"/>
   </g>
   <g id="FillBetweenPolyCollection_4">
    <path d="M 232.484659 134.154545 
L 196.830666 134.154545 
L 199.927271 133.136792 
L 204.459256 132.119039 
L 204.608462 131.101286 
L 203.716966 130.083532 
L 205.921788 129.065779 
L 208.480942 128.048026 
L 208.32296 127.030272 
L 207.768028 126.012519 
L 209.238356 124.994766 
L 210.857146 123.977013 
L 210.779195 122.959259 
L 210.497373 121.941506 
L 211.400522 120.923753 
L 212.268015 119.905999 
L 212.077763 118.888246 
L 211.888278 117.870493 
L 212.53366 116.85274 
L 213.150925 115.834986 
L 213.087472 114.817233 
L 213.011562 113.79948 
L 213.412874 112.781726 
L 213.766932 111.763973 
L 213.718896 110.74622 
L 213.686017 109.728466 
L 213.940859 108.710713 
L 214.1661 107.69296 
L 214.161477 106.675207 
L 214.152088 105.657453 
L 214.263935 104.6397 
L 214.312812 103.621947 
L 214.229396 102.604193 
L 214.21186 101.58644 
L 214.341905 100.568687 
L 214.455194 99.550934 
L 214.467687 98.53318 
L 214.475722 97.515427 
L 214.532562 96.497674 
L 214.579149 95.47992 
L 214.585299 94.462167 
L 214.588271 93.444414 
L 214.603835 92.426661 
L 214.605808 91.408907 
L 214.591221 90.391154 
L 214.591697 89.373401 
L 214.614729 88.355647 
L 214.634618 87.337894 
L 214.640219 86.320141 
L 214.642292 85.302388 
L 214.645914 84.284634 
L 214.645942 83.266881 
L 214.642667 82.249128 
L 214.643084 81.231374 
L 214.647672 80.213621 
L 214.65027 79.195868 
L 214.649731 78.178114 
L 214.649827 77.160361 
L 214.650181 76.142608 
L 214.647109 75.124855 
L 214.642662 74.107101 
L 214.642579 73.089348 
L 214.644425 72.071595 
L 214.640903 71.053841 
L 214.63514 70.036088 
L 214.637143 69.018335 
L 214.646297 68.000582 
L 214.653891 66.982828 
L 214.65685 65.965075 
L 214.657102 64.947322 
L 214.655674 63.929568 
L 214.652696 62.911815 
L 214.650236 61.894062 
L 214.651033 60.876309 
L 214.65413 59.858555 
L 214.656539 58.840802 
L 214.657449 57.823049 
L 214.657639 56.805295 
L 214.657661 55.787542 
L 214.657663 54.769789 
L 214.657663 53.752036 
L 214.657663 52.734282 
L 214.657663 51.716529 
L 214.657663 50.698776 
L 214.657663 49.681022 
L 214.657663 48.663269 
L 214.657663 47.645516 
L 214.657663 46.627762 
L 214.657663 45.610009 
L 214.657663 44.592256 
L 214.657663 43.574503 
L 214.657663 42.556749 
L 214.657663 41.538996 
L 214.657663 40.521243 
L 214.657662 39.503489 
L 214.657651 38.485736 
L 214.657541 37.467983 
L 214.656919 36.45023 
L 214.654962 35.432476 
L 214.651807 34.414723 
L 214.650084 33.39697 
L 214.665241 33.39697 
L 214.665241 33.39697 
L 214.663518 34.414723 
L 214.660363 35.432476 
L 214.658406 36.45023 
L 214.657785 37.467983 
L 214.657675 38.485736 
L 214.657663 39.503489 
L 214.657663 40.521243 
L 214.657663 41.538996 
L 214.657663 42.556749 
L 214.657663 43.574503 
L 214.657663 44.592256 
L 214.657663 45.610009 
L 214.657663 46.627762 
L 214.657663 47.645516 
L 214.657663 48.663269 
L 214.657663 49.681022 
L 214.657663 50.698776 
L 214.657663 51.716529 
L 214.657663 52.734282 
L 214.657663 53.752036 
L 214.657663 54.769789 
L 214.657664 55.787542 
L 214.657687 56.805295 
L 214.657876 57.823049 
L 214.658787 58.840802 
L 214.661196 59.858555 
L 214.664293 60.876309 
L 214.665089 61.894062 
L 214.662629 62.911815 
L 214.659652 63.929568 
L 214.658223 64.947322 
L 214.658475 65.965075 
L 214.661435 66.982828 
L 214.669028 68.000582 
L 214.678183 69.018335 
L 214.680186 70.036088 
L 214.674422 71.053841 
L 214.670901 72.071595 
L 214.672747 73.089348 
L 214.672664 74.107101 
L 214.668216 75.124855 
L 214.665145 76.142608 
L 214.665499 77.160361 
L 214.665595 78.178114 
L 214.665056 79.195868 
L 214.667653 80.213621 
L 214.672242 81.231374 
L 214.672659 82.249128 
L 214.669384 83.266881 
L 214.669412 84.284634 
L 214.673034 85.302388 
L 214.675106 86.320141 
L 214.680707 87.337894 
L 214.700596 88.355647 
L 214.723629 89.373401 
L 214.724104 90.391154 
L 214.709518 91.408907 
L 214.71149 92.426661 
L 214.727055 93.444414 
L 214.730026 94.462167 
L 214.736177 95.47992 
L 214.782764 96.497674 
L 214.839603 97.515427 
L 214.847638 98.53318 
L 214.860132 99.550934 
L 214.973421 100.568687 
L 215.103465 101.58644 
L 215.08593 102.604193 
L 215.002514 103.621947 
L 215.051391 104.6397 
L 215.163238 105.657453 
L 215.153849 106.675207 
L 215.149226 107.69296 
L 215.374466 108.710713 
L 215.629309 109.728466 
L 215.596429 110.74622 
L 215.548394 111.763973 
L 215.902452 112.781726 
L 216.303763 113.79948 
L 216.227853 114.817233 
L 216.1644 115.834986 
L 216.781665 116.85274 
L 217.427047 117.870493 
L 217.237563 118.888246 
L 217.047311 119.905999 
L 217.914803 120.923753 
L 218.817952 121.941506 
L 218.536131 122.959259 
L 218.45818 123.977013 
L 220.076969 124.994766 
L 221.547298 126.012519 
L 220.992365 127.030272 
L 220.834383 128.048026 
L 223.393537 129.065779 
L 225.598359 130.083532 
L 224.706864 131.101286 
L 224.856069 132.119039 
L 229.388055 133.136792 
L 232.484659 134.154545 
z
" clip-path="url(#p3d065fb9c3)" style="fill: #1d9e75; fill-opacity: 0.7"/>
   </g>
   <g id="matplotlib.axis_1">
    <g id="xtick_1">
     <g id="line2d_1">
      <defs>
       <path id="m8689cbacdb" d="M 0 0 
L 0 3.5 
" style="stroke: #000000; stroke-width: 0.8"/>
      </defs>
      <g>
       <use xlink:href="#m8689cbacdb" x="61.854837" y="140.2" style="stroke: #000000; stroke-width: 0.8"/>
      </g>
     </g>
     <g id="text_1">
      <!-- original -->
      <g transform="translate(48.959212 152.92625) scale(0.08 -0.08)">
       <defs>
        <path id="ArialMT-6f" d="M 213 1659 
Q 213 2581 725 3025 
Q 1153 3394 1769 3394 
Q 2453 3394 2887 2945 
Q 3322 2497 3322 1706 
Q 3322 1066 3130 698 
Q 2938 331 2570 128 
Q 2203 -75 1769 -75 
Q 1072 -75 642 372 
Q 213 819 213 1659 
z
M 791 1659 
Q 791 1022 1069 705 
Q 1347 388 1769 388 
Q 2188 388 2466 706 
Q 2744 1025 2744 1678 
Q 2744 2294 2464 2611 
Q 2184 2928 1769 2928 
Q 1347 2928 1069 2612 
Q 791 2297 791 1659 
z
" transform="scale(0.015625)"/>
        <path id="ArialMT-72" d="M 416 0 
L 416 3319 
L 922 3319 
L 922 2816 
Q 1116 3169 1280 3281 
Q 1444 3394 1641 3394 
Q 1925 3394 2219 3213 
L 2025 2691 
Q 1819 2813 1613 2813 
Q 1428 2813 1281 2702 
Q 1134 2591 1072 2394 
Q 978 2094 978 1738 
L 978 0 
L 416 0 
z
" transform="scale(0.015625)"/>
        <path id="ArialMT-69" d="M 425 3934 
L 425 4581 
L 988 4581 
L 988 3934 
L 425 3934 
z
M 425 0 
L 425 3319 
L 988 3319 
L 988 0 
L 425 0 
z
" transform="scale(0.015625)"/>
        <path id="ArialMT-67" d="M 319 -275 
L 866 -356 
Q 900 -609 1056 -725 
Q 1266 -881 1628 -881 
Q 2019 -881 2231 -725 
Q 2444 -569 2519 -288 
Q 2563 -116 2559 434 
Q 2191 0 1641 0 
Q 956 0 581 494 
Q 206 988 206 1678 
Q 206 2153 378 2554 
Q 550 2956 876 3175 
Q 1203 3394 1644 3394 
Q 2231 3394 2613 2919 
L 2613 3319 
L 3131 3319 
L 3131 450 
Q 3131 -325 2973 -648 
Q 2816 -972 2473 -1159 
Q 2131 -1347 1631 -1347 
Q 1038 -1347 672 -1080 
Q 306 -813 319 -275 
z
M 784 1719 
Q 784 1066 1043 766 
Q 1303 466 1694 466 
Q 2081 466 2343 764 
Q 2606 1063 2606 1700 
Q 2606 2309 2336 2618 
Q 2066 2928 1684 2928 
Q 1309 2928 1046 2623 
Q 784 2319 784 1719 
z
" transform="scale(0.015625)"/>
        <path id="ArialMT-6e" d="M 422 0 
L 422 3319 
L 928 3319 
L 928 2847 
Q 1294 3394 1984 3394 
Q 2284 3394 2536 3286 
Q 2788 3178 2913 3003 
Q 3038 2828 3088 2588 
Q 3119 2431 3119 2041 
L 3119 0 
L 2556 0 
L 2556 2019 
Q 2556 2363 2490 2533 
Q 2425 2703 2258 2804 
Q 2091 2906 1866 2906 
Q 1506 2906 1245 2678 
Q 984 2450 984 1813 
L 984 0 
L 422 0 
z
" transform="scale(0.015625)"/>
        <path id="ArialMT-61" d="M 2588 409 
Q 2275 144 1986 34 
Q 1697 -75 1366 -75 
Q 819 -75 525 192 
Q 231 459 231 875 
Q 231 1119 342 1320 
Q 453 1522 633 1644 
Q 813 1766 1038 1828 
Q 1203 1872 1538 1913 
Q 2219 1994 2541 2106 
Q 2544 2222 2544 2253 
Q 2544 2597 2384 2738 
Q 2169 2928 1744 2928 
Q 1347 2928 1158 2789 
Q 969 2650 878 2297 
L 328 2372 
Q 403 2725 575 2942 
Q 747 3159 1072 3276 
Q 1397 3394 1825 3394 
Q 2250 3394 2515 3294 
Q 2781 3194 2906 3042 
Q 3031 2891 3081 2659 
Q 3109 2516 3109 2141 
L 3109 1391 
Q 3109 606 3145 398 
Q 3181 191 3288 0 
L 2700 0 
Q 2613 175 2588 409 
z
M 2541 1666 
Q 2234 1541 1622 1453 
Q 1275 1403 1131 1340 
Q 988 1278 909 1158 
Q 831 1038 831 891 
Q 831 666 1001 516 
Q 1172 366 1500 366 
Q 1825 366 2078 508 
Q 2331 650 2450 897 
Q 2541 1088 2541 1459 
L 2541 1666 
z
" transform="scale(0.015625)"/>
        <path id="ArialMT-6c" d="M 409 0 
L 409 4581 
L 972 4581 
L 972 0 
L 409 0 
z
" transform="scale(0.015625)"/>
       </defs>
       <use xlink:href="#ArialMT-6f"/>
       <use xlink:href="#ArialMT-72" transform="translate(55.615234 0)"/>
       <use xlink:href="#ArialMT-69" transform="translate(88.916016 0)"/>
       <use xlink:href="#ArialMT-67" transform="translate(111.132812 0)"/>
       <use xlink:href="#ArialMT-69" transform="translate(166.748047 0)"/>
       <use xlink:href="#ArialMT-6e" transform="translate(188.964844 0)"/>
       <use xlink:href="#ArialMT-61" transform="translate(244.580078 0)"/>
       <use xlink:href="#ArialMT-6c" transform="translate(300.195312 0)"/>
      </g>
     </g>
    </g>
    <g id="xtick_2">
     <g id="line2d_2">
      <g>
       <use xlink:href="#m8689cbacdb" x="112.789112" y="140.2" style="stroke: #000000; stroke-width: 0.8"/>
      </g>
     </g>
     <g id="text_2">
      <!-- s1 only -->
      <g transform="translate(100.115987 152.95) scale(0.08 -0.08)">
       <defs>
        <path id="ArialMT-73" d="M 197 991 
L 753 1078 
Q 800 744 1014 566 
Q 1228 388 1613 388 
Q 2000 388 2187 545 
Q 2375 703 2375 916 
Q 2375 1106 2209 1216 
Q 2094 1291 1634 1406 
Q 1016 1563 777 1677 
Q 538 1791 414 1992 
Q 291 2194 291 2438 
Q 291 2659 392 2848 
Q 494 3038 669 3163 
Q 800 3259 1026 3326 
Q 1253 3394 1513 3394 
Q 1903 3394 2198 3281 
Q 2494 3169 2634 2976 
Q 2775 2784 2828 2463 
L 2278 2388 
Q 2241 2644 2061 2787 
Q 1881 2931 1553 2931 
Q 1166 2931 1000 2803 
Q 834 2675 834 2503 
Q 834 2394 903 2306 
Q 972 2216 1119 2156 
Q 1203 2125 1616 2013 
Q 2213 1853 2448 1751 
Q 2684 1650 2818 1456 
Q 2953 1263 2953 975 
Q 2953 694 2789 445 
Q 2625 197 2315 61 
Q 2006 -75 1616 -75 
Q 969 -75 630 194 
Q 291 463 197 991 
z
" transform="scale(0.015625)"/>
        <path id="ArialMT-31" d="M 2384 0 
L 1822 0 
L 1822 3584 
Q 1619 3391 1289 3197 
Q 959 3003 697 2906 
L 697 3450 
Q 1169 3672 1522 3987 
Q 1875 4303 2022 4600 
L 2384 4600 
L 2384 0 
z
" transform="scale(0.015625)"/>
        <path id="ArialMT-20" transform="scale(0.015625)"/>
        <path id="ArialMT-79" d="M 397 -1278 
L 334 -750 
Q 519 -800 656 -800 
Q 844 -800 956 -737 
Q 1069 -675 1141 -563 
Q 1194 -478 1313 -144 
Q 1328 -97 1363 -6 
L 103 3319 
L 709 3319 
L 1400 1397 
Q 1534 1031 1641 628 
Q 1738 1016 1872 1384 
L 2581 3319 
L 3144 3319 
L 1881 -56 
Q 1678 -603 1566 -809 
Q 1416 -1088 1222 -1217 
Q 1028 -1347 759 -1347 
Q 597 -1347 397 -1278 
z
" transform="scale(0.015625)"/>
       </defs>
       <use xlink:href="#ArialMT-73"/>
       <use xlink:href="#ArialMT-31" transform="translate(50 0)"/>
       <use xlink:href="#ArialMT-20" transform="translate(105.615234 0)"/>
       <use xlink:href="#ArialMT-6f" transform="translate(133.398438 0)"/>
       <use xlink:href="#ArialMT-6e" transform="translate(189.013672 0)"/>
       <use xlink:href="#ArialMT-6c" transform="translate(244.628906 0)"/>
       <use xlink:href="#ArialMT-79" transform="translate(266.845703 0)"/>
      </g>
     </g>
    </g>
    <g id="xtick_3">
     <g id="line2d_3">
      <g>
       <use xlink:href="#m8689cbacdb" x="163.723388" y="140.2" style="stroke: #000000; stroke-width: 0.8"/>
      </g>
     </g>
     <g id="text_3">
      <!-- switch -->
      <g transform="translate(152.610263 152.92625) scale(0.08 -0.08)">
       <defs>
        <path id="ArialMT-77" d="M 1034 0 
L 19 3319 
L 600 3319 
L 1128 1403 
L 1325 691 
Q 1338 744 1497 1375 
L 2025 3319 
L 2603 3319 
L 3100 1394 
L 3266 759 
L 3456 1400 
L 4025 3319 
L 4572 3319 
L 3534 0 
L 2950 0 
L 2422 1988 
L 2294 2553 
L 1622 0 
L 1034 0 
z
" transform="scale(0.015625)"/>
        <path id="ArialMT-74" d="M 1650 503 
L 1731 6 
Q 1494 -44 1306 -44 
Q 1000 -44 831 53 
Q 663 150 594 308 
Q 525 466 525 972 
L 525 2881 
L 113 2881 
L 113 3319 
L 525 3319 
L 525 4141 
L 1084 4478 
L 1084 3319 
L 1650 3319 
L 1650 2881 
L 1084 2881 
L 1084 941 
Q 1084 700 1114 631 
Q 1144 563 1211 522 
Q 1278 481 1403 481 
Q 1497 481 1650 503 
z
" transform="scale(0.015625)"/>
        <path id="ArialMT-63" d="M 2588 1216 
L 3141 1144 
Q 3050 572 2676 248 
Q 2303 -75 1759 -75 
Q 1078 -75 664 370 
Q 250 816 250 1647 
Q 250 2184 428 2587 
Q 606 2991 970 3192 
Q 1334 3394 1763 3394 
Q 2303 3394 2647 3120 
Q 2991 2847 3088 2344 
L 2541 2259 
Q 2463 2594 2264 2762 
Q 2066 2931 1784 2931 
Q 1359 2931 1093 2626 
Q 828 2322 828 1663 
Q 828 994 1084 691 
Q 1341 388 1753 388 
Q 2084 388 2306 591 
Q 2528 794 2588 1216 
z
" transform="scale(0.015625)"/>
        <path id="ArialMT-68" d="M 422 0 
L 422 4581 
L 984 4581 
L 984 2938 
Q 1378 3394 1978 3394 
Q 2347 3394 2619 3248 
Q 2891 3103 3008 2847 
Q 3125 2591 3125 2103 
L 3125 0 
L 2563 0 
L 2563 2103 
Q 2563 2525 2380 2717 
Q 2197 2909 1863 2909 
Q 1613 2909 1392 2779 
Q 1172 2650 1078 2428 
Q 984 2206 984 1816 
L 984 0 
L 422 0 
z
" transform="scale(0.015625)"/>
       </defs>
       <use xlink:href="#ArialMT-73"/>
       <use xlink:href="#ArialMT-77" transform="translate(50 0)"/>
       <use xlink:href="#ArialMT-69" transform="translate(122.216797 0)"/>
       <use xlink:href="#ArialMT-74" transform="translate(144.433594 0)"/>
       <use xlink:href="#ArialMT-63" transform="translate(172.216797 0)"/>
       <use xlink:href="#ArialMT-68" transform="translate(222.216797 0)"/>
      </g>
     </g>
    </g>
    <g id="xtick_4">
     <g id="line2d_4">
      <g>
       <use xlink:href="#m8689cbacdb" x="214.657663" y="140.2" style="stroke: #000000; stroke-width: 0.8"/>
      </g>
     </g>
     <g id="text_4">
      <!-- blend -->
      <g transform="translate(204.871413 152.92625) scale(0.08 -0.08)">
       <defs>
        <path id="ArialMT-62" d="M 941 0 
L 419 0 
L 419 4581 
L 981 4581 
L 981 2947 
Q 1338 3394 1891 3394 
Q 2197 3394 2470 3270 
Q 2744 3147 2920 2923 
Q 3097 2700 3197 2384 
Q 3297 2069 3297 1709 
Q 3297 856 2875 390 
Q 2453 -75 1863 -75 
Q 1275 -75 941 416 
L 941 0 
z
M 934 1684 
Q 934 1088 1097 822 
Q 1363 388 1816 388 
Q 2184 388 2453 708 
Q 2722 1028 2722 1663 
Q 2722 2313 2464 2622 
Q 2206 2931 1841 2931 
Q 1472 2931 1203 2611 
Q 934 2291 934 1684 
z
" transform="scale(0.015625)"/>
        <path id="ArialMT-65" d="M 2694 1069 
L 3275 997 
Q 3138 488 2766 206 
Q 2394 -75 1816 -75 
Q 1088 -75 661 373 
Q 234 822 234 1631 
Q 234 2469 665 2931 
Q 1097 3394 1784 3394 
Q 2450 3394 2872 2941 
Q 3294 2488 3294 1666 
Q 3294 1616 3291 1516 
L 816 1516 
Q 847 969 1125 678 
Q 1403 388 1819 388 
Q 2128 388 2347 550 
Q 2566 713 2694 1069 
z
M 847 1978 
L 2700 1978 
Q 2663 2397 2488 2606 
Q 2219 2931 1791 2931 
Q 1403 2931 1139 2672 
Q 875 2413 847 1978 
z
" transform="scale(0.015625)"/>
        <path id="ArialMT-64" d="M 2575 0 
L 2575 419 
Q 2259 -75 1647 -75 
Q 1250 -75 917 144 
Q 584 363 401 755 
Q 219 1147 219 1656 
Q 219 2153 384 2558 
Q 550 2963 881 3178 
Q 1213 3394 1622 3394 
Q 1922 3394 2156 3267 
Q 2391 3141 2538 2938 
L 2538 4581 
L 3097 4581 
L 3097 0 
L 2575 0 
z
M 797 1656 
Q 797 1019 1065 703 
Q 1334 388 1700 388 
Q 2069 388 2326 689 
Q 2584 991 2584 1609 
Q 2584 2291 2321 2609 
Q 2059 2928 1675 2928 
Q 1300 2928 1048 2622 
Q 797 2316 797 1656 
z
" transform="scale(0.015625)"/>
       </defs>
       <use xlink:href="#ArialMT-62"/>
       <use xlink:href="#ArialMT-6c" transform="translate(55.615234 0)"/>
       <use xlink:href="#ArialMT-65" transform="translate(77.832031 0)"/>
       <use xlink:href="#ArialMT-6e" transform="translate(133.447266 0)"/>
       <use xlink:href="#ArialMT-64" transform="translate(189.0625 0)"/>
      </g>
     </g>
    </g>
    <g id="text_5">
     <!-- Decision mode -->
     <g transform="translate(111.800625 164.36) scale(0.08 -0.08)">
      <defs>
       <path id="ArialMT-44" d="M 494 0 
L 494 4581 
L 2072 4581 
Q 2606 4581 2888 4516 
Q 3281 4425 3559 4188 
Q 3922 3881 4101 3404 
Q 4281 2928 4281 2316 
Q 4281 1794 4159 1391 
Q 4038 988 3847 723 
Q 3656 459 3429 307 
Q 3203 156 2883 78 
Q 2563 0 2147 0 
L 494 0 
z
M 1100 541 
L 2078 541 
Q 2531 541 2789 625 
Q 3047 709 3200 863 
Q 3416 1078 3536 1442 
Q 3656 1806 3656 2325 
Q 3656 3044 3420 3430 
Q 3184 3816 2847 3947 
Q 2603 4041 2063 4041 
L 1100 4041 
L 1100 541 
z
" transform="scale(0.015625)"/>
       <path id="ArialMT-6d" d="M 422 0 
L 422 3319 
L 925 3319 
L 925 2853 
Q 1081 3097 1340 3245 
Q 1600 3394 1931 3394 
Q 2300 3394 2536 3241 
Q 2772 3088 2869 2813 
Q 3263 3394 3894 3394 
Q 4388 3394 4653 3120 
Q 4919 2847 4919 2278 
L 4919 0 
L 4359 0 
L 4359 2091 
Q 4359 2428 4304 2576 
Q 4250 2725 4106 2815 
Q 3963 2906 3769 2906 
Q 3419 2906 3187 2673 
Q 2956 2441 2956 1928 
L 2956 0 
L 2394 0 
L 2394 2156 
Q 2394 2531 2256 2718 
Q 2119 2906 1806 2906 
Q 1569 2906 1367 2781 
Q 1166 2656 1075 2415 
Q 984 2175 984 1722 
L 984 0 
L 422 0 
z
" transform="scale(0.015625)"/>
      </defs>
      <use xlink:href="#ArialMT-44"/>
      <use xlink:href="#ArialMT-65" transform="translate(72.216797 0)"/>
      <use xlink:href="#ArialMT-63" transform="translate(127.832031 0)"/>
      <use xlink:href="#ArialMT-69" transform="translate(177.832031 0)"/>
      <use xlink:href="#ArialMT-73" transform="translate(200.048828 0)"/>
      <use xlink:href="#ArialMT-69" transform="translate(250.048828 0)"/>
      <use xlink:href="#ArialMT-6f" transform="translate(272.265625 0)"/>
      <use xlink:href="#ArialMT-6e" transform="translate(327.880859 0)"/>
      <use xlink:href="#ArialMT-20" transform="translate(383.496094 0)"/>
      <use xlink:href="#ArialMT-6d" transform="translate(411.279297 0)"/>
      <use xlink:href="#ArialMT-6f" transform="translate(494.580078 0)"/>
      <use xlink:href="#ArialMT-64" transform="translate(550.195312 0)"/>
      <use xlink:href="#ArialMT-65" transform="translate(605.810547 0)"/>
     </g>
    </g>
   </g>
   <g id="matplotlib.axis_2">
    <g id="ytick_1">
     <g id="line2d_5">
      <path d="M 34.605 134.154545 
L 241.9075 134.154545 
" clip-path="url(#p3d065fb9c3)" style="fill: none; stroke: #b0b0b0; stroke-opacity: 0.3; stroke-width: 0.8; stroke-linecap: square"/>
     </g>
     <g id="line2d_6">
      <defs>
       <path id="mf4b6373e0f" d="M 0 0 
L -3.5 0 
" style="stroke: #000000; stroke-width: 0.8"/>
      </defs>
      <g>
       <use xlink:href="#mf4b6373e0f" x="34.605" y="134.154545" style="stroke: #000000; stroke-width: 0.8"/>
      </g>
     </g>
     <g id="text_6">
      <!-- 0 -->
      <g transform="translate(23.15625 137.01767) scale(0.08 -0.08)">
       <defs>
        <path id="ArialMT-30" d="M 266 2259 
Q 266 3072 433 3567 
Q 600 4063 929 4331 
Q 1259 4600 1759 4600 
Q 2128 4600 2406 4451 
Q 2684 4303 2865 4023 
Q 3047 3744 3150 3342 
Q 3253 2941 3253 2259 
Q 3253 1453 3087 958 
Q 2922 463 2592 192 
Q 2263 -78 1759 -78 
Q 1097 -78 719 397 
Q 266 969 266 2259 
z
M 844 2259 
Q 844 1131 1108 757 
Q 1372 384 1759 384 
Q 2147 384 2411 759 
Q 2675 1134 2675 2259 
Q 2675 3391 2411 3762 
Q 2147 4134 1753 4134 
Q 1366 4134 1134 3806 
Q 844 3388 844 2259 
z
" transform="scale(0.015625)"/>
       </defs>
       <use xlink:href="#ArialMT-30"/>
      </g>
     </g>
    </g>
    <g id="ytick_2">
     <g id="line2d_7">
      <path d="M 34.605 114.00303 
L 241.9075 114.00303 
" clip-path="url(#p3d065fb9c3)" style="fill: none; stroke: #b0b0b0; stroke-opacity: 0.3; stroke-width: 0.8; stroke-linecap: square"/>
     </g>
     <g id="line2d_8">
      <g>
       <use xlink:href="#mf4b6373e0f" x="34.605" y="114.00303" style="stroke: #000000; stroke-width: 0.8"/>
      </g>
     </g>
     <g id="text_7">
      <!-- 5 -->
      <g transform="translate(23.15625 116.866155) scale(0.08 -0.08)">
       <defs>
        <path id="ArialMT-35" d="M 266 1200 
L 856 1250 
Q 922 819 1161 601 
Q 1400 384 1738 384 
Q 2144 384 2425 690 
Q 2706 997 2706 1503 
Q 2706 1984 2436 2262 
Q 2166 2541 1728 2541 
Q 1456 2541 1237 2417 
Q 1019 2294 894 2097 
L 366 2166 
L 809 4519 
L 3088 4519 
L 3088 3981 
L 1259 3981 
L 1013 2750 
Q 1425 3038 1878 3038 
Q 2478 3038 2890 2622 
Q 3303 2206 3303 1553 
Q 3303 931 2941 478 
Q 2500 -78 1738 -78 
Q 1113 -78 717 272 
Q 322 622 266 1200 
z
" transform="scale(0.015625)"/>
       </defs>
       <use xlink:href="#ArialMT-35"/>
      </g>
     </g>
    </g>
    <g id="ytick_3">
     <g id="line2d_9">
      <path d="M 34.605 93.851515 
L 241.9075 93.851515 
" clip-path="url(#p3d065fb9c3)" style="fill: none; stroke: #b0b0b0; stroke-opacity: 0.3; stroke-width: 0.8; stroke-linecap: square"/>
     </g>
     <g id="line2d_10">
      <g>
       <use xlink:href="#mf4b6373e0f" x="34.605" y="93.851515" style="stroke: #000000; stroke-width: 0.8"/>
      </g>
     </g>
     <g id="text_8">
      <!-- 10 -->
      <g transform="translate(18.7075 96.71464) scale(0.08 -0.08)">
       <use xlink:href="#ArialMT-31"/>
       <use xlink:href="#ArialMT-30" transform="translate(55.615234 0)"/>
      </g>
     </g>
    </g>
    <g id="ytick_4">
     <g id="line2d_11">
      <path d="M 34.605 73.7 
L 241.9075 73.7 
" clip-path="url(#p3d065fb9c3)" style="fill: none; stroke: #b0b0b0; stroke-opacity: 0.3; stroke-width: 0.8; stroke-linecap: square"/>
     </g>
     <g id="line2d_12">
      <g>
       <use xlink:href="#mf4b6373e0f" x="34.605" y="73.7" style="stroke: #000000; stroke-width: 0.8"/>
      </g>
     </g>
     <g id="text_9">
      <!-- 15 -->
      <g transform="translate(18.7075 76.563125) scale(0.08 -0.08)">
       <use xlink:href="#ArialMT-31"/>
       <use xlink:href="#ArialMT-35" transform="translate(55.615234 0)"/>
      </g>
     </g>
    </g>
    <g id="ytick_5">
     <g id="line2d_13">
      <path d="M 34.605 53.548485 
L 241.9075 53.548485 
" clip-path="url(#p3d065fb9c3)" style="fill: none; stroke: #b0b0b0; stroke-opacity: 0.3; stroke-width: 0.8; stroke-linecap: square"/>
     </g>
     <g id="line2d_14">
      <g>
       <use xlink:href="#mf4b6373e0f" x="34.605" y="53.548485" style="stroke: #000000; stroke-width: 0.8"/>
      </g>
     </g>
     <g id="text_10">
      <!-- 20 -->
      <g transform="translate(18.7075 56.41161) scale(0.08 -0.08)">
       <defs>
        <path id="ArialMT-32" d="M 3222 541 
L 3222 0 
L 194 0 
Q 188 203 259 391 
Q 375 700 629 1000 
Q 884 1300 1366 1694 
Q 2113 2306 2375 2664 
Q 2638 3022 2638 3341 
Q 2638 3675 2398 3904 
Q 2159 4134 1775 4134 
Q 1369 4134 1125 3890 
Q 881 3647 878 3216 
L 300 3275 
Q 359 3922 746 4261 
Q 1134 4600 1788 4600 
Q 2447 4600 2831 4234 
Q 3216 3869 3216 3328 
Q 3216 3053 3103 2787 
Q 2991 2522 2730 2228 
Q 2469 1934 1863 1422 
Q 1356 997 1212 845 
Q 1069 694 975 541 
L 3222 541 
z
" transform="scale(0.015625)"/>
       </defs>
       <use xlink:href="#ArialMT-32"/>
       <use xlink:href="#ArialMT-30" transform="translate(55.615234 0)"/>
      </g>
     </g>
    </g>
    <g id="ytick_6">
     <g id="line2d_15">
      <path d="M 34.605 33.39697 
L 241.9075 33.39697 
" clip-path="url(#p3d065fb9c3)" style="fill: none; stroke: #b0b0b0; stroke-opacity: 0.3; stroke-width: 0.8; stroke-linecap: square"/>
     </g>
     <g id="line2d_16">
      <g>
       <use xlink:href="#mf4b6373e0f" x="34.605" y="33.39697" style="stroke: #000000; stroke-width: 0.8"/>
      </g>
     </g>
     <g id="text_11">
      <!-- 25 -->
      <g transform="translate(18.7075 36.260095) scale(0.08 -0.08)">
       <use xlink:href="#ArialMT-32"/>
       <use xlink:href="#ArialMT-35" transform="translate(55.615234 0)"/>
      </g>
     </g>
    </g>
    <g id="ytick_7">
     <g id="line2d_17">
      <path d="M 34.605 13.245455 
L 241.9075 13.245455 
" clip-path="url(#p3d065fb9c3)" style="fill: none; stroke: #b0b0b0; stroke-opacity: 0.3; stroke-width: 0.8; stroke-linecap: square"/>
     </g>
     <g id="line2d_18">
      <g>
       <use xlink:href="#mf4b6373e0f" x="34.605" y="13.245455" style="stroke: #000000; stroke-width: 0.8"/>
      </g>
     </g>
     <g id="text_12">
      <!-- 30 -->
      <g transform="translate(18.7075 16.10858) scale(0.08 -0.08)">
       <defs>
        <path id="ArialMT-33" d="M 269 1209 
L 831 1284 
Q 928 806 1161 595 
Q 1394 384 1728 384 
Q 2125 384 2398 659 
Q 2672 934 2672 1341 
Q 2672 1728 2419 1979 
Q 2166 2231 1775 2231 
Q 1616 2231 1378 2169 
L 1441 2663 
Q 1497 2656 1531 2656 
Q 1891 2656 2178 2843 
Q 2466 3031 2466 3422 
Q 2466 3731 2256 3934 
Q 2047 4138 1716 4138 
Q 1388 4138 1169 3931 
Q 950 3725 888 3313 
L 325 3413 
Q 428 3978 793 4289 
Q 1159 4600 1703 4600 
Q 2078 4600 2393 4439 
Q 2709 4278 2876 4000 
Q 3044 3722 3044 3409 
Q 3044 3113 2884 2869 
Q 2725 2625 2413 2481 
Q 2819 2388 3044 2092 
Q 3269 1797 3269 1353 
Q 3269 753 2831 336 
Q 2394 -81 1725 -81 
Q 1122 -81 723 278 
Q 325 638 269 1209 
z
" transform="scale(0.015625)"/>
       </defs>
       <use xlink:href="#ArialMT-33"/>
       <use xlink:href="#ArialMT-30" transform="translate(55.615234 0)"/>
      </g>
     </g>
    </g>
    <g id="text_13">
     <!-- First-departure timestep (hours) -->
     <g transform="translate(13.02375 129.935625) rotate(-90) scale(0.08 -0.08)">
      <defs>
       <path id="ArialMT-46" d="M 525 0 
L 525 4581 
L 3616 4581 
L 3616 4041 
L 1131 4041 
L 1131 2622 
L 3281 2622 
L 3281 2081 
L 1131 2081 
L 1131 0 
L 525 0 
z
" transform="scale(0.015625)"/>
       <path id="ArialMT-2d" d="M 203 1375 
L 203 1941 
L 1931 1941 
L 1931 1375 
L 203 1375 
z
" transform="scale(0.015625)"/>
       <path id="ArialMT-70" d="M 422 -1272 
L 422 3319 
L 934 3319 
L 934 2888 
Q 1116 3141 1344 3267 
Q 1572 3394 1897 3394 
Q 2322 3394 2647 3175 
Q 2972 2956 3137 2557 
Q 3303 2159 3303 1684 
Q 3303 1175 3120 767 
Q 2938 359 2589 142 
Q 2241 -75 1856 -75 
Q 1575 -75 1351 44 
Q 1128 163 984 344 
L 984 -1272 
L 422 -1272 
z
M 931 1641 
Q 931 1000 1190 694 
Q 1450 388 1819 388 
Q 2194 388 2461 705 
Q 2728 1022 2728 1688 
Q 2728 2322 2467 2637 
Q 2206 2953 1844 2953 
Q 1484 2953 1207 2617 
Q 931 2281 931 1641 
z
" transform="scale(0.015625)"/>
       <path id="ArialMT-75" d="M 2597 0 
L 2597 488 
Q 2209 -75 1544 -75 
Q 1250 -75 995 37 
Q 741 150 617 320 
Q 494 491 444 738 
Q 409 903 409 1263 
L 409 3319 
L 972 3319 
L 972 1478 
Q 972 1038 1006 884 
Q 1059 663 1231 536 
Q 1403 409 1656 409 
Q 1909 409 2131 539 
Q 2353 669 2445 892 
Q 2538 1116 2538 1541 
L 2538 3319 
L 3100 3319 
L 3100 0 
L 2597 0 
z
" transform="scale(0.015625)"/>
       <path id="ArialMT-28" d="M 1497 -1347 
Q 1031 -759 709 28 
Q 388 816 388 1659 
Q 388 2403 628 3084 
Q 909 3875 1497 4659 
L 1900 4659 
Q 1522 4009 1400 3731 
Q 1209 3300 1100 2831 
Q 966 2247 966 1656 
Q 966 153 1900 -1347 
L 1497 -1347 
z
" transform="scale(0.015625)"/>
       <path id="ArialMT-29" d="M 791 -1347 
L 388 -1347 
Q 1322 153 1322 1656 
Q 1322 2244 1188 2822 
Q 1081 3291 891 3722 
Q 769 4003 388 4659 
L 791 4659 
Q 1378 3875 1659 3084 
Q 1900 2403 1900 1659 
Q 1900 816 1576 28 
Q 1253 -759 791 -1347 
z
" transform="scale(0.015625)"/>
      </defs>
      <use xlink:href="#ArialMT-46"/>
      <use xlink:href="#ArialMT-69" transform="translate(61.083984 0)"/>
      <use xlink:href="#ArialMT-72" transform="translate(83.300781 0)"/>
      <use xlink:href="#ArialMT-73" transform="translate(116.601562 0)"/>
      <use xlink:href="#ArialMT-74" transform="translate(166.601562 0)"/>
      <use xlink:href="#ArialMT-2d" transform="translate(194.384766 0)"/>
      <use xlink:href="#ArialMT-64" transform="translate(227.685547 0)"/>
      <use xlink:href="#ArialMT-65" transform="translate(283.300781 0)"/>
      <use xlink:href="#ArialMT-70" transform="translate(338.916016 0)"/>
      <use xlink:href="#ArialMT-61" transform="translate(394.53125 0)"/>
      <use xlink:href="#ArialMT-72" transform="translate(450.146484 0)"/>
      <use xlink:href="#ArialMT-74" transform="translate(483.447266 0)"/>
      <use xlink:href="#ArialMT-75" transform="translate(511.230469 0)"/>
      <use xlink:href="#ArialMT-72" transform="translate(566.845703 0)"/>
      <use xlink:href="#ArialMT-65" transform="translate(600.146484 0)"/>
      <use xlink:href="#ArialMT-20" transform="translate(655.761719 0)"/>
      <use xlink:href="#ArialMT-74" transform="translate(683.544922 0)"/>
      <use xlink:href="#ArialMT-69" transform="translate(711.328125 0)"/>
      <use xlink:href="#ArialMT-6d" transform="translate(733.544922 0)"/>
      <use xlink:href="#ArialMT-65" transform="translate(816.845703 0)"/>
      <use xlink:href="#ArialMT-73" transform="translate(872.460938 0)"/>
      <use xlink:href="#ArialMT-74" transform="translate(922.460938 0)"/>
      <use xlink:href="#ArialMT-65" transform="translate(950.244141 0)"/>
      <use xlink:href="#ArialMT-70" transform="translate(1005.859375 0)"/>
      <use xlink:href="#ArialMT-20" transform="translate(1061.474609 0)"/>
      <use xlink:href="#ArialMT-28" transform="translate(1089.257812 0)"/>
      <use xlink:href="#ArialMT-68" transform="translate(1122.558594 0)"/>
      <use xlink:href="#ArialMT-6f" transform="translate(1178.173828 0)"/>
      <use xlink:href="#ArialMT-75" transform="translate(1233.789062 0)"/>
      <use xlink:href="#ArialMT-72" transform="translate(1289.404297 0)"/>
      <use xlink:href="#ArialMT-73" transform="translate(1322.705078 0)"/>
      <use xlink:href="#ArialMT-29" transform="translate(1372.705078 0)"/>
     </g>
    </g>
   </g>
   <g id="LineCollection_1">
    <path d="M 52.941339 124.608773 
L 70.768335 124.608773 
" clip-path="url(#p3d065fb9c3)" style="fill: none; stroke: #1f77b4; stroke-width: 1.5"/>
   </g>
   <g id="LineCollection_2">
    <path d="M 52.941339 29.366667 
L 70.768335 29.366667 
" clip-path="url(#p3d065fb9c3)" style="fill: none; stroke: #1f77b4; stroke-width: 1.5"/>
   </g>
   <g id="LineCollection_3">
    <path d="M 52.941339 134.154545 
L 70.768335 134.154545 
" clip-path="url(#p3d065fb9c3)" style="fill: none; stroke: #1f77b4; stroke-width: 1.5"/>
   </g>
   <g id="LineCollection_4">
    <path d="M 61.854837 134.154545 
L 61.854837 29.366667 
" clip-path="url(#p3d065fb9c3)" style="fill: none; stroke: #1f77b4; stroke-width: 1.5"/>
   </g>
   <g id="LineCollection_5">
    <path d="M 52.941339 126.093939 
L 70.768335 126.093939 
" clip-path="url(#p3d065fb9c3)" style="fill: none; stroke: #1f77b4; stroke-width: 1.5"/>
   </g>
   <g id="LineCollection_6">
    <path d="M 103.875614 124.608773 
L 121.702611 124.608773 
" clip-path="url(#p3d065fb9c3)" style="fill: none; stroke: #ff7f0e; stroke-width: 1.5"/>
   </g>
   <g id="LineCollection_7">
    <path d="M 103.875614 29.366667 
L 121.702611 29.366667 
" clip-path="url(#p3d065fb9c3)" style="fill: none; stroke: #ff7f0e; stroke-width: 1.5"/>
   </g>
   <g id="LineCollection_8">
    <path d="M 103.875614 134.154545 
L 121.702611 134.154545 
" clip-path="url(#p3d065fb9c3)" style="fill: none; stroke: #ff7f0e; stroke-width: 1.5"/>
   </g>
   <g id="LineCollection_9">
    <path d="M 112.789112 134.154545 
L 112.789112 29.366667 
" clip-path="url(#p3d065fb9c3)" style="fill: none; stroke: #ff7f0e; stroke-width: 1.5"/>
   </g>
   <g id="LineCollection_10">
    <path d="M 103.875614 126.093939 
L 121.702611 126.093939 
" clip-path="url(#p3d065fb9c3)" style="fill: none; stroke: #ff7f0e; stroke-width: 1.5"/>
   </g>
   <g id="LineCollection_11">
    <path d="M 154.809889 126.858354 
L 172.636886 126.858354 
" clip-path="url(#p3d065fb9c3)" style="fill: none; stroke: #2ca02c; stroke-width: 1.5"/>
   </g>
   <g id="LineCollection_12">
    <path d="M 154.809889 13.245455 
L 172.636886 13.245455 
" clip-path="url(#p3d065fb9c3)" style="fill: none; stroke: #2ca02c; stroke-width: 1.5"/>
   </g>
   <g id="LineCollection_13">
    <path d="M 154.809889 134.154545 
L 172.636886 134.154545 
" clip-path="url(#p3d065fb9c3)" style="fill: none; stroke: #2ca02c; stroke-width: 1.5"/>
   </g>
   <g id="LineCollection_14">
    <path d="M 163.723388 134.154545 
L 163.723388 13.245455 
" clip-path="url(#p3d065fb9c3)" style="fill: none; stroke: #2ca02c; stroke-width: 1.5"/>
   </g>
   <g id="LineCollection_15">
    <path d="M 154.809889 130.124242 
L 172.636886 130.124242 
" clip-path="url(#p3d065fb9c3)" style="fill: none; stroke: #2ca02c; stroke-width: 1.5"/>
   </g>
   <g id="LineCollection_16">
    <path d="M 205.744165 127.774576 
L 223.571161 127.774576 
" clip-path="url(#p3d065fb9c3)" style="fill: none; stroke: #d62728; stroke-width: 1.5"/>
   </g>
   <g id="LineCollection_17">
    <path d="M 205.744165 33.39697 
L 223.571161 33.39697 
" clip-path="url(#p3d065fb9c3)" style="fill: none; stroke: #d62728; stroke-width: 1.5"/>
   </g>
   <g id="LineCollection_18">
    <path d="M 205.744165 134.154545 
L 223.571161 134.154545 
" clip-path="url(#p3d065fb9c3)" style="fill: none; stroke: #d62728; stroke-width: 1.5"/>
   </g>
   <g id="LineCollection_19">
    <path d="M 214.657663 134.154545 
L 214.657663 33.39697 
" clip-path="url(#p3d065fb9c3)" style="fill: none; stroke: #d62728; stroke-width: 1.5"/>
   </g>
   <g id="LineCollection_20">
    <path d="M 205.744165 130.124242 
L 223.571161 130.124242 
" clip-path="url(#p3d065fb9c3)" style="fill: none; stroke: #d62728; stroke-width: 1.5"/>
   </g>
   <g id="patch_3">
    <path d="M 34.605 140.2 
L 34.605 7.2 
" style="fill: none; stroke: #000000; stroke-width: 0.5; stroke-linejoin: miter; stroke-linecap: square"/>
   </g>
   <g id="patch_4">
    <path d="M 34.605 140.2 
L 241.9075 140.2 
" style="fill: none; stroke: #000000; stroke-width: 0.5; stroke-linejoin: miter; stroke-linecap: square"/>
   </g>
   <g id="text_14">
    <g id="patch_5">
     <path d="M 165.7127 23.658125 
L 237.76145 23.658125 
Q 239.56145 23.658125 239.56145 21.858125 
L 239.56145 9.930312 
Q 239.56145 8.130312 237.76145 8.130312 
L 165.7127 8.130312 
Q 163.9127 8.130312 163.9127 9.930312 
L 163.9127 21.858125 
Q 163.9127 23.658125 165.7127 23.658125 
z
" style="fill: #ffffff; opacity: 0.9; stroke: #808080; stroke-linejoin: miter"/>
    </g>
    <!-- α=2.0, β=2.0, κ=5.0 -->
    <g transform="translate(185.641138 14.227812) scale(0.06 -0.06)">
     <defs>
      <path id="ArialMT-3b1" d="M 2884 3319 
L 3459 3319 
Q 3241 2631 3056 1659 
Q 3275 453 3459 0 
L 2900 0 
Q 2766 313 2697 606 
Q 2438 -75 1613 -75 
Q 988 -75 606 394 
Q 225 863 225 1666 
Q 225 2491 608 2942 
Q 991 3394 1622 3394 
Q 2013 3394 2259 3236 
Q 2506 3078 2719 2756 
Q 2741 2866 2884 3319 
z
M 1716 2928 
Q 1313 2928 1078 2603 
Q 844 2278 844 1666 
Q 844 1069 1066 728 
Q 1288 388 1684 388 
Q 2072 388 2331 723 
Q 2591 1059 2591 1691 
Q 2591 2303 2348 2615 
Q 2106 2928 1716 2928 
z
" transform="scale(0.015625)"/>
      <path id="ArialMT-3d" d="M 3381 2694 
L 356 2694 
L 356 3219 
L 3381 3219 
L 3381 2694 
z
M 3381 1303 
L 356 1303 
L 356 1828 
L 3381 1828 
L 3381 1303 
z
" transform="scale(0.015625)"/>
      <path id="ArialMT-2e" d="M 581 0 
L 581 641 
L 1222 641 
L 1222 0 
L 581 0 
z
" transform="scale(0.015625)"/>
      <path id="ArialMT-2c" d="M 569 0 
L 569 641 
L 1209 641 
L 1209 0 
Q 1209 -353 1084 -570 
Q 959 -788 688 -906 
L 531 -666 
Q 709 -588 793 -436 
Q 878 -284 888 0 
L 569 0 
z
" transform="scale(0.015625)"/>
      <path id="ArialMT-3b2" d="M 997 422 
L 997 -1272 
L 438 -1272 
L 438 3144 
Q 438 3672 580 3970 
Q 722 4269 1069 4464 
Q 1416 4659 1841 4659 
Q 2469 4659 2792 4298 
Q 3116 3938 3116 3509 
Q 3116 3091 2855 2834 
Q 2594 2578 2256 2519 
Q 2800 2466 3095 2128 
Q 3391 1791 3391 1297 
Q 3391 766 3042 345 
Q 2694 -75 2034 -75 
Q 1359 -75 997 422 
z
M 1494 2700 
Q 2069 2700 2331 2900 
Q 2594 3100 2594 3478 
Q 2594 3784 2370 3990 
Q 2147 4197 1813 4197 
Q 1522 4197 1308 4044 
Q 1094 3891 1045 3703 
Q 997 3516 997 3047 
L 997 1788 
Q 997 1250 1072 997 
Q 1147 744 1394 541 
Q 1641 338 1963 338 
Q 2353 338 2579 605 
Q 2806 872 2806 1266 
Q 2806 1591 2639 1848 
Q 2472 2106 2226 2198 
Q 1981 2291 1575 2291 
L 1494 2291 
L 1494 2700 
z
" transform="scale(0.015625)"/>
      <path id="ArialMT-3ba" d="M 419 3319 
L 978 3319 
L 978 2016 
L 2325 3319 
L 3069 3319 
L 1584 1941 
L 3197 0 
L 2478 0 
L 1184 1563 
L 978 1372 
L 978 0 
L 419 0 
L 419 3319 
z
" transform="scale(0.015625)"/>
     </defs>
     <use xlink:href="#ArialMT-3b1"/>
     <use xlink:href="#ArialMT-3d" transform="translate(57.8125 0)"/>
     <use xlink:href="#ArialMT-32" transform="translate(116.210938 0)"/>
     <use xlink:href="#ArialMT-2e" transform="translate(171.826172 0)"/>
     <use xlink:href="#ArialMT-30" transform="translate(199.609375 0)"/>
     <use xlink:href="#ArialMT-2c" transform="translate(255.224609 0)"/>
     <use xlink:href="#ArialMT-20" transform="translate(283.007812 0)"/>
     <use xlink:href="#ArialMT-3b2" transform="translate(310.791016 0)"/>
     <use xlink:href="#ArialMT-3d" transform="translate(368.310547 0)"/>
     <use xlink:href="#ArialMT-32" transform="translate(426.708984 0)"/>
     <use xlink:href="#ArialMT-2e" transform="translate(482.324219 0)"/>
     <use xlink:href="#ArialMT-30" transform="translate(510.107422 0)"/>
     <use xlink:href="#ArialMT-2c" transform="translate(565.722656 0)"/>
     <use xlink:href="#ArialMT-20" transform="translate(593.505859 0)"/>
     <use xlink:href="#ArialMT-3ba" transform="translate(621.289062 0)"/>
     <use xlink:href="#ArialMT-3d" transform="translate(671.289062 0)"/>
     <use xlink:href="#ArialMT-35" transform="translate(729.6875 0)"/>
     <use xlink:href="#ArialMT-2e" transform="translate(785.302734 0)"/>
     <use xlink:href="#ArialMT-30" transform="translate(813.085938 0)"/>
    </g>
    <!-- N_agents=500, N_runs=10 -->
    <g transform="translate(165.7127 20.595312) scale(0.06 -0.06)">
     <defs>
      <path id="ArialMT-4e" d="M 488 0 
L 488 4581 
L 1109 4581 
L 3516 984 
L 3516 4581 
L 4097 4581 
L 4097 0 
L 3475 0 
L 1069 3600 
L 1069 0 
L 488 0 
z
" transform="scale(0.015625)"/>
      <path id="ArialMT-5f" d="M -97 -1272 
L -97 -866 
L 3631 -866 
L 3631 -1272 
L -97 -1272 
z
" transform="scale(0.015625)"/>
     </defs>
     <use xlink:href="#ArialMT-4e"/>
     <use xlink:href="#ArialMT-5f" transform="translate(72.216797 0)"/>
     <use xlink:href="#ArialMT-61" transform="translate(127.832031 0)"/>
     <use xlink:href="#ArialMT-67" transform="translate(183.447266 0)"/>
     <use xlink:href="#ArialMT-65" transform="translate(239.0625 0)"/>
     <use xlink:href="#ArialMT-6e" transform="translate(294.677734 0)"/>
     <use xlink:href="#ArialMT-74" transform="translate(350.292969 0)"/>
     <use xlink:href="#ArialMT-73" transform="translate(378.076172 0)"/>
     <use xlink:href="#ArialMT-3d" transform="translate(428.076172 0)"/>
     <use xlink:href="#ArialMT-35" transform="translate(486.474609 0)"/>
     <use xlink:href="#ArialMT-30" transform="translate(542.089844 0)"/>
     <use xlink:href="#ArialMT-30" transform="translate(597.705078 0)"/>
     <use xlink:href="#ArialMT-2c" transform="translate(653.320312 0)"/>
     <use xlink:href="#ArialMT-20" transform="translate(681.103516 0)"/>
     <use xlink:href="#ArialMT-4e" transform="translate(708.886719 0)"/>
     <use xlink:href="#ArialMT-5f" transform="translate(781.103516 0)"/>
     <use xlink:href="#ArialMT-72" transform="translate(836.71875 0)"/>
     <use xlink:href="#ArialMT-75" transform="translate(870.019531 0)"/>
     <use xlink:href="#ArialMT-6e" transform="translate(925.634766 0)"/>
     <use xlink:href="#ArialMT-73" transform="translate(981.25 0)"/>
     <use xlink:href="#ArialMT-3d" transform="translate(1031.25 0)"/>
     <use xlink:href="#ArialMT-31" transform="translate(1089.648438 0)"/>
     <use xlink:href="#ArialMT-30" transform="translate(1145.263672 0)"/>
    </g>
   </g>
  </g>
 </g>
 <defs>
  <clipPath id="p3d065fb9c3">
   <rect x="34.605" y="7.2" width="207.3025" height="133"/>
  </clipPath>
 </defs>
</svg>
