<?xml version="1.0" encoding="utf-8" standalone="no"?>
<!DOCTYPE svg PUBLIC "-//W3C//DTD SVG 1.1//EN"
  "http://www.w3.org/Graphics/SVG/1.1/DTD/svg11.dtd">
<svg xmlns:xlink="http://www.w3.org/1999/xlink" width="249.1375pt" height="173.167183pt" viewBox="0 0 249.1375 173.167183" xmlns="http://www.w3.org/2000/svg" version="1.1">
 <metadata>
  <rdf:RDF xmlns:dc="http://purl.org/dc/elements/1.1/" xmlns:cc="http://creativecommons.org/ns#" xmlns:rdf="http://www.w3.org/1999/02/22-rdf-syntax-ns#">
   <cc:Work>
    <dc:type rdf:resource="http://purl.org/dc/dcmitype/StillImage"/>
    <dc:date>2026-04-16T01:29:59.043789</dc:date>
    <dc:format>image/svg+xml</dc:format>
    <dc:creator>
     <cc:Agent>
      <dc:title>Matplotlib v3.10.7, https://matplotlib.org/</dc:title>
     </cc:Agent>
    </dc:creator>
   </cc:Work>
  </rdf:RDF>
 </metadata>
 <defs>
  <style type="text/css">*{stroke-linejoin: round; stroke-linecap: butt}</style>
 </defs>
 <g id="figure_1">
  <g id="patch_1">
   <path d="M 0 173.167183 
L 249.1375 173.167183 
L 249.1375 0 
L 0 0 
z
" style="fill: #ffffff"/>
  </g>
  <g id="axes_1">
   <g id="patch_2">
    <path d="M 34.605 140.217183 
L 241.9375 140.217183 
L 241.9375 9.069583 
L 34.605 9.069583 
z
" style="fill: #ffffff"/>
   </g>
   <g id="FillBetweenPolyCollection_1">
    <path d="M 79.296242 134.255928 
L 44.421319 134.255928 
L 44.029205 133.051634 
L 45.045796 131.84734 
L 46.239747 130.643046 
L 47.285143 129.438753 
L 48.441688 128.234459 
L 49.640133 127.030165 
L 50.554497 125.825871 
L 51.232458 124.621577 
L 51.995161 123.417283 
L 52.857466 122.21299 
L 53.563788 121.008696 
L 54.097185 119.804402 
L 54.697436 118.600108 
L 55.418685 117.395814 
L 56.059627 116.19152 
L 56.530351 114.987226 
L 56.960509 113.782933 
L 57.420132 112.578639 
L 57.811816 111.374345 
L 58.088604 110.170051 
L 58.350312 108.965757 
L 58.659865 107.761463 
L 58.945566 106.55717 
L 59.151148 105.352876 
L 59.334254 104.148582 
L 59.549474 102.944288 
L 59.756005 101.739994 
L 59.910072 100.5357 
L 60.051448 99.331406 
L 60.229894 98.127113 
L 60.419602 96.922819 
L 60.569332 95.718525 
L 60.681535 94.514231 
L 60.786294 93.309937 
L 60.880943 92.105643 
L 60.947916 90.90135 
L 61.001462 89.697056 
L 61.069315 88.492762 
L 61.147122 87.288468 
L 61.209189 86.084174 
L 61.249932 84.87988 
L 61.282299 83.675586 
L 61.30797 82.471293 
L 61.321122 81.266999 
L 61.334431 80.062705 
L 61.371425 78.858411 
L 61.433454 77.654117 
L 61.49673 76.449823 
L 61.5418 75.245529 
L 61.567509 74.041236 
L 61.577927 72.836942 
L 61.575739 71.632648 
L 61.571328 70.428354 
L 61.581102 69.22406 
L 61.609907 68.019766 
L 61.645642 66.815473 
L 61.675392 65.611179 
L 61.697693 64.406885 
L 61.716104 63.202591 
L 61.730696 61.998297 
L 61.741293 60.794003 
L 61.752069 59.589709 
L 61.76698 58.385416 
L 61.784037 57.181122 
L 61.797899 55.976828 
L 61.805614 54.772534 
L 61.80735 53.56824 
L 61.804508 52.363946 
L 61.800258 51.159653 
L 61.799982 49.955359 
L 61.807627 48.751065 
L 61.821552 47.546771 
L 61.83553 46.342477 
L 61.843509 45.138183 
L 61.842843 43.933889 
L 61.834751 42.729596 
L 61.823865 41.525302 
L 61.816688 40.321008 
L 61.817883 39.116714 
L 61.826909 37.91242 
L 61.838874 36.708126 
L 61.848815 35.503833 
L 61.854771 34.299539 
L 61.857428 33.095245 
L 61.858176 31.890951 
L 61.857833 30.686657 
L 61.856509 29.482363 
L 61.854103 28.278069 
L 61.850943 27.073776 
L 61.847982 25.869482 
L 61.846147 24.665188 
L 61.845482 23.460894 
L 61.845257 22.2566 
L 61.844991 21.052306 
L 61.844866 19.848013 
L 61.845058 18.643719 
L 61.845312 17.439425 
L 61.845574 16.235131 
L 61.846479 15.030837 
L 61.871082 15.030837 
L 61.871082 15.030837 
L 61.871987 16.235131 
L 61.87225 17.439425 
L 61.872503 18.643719 
L 61.872695 19.848013 
L 61.872571 21.052306 
L 61.872304 22.2566 
L 61.87208 23.460894 
L 61.871414 24.665188 
L 61.86958 25.869482 
L 61.866619 27.073776 
L 61.863459 28.278069 
L 61.861052 29.482363 
L 61.859728 30.686657 
L 61.859386 31.890951 
L 61.860134 33.095245 
L 61.86279 34.299539 
L 61.868746 35.503833 
L 61.878687 36.708126 
L 61.890653 37.91242 
L 61.899679 39.116714 
L 61.900874 40.321008 
L 61.893696 41.525302 
L 61.882811 42.729596 
L 61.874718 43.933889 
L 61.874053 45.138183 
L 61.882031 46.342477 
L 61.89601 47.546771 
L 61.909935 48.751065 
L 61.917579 49.955359 
L 61.917303 51.159653 
L 61.913053 52.363946 
L 61.910211 53.56824 
L 61.911948 54.772534 
L 61.919662 55.976828 
L 61.933525 57.181122 
L 61.950581 58.385416 
L 61.965492 59.589709 
L 61.976268 60.794003 
L 61.986866 61.998297 
L 62.001458 63.202591 
L 62.019868 64.406885 
L 62.04217 65.611179 
L 62.071919 66.815473 
L 62.107655 68.019766 
L 62.13646 69.22406 
L 62.146233 70.428354 
L 62.141823 71.632648 
L 62.139634 72.836942 
L 62.150053 74.041236 
L 62.175761 75.245529 
L 62.220832 76.449823 
L 62.284108 77.654117 
L 62.346137 78.858411 
L 62.38313 80.062705 
L 62.39644 81.266999 
L 62.409592 82.471293 
L 62.435263 83.675586 
L 62.467629 84.87988 
L 62.508372 86.084174 
L 62.570439 87.288468 
L 62.648247 88.492762 
L 62.716099 89.697056 
L 62.769645 90.90135 
L 62.836619 92.105643 
L 62.931267 93.309937 
L 63.036027 94.514231 
L 63.14823 95.718525 
L 63.297959 96.922819 
L 63.487667 98.127113 
L 63.666114 99.331406 
L 63.80749 100.5357 
L 63.961556 101.739994 
L 64.168087 102.944288 
L 64.383307 104.148582 
L 64.566413 105.352876 
L 64.771995 106.55717 
L 65.057697 107.761463 
L 65.367249 108.965757 
L 65.628958 110.170051 
L 65.905745 111.374345 
L 66.29743 112.578639 
L 66.757053 113.782933 
L 67.187211 114.987226 
L 67.657934 116.19152 
L 68.298876 117.395814 
L 69.020125 118.600108 
L 69.620377 119.804402 
L 70.153773 121.008696 
L 70.860096 122.21299 
L 71.722401 123.417283 
L 72.485103 124.621577 
L 73.163064 125.825871 
L 74.077429 127.030165 
L 75.275874 128.234459 
L 76.432418 129.438753 
L 77.477815 130.643046 
L 78.671765 131.84734 
L 79.688357 133.051634 
L 79.296242 134.255928 
z
" clip-path="url(#pf7ec08cd9d)" style="fill: #888780; fill-opacity: 0.7"/>
   </g>
   <g id="FillBetweenPolyCollection_2">
    <path d="M 130.237888 134.255928 
L 95.362965 134.255928 
L 94.970851 133.051634 
L 95.987442 131.84734 
L 97.181393 130.643046 
L 98.22679 129.438753 
L 99.383334 128.234459 
L 100.581779 127.030165 
L 101.496144 125.825871 
L 102.174104 124.621577 
L 102.936807 123.417283 
L 103.799112 122.21299 
L 104.505434 121.008696 
L 105.038831 119.804402 
L 105.639082 118.600108 
L 106.360331 117.395814 
L 107.001273 116.19152 
L 107.471997 114.987226 
L 107.902155 113.782933 
L 108.361778 112.578639 
L 108.753463 111.374345 
L 109.03025 110.170051 
L 109.291959 108.965757 
L 109.601511 107.761463 
L 109.887213 106.55717 
L 110.092794 105.352876 
L 110.2759 104.148582 
L 110.491121 102.944288 
L 110.697652 101.739994 
L 110.851718 100.5357 
L 110.993094 99.331406 
L 111.171541 98.127113 
L 111.361249 96.922819 
L 111.510978 95.718525 
L 111.623181 94.514231 
L 111.72794 93.309937 
L 111.822589 92.105643 
L 111.889562 90.90135 
L 111.943108 89.697056 
L 112.010961 88.492762 
L 112.088768 87.288468 
L 112.150836 86.084174 
L 112.191578 84.87988 
L 112.223945 83.675586 
L 112.249616 82.471293 
L 112.262768 81.266999 
L 112.276077 80.062705 
L 112.313071 78.858411 
L 112.3751 77.654117 
L 112.438376 76.449823 
L 112.483447 75.245529 
L 112.509155 74.041236 
L 112.519574 72.836942 
L 112.517385 71.632648 
L 112.512974 70.428354 
L 112.522748 69.22406 
L 112.551553 68.019766 
L 112.587288 66.815473 
L 112.617038 65.611179 
L 112.639339 64.406885 
L 112.65775 63.202591 
L 112.672342 61.998297 
L 112.682939 60.794003 
L 112.693715 59.589709 
L 112.708627 58.385416 
L 112.725683 57.181122 
L 112.739545 55.976828 
L 112.74726 54.772534 
L 112.748997 53.56824 
L 112.746154 52.363946 
L 112.741904 51.159653 
L 112.741629 49.955359 
L 112.749273 48.751065 
L 112.763198 47.546771 
L 112.777176 46.342477 
L 112.785155 45.138183 
L 112.784489 43.933889 
L 112.776397 42.729596 
L 112.765511 41.525302 
L 112.758334 40.321008 
L 112.759529 39.116714 
L 112.768555 37.91242 
L 112.78052 36.708126 
L 112.790462 35.503833 
L 112.796417 34.299539 
L 112.799074 33.095245 
L 112.799822 31.890951 
L 112.79948 30.686657 
L 112.798155 29.482363 
L 112.795749 28.278069 
L 112.792589 27.073776 
L 112.789628 25.869482 
L 112.787794 24.665188 
L 112.787128 23.460894 
L 112.786904 22.2566 
L 112.786637 21.052306 
L 112.786512 19.848013 
L 112.786704 18.643719 
L 112.786958 17.439425 
L 112.78722 16.235131 
L 112.788125 15.030837 
L 112.812729 15.030837 
L 112.812729 15.030837 
L 112.813633 16.235131 
L 112.813896 17.439425 
L 112.814149 18.643719 
L 112.814342 19.848013 
L 112.814217 21.052306 
L 112.81395 22.2566 
L 112.813726 23.460894 
L 112.81306 24.665188 
L 112.811226 25.869482 
L 112.808265 27.073776 
L 112.805105 28.278069 
L 112.802698 29.482363 
L 112.801374 30.686657 
L 112.801032 31.890951 
L 112.80178 33.095245 
L 112.804437 34.299539 
L 112.810392 35.503833 
L 112.820334 36.708126 
L 112.832299 37.91242 
L 112.841325 39.116714 
L 112.84252 40.321008 
L 112.835343 41.525302 
L 112.824457 42.729596 
L 112.816364 43.933889 
L 112.815699 45.138183 
L 112.823678 46.342477 
L 112.837656 47.546771 
L 112.851581 48.751065 
L 112.859225 49.955359 
L 112.858949 51.159653 
L 112.8547 52.363946 
L 112.851857 53.56824 
L 112.853594 54.772534 
L 112.861309 55.976828 
L 112.875171 57.181122 
L 112.892227 58.385416 
L 112.907138 59.589709 
L 112.917915 60.794003 
L 112.928512 61.998297 
L 112.943104 63.202591 
L 112.961514 64.406885 
L 112.983816 65.611179 
L 113.013565 66.815473 
L 113.049301 68.019766 
L 113.078106 69.22406 
L 113.08788 70.428354 
L 113.083469 71.632648 
L 113.08128 72.836942 
L 113.091699 74.041236 
L 113.117407 75.245529 
L 113.162478 76.449823 
L 113.225754 77.654117 
L 113.287783 78.858411 
L 113.324776 80.062705 
L 113.338086 81.266999 
L 113.351238 82.471293 
L 113.376909 83.675586 
L 113.409275 84.87988 
L 113.450018 86.084174 
L 113.512085 87.288468 
L 113.589893 88.492762 
L 113.657746 89.697056 
L 113.711291 90.90135 
L 113.778265 92.105643 
L 113.872913 93.309937 
L 113.977673 94.514231 
L 114.089876 95.718525 
L 114.239605 96.922819 
L 114.429313 98.127113 
L 114.60776 99.331406 
L 114.749136 100.5357 
L 114.903202 101.739994 
L 115.109733 102.944288 
L 115.324953 104.148582 
L 115.508059 105.352876 
L 115.713641 106.55717 
L 115.999343 107.761463 
L 116.308895 108.965757 
L 116.570604 110.170051 
L 116.847391 111.374345 
L 117.239076 112.578639 
L 117.698699 113.782933 
L 118.128857 114.987226 
L 118.59958 116.19152 
L 119.240523 117.395814 
L 119.961771 118.600108 
L 120.562023 119.804402 
L 121.09542 121.008696 
L 121.801742 122.21299 
L 122.664047 123.417283 
L 123.42675 124.621577 
L 124.10471 125.825871 
L 125.019075 127.030165 
L 126.21752 128.234459 
L 127.374064 129.438753 
L 128.419461 130.643046 
L 129.613412 131.84734 
L 130.630003 133.051634 
L 130.237888 134.255928 
z
" clip-path="url(#pf7ec08cd9d)" style="fill: #378add; fill-opacity: 0.7"/>
   </g>
   <g id="FillBetweenPolyCollection_3">
    <path d="M 181.571649 134.255928 
L 145.912497 134.255928 
L 146.626464 133.051634 
L 149.112786 131.84734 
L 151.069085 130.643046 
L 152.255703 129.438753 
L 153.601008 128.234459 
L 155.098567 127.030165 
L 156.063088 125.825871 
L 156.577241 124.621577 
L 157.29769 123.417283 
L 158.269169 122.21299 
L 158.987704 121.008696 
L 159.361704 119.804402 
L 159.761893 118.600108 
L 160.283317 117.395814 
L 160.655123 116.19152 
L 160.812859 114.987226 
L 160.994732 113.782933 
L 161.276741 112.578639 
L 161.473015 111.374345 
L 161.528727 110.170051 
L 161.627661 108.965757 
L 161.850657 107.761463 
L 162.049084 106.55717 
L 162.133608 105.352876 
L 162.217991 104.148582 
L 162.38899 102.944288 
L 162.558745 101.739994 
L 162.639462 100.5357 
L 162.681221 99.331406 
L 162.742843 98.127113 
L 162.779679 96.922819 
L 162.759744 95.718525 
L 162.768128 94.514231 
L 162.891032 93.309937 
L 163.083732 92.105643 
L 163.242475 90.90135 
L 163.338184 89.697056 
L 163.406647 88.492762 
L 163.463686 87.288468 
L 163.497801 86.084174 
L 163.515021 84.87988 
L 163.536615 83.675586 
L 163.564092 82.471293 
L 163.582372 81.266999 
L 163.590062 80.062705 
L 163.599339 78.858411 
L 163.611655 77.654117 
L 163.617383 76.449823 
L 163.616783 75.245529 
L 163.620615 74.041236 
L 163.6305 72.836942 
L 163.636879 71.632648 
L 163.637308 70.428354 
L 163.640315 69.22406 
L 163.649056 68.019766 
L 163.656178 66.815473 
L 163.658305 65.611179 
L 163.662387 64.406885 
L 163.673252 63.202591 
L 163.685743 61.998297 
L 163.693831 60.794003 
L 163.698759 59.589709 
L 163.70382 58.385416 
L 163.708131 57.181122 
L 163.710062 55.976828 
L 163.711774 54.772534 
L 163.716133 53.56824 
L 163.722242 52.363946 
L 163.727266 51.159653 
L 163.730541 49.955359 
L 163.73341 48.751065 
L 163.736494 47.546771 
L 163.738987 46.342477 
L 163.739799 45.138183 
L 163.738205 43.933889 
L 163.734057 42.729596 
L 163.728629 41.525302 
L 163.724911 40.321008 
L 163.725503 39.116714 
L 163.72998 37.91242 
L 163.735402 36.708126 
L 163.739292 35.503833 
L 163.741195 34.299539 
L 163.741849 33.095245 
L 163.74195 31.890951 
L 163.741696 30.686657 
L 163.74085 29.482363 
L 163.739037 28.278069 
L 163.736373 27.073776 
L 163.733985 25.869482 
L 163.733396 24.665188 
L 163.735023 23.460894 
L 163.737652 22.2566 
L 163.739549 21.052306 
L 163.739511 19.848013 
L 163.736923 18.643719 
L 163.732038 17.439425 
L 163.726852 16.235131 
L 163.724571 15.030837 
L 163.759575 15.030837 
L 163.759575 15.030837 
L 163.757294 16.235131 
L 163.752108 17.439425 
L 163.747223 18.643719 
L 163.744635 19.848013 
L 163.744597 21.052306 
L 163.746495 22.2566 
L 163.749123 23.460894 
L 163.75075 24.665188 
L 163.750161 25.869482 
L 163.747773 27.073776 
L 163.745109 28.278069 
L 163.743296 29.482363 
L 163.74245 30.686657 
L 163.742196 31.890951 
L 163.742297 33.095245 
L 163.742951 34.299539 
L 163.744855 35.503833 
L 163.748744 36.708126 
L 163.754166 37.91242 
L 163.758643 39.116714 
L 163.759235 40.321008 
L 163.755517 41.525302 
L 163.750089 42.729596 
L 163.745941 43.933889 
L 163.744347 45.138183 
L 163.745159 46.342477 
L 163.747652 47.546771 
L 163.750737 48.751065 
L 163.753605 49.955359 
L 163.75688 51.159653 
L 163.761904 52.363946 
L 163.768013 53.56824 
L 163.772372 54.772534 
L 163.774084 55.976828 
L 163.776015 57.181122 
L 163.780326 58.385416 
L 163.785387 59.589709 
L 163.790315 60.794003 
L 163.798403 61.998297 
L 163.810894 63.202591 
L 163.821759 64.406885 
L 163.825842 65.611179 
L 163.827968 66.815473 
L 163.83509 68.019766 
L 163.843831 69.22406 
L 163.846838 70.428354 
L 163.847268 71.632648 
L 163.853646 72.836942 
L 163.863531 74.041236 
L 163.867364 75.245529 
L 163.866763 76.449823 
L 163.872491 77.654117 
L 163.884808 78.858411 
L 163.894085 80.062705 
L 163.901774 81.266999 
L 163.920054 82.471293 
L 163.947532 83.675586 
L 163.969125 84.87988 
L 163.986345 86.084174 
L 164.02046 87.288468 
L 164.077499 88.492762 
L 164.145962 89.697056 
L 164.241671 90.90135 
L 164.400415 92.105643 
L 164.593115 93.309937 
L 164.716019 94.514231 
L 164.724402 95.718525 
L 164.704467 96.922819 
L 164.741304 98.127113 
L 164.802926 99.331406 
L 164.844684 100.5357 
L 164.925401 101.739994 
L 165.095156 102.944288 
L 165.266156 104.148582 
L 165.350538 105.352876 
L 165.435062 106.55717 
L 165.633489 107.761463 
L 165.856486 108.965757 
L 165.955419 110.170051 
L 166.011131 111.374345 
L 166.207406 112.578639 
L 166.489414 113.782933 
L 166.671287 114.987226 
L 166.829023 116.19152 
L 167.200829 117.395814 
L 167.722254 118.600108 
L 168.122442 119.804402 
L 168.496443 121.008696 
L 169.214977 122.21299 
L 170.186456 123.417283 
L 170.906905 124.621577 
L 171.421059 125.825871 
L 172.385579 127.030165 
L 173.883138 128.234459 
L 175.228443 129.438753 
L 176.415062 130.643046 
L 178.37136 131.84734 
L 180.857682 133.051634 
L 181.571649 134.255928 
z
" clip-path="url(#pf7ec08cd9d)" style="fill: #ba7517; fill-opacity: 0.7"/>
   </g>
   <g id="FillBetweenPolyCollection_4">
    <path d="M 232.513295 134.255928 
L 196.854143 134.255928 
L 198.107149 133.302529 
L 201.176155 132.349129 
L 203.322848 131.39573 
L 203.618069 130.442331 
L 203.431155 129.488932 
L 204.326426 128.535532 
L 206.173955 127.582133 
L 207.612338 126.628734 
L 207.893024 125.675334 
L 207.683834 124.721935 
L 208.065696 123.768536 
L 209.207647 122.815136 
L 210.33317 121.861737 
L 210.789753 120.908338 
L 210.765622 119.954939 
L 210.890382 119.001539 
L 211.401042 118.04814 
L 211.933976 117.094741 
L 212.082405 116.141341 
L 211.927322 115.187942 
L 211.90474 114.234543 
L 212.25583 113.281144 
L 212.773686 112.327744 
L 213.107064 111.374345 
L 213.174042 110.420946 
L 213.187706 109.467546 
L 213.343515 108.514147 
L 213.596635 107.560748 
L 213.767876 106.607348 
L 213.787568 105.653949 
L 213.763155 104.70055 
L 213.822452 103.747151 
L 213.956808 102.793751 
L 214.053075 101.840352 
L 214.048914 100.886953 
L 214.006049 99.933553 
L 214.021796 98.980154 
L 214.104515 98.026755 
L 214.170982 97.073355 
L 214.1594 96.119956 
L 214.108894 95.166557 
L 214.109461 94.213158 
L 214.19283 93.259758 
L 214.301747 92.306359 
L 214.365578 91.35296 
L 214.377863 90.39956 
L 214.387026 89.446161 
L 214.429205 88.492762 
L 214.491382 87.539363 
L 214.538396 86.585963 
L 214.556823 85.632564 
L 214.562056 84.679165 
L 214.570965 83.725765 
L 214.580611 82.772366 
L 214.57717 81.818967 
L 214.559403 80.865567 
L 214.545182 79.912168 
L 214.552624 78.958769 
L 214.579917 78.00537 
L 214.608851 77.05197 
L 214.625369 76.098571 
L 214.630857 75.145172 
L 214.634117 74.191772 
L 214.638163 73.238373 
L 214.638184 72.284974 
L 214.630795 71.331574 
L 214.621346 70.378175 
L 214.619491 69.424776 
L 214.628435 68.471377 
L 214.641569 67.517977 
L 214.650404 66.564578 
L 214.653275 65.611179 
L 214.654986 64.657779 
L 214.659937 63.70438 
L 214.667787 62.750981 
L 214.675306 61.797582 
L 214.680244 60.844182 
L 214.682599 59.890783 
L 214.683438 58.937384 
L 214.683664 57.983984 
L 214.683711 57.030585 
L 214.683718 56.077186 
L 214.683719 55.123786 
L 214.683719 54.170387 
L 214.683719 53.216988 
L 214.683719 52.263589 
L 214.683719 51.310189 
L 214.683719 50.35679 
L 214.683719 49.403391 
L 214.683719 48.449991 
L 214.683716 47.496592 
L 214.683699 46.543193 
L 214.683618 45.589794 
L 214.683321 44.636394 
L 214.682499 43.682995 
L 214.680806 42.729596 
L 214.678296 41.776196 
L 214.675846 40.822797 
L 214.674804 39.869398 
L 214.692635 39.869398 
L 214.692635 39.869398 
L 214.691593 40.822797 
L 214.689142 41.776196 
L 214.686632 42.729596 
L 214.68494 43.682995 
L 214.684118 44.636394 
L 214.683821 45.589794 
L 214.683739 46.543193 
L 214.683722 47.496592 
L 214.68372 48.449991 
L 214.683719 49.403391 
L 214.683719 50.35679 
L 214.683719 51.310189 
L 214.683719 52.263589 
L 214.683719 53.216988 
L 214.683719 54.170387 
L 214.683719 55.123786 
L 214.68372 56.077186 
L 214.683728 57.030585 
L 214.683775 57.983984 
L 214.684001 58.937384 
L 214.68484 59.890783 
L 214.687194 60.844182 
L 214.692132 61.797582 
L 214.699652 62.750981 
L 214.707502 63.70438 
L 214.712453 64.657779 
L 214.714164 65.611179 
L 214.717035 66.564578 
L 214.725869 67.517977 
L 214.739003 68.471377 
L 214.747948 69.424776 
L 214.746093 70.378175 
L 214.736644 71.331574 
L 214.729254 72.284974 
L 214.729275 73.238373 
L 214.733321 74.191772 
L 214.736582 75.145172 
L 214.742069 76.098571 
L 214.758587 77.05197 
L 214.787521 78.00537 
L 214.814815 78.958769 
L 214.822257 79.912168 
L 214.808036 80.865567 
L 214.790268 81.818967 
L 214.786827 82.772366 
L 214.796473 83.725765 
L 214.805383 84.679165 
L 214.810616 85.632564 
L 214.829043 86.585963 
L 214.876057 87.539363 
L 214.938233 88.492762 
L 214.980412 89.446161 
L 214.989575 90.39956 
L 215.00186 91.35296 
L 215.065691 92.306359 
L 215.174609 93.259758 
L 215.257978 94.213158 
L 215.258544 95.166557 
L 215.208038 96.119956 
L 215.196456 97.073355 
L 215.262923 98.026755 
L 215.345643 98.980154 
L 215.361389 99.933553 
L 215.318525 100.886953 
L 215.314364 101.840352 
L 215.41063 102.793751 
L 215.544987 103.747151 
L 215.604284 104.70055 
L 215.57987 105.653949 
L 215.599563 106.607348 
L 215.770803 107.560748 
L 216.023924 108.514147 
L 216.179733 109.467546 
L 216.193397 110.420946 
L 216.260374 111.374345 
L 216.593752 112.327744 
L 217.111609 113.281144 
L 217.462699 114.234543 
L 217.440117 115.187942 
L 217.285033 116.141341 
L 217.433463 117.094741 
L 217.966396 118.04814 
L 218.477057 119.001539 
L 218.601816 119.954939 
L 218.577685 120.908338 
L 219.034268 121.861737 
L 220.159791 122.815136 
L 221.301743 123.768536 
L 221.683604 124.721935 
L 221.474414 125.675334 
L 221.7551 126.628734 
L 223.193483 127.582133 
L 225.041013 128.535532 
L 225.936284 129.488932 
L 225.74937 130.442331 
L 226.044591 131.39573 
L 228.191284 132.349129 
L 231.260289 133.302529 
L 232.513295 134.255928 
z
" clip-path="url(#pf7ec08cd9d)" style="fill: #1d9e75; fill-opacity: 0.7"/>
   </g>
   <g id="matplotlib.axis_1">
    <g id="xtick_1">
     <g id="line2d_1">
      <defs>
       <path id="ma17e32b295" d="M 0 0 
L 0 3.5 
" style="stroke: #000000; stroke-width: 0.8"/>
      </defs>
      <g>
       <use xlink:href="#ma17e32b295" x="61.858781" y="140.217183" style="stroke: #000000; stroke-width: 0.8"/>
      </g>
     </g>
     <g id="text_1">
      <!-- original -->
      <g transform="translate(48.963156 152.943433) scale(0.08 -0.08)">
       <defs>
        <path id="ArialMT-6f" d="M 213 1659 
Q 213 2581 725 3025 
Q 1153 3394 1769 3394 
Q 2453 3394 2887 2945 
Q 3322 2497 3322 1706 
Q 3322 1066 3130 698 
Q 2938 331 2570 128 
Q 2203 -75 1769 -75 
Q 1072 -75 642 372 
Q 213 819 213 1659 
z
M 791 1659 
Q 791 1022 1069 705 
Q 1347 388 1769 388 
Q 2188 388 2466 706 
Q 2744 1025 2744 1678 
Q 2744 2294 2464 2611 
Q 2184 2928 1769 2928 
Q 1347 2928 1069 2612 
Q 791 2297 791 1659 
z
" transform="scale(0.015625)"/>
        <path id="ArialMT-72" d="M 416 0 
L 416 3319 
L 922 3319 
L 922 2816 
Q 1116 3169 1280 3281 
Q 1444 3394 1641 3394 
Q 1925 3394 2219 3213 
L 2025 2691 
Q 1819 2813 1613 2813 
Q 1428 2813 1281 2702 
Q 1134 2591 1072 2394 
Q 978 2094 978 1738 
L 978 0 
L 416 0 
z
" transform="scale(0.015625)"/>
        <path id="ArialMT-69" d="M 425 3934 
L 425 4581 
L 988 4581 
L 988 3934 
L 425 3934 
z
M 425 0 
L 425 3319 
L 988 3319 
L 988 0 
L 425 0 
z
" transform="scale(0.015625)"/>
        <path id="ArialMT-67" d="M 319 -275 
L 866 -356 
Q 900 -609 1056 -725 
Q 1266 -881 1628 -881 
Q 2019 -881 2231 -725 
Q 2444 -569 2519 -288 
Q 2563 -116 2559 434 
Q 2191 0 1641 0 
Q 956 0 581 494 
Q 206 988 206 1678 
Q 206 2153 378 2554 
Q 550 2956 876 3175 
Q 1203 3394 1644 3394 
Q 2231 3394 2613 2919 
L 2613 3319 
L 3131 3319 
L 3131 450 
Q 3131 -325 2973 -648 
Q 2816 -972 2473 -1159 
Q 2131 -1347 1631 -1347 
Q 1038 -1347 672 -1080 
Q 306 -813 319 -275 
z
M 784 1719 
Q 784 1066 1043 766 
Q 1303 466 1694 466 
Q 2081 466 2343 764 
Q 2606 1063 2606 1700 
Q 2606 2309 2336 2618 
Q 2066 2928 1684 2928 
Q 1309 2928 1046 2623 
Q 784 2319 784 1719 
z
" transform="scale(0.015625)"/>
        <path id="ArialMT-6e" d="M 422 0 
L 422 3319 
L 928 3319 
L 928 2847 
Q 1294 3394 1984 3394 
Q 2284 3394 2536 3286 
Q 2788 3178 2913 3003 
Q 3038 2828 3088 2588 
Q 3119 2431 3119 2041 
L 3119 0 
L 2556 0 
L 2556 2019 
Q 2556 2363 2490 2533 
Q 2425 2703 2258 2804 
Q 2091 2906 1866 2906 
Q 1506 2906 1245 2678 
Q 984 2450 984 1813 
L 984 0 
L 422 0 
z
" transform="scale(0.015625)"/>
        <path id="ArialMT-61" d="M 2588 409 
Q 2275 144 1986 34 
Q 1697 -75 1366 -75 
Q 819 -75 525 192 
Q 231 459 231 875 
Q 231 1119 342 1320 
Q 453 1522 633 1644 
Q 813 1766 1038 1828 
Q 1203 1872 1538 1913 
Q 2219 1994 2541 2106 
Q 2544 2222 2544 2253 
Q 2544 2597 2384 2738 
Q 2169 2928 1744 2928 
Q 1347 2928 1158 2789 
Q 969 2650 878 2297 
L 328 2372 
Q 403 2725 575 2942 
Q 747 3159 1072 3276 
Q 1397 3394 1825 3394 
Q 2250 3394 2515 3294 
Q 2781 3194 2906 3042 
Q 3031 2891 3081 2659 
Q 3109 2516 3109 2141 
L 3109 1391 
Q 3109 606 3145 398 
Q 3181 191 3288 0 
L 2700 0 
Q 2613 175 2588 409 
z
M 2541 1666 
Q 2234 1541 1622 1453 
Q 1275 1403 1131 1340 
Q 988 1278 909 1158 
Q 831 1038 831 891 
Q 831 666 1001 516 
Q 1172 366 1500 366 
Q 1825 366 2078 508 
Q 2331 650 2450 897 
Q 2541 1088 2541 1459 
L 2541 1666 
z
" transform="scale(0.015625)"/>
        <path id="ArialMT-6c" d="M 409 0 
L 409 4581 
L 972 4581 
L 972 0 
L 409 0 
z
" transform="scale(0.015625)"/>
       </defs>
       <use xlink:href="#ArialMT-6f"/>
       <use xlink:href="#ArialMT-72" transform="translate(55.615234 0)"/>
       <use xlink:href="#ArialMT-69" transform="translate(88.916016 0)"/>
       <use xlink:href="#ArialMT-67" transform="translate(111.132812 0)"/>
       <use xlink:href="#ArialMT-69" transform="translate(166.748047 0)"/>
       <use xlink:href="#ArialMT-6e" transform="translate(188.964844 0)"/>
       <use xlink:href="#ArialMT-61" transform="translate(244.580078 0)"/>
       <use xlink:href="#ArialMT-6c" transform="translate(300.195312 0)"/>
      </g>
     </g>
    </g>
    <g id="xtick_2">
     <g id="line2d_2">
      <g>
       <use xlink:href="#ma17e32b295" x="112.800427" y="140.217183" style="stroke: #000000; stroke-width: 0.8"/>
      </g>
     </g>
     <g id="text_2">
      <!-- s1 only -->
      <g transform="translate(100.127302 152.967183) scale(0.08 -0.08)">
       <defs>
        <path id="ArialMT-73" d="M 197 991 
L 753 1078 
Q 800 744 1014 566 
Q 1228 388 1613 388 
Q 2000 388 2187 545 
Q 2375 703 2375 916 
Q 2375 1106 2209 1216 
Q 2094 1291 1634 1406 
Q 1016 1563 777 1677 
Q 538 1791 414 1992 
Q 291 2194 291 2438 
Q 291 2659 392 2848 
Q 494 3038 669 3163 
Q 800 3259 1026 3326 
Q 1253 3394 1513 3394 
Q 1903 3394 2198 3281 
Q 2494 3169 2634 2976 
Q 2775 2784 2828 2463 
L 2278 2388 
Q 2241 2644 2061 2787 
Q 1881 2931 1553 2931 
Q 1166 2931 1000 2803 
Q 834 2675 834 2503 
Q 834 2394 903 2306 
Q 972 2216 1119 2156 
Q 1203 2125 1616 2013 
Q 2213 1853 2448 1751 
Q 2684 1650 2818 1456 
Q 2953 1263 2953 975 
Q 2953 694 2789 445 
Q 2625 197 2315 61 
Q 2006 -75 1616 -75 
Q 969 -75 630 194 
Q 291 463 197 991 
z
" transform="scale(0.015625)"/>
        <path id="ArialMT-31" d="M 2384 0 
L 1822 0 
L 1822 3584 
Q 1619 3391 1289 3197 
Q 959 3003 697 2906 
L 697 3450 
Q 1169 3672 1522 3987 
Q 1875 4303 2022 4600 
L 2384 4600 
L 2384 0 
z
" transform="scale(0.015625)"/>
        <path id="ArialMT-20" transform="scale(0.015625)"/>
        <path id="ArialMT-79" d="M 397 -1278 
L 334 -750 
Q 519 -800 656 -800 
Q 844 -800 956 -737 
Q 1069 -675 1141 -563 
Q 1194 -478 1313 -144 
Q 1328 -97 1363 -6 
L 103 3319 
L 709 3319 
L 1400 1397 
Q 1534 1031 1641 628 
Q 1738 1016 1872 1384 
L 2581 3319 
L 3144 3319 
L 1881 -56 
Q 1678 -603 1566 -809 
Q 1416 -1088 1222 -1217 
Q 1028 -1347 759 -1347 
Q 597 -1347 397 -1278 
z
" transform="scale(0.015625)"/>
       </defs>
       <use xlink:href="#ArialMT-73"/>
       <use xlink:href="#ArialMT-31" transform="translate(50 0)"/>
       <use xlink:href="#ArialMT-20" transform="translate(105.615234 0)"/>
       <use xlink:href="#ArialMT-6f" transform="translate(133.398438 0)"/>
       <use xlink:href="#ArialMT-6e" transform="translate(189.013672 0)"/>
       <use xlink:href="#ArialMT-6c" transform="translate(244.628906 0)"/>
       <use xlink:href="#ArialMT-79" transform="translate(266.845703 0)"/>
      </g>
     </g>
    </g>
    <g id="xtick_3">
     <g id="line2d_3">
      <g>
       <use xlink:href="#ma17e32b295" x="163.742073" y="140.217183" style="stroke: #000000; stroke-width: 0.8"/>
      </g>
     </g>
     <g id="text_3">
      <!-- switch -->
      <g transform="translate(152.628948 152.943433) scale(0.08 -0.08)">
       <defs>
        <path id="ArialMT-77" d="M 1034 0 
L 19 3319 
L 600 3319 
L 1128 1403 
L 1325 691 
Q 1338 744 1497 1375 
L 2025 3319 
L 2603 3319 
L 3100 1394 
L 3266 759 
L 3456 1400 
L 4025 3319 
L 4572 3319 
L 3534 0 
L 2950 0 
L 2422 1988 
L 2294 2553 
L 1622 0 
L 1034 0 
z
" transform="scale(0.015625)"/>
        <path id="ArialMT-74" d="M 1650 503 
L 1731 6 
Q 1494 -44 1306 -44 
Q 1000 -44 831 53 
Q 663 150 594 308 
Q 525 466 525 972 
L 525 2881 
L 113 2881 
L 113 3319 
L 525 3319 
L 525 4141 
L 1084 4478 
L 1084 3319 
L 1650 3319 
L 1650 2881 
L 1084 2881 
L 1084 941 
Q 1084 700 1114 631 
Q 1144 563 1211 522 
Q 1278 481 1403 481 
Q 1497 481 1650 503 
z
" transform="scale(0.015625)"/>
        <path id="ArialMT-63" d="M 2588 1216 
L 3141 1144 
Q 3050 572 2676 248 
Q 2303 -75 1759 -75 
Q 1078 -75 664 370 
Q 250 816 250 1647 
Q 250 2184 428 2587 
Q 606 2991 970 3192 
Q 1334 3394 1763 3394 
Q 2303 3394 2647 3120 
Q 2991 2847 3088 2344 
L 2541 2259 
Q 2463 2594 2264 2762 
Q 2066 2931 1784 2931 
Q 1359 2931 1093 2626 
Q 828 2322 828 1663 
Q 828 994 1084 691 
Q 1341 388 1753 388 
Q 2084 388 2306 591 
Q 2528 794 2588 1216 
z
" transform="scale(0.015625)"/>
        <path id="ArialMT-68" d="M 422 0 
L 422 4581 
L 984 4581 
L 984 2938 
Q 1378 3394 1978 3394 
Q 2347 3394 2619 3248 
Q 2891 3103 3008 2847 
Q 3125 2591 3125 2103 
L 3125 0 
L 2563 0 
L 2563 2103 
Q 2563 2525 2380 2717 
Q 2197 2909 1863 2909 
Q 1613 2909 1392 2779 
Q 1172 2650 1078 2428 
Q 984 2206 984 1816 
L 984 0 
L 422 0 
z
" transform="scale(0.015625)"/>
       </defs>
       <use xlink:href="#ArialMT-73"/>
       <use xlink:href="#ArialMT-77" transform="translate(50 0)"/>
       <use xlink:href="#ArialMT-69" transform="translate(122.216797 0)"/>
       <use xlink:href="#ArialMT-74" transform="translate(144.433594 0)"/>
       <use xlink:href="#ArialMT-63" transform="translate(172.216797 0)"/>
       <use xlink:href="#ArialMT-68" transform="translate(222.216797 0)"/>
      </g>
     </g>
    </g>
    <g id="xtick_4">
     <g id="line2d_4">
      <g>
       <use xlink:href="#ma17e32b295" x="214.683719" y="140.217183" style="stroke: #000000; stroke-width: 0.8"/>
      </g>
     </g>
     <g id="text_4">
      <!-- blend -->
      <g transform="translate(204.897469 152.943433) scale(0.08 -0.08)">
       <defs>
        <path id="ArialMT-62" d="M 941 0 
L 419 0 
L 419 4581 
L 981 4581 
L 981 2947 
Q 1338 3394 1891 3394 
Q 2197 3394 2470 3270 
Q 2744 3147 2920 2923 
Q 3097 2700 3197 2384 
Q 3297 2069 3297 1709 
Q 3297 856 2875 390 
Q 2453 -75 1863 -75 
Q 1275 -75 941 416 
L 941 0 
z
M 934 1684 
Q 934 1088 1097 822 
Q 1363 388 1816 388 
Q 2184 388 2453 708 
Q 2722 1028 2722 1663 
Q 2722 2313 2464 2622 
Q 2206 2931 1841 2931 
Q 1472 2931 1203 2611 
Q 934 2291 934 1684 
z
" transform="scale(0.015625)"/>
        <path id="ArialMT-65" d="M 2694 1069 
L 3275 997 
Q 3138 488 2766 206 
Q 2394 -75 1816 -75 
Q 1088 -75 661 373 
Q 234 822 234 1631 
Q 234 2469 665 2931 
Q 1097 3394 1784 3394 
Q 2450 3394 2872 2941 
Q 3294 2488 3294 1666 
Q 3294 1616 3291 1516 
L 816 1516 
Q 847 969 1125 678 
Q 1403 388 1819 388 
Q 2128 388 2347 550 
Q 2566 713 2694 1069 
z
M 847 1978 
L 2700 1978 
Q 2663 2397 2488 2606 
Q 2219 2931 1791 2931 
Q 1403 2931 1139 2672 
Q 875 2413 847 1978 
z
" transform="scale(0.015625)"/>
        <path id="ArialMT-64" d="M 2575 0 
L 2575 419 
Q 2259 -75 1647 -75 
Q 1250 -75 917 144 
Q 584 363 401 755 
Q 219 1147 219 1656 
Q 219 2153 384 2558 
Q 550 2963 881 3178 
Q 1213 3394 1622 3394 
Q 1922 3394 2156 3267 
Q 2391 3141 2538 2938 
L 2538 4581 
L 3097 4581 
L 3097 0 
L 2575 0 
z
M 797 1656 
Q 797 1019 1065 703 
Q 1334 388 1700 388 
Q 2069 388 2326 689 
Q 2584 991 2584 1609 
Q 2584 2291 2321 2609 
Q 2059 2928 1675 2928 
Q 1300 2928 1048 2622 
Q 797 2316 797 1656 
z
" transform="scale(0.015625)"/>
       </defs>
       <use xlink:href="#ArialMT-62"/>
       <use xlink:href="#ArialMT-6c" transform="translate(55.615234 0)"/>
       <use xlink:href="#ArialMT-65" transform="translate(77.832031 0)"/>
       <use xlink:href="#ArialMT-6e" transform="translate(133.447266 0)"/>
       <use xlink:href="#ArialMT-64" transform="translate(189.0625 0)"/>
      </g>
     </g>
    </g>
    <g id="text_5">
     <!-- Decision mode -->
     <g transform="translate(111.815625 164.377183) scale(0.08 -0.08)">
      <defs>
       <path id="ArialMT-44" d="M 494 0 
L 494 4581 
L 2072 4581 
Q 2606 4581 2888 4516 
Q 3281 4425 3559 4188 
Q 3922 3881 4101 3404 
Q 4281 2928 4281 2316 
Q 4281 1794 4159 1391 
Q 4038 988 3847 723 
Q 3656 459 3429 307 
Q 3203 156 2883 78 
Q 2563 0 2147 0 
L 494 0 
z
M 1100 541 
L 2078 541 
Q 2531 541 2789 625 
Q 3047 709 3200 863 
Q 3416 1078 3536 1442 
Q 3656 1806 3656 2325 
Q 3656 3044 3420 3430 
Q 3184 3816 2847 3947 
Q 2603 4041 2063 4041 
L 1100 4041 
L 1100 541 
z
" transform="scale(0.015625)"/>
       <path id="ArialMT-6d" d="M 422 0 
L 422 3319 
L 925 3319 
L 925 2853 
Q 1081 3097 1340 3245 
Q 1600 3394 1931 3394 
Q 2300 3394 2536 3241 
Q 2772 3088 2869 2813 
Q 3263 3394 3894 3394 
Q 4388 3394 4653 3120 
Q 4919 2847 4919 2278 
L 4919 0 
L 4359 0 
L 4359 2091 
Q 4359 2428 4304 2576 
Q 4250 2725 4106 2815 
Q 3963 2906 3769 2906 
Q 3419 2906 3187 2673 
Q 2956 2441 2956 1928 
L 2956 0 
L 2394 0 
L 2394 2156 
Q 2394 2531 2256 2718 
Q 2119 2906 1806 2906 
Q 1569 2906 1367 2781 
Q 1166 2656 1075 2415 
Q 984 2175 984 1722 
L 984 0 
L 422 0 
z
" transform="scale(0.015625)"/>
      </defs>
      <use xlink:href="#ArialMT-44"/>
      <use xlink:href="#ArialMT-65" transform="translate(72.216797 0)"/>
      <use xlink:href="#ArialMT-63" transform="translate(127.832031 0)"/>
      <use xlink:href="#ArialMT-69" transform="translate(177.832031 0)"/>
      <use xlink:href="#ArialMT-73" transform="translate(200.048828 0)"/>
      <use xlink:href="#ArialMT-69" transform="translate(250.048828 0)"/>
      <use xlink:href="#ArialMT-6f" transform="translate(272.265625 0)"/>
      <use xlink:href="#ArialMT-6e" transform="translate(327.880859 0)"/>
      <use xlink:href="#ArialMT-20" transform="translate(383.496094 0)"/>
      <use xlink:href="#ArialMT-6d" transform="translate(411.279297 0)"/>
      <use xlink:href="#ArialMT-6f" transform="translate(494.580078 0)"/>
      <use xlink:href="#ArialMT-64" transform="translate(550.195312 0)"/>
      <use xlink:href="#ArialMT-65" transform="translate(605.810547 0)"/>
     </g>
    </g>
   </g>
   <g id="matplotlib.axis_2">
    <g id="ytick_1">
     <g id="line2d_5">
      <path d="M 34.605 134.255928 
L 241.9375 134.255928 
" clip-path="url(#pf7ec08cd9d)" style="fill: none; stroke: #b0b0b0; stroke-opacity: 0.3; stroke-width: 0.8; stroke-linecap: square"/>
     </g>
     <g id="line2d_6">
      <defs>
       <path id="me28d913111" d="M 0 0 
L -3.5 0 
" style="stroke: #000000; stroke-width: 0.8"/>
      </defs>
      <g>
       <use xlink:href="#me28d913111" x="34.605" y="134.255928" style="stroke: #000000; stroke-width: 0.8"/>
      </g>
     </g>
     <g id="text_6">
      <!-- 0 -->
      <g transform="translate(23.15625 137.119053) scale(0.08 -0.08)">
       <defs>
        <path id="ArialMT-30" d="M 266 2259 
Q 266 3072 433 3567 
Q 600 4063 929 4331 
Q 1259 4600 1759 4600 
Q 2128 4600 2406 4451 
Q 2684 4303 2865 4023 
Q 3047 3744 3150 3342 
Q 3253 2941 3253 2259 
Q 3253 1453 3087 958 
Q 2922 463 2592 192 
Q 2263 -78 1759 -78 
Q 1097 -78 719 397 
Q 266 969 266 2259 
z
M 844 2259 
Q 844 1131 1108 757 
Q 1372 384 1759 384 
Q 2147 384 2411 759 
Q 2675 1134 2675 2259 
Q 2675 3391 2411 3762 
Q 2147 4134 1753 4134 
Q 1366 4134 1134 3806 
Q 844 3388 844 2259 
z
" transform="scale(0.015625)"/>
       </defs>
       <use xlink:href="#ArialMT-30"/>
      </g>
     </g>
    </g>
    <g id="ytick_2">
     <g id="line2d_7">
      <path d="M 34.605 109.417367 
L 241.9375 109.417367 
" clip-path="url(#pf7ec08cd9d)" style="fill: none; stroke: #b0b0b0; stroke-opacity: 0.3; stroke-width: 0.8; stroke-linecap: square"/>
     </g>
     <g id="line2d_8">
      <g>
       <use xlink:href="#me28d913111" x="34.605" y="109.417367" style="stroke: #000000; stroke-width: 0.8"/>
      </g>
     </g>
     <g id="text_7">
      <!-- 5 -->
      <g transform="translate(23.15625 112.280492) scale(0.08 -0.08)">
       <defs>
        <path id="ArialMT-35" d="M 266 1200 
L 856 1250 
Q 922 819 1161 601 
Q 1400 384 1738 384 
Q 2144 384 2425 690 
Q 2706 997 2706 1503 
Q 2706 1984 2436 2262 
Q 2166 2541 1728 2541 
Q 1456 2541 1237 2417 
Q 1019 2294 894 2097 
L 366 2166 
L 809 4519 
L 3088 4519 
L 3088 3981 
L 1259 3981 
L 1013 2750 
Q 1425 3038 1878 3038 
Q 2478 3038 2890 2622 
Q 3303 2206 3303 1553 
Q 3303 931 2941 478 
Q 2500 -78 1738 -78 
Q 1113 -78 717 272 
Q 322 622 266 1200 
z
" transform="scale(0.015625)"/>
       </defs>
       <use xlink:href="#ArialMT-35"/>
      </g>
     </g>
    </g>
    <g id="ytick_3">
     <g id="line2d_9">
      <path d="M 34.605 84.578807 
L 241.9375 84.578807 
" clip-path="url(#pf7ec08cd9d)" style="fill: none; stroke: #b0b0b0; stroke-opacity: 0.3; stroke-width: 0.8; stroke-linecap: square"/>
     </g>
     <g id="line2d_10">
      <g>
       <use xlink:href="#me28d913111" x="34.605" y="84.578807" style="stroke: #000000; stroke-width: 0.8"/>
      </g>
     </g>
     <g id="text_8">
      <!-- 10 -->
      <g transform="translate(18.7075 87.441932) scale(0.08 -0.08)">
       <use xlink:href="#ArialMT-31"/>
       <use xlink:href="#ArialMT-30" transform="translate(55.615234 0)"/>
      </g>
     </g>
    </g>
    <g id="ytick_4">
     <g id="line2d_11">
      <path d="M 34.605 59.740246 
L 241.9375 59.740246 
" clip-path="url(#pf7ec08cd9d)" style="fill: none; stroke: #b0b0b0; stroke-opacity: 0.3; stroke-width: 0.8; stroke-linecap: square"/>
     </g>
     <g id="line2d_12">
      <g>
       <use xlink:href="#me28d913111" x="34.605" y="59.740246" style="stroke: #000000; stroke-width: 0.8"/>
      </g>
     </g>
     <g id="text_9">
      <!-- 15 -->
      <g transform="translate(18.7075 62.603371) scale(0.08 -0.08)">
       <use xlink:href="#ArialMT-31"/>
       <use xlink:href="#ArialMT-35" transform="translate(55.615234 0)"/>
      </g>
     </g>
    </g>
    <g id="ytick_5">
     <g id="line2d_13">
      <path d="M 34.605 34.901686 
L 241.9375 34.901686 
" clip-path="url(#pf7ec08cd9d)" style="fill: none; stroke: #b0b0b0; stroke-opacity: 0.3; stroke-width: 0.8; stroke-linecap: square"/>
     </g>
     <g id="line2d_14">
      <g>
       <use xlink:href="#me28d913111" x="34.605" y="34.901686" style="stroke: #000000; stroke-width: 0.8"/>
      </g>
     </g>
     <g id="text_10">
      <!-- 20 -->
      <g transform="translate(18.7075 37.764811) scale(0.08 -0.08)">
       <defs>
        <path id="ArialMT-32" d="M 3222 541 
L 3222 0 
L 194 0 
Q 188 203 259 391 
Q 375 700 629 1000 
Q 884 1300 1366 1694 
Q 2113 2306 2375 2664 
Q 2638 3022 2638 3341 
Q 2638 3675 2398 3904 
Q 2159 4134 1775 4134 
Q 1369 4134 1125 3890 
Q 881 3647 878 3216 
L 300 3275 
Q 359 3922 746 4261 
Q 1134 4600 1788 4600 
Q 2447 4600 2831 4234 
Q 3216 3869 3216 3328 
Q 3216 3053 3103 2787 
Q 2991 2522 2730 2228 
Q 2469 1934 1863 1422 
Q 1356 997 1212 845 
Q 1069 694 975 541 
L 3222 541 
z
" transform="scale(0.015625)"/>
       </defs>
       <use xlink:href="#ArialMT-32"/>
       <use xlink:href="#ArialMT-30" transform="translate(55.615234 0)"/>
      </g>
     </g>
    </g>
    <g id="ytick_6">
     <g id="line2d_15">
      <path d="M 34.605 10.063125 
L 241.9375 10.063125 
" clip-path="url(#pf7ec08cd9d)" style="fill: none; stroke: #b0b0b0; stroke-opacity: 0.3; stroke-width: 0.8; stroke-linecap: square"/>
     </g>
     <g id="line2d_16">
      <g>
       <use xlink:href="#me28d913111" x="34.605" y="10.063125" style="stroke: #000000; stroke-width: 0.8"/>
      </g>
     </g>
     <g id="text_11">
      <!-- 25 -->
      <g transform="translate(18.7075 12.92625) scale(0.08 -0.08)">
       <use xlink:href="#ArialMT-32"/>
       <use xlink:href="#ArialMT-35" transform="translate(55.615234 0)"/>
      </g>
     </g>
    </g>
    <g id="text_12">
     <!-- First-departure timestep (hours) -->
     <g transform="translate(13.02375 130.879008) rotate(-90) scale(0.08 -0.08)">
      <defs>
       <path id="ArialMT-46" d="M 525 0 
L 525 4581 
L 3616 4581 
L 3616 4041 
L 1131 4041 
L 1131 2622 
L 3281 2622 
L 3281 2081 
L 1131 2081 
L 1131 0 
L 525 0 
z
" transform="scale(0.015625)"/>
       <path id="ArialMT-2d" d="M 203 1375 
L 203 1941 
L 1931 1941 
L 1931 1375 
L 203 1375 
z
" transform="scale(0.015625)"/>
       <path id="ArialMT-70" d="M 422 -1272 
L 422 3319 
L 934 3319 
L 934 2888 
Q 1116 3141 1344 3267 
Q 1572 3394 1897 3394 
Q 2322 3394 2647 3175 
Q 2972 2956 3137 2557 
Q 3303 2159 3303 1684 
Q 3303 1175 3120 767 
Q 2938 359 2589 142 
Q 2241 -75 1856 -75 
Q 1575 -75 1351 44 
Q 1128 163 984 344 
L 984 -1272 
L 422 -1272 
z
M 931 1641 
Q 931 1000 1190 694 
Q 1450 388 1819 388 
Q 2194 388 2461 705 
Q 2728 1022 2728 1688 
Q 2728 2322 2467 2637 
Q 2206 2953 1844 2953 
Q 1484 2953 1207 2617 
Q 931 2281 931 1641 
z
" transform="scale(0.015625)"/>
       <path id="ArialMT-75" d="M 2597 0 
L 2597 488 
Q 2209 -75 1544 -75 
Q 1250 -75 995 37 
Q 741 150 617 320 
Q 494 491 444 738 
Q 409 903 409 1263 
L 409 3319 
L 972 3319 
L 972 1478 
Q 972 1038 1006 884 
Q 1059 663 1231 536 
Q 1403 409 1656 409 
Q 1909 409 2131 539 
Q 2353 669 2445 892 
Q 2538 1116 2538 1541 
L 2538 3319 
L 3100 3319 
L 3100 0 
L 2597 0 
z
" transform="scale(0.015625)"/>
       <path id="ArialMT-28" d="M 1497 -1347 
Q 1031 -759 709 28 
Q 388 816 388 1659 
Q 388 2403 628 3084 
Q 909 3875 1497 4659 
L 1900 4659 
Q 1522 4009 1400 3731 
Q 1209 3300 1100 2831 
Q 966 2247 966 1656 
Q 966 153 1900 -1347 
L 1497 -1347 
z
" transform="scale(0.015625)"/>
       <path id="ArialMT-29" d="M 791 -1347 
L 388 -1347 
Q 1322 153 1322 1656 
Q 1322 2244 1188 2822 
Q 1081 3291 891 3722 
Q 769 4003 388 4659 
L 791 4659 
Q 1378 3875 1659 3084 
Q 1900 2403 1900 1659 
Q 1900 816 1576 28 
Q 1253 -759 791 -1347 
z
" transform="scale(0.015625)"/>
      </defs>
      <use xlink:href="#ArialMT-46"/>
      <use xlink:href="#ArialMT-69" transform="translate(61.083984 0)"/>
      <use xlink:href="#ArialMT-72" transform="translate(83.300781 0)"/>
      <use xlink:href="#ArialMT-73" transform="translate(116.601562 0)"/>
      <use xlink:href="#ArialMT-74" transform="translate(166.601562 0)"/>
      <use xlink:href="#ArialMT-2d" transform="translate(194.384766 0)"/>
      <use xlink:href="#ArialMT-64" transform="translate(227.685547 0)"/>
      <use xlink:href="#ArialMT-65" transform="translate(283.300781 0)"/>
      <use xlink:href="#ArialMT-70" transform="translate(338.916016 0)"/>
      <use xlink:href="#ArialMT-61" transform="translate(394.53125 0)"/>
      <use xlink:href="#ArialMT-72" transform="translate(450.146484 0)"/>
      <use xlink:href="#ArialMT-74" transform="translate(483.447266 0)"/>
      <use xlink:href="#ArialMT-75" transform="translate(511.230469 0)"/>
      <use xlink:href="#ArialMT-72" transform="translate(566.845703 0)"/>
      <use xlink:href="#ArialMT-65" transform="translate(600.146484 0)"/>
      <use xlink:href="#ArialMT-20" transform="translate(655.761719 0)"/>
      <use xlink:href="#ArialMT-74" transform="translate(683.544922 0)"/>
      <use xlink:href="#ArialMT-69" transform="translate(711.328125 0)"/>
      <use xlink:href="#ArialMT-6d" transform="translate(733.544922 0)"/>
      <use xlink:href="#ArialMT-65" transform="translate(816.845703 0)"/>
      <use xlink:href="#ArialMT-73" transform="translate(872.460938 0)"/>
      <use xlink:href="#ArialMT-74" transform="translate(922.460938 0)"/>
      <use xlink:href="#ArialMT-65" transform="translate(950.244141 0)"/>
      <use xlink:href="#ArialMT-70" transform="translate(1005.859375 0)"/>
      <use xlink:href="#ArialMT-20" transform="translate(1061.474609 0)"/>
      <use xlink:href="#ArialMT-28" transform="translate(1089.257812 0)"/>
      <use xlink:href="#ArialMT-68" transform="translate(1122.558594 0)"/>
      <use xlink:href="#ArialMT-6f" transform="translate(1178.173828 0)"/>
      <use xlink:href="#ArialMT-75" transform="translate(1233.789062 0)"/>
      <use xlink:href="#ArialMT-72" transform="translate(1289.404297 0)"/>
      <use xlink:href="#ArialMT-73" transform="translate(1322.705078 0)"/>
      <use xlink:href="#ArialMT-29" transform="translate(1372.705078 0)"/>
     </g>
    </g>
   </g>
   <g id="LineCollection_1">
    <path d="M 52.943993 122.391044 
L 70.773569 122.391044 
" clip-path="url(#pf7ec08cd9d)" style="fill: none; stroke: #1f77b4; stroke-width: 1.5"/>
   </g>
   <g id="LineCollection_2">
    <path d="M 52.943993 15.030837 
L 70.773569 15.030837 
" clip-path="url(#pf7ec08cd9d)" style="fill: none; stroke: #1f77b4; stroke-width: 1.5"/>
   </g>
   <g id="LineCollection_3">
    <path d="M 52.943993 134.255928 
L 70.773569 134.255928 
" clip-path="url(#pf7ec08cd9d)" style="fill: none; stroke: #1f77b4; stroke-width: 1.5"/>
   </g>
   <g id="LineCollection_4">
    <path d="M 61.858781 134.255928 
L 61.858781 15.030837 
" clip-path="url(#pf7ec08cd9d)" style="fill: none; stroke: #1f77b4; stroke-width: 1.5"/>
   </g>
   <g id="LineCollection_5">
    <path d="M 52.943993 124.320504 
L 70.773569 124.320504 
" clip-path="url(#pf7ec08cd9d)" style="fill: none; stroke: #1f77b4; stroke-width: 1.5"/>
   </g>
   <g id="LineCollection_6">
    <path d="M 103.885639 122.391044 
L 121.715215 122.391044 
" clip-path="url(#pf7ec08cd9d)" style="fill: none; stroke: #ff7f0e; stroke-width: 1.5"/>
   </g>
   <g id="LineCollection_7">
    <path d="M 103.885639 15.030837 
L 121.715215 15.030837 
" clip-path="url(#pf7ec08cd9d)" style="fill: none; stroke: #ff7f0e; stroke-width: 1.5"/>
   </g>
   <g id="LineCollection_8">
    <path d="M 103.885639 134.255928 
L 121.715215 134.255928 
" clip-path="url(#pf7ec08cd9d)" style="fill: none; stroke: #ff7f0e; stroke-width: 1.5"/>
   </g>
   <g id="LineCollection_9">
    <path d="M 112.800427 134.255928 
L 112.800427 15.030837 
" clip-path="url(#pf7ec08cd9d)" style="fill: none; stroke: #ff7f0e; stroke-width: 1.5"/>
   </g>
   <g id="LineCollection_10">
    <path d="M 103.885639 124.320504 
L 121.715215 124.320504 
" clip-path="url(#pf7ec08cd9d)" style="fill: none; stroke: #ff7f0e; stroke-width: 1.5"/>
   </g>
   <g id="LineCollection_11">
    <path d="M 154.827285 124.935507 
L 172.656861 124.935507 
" clip-path="url(#pf7ec08cd9d)" style="fill: none; stroke: #2ca02c; stroke-width: 1.5"/>
   </g>
   <g id="LineCollection_12">
    <path d="M 154.827285 15.030837 
L 172.656861 15.030837 
" clip-path="url(#pf7ec08cd9d)" style="fill: none; stroke: #2ca02c; stroke-width: 1.5"/>
   </g>
   <g id="LineCollection_13">
    <path d="M 154.827285 134.255928 
L 172.656861 134.255928 
" clip-path="url(#pf7ec08cd9d)" style="fill: none; stroke: #2ca02c; stroke-width: 1.5"/>
   </g>
   <g id="LineCollection_14">
    <path d="M 163.742073 134.255928 
L 163.742073 15.030837 
" clip-path="url(#pf7ec08cd9d)" style="fill: none; stroke: #2ca02c; stroke-width: 1.5"/>
   </g>
   <g id="LineCollection_15">
    <path d="M 154.827285 129.288216 
L 172.656861 129.288216 
" clip-path="url(#pf7ec08cd9d)" style="fill: none; stroke: #2ca02c; stroke-width: 1.5"/>
   </g>
   <g id="LineCollection_16">
    <path d="M 205.768931 126.202273 
L 223.598507 126.202273 
" clip-path="url(#pf7ec08cd9d)" style="fill: none; stroke: #d62728; stroke-width: 1.5"/>
   </g>
   <g id="LineCollection_17">
    <path d="M 205.768931 39.869398 
L 223.598507 39.869398 
" clip-path="url(#pf7ec08cd9d)" style="fill: none; stroke: #d62728; stroke-width: 1.5"/>
   </g>
   <g id="LineCollection_18">
    <path d="M 205.768931 134.255928 
L 223.598507 134.255928 
" clip-path="url(#pf7ec08cd9d)" style="fill: none; stroke: #d62728; stroke-width: 1.5"/>
   </g>
   <g id="LineCollection_19">
    <path d="M 214.683719 134.255928 
L 214.683719 39.869398 
" clip-path="url(#pf7ec08cd9d)" style="fill: none; stroke: #d62728; stroke-width: 1.5"/>
   </g>
   <g id="LineCollection_20">
    <path d="M 205.768931 129.288216 
L 223.598507 129.288216 
" clip-path="url(#pf7ec08cd9d)" style="fill: none; stroke: #d62728; stroke-width: 1.5"/>
   </g>
   <g id="patch_3">
    <path d="M 34.605 140.217183 
L 34.605 9.069583 
" style="fill: none; stroke: #000000; stroke-width: 0.5; stroke-linejoin: miter; stroke-linecap: square"/>
   </g>
   <g id="patch_4">
    <path d="M 34.605 140.217183 
L 241.9375 140.217183 
" style="fill: none; stroke: #000000; stroke-width: 0.5; stroke-linejoin: miter; stroke-linecap: square"/>
   </g>
   <g id="text_13">
    <g id="patch_5">
     <path d="M 165.7421 25.49066 
L 237.79085 25.49066 
Q 239.59085 25.49066 239.59085 23.69066 
L 239.59085 11.762847 
Q 239.59085 9.962847 237.79085 9.962847 
L 165.7421 9.962847 
Q 163.9421 9.962847 163.9421 11.762847 
L 163.9421 23.69066 
Q 163.9421 25.49066 165.7421 25.49066 
z
" style="fill: #ffffff; opacity: 0.9; stroke: #808080; stroke-linejoin: miter"/>
    </g>
    <!-- α=2.0, β=2.0, κ=5.0 -->
    <g transform="translate(185.670538 16.060347) scale(0.06 -0.06)">
     <defs>
      <path id="ArialMT-3b1" d="M 2884 3319 
L 3459 3319 
Q 3241 2631 3056 1659 
Q 3275 453 3459 0 
L 2900 0 
Q 2766 313 2697 606 
Q 2438 -75 1613 -75 
Q 988 -75 606 394 
Q 225 863 225 1666 
Q 225 2491 608 2942 
Q 991 3394 1622 3394 
Q 2013 3394 2259 3236 
Q 2506 3078 2719 2756 
Q 2741 2866 2884 3319 
z
M 1716 2928 
Q 1313 2928 1078 2603 
Q 844 2278 844 1666 
Q 844 1069 1066 728 
Q 1288 388 1684 388 
Q 2072 388 2331 723 
Q 2591 1059 2591 1691 
Q 2591 2303 2348 2615 
Q 2106 2928 1716 2928 
z
" transform="scale(0.015625)"/>
      <path id="ArialMT-3d" d="M 3381 2694 
L 356 2694 
L 356 3219 
L 3381 3219 
L 3381 2694 
z
M 3381 1303 
L 356 1303 
L 356 1828 
L 3381 1828 
L 3381 1303 
z
" transform="scale(0.015625)"/>
      <path id="ArialMT-2e" d="M 581 0 
L 581 641 
L 1222 641 
L 1222 0 
L 581 0 
z
" transform="scale(0.015625)"/>
      <path id="ArialMT-2c" d="M 569 0 
L 569 641 
L 1209 641 
L 1209 0 
Q 1209 -353 1084 -570 
Q 959 -788 688 -906 
L 531 -666 
Q 709 -588 793 -436 
Q 878 -284 888 0 
L 569 0 
z
" transform="scale(0.015625)"/>
      <path id="ArialMT-3b2" d="M 997 422 
L 997 -1272 
L 438 -1272 
L 438 3144 
Q 438 3672 580 3970 
Q 722 4269 1069 4464 
Q 1416 4659 1841 4659 
Q 2469 4659 2792 4298 
Q 3116 3938 3116 3509 
Q 3116 3091 2855 2834 
Q 2594 2578 2256 2519 
Q 2800 2466 3095 2128 
Q 3391 1791 3391 1297 
Q 3391 766 3042 345 
Q 2694 -75 2034 -75 
Q 1359 -75 997 422 
z
M 1494 2700 
Q 2069 2700 2331 2900 
Q 2594 3100 2594 3478 
Q 2594 3784 2370 3990 
Q 2147 4197 1813 4197 
Q 1522 4197 1308 4044 
Q 1094 3891 1045 3703 
Q 997 3516 997 3047 
L 997 1788 
Q 997 1250 1072 997 
Q 1147 744 1394 541 
Q 1641 338 1963 338 
Q 2353 338 2579 605 
Q 2806 872 2806 1266 
Q 2806 1591 2639 1848 
Q 2472 2106 2226 2198 
Q 1981 2291 1575 2291 
L 1494 2291 
L 1494 2700 
z
" transform="scale(0.015625)"/>
      <path id="ArialMT-3ba" d="M 419 3319 
L 978 3319 
L 978 2016 
L 2325 3319 
L 3069 3319 
L 1584 1941 
L 3197 0 
L 2478 0 
L 1184 1563 
L 978 1372 
L 978 0 
L 419 0 
L 419 3319 
z
" transform="scale(0.015625)"/>
     </defs>
     <use xlink:href="#ArialMT-3b1"/>
     <use xlink:href="#ArialMT-3d" transform="translate(57.8125 0)"/>
     <use xlink:href="#ArialMT-32" transform="translate(116.210938 0)"/>
     <use xlink:href="#ArialMT-2e" transform="translate(171.826172 0)"/>
     <use xlink:href="#ArialMT-30" transform="translate(199.609375 0)"/>
     <use xlink:href="#ArialMT-2c" transform="translate(255.224609 0)"/>
     <use xlink:href="#ArialMT-20" transform="translate(283.007812 0)"/>
     <use xlink:href="#ArialMT-3b2" transform="translate(310.791016 0)"/>
     <use xlink:href="#ArialMT-3d" transform="translate(368.310547 0)"/>
     <use xlink:href="#ArialMT-32" transform="translate(426.708984 0)"/>
     <use xlink:href="#ArialMT-2e" transform="translate(482.324219 0)"/>
     <use xlink:href="#ArialMT-30" transform="translate(510.107422 0)"/>
     <use xlink:href="#ArialMT-2c" transform="translate(565.722656 0)"/>
     <use xlink:href="#ArialMT-20" transform="translate(593.505859 0)"/>
     <use xlink:href="#ArialMT-3ba" transform="translate(621.289062 0)"/>
     <use xlink:href="#ArialMT-3d" transform="translate(671.289062 0)"/>
     <use xlink:href="#ArialMT-35" transform="translate(729.6875 0)"/>
     <use xlink:href="#ArialMT-2e" transform="translate(785.302734 0)"/>
     <use xlink:href="#ArialMT-30" transform="translate(813.085938 0)"/>
    </g>
    <!-- N_agents=500, N_runs=10 -->
    <g transform="translate(165.7421 22.427847) scale(0.06 -0.06)">
     <defs>
      <path id="ArialMT-4e" d="M 488 0 
L 488 4581 
L 1109 4581 
L 3516 984 
L 3516 4581 
L 4097 4581 
L 4097 0 
L 3475 0 
L 1069 3600 
L 1069 0 
L 488 0 
z
" transform="scale(0.015625)"/>
      <path id="ArialMT-5f" d="M -97 -1272 
L -97 -866 
L 3631 -866 
L 3631 -1272 
L -97 -1272 
z
" transform="scale(0.015625)"/>
     </defs>
     <use xlink:href="#ArialMT-4e"/>
     <use xlink:href="#ArialMT-5f" transform="translate(72.216797 0)"/>
     <use xlink:href="#ArialMT-61" transform="translate(127.832031 0)"/>
     <use xlink:href="#ArialMT-67" transform="translate(183.447266 0)"/>
     <use xlink:href="#ArialMT-65" transform="translate(239.0625 0)"/>
     <use xlink:href="#ArialMT-6e" transform="translate(294.677734 0)"/>
     <use xlink:href="#ArialMT-74" transform="translate(350.292969 0)"/>
     <use xlink:href="#ArialMT-73" transform="translate(378.076172 0)"/>
     <use xlink:href="#ArialMT-3d" transform="translate(428.076172 0)"/>
     <use xlink:href="#ArialMT-35" transform="translate(486.474609 0)"/>
     <use xlink:href="#ArialMT-30" transform="translate(542.089844 0)"/>
     <use xlink:href="#ArialMT-30" transform="translate(597.705078 0)"/>
     <use xlink:href="#ArialMT-2c" transform="translate(653.320312 0)"/>
     <use xlink:href="#ArialMT-20" transform="translate(681.103516 0)"/>
     <use xlink:href="#ArialMT-4e" transform="translate(708.886719 0)"/>
     <use xlink:href="#ArialMT-5f" transform="translate(781.103516 0)"/>
     <use xlink:href="#ArialMT-72" transform="translate(836.71875 0)"/>
     <use xlink:href="#ArialMT-75" transform="translate(870.019531 0)"/>
     <use xlink:href="#ArialMT-6e" transform="translate(925.634766 0)"/>
     <use xlink:href="#ArialMT-73" transform="translate(981.25 0)"/>
     <use xlink:href="#ArialMT-3d" transform="translate(1031.25 0)"/>
     <use xlink:href="#ArialMT-31" transform="translate(1089.648438 0)"/>
     <use xlink:href="#ArialMT-30" transform="translate(1145.263672 0)"/>
    </g>
   </g>
  </g>
 </g>
 <defs>
  <clipPath id="pf7ec08cd9d">
   <rect x="34.605" y="9.069583" width="207.3325" height="131.1476"/>
  </clipPath>
 </defs>
</svg>
