<?xml version="1.0" encoding="utf-8" standalone="no"?>
<!DOCTYPE svg PUBLIC "-//W3C//DTD SVG 1.1//EN"
  "http://www.w3.org/Graphics/SVG/1.1/DTD/svg11.dtd">
<svg xmlns:xlink="http://www.w3.org/1999/xlink" width="249.1375pt" height="173.15pt" viewBox="0 0 249.1375 173.15" xmlns="http://www.w3.org/2000/svg" version="1.1">
 <metadata>
  <rdf:RDF xmlns:dc="http://purl.org/dc/elements/1.1/" xmlns:cc="http://creativecommons.org/ns#" xmlns:rdf="http://www.w3.org/1999/02/22-rdf-syntax-ns#">
   <cc:Work>
    <dc:type rdf:resource="http://purl.org/dc/dcmitype/StillImage"/>
    <dc:date>2026-03-22T21:30:34.361670</dc:date>
    <dc:format>image/svg+xml</dc:format>
    <dc:creator>
     <cc:Agent>
      <dc:title>Matplotlib v3.10.7, https://matplotlib.org/</dc:title>
     </cc:Agent>
    </dc:creator>
   </cc:Work>
  </rdf:RDF>
 </metadata>
 <defs>
  <style type="text/css">*{stroke-linejoin: round; stroke-linecap: butt}</style>
 </defs>
 <g id="figure_1">
  <g id="patch_1">
   <path d="M 0 173.15 
L 249.1375 173.15 
L 249.1375 0 
L 0 0 
z
" style="fill: #ffffff"/>
  </g>
  <g id="axes_1">
   <g id="patch_2">
    <path d="M 34.605 140.2 
L 241.9375 140.2 
L 241.9375 7.2 
L 34.605 7.2 
z
" style="fill: #ffffff"/>
   </g>
   <g id="FillBetweenPolyCollection_1">
    <path d="M 78.637898 134.154545 
L 45.079664 134.154545 
L 44.476699 132.933242 
L 44.675385 131.711938 
L 44.310895 130.490634 
L 44.029205 129.26933 
L 45.286052 128.048026 
L 47.986341 126.826722 
L 50.620211 125.605418 
L 52.320172 124.384114 
L 53.516674 123.16281 
L 54.695229 121.941506 
L 55.649176 120.720202 
L 56.148908 119.498898 
L 56.492135 118.277594 
L 57.010953 117.05629 
L 57.560589 115.834986 
L 57.867562 114.613682 
L 58.033739 113.392378 
L 58.33714 112.171074 
L 58.761446 110.94977 
L 59.067731 109.728466 
L 59.207974 108.507163 
L 59.353859 107.285859 
L 59.564197 106.064555 
L 59.707719 104.843251 
L 59.737073 103.621947 
L 59.79843 102.400643 
L 59.995015 101.179339 
L 60.228499 99.958035 
L 60.371726 98.736731 
L 60.454795 97.515427 
L 60.571328 96.294123 
L 60.708474 95.072819 
L 60.79023 93.851515 
L 60.824092 92.630211 
L 60.887239 91.408907 
L 60.994736 90.187603 
L 61.083892 88.966299 
L 61.125287 87.744995 
L 61.161326 86.523691 
L 61.22194 85.302388 
L 61.276885 84.081084 
L 61.299589 82.85978 
L 61.32022 81.638476 
L 61.37803 80.417172 
L 61.460305 79.195868 
L 61.525596 77.974564 
L 61.560881 76.75326 
L 61.581232 75.531956 
L 61.591399 74.310652 
L 61.583717 73.089348 
L 61.568095 71.868044 
L 61.571273 70.64674 
L 61.601294 69.425436 
L 61.637063 68.204132 
L 61.660226 66.982828 
L 61.677041 65.761524 
L 61.700178 64.54022 
L 61.726683 63.318916 
L 61.745948 62.097612 
L 61.757685 60.876309 
L 61.769649 59.655005 
L 61.783782 58.433701 
L 61.795252 57.212397 
L 61.80271 55.991093 
L 61.810981 54.769789 
L 61.823466 53.548485 
L 61.837559 52.327181 
L 61.848483 51.105877 
L 61.854108 49.884573 
L 61.855215 48.663269 
L 61.853504 47.441965 
L 61.850518 46.220661 
L 61.847166 44.999357 
L 61.842995 43.778053 
L 61.836633 42.556749 
L 61.828355 41.335445 
L 61.821583 40.114141 
L 61.81982 38.892837 
L 61.822313 37.671534 
L 61.825185 36.45023 
L 61.826867 35.228926 
L 61.829761 34.007622 
L 61.836041 32.786318 
L 61.844322 31.565014 
L 61.851358 30.34371 
L 61.8552 29.122406 
L 61.855862 27.901102 
L 61.854289 26.679798 
L 61.851825 25.458494 
L 61.850109 24.23719 
L 61.850344 23.015886 
L 61.852373 21.794582 
L 61.854853 20.573278 
L 61.856323 19.351974 
L 61.855834 18.13067 
L 61.852945 16.909366 
L 61.848084 15.688062 
L 61.843202 14.466758 
L 61.841111 13.245455 
L 61.876451 13.245455 
L 61.876451 13.245455 
L 61.87436 14.466758 
L 61.869478 15.688062 
L 61.864617 16.909366 
L 61.861727 18.13067 
L 61.861238 19.351974 
L 61.862708 20.573278 
L 61.865189 21.794582 
L 61.867218 23.015886 
L 61.867452 24.23719 
L 61.865736 25.458494 
L 61.863273 26.679798 
L 61.8617 27.901102 
L 61.862362 29.122406 
L 61.866204 30.34371 
L 61.873239 31.565014 
L 61.881521 32.786318 
L 61.8878 34.007622 
L 61.890694 35.228926 
L 61.892377 36.45023 
L 61.895248 37.671534 
L 61.897742 38.892837 
L 61.895979 40.114141 
L 61.889207 41.335445 
L 61.880928 42.556749 
L 61.874567 43.778053 
L 61.870396 44.999357 
L 61.867044 46.220661 
L 61.864058 47.441965 
L 61.862346 48.663269 
L 61.863453 49.884573 
L 61.869078 51.105877 
L 61.880002 52.327181 
L 61.894096 53.548485 
L 61.906581 54.769789 
L 61.914851 55.991093 
L 61.922309 57.212397 
L 61.93378 58.433701 
L 61.947913 59.655005 
L 61.959877 60.876309 
L 61.971614 62.097612 
L 61.990878 63.318916 
L 62.017384 64.54022 
L 62.040521 65.761524 
L 62.057336 66.982828 
L 62.080499 68.204132 
L 62.116267 69.425436 
L 62.146289 70.64674 
L 62.149467 71.868044 
L 62.133844 73.089348 
L 62.126162 74.310652 
L 62.13633 75.531956 
L 62.15668 76.75326 
L 62.191966 77.974564 
L 62.257256 79.195868 
L 62.339532 80.417172 
L 62.397341 81.638476 
L 62.417972 82.85978 
L 62.440676 84.081084 
L 62.495621 85.302388 
L 62.556235 86.523691 
L 62.592274 87.744995 
L 62.63367 88.966299 
L 62.722825 90.187603 
L 62.830323 91.408907 
L 62.893469 92.630211 
L 62.927331 93.851515 
L 63.009088 95.072819 
L 63.146234 96.294123 
L 63.262766 97.515427 
L 63.345836 98.736731 
L 63.489063 99.958035 
L 63.722547 101.179339 
L 63.919131 102.400643 
L 63.980489 103.621947 
L 64.009842 104.843251 
L 64.153365 106.064555 
L 64.363703 107.285859 
L 64.509588 108.507163 
L 64.649831 109.728466 
L 64.956116 110.94977 
L 65.380421 112.171074 
L 65.683822 113.392378 
L 65.849999 114.613682 
L 66.156972 115.834986 
L 66.706609 117.05629 
L 67.225427 118.277594 
L 67.568654 119.498898 
L 68.068386 120.720202 
L 69.022333 121.941506 
L 70.200887 123.16281 
L 71.397389 124.384114 
L 73.097351 125.605418 
L 75.73122 126.826722 
L 78.43151 128.048026 
L 79.688357 129.26933 
L 79.406667 130.490634 
L 79.042176 131.711938 
L 79.240862 132.933242 
L 78.637898 134.154545 
z
" clip-path="url(#p22a0c61257)" style="fill: #888780; fill-opacity: 0.7"/>
   </g>
   <g id="FillBetweenPolyCollection_2">
    <path d="M 129.579544 134.154545 
L 96.02131 134.154545 
L 95.418346 132.933242 
L 95.617032 131.711938 
L 95.252541 130.490634 
L 94.970851 129.26933 
L 96.227698 128.048026 
L 98.927988 126.826722 
L 101.561857 125.605418 
L 103.261818 124.384114 
L 104.458321 123.16281 
L 105.636875 121.941506 
L 106.590822 120.720202 
L 107.090554 119.498898 
L 107.433781 118.277594 
L 107.952599 117.05629 
L 108.502235 115.834986 
L 108.809208 114.613682 
L 108.975385 113.392378 
L 109.278786 112.171074 
L 109.703092 110.94977 
L 110.009377 109.728466 
L 110.14962 108.507163 
L 110.295505 107.285859 
L 110.505843 106.064555 
L 110.649365 104.843251 
L 110.678719 103.621947 
L 110.740076 102.400643 
L 110.936661 101.179339 
L 111.170145 99.958035 
L 111.313372 98.736731 
L 111.396442 97.515427 
L 111.512974 96.294123 
L 111.65012 95.072819 
L 111.731876 93.851515 
L 111.765738 92.630211 
L 111.828885 91.408907 
L 111.936382 90.187603 
L 112.025538 88.966299 
L 112.066933 87.744995 
L 112.102972 86.523691 
L 112.163586 85.302388 
L 112.218531 84.081084 
L 112.241236 82.85978 
L 112.261866 81.638476 
L 112.319676 80.417172 
L 112.401951 79.195868 
L 112.467242 77.974564 
L 112.502527 76.75326 
L 112.522878 75.531956 
L 112.533046 74.310652 
L 112.525364 73.089348 
L 112.509741 71.868044 
L 112.512919 70.64674 
L 112.54294 69.425436 
L 112.578709 68.204132 
L 112.601872 66.982828 
L 112.618687 65.761524 
L 112.641824 64.54022 
L 112.66833 63.318916 
L 112.687594 62.097612 
L 112.699331 60.876309 
L 112.711295 59.655005 
L 112.725428 58.433701 
L 112.736898 57.212397 
L 112.744356 55.991093 
L 112.752627 54.769789 
L 112.765112 53.548485 
L 112.779205 52.327181 
L 112.790129 51.105877 
L 112.795754 49.884573 
L 112.796861 48.663269 
L 112.79515 47.441965 
L 112.792164 46.220661 
L 112.788812 44.999357 
L 112.784641 43.778053 
L 112.77828 42.556749 
L 112.770001 41.335445 
L 112.763229 40.114141 
L 112.761466 38.892837 
L 112.76396 37.671534 
L 112.766831 36.45023 
L 112.768513 35.228926 
L 112.771407 34.007622 
L 112.777687 32.786318 
L 112.785968 31.565014 
L 112.793004 30.34371 
L 112.796846 29.122406 
L 112.797508 27.901102 
L 112.795935 26.679798 
L 112.793471 25.458494 
L 112.791756 24.23719 
L 112.79199 23.015886 
L 112.794019 21.794582 
L 112.796499 20.573278 
L 112.79797 19.351974 
L 112.797481 18.13067 
L 112.794591 16.909366 
L 112.78973 15.688062 
L 112.784848 14.466758 
L 112.782757 13.245455 
L 112.818097 13.245455 
L 112.818097 13.245455 
L 112.816006 14.466758 
L 112.811124 15.688062 
L 112.806263 16.909366 
L 112.803373 18.13067 
L 112.802884 19.351974 
L 112.804355 20.573278 
L 112.806835 21.794582 
L 112.808864 23.015886 
L 112.809098 24.23719 
L 112.807382 25.458494 
L 112.804919 26.679798 
L 112.803346 27.901102 
L 112.804008 29.122406 
L 112.80785 30.34371 
L 112.814886 31.565014 
L 112.823167 32.786318 
L 112.829447 34.007622 
L 112.832341 35.228926 
L 112.834023 36.45023 
L 112.836894 37.671534 
L 112.839388 38.892837 
L 112.837625 40.114141 
L 112.830853 41.335445 
L 112.822574 42.556749 
L 112.816213 43.778053 
L 112.812042 44.999357 
L 112.80869 46.220661 
L 112.805704 47.441965 
L 112.803993 48.663269 
L 112.8051 49.884573 
L 112.810724 51.105877 
L 112.821648 52.327181 
L 112.835742 53.548485 
L 112.848227 54.769789 
L 112.856497 55.991093 
L 112.863955 57.212397 
L 112.875426 58.433701 
L 112.889559 59.655005 
L 112.901523 60.876309 
L 112.91326 62.097612 
L 112.932524 63.318916 
L 112.95903 64.54022 
L 112.982167 65.761524 
L 112.998982 66.982828 
L 113.022145 68.204132 
L 113.057914 69.425436 
L 113.087935 70.64674 
L 113.091113 71.868044 
L 113.07549 73.089348 
L 113.067808 74.310652 
L 113.077976 75.531956 
L 113.098326 76.75326 
L 113.133612 77.974564 
L 113.198903 79.195868 
L 113.281178 80.417172 
L 113.338988 81.638476 
L 113.359618 82.85978 
L 113.382322 84.081084 
L 113.437267 85.302388 
L 113.497881 86.523691 
L 113.533921 87.744995 
L 113.575316 88.966299 
L 113.664472 90.187603 
L 113.771969 91.408907 
L 113.835116 92.630211 
L 113.868978 93.851515 
L 113.950734 95.072819 
L 114.08788 96.294123 
L 114.204412 97.515427 
L 114.287482 98.736731 
L 114.430709 99.958035 
L 114.664193 101.179339 
L 114.860777 102.400643 
L 114.922135 103.621947 
L 114.951489 104.843251 
L 115.095011 106.064555 
L 115.305349 107.285859 
L 115.451234 108.507163 
L 115.591477 109.728466 
L 115.897762 110.94977 
L 116.322067 112.171074 
L 116.625468 113.392378 
L 116.791645 114.613682 
L 117.098618 115.834986 
L 117.648255 117.05629 
L 118.167073 118.277594 
L 118.5103 119.498898 
L 119.010032 120.720202 
L 119.963979 121.941506 
L 121.142533 123.16281 
L 122.339036 124.384114 
L 124.038997 125.605418 
L 126.672866 126.826722 
L 129.373156 128.048026 
L 130.630003 129.26933 
L 130.348313 130.490634 
L 129.983822 131.711938 
L 130.182508 132.933242 
L 129.579544 134.154545 
z
" clip-path="url(#p22a0c61257)" style="fill: #378add; fill-opacity: 0.7"/>
   </g>
   <g id="FillBetweenPolyCollection_3">
    <path d="M 181.571649 134.154545 
L 145.912497 134.154545 
L 147.338685 132.986342 
L 150.156878 131.818138 
L 150.623178 130.649934 
L 149.457198 129.48173 
L 150.081591 128.313527 
L 153.201408 127.145323 
L 156.211726 125.977119 
L 157.375073 124.808915 
L 157.710308 123.640711 
L 158.615036 122.472508 
L 159.792516 121.304304 
L 160.278715 120.1361 
L 160.177709 118.967896 
L 160.354964 117.799693 
L 161.011356 116.631489 
L 161.521209 115.463285 
L 161.542244 114.295081 
L 161.48592 113.126877 
L 161.76094 111.958674 
L 162.153168 110.79047 
L 162.264078 109.622266 
L 162.165504 108.454062 
L 162.237441 107.285859 
L 162.561283 106.117655 
L 162.853021 104.949451 
L 162.935311 103.781247 
L 162.943939 102.613043 
L 163.034961 101.44484 
L 163.140882 100.276636 
L 163.131062 99.108432 
L 163.055569 97.940228 
L 163.072451 96.772025 
L 163.200845 95.603821 
L 163.305602 94.435617 
L 163.314365 93.267413 
L 163.306893 92.099209 
L 163.366029 90.931006 
L 163.454787 89.762802 
L 163.495607 88.594598 
L 163.492321 87.426394 
L 163.505984 86.258191 
L 163.552061 85.089987 
L 163.587735 83.921783 
L 163.589209 82.753579 
L 163.584454 81.585375 
L 163.600283 80.417172 
L 163.61974 79.248968 
L 163.615554 78.080764 
L 163.598064 76.91256 
L 163.598466 75.744357 
L 163.617225 74.576153 
L 163.623773 73.407949 
L 163.607775 72.239745 
L 163.597639 71.071542 
L 163.617001 69.903338 
L 163.650414 68.735134 
L 163.669869 67.56693 
L 163.673491 66.398726 
L 163.678715 65.230523 
L 163.691449 64.062319 
L 163.701192 62.894115 
L 163.701917 61.725911 
L 163.701506 60.557708 
L 163.708375 59.389504 
L 163.719847 58.2213 
L 163.728356 57.053096 
L 163.731593 55.884892 
L 163.731593 54.716689 
L 163.72836 53.548485 
L 163.719884 52.380281 
L 163.708653 51.212077 
L 163.703012 50.043874 
L 163.707732 48.87567 
L 163.717232 47.707466 
L 163.723208 46.539262 
L 163.724811 45.371058 
L 163.72682 44.202855 
L 163.731504 43.034651 
L 163.736722 41.866447 
L 163.740088 40.698243 
L 163.74132 39.53004 
L 163.741012 38.361836 
L 163.739393 37.193632 
L 163.736832 36.025428 
L 163.734728 34.857224 
L 163.734728 33.689021 
L 163.736833 32.520817 
L 163.739406 31.352613 
L 163.741104 30.184409 
L 163.741822 29.016206 
L 163.742027 27.848002 
L 163.742065 26.679798 
L 163.742055 25.511594 
L 163.74196 24.34339 
L 163.741559 23.175187 
L 163.740396 22.006983 
L 163.738173 20.838779 
L 163.735602 19.670575 
L 163.734412 18.502372 
L 163.749735 18.502372 
L 163.749735 18.502372 
L 163.748545 19.670575 
L 163.745973 20.838779 
L 163.74375 22.006983 
L 163.742587 23.175187 
L 163.742186 24.34339 
L 163.742091 25.511594 
L 163.742081 26.679798 
L 163.74212 27.848002 
L 163.742324 29.016206 
L 163.743042 30.184409 
L 163.744741 31.352613 
L 163.747313 32.520817 
L 163.749418 33.689021 
L 163.749418 34.857224 
L 163.747315 36.025428 
L 163.744753 37.193632 
L 163.743135 38.361836 
L 163.742826 39.53004 
L 163.744058 40.698243 
L 163.747424 41.866447 
L 163.752642 43.034651 
L 163.757326 44.202855 
L 163.759335 45.371058 
L 163.760939 46.539262 
L 163.766914 47.707466 
L 163.776414 48.87567 
L 163.781134 50.043874 
L 163.775493 51.212077 
L 163.764262 52.380281 
L 163.755787 53.548485 
L 163.752553 54.716689 
L 163.752553 55.884892 
L 163.75579 57.053096 
L 163.764299 58.2213 
L 163.775771 59.389504 
L 163.78264 60.557708 
L 163.78223 61.725911 
L 163.782954 62.894115 
L 163.792697 64.062319 
L 163.805431 65.230523 
L 163.810655 66.398726 
L 163.814277 67.56693 
L 163.833732 68.735134 
L 163.867145 69.903338 
L 163.886507 71.071542 
L 163.876371 72.239745 
L 163.860373 73.407949 
L 163.866921 74.576153 
L 163.88568 75.744357 
L 163.886083 76.91256 
L 163.868593 78.080764 
L 163.864406 79.248968 
L 163.883863 80.417172 
L 163.899692 81.585375 
L 163.894937 82.753579 
L 163.896411 83.921783 
L 163.932085 85.089987 
L 163.978162 86.258191 
L 163.991826 87.426394 
L 163.988539 88.594598 
L 164.029359 89.762802 
L 164.118117 90.931006 
L 164.177253 92.099209 
L 164.169781 93.267413 
L 164.178545 94.435617 
L 164.283301 95.603821 
L 164.411695 96.772025 
L 164.428577 97.940228 
L 164.353084 99.108432 
L 164.343264 100.276636 
L 164.449186 101.44484 
L 164.540207 102.613043 
L 164.548835 103.781247 
L 164.631125 104.949451 
L 164.922863 106.117655 
L 165.246706 107.285859 
L 165.318642 108.454062 
L 165.220068 109.622266 
L 165.330978 110.79047 
L 165.723206 111.958674 
L 165.998226 113.126877 
L 165.941902 114.295081 
L 165.962937 115.463285 
L 166.472791 116.631489 
L 167.129182 117.799693 
L 167.306437 118.967896 
L 167.205432 120.1361 
L 167.69163 121.304304 
L 168.86911 122.472508 
L 169.773838 123.640711 
L 170.109073 124.808915 
L 171.27242 125.977119 
L 174.282739 127.145323 
L 177.402555 128.313527 
L 178.026949 129.48173 
L 176.860969 130.649934 
L 177.327268 131.818138 
L 180.145462 132.986342 
L 181.571649 134.154545 
z
" clip-path="url(#p22a0c61257)" style="fill: #ba7517; fill-opacity: 0.7"/>
   </g>
   <g id="FillBetweenPolyCollection_4">
    <path d="M 232.513295 134.154545 
L 196.854143 134.154545 
L 198.742414 133.251843 
L 202.757305 132.34914 
L 205.14029 131.446437 
L 204.213856 130.543734 
L 201.756412 129.641031 
L 200.962799 128.738328 
L 203.166043 127.835625 
L 206.740894 126.932922 
L 209.161951 126.030219 
L 209.51394 125.127516 
L 208.885985 124.224813 
L 208.873394 123.32211 
L 209.971374 122.419408 
L 211.354522 121.516705 
L 211.989109 120.614002 
L 211.700952 119.711299 
L 211.205046 118.808596 
L 211.286847 117.905893 
L 212.024317 117.00319 
L 212.824253 116.100487 
L 213.123647 115.197784 
L 212.922492 114.295081 
L 212.681392 113.392378 
L 212.805174 112.489675 
L 213.25553 111.586972 
L 213.663597 110.68427 
L 213.75238 109.781567 
L 213.588798 108.878864 
L 213.465454 107.976161 
L 213.585171 107.073458 
L 213.874137 106.170755 
L 214.100143 105.268052 
L 214.127276 104.365349 
L 214.02769 103.462646 
L 213.977541 102.559943 
L 214.069844 101.65724 
L 214.234136 100.754537 
L 214.332638 99.851835 
L 214.30794 98.949132 
L 214.228546 98.046429 
L 214.2074 97.143726 
L 214.284596 96.241023 
L 214.395098 95.33832 
L 214.448038 94.435617 
L 214.41988 93.532914 
L 214.368309 92.630211 
L 214.36674 91.727508 
L 214.43015 90.824805 
L 214.508358 89.922102 
L 214.545988 89.0194 
L 214.535542 88.116697 
L 214.51434 87.213994 
L 214.520677 86.311291 
L 214.55636 85.408588 
L 214.591235 84.505885 
L 214.598894 83.603182 
L 214.582451 82.700479 
L 214.567958 81.797776 
L 214.57641 80.895073 
L 214.603544 79.99237 
L 214.627778 79.089667 
L 214.634102 78.186965 
L 214.626771 77.284262 
L 214.62153 76.381559 
L 214.628625 75.478856 
L 214.643938 74.576153 
L 214.655882 73.67345 
L 214.658122 72.770747 
L 214.654323 71.868044 
L 214.652576 70.965341 
L 214.656677 70.062638 
L 214.662908 69.159935 
L 214.664867 68.257232 
L 214.660545 67.354529 
L 214.654496 66.451827 
L 214.653274 65.549124 
L 214.658716 64.646421 
L 214.666401 63.743718 
L 214.670752 62.841015 
L 214.670391 61.938312 
L 214.668445 61.035609 
L 214.668704 60.132906 
L 214.671897 59.230203 
L 214.67562 58.3275 
L 214.677353 57.424797 
L 214.676881 56.522094 
L 214.676007 55.619392 
L 214.676498 54.716689 
L 214.678498 53.813986 
L 214.68085 52.911283 
L 214.682523 52.00858 
L 214.683334 51.105877 
L 214.683579 50.203174 
L 214.683468 49.300471 
L 214.682896 48.397768 
L 214.681545 47.495065 
L 214.67936 46.592362 
L 214.677101 45.689659 
L 214.676113 44.786957 
L 214.691326 44.786957 
L 214.691326 44.786957 
L 214.690338 45.689659 
L 214.688079 46.592362 
L 214.685894 47.495065 
L 214.684542 48.397768 
L 214.68397 49.300471 
L 214.68386 50.203174 
L 214.684104 51.105877 
L 214.684915 52.00858 
L 214.686589 52.911283 
L 214.688941 53.813986 
L 214.69094 54.716689 
L 214.691432 55.619392 
L 214.690558 56.522094 
L 214.690086 57.424797 
L 214.691819 58.3275 
L 214.695542 59.230203 
L 214.698735 60.132906 
L 214.698994 61.035609 
L 214.697048 61.938312 
L 214.696686 62.841015 
L 214.701038 63.743718 
L 214.708722 64.646421 
L 214.714164 65.549124 
L 214.712943 66.451827 
L 214.706894 67.354529 
L 214.702572 68.257232 
L 214.70453 69.159935 
L 214.710761 70.062638 
L 214.714863 70.965341 
L 214.713116 71.868044 
L 214.709317 72.770747 
L 214.711556 73.67345 
L 214.723501 74.576153 
L 214.738814 75.478856 
L 214.745909 76.381559 
L 214.740668 77.284262 
L 214.733337 78.186965 
L 214.739661 79.089667 
L 214.763894 79.99237 
L 214.791028 80.895073 
L 214.79948 81.797776 
L 214.784988 82.700479 
L 214.768544 83.603182 
L 214.776204 84.505885 
L 214.811078 85.408588 
L 214.846762 86.311291 
L 214.853099 87.213994 
L 214.831897 88.116697 
L 214.821451 89.0194 
L 214.859081 89.922102 
L 214.937289 90.824805 
L 215.000699 91.727508 
L 214.99913 92.630211 
L 214.947558 93.532914 
L 214.919401 94.435617 
L 214.97234 95.33832 
L 215.082842 96.241023 
L 215.160038 97.143726 
L 215.138892 98.046429 
L 215.059498 98.949132 
L 215.0348 99.851835 
L 215.133302 100.754537 
L 215.297594 101.65724 
L 215.389897 102.559943 
L 215.339749 103.462646 
L 215.240162 104.365349 
L 215.267296 105.268052 
L 215.493301 106.170755 
L 215.782267 107.073458 
L 215.901985 107.976161 
L 215.778641 108.878864 
L 215.615059 109.781567 
L 215.703841 110.68427 
L 216.111909 111.586972 
L 216.562265 112.489675 
L 216.686047 113.392378 
L 216.444946 114.295081 
L 216.243792 115.197784 
L 216.543185 116.100487 
L 217.343121 117.00319 
L 218.080591 117.905893 
L 218.162393 118.808596 
L 217.666486 119.711299 
L 217.37833 120.614002 
L 218.012917 121.516705 
L 219.396065 122.419408 
L 220.494044 123.32211 
L 220.481453 124.224813 
L 219.853498 125.127516 
L 220.205488 126.030219 
L 222.626545 126.932922 
L 226.201396 127.835625 
L 228.40464 128.738328 
L 227.611026 129.641031 
L 225.153583 130.543734 
L 224.227148 131.446437 
L 226.610134 132.34914 
L 230.625025 133.251843 
L 232.513295 134.154545 
z
" clip-path="url(#p22a0c61257)" style="fill: #1d9e75; fill-opacity: 0.7"/>
   </g>
   <g id="matplotlib.axis_1">
    <g id="xtick_1">
     <g id="line2d_1">
      <defs>
       <path id="m49939923d0" d="M 0 0 
L 0 3.5 
" style="stroke: #000000; stroke-width: 0.8"/>
      </defs>
      <g>
       <use xlink:href="#m49939923d0" x="61.858781" y="140.2" style="stroke: #000000; stroke-width: 0.8"/>
      </g>
     </g>
     <g id="text_1">
      <!-- original -->
      <g transform="translate(48.963156 152.92625) scale(0.08 -0.08)">
       <defs>
        <path id="ArialMT-6f" d="M 213 1659 
Q 213 2581 725 3025 
Q 1153 3394 1769 3394 
Q 2453 3394 2887 2945 
Q 3322 2497 3322 1706 
Q 3322 1066 3130 698 
Q 2938 331 2570 128 
Q 2203 -75 1769 -75 
Q 1072 -75 642 372 
Q 213 819 213 1659 
z
M 791 1659 
Q 791 1022 1069 705 
Q 1347 388 1769 388 
Q 2188 388 2466 706 
Q 2744 1025 2744 1678 
Q 2744 2294 2464 2611 
Q 2184 2928 1769 2928 
Q 1347 2928 1069 2612 
Q 791 2297 791 1659 
z
" transform="scale(0.015625)"/>
        <path id="ArialMT-72" d="M 416 0 
L 416 3319 
L 922 3319 
L 922 2816 
Q 1116 3169 1280 3281 
Q 1444 3394 1641 3394 
Q 1925 3394 2219 3213 
L 2025 2691 
Q 1819 2813 1613 2813 
Q 1428 2813 1281 2702 
Q 1134 2591 1072 2394 
Q 978 2094 978 1738 
L 978 0 
L 416 0 
z
" transform="scale(0.015625)"/>
        <path id="ArialMT-69" d="M 425 3934 
L 425 4581 
L 988 4581 
L 988 3934 
L 425 3934 
z
M 425 0 
L 425 3319 
L 988 3319 
L 988 0 
L 425 0 
z
" transform="scale(0.015625)"/>
        <path id="ArialMT-67" d="M 319 -275 
L 866 -356 
Q 900 -609 1056 -725 
Q 1266 -881 1628 -881 
Q 2019 -881 2231 -725 
Q 2444 -569 2519 -288 
Q 2563 -116 2559 434 
Q 2191 0 1641 0 
Q 956 0 581 494 
Q 206 988 206 1678 
Q 206 2153 378 2554 
Q 550 2956 876 3175 
Q 1203 3394 1644 3394 
Q 2231 3394 2613 2919 
L 2613 3319 
L 3131 3319 
L 3131 450 
Q 3131 -325 2973 -648 
Q 2816 -972 2473 -1159 
Q 2131 -1347 1631 -1347 
Q 1038 -1347 672 -1080 
Q 306 -813 319 -275 
z
M 784 1719 
Q 784 1066 1043 766 
Q 1303 466 1694 466 
Q 2081 466 2343 764 
Q 2606 1063 2606 1700 
Q 2606 2309 2336 2618 
Q 2066 2928 1684 2928 
Q 1309 2928 1046 2623 
Q 784 2319 784 1719 
z
" transform="scale(0.015625)"/>
        <path id="ArialMT-6e" d="M 422 0 
L 422 3319 
L 928 3319 
L 928 2847 
Q 1294 3394 1984 3394 
Q 2284 3394 2536 3286 
Q 2788 3178 2913 3003 
Q 3038 2828 3088 2588 
Q 3119 2431 3119 2041 
L 3119 0 
L 2556 0 
L 2556 2019 
Q 2556 2363 2490 2533 
Q 2425 2703 2258 2804 
Q 2091 2906 1866 2906 
Q 1506 2906 1245 2678 
Q 984 2450 984 1813 
L 984 0 
L 422 0 
z
" transform="scale(0.015625)"/>
        <path id="ArialMT-61" d="M 2588 409 
Q 2275 144 1986 34 
Q 1697 -75 1366 -75 
Q 819 -75 525 192 
Q 231 459 231 875 
Q 231 1119 342 1320 
Q 453 1522 633 1644 
Q 813 1766 1038 1828 
Q 1203 1872 1538 1913 
Q 2219 1994 2541 2106 
Q 2544 2222 2544 2253 
Q 2544 2597 2384 2738 
Q 2169 2928 1744 2928 
Q 1347 2928 1158 2789 
Q 969 2650 878 2297 
L 328 2372 
Q 403 2725 575 2942 
Q 747 3159 1072 3276 
Q 1397 3394 1825 3394 
Q 2250 3394 2515 3294 
Q 2781 3194 2906 3042 
Q 3031 2891 3081 2659 
Q 3109 2516 3109 2141 
L 3109 1391 
Q 3109 606 3145 398 
Q 3181 191 3288 0 
L 2700 0 
Q 2613 175 2588 409 
z
M 2541 1666 
Q 2234 1541 1622 1453 
Q 1275 1403 1131 1340 
Q 988 1278 909 1158 
Q 831 1038 831 891 
Q 831 666 1001 516 
Q 1172 366 1500 366 
Q 1825 366 2078 508 
Q 2331 650 2450 897 
Q 2541 1088 2541 1459 
L 2541 1666 
z
" transform="scale(0.015625)"/>
        <path id="ArialMT-6c" d="M 409 0 
L 409 4581 
L 972 4581 
L 972 0 
L 409 0 
z
" transform="scale(0.015625)"/>
       </defs>
       <use xlink:href="#ArialMT-6f"/>
       <use xlink:href="#ArialMT-72" transform="translate(55.615234 0)"/>
       <use xlink:href="#ArialMT-69" transform="translate(88.916016 0)"/>
       <use xlink:href="#ArialMT-67" transform="translate(111.132812 0)"/>
       <use xlink:href="#ArialMT-69" transform="translate(166.748047 0)"/>
       <use xlink:href="#ArialMT-6e" transform="translate(188.964844 0)"/>
       <use xlink:href="#ArialMT-61" transform="translate(244.580078 0)"/>
       <use xlink:href="#ArialMT-6c" transform="translate(300.195312 0)"/>
      </g>
     </g>
    </g>
    <g id="xtick_2">
     <g id="line2d_2">
      <g>
       <use xlink:href="#m49939923d0" x="112.800427" y="140.2" style="stroke: #000000; stroke-width: 0.8"/>
      </g>
     </g>
     <g id="text_2">
      <!-- s1 only -->
      <g transform="translate(100.127302 152.95) scale(0.08 -0.08)">
       <defs>
        <path id="ArialMT-73" d="M 197 991 
L 753 1078 
Q 800 744 1014 566 
Q 1228 388 1613 388 
Q 2000 388 2187 545 
Q 2375 703 2375 916 
Q 2375 1106 2209 1216 
Q 2094 1291 1634 1406 
Q 1016 1563 777 1677 
Q 538 1791 414 1992 
Q 291 2194 291 2438 
Q 291 2659 392 2848 
Q 494 3038 669 3163 
Q 800 3259 1026 3326 
Q 1253 3394 1513 3394 
Q 1903 3394 2198 3281 
Q 2494 3169 2634 2976 
Q 2775 2784 2828 2463 
L 2278 2388 
Q 2241 2644 2061 2787 
Q 1881 2931 1553 2931 
Q 1166 2931 1000 2803 
Q 834 2675 834 2503 
Q 834 2394 903 2306 
Q 972 2216 1119 2156 
Q 1203 2125 1616 2013 
Q 2213 1853 2448 1751 
Q 2684 1650 2818 1456 
Q 2953 1263 2953 975 
Q 2953 694 2789 445 
Q 2625 197 2315 61 
Q 2006 -75 1616 -75 
Q 969 -75 630 194 
Q 291 463 197 991 
z
" transform="scale(0.015625)"/>
        <path id="ArialMT-31" d="M 2384 0 
L 1822 0 
L 1822 3584 
Q 1619 3391 1289 3197 
Q 959 3003 697 2906 
L 697 3450 
Q 1169 3672 1522 3987 
Q 1875 4303 2022 4600 
L 2384 4600 
L 2384 0 
z
" transform="scale(0.015625)"/>
        <path id="ArialMT-20" transform="scale(0.015625)"/>
        <path id="ArialMT-79" d="M 397 -1278 
L 334 -750 
Q 519 -800 656 -800 
Q 844 -800 956 -737 
Q 1069 -675 1141 -563 
Q 1194 -478 1313 -144 
Q 1328 -97 1363 -6 
L 103 3319 
L 709 3319 
L 1400 1397 
Q 1534 1031 1641 628 
Q 1738 1016 1872 1384 
L 2581 3319 
L 3144 3319 
L 1881 -56 
Q 1678 -603 1566 -809 
Q 1416 -1088 1222 -1217 
Q 1028 -1347 759 -1347 
Q 597 -1347 397 -1278 
z
" transform="scale(0.015625)"/>
       </defs>
       <use xlink:href="#ArialMT-73"/>
       <use xlink:href="#ArialMT-31" transform="translate(50 0)"/>
       <use xlink:href="#ArialMT-20" transform="translate(105.615234 0)"/>
       <use xlink:href="#ArialMT-6f" transform="translate(133.398438 0)"/>
       <use xlink:href="#ArialMT-6e" transform="translate(189.013672 0)"/>
       <use xlink:href="#ArialMT-6c" transform="translate(244.628906 0)"/>
       <use xlink:href="#ArialMT-79" transform="translate(266.845703 0)"/>
      </g>
     </g>
    </g>
    <g id="xtick_3">
     <g id="line2d_3">
      <g>
       <use xlink:href="#m49939923d0" x="163.742073" y="140.2" style="stroke: #000000; stroke-width: 0.8"/>
      </g>
     </g>
     <g id="text_3">
      <!-- switch -->
      <g transform="translate(152.628948 152.92625) scale(0.08 -0.08)">
       <defs>
        <path id="ArialMT-77" d="M 1034 0 
L 19 3319 
L 600 3319 
L 1128 1403 
L 1325 691 
Q 1338 744 1497 1375 
L 2025 3319 
L 2603 3319 
L 3100 1394 
L 3266 759 
L 3456 1400 
L 4025 3319 
L 4572 3319 
L 3534 0 
L 2950 0 
L 2422 1988 
L 2294 2553 
L 1622 0 
L 1034 0 
z
" transform="scale(0.015625)"/>
        <path id="ArialMT-74" d="M 1650 503 
L 1731 6 
Q 1494 -44 1306 -44 
Q 1000 -44 831 53 
Q 663 150 594 308 
Q 525 466 525 972 
L 525 2881 
L 113 2881 
L 113 3319 
L 525 3319 
L 525 4141 
L 1084 4478 
L 1084 3319 
L 1650 3319 
L 1650 2881 
L 1084 2881 
L 1084 941 
Q 1084 700 1114 631 
Q 1144 563 1211 522 
Q 1278 481 1403 481 
Q 1497 481 1650 503 
z
" transform="scale(0.015625)"/>
        <path id="ArialMT-63" d="M 2588 1216 
L 3141 1144 
Q 3050 572 2676 248 
Q 2303 -75 1759 -75 
Q 1078 -75 664 370 
Q 250 816 250 1647 
Q 250 2184 428 2587 
Q 606 2991 970 3192 
Q 1334 3394 1763 3394 
Q 2303 3394 2647 3120 
Q 2991 2847 3088 2344 
L 2541 2259 
Q 2463 2594 2264 2762 
Q 2066 2931 1784 2931 
Q 1359 2931 1093 2626 
Q 828 2322 828 1663 
Q 828 994 1084 691 
Q 1341 388 1753 388 
Q 2084 388 2306 591 
Q 2528 794 2588 1216 
z
" transform="scale(0.015625)"/>
        <path id="ArialMT-68" d="M 422 0 
L 422 4581 
L 984 4581 
L 984 2938 
Q 1378 3394 1978 3394 
Q 2347 3394 2619 3248 
Q 2891 3103 3008 2847 
Q 3125 2591 3125 2103 
L 3125 0 
L 2563 0 
L 2563 2103 
Q 2563 2525 2380 2717 
Q 2197 2909 1863 2909 
Q 1613 2909 1392 2779 
Q 1172 2650 1078 2428 
Q 984 2206 984 1816 
L 984 0 
L 422 0 
z
" transform="scale(0.015625)"/>
       </defs>
       <use xlink:href="#ArialMT-73"/>
       <use xlink:href="#ArialMT-77" transform="translate(50 0)"/>
       <use xlink:href="#ArialMT-69" transform="translate(122.216797 0)"/>
       <use xlink:href="#ArialMT-74" transform="translate(144.433594 0)"/>
       <use xlink:href="#ArialMT-63" transform="translate(172.216797 0)"/>
       <use xlink:href="#ArialMT-68" transform="translate(222.216797 0)"/>
      </g>
     </g>
    </g>
    <g id="xtick_4">
     <g id="line2d_4">
      <g>
       <use xlink:href="#m49939923d0" x="214.683719" y="140.2" style="stroke: #000000; stroke-width: 0.8"/>
      </g>
     </g>
     <g id="text_4">
      <!-- blend -->
      <g transform="translate(204.897469 152.92625) scale(0.08 -0.08)">
       <defs>
        <path id="ArialMT-62" d="M 941 0 
L 419 0 
L 419 4581 
L 981 4581 
L 981 2947 
Q 1338 3394 1891 3394 
Q 2197 3394 2470 3270 
Q 2744 3147 2920 2923 
Q 3097 2700 3197 2384 
Q 3297 2069 3297 1709 
Q 3297 856 2875 390 
Q 2453 -75 1863 -75 
Q 1275 -75 941 416 
L 941 0 
z
M 934 1684 
Q 934 1088 1097 822 
Q 1363 388 1816 388 
Q 2184 388 2453 708 
Q 2722 1028 2722 1663 
Q 2722 2313 2464 2622 
Q 2206 2931 1841 2931 
Q 1472 2931 1203 2611 
Q 934 2291 934 1684 
z
" transform="scale(0.015625)"/>
        <path id="ArialMT-65" d="M 2694 1069 
L 3275 997 
Q 3138 488 2766 206 
Q 2394 -75 1816 -75 
Q 1088 -75 661 373 
Q 234 822 234 1631 
Q 234 2469 665 2931 
Q 1097 3394 1784 3394 
Q 2450 3394 2872 2941 
Q 3294 2488 3294 1666 
Q 3294 1616 3291 1516 
L 816 1516 
Q 847 969 1125 678 
Q 1403 388 1819 388 
Q 2128 388 2347 550 
Q 2566 713 2694 1069 
z
M 847 1978 
L 2700 1978 
Q 2663 2397 2488 2606 
Q 2219 2931 1791 2931 
Q 1403 2931 1139 2672 
Q 875 2413 847 1978 
z
" transform="scale(0.015625)"/>
        <path id="ArialMT-64" d="M 2575 0 
L 2575 419 
Q 2259 -75 1647 -75 
Q 1250 -75 917 144 
Q 584 363 401 755 
Q 219 1147 219 1656 
Q 219 2153 384 2558 
Q 550 2963 881 3178 
Q 1213 3394 1622 3394 
Q 1922 3394 2156 3267 
Q 2391 3141 2538 2938 
L 2538 4581 
L 3097 4581 
L 3097 0 
L 2575 0 
z
M 797 1656 
Q 797 1019 1065 703 
Q 1334 388 1700 388 
Q 2069 388 2326 689 
Q 2584 991 2584 1609 
Q 2584 2291 2321 2609 
Q 2059 2928 1675 2928 
Q 1300 2928 1048 2622 
Q 797 2316 797 1656 
z
" transform="scale(0.015625)"/>
       </defs>
       <use xlink:href="#ArialMT-62"/>
       <use xlink:href="#ArialMT-6c" transform="translate(55.615234 0)"/>
       <use xlink:href="#ArialMT-65" transform="translate(77.832031 0)"/>
       <use xlink:href="#ArialMT-6e" transform="translate(133.447266 0)"/>
       <use xlink:href="#ArialMT-64" transform="translate(189.0625 0)"/>
      </g>
     </g>
    </g>
    <g id="text_5">
     <!-- Decision mode -->
     <g transform="translate(111.815625 164.36) scale(0.08 -0.08)">
      <defs>
       <path id="ArialMT-44" d="M 494 0 
L 494 4581 
L 2072 4581 
Q 2606 4581 2888 4516 
Q 3281 4425 3559 4188 
Q 3922 3881 4101 3404 
Q 4281 2928 4281 2316 
Q 4281 1794 4159 1391 
Q 4038 988 3847 723 
Q 3656 459 3429 307 
Q 3203 156 2883 78 
Q 2563 0 2147 0 
L 494 0 
z
M 1100 541 
L 2078 541 
Q 2531 541 2789 625 
Q 3047 709 3200 863 
Q 3416 1078 3536 1442 
Q 3656 1806 3656 2325 
Q 3656 3044 3420 3430 
Q 3184 3816 2847 3947 
Q 2603 4041 2063 4041 
L 1100 4041 
L 1100 541 
z
" transform="scale(0.015625)"/>
       <path id="ArialMT-6d" d="M 422 0 
L 422 3319 
L 925 3319 
L 925 2853 
Q 1081 3097 1340 3245 
Q 1600 3394 1931 3394 
Q 2300 3394 2536 3241 
Q 2772 3088 2869 2813 
Q 3263 3394 3894 3394 
Q 4388 3394 4653 3120 
Q 4919 2847 4919 2278 
L 4919 0 
L 4359 0 
L 4359 2091 
Q 4359 2428 4304 2576 
Q 4250 2725 4106 2815 
Q 3963 2906 3769 2906 
Q 3419 2906 3187 2673 
Q 2956 2441 2956 1928 
L 2956 0 
L 2394 0 
L 2394 2156 
Q 2394 2531 2256 2718 
Q 2119 2906 1806 2906 
Q 1569 2906 1367 2781 
Q 1166 2656 1075 2415 
Q 984 2175 984 1722 
L 984 0 
L 422 0 
z
" transform="scale(0.015625)"/>
      </defs>
      <use xlink:href="#ArialMT-44"/>
      <use xlink:href="#ArialMT-65" transform="translate(72.216797 0)"/>
      <use xlink:href="#ArialMT-63" transform="translate(127.832031 0)"/>
      <use xlink:href="#ArialMT-69" transform="translate(177.832031 0)"/>
      <use xlink:href="#ArialMT-73" transform="translate(200.048828 0)"/>
      <use xlink:href="#ArialMT-69" transform="translate(250.048828 0)"/>
      <use xlink:href="#ArialMT-6f" transform="translate(272.265625 0)"/>
      <use xlink:href="#ArialMT-6e" transform="translate(327.880859 0)"/>
      <use xlink:href="#ArialMT-20" transform="translate(383.496094 0)"/>
      <use xlink:href="#ArialMT-6d" transform="translate(411.279297 0)"/>
      <use xlink:href="#ArialMT-6f" transform="translate(494.580078 0)"/>
      <use xlink:href="#ArialMT-64" transform="translate(550.195312 0)"/>
      <use xlink:href="#ArialMT-65" transform="translate(605.810547 0)"/>
     </g>
    </g>
   </g>
   <g id="matplotlib.axis_2">
    <g id="ytick_1">
     <g id="line2d_5">
      <path d="M 34.605 134.154545 
L 241.9375 134.154545 
" clip-path="url(#p22a0c61257)" style="fill: none; stroke: #b0b0b0; stroke-opacity: 0.3; stroke-width: 0.8; stroke-linecap: square"/>
     </g>
     <g id="line2d_6">
      <defs>
       <path id="m77508af2be" d="M 0 0 
L -3.5 0 
" style="stroke: #000000; stroke-width: 0.8"/>
      </defs>
      <g>
       <use xlink:href="#m77508af2be" x="34.605" y="134.154545" style="stroke: #000000; stroke-width: 0.8"/>
      </g>
     </g>
     <g id="text_6">
      <!-- 0 -->
      <g transform="translate(23.15625 137.01767) scale(0.08 -0.08)">
       <defs>
        <path id="ArialMT-30" d="M 266 2259 
Q 266 3072 433 3567 
Q 600 4063 929 4331 
Q 1259 4600 1759 4600 
Q 2128 4600 2406 4451 
Q 2684 4303 2865 4023 
Q 3047 3744 3150 3342 
Q 3253 2941 3253 2259 
Q 3253 1453 3087 958 
Q 2922 463 2592 192 
Q 2263 -78 1759 -78 
Q 1097 -78 719 397 
Q 266 969 266 2259 
z
M 844 2259 
Q 844 1131 1108 757 
Q 1372 384 1759 384 
Q 2147 384 2411 759 
Q 2675 1134 2675 2259 
Q 2675 3391 2411 3762 
Q 2147 4134 1753 4134 
Q 1366 4134 1134 3806 
Q 844 3388 844 2259 
z
" transform="scale(0.015625)"/>
       </defs>
       <use xlink:href="#ArialMT-30"/>
      </g>
     </g>
    </g>
    <g id="ytick_2">
     <g id="line2d_7">
      <path d="M 34.605 107.86996 
L 241.9375 107.86996 
" clip-path="url(#p22a0c61257)" style="fill: none; stroke: #b0b0b0; stroke-opacity: 0.3; stroke-width: 0.8; stroke-linecap: square"/>
     </g>
     <g id="line2d_8">
      <g>
       <use xlink:href="#m77508af2be" x="34.605" y="107.86996" style="stroke: #000000; stroke-width: 0.8"/>
      </g>
     </g>
     <g id="text_7">
      <!-- 5 -->
      <g transform="translate(23.15625 110.733085) scale(0.08 -0.08)">
       <defs>
        <path id="ArialMT-35" d="M 266 1200 
L 856 1250 
Q 922 819 1161 601 
Q 1400 384 1738 384 
Q 2144 384 2425 690 
Q 2706 997 2706 1503 
Q 2706 1984 2436 2262 
Q 2166 2541 1728 2541 
Q 1456 2541 1237 2417 
Q 1019 2294 894 2097 
L 366 2166 
L 809 4519 
L 3088 4519 
L 3088 3981 
L 1259 3981 
L 1013 2750 
Q 1425 3038 1878 3038 
Q 2478 3038 2890 2622 
Q 3303 2206 3303 1553 
Q 3303 931 2941 478 
Q 2500 -78 1738 -78 
Q 1113 -78 717 272 
Q 322 622 266 1200 
z
" transform="scale(0.015625)"/>
       </defs>
       <use xlink:href="#ArialMT-35"/>
      </g>
     </g>
    </g>
    <g id="ytick_3">
     <g id="line2d_9">
      <path d="M 34.605 81.585375 
L 241.9375 81.585375 
" clip-path="url(#p22a0c61257)" style="fill: none; stroke: #b0b0b0; stroke-opacity: 0.3; stroke-width: 0.8; stroke-linecap: square"/>
     </g>
     <g id="line2d_10">
      <g>
       <use xlink:href="#m77508af2be" x="34.605" y="81.585375" style="stroke: #000000; stroke-width: 0.8"/>
      </g>
     </g>
     <g id="text_8">
      <!-- 10 -->
      <g transform="translate(18.7075 84.4485) scale(0.08 -0.08)">
       <use xlink:href="#ArialMT-31"/>
       <use xlink:href="#ArialMT-30" transform="translate(55.615234 0)"/>
      </g>
     </g>
    </g>
    <g id="ytick_4">
     <g id="line2d_11">
      <path d="M 34.605 55.300791 
L 241.9375 55.300791 
" clip-path="url(#p22a0c61257)" style="fill: none; stroke: #b0b0b0; stroke-opacity: 0.3; stroke-width: 0.8; stroke-linecap: square"/>
     </g>
     <g id="line2d_12">
      <g>
       <use xlink:href="#m77508af2be" x="34.605" y="55.300791" style="stroke: #000000; stroke-width: 0.8"/>
      </g>
     </g>
     <g id="text_9">
      <!-- 15 -->
      <g transform="translate(18.7075 58.163916) scale(0.08 -0.08)">
       <use xlink:href="#ArialMT-31"/>
       <use xlink:href="#ArialMT-35" transform="translate(55.615234 0)"/>
      </g>
     </g>
    </g>
    <g id="ytick_5">
     <g id="line2d_13">
      <path d="M 34.605 29.016206 
L 241.9375 29.016206 
" clip-path="url(#p22a0c61257)" style="fill: none; stroke: #b0b0b0; stroke-opacity: 0.3; stroke-width: 0.8; stroke-linecap: square"/>
     </g>
     <g id="line2d_14">
      <g>
       <use xlink:href="#m77508af2be" x="34.605" y="29.016206" style="stroke: #000000; stroke-width: 0.8"/>
      </g>
     </g>
     <g id="text_10">
      <!-- 20 -->
      <g transform="translate(18.7075 31.879331) scale(0.08 -0.08)">
       <defs>
        <path id="ArialMT-32" d="M 3222 541 
L 3222 0 
L 194 0 
Q 188 203 259 391 
Q 375 700 629 1000 
Q 884 1300 1366 1694 
Q 2113 2306 2375 2664 
Q 2638 3022 2638 3341 
Q 2638 3675 2398 3904 
Q 2159 4134 1775 4134 
Q 1369 4134 1125 3890 
Q 881 3647 878 3216 
L 300 3275 
Q 359 3922 746 4261 
Q 1134 4600 1788 4600 
Q 2447 4600 2831 4234 
Q 3216 3869 3216 3328 
Q 3216 3053 3103 2787 
Q 2991 2522 2730 2228 
Q 2469 1934 1863 1422 
Q 1356 997 1212 845 
Q 1069 694 975 541 
L 3222 541 
z
" transform="scale(0.015625)"/>
       </defs>
       <use xlink:href="#ArialMT-32"/>
       <use xlink:href="#ArialMT-30" transform="translate(55.615234 0)"/>
      </g>
     </g>
    </g>
    <g id="text_11">
     <!-- First-departure timestep (hours) -->
     <g transform="translate(13.02375 129.935625) rotate(-90) scale(0.08 -0.08)">
      <defs>
       <path id="ArialMT-46" d="M 525 0 
L 525 4581 
L 3616 4581 
L 3616 4041 
L 1131 4041 
L 1131 2622 
L 3281 2622 
L 3281 2081 
L 1131 2081 
L 1131 0 
L 525 0 
z
" transform="scale(0.015625)"/>
       <path id="ArialMT-2d" d="M 203 1375 
L 203 1941 
L 1931 1941 
L 1931 1375 
L 203 1375 
z
" transform="scale(0.015625)"/>
       <path id="ArialMT-70" d="M 422 -1272 
L 422 3319 
L 934 3319 
L 934 2888 
Q 1116 3141 1344 3267 
Q 1572 3394 1897 3394 
Q 2322 3394 2647 3175 
Q 2972 2956 3137 2557 
Q 3303 2159 3303 1684 
Q 3303 1175 3120 767 
Q 2938 359 2589 142 
Q 2241 -75 1856 -75 
Q 1575 -75 1351 44 
Q 1128 163 984 344 
L 984 -1272 
L 422 -1272 
z
M 931 1641 
Q 931 1000 1190 694 
Q 1450 388 1819 388 
Q 2194 388 2461 705 
Q 2728 1022 2728 1688 
Q 2728 2322 2467 2637 
Q 2206 2953 1844 2953 
Q 1484 2953 1207 2617 
Q 931 2281 931 1641 
z
" transform="scale(0.015625)"/>
       <path id="ArialMT-75" d="M 2597 0 
L 2597 488 
Q 2209 -75 1544 -75 
Q 1250 -75 995 37 
Q 741 150 617 320 
Q 494 491 444 738 
Q 409 903 409 1263 
L 409 3319 
L 972 3319 
L 972 1478 
Q 972 1038 1006 884 
Q 1059 663 1231 536 
Q 1403 409 1656 409 
Q 1909 409 2131 539 
Q 2353 669 2445 892 
Q 2538 1116 2538 1541 
L 2538 3319 
L 3100 3319 
L 3100 0 
L 2597 0 
z
" transform="scale(0.015625)"/>
       <path id="ArialMT-28" d="M 1497 -1347 
Q 1031 -759 709 28 
Q 388 816 388 1659 
Q 388 2403 628 3084 
Q 909 3875 1497 4659 
L 1900 4659 
Q 1522 4009 1400 3731 
Q 1209 3300 1100 2831 
Q 966 2247 966 1656 
Q 966 153 1900 -1347 
L 1497 -1347 
z
" transform="scale(0.015625)"/>
       <path id="ArialMT-29" d="M 791 -1347 
L 388 -1347 
Q 1322 153 1322 1656 
Q 1322 2244 1188 2822 
Q 1081 3291 891 3722 
Q 769 4003 388 4659 
L 791 4659 
Q 1378 3875 1659 3084 
Q 1900 2403 1900 1659 
Q 1900 816 1576 28 
Q 1253 -759 791 -1347 
z
" transform="scale(0.015625)"/>
      </defs>
      <use xlink:href="#ArialMT-46"/>
      <use xlink:href="#ArialMT-69" transform="translate(61.083984 0)"/>
      <use xlink:href="#ArialMT-72" transform="translate(83.300781 0)"/>
      <use xlink:href="#ArialMT-73" transform="translate(116.601562 0)"/>
      <use xlink:href="#ArialMT-74" transform="translate(166.601562 0)"/>
      <use xlink:href="#ArialMT-2d" transform="translate(194.384766 0)"/>
      <use xlink:href="#ArialMT-64" transform="translate(227.685547 0)"/>
      <use xlink:href="#ArialMT-65" transform="translate(283.300781 0)"/>
      <use xlink:href="#ArialMT-70" transform="translate(338.916016 0)"/>
      <use xlink:href="#ArialMT-61" transform="translate(394.53125 0)"/>
      <use xlink:href="#ArialMT-72" transform="translate(450.146484 0)"/>
      <use xlink:href="#ArialMT-74" transform="translate(483.447266 0)"/>
      <use xlink:href="#ArialMT-75" transform="translate(511.230469 0)"/>
      <use xlink:href="#ArialMT-72" transform="translate(566.845703 0)"/>
      <use xlink:href="#ArialMT-65" transform="translate(600.146484 0)"/>
      <use xlink:href="#ArialMT-20" transform="translate(655.761719 0)"/>
      <use xlink:href="#ArialMT-74" transform="translate(683.544922 0)"/>
      <use xlink:href="#ArialMT-69" transform="translate(711.328125 0)"/>
      <use xlink:href="#ArialMT-6d" transform="translate(733.544922 0)"/>
      <use xlink:href="#ArialMT-65" transform="translate(816.845703 0)"/>
      <use xlink:href="#ArialMT-73" transform="translate(872.460938 0)"/>
      <use xlink:href="#ArialMT-74" transform="translate(922.460938 0)"/>
      <use xlink:href="#ArialMT-65" transform="translate(950.244141 0)"/>
      <use xlink:href="#ArialMT-70" transform="translate(1005.859375 0)"/>
      <use xlink:href="#ArialMT-20" transform="translate(1061.474609 0)"/>
      <use xlink:href="#ArialMT-28" transform="translate(1089.257812 0)"/>
      <use xlink:href="#ArialMT-68" transform="translate(1122.558594 0)"/>
      <use xlink:href="#ArialMT-6f" transform="translate(1178.173828 0)"/>
      <use xlink:href="#ArialMT-75" transform="translate(1233.789062 0)"/>
      <use xlink:href="#ArialMT-72" transform="translate(1289.404297 0)"/>
      <use xlink:href="#ArialMT-73" transform="translate(1322.705078 0)"/>
      <use xlink:href="#ArialMT-29" transform="translate(1372.705078 0)"/>
     </g>
    </g>
   </g>
   <g id="LineCollection_1">
    <path d="M 52.943993 123.044928 
L 70.773569 123.044928 
" clip-path="url(#p22a0c61257)" style="fill: none; stroke: #1f77b4; stroke-width: 1.5"/>
   </g>
   <g id="LineCollection_2">
    <path d="M 52.943993 13.245455 
L 70.773569 13.245455 
" clip-path="url(#p22a0c61257)" style="fill: none; stroke: #1f77b4; stroke-width: 1.5"/>
   </g>
   <g id="LineCollection_3">
    <path d="M 52.943993 134.154545 
L 70.773569 134.154545 
" clip-path="url(#p22a0c61257)" style="fill: none; stroke: #1f77b4; stroke-width: 1.5"/>
   </g>
   <g id="LineCollection_4">
    <path d="M 61.858781 134.154545 
L 61.858781 13.245455 
" clip-path="url(#p22a0c61257)" style="fill: none; stroke: #1f77b4; stroke-width: 1.5"/>
   </g>
   <g id="LineCollection_5">
    <path d="M 52.943993 128.897628 
L 70.773569 128.897628 
" clip-path="url(#p22a0c61257)" style="fill: none; stroke: #1f77b4; stroke-width: 1.5"/>
   </g>
   <g id="LineCollection_6">
    <path d="M 103.885639 123.044928 
L 121.715215 123.044928 
" clip-path="url(#p22a0c61257)" style="fill: none; stroke: #ff7f0e; stroke-width: 1.5"/>
   </g>
   <g id="LineCollection_7">
    <path d="M 103.885639 13.245455 
L 121.715215 13.245455 
" clip-path="url(#p22a0c61257)" style="fill: none; stroke: #ff7f0e; stroke-width: 1.5"/>
   </g>
   <g id="LineCollection_8">
    <path d="M 103.885639 134.154545 
L 121.715215 134.154545 
" clip-path="url(#p22a0c61257)" style="fill: none; stroke: #ff7f0e; stroke-width: 1.5"/>
   </g>
   <g id="LineCollection_9">
    <path d="M 112.800427 134.154545 
L 112.800427 13.245455 
" clip-path="url(#p22a0c61257)" style="fill: none; stroke: #ff7f0e; stroke-width: 1.5"/>
   </g>
   <g id="LineCollection_10">
    <path d="M 103.885639 128.897628 
L 121.715215 128.897628 
" clip-path="url(#p22a0c61257)" style="fill: none; stroke: #ff7f0e; stroke-width: 1.5"/>
   </g>
   <g id="LineCollection_11">
    <path d="M 154.827285 125.937984 
L 172.656861 125.937984 
" clip-path="url(#p22a0c61257)" style="fill: none; stroke: #2ca02c; stroke-width: 1.5"/>
   </g>
   <g id="LineCollection_12">
    <path d="M 154.827285 18.502372 
L 172.656861 18.502372 
" clip-path="url(#p22a0c61257)" style="fill: none; stroke: #2ca02c; stroke-width: 1.5"/>
   </g>
   <g id="LineCollection_13">
    <path d="M 154.827285 134.154545 
L 172.656861 134.154545 
" clip-path="url(#p22a0c61257)" style="fill: none; stroke: #2ca02c; stroke-width: 1.5"/>
   </g>
   <g id="LineCollection_14">
    <path d="M 163.742073 134.154545 
L 163.742073 18.502372 
" clip-path="url(#p22a0c61257)" style="fill: none; stroke: #2ca02c; stroke-width: 1.5"/>
   </g>
   <g id="LineCollection_15">
    <path d="M 154.827285 128.897628 
L 172.656861 128.897628 
" clip-path="url(#p22a0c61257)" style="fill: none; stroke: #2ca02c; stroke-width: 1.5"/>
   </g>
   <g id="LineCollection_16">
    <path d="M 205.768931 126.7861 
L 223.598507 126.7861 
" clip-path="url(#p22a0c61257)" style="fill: none; stroke: #d62728; stroke-width: 1.5"/>
   </g>
   <g id="LineCollection_17">
    <path d="M 205.768931 44.786957 
L 223.598507 44.786957 
" clip-path="url(#p22a0c61257)" style="fill: none; stroke: #d62728; stroke-width: 1.5"/>
   </g>
   <g id="LineCollection_18">
    <path d="M 205.768931 134.154545 
L 223.598507 134.154545 
" clip-path="url(#p22a0c61257)" style="fill: none; stroke: #d62728; stroke-width: 1.5"/>
   </g>
   <g id="LineCollection_19">
    <path d="M 214.683719 134.154545 
L 214.683719 44.786957 
" clip-path="url(#p22a0c61257)" style="fill: none; stroke: #d62728; stroke-width: 1.5"/>
   </g>
   <g id="LineCollection_20">
    <path d="M 205.768931 128.897628 
L 223.598507 128.897628 
" clip-path="url(#p22a0c61257)" style="fill: none; stroke: #d62728; stroke-width: 1.5"/>
   </g>
   <g id="patch_3">
    <path d="M 34.605 140.2 
L 34.605 7.2 
" style="fill: none; stroke: #000000; stroke-width: 0.5; stroke-linejoin: miter; stroke-linecap: square"/>
   </g>
   <g id="patch_4">
    <path d="M 34.605 140.2 
L 241.9375 140.2 
" style="fill: none; stroke: #000000; stroke-width: 0.5; stroke-linejoin: miter; stroke-linecap: square"/>
   </g>
   <g id="text_12">
    <g id="patch_5">
     <path d="M 165.7421 23.658125 
L 237.79085 23.658125 
Q 239.59085 23.658125 239.59085 21.858125 
L 239.59085 9.930312 
Q 239.59085 8.130312 237.79085 8.130312 
L 165.7421 8.130312 
Q 163.9421 8.130312 163.9421 9.930312 
L 163.9421 21.858125 
Q 163.9421 23.658125 165.7421 23.658125 
z
" style="fill: #ffffff; opacity: 0.9; stroke: #808080; stroke-linejoin: miter"/>
    </g>
    <!-- α=2.0, β=2.0, κ=5.0 -->
    <g transform="translate(185.670538 14.227812) scale(0.06 -0.06)">
     <defs>
      <path id="ArialMT-3b1" d="M 2884 3319 
L 3459 3319 
Q 3241 2631 3056 1659 
Q 3275 453 3459 0 
L 2900 0 
Q 2766 313 2697 606 
Q 2438 -75 1613 -75 
Q 988 -75 606 394 
Q 225 863 225 1666 
Q 225 2491 608 2942 
Q 991 3394 1622 3394 
Q 2013 3394 2259 3236 
Q 2506 3078 2719 2756 
Q 2741 2866 2884 3319 
z
M 1716 2928 
Q 1313 2928 1078 2603 
Q 844 2278 844 1666 
Q 844 1069 1066 728 
Q 1288 388 1684 388 
Q 2072 388 2331 723 
Q 2591 1059 2591 1691 
Q 2591 2303 2348 2615 
Q 2106 2928 1716 2928 
z
" transform="scale(0.015625)"/>
      <path id="ArialMT-3d" d="M 3381 2694 
L 356 2694 
L 356 3219 
L 3381 3219 
L 3381 2694 
z
M 3381 1303 
L 356 1303 
L 356 1828 
L 3381 1828 
L 3381 1303 
z
" transform="scale(0.015625)"/>
      <path id="ArialMT-2e" d="M 581 0 
L 581 641 
L 1222 641 
L 1222 0 
L 581 0 
z
" transform="scale(0.015625)"/>
      <path id="ArialMT-2c" d="M 569 0 
L 569 641 
L 1209 641 
L 1209 0 
Q 1209 -353 1084 -570 
Q 959 -788 688 -906 
L 531 -666 
Q 709 -588 793 -436 
Q 878 -284 888 0 
L 569 0 
z
" transform="scale(0.015625)"/>
      <path id="ArialMT-3b2" d="M 997 422 
L 997 -1272 
L 438 -1272 
L 438 3144 
Q 438 3672 580 3970 
Q 722 4269 1069 4464 
Q 1416 4659 1841 4659 
Q 2469 4659 2792 4298 
Q 3116 3938 3116 3509 
Q 3116 3091 2855 2834 
Q 2594 2578 2256 2519 
Q 2800 2466 3095 2128 
Q 3391 1791 3391 1297 
Q 3391 766 3042 345 
Q 2694 -75 2034 -75 
Q 1359 -75 997 422 
z
M 1494 2700 
Q 2069 2700 2331 2900 
Q 2594 3100 2594 3478 
Q 2594 3784 2370 3990 
Q 2147 4197 1813 4197 
Q 1522 4197 1308 4044 
Q 1094 3891 1045 3703 
Q 997 3516 997 3047 
L 997 1788 
Q 997 1250 1072 997 
Q 1147 744 1394 541 
Q 1641 338 1963 338 
Q 2353 338 2579 605 
Q 2806 872 2806 1266 
Q 2806 1591 2639 1848 
Q 2472 2106 2226 2198 
Q 1981 2291 1575 2291 
L 1494 2291 
L 1494 2700 
z
" transform="scale(0.015625)"/>
      <path id="ArialMT-3ba" d="M 419 3319 
L 978 3319 
L 978 2016 
L 2325 3319 
L 3069 3319 
L 1584 1941 
L 3197 0 
L 2478 0 
L 1184 1563 
L 978 1372 
L 978 0 
L 419 0 
L 419 3319 
z
" transform="scale(0.015625)"/>
     </defs>
     <use xlink:href="#ArialMT-3b1"/>
     <use xlink:href="#ArialMT-3d" transform="translate(57.8125 0)"/>
     <use xlink:href="#ArialMT-32" transform="translate(116.210938 0)"/>
     <use xlink:href="#ArialMT-2e" transform="translate(171.826172 0)"/>
     <use xlink:href="#ArialMT-30" transform="translate(199.609375 0)"/>
     <use xlink:href="#ArialMT-2c" transform="translate(255.224609 0)"/>
     <use xlink:href="#ArialMT-20" transform="translate(283.007812 0)"/>
     <use xlink:href="#ArialMT-3b2" transform="translate(310.791016 0)"/>
     <use xlink:href="#ArialMT-3d" transform="translate(368.310547 0)"/>
     <use xlink:href="#ArialMT-32" transform="translate(426.708984 0)"/>
     <use xlink:href="#ArialMT-2e" transform="translate(482.324219 0)"/>
     <use xlink:href="#ArialMT-30" transform="translate(510.107422 0)"/>
     <use xlink:href="#ArialMT-2c" transform="translate(565.722656 0)"/>
     <use xlink:href="#ArialMT-20" transform="translate(593.505859 0)"/>
     <use xlink:href="#ArialMT-3ba" transform="translate(621.289062 0)"/>
     <use xlink:href="#ArialMT-3d" transform="translate(671.289062 0)"/>
     <use xlink:href="#ArialMT-35" transform="translate(729.6875 0)"/>
     <use xlink:href="#ArialMT-2e" transform="translate(785.302734 0)"/>
     <use xlink:href="#ArialMT-30" transform="translate(813.085938 0)"/>
    </g>
    <!-- N_agents=500, N_runs=10 -->
    <g transform="translate(165.7421 20.595312) scale(0.06 -0.06)">
     <defs>
      <path id="ArialMT-4e" d="M 488 0 
L 488 4581 
L 1109 4581 
L 3516 984 
L 3516 4581 
L 4097 4581 
L 4097 0 
L 3475 0 
L 1069 3600 
L 1069 0 
L 488 0 
z
" transform="scale(0.015625)"/>
      <path id="ArialMT-5f" d="M -97 -1272 
L -97 -866 
L 3631 -866 
L 3631 -1272 
L -97 -1272 
z
" transform="scale(0.015625)"/>
     </defs>
     <use xlink:href="#ArialMT-4e"/>
     <use xlink:href="#ArialMT-5f" transform="translate(72.216797 0)"/>
     <use xlink:href="#ArialMT-61" transform="translate(127.832031 0)"/>
     <use xlink:href="#ArialMT-67" transform="translate(183.447266 0)"/>
     <use xlink:href="#ArialMT-65" transform="translate(239.0625 0)"/>
     <use xlink:href="#ArialMT-6e" transform="translate(294.677734 0)"/>
     <use xlink:href="#ArialMT-74" transform="translate(350.292969 0)"/>
     <use xlink:href="#ArialMT-73" transform="translate(378.076172 0)"/>
     <use xlink:href="#ArialMT-3d" transform="translate(428.076172 0)"/>
     <use xlink:href="#ArialMT-35" transform="translate(486.474609 0)"/>
     <use xlink:href="#ArialMT-30" transform="translate(542.089844 0)"/>
     <use xlink:href="#ArialMT-30" transform="translate(597.705078 0)"/>
     <use xlink:href="#ArialMT-2c" transform="translate(653.320312 0)"/>
     <use xlink:href="#ArialMT-20" transform="translate(681.103516 0)"/>
     <use xlink:href="#ArialMT-4e" transform="translate(708.886719 0)"/>
     <use xlink:href="#ArialMT-5f" transform="translate(781.103516 0)"/>
     <use xlink:href="#ArialMT-72" transform="translate(836.71875 0)"/>
     <use xlink:href="#ArialMT-75" transform="translate(870.019531 0)"/>
     <use xlink:href="#ArialMT-6e" transform="translate(925.634766 0)"/>
     <use xlink:href="#ArialMT-73" transform="translate(981.25 0)"/>
     <use xlink:href="#ArialMT-3d" transform="translate(1031.25 0)"/>
     <use xlink:href="#ArialMT-31" transform="translate(1089.648438 0)"/>
     <use xlink:href="#ArialMT-30" transform="translate(1145.263672 0)"/>
    </g>
   </g>
  </g>
 </g>
 <defs>
  <clipPath id="p22a0c61257">
   <rect x="34.605" y="7.2" width="207.3325" height="133"/>
  </clipPath>
 </defs>
</svg>
