<?xml version="1.0" encoding="utf-8" standalone="no"?>
<!DOCTYPE svg PUBLIC "-//W3C//DTD SVG 1.1//EN"
  "http://www.w3.org/Graphics/SVG/1.1/DTD/svg11.dtd">
<svg xmlns:xlink="http://www.w3.org/1999/xlink" width="249.1375pt" height="173.15pt" viewBox="0 0 249.1375 173.15" xmlns="http://www.w3.org/2000/svg" version="1.1">
 <metadata>
  <rdf:RDF xmlns:dc="http://purl.org/dc/elements/1.1/" xmlns:cc="http://creativecommons.org/ns#" xmlns:rdf="http://www.w3.org/1999/02/22-rdf-syntax-ns#">
   <cc:Work>
    <dc:type rdf:resource="http://purl.org/dc/dcmitype/StillImage"/>
    <dc:date>2026-03-22T18:17:13.269711</dc:date>
    <dc:format>image/svg+xml</dc:format>
    <dc:creator>
     <cc:Agent>
      <dc:title>Matplotlib v3.10.7, https://matplotlib.org/</dc:title>
     </cc:Agent>
    </dc:creator>
   </cc:Work>
  </rdf:RDF>
 </metadata>
 <defs>
  <style type="text/css">*{stroke-linejoin: round; stroke-linecap: butt}</style>
 </defs>
 <g id="figure_1">
  <g id="patch_1">
   <path d="M 0 173.15 
L 249.1375 173.15 
L 249.1375 0 
L 0 0 
z
" style="fill: #ffffff"/>
  </g>
  <g id="axes_1">
   <g id="patch_2">
    <path d="M 34.605 140.2 
L 241.9375 140.2 
L 241.9375 7.2 
L 34.605 7.2 
z
" style="fill: #ffffff"/>
   </g>
   <g id="FillBetweenPolyCollection_1">
    <path d="M 79.169364 134.154545 
L 44.548198 134.154545 
L 44.029205 132.933242 
L 44.525987 131.711938 
L 44.589618 130.490634 
L 45.330961 129.26933 
L 47.81938 128.048026 
L 50.883589 126.826722 
L 53.056288 125.605418 
L 54.433924 124.384114 
L 55.540252 123.16281 
L 56.262828 121.941506 
L 56.600432 120.720202 
L 57.00007 119.498898 
L 57.564122 118.277594 
L 57.958742 117.05629 
L 58.160311 115.834986 
L 58.450666 114.613682 
L 58.80698 113.392378 
L 59.010254 112.171074 
L 59.14789 110.94977 
L 59.434836 109.728466 
L 59.788404 108.507163 
L 60.01879 107.285859 
L 60.168356 106.064555 
L 60.343191 104.843251 
L 60.484985 103.621947 
L 60.538304 102.400643 
L 60.587202 101.179339 
L 60.675439 99.958035 
L 60.727857 98.736731 
L 60.736507 97.515427 
L 60.800043 96.294123 
L 60.934656 95.072819 
L 61.04978 93.851515 
L 61.119685 92.630211 
L 61.201779 91.408907 
L 61.302884 90.187603 
L 61.375877 88.966299 
L 61.419105 87.744995 
L 61.465527 86.523691 
L 61.510485 85.302388 
L 61.532934 84.081084 
L 61.546321 82.85978 
L 61.56877 81.638476 
L 61.586656 80.417172 
L 61.589663 79.195868 
L 61.596606 77.974564 
L 61.617329 76.75326 
L 61.634547 75.531956 
L 61.642769 74.310652 
L 61.661292 73.089348 
L 61.696589 71.868044 
L 61.73056 70.64674 
L 61.751153 69.425436 
L 61.763129 68.204132 
L 61.76978 66.982828 
L 61.770164 65.761524 
L 61.77119 64.54022 
L 61.781983 63.318916 
L 61.799691 62.097612 
L 61.81448 60.876309 
L 61.822982 59.655005 
L 61.827548 58.433701 
L 61.829203 57.212397 
L 61.828764 55.991093 
L 61.829291 54.769789 
L 61.832242 53.548485 
L 61.835465 52.327181 
L 61.837713 51.105877 
L 61.840894 49.884573 
L 61.846211 48.663269 
L 61.85177 47.441965 
L 61.85489 46.220661 
L 61.854308 44.999357 
L 61.850287 43.778053 
L 61.844801 42.556749 
L 61.841203 41.335445 
L 61.841462 40.114141 
L 61.844099 38.892837 
L 61.846587 37.671534 
L 61.848598 36.45023 
L 61.851158 35.228926 
L 61.854159 34.007622 
L 61.856381 32.786318 
L 61.856902 31.565014 
L 61.855562 30.34371 
L 61.852987 29.122406 
L 61.850758 27.901102 
L 61.850568 26.679798 
L 61.852572 25.458494 
L 61.855217 24.23719 
L 61.856812 23.015886 
L 61.856589 21.794582 
L 61.854617 20.573278 
L 61.851799 19.351974 
L 61.849664 18.13067 
L 61.849024 16.909366 
L 61.849101 15.688062 
L 61.849024 14.466758 
L 61.84943 13.245455 
L 61.868131 13.245455 
L 61.868131 13.245455 
L 61.868537 14.466758 
L 61.868461 15.688062 
L 61.868537 16.909366 
L 61.867898 18.13067 
L 61.865763 19.351974 
L 61.862944 20.573278 
L 61.860973 21.794582 
L 61.860749 23.015886 
L 61.862344 24.23719 
L 61.864989 25.458494 
L 61.866994 26.679798 
L 61.866803 27.901102 
L 61.864574 29.122406 
L 61.862 30.34371 
L 61.860659 31.565014 
L 61.86118 32.786318 
L 61.863402 34.007622 
L 61.866403 35.228926 
L 61.868963 36.45023 
L 61.870974 37.671534 
L 61.873462 38.892837 
L 61.876099 40.114141 
L 61.876359 41.335445 
L 61.872761 42.556749 
L 61.867275 43.778053 
L 61.863253 44.999357 
L 61.862671 46.220661 
L 61.865791 47.441965 
L 61.87135 48.663269 
L 61.876668 49.884573 
L 61.879848 51.105877 
L 61.882097 52.327181 
L 61.885319 53.548485 
L 61.88827 54.769789 
L 61.888798 55.991093 
L 61.888359 57.212397 
L 61.890013 58.433701 
L 61.894579 59.655005 
L 61.903082 60.876309 
L 61.91787 62.097612 
L 61.935578 63.318916 
L 61.946372 64.54022 
L 61.947397 65.761524 
L 61.947781 66.982828 
L 61.954432 68.204132 
L 61.966408 69.425436 
L 61.987001 70.64674 
L 62.020972 71.868044 
L 62.05627 73.089348 
L 62.074792 74.310652 
L 62.083015 75.531956 
L 62.100232 76.75326 
L 62.120955 77.974564 
L 62.127898 79.195868 
L 62.130906 80.417172 
L 62.148791 81.638476 
L 62.17124 82.85978 
L 62.184628 84.081084 
L 62.207076 85.302388 
L 62.252034 86.523691 
L 62.298457 87.744995 
L 62.341685 88.966299 
L 62.414678 90.187603 
L 62.515782 91.408907 
L 62.597876 92.630211 
L 62.667782 93.851515 
L 62.782905 95.072819 
L 62.917519 96.294123 
L 62.981054 97.515427 
L 62.989704 98.736731 
L 63.042123 99.958035 
L 63.130359 101.179339 
L 63.179257 102.400643 
L 63.232576 103.621947 
L 63.37437 104.843251 
L 63.549205 106.064555 
L 63.698771 107.285859 
L 63.929158 108.507163 
L 64.282726 109.728466 
L 64.569672 110.94977 
L 64.707308 112.171074 
L 64.910582 113.392378 
L 65.266895 114.613682 
L 65.55725 115.834986 
L 65.75882 117.05629 
L 66.153439 118.277594 
L 66.717492 119.498898 
L 67.11713 120.720202 
L 67.454733 121.941506 
L 68.17731 123.16281 
L 69.283637 124.384114 
L 70.661274 125.605418 
L 72.833973 126.826722 
L 75.898181 128.048026 
L 78.386601 129.26933 
L 79.127944 130.490634 
L 79.191575 131.711938 
L 79.688357 132.933242 
L 79.169364 134.154545 
z
" clip-path="url(#p2e31f20802)" style="fill: #888780; fill-opacity: 0.7"/>
   </g>
   <g id="FillBetweenPolyCollection_2">
    <path d="M 130.11101 134.154545 
L 95.489844 134.154545 
L 94.970851 132.933242 
L 95.467633 131.711938 
L 95.531264 130.490634 
L 96.272607 129.26933 
L 98.761026 128.048026 
L 101.825235 126.826722 
L 103.997934 125.605418 
L 105.37557 124.384114 
L 106.481898 123.16281 
L 107.204475 121.941506 
L 107.542078 120.720202 
L 107.941716 119.498898 
L 108.505768 118.277594 
L 108.900388 117.05629 
L 109.101957 115.834986 
L 109.392313 114.613682 
L 109.748626 113.392378 
L 109.9519 112.171074 
L 110.089536 110.94977 
L 110.376482 109.728466 
L 110.73005 108.507163 
L 110.960436 107.285859 
L 111.110003 106.064555 
L 111.284837 104.843251 
L 111.426632 103.621947 
L 111.47995 102.400643 
L 111.528849 101.179339 
L 111.617085 99.958035 
L 111.669503 98.736731 
L 111.678153 97.515427 
L 111.741689 96.294123 
L 111.876303 95.072819 
L 111.991426 93.851515 
L 112.061332 92.630211 
L 112.143426 91.408907 
L 112.24453 90.187603 
L 112.317523 88.966299 
L 112.360751 87.744995 
L 112.407174 86.523691 
L 112.452131 85.302388 
L 112.47458 84.081084 
L 112.487967 82.85978 
L 112.510416 81.638476 
L 112.528302 80.417172 
L 112.53131 79.195868 
L 112.538252 77.974564 
L 112.558975 76.75326 
L 112.576193 75.531956 
L 112.584415 74.310652 
L 112.602938 73.089348 
L 112.638236 71.868044 
L 112.672206 70.64674 
L 112.6928 69.425436 
L 112.704775 68.204132 
L 112.711426 66.982828 
L 112.71181 65.761524 
L 112.712836 64.54022 
L 112.72363 63.318916 
L 112.741337 62.097612 
L 112.756126 60.876309 
L 112.764628 59.655005 
L 112.769194 58.433701 
L 112.770849 57.212397 
L 112.77041 55.991093 
L 112.770937 54.769789 
L 112.773888 53.548485 
L 112.777111 52.327181 
L 112.779359 51.105877 
L 112.78254 49.884573 
L 112.787857 48.663269 
L 112.793416 47.441965 
L 112.796537 46.220661 
L 112.795955 44.999357 
L 112.791933 43.778053 
L 112.786447 42.556749 
L 112.782849 41.335445 
L 112.783108 40.114141 
L 112.785745 38.892837 
L 112.788233 37.671534 
L 112.790244 36.45023 
L 112.792804 35.228926 
L 112.795805 34.007622 
L 112.798027 32.786318 
L 112.798548 31.565014 
L 112.797208 30.34371 
L 112.794633 29.122406 
L 112.792404 27.901102 
L 112.792214 26.679798 
L 112.794218 25.458494 
L 112.796863 24.23719 
L 112.798458 23.015886 
L 112.798235 21.794582 
L 112.796263 20.573278 
L 112.793445 19.351974 
L 112.79131 18.13067 
L 112.790671 16.909366 
L 112.790747 15.688062 
L 112.790671 14.466758 
L 112.791076 13.245455 
L 112.809778 13.245455 
L 112.809778 13.245455 
L 112.810183 14.466758 
L 112.810107 15.688062 
L 112.810183 16.909366 
L 112.809544 18.13067 
L 112.807409 19.351974 
L 112.80459 20.573278 
L 112.802619 21.794582 
L 112.802395 23.015886 
L 112.803991 24.23719 
L 112.806635 25.458494 
L 112.80864 26.679798 
L 112.808449 27.901102 
L 112.80622 29.122406 
L 112.803646 30.34371 
L 112.802305 31.565014 
L 112.802827 32.786318 
L 112.805049 34.007622 
L 112.80805 35.228926 
L 112.810609 36.45023 
L 112.812621 37.671534 
L 112.815109 38.892837 
L 112.817746 40.114141 
L 112.818005 41.335445 
L 112.814407 42.556749 
L 112.808921 43.778053 
L 112.804899 44.999357 
L 112.804317 46.220661 
L 112.807437 47.441965 
L 112.812997 48.663269 
L 112.818314 49.884573 
L 112.821494 51.105877 
L 112.823743 52.327181 
L 112.826965 53.548485 
L 112.829917 54.769789 
L 112.830444 55.991093 
L 112.830005 57.212397 
L 112.83166 58.433701 
L 112.836226 59.655005 
L 112.844728 60.876309 
L 112.859516 62.097612 
L 112.877224 63.318916 
L 112.888018 64.54022 
L 112.889043 65.761524 
L 112.889427 66.982828 
L 112.896078 68.204132 
L 112.908054 69.425436 
L 112.928648 70.64674 
L 112.962618 71.868044 
L 112.997916 73.089348 
L 113.016438 74.310652 
L 113.024661 75.531956 
L 113.041878 76.75326 
L 113.062601 77.974564 
L 113.069544 79.195868 
L 113.072552 80.417172 
L 113.090437 81.638476 
L 113.112886 82.85978 
L 113.126274 84.081084 
L 113.148722 85.302388 
L 113.19368 86.523691 
L 113.240103 87.744995 
L 113.283331 88.966299 
L 113.356324 90.187603 
L 113.457428 91.408907 
L 113.539522 92.630211 
L 113.609428 93.851515 
L 113.724551 95.072819 
L 113.859165 96.294123 
L 113.922701 97.515427 
L 113.93135 98.736731 
L 113.983769 99.958035 
L 114.072005 101.179339 
L 114.120904 102.400643 
L 114.174222 103.621947 
L 114.316017 104.843251 
L 114.490851 106.064555 
L 114.640417 107.285859 
L 114.870804 108.507163 
L 115.224372 109.728466 
L 115.511318 110.94977 
L 115.648954 112.171074 
L 115.852228 113.392378 
L 116.208541 114.613682 
L 116.498897 115.834986 
L 116.700466 117.05629 
L 117.095086 118.277594 
L 117.659138 119.498898 
L 118.058776 120.720202 
L 118.396379 121.941506 
L 119.118956 123.16281 
L 120.225283 124.384114 
L 121.60292 125.605418 
L 123.775619 126.826722 
L 126.839827 128.048026 
L 129.328247 129.26933 
L 130.06959 130.490634 
L 130.133221 131.711938 
L 130.630003 132.933242 
L 130.11101 134.154545 
z
" clip-path="url(#p2e31f20802)" style="fill: #378add; fill-opacity: 0.7"/>
   </g>
   <g id="FillBetweenPolyCollection_3">
    <path d="M 181.571649 134.154545 
L 145.912497 134.154545 
L 147.360869 133.168108 
L 150.448454 132.18167 
L 151.65892 131.195232 
L 150.949932 130.208794 
L 151.097614 129.222356 
L 153.446052 128.235919 
L 156.360382 127.249481 
L 157.92156 126.263043 
L 158.294111 125.276605 
L 158.781802 124.290167 
L 159.759618 123.30373 
L 160.496243 122.317292 
L 160.554891 121.330854 
L 160.445254 120.344416 
L 160.783632 119.357978 
L 161.430405 118.371541 
L 161.824344 117.385103 
L 161.830747 116.398665 
L 161.834059 115.412227 
L 162.099156 114.425789 
L 162.426302 113.439352 
L 162.525333 112.452914 
L 162.452749 111.466476 
L 162.484193 110.480038 
L 162.692251 109.4936 
L 162.874138 108.507163 
L 162.882475 107.520725 
L 162.830097 106.534287 
L 162.89715 105.547849 
L 163.07001 104.561411 
L 163.190418 103.574974 
L 163.196605 102.588536 
L 163.187845 101.602098 
L 163.256008 100.61566 
L 163.359861 99.629222 
L 163.408326 98.642784 
L 163.39712 97.656347 
L 163.397711 96.669909 
L 163.440135 95.683471 
L 163.474105 94.697033 
L 163.455976 93.710595 
L 163.421055 92.724158 
L 163.434468 91.73772 
L 163.499747 90.751282 
L 163.560529 89.764844 
L 163.58136 88.778406 
L 163.583552 87.791969 
L 163.598578 86.805531 
L 163.621035 85.819093 
L 163.625647 84.832655 
L 163.611828 83.846217 
L 163.606527 82.85978 
L 163.62491 81.873342 
L 163.650158 80.886904 
L 163.660151 79.900466 
L 163.657606 78.914028 
L 163.661551 77.927591 
L 163.678758 76.941153 
L 163.697534 75.954715 
L 163.706836 74.968277 
L 163.708747 73.981839 
L 163.709907 72.995402 
L 163.709475 72.008964 
L 163.701959 71.022526 
L 163.689382 70.036088 
L 163.683076 69.04965 
L 163.690186 68.063213 
L 163.704259 67.076775 
L 163.714134 66.090337 
L 163.717211 65.103899 
L 163.718935 64.117461 
L 163.722865 63.131024 
L 163.726696 62.144586 
L 163.72756 61.158148 
L 163.726874 60.17171 
L 163.728148 59.185272 
L 163.732235 58.198834 
L 163.736905 57.212397 
L 163.740044 56.225959 
L 163.741321 55.239521 
L 163.741238 54.253083 
L 163.740027 53.266645 
L 163.737864 52.280208 
L 163.735671 51.29377 
L 163.734923 50.307332 
L 163.736212 49.320894 
L 163.738544 48.334456 
L 163.740486 47.348019 
L 163.741379 46.361581 
L 163.741117 45.375143 
L 163.739352 44.388705 
L 163.735671 43.402267 
L 163.73091 42.41583 
L 163.727607 41.429392 
L 163.727609 40.442954 
L 163.729405 39.456516 
L 163.729759 38.470078 
L 163.728087 37.483641 
L 163.727266 36.497203 
L 163.75688 36.497203 
L 163.75688 36.497203 
L 163.756059 37.483641 
L 163.754387 38.470078 
L 163.754741 39.456516 
L 163.756537 40.442954 
L 163.756539 41.429392 
L 163.753236 42.41583 
L 163.748475 43.402267 
L 163.744794 44.388705 
L 163.743029 45.375143 
L 163.742767 46.361581 
L 163.743661 47.348019 
L 163.745602 48.334456 
L 163.747934 49.320894 
L 163.749224 50.307332 
L 163.748476 51.29377 
L 163.746282 52.280208 
L 163.744119 53.266645 
L 163.742908 54.253083 
L 163.742825 55.239521 
L 163.744102 56.225959 
L 163.747241 57.212397 
L 163.751911 58.198834 
L 163.755998 59.185272 
L 163.757272 60.17171 
L 163.756586 61.158148 
L 163.75745 62.144586 
L 163.761281 63.131024 
L 163.765211 64.117461 
L 163.766935 65.103899 
L 163.770012 66.090337 
L 163.779887 67.076775 
L 163.79396 68.063213 
L 163.80107 69.04965 
L 163.794764 70.036088 
L 163.782187 71.022526 
L 163.774671 72.008964 
L 163.774239 72.995402 
L 163.775399 73.981839 
L 163.777311 74.968277 
L 163.786612 75.954715 
L 163.805388 76.941153 
L 163.822595 77.927591 
L 163.82654 78.914028 
L 163.823995 79.900466 
L 163.833988 80.886904 
L 163.859236 81.873342 
L 163.877619 82.85978 
L 163.872318 83.846217 
L 163.858499 84.832655 
L 163.863111 85.819093 
L 163.885568 86.805531 
L 163.900594 87.791969 
L 163.902786 88.778406 
L 163.923617 89.764844 
L 163.984399 90.751282 
L 164.049678 91.73772 
L 164.063092 92.724158 
L 164.02817 93.710595 
L 164.010041 94.697033 
L 164.044011 95.683471 
L 164.086435 96.669909 
L 164.087026 97.656347 
L 164.07582 98.642784 
L 164.124285 99.629222 
L 164.228138 100.61566 
L 164.296301 101.602098 
L 164.287541 102.588536 
L 164.293728 103.574974 
L 164.414137 104.561411 
L 164.586996 105.547849 
L 164.65405 106.534287 
L 164.601671 107.520725 
L 164.610009 108.507163 
L 164.791895 109.4936 
L 164.999954 110.480038 
L 165.031397 111.466476 
L 164.958813 112.452914 
L 165.057844 113.439352 
L 165.38499 114.425789 
L 165.650087 115.412227 
L 165.6534 116.398665 
L 165.659802 117.385103 
L 166.053741 118.371541 
L 166.700514 119.357978 
L 167.038893 120.344416 
L 166.929255 121.330854 
L 166.987903 122.317292 
L 167.724528 123.30373 
L 168.702344 124.290167 
L 169.190035 125.276605 
L 169.562586 126.263043 
L 171.123764 127.249481 
L 174.038094 128.235919 
L 176.386532 129.222356 
L 176.534215 130.208794 
L 175.825226 131.195232 
L 177.035692 132.18167 
L 180.123277 133.168108 
L 181.571649 134.154545 
z
" clip-path="url(#p2e31f20802)" style="fill: #ba7517; fill-opacity: 0.7"/>
   </g>
   <g id="FillBetweenPolyCollection_4">
    <path d="M 232.513295 134.154545 
L 196.854143 134.154545 
L 199.043871 133.309027 
L 203.456017 132.463509 
L 205.700258 131.617991 
L 204.365702 130.772473 
L 202.091613 129.926955 
L 202.287038 129.081437 
L 205.346829 128.235919 
L 208.691752 127.390401 
L 210.065312 126.544882 
L 209.67453 125.699364 
L 209.289627 124.853846 
L 210.050771 124.008328 
L 211.443511 123.16281 
L 212.263095 122.317292 
L 212.085402 121.471774 
L 211.581821 120.626256 
L 211.628493 119.780737 
L 212.319726 118.935219 
L 212.977665 118.089701 
L 213.023623 117.244183 
L 212.604869 116.398665 
L 212.361679 115.553147 
L 212.682871 114.707629 
L 213.309351 113.862111 
L 213.718118 113.016592 
L 213.717307 112.171074 
L 213.559855 111.325556 
L 213.584111 110.480038 
L 213.839084 109.63452 
L 214.089448 108.789002 
L 214.130104 107.943484 
L 214.006211 107.097966 
L 213.931191 106.252448 
L 214.036321 105.406929 
L 214.240404 104.561411 
L 214.375294 103.715893 
L 214.378696 102.870375 
L 214.330498 102.024857 
L 214.33751 101.179339 
L 214.413902 100.333821 
L 214.482648 99.488303 
L 214.47771 98.642784 
L 214.419143 97.797266 
L 214.386574 96.951748 
L 214.428033 96.10623 
L 214.510275 95.260712 
L 214.567044 94.415194 
L 214.573252 93.569676 
L 214.558157 92.724158 
L 214.56172 91.87864 
L 214.591144 91.033121 
L 214.621599 90.187603 
L 214.630844 89.342085 
L 214.622318 88.496567 
L 214.616233 87.651049 
L 214.624899 86.805531 
L 214.640298 85.960013 
L 214.646102 85.114495 
L 214.637423 84.268976 
L 214.625908 83.423458 
L 214.626023 82.57794 
L 214.638 81.732422 
L 214.647863 80.886904 
L 214.644203 80.041386 
L 214.631308 79.195868 
L 214.624593 78.35035 
L 214.633602 77.504832 
L 214.652607 76.659313 
L 214.669638 75.813795 
L 214.679068 74.968277 
L 214.682532 74.122759 
L 214.683106 73.277241 
L 214.681954 72.431723 
L 214.678437 71.586205 
L 214.672054 70.740687 
L 214.664943 69.895168 
L 214.661668 69.04965 
L 214.664657 68.204132 
L 214.671004 67.358614 
L 214.675718 66.513096 
L 214.676847 65.667578 
L 214.676256 64.82206 
L 214.676601 63.976542 
L 214.678579 63.131024 
L 214.680997 62.285505 
L 214.682667 61.439987 
L 214.683414 60.594469 
L 214.683598 59.748951 
L 214.683414 58.903433 
L 214.682667 58.057915 
L 214.680997 57.212397 
L 214.678585 56.366879 
L 214.67665 55.52136 
L 214.676535 54.675842 
L 214.678008 53.830324 
L 214.679238 52.984806 
L 214.67878 52.139288 
L 214.677168 51.29377 
L 214.676329 50.448252 
L 214.69111 50.448252 
L 214.69111 50.448252 
L 214.690271 51.29377 
L 214.688659 52.139288 
L 214.688201 52.984806 
L 214.689431 53.830324 
L 214.690904 54.675842 
L 214.690789 55.52136 
L 214.688854 56.366879 
L 214.686441 57.212397 
L 214.684772 58.057915 
L 214.684024 58.903433 
L 214.683841 59.748951 
L 214.684024 60.594469 
L 214.684772 61.439987 
L 214.686442 62.285505 
L 214.68886 63.131024 
L 214.690838 63.976542 
L 214.691183 64.82206 
L 214.690591 65.667578 
L 214.691721 66.513096 
L 214.696435 67.358614 
L 214.702782 68.204132 
L 214.70577 69.04965 
L 214.702495 69.895168 
L 214.695385 70.740687 
L 214.689002 71.586205 
L 214.685485 72.431723 
L 214.684332 73.277241 
L 214.684907 74.122759 
L 214.688371 74.968277 
L 214.697801 75.813795 
L 214.714832 76.659313 
L 214.733836 77.504832 
L 214.742845 78.35035 
L 214.736131 79.195868 
L 214.723235 80.041386 
L 214.719575 80.886904 
L 214.729438 81.732422 
L 214.741416 82.57794 
L 214.741531 83.423458 
L 214.730015 84.268976 
L 214.721336 85.114495 
L 214.72714 85.960013 
L 214.74254 86.805531 
L 214.751206 87.651049 
L 214.745121 88.496567 
L 214.736595 89.342085 
L 214.74584 90.187603 
L 214.776295 91.033121 
L 214.805718 91.87864 
L 214.809282 92.724158 
L 214.794186 93.569676 
L 214.800394 94.415194 
L 214.857164 95.260712 
L 214.939406 96.10623 
L 214.980865 96.951748 
L 214.948296 97.797266 
L 214.889729 98.642784 
L 214.884791 99.488303 
L 214.953537 100.333821 
L 215.029929 101.179339 
L 215.036941 102.024857 
L 214.988742 102.870375 
L 214.992144 103.715893 
L 215.127035 104.561411 
L 215.331117 105.406929 
L 215.436247 106.252448 
L 215.361228 107.097966 
L 215.237335 107.943484 
L 215.27799 108.789002 
L 215.528355 109.63452 
L 215.783327 110.480038 
L 215.807583 111.325556 
L 215.650132 112.171074 
L 215.649321 113.016592 
L 216.058087 113.862111 
L 216.684568 114.707629 
L 217.005759 115.553147 
L 216.762569 116.398665 
L 216.343815 117.244183 
L 216.389773 118.089701 
L 217.047713 118.935219 
L 217.738945 119.780737 
L 217.785618 120.626256 
L 217.282037 121.471774 
L 217.104344 122.317292 
L 217.923927 123.16281 
L 219.316667 124.008328 
L 220.077811 124.853846 
L 219.692909 125.699364 
L 219.302126 126.544882 
L 220.675687 127.390401 
L 224.02061 128.235919 
L 227.080401 129.081437 
L 227.275826 129.926955 
L 225.001737 130.772473 
L 223.667181 131.617991 
L 225.911422 132.463509 
L 230.323568 133.309027 
L 232.513295 134.154545 
z
" clip-path="url(#p2e31f20802)" style="fill: #1d9e75; fill-opacity: 0.7"/>
   </g>
   <g id="matplotlib.axis_1">
    <g id="xtick_1">
     <g id="line2d_1">
      <defs>
       <path id="mc33c0a4f9a" d="M 0 0 
L 0 3.5 
" style="stroke: #000000; stroke-width: 0.8"/>
      </defs>
      <g>
       <use xlink:href="#mc33c0a4f9a" x="61.858781" y="140.2" style="stroke: #000000; stroke-width: 0.8"/>
      </g>
     </g>
     <g id="text_1">
      <!-- original -->
      <g transform="translate(48.963156 152.92625) scale(0.08 -0.08)">
       <defs>
        <path id="ArialMT-6f" d="M 213 1659 
Q 213 2581 725 3025 
Q 1153 3394 1769 3394 
Q 2453 3394 2887 2945 
Q 3322 2497 3322 1706 
Q 3322 1066 3130 698 
Q 2938 331 2570 128 
Q 2203 -75 1769 -75 
Q 1072 -75 642 372 
Q 213 819 213 1659 
z
M 791 1659 
Q 791 1022 1069 705 
Q 1347 388 1769 388 
Q 2188 388 2466 706 
Q 2744 1025 2744 1678 
Q 2744 2294 2464 2611 
Q 2184 2928 1769 2928 
Q 1347 2928 1069 2612 
Q 791 2297 791 1659 
z
" transform="scale(0.015625)"/>
        <path id="ArialMT-72" d="M 416 0 
L 416 3319 
L 922 3319 
L 922 2816 
Q 1116 3169 1280 3281 
Q 1444 3394 1641 3394 
Q 1925 3394 2219 3213 
L 2025 2691 
Q 1819 2813 1613 2813 
Q 1428 2813 1281 2702 
Q 1134 2591 1072 2394 
Q 978 2094 978 1738 
L 978 0 
L 416 0 
z
" transform="scale(0.015625)"/>
        <path id="ArialMT-69" d="M 425 3934 
L 425 4581 
L 988 4581 
L 988 3934 
L 425 3934 
z
M 425 0 
L 425 3319 
L 988 3319 
L 988 0 
L 425 0 
z
" transform="scale(0.015625)"/>
        <path id="ArialMT-67" d="M 319 -275 
L 866 -356 
Q 900 -609 1056 -725 
Q 1266 -881 1628 -881 
Q 2019 -881 2231 -725 
Q 2444 -569 2519 -288 
Q 2563 -116 2559 434 
Q 2191 0 1641 0 
Q 956 0 581 494 
Q 206 988 206 1678 
Q 206 2153 378 2554 
Q 550 2956 876 3175 
Q 1203 3394 1644 3394 
Q 2231 3394 2613 2919 
L 2613 3319 
L 3131 3319 
L 3131 450 
Q 3131 -325 2973 -648 
Q 2816 -972 2473 -1159 
Q 2131 -1347 1631 -1347 
Q 1038 -1347 672 -1080 
Q 306 -813 319 -275 
z
M 784 1719 
Q 784 1066 1043 766 
Q 1303 466 1694 466 
Q 2081 466 2343 764 
Q 2606 1063 2606 1700 
Q 2606 2309 2336 2618 
Q 2066 2928 1684 2928 
Q 1309 2928 1046 2623 
Q 784 2319 784 1719 
z
" transform="scale(0.015625)"/>
        <path id="ArialMT-6e" d="M 422 0 
L 422 3319 
L 928 3319 
L 928 2847 
Q 1294 3394 1984 3394 
Q 2284 3394 2536 3286 
Q 2788 3178 2913 3003 
Q 3038 2828 3088 2588 
Q 3119 2431 3119 2041 
L 3119 0 
L 2556 0 
L 2556 2019 
Q 2556 2363 2490 2533 
Q 2425 2703 2258 2804 
Q 2091 2906 1866 2906 
Q 1506 2906 1245 2678 
Q 984 2450 984 1813 
L 984 0 
L 422 0 
z
" transform="scale(0.015625)"/>
        <path id="ArialMT-61" d="M 2588 409 
Q 2275 144 1986 34 
Q 1697 -75 1366 -75 
Q 819 -75 525 192 
Q 231 459 231 875 
Q 231 1119 342 1320 
Q 453 1522 633 1644 
Q 813 1766 1038 1828 
Q 1203 1872 1538 1913 
Q 2219 1994 2541 2106 
Q 2544 2222 2544 2253 
Q 2544 2597 2384 2738 
Q 2169 2928 1744 2928 
Q 1347 2928 1158 2789 
Q 969 2650 878 2297 
L 328 2372 
Q 403 2725 575 2942 
Q 747 3159 1072 3276 
Q 1397 3394 1825 3394 
Q 2250 3394 2515 3294 
Q 2781 3194 2906 3042 
Q 3031 2891 3081 2659 
Q 3109 2516 3109 2141 
L 3109 1391 
Q 3109 606 3145 398 
Q 3181 191 3288 0 
L 2700 0 
Q 2613 175 2588 409 
z
M 2541 1666 
Q 2234 1541 1622 1453 
Q 1275 1403 1131 1340 
Q 988 1278 909 1158 
Q 831 1038 831 891 
Q 831 666 1001 516 
Q 1172 366 1500 366 
Q 1825 366 2078 508 
Q 2331 650 2450 897 
Q 2541 1088 2541 1459 
L 2541 1666 
z
" transform="scale(0.015625)"/>
        <path id="ArialMT-6c" d="M 409 0 
L 409 4581 
L 972 4581 
L 972 0 
L 409 0 
z
" transform="scale(0.015625)"/>
       </defs>
       <use xlink:href="#ArialMT-6f"/>
       <use xlink:href="#ArialMT-72" transform="translate(55.615234 0)"/>
       <use xlink:href="#ArialMT-69" transform="translate(88.916016 0)"/>
       <use xlink:href="#ArialMT-67" transform="translate(111.132812 0)"/>
       <use xlink:href="#ArialMT-69" transform="translate(166.748047 0)"/>
       <use xlink:href="#ArialMT-6e" transform="translate(188.964844 0)"/>
       <use xlink:href="#ArialMT-61" transform="translate(244.580078 0)"/>
       <use xlink:href="#ArialMT-6c" transform="translate(300.195312 0)"/>
      </g>
     </g>
    </g>
    <g id="xtick_2">
     <g id="line2d_2">
      <g>
       <use xlink:href="#mc33c0a4f9a" x="112.800427" y="140.2" style="stroke: #000000; stroke-width: 0.8"/>
      </g>
     </g>
     <g id="text_2">
      <!-- s1 only -->
      <g transform="translate(100.127302 152.95) scale(0.08 -0.08)">
       <defs>
        <path id="ArialMT-73" d="M 197 991 
L 753 1078 
Q 800 744 1014 566 
Q 1228 388 1613 388 
Q 2000 388 2187 545 
Q 2375 703 2375 916 
Q 2375 1106 2209 1216 
Q 2094 1291 1634 1406 
Q 1016 1563 777 1677 
Q 538 1791 414 1992 
Q 291 2194 291 2438 
Q 291 2659 392 2848 
Q 494 3038 669 3163 
Q 800 3259 1026 3326 
Q 1253 3394 1513 3394 
Q 1903 3394 2198 3281 
Q 2494 3169 2634 2976 
Q 2775 2784 2828 2463 
L 2278 2388 
Q 2241 2644 2061 2787 
Q 1881 2931 1553 2931 
Q 1166 2931 1000 2803 
Q 834 2675 834 2503 
Q 834 2394 903 2306 
Q 972 2216 1119 2156 
Q 1203 2125 1616 2013 
Q 2213 1853 2448 1751 
Q 2684 1650 2818 1456 
Q 2953 1263 2953 975 
Q 2953 694 2789 445 
Q 2625 197 2315 61 
Q 2006 -75 1616 -75 
Q 969 -75 630 194 
Q 291 463 197 991 
z
" transform="scale(0.015625)"/>
        <path id="ArialMT-31" d="M 2384 0 
L 1822 0 
L 1822 3584 
Q 1619 3391 1289 3197 
Q 959 3003 697 2906 
L 697 3450 
Q 1169 3672 1522 3987 
Q 1875 4303 2022 4600 
L 2384 4600 
L 2384 0 
z
" transform="scale(0.015625)"/>
        <path id="ArialMT-20" transform="scale(0.015625)"/>
        <path id="ArialMT-79" d="M 397 -1278 
L 334 -750 
Q 519 -800 656 -800 
Q 844 -800 956 -737 
Q 1069 -675 1141 -563 
Q 1194 -478 1313 -144 
Q 1328 -97 1363 -6 
L 103 3319 
L 709 3319 
L 1400 1397 
Q 1534 1031 1641 628 
Q 1738 1016 1872 1384 
L 2581 3319 
L 3144 3319 
L 1881 -56 
Q 1678 -603 1566 -809 
Q 1416 -1088 1222 -1217 
Q 1028 -1347 759 -1347 
Q 597 -1347 397 -1278 
z
" transform="scale(0.015625)"/>
       </defs>
       <use xlink:href="#ArialMT-73"/>
       <use xlink:href="#ArialMT-31" transform="translate(50 0)"/>
       <use xlink:href="#ArialMT-20" transform="translate(105.615234 0)"/>
       <use xlink:href="#ArialMT-6f" transform="translate(133.398438 0)"/>
       <use xlink:href="#ArialMT-6e" transform="translate(189.013672 0)"/>
       <use xlink:href="#ArialMT-6c" transform="translate(244.628906 0)"/>
       <use xlink:href="#ArialMT-79" transform="translate(266.845703 0)"/>
      </g>
     </g>
    </g>
    <g id="xtick_3">
     <g id="line2d_3">
      <g>
       <use xlink:href="#mc33c0a4f9a" x="163.742073" y="140.2" style="stroke: #000000; stroke-width: 0.8"/>
      </g>
     </g>
     <g id="text_3">
      <!-- switch -->
      <g transform="translate(152.628948 152.92625) scale(0.08 -0.08)">
       <defs>
        <path id="ArialMT-77" d="M 1034 0 
L 19 3319 
L 600 3319 
L 1128 1403 
L 1325 691 
Q 1338 744 1497 1375 
L 2025 3319 
L 2603 3319 
L 3100 1394 
L 3266 759 
L 3456 1400 
L 4025 3319 
L 4572 3319 
L 3534 0 
L 2950 0 
L 2422 1988 
L 2294 2553 
L 1622 0 
L 1034 0 
z
" transform="scale(0.015625)"/>
        <path id="ArialMT-74" d="M 1650 503 
L 1731 6 
Q 1494 -44 1306 -44 
Q 1000 -44 831 53 
Q 663 150 594 308 
Q 525 466 525 972 
L 525 2881 
L 113 2881 
L 113 3319 
L 525 3319 
L 525 4141 
L 1084 4478 
L 1084 3319 
L 1650 3319 
L 1650 2881 
L 1084 2881 
L 1084 941 
Q 1084 700 1114 631 
Q 1144 563 1211 522 
Q 1278 481 1403 481 
Q 1497 481 1650 503 
z
" transform="scale(0.015625)"/>
        <path id="ArialMT-63" d="M 2588 1216 
L 3141 1144 
Q 3050 572 2676 248 
Q 2303 -75 1759 -75 
Q 1078 -75 664 370 
Q 250 816 250 1647 
Q 250 2184 428 2587 
Q 606 2991 970 3192 
Q 1334 3394 1763 3394 
Q 2303 3394 2647 3120 
Q 2991 2847 3088 2344 
L 2541 2259 
Q 2463 2594 2264 2762 
Q 2066 2931 1784 2931 
Q 1359 2931 1093 2626 
Q 828 2322 828 1663 
Q 828 994 1084 691 
Q 1341 388 1753 388 
Q 2084 388 2306 591 
Q 2528 794 2588 1216 
z
" transform="scale(0.015625)"/>
        <path id="ArialMT-68" d="M 422 0 
L 422 4581 
L 984 4581 
L 984 2938 
Q 1378 3394 1978 3394 
Q 2347 3394 2619 3248 
Q 2891 3103 3008 2847 
Q 3125 2591 3125 2103 
L 3125 0 
L 2563 0 
L 2563 2103 
Q 2563 2525 2380 2717 
Q 2197 2909 1863 2909 
Q 1613 2909 1392 2779 
Q 1172 2650 1078 2428 
Q 984 2206 984 1816 
L 984 0 
L 422 0 
z
" transform="scale(0.015625)"/>
       </defs>
       <use xlink:href="#ArialMT-73"/>
       <use xlink:href="#ArialMT-77" transform="translate(50 0)"/>
       <use xlink:href="#ArialMT-69" transform="translate(122.216797 0)"/>
       <use xlink:href="#ArialMT-74" transform="translate(144.433594 0)"/>
       <use xlink:href="#ArialMT-63" transform="translate(172.216797 0)"/>
       <use xlink:href="#ArialMT-68" transform="translate(222.216797 0)"/>
      </g>
     </g>
    </g>
    <g id="xtick_4">
     <g id="line2d_4">
      <g>
       <use xlink:href="#mc33c0a4f9a" x="214.683719" y="140.2" style="stroke: #000000; stroke-width: 0.8"/>
      </g>
     </g>
     <g id="text_4">
      <!-- blend -->
      <g transform="translate(204.897469 152.92625) scale(0.08 -0.08)">
       <defs>
        <path id="ArialMT-62" d="M 941 0 
L 419 0 
L 419 4581 
L 981 4581 
L 981 2947 
Q 1338 3394 1891 3394 
Q 2197 3394 2470 3270 
Q 2744 3147 2920 2923 
Q 3097 2700 3197 2384 
Q 3297 2069 3297 1709 
Q 3297 856 2875 390 
Q 2453 -75 1863 -75 
Q 1275 -75 941 416 
L 941 0 
z
M 934 1684 
Q 934 1088 1097 822 
Q 1363 388 1816 388 
Q 2184 388 2453 708 
Q 2722 1028 2722 1663 
Q 2722 2313 2464 2622 
Q 2206 2931 1841 2931 
Q 1472 2931 1203 2611 
Q 934 2291 934 1684 
z
" transform="scale(0.015625)"/>
        <path id="ArialMT-65" d="M 2694 1069 
L 3275 997 
Q 3138 488 2766 206 
Q 2394 -75 1816 -75 
Q 1088 -75 661 373 
Q 234 822 234 1631 
Q 234 2469 665 2931 
Q 1097 3394 1784 3394 
Q 2450 3394 2872 2941 
Q 3294 2488 3294 1666 
Q 3294 1616 3291 1516 
L 816 1516 
Q 847 969 1125 678 
Q 1403 388 1819 388 
Q 2128 388 2347 550 
Q 2566 713 2694 1069 
z
M 847 1978 
L 2700 1978 
Q 2663 2397 2488 2606 
Q 2219 2931 1791 2931 
Q 1403 2931 1139 2672 
Q 875 2413 847 1978 
z
" transform="scale(0.015625)"/>
        <path id="ArialMT-64" d="M 2575 0 
L 2575 419 
Q 2259 -75 1647 -75 
Q 1250 -75 917 144 
Q 584 363 401 755 
Q 219 1147 219 1656 
Q 219 2153 384 2558 
Q 550 2963 881 3178 
Q 1213 3394 1622 3394 
Q 1922 3394 2156 3267 
Q 2391 3141 2538 2938 
L 2538 4581 
L 3097 4581 
L 3097 0 
L 2575 0 
z
M 797 1656 
Q 797 1019 1065 703 
Q 1334 388 1700 388 
Q 2069 388 2326 689 
Q 2584 991 2584 1609 
Q 2584 2291 2321 2609 
Q 2059 2928 1675 2928 
Q 1300 2928 1048 2622 
Q 797 2316 797 1656 
z
" transform="scale(0.015625)"/>
       </defs>
       <use xlink:href="#ArialMT-62"/>
       <use xlink:href="#ArialMT-6c" transform="translate(55.615234 0)"/>
       <use xlink:href="#ArialMT-65" transform="translate(77.832031 0)"/>
       <use xlink:href="#ArialMT-6e" transform="translate(133.447266 0)"/>
       <use xlink:href="#ArialMT-64" transform="translate(189.0625 0)"/>
      </g>
     </g>
    </g>
    <g id="text_5">
     <!-- Decision mode -->
     <g transform="translate(111.815625 164.36) scale(0.08 -0.08)">
      <defs>
       <path id="ArialMT-44" d="M 494 0 
L 494 4581 
L 2072 4581 
Q 2606 4581 2888 4516 
Q 3281 4425 3559 4188 
Q 3922 3881 4101 3404 
Q 4281 2928 4281 2316 
Q 4281 1794 4159 1391 
Q 4038 988 3847 723 
Q 3656 459 3429 307 
Q 3203 156 2883 78 
Q 2563 0 2147 0 
L 494 0 
z
M 1100 541 
L 2078 541 
Q 2531 541 2789 625 
Q 3047 709 3200 863 
Q 3416 1078 3536 1442 
Q 3656 1806 3656 2325 
Q 3656 3044 3420 3430 
Q 3184 3816 2847 3947 
Q 2603 4041 2063 4041 
L 1100 4041 
L 1100 541 
z
" transform="scale(0.015625)"/>
       <path id="ArialMT-6d" d="M 422 0 
L 422 3319 
L 925 3319 
L 925 2853 
Q 1081 3097 1340 3245 
Q 1600 3394 1931 3394 
Q 2300 3394 2536 3241 
Q 2772 3088 2869 2813 
Q 3263 3394 3894 3394 
Q 4388 3394 4653 3120 
Q 4919 2847 4919 2278 
L 4919 0 
L 4359 0 
L 4359 2091 
Q 4359 2428 4304 2576 
Q 4250 2725 4106 2815 
Q 3963 2906 3769 2906 
Q 3419 2906 3187 2673 
Q 2956 2441 2956 1928 
L 2956 0 
L 2394 0 
L 2394 2156 
Q 2394 2531 2256 2718 
Q 2119 2906 1806 2906 
Q 1569 2906 1367 2781 
Q 1166 2656 1075 2415 
Q 984 2175 984 1722 
L 984 0 
L 422 0 
z
" transform="scale(0.015625)"/>
      </defs>
      <use xlink:href="#ArialMT-44"/>
      <use xlink:href="#ArialMT-65" transform="translate(72.216797 0)"/>
      <use xlink:href="#ArialMT-63" transform="translate(127.832031 0)"/>
      <use xlink:href="#ArialMT-69" transform="translate(177.832031 0)"/>
      <use xlink:href="#ArialMT-73" transform="translate(200.048828 0)"/>
      <use xlink:href="#ArialMT-69" transform="translate(250.048828 0)"/>
      <use xlink:href="#ArialMT-6f" transform="translate(272.265625 0)"/>
      <use xlink:href="#ArialMT-6e" transform="translate(327.880859 0)"/>
      <use xlink:href="#ArialMT-20" transform="translate(383.496094 0)"/>
      <use xlink:href="#ArialMT-6d" transform="translate(411.279297 0)"/>
      <use xlink:href="#ArialMT-6f" transform="translate(494.580078 0)"/>
      <use xlink:href="#ArialMT-64" transform="translate(550.195312 0)"/>
      <use xlink:href="#ArialMT-65" transform="translate(605.810547 0)"/>
     </g>
    </g>
   </g>
   <g id="matplotlib.axis_2">
    <g id="ytick_1">
     <g id="line2d_5">
      <path d="M 34.605 134.154545 
L 241.9375 134.154545 
" clip-path="url(#p2e31f20802)" style="fill: none; stroke: #b0b0b0; stroke-opacity: 0.3; stroke-width: 0.8; stroke-linecap: square"/>
     </g>
     <g id="line2d_6">
      <defs>
       <path id="m18da62e48b" d="M 0 0 
L -3.5 0 
" style="stroke: #000000; stroke-width: 0.8"/>
      </defs>
      <g>
       <use xlink:href="#m18da62e48b" x="34.605" y="134.154545" style="stroke: #000000; stroke-width: 0.8"/>
      </g>
     </g>
     <g id="text_6">
      <!-- 0 -->
      <g transform="translate(23.15625 137.01767) scale(0.08 -0.08)">
       <defs>
        <path id="ArialMT-30" d="M 266 2259 
Q 266 3072 433 3567 
Q 600 4063 929 4331 
Q 1259 4600 1759 4600 
Q 2128 4600 2406 4451 
Q 2684 4303 2865 4023 
Q 3047 3744 3150 3342 
Q 3253 2941 3253 2259 
Q 3253 1453 3087 958 
Q 2922 463 2592 192 
Q 2263 -78 1759 -78 
Q 1097 -78 719 397 
Q 266 969 266 2259 
z
M 844 2259 
Q 844 1131 1108 757 
Q 1372 384 1759 384 
Q 2147 384 2411 759 
Q 2675 1134 2675 2259 
Q 2675 3391 2411 3762 
Q 2147 4134 1753 4134 
Q 1366 4134 1134 3806 
Q 844 3388 844 2259 
z
" transform="scale(0.015625)"/>
       </defs>
       <use xlink:href="#ArialMT-30"/>
      </g>
     </g>
    </g>
    <g id="ytick_2">
     <g id="line2d_7">
      <path d="M 34.605 110.902797 
L 241.9375 110.902797 
" clip-path="url(#p2e31f20802)" style="fill: none; stroke: #b0b0b0; stroke-opacity: 0.3; stroke-width: 0.8; stroke-linecap: square"/>
     </g>
     <g id="line2d_8">
      <g>
       <use xlink:href="#m18da62e48b" x="34.605" y="110.902797" style="stroke: #000000; stroke-width: 0.8"/>
      </g>
     </g>
     <g id="text_7">
      <!-- 5 -->
      <g transform="translate(23.15625 113.765922) scale(0.08 -0.08)">
       <defs>
        <path id="ArialMT-35" d="M 266 1200 
L 856 1250 
Q 922 819 1161 601 
Q 1400 384 1738 384 
Q 2144 384 2425 690 
Q 2706 997 2706 1503 
Q 2706 1984 2436 2262 
Q 2166 2541 1728 2541 
Q 1456 2541 1237 2417 
Q 1019 2294 894 2097 
L 366 2166 
L 809 4519 
L 3088 4519 
L 3088 3981 
L 1259 3981 
L 1013 2750 
Q 1425 3038 1878 3038 
Q 2478 3038 2890 2622 
Q 3303 2206 3303 1553 
Q 3303 931 2941 478 
Q 2500 -78 1738 -78 
Q 1113 -78 717 272 
Q 322 622 266 1200 
z
" transform="scale(0.015625)"/>
       </defs>
       <use xlink:href="#ArialMT-35"/>
      </g>
     </g>
    </g>
    <g id="ytick_3">
     <g id="line2d_9">
      <path d="M 34.605 87.651049 
L 241.9375 87.651049 
" clip-path="url(#p2e31f20802)" style="fill: none; stroke: #b0b0b0; stroke-opacity: 0.3; stroke-width: 0.8; stroke-linecap: square"/>
     </g>
     <g id="line2d_10">
      <g>
       <use xlink:href="#m18da62e48b" x="34.605" y="87.651049" style="stroke: #000000; stroke-width: 0.8"/>
      </g>
     </g>
     <g id="text_8">
      <!-- 10 -->
      <g transform="translate(18.7075 90.514174) scale(0.08 -0.08)">
       <use xlink:href="#ArialMT-31"/>
       <use xlink:href="#ArialMT-30" transform="translate(55.615234 0)"/>
      </g>
     </g>
    </g>
    <g id="ytick_4">
     <g id="line2d_11">
      <path d="M 34.605 64.399301 
L 241.9375 64.399301 
" clip-path="url(#p2e31f20802)" style="fill: none; stroke: #b0b0b0; stroke-opacity: 0.3; stroke-width: 0.8; stroke-linecap: square"/>
     </g>
     <g id="line2d_12">
      <g>
       <use xlink:href="#m18da62e48b" x="34.605" y="64.399301" style="stroke: #000000; stroke-width: 0.8"/>
      </g>
     </g>
     <g id="text_9">
      <!-- 15 -->
      <g transform="translate(18.7075 67.262426) scale(0.08 -0.08)">
       <use xlink:href="#ArialMT-31"/>
       <use xlink:href="#ArialMT-35" transform="translate(55.615234 0)"/>
      </g>
     </g>
    </g>
    <g id="ytick_5">
     <g id="line2d_13">
      <path d="M 34.605 41.147552 
L 241.9375 41.147552 
" clip-path="url(#p2e31f20802)" style="fill: none; stroke: #b0b0b0; stroke-opacity: 0.3; stroke-width: 0.8; stroke-linecap: square"/>
     </g>
     <g id="line2d_14">
      <g>
       <use xlink:href="#m18da62e48b" x="34.605" y="41.147552" style="stroke: #000000; stroke-width: 0.8"/>
      </g>
     </g>
     <g id="text_10">
      <!-- 20 -->
      <g transform="translate(18.7075 44.010677) scale(0.08 -0.08)">
       <defs>
        <path id="ArialMT-32" d="M 3222 541 
L 3222 0 
L 194 0 
Q 188 203 259 391 
Q 375 700 629 1000 
Q 884 1300 1366 1694 
Q 2113 2306 2375 2664 
Q 2638 3022 2638 3341 
Q 2638 3675 2398 3904 
Q 2159 4134 1775 4134 
Q 1369 4134 1125 3890 
Q 881 3647 878 3216 
L 300 3275 
Q 359 3922 746 4261 
Q 1134 4600 1788 4600 
Q 2447 4600 2831 4234 
Q 3216 3869 3216 3328 
Q 3216 3053 3103 2787 
Q 2991 2522 2730 2228 
Q 2469 1934 1863 1422 
Q 1356 997 1212 845 
Q 1069 694 975 541 
L 3222 541 
z
" transform="scale(0.015625)"/>
       </defs>
       <use xlink:href="#ArialMT-32"/>
       <use xlink:href="#ArialMT-30" transform="translate(55.615234 0)"/>
      </g>
     </g>
    </g>
    <g id="ytick_6">
     <g id="line2d_15">
      <path d="M 34.605 17.895804 
L 241.9375 17.895804 
" clip-path="url(#p2e31f20802)" style="fill: none; stroke: #b0b0b0; stroke-opacity: 0.3; stroke-width: 0.8; stroke-linecap: square"/>
     </g>
     <g id="line2d_16">
      <g>
       <use xlink:href="#m18da62e48b" x="34.605" y="17.895804" style="stroke: #000000; stroke-width: 0.8"/>
      </g>
     </g>
     <g id="text_11">
      <!-- 25 -->
      <g transform="translate(18.7075 20.758929) scale(0.08 -0.08)">
       <use xlink:href="#ArialMT-32"/>
       <use xlink:href="#ArialMT-35" transform="translate(55.615234 0)"/>
      </g>
     </g>
    </g>
    <g id="text_12">
     <!-- First-departure timestep (hours) -->
     <g transform="translate(13.02375 129.935625) rotate(-90) scale(0.08 -0.08)">
      <defs>
       <path id="ArialMT-46" d="M 525 0 
L 525 4581 
L 3616 4581 
L 3616 4041 
L 1131 4041 
L 1131 2622 
L 3281 2622 
L 3281 2081 
L 1131 2081 
L 1131 0 
L 525 0 
z
" transform="scale(0.015625)"/>
       <path id="ArialMT-2d" d="M 203 1375 
L 203 1941 
L 1931 1941 
L 1931 1375 
L 203 1375 
z
" transform="scale(0.015625)"/>
       <path id="ArialMT-70" d="M 422 -1272 
L 422 3319 
L 934 3319 
L 934 2888 
Q 1116 3141 1344 3267 
Q 1572 3394 1897 3394 
Q 2322 3394 2647 3175 
Q 2972 2956 3137 2557 
Q 3303 2159 3303 1684 
Q 3303 1175 3120 767 
Q 2938 359 2589 142 
Q 2241 -75 1856 -75 
Q 1575 -75 1351 44 
Q 1128 163 984 344 
L 984 -1272 
L 422 -1272 
z
M 931 1641 
Q 931 1000 1190 694 
Q 1450 388 1819 388 
Q 2194 388 2461 705 
Q 2728 1022 2728 1688 
Q 2728 2322 2467 2637 
Q 2206 2953 1844 2953 
Q 1484 2953 1207 2617 
Q 931 2281 931 1641 
z
" transform="scale(0.015625)"/>
       <path id="ArialMT-75" d="M 2597 0 
L 2597 488 
Q 2209 -75 1544 -75 
Q 1250 -75 995 37 
Q 741 150 617 320 
Q 494 491 444 738 
Q 409 903 409 1263 
L 409 3319 
L 972 3319 
L 972 1478 
Q 972 1038 1006 884 
Q 1059 663 1231 536 
Q 1403 409 1656 409 
Q 1909 409 2131 539 
Q 2353 669 2445 892 
Q 2538 1116 2538 1541 
L 2538 3319 
L 3100 3319 
L 3100 0 
L 2597 0 
z
" transform="scale(0.015625)"/>
       <path id="ArialMT-28" d="M 1497 -1347 
Q 1031 -759 709 28 
Q 388 816 388 1659 
Q 388 2403 628 3084 
Q 909 3875 1497 4659 
L 1900 4659 
Q 1522 4009 1400 3731 
Q 1209 3300 1100 2831 
Q 966 2247 966 1656 
Q 966 153 1900 -1347 
L 1497 -1347 
z
" transform="scale(0.015625)"/>
       <path id="ArialMT-29" d="M 791 -1347 
L 388 -1347 
Q 1322 153 1322 1656 
Q 1322 2244 1188 2822 
Q 1081 3291 891 3722 
Q 769 4003 388 4659 
L 791 4659 
Q 1378 3875 1659 3084 
Q 1900 2403 1900 1659 
Q 1900 816 1576 28 
Q 1253 -759 791 -1347 
z
" transform="scale(0.015625)"/>
      </defs>
      <use xlink:href="#ArialMT-46"/>
      <use xlink:href="#ArialMT-69" transform="translate(61.083984 0)"/>
      <use xlink:href="#ArialMT-72" transform="translate(83.300781 0)"/>
      <use xlink:href="#ArialMT-73" transform="translate(116.601562 0)"/>
      <use xlink:href="#ArialMT-74" transform="translate(166.601562 0)"/>
      <use xlink:href="#ArialMT-2d" transform="translate(194.384766 0)"/>
      <use xlink:href="#ArialMT-64" transform="translate(227.685547 0)"/>
      <use xlink:href="#ArialMT-65" transform="translate(283.300781 0)"/>
      <use xlink:href="#ArialMT-70" transform="translate(338.916016 0)"/>
      <use xlink:href="#ArialMT-61" transform="translate(394.53125 0)"/>
      <use xlink:href="#ArialMT-72" transform="translate(450.146484 0)"/>
      <use xlink:href="#ArialMT-74" transform="translate(483.447266 0)"/>
      <use xlink:href="#ArialMT-75" transform="translate(511.230469 0)"/>
      <use xlink:href="#ArialMT-72" transform="translate(566.845703 0)"/>
      <use xlink:href="#ArialMT-65" transform="translate(600.146484 0)"/>
      <use xlink:href="#ArialMT-20" transform="translate(655.761719 0)"/>
      <use xlink:href="#ArialMT-74" transform="translate(683.544922 0)"/>
      <use xlink:href="#ArialMT-69" transform="translate(711.328125 0)"/>
      <use xlink:href="#ArialMT-6d" transform="translate(733.544922 0)"/>
      <use xlink:href="#ArialMT-65" transform="translate(816.845703 0)"/>
      <use xlink:href="#ArialMT-73" transform="translate(872.460938 0)"/>
      <use xlink:href="#ArialMT-74" transform="translate(922.460938 0)"/>
      <use xlink:href="#ArialMT-65" transform="translate(950.244141 0)"/>
      <use xlink:href="#ArialMT-70" transform="translate(1005.859375 0)"/>
      <use xlink:href="#ArialMT-20" transform="translate(1061.474609 0)"/>
      <use xlink:href="#ArialMT-28" transform="translate(1089.257812 0)"/>
      <use xlink:href="#ArialMT-68" transform="translate(1122.558594 0)"/>
      <use xlink:href="#ArialMT-6f" transform="translate(1178.173828 0)"/>
      <use xlink:href="#ArialMT-75" transform="translate(1233.789062 0)"/>
      <use xlink:href="#ArialMT-72" transform="translate(1289.404297 0)"/>
      <use xlink:href="#ArialMT-73" transform="translate(1322.705078 0)"/>
      <use xlink:href="#ArialMT-29" transform="translate(1372.705078 0)"/>
     </g>
    </g>
   </g>
   <g id="LineCollection_1">
    <path d="M 52.943993 124.462442 
L 70.773569 124.462442 
" clip-path="url(#p2e31f20802)" style="fill: none; stroke: #1f77b4; stroke-width: 1.5"/>
   </g>
   <g id="LineCollection_2">
    <path d="M 52.943993 13.245455 
L 70.773569 13.245455 
" clip-path="url(#p2e31f20802)" style="fill: none; stroke: #1f77b4; stroke-width: 1.5"/>
   </g>
   <g id="LineCollection_3">
    <path d="M 52.943993 134.154545 
L 70.773569 134.154545 
" clip-path="url(#p2e31f20802)" style="fill: none; stroke: #1f77b4; stroke-width: 1.5"/>
   </g>
   <g id="LineCollection_4">
    <path d="M 61.858781 134.154545 
L 61.858781 13.245455 
" clip-path="url(#p2e31f20802)" style="fill: none; stroke: #1f77b4; stroke-width: 1.5"/>
   </g>
   <g id="LineCollection_5">
    <path d="M 52.943993 129.504196 
L 70.773569 129.504196 
" clip-path="url(#p2e31f20802)" style="fill: none; stroke: #1f77b4; stroke-width: 1.5"/>
   </g>
   <g id="LineCollection_6">
    <path d="M 103.885639 124.462442 
L 121.715215 124.462442 
" clip-path="url(#p2e31f20802)" style="fill: none; stroke: #ff7f0e; stroke-width: 1.5"/>
   </g>
   <g id="LineCollection_7">
    <path d="M 103.885639 13.245455 
L 121.715215 13.245455 
" clip-path="url(#p2e31f20802)" style="fill: none; stroke: #ff7f0e; stroke-width: 1.5"/>
   </g>
   <g id="LineCollection_8">
    <path d="M 103.885639 134.154545 
L 121.715215 134.154545 
" clip-path="url(#p2e31f20802)" style="fill: none; stroke: #ff7f0e; stroke-width: 1.5"/>
   </g>
   <g id="LineCollection_9">
    <path d="M 112.800427 134.154545 
L 112.800427 13.245455 
" clip-path="url(#p2e31f20802)" style="fill: none; stroke: #ff7f0e; stroke-width: 1.5"/>
   </g>
   <g id="LineCollection_10">
    <path d="M 103.885639 129.504196 
L 121.715215 129.504196 
" clip-path="url(#p2e31f20802)" style="fill: none; stroke: #ff7f0e; stroke-width: 1.5"/>
   </g>
   <g id="LineCollection_11">
    <path d="M 154.827285 127.174371 
L 172.656861 127.174371 
" clip-path="url(#p2e31f20802)" style="fill: none; stroke: #2ca02c; stroke-width: 1.5"/>
   </g>
   <g id="LineCollection_12">
    <path d="M 154.827285 36.497203 
L 172.656861 36.497203 
" clip-path="url(#p2e31f20802)" style="fill: none; stroke: #2ca02c; stroke-width: 1.5"/>
   </g>
   <g id="LineCollection_13">
    <path d="M 154.827285 134.154545 
L 172.656861 134.154545 
" clip-path="url(#p2e31f20802)" style="fill: none; stroke: #2ca02c; stroke-width: 1.5"/>
   </g>
   <g id="LineCollection_14">
    <path d="M 163.742073 134.154545 
L 163.742073 36.497203 
" clip-path="url(#p2e31f20802)" style="fill: none; stroke: #2ca02c; stroke-width: 1.5"/>
   </g>
   <g id="LineCollection_15">
    <path d="M 154.827285 129.504196 
L 172.656861 129.504196 
" clip-path="url(#p2e31f20802)" style="fill: none; stroke: #2ca02c; stroke-width: 1.5"/>
   </g>
   <g id="LineCollection_16">
    <path d="M 205.768931 127.766515 
L 223.598507 127.766515 
" clip-path="url(#p2e31f20802)" style="fill: none; stroke: #d62728; stroke-width: 1.5"/>
   </g>
   <g id="LineCollection_17">
    <path d="M 205.768931 50.448252 
L 223.598507 50.448252 
" clip-path="url(#p2e31f20802)" style="fill: none; stroke: #d62728; stroke-width: 1.5"/>
   </g>
   <g id="LineCollection_18">
    <path d="M 205.768931 134.154545 
L 223.598507 134.154545 
" clip-path="url(#p2e31f20802)" style="fill: none; stroke: #d62728; stroke-width: 1.5"/>
   </g>
   <g id="LineCollection_19">
    <path d="M 214.683719 134.154545 
L 214.683719 50.448252 
" clip-path="url(#p2e31f20802)" style="fill: none; stroke: #d62728; stroke-width: 1.5"/>
   </g>
   <g id="LineCollection_20">
    <path d="M 205.768931 129.504196 
L 223.598507 129.504196 
" clip-path="url(#p2e31f20802)" style="fill: none; stroke: #d62728; stroke-width: 1.5"/>
   </g>
   <g id="patch_3">
    <path d="M 34.605 140.2 
L 34.605 7.2 
" style="fill: none; stroke: #000000; stroke-width: 0.5; stroke-linejoin: miter; stroke-linecap: square"/>
   </g>
   <g id="patch_4">
    <path d="M 34.605 140.2 
L 241.9375 140.2 
" style="fill: none; stroke: #000000; stroke-width: 0.5; stroke-linejoin: miter; stroke-linecap: square"/>
   </g>
   <g id="text_13">
    <g id="patch_5">
     <path d="M 165.7421 23.658125 
L 237.79085 23.658125 
Q 239.59085 23.658125 239.59085 21.858125 
L 239.59085 9.930312 
Q 239.59085 8.130312 237.79085 8.130312 
L 165.7421 8.130312 
Q 163.9421 8.130312 163.9421 9.930312 
L 163.9421 21.858125 
Q 163.9421 23.658125 165.7421 23.658125 
z
" style="fill: #ffffff; opacity: 0.9; stroke: #808080; stroke-linejoin: miter"/>
    </g>
    <!-- α=2.0, β=2.0, κ=5.0 -->
    <g transform="translate(185.670538 14.227812) scale(0.06 -0.06)">
     <defs>
      <path id="ArialMT-3b1" d="M 2884 3319 
L 3459 3319 
Q 3241 2631 3056 1659 
Q 3275 453 3459 0 
L 2900 0 
Q 2766 313 2697 606 
Q 2438 -75 1613 -75 
Q 988 -75 606 394 
Q 225 863 225 1666 
Q 225 2491 608 2942 
Q 991 3394 1622 3394 
Q 2013 3394 2259 3236 
Q 2506 3078 2719 2756 
Q 2741 2866 2884 3319 
z
M 1716 2928 
Q 1313 2928 1078 2603 
Q 844 2278 844 1666 
Q 844 1069 1066 728 
Q 1288 388 1684 388 
Q 2072 388 2331 723 
Q 2591 1059 2591 1691 
Q 2591 2303 2348 2615 
Q 2106 2928 1716 2928 
z
" transform="scale(0.015625)"/>
      <path id="ArialMT-3d" d="M 3381 2694 
L 356 2694 
L 356 3219 
L 3381 3219 
L 3381 2694 
z
M 3381 1303 
L 356 1303 
L 356 1828 
L 3381 1828 
L 3381 1303 
z
" transform="scale(0.015625)"/>
      <path id="ArialMT-2e" d="M 581 0 
L 581 641 
L 1222 641 
L 1222 0 
L 581 0 
z
" transform="scale(0.015625)"/>
      <path id="ArialMT-2c" d="M 569 0 
L 569 641 
L 1209 641 
L 1209 0 
Q 1209 -353 1084 -570 
Q 959 -788 688 -906 
L 531 -666 
Q 709 -588 793 -436 
Q 878 -284 888 0 
L 569 0 
z
" transform="scale(0.015625)"/>
      <path id="ArialMT-3b2" d="M 997 422 
L 997 -1272 
L 438 -1272 
L 438 3144 
Q 438 3672 580 3970 
Q 722 4269 1069 4464 
Q 1416 4659 1841 4659 
Q 2469 4659 2792 4298 
Q 3116 3938 3116 3509 
Q 3116 3091 2855 2834 
Q 2594 2578 2256 2519 
Q 2800 2466 3095 2128 
Q 3391 1791 3391 1297 
Q 3391 766 3042 345 
Q 2694 -75 2034 -75 
Q 1359 -75 997 422 
z
M 1494 2700 
Q 2069 2700 2331 2900 
Q 2594 3100 2594 3478 
Q 2594 3784 2370 3990 
Q 2147 4197 1813 4197 
Q 1522 4197 1308 4044 
Q 1094 3891 1045 3703 
Q 997 3516 997 3047 
L 997 1788 
Q 997 1250 1072 997 
Q 1147 744 1394 541 
Q 1641 338 1963 338 
Q 2353 338 2579 605 
Q 2806 872 2806 1266 
Q 2806 1591 2639 1848 
Q 2472 2106 2226 2198 
Q 1981 2291 1575 2291 
L 1494 2291 
L 1494 2700 
z
" transform="scale(0.015625)"/>
      <path id="ArialMT-3ba" d="M 419 3319 
L 978 3319 
L 978 2016 
L 2325 3319 
L 3069 3319 
L 1584 1941 
L 3197 0 
L 2478 0 
L 1184 1563 
L 978 1372 
L 978 0 
L 419 0 
L 419 3319 
z
" transform="scale(0.015625)"/>
     </defs>
     <use xlink:href="#ArialMT-3b1"/>
     <use xlink:href="#ArialMT-3d" transform="translate(57.8125 0)"/>
     <use xlink:href="#ArialMT-32" transform="translate(116.210938 0)"/>
     <use xlink:href="#ArialMT-2e" transform="translate(171.826172 0)"/>
     <use xlink:href="#ArialMT-30" transform="translate(199.609375 0)"/>
     <use xlink:href="#ArialMT-2c" transform="translate(255.224609 0)"/>
     <use xlink:href="#ArialMT-20" transform="translate(283.007812 0)"/>
     <use xlink:href="#ArialMT-3b2" transform="translate(310.791016 0)"/>
     <use xlink:href="#ArialMT-3d" transform="translate(368.310547 0)"/>
     <use xlink:href="#ArialMT-32" transform="translate(426.708984 0)"/>
     <use xlink:href="#ArialMT-2e" transform="translate(482.324219 0)"/>
     <use xlink:href="#ArialMT-30" transform="translate(510.107422 0)"/>
     <use xlink:href="#ArialMT-2c" transform="translate(565.722656 0)"/>
     <use xlink:href="#ArialMT-20" transform="translate(593.505859 0)"/>
     <use xlink:href="#ArialMT-3ba" transform="translate(621.289062 0)"/>
     <use xlink:href="#ArialMT-3d" transform="translate(671.289062 0)"/>
     <use xlink:href="#ArialMT-35" transform="translate(729.6875 0)"/>
     <use xlink:href="#ArialMT-2e" transform="translate(785.302734 0)"/>
     <use xlink:href="#ArialMT-30" transform="translate(813.085938 0)"/>
    </g>
    <!-- N_agents=500, N_runs=10 -->
    <g transform="translate(165.7421 20.595312) scale(0.06 -0.06)">
     <defs>
      <path id="ArialMT-4e" d="M 488 0 
L 488 4581 
L 1109 4581 
L 3516 984 
L 3516 4581 
L 4097 4581 
L 4097 0 
L 3475 0 
L 1069 3600 
L 1069 0 
L 488 0 
z
" transform="scale(0.015625)"/>
      <path id="ArialMT-5f" d="M -97 -1272 
L -97 -866 
L 3631 -866 
L 3631 -1272 
L -97 -1272 
z
" transform="scale(0.015625)"/>
     </defs>
     <use xlink:href="#ArialMT-4e"/>
     <use xlink:href="#ArialMT-5f" transform="translate(72.216797 0)"/>
     <use xlink:href="#ArialMT-61" transform="translate(127.832031 0)"/>
     <use xlink:href="#ArialMT-67" transform="translate(183.447266 0)"/>
     <use xlink:href="#ArialMT-65" transform="translate(239.0625 0)"/>
     <use xlink:href="#ArialMT-6e" transform="translate(294.677734 0)"/>
     <use xlink:href="#ArialMT-74" transform="translate(350.292969 0)"/>
     <use xlink:href="#ArialMT-73" transform="translate(378.076172 0)"/>
     <use xlink:href="#ArialMT-3d" transform="translate(428.076172 0)"/>
     <use xlink:href="#ArialMT-35" transform="translate(486.474609 0)"/>
     <use xlink:href="#ArialMT-30" transform="translate(542.089844 0)"/>
     <use xlink:href="#ArialMT-30" transform="translate(597.705078 0)"/>
     <use xlink:href="#ArialMT-2c" transform="translate(653.320312 0)"/>
     <use xlink:href="#ArialMT-20" transform="translate(681.103516 0)"/>
     <use xlink:href="#ArialMT-4e" transform="translate(708.886719 0)"/>
     <use xlink:href="#ArialMT-5f" transform="translate(781.103516 0)"/>
     <use xlink:href="#ArialMT-72" transform="translate(836.71875 0)"/>
     <use xlink:href="#ArialMT-75" transform="translate(870.019531 0)"/>
     <use xlink:href="#ArialMT-6e" transform="translate(925.634766 0)"/>
     <use xlink:href="#ArialMT-73" transform="translate(981.25 0)"/>
     <use xlink:href="#ArialMT-3d" transform="translate(1031.25 0)"/>
     <use xlink:href="#ArialMT-31" transform="translate(1089.648438 0)"/>
     <use xlink:href="#ArialMT-30" transform="translate(1145.263672 0)"/>
    </g>
   </g>
  </g>
 </g>
 <defs>
  <clipPath id="p2e31f20802">
   <rect x="34.605" y="7.2" width="207.3325" height="133"/>
  </clipPath>
 </defs>
</svg>
