<?xml version="1.0" encoding="utf-8" standalone="no"?>
<!DOCTYPE svg PUBLIC "-//W3C//DTD SVG 1.1//EN"
  "http://www.w3.org/Graphics/SVG/1.1/DTD/svg11.dtd">
<svg xmlns:xlink="http://www.w3.org/1999/xlink" width="249.1375pt" height="173.15pt" viewBox="0 0 249.1375 173.15" xmlns="http://www.w3.org/2000/svg" version="1.1">
 <metadata>
  <rdf:RDF xmlns:dc="http://purl.org/dc/elements/1.1/" xmlns:cc="http://creativecommons.org/ns#" xmlns:rdf="http://www.w3.org/1999/02/22-rdf-syntax-ns#">
   <cc:Work>
    <dc:type rdf:resource="http://purl.org/dc/dcmitype/StillImage"/>
    <dc:date>2026-03-22T21:30:02.652423</dc:date>
    <dc:format>image/svg+xml</dc:format>
    <dc:creator>
     <cc:Agent>
      <dc:title>Matplotlib v3.10.7, https://matplotlib.org/</dc:title>
     </cc:Agent>
    </dc:creator>
   </cc:Work>
  </rdf:RDF>
 </metadata>
 <defs>
  <style type="text/css">*{stroke-linejoin: round; stroke-linecap: butt}</style>
 </defs>
 <g id="figure_1">
  <g id="patch_1">
   <path d="M 0 173.15 
L 249.1375 173.15 
L 249.1375 0 
L 0 0 
z
" style="fill: #ffffff"/>
  </g>
  <g id="axes_1">
   <g id="patch_2">
    <path d="M 34.605 140.2 
L 241.9375 140.2 
L 241.9375 7.2 
L 34.605 7.2 
z
" style="fill: #ffffff"/>
   </g>
   <g id="FillBetweenPolyCollection_1">
    <path d="M 79.322982 134.154545 
L 44.39458 134.154545 
L 44.029205 133.238567 
L 44.886874 132.32259 
L 45.9305 131.406612 
L 46.754135 130.490634 
L 47.624662 129.574656 
L 48.761556 128.658678 
L 49.927719 127.7427 
L 50.794109 126.826722 
L 51.406751 125.910744 
L 52.0615 124.994766 
L 52.846348 124.078788 
L 53.55296 123.16281 
L 54.033888 122.246832 
L 54.430591 121.330854 
L 54.955798 120.414876 
L 55.592854 119.498898 
L 56.148928 118.58292 
L 56.542062 117.666942 
L 56.889948 116.750964 
L 57.308772 115.834986 
L 57.749318 114.919008 
L 58.09315 114.00303 
L 58.330776 113.087052 
L 58.556968 112.171074 
L 58.819558 111.255096 
L 59.060844 110.339118 
L 59.221727 109.42314 
L 59.333883 108.507163 
L 59.466613 107.591185 
L 59.624564 106.675207 
L 59.753974 105.759229 
L 59.83879 104.843251 
L 59.936495 103.927273 
L 60.103049 103.011295 
L 60.319403 102.095317 
L 60.518995 101.179339 
L 60.666646 100.263361 
L 60.780178 99.347383 
L 60.88318 98.431405 
L 60.969878 97.515427 
L 61.026062 96.599449 
L 61.060747 95.683471 
L 61.096839 94.767493 
L 61.139406 93.851515 
L 61.172812 92.935537 
L 61.189654 92.019559 
L 61.205811 91.103581 
L 61.239335 90.187603 
L 61.285947 89.271625 
L 61.32689 88.355647 
L 61.355686 87.439669 
L 61.384708 86.523691 
L 61.424958 85.607713 
L 61.470515 84.691736 
L 61.508322 83.775758 
L 61.535993 82.85978 
L 61.562122 81.943802 
L 61.59193 81.027824 
L 61.620699 80.111846 
L 61.642551 79.195868 
L 61.659458 78.27989 
L 61.677743 77.363912 
L 61.699006 76.447934 
L 61.71898 75.531956 
L 61.734532 74.615978 
L 61.747852 73.7 
L 61.762703 72.784022 
L 61.779147 71.868044 
L 61.793763 70.952066 
L 61.803666 70.036088 
L 61.808456 69.12011 
L 61.808826 68.204132 
L 61.805415 67.288154 
L 61.799721 66.372176 
L 61.794621 65.456198 
L 61.79241 64.54022 
L 61.792633 63.624242 
L 61.793112 62.708264 
L 61.793308 61.792287 
L 61.795524 60.876309 
L 61.802227 59.960331 
L 61.812889 59.044353 
L 61.824157 58.128375 
L 61.832617 57.212397 
L 61.836722 56.296419 
L 61.836559 55.380441 
L 61.8331 54.464463 
L 61.82829 53.548485 
L 61.825048 52.632507 
L 61.825969 51.716529 
L 61.831496 50.800551 
L 61.839566 49.884573 
L 61.847159 48.968595 
L 61.852154 48.052617 
L 61.853986 47.136639 
L 61.853229 46.220661 
L 61.85105 45.304683 
L 61.848879 44.388705 
L 61.84799 43.472727 
L 61.869572 43.472727 
L 61.869572 43.472727 
L 61.868682 44.388705 
L 61.866511 45.304683 
L 61.864332 46.220661 
L 61.863575 47.136639 
L 61.865407 48.052617 
L 61.870402 48.968595 
L 61.877995 49.884573 
L 61.886065 50.800551 
L 61.891592 51.716529 
L 61.892513 52.632507 
L 61.889272 53.548485 
L 61.884461 54.464463 
L 61.881002 55.380441 
L 61.880839 56.296419 
L 61.884945 57.212397 
L 61.893405 58.128375 
L 61.904673 59.044353 
L 61.915335 59.960331 
L 61.922037 60.876309 
L 61.924254 61.792287 
L 61.924449 62.708264 
L 61.924929 63.624242 
L 61.925151 64.54022 
L 61.922941 65.456198 
L 61.91784 66.372176 
L 61.912147 67.288154 
L 61.908735 68.204132 
L 61.909106 69.12011 
L 61.913896 70.036088 
L 61.923799 70.952066 
L 61.938414 71.868044 
L 61.954858 72.784022 
L 61.969709 73.7 
L 61.98303 74.615978 
L 61.998582 75.531956 
L 62.018556 76.447934 
L 62.039818 77.363912 
L 62.058103 78.27989 
L 62.07501 79.195868 
L 62.096862 80.111846 
L 62.125631 81.027824 
L 62.15544 81.943802 
L 62.181569 82.85978 
L 62.20924 83.775758 
L 62.247046 84.691736 
L 62.292603 85.607713 
L 62.332853 86.523691 
L 62.361875 87.439669 
L 62.390672 88.355647 
L 62.431615 89.271625 
L 62.478227 90.187603 
L 62.511751 91.103581 
L 62.527907 92.019559 
L 62.54475 92.935537 
L 62.578155 93.851515 
L 62.620722 94.767493 
L 62.656814 95.683471 
L 62.6915 96.599449 
L 62.747683 97.515427 
L 62.834382 98.431405 
L 62.937383 99.347383 
L 63.050915 100.263361 
L 63.198566 101.179339 
L 63.398158 102.095317 
L 63.614512 103.011295 
L 63.781067 103.927273 
L 63.878771 104.843251 
L 63.963588 105.759229 
L 64.092998 106.675207 
L 64.250949 107.591185 
L 64.383679 108.507163 
L 64.495834 109.42314 
L 64.656717 110.339118 
L 64.898003 111.255096 
L 65.160594 112.171074 
L 65.386785 113.087052 
L 65.624412 114.00303 
L 65.968244 114.919008 
L 66.40879 115.834986 
L 66.827613 116.750964 
L 67.175499 117.666942 
L 67.568634 118.58292 
L 68.124707 119.498898 
L 68.761763 120.414876 
L 69.28697 121.330854 
L 69.683673 122.246832 
L 70.164602 123.16281 
L 70.871213 124.078788 
L 71.656062 124.994766 
L 72.31081 125.910744 
L 72.923453 126.826722 
L 73.789842 127.7427 
L 74.956006 128.658678 
L 76.092899 129.574656 
L 76.963426 130.490634 
L 77.787061 131.406612 
L 78.830687 132.32259 
L 79.688357 133.238567 
L 79.322982 134.154545 
z
" clip-path="url(#pa1a6bb10ff)" style="fill: #888780; fill-opacity: 0.7"/>
   </g>
   <g id="FillBetweenPolyCollection_2">
    <path d="M 130.264628 134.154545 
L 95.336226 134.154545 
L 94.970851 133.238567 
L 95.82852 132.32259 
L 96.872146 131.406612 
L 97.695781 130.490634 
L 98.566309 129.574656 
L 99.703202 128.658678 
L 100.869366 127.7427 
L 101.735755 126.826722 
L 102.348397 125.910744 
L 103.003146 124.994766 
L 103.787995 124.078788 
L 104.494606 123.16281 
L 104.975534 122.246832 
L 105.372238 121.330854 
L 105.897444 120.414876 
L 106.5345 119.498898 
L 107.090574 118.58292 
L 107.483709 117.666942 
L 107.831594 116.750964 
L 108.250418 115.834986 
L 108.690964 114.919008 
L 109.034796 114.00303 
L 109.272422 113.087052 
L 109.498614 112.171074 
L 109.761204 111.255096 
L 110.002491 110.339118 
L 110.163374 109.42314 
L 110.275529 108.507163 
L 110.408259 107.591185 
L 110.56621 106.675207 
L 110.69562 105.759229 
L 110.780436 104.843251 
L 110.878141 103.927273 
L 111.044695 103.011295 
L 111.261049 102.095317 
L 111.460642 101.179339 
L 111.608293 100.263361 
L 111.721824 99.347383 
L 111.824826 98.431405 
L 111.911524 97.515427 
L 111.967708 96.599449 
L 112.002394 95.683471 
L 112.038486 94.767493 
L 112.081053 93.851515 
L 112.114458 92.935537 
L 112.1313 92.019559 
L 112.147457 91.103581 
L 112.180981 90.187603 
L 112.227593 89.271625 
L 112.268536 88.355647 
L 112.297332 87.439669 
L 112.326354 86.523691 
L 112.366604 85.607713 
L 112.412161 84.691736 
L 112.449968 83.775758 
L 112.477639 82.85978 
L 112.503768 81.943802 
L 112.533576 81.027824 
L 112.562345 80.111846 
L 112.584197 79.195868 
L 112.601104 78.27989 
L 112.619389 77.363912 
L 112.640652 76.447934 
L 112.660626 75.531956 
L 112.676178 74.615978 
L 112.689498 73.7 
L 112.704349 72.784022 
L 112.720793 71.868044 
L 112.735409 70.952066 
L 112.745312 70.036088 
L 112.750102 69.12011 
L 112.750472 68.204132 
L 112.747061 67.288154 
L 112.741367 66.372176 
L 112.736267 65.456198 
L 112.734057 64.54022 
L 112.734279 63.624242 
L 112.734759 62.708264 
L 112.734954 61.792287 
L 112.73717 60.876309 
L 112.743873 59.960331 
L 112.754535 59.044353 
L 112.765803 58.128375 
L 112.774263 57.212397 
L 112.778369 56.296419 
L 112.778205 55.380441 
L 112.774747 54.464463 
L 112.769936 53.548485 
L 112.766694 52.632507 
L 112.767615 51.716529 
L 112.773142 50.800551 
L 112.781212 49.884573 
L 112.788805 48.968595 
L 112.793801 48.052617 
L 112.795632 47.136639 
L 112.794875 46.220661 
L 112.792696 45.304683 
L 112.790525 44.388705 
L 112.789636 43.472727 
L 112.811218 43.472727 
L 112.811218 43.472727 
L 112.810328 44.388705 
L 112.808158 45.304683 
L 112.805979 46.220661 
L 112.805221 47.136639 
L 112.807053 48.052617 
L 112.812048 48.968595 
L 112.819641 49.884573 
L 112.827711 50.800551 
L 112.833239 51.716529 
L 112.834159 52.632507 
L 112.830918 53.548485 
L 112.826107 54.464463 
L 112.822648 55.380441 
L 112.822485 56.296419 
L 112.826591 57.212397 
L 112.835051 58.128375 
L 112.846319 59.044353 
L 112.856981 59.960331 
L 112.863683 60.876309 
L 112.8659 61.792287 
L 112.866095 62.708264 
L 112.866575 63.624242 
L 112.866797 64.54022 
L 112.864587 65.456198 
L 112.859486 66.372176 
L 112.853793 67.288154 
L 112.850382 68.204132 
L 112.850752 69.12011 
L 112.855542 70.036088 
L 112.865445 70.952066 
L 112.880061 71.868044 
L 112.896505 72.784022 
L 112.911355 73.7 
L 112.924676 74.615978 
L 112.940228 75.531956 
L 112.960202 76.447934 
L 112.981465 77.363912 
L 112.999749 78.27989 
L 113.016656 79.195868 
L 113.038508 80.111846 
L 113.067278 81.027824 
L 113.097086 81.943802 
L 113.123215 82.85978 
L 113.150886 83.775758 
L 113.188692 84.691736 
L 113.234249 85.607713 
L 113.2745 86.523691 
L 113.303522 87.439669 
L 113.332318 88.355647 
L 113.373261 89.271625 
L 113.419873 90.187603 
L 113.453397 91.103581 
L 113.469554 92.019559 
L 113.486396 92.935537 
L 113.519801 93.851515 
L 113.562368 94.767493 
L 113.59846 95.683471 
L 113.633146 96.599449 
L 113.68933 97.515427 
L 113.776028 98.431405 
L 113.879029 99.347383 
L 113.992561 100.263361 
L 114.140212 101.179339 
L 114.339805 102.095317 
L 114.556159 103.011295 
L 114.722713 103.927273 
L 114.820418 104.843251 
L 114.905234 105.759229 
L 115.034644 106.675207 
L 115.192595 107.591185 
L 115.325325 108.507163 
L 115.43748 109.42314 
L 115.598363 110.339118 
L 115.83965 111.255096 
L 116.10224 112.171074 
L 116.328431 113.087052 
L 116.566058 114.00303 
L 116.90989 114.919008 
L 117.350436 115.834986 
L 117.769259 116.750964 
L 118.117145 117.666942 
L 118.51028 118.58292 
L 119.066353 119.498898 
L 119.703409 120.414876 
L 120.228616 121.330854 
L 120.62532 122.246832 
L 121.106248 123.16281 
L 121.812859 124.078788 
L 122.597708 124.994766 
L 123.252456 125.910744 
L 123.865099 126.826722 
L 124.731488 127.7427 
L 125.897652 128.658678 
L 127.034545 129.574656 
L 127.905072 130.490634 
L 128.728707 131.406612 
L 129.772334 132.32259 
L 130.630003 133.238567 
L 130.264628 134.154545 
z
" clip-path="url(#pa1a6bb10ff)" style="fill: #378add; fill-opacity: 0.7"/>
   </g>
   <g id="FillBetweenPolyCollection_3">
    <path d="M 181.571649 134.154545 
L 145.912497 134.154545 
L 147.46598 132.933242 
L 150.616905 131.711938 
L 151.945517 130.490634 
L 153.044038 129.26933 
L 154.907217 128.048026 
L 155.898971 126.826722 
L 156.161674 125.605418 
L 157.215717 124.384114 
L 158.527798 123.16281 
L 159.059055 121.941506 
L 159.470082 120.720202 
L 160.265822 119.498898 
L 160.795047 118.277594 
L 160.96463 117.05629 
L 161.351281 115.834986 
L 161.853155 114.613682 
L 162.073708 113.392378 
L 162.201518 112.171074 
L 162.4345 110.94977 
L 162.561542 109.728466 
L 162.565223 108.507163 
L 162.681907 107.285859 
L 162.860531 106.064555 
L 162.922643 104.843251 
L 162.969139 103.621947 
L 163.11469 102.400643 
L 163.244082 101.179339 
L 163.290967 99.958035 
L 163.335899 98.736731 
L 163.382386 97.515427 
L 163.379569 96.294123 
L 163.380654 95.072819 
L 163.437353 93.851515 
L 163.492012 92.630211 
L 163.508091 91.408907 
L 163.524283 90.187603 
L 163.542147 88.966299 
L 163.533518 87.744995 
L 163.52965 86.523691 
L 163.565853 85.302388 
L 163.609838 84.081084 
L 163.630895 82.85978 
L 163.646454 81.638476 
L 163.666228 80.417172 
L 163.676824 79.195868 
L 163.680791 77.974564 
L 163.689737 76.75326 
L 163.698283 75.531956 
L 163.700177 74.310652 
L 163.702081 73.089348 
L 163.70553 71.868044 
L 163.704462 70.64674 
L 163.702453 69.425436 
L 163.706266 68.204132 
L 163.711019 66.982828 
L 163.711994 65.761524 
L 163.715353 64.54022 
L 163.724797 63.318916 
L 163.734612 62.097612 
L 163.739966 60.876309 
L 163.741684 59.655005 
L 163.742 58.433701 
L 163.741864 57.212397 
L 163.741071 55.991093 
L 163.738892 54.769789 
L 163.735512 53.548485 
L 163.733282 52.327181 
L 163.734414 51.105877 
L 163.737675 49.884573 
L 163.739942 48.663269 
L 163.73897 47.441965 
L 163.7331 46.220661 
L 163.723107 44.999357 
L 163.715872 43.778053 
L 163.718551 42.556749 
L 163.728352 41.335445 
L 163.736873 40.114141 
L 163.740793 38.892837 
L 163.741868 37.671534 
L 163.742052 36.45023 
L 163.742072 35.228926 
L 163.742073 34.007622 
L 163.742073 32.786318 
L 163.742073 31.565014 
L 163.742073 30.34371 
L 163.742073 29.122406 
L 163.742073 27.901102 
L 163.742073 26.679798 
L 163.742072 25.458494 
L 163.742059 24.23719 
L 163.741953 23.015886 
L 163.741407 21.794582 
L 163.739679 20.573278 
L 163.736458 19.351974 
L 163.733342 18.13067 
L 163.732481 16.909366 
L 163.733013 15.688062 
L 163.732725 14.466758 
L 163.732624 13.245455 
L 163.751523 13.245455 
L 163.751523 13.245455 
L 163.751421 14.466758 
L 163.751133 15.688062 
L 163.751665 16.909366 
L 163.750804 18.13067 
L 163.747689 19.351974 
L 163.744467 20.573278 
L 163.742739 21.794582 
L 163.742194 23.015886 
L 163.742087 24.23719 
L 163.742074 25.458494 
L 163.742073 26.679798 
L 163.742073 27.901102 
L 163.742073 29.122406 
L 163.742073 30.34371 
L 163.742073 31.565014 
L 163.742073 32.786318 
L 163.742073 34.007622 
L 163.742075 35.228926 
L 163.742094 36.45023 
L 163.742278 37.671534 
L 163.743353 38.892837 
L 163.747273 40.114141 
L 163.755794 41.335445 
L 163.765596 42.556749 
L 163.768274 43.778053 
L 163.761039 44.999357 
L 163.751046 46.220661 
L 163.745176 47.441965 
L 163.744204 48.663269 
L 163.746472 49.884573 
L 163.749732 51.105877 
L 163.750865 52.327181 
L 163.748634 53.548485 
L 163.745254 54.769789 
L 163.743075 55.991093 
L 163.742282 57.212397 
L 163.742147 58.433701 
L 163.742462 59.655005 
L 163.74418 60.876309 
L 163.749535 62.097612 
L 163.75935 63.318916 
L 163.768793 64.54022 
L 163.772152 65.761524 
L 163.773127 66.982828 
L 163.77788 68.204132 
L 163.781693 69.425436 
L 163.779684 70.64674 
L 163.778616 71.868044 
L 163.782065 73.089348 
L 163.783969 74.310652 
L 163.785863 75.531956 
L 163.79441 76.75326 
L 163.803355 77.974564 
L 163.807322 79.195868 
L 163.817918 80.417172 
L 163.837692 81.638476 
L 163.853251 82.85978 
L 163.874308 84.081084 
L 163.918293 85.302388 
L 163.954497 86.523691 
L 163.950629 87.744995 
L 163.941999 88.966299 
L 163.959863 90.187603 
L 163.976055 91.408907 
L 163.992135 92.630211 
L 164.046794 93.851515 
L 164.103492 95.072819 
L 164.104577 96.294123 
L 164.10176 97.515427 
L 164.148247 98.736731 
L 164.19318 99.958035 
L 164.240064 101.179339 
L 164.369456 102.400643 
L 164.515008 103.621947 
L 164.561503 104.843251 
L 164.623615 106.064555 
L 164.802239 107.285859 
L 164.918923 108.507163 
L 164.922604 109.728466 
L 165.049646 110.94977 
L 165.282628 112.171074 
L 165.410438 113.392378 
L 165.630991 114.613682 
L 166.132865 115.834986 
L 166.519516 117.05629 
L 166.689099 118.277594 
L 167.218324 119.498898 
L 168.014064 120.720202 
L 168.425092 121.941506 
L 168.956348 123.16281 
L 170.268429 124.384114 
L 171.322473 125.605418 
L 171.585176 126.826722 
L 172.576929 128.048026 
L 174.440108 129.26933 
L 175.538629 130.490634 
L 176.867242 131.711938 
L 180.018166 132.933242 
L 181.571649 134.154545 
z
" clip-path="url(#pa1a6bb10ff)" style="fill: #ba7517; fill-opacity: 0.7"/>
   </g>
   <g id="FillBetweenPolyCollection_4">
    <path d="M 232.513295 134.154545 
L 196.854143 134.154545 
L 199.685211 132.933242 
L 203.560736 131.711938 
L 203.692704 130.490634 
L 204.327847 129.26933 
L 207.006406 128.048026 
L 208.000493 126.826722 
L 207.664399 125.605418 
L 208.860524 124.384114 
L 210.330798 123.16281 
L 210.337715 121.941506 
L 210.497966 120.720202 
L 211.624655 119.498898 
L 212.232501 118.277594 
L 212.186371 117.05629 
L 212.573597 115.834986 
L 213.092029 114.613682 
L 213.084498 113.392378 
L 213.099759 112.171074 
L 213.492278 110.94977 
L 213.714136 109.728466 
L 213.674865 108.507163 
L 213.820851 107.285859 
L 214.073619 106.064555 
L 214.128978 104.843251 
L 214.138901 103.621947 
L 214.262044 102.400643 
L 214.329938 101.179339 
L 214.303216 99.958035 
L 214.3484 98.736731 
L 214.4468 97.515427 
L 214.473578 96.294123 
L 214.474825 95.072819 
L 214.518578 93.851515 
L 214.545047 92.630211 
L 214.532732 91.408907 
L 214.547675 90.187603 
L 214.589468 88.966299 
L 214.605671 87.744995 
L 214.607838 86.523691 
L 214.627245 85.302388 
L 214.647539 84.081084 
L 214.65264 82.85978 
L 214.653878 81.638476 
L 214.651752 80.417172 
L 214.638007 79.195868 
L 214.629359 77.974564 
L 214.643822 76.75326 
L 214.666693 75.531956 
L 214.679257 74.310652 
L 214.681047 73.089348 
L 214.675167 71.868044 
L 214.663701 70.64674 
L 214.655888 69.425436 
L 214.65729 68.204132 
L 214.656497 66.982828 
L 214.648732 65.761524 
L 214.649417 64.54022 
L 214.663392 63.318916 
L 214.676726 62.097612 
L 214.682118 60.876309 
L 214.682274 59.655005 
L 214.679481 58.433701 
L 214.675753 57.212397 
L 214.675097 55.991093 
L 214.678357 54.769789 
L 214.681804 53.548485 
L 214.683326 52.327181 
L 214.683673 51.105877 
L 214.683716 49.884573 
L 214.683719 48.663269 
L 214.683719 47.441965 
L 214.683719 46.220661 
L 214.683719 44.999357 
L 214.683719 43.778053 
L 214.683719 42.556749 
L 214.683719 41.335445 
L 214.683719 40.114141 
L 214.683719 38.892837 
L 214.683719 37.671534 
L 214.683719 36.45023 
L 214.683719 35.228926 
L 214.683719 34.007622 
L 214.683719 32.786318 
L 214.683719 31.565014 
L 214.683719 30.34371 
L 214.683719 29.122406 
L 214.683719 27.901102 
L 214.683719 26.679798 
L 214.683719 25.458494 
L 214.683719 24.23719 
L 214.683719 23.015886 
L 214.683719 21.794582 
L 214.683719 20.573278 
L 214.683711 19.351974 
L 214.683613 18.13067 
L 214.682982 16.909366 
L 214.680771 15.688062 
L 214.676949 14.466758 
L 214.674786 13.245455 
L 214.692652 13.245455 
L 214.692652 13.245455 
L 214.69049 14.466758 
L 214.686668 15.688062 
L 214.684457 16.909366 
L 214.683825 18.13067 
L 214.683728 19.351974 
L 214.68372 20.573278 
L 214.683719 21.794582 
L 214.683719 23.015886 
L 214.683719 24.23719 
L 214.683719 25.458494 
L 214.683719 26.679798 
L 214.683719 27.901102 
L 214.683719 29.122406 
L 214.683719 30.34371 
L 214.683719 31.565014 
L 214.683719 32.786318 
L 214.683719 34.007622 
L 214.683719 35.228926 
L 214.683719 36.45023 
L 214.683719 37.671534 
L 214.683719 38.892837 
L 214.683719 40.114141 
L 214.683719 41.335445 
L 214.683719 42.556749 
L 214.683719 43.778053 
L 214.683719 44.999357 
L 214.683719 46.220661 
L 214.683719 47.441965 
L 214.683719 48.663269 
L 214.683722 49.884573 
L 214.683766 51.105877 
L 214.684112 52.327181 
L 214.685635 53.548485 
L 214.689081 54.769789 
L 214.692342 55.991093 
L 214.691686 57.212397 
L 214.687958 58.433701 
L 214.685164 59.655005 
L 214.68532 60.876309 
L 214.690713 62.097612 
L 214.704046 63.318916 
L 214.718022 64.54022 
L 214.718707 65.761524 
L 214.710942 66.982828 
L 214.710148 68.204132 
L 214.711551 69.425436 
L 214.703738 70.64674 
L 214.692272 71.868044 
L 214.686391 73.089348 
L 214.688182 74.310652 
L 214.700745 75.531956 
L 214.723616 76.75326 
L 214.738079 77.974564 
L 214.729432 79.195868 
L 214.715687 80.417172 
L 214.71356 81.638476 
L 214.714799 82.85978 
L 214.719899 84.081084 
L 214.740194 85.302388 
L 214.7596 86.523691 
L 214.761767 87.744995 
L 214.777971 88.966299 
L 214.819764 90.187603 
L 214.834706 91.408907 
L 214.822391 92.630211 
L 214.84886 93.851515 
L 214.892614 95.072819 
L 214.89386 96.294123 
L 214.920639 97.515427 
L 215.019039 98.736731 
L 215.064222 99.958035 
L 215.037501 101.179339 
L 215.105395 102.400643 
L 215.228538 103.621947 
L 215.23846 104.843251 
L 215.29382 106.064555 
L 215.546587 107.285859 
L 215.692573 108.507163 
L 215.653302 109.728466 
L 215.875161 110.94977 
L 216.267679 112.171074 
L 216.28294 113.392378 
L 216.27541 114.613682 
L 216.793842 115.834986 
L 217.181068 117.05629 
L 217.134937 118.277594 
L 217.742784 119.498898 
L 218.869473 120.720202 
L 219.029723 121.941506 
L 219.03664 123.16281 
L 220.506915 124.384114 
L 221.70304 125.605418 
L 221.366945 126.826722 
L 222.361032 128.048026 
L 225.039591 129.26933 
L 225.674735 130.490634 
L 225.806702 131.711938 
L 229.682228 132.933242 
L 232.513295 134.154545 
z
" clip-path="url(#pa1a6bb10ff)" style="fill: #1d9e75; fill-opacity: 0.7"/>
   </g>
   <g id="matplotlib.axis_1">
    <g id="xtick_1">
     <g id="line2d_1">
      <defs>
       <path id="m294410f7a6" d="M 0 0 
L 0 3.5 
" style="stroke: #000000; stroke-width: 0.8"/>
      </defs>
      <g>
       <use xlink:href="#m294410f7a6" x="61.858781" y="140.2" style="stroke: #000000; stroke-width: 0.8"/>
      </g>
     </g>
     <g id="text_1">
      <!-- original -->
      <g transform="translate(48.963156 152.92625) scale(0.08 -0.08)">
       <defs>
        <path id="ArialMT-6f" d="M 213 1659 
Q 213 2581 725 3025 
Q 1153 3394 1769 3394 
Q 2453 3394 2887 2945 
Q 3322 2497 3322 1706 
Q 3322 1066 3130 698 
Q 2938 331 2570 128 
Q 2203 -75 1769 -75 
Q 1072 -75 642 372 
Q 213 819 213 1659 
z
M 791 1659 
Q 791 1022 1069 705 
Q 1347 388 1769 388 
Q 2188 388 2466 706 
Q 2744 1025 2744 1678 
Q 2744 2294 2464 2611 
Q 2184 2928 1769 2928 
Q 1347 2928 1069 2612 
Q 791 2297 791 1659 
z
" transform="scale(0.015625)"/>
        <path id="ArialMT-72" d="M 416 0 
L 416 3319 
L 922 3319 
L 922 2816 
Q 1116 3169 1280 3281 
Q 1444 3394 1641 3394 
Q 1925 3394 2219 3213 
L 2025 2691 
Q 1819 2813 1613 2813 
Q 1428 2813 1281 2702 
Q 1134 2591 1072 2394 
Q 978 2094 978 1738 
L 978 0 
L 416 0 
z
" transform="scale(0.015625)"/>
        <path id="ArialMT-69" d="M 425 3934 
L 425 4581 
L 988 4581 
L 988 3934 
L 425 3934 
z
M 425 0 
L 425 3319 
L 988 3319 
L 988 0 
L 425 0 
z
" transform="scale(0.015625)"/>
        <path id="ArialMT-67" d="M 319 -275 
L 866 -356 
Q 900 -609 1056 -725 
Q 1266 -881 1628 -881 
Q 2019 -881 2231 -725 
Q 2444 -569 2519 -288 
Q 2563 -116 2559 434 
Q 2191 0 1641 0 
Q 956 0 581 494 
Q 206 988 206 1678 
Q 206 2153 378 2554 
Q 550 2956 876 3175 
Q 1203 3394 1644 3394 
Q 2231 3394 2613 2919 
L 2613 3319 
L 3131 3319 
L 3131 450 
Q 3131 -325 2973 -648 
Q 2816 -972 2473 -1159 
Q 2131 -1347 1631 -1347 
Q 1038 -1347 672 -1080 
Q 306 -813 319 -275 
z
M 784 1719 
Q 784 1066 1043 766 
Q 1303 466 1694 466 
Q 2081 466 2343 764 
Q 2606 1063 2606 1700 
Q 2606 2309 2336 2618 
Q 2066 2928 1684 2928 
Q 1309 2928 1046 2623 
Q 784 2319 784 1719 
z
" transform="scale(0.015625)"/>
        <path id="ArialMT-6e" d="M 422 0 
L 422 3319 
L 928 3319 
L 928 2847 
Q 1294 3394 1984 3394 
Q 2284 3394 2536 3286 
Q 2788 3178 2913 3003 
Q 3038 2828 3088 2588 
Q 3119 2431 3119 2041 
L 3119 0 
L 2556 0 
L 2556 2019 
Q 2556 2363 2490 2533 
Q 2425 2703 2258 2804 
Q 2091 2906 1866 2906 
Q 1506 2906 1245 2678 
Q 984 2450 984 1813 
L 984 0 
L 422 0 
z
" transform="scale(0.015625)"/>
        <path id="ArialMT-61" d="M 2588 409 
Q 2275 144 1986 34 
Q 1697 -75 1366 -75 
Q 819 -75 525 192 
Q 231 459 231 875 
Q 231 1119 342 1320 
Q 453 1522 633 1644 
Q 813 1766 1038 1828 
Q 1203 1872 1538 1913 
Q 2219 1994 2541 2106 
Q 2544 2222 2544 2253 
Q 2544 2597 2384 2738 
Q 2169 2928 1744 2928 
Q 1347 2928 1158 2789 
Q 969 2650 878 2297 
L 328 2372 
Q 403 2725 575 2942 
Q 747 3159 1072 3276 
Q 1397 3394 1825 3394 
Q 2250 3394 2515 3294 
Q 2781 3194 2906 3042 
Q 3031 2891 3081 2659 
Q 3109 2516 3109 2141 
L 3109 1391 
Q 3109 606 3145 398 
Q 3181 191 3288 0 
L 2700 0 
Q 2613 175 2588 409 
z
M 2541 1666 
Q 2234 1541 1622 1453 
Q 1275 1403 1131 1340 
Q 988 1278 909 1158 
Q 831 1038 831 891 
Q 831 666 1001 516 
Q 1172 366 1500 366 
Q 1825 366 2078 508 
Q 2331 650 2450 897 
Q 2541 1088 2541 1459 
L 2541 1666 
z
" transform="scale(0.015625)"/>
        <path id="ArialMT-6c" d="M 409 0 
L 409 4581 
L 972 4581 
L 972 0 
L 409 0 
z
" transform="scale(0.015625)"/>
       </defs>
       <use xlink:href="#ArialMT-6f"/>
       <use xlink:href="#ArialMT-72" transform="translate(55.615234 0)"/>
       <use xlink:href="#ArialMT-69" transform="translate(88.916016 0)"/>
       <use xlink:href="#ArialMT-67" transform="translate(111.132812 0)"/>
       <use xlink:href="#ArialMT-69" transform="translate(166.748047 0)"/>
       <use xlink:href="#ArialMT-6e" transform="translate(188.964844 0)"/>
       <use xlink:href="#ArialMT-61" transform="translate(244.580078 0)"/>
       <use xlink:href="#ArialMT-6c" transform="translate(300.195312 0)"/>
      </g>
     </g>
    </g>
    <g id="xtick_2">
     <g id="line2d_2">
      <g>
       <use xlink:href="#m294410f7a6" x="112.800427" y="140.2" style="stroke: #000000; stroke-width: 0.8"/>
      </g>
     </g>
     <g id="text_2">
      <!-- s1 only -->
      <g transform="translate(100.127302 152.95) scale(0.08 -0.08)">
       <defs>
        <path id="ArialMT-73" d="M 197 991 
L 753 1078 
Q 800 744 1014 566 
Q 1228 388 1613 388 
Q 2000 388 2187 545 
Q 2375 703 2375 916 
Q 2375 1106 2209 1216 
Q 2094 1291 1634 1406 
Q 1016 1563 777 1677 
Q 538 1791 414 1992 
Q 291 2194 291 2438 
Q 291 2659 392 2848 
Q 494 3038 669 3163 
Q 800 3259 1026 3326 
Q 1253 3394 1513 3394 
Q 1903 3394 2198 3281 
Q 2494 3169 2634 2976 
Q 2775 2784 2828 2463 
L 2278 2388 
Q 2241 2644 2061 2787 
Q 1881 2931 1553 2931 
Q 1166 2931 1000 2803 
Q 834 2675 834 2503 
Q 834 2394 903 2306 
Q 972 2216 1119 2156 
Q 1203 2125 1616 2013 
Q 2213 1853 2448 1751 
Q 2684 1650 2818 1456 
Q 2953 1263 2953 975 
Q 2953 694 2789 445 
Q 2625 197 2315 61 
Q 2006 -75 1616 -75 
Q 969 -75 630 194 
Q 291 463 197 991 
z
" transform="scale(0.015625)"/>
        <path id="ArialMT-31" d="M 2384 0 
L 1822 0 
L 1822 3584 
Q 1619 3391 1289 3197 
Q 959 3003 697 2906 
L 697 3450 
Q 1169 3672 1522 3987 
Q 1875 4303 2022 4600 
L 2384 4600 
L 2384 0 
z
" transform="scale(0.015625)"/>
        <path id="ArialMT-20" transform="scale(0.015625)"/>
        <path id="ArialMT-79" d="M 397 -1278 
L 334 -750 
Q 519 -800 656 -800 
Q 844 -800 956 -737 
Q 1069 -675 1141 -563 
Q 1194 -478 1313 -144 
Q 1328 -97 1363 -6 
L 103 3319 
L 709 3319 
L 1400 1397 
Q 1534 1031 1641 628 
Q 1738 1016 1872 1384 
L 2581 3319 
L 3144 3319 
L 1881 -56 
Q 1678 -603 1566 -809 
Q 1416 -1088 1222 -1217 
Q 1028 -1347 759 -1347 
Q 597 -1347 397 -1278 
z
" transform="scale(0.015625)"/>
       </defs>
       <use xlink:href="#ArialMT-73"/>
       <use xlink:href="#ArialMT-31" transform="translate(50 0)"/>
       <use xlink:href="#ArialMT-20" transform="translate(105.615234 0)"/>
       <use xlink:href="#ArialMT-6f" transform="translate(133.398438 0)"/>
       <use xlink:href="#ArialMT-6e" transform="translate(189.013672 0)"/>
       <use xlink:href="#ArialMT-6c" transform="translate(244.628906 0)"/>
       <use xlink:href="#ArialMT-79" transform="translate(266.845703 0)"/>
      </g>
     </g>
    </g>
    <g id="xtick_3">
     <g id="line2d_3">
      <g>
       <use xlink:href="#m294410f7a6" x="163.742073" y="140.2" style="stroke: #000000; stroke-width: 0.8"/>
      </g>
     </g>
     <g id="text_3">
      <!-- switch -->
      <g transform="translate(152.628948 152.92625) scale(0.08 -0.08)">
       <defs>
        <path id="ArialMT-77" d="M 1034 0 
L 19 3319 
L 600 3319 
L 1128 1403 
L 1325 691 
Q 1338 744 1497 1375 
L 2025 3319 
L 2603 3319 
L 3100 1394 
L 3266 759 
L 3456 1400 
L 4025 3319 
L 4572 3319 
L 3534 0 
L 2950 0 
L 2422 1988 
L 2294 2553 
L 1622 0 
L 1034 0 
z
" transform="scale(0.015625)"/>
        <path id="ArialMT-74" d="M 1650 503 
L 1731 6 
Q 1494 -44 1306 -44 
Q 1000 -44 831 53 
Q 663 150 594 308 
Q 525 466 525 972 
L 525 2881 
L 113 2881 
L 113 3319 
L 525 3319 
L 525 4141 
L 1084 4478 
L 1084 3319 
L 1650 3319 
L 1650 2881 
L 1084 2881 
L 1084 941 
Q 1084 700 1114 631 
Q 1144 563 1211 522 
Q 1278 481 1403 481 
Q 1497 481 1650 503 
z
" transform="scale(0.015625)"/>
        <path id="ArialMT-63" d="M 2588 1216 
L 3141 1144 
Q 3050 572 2676 248 
Q 2303 -75 1759 -75 
Q 1078 -75 664 370 
Q 250 816 250 1647 
Q 250 2184 428 2587 
Q 606 2991 970 3192 
Q 1334 3394 1763 3394 
Q 2303 3394 2647 3120 
Q 2991 2847 3088 2344 
L 2541 2259 
Q 2463 2594 2264 2762 
Q 2066 2931 1784 2931 
Q 1359 2931 1093 2626 
Q 828 2322 828 1663 
Q 828 994 1084 691 
Q 1341 388 1753 388 
Q 2084 388 2306 591 
Q 2528 794 2588 1216 
z
" transform="scale(0.015625)"/>
        <path id="ArialMT-68" d="M 422 0 
L 422 4581 
L 984 4581 
L 984 2938 
Q 1378 3394 1978 3394 
Q 2347 3394 2619 3248 
Q 2891 3103 3008 2847 
Q 3125 2591 3125 2103 
L 3125 0 
L 2563 0 
L 2563 2103 
Q 2563 2525 2380 2717 
Q 2197 2909 1863 2909 
Q 1613 2909 1392 2779 
Q 1172 2650 1078 2428 
Q 984 2206 984 1816 
L 984 0 
L 422 0 
z
" transform="scale(0.015625)"/>
       </defs>
       <use xlink:href="#ArialMT-73"/>
       <use xlink:href="#ArialMT-77" transform="translate(50 0)"/>
       <use xlink:href="#ArialMT-69" transform="translate(122.216797 0)"/>
       <use xlink:href="#ArialMT-74" transform="translate(144.433594 0)"/>
       <use xlink:href="#ArialMT-63" transform="translate(172.216797 0)"/>
       <use xlink:href="#ArialMT-68" transform="translate(222.216797 0)"/>
      </g>
     </g>
    </g>
    <g id="xtick_4">
     <g id="line2d_4">
      <g>
       <use xlink:href="#m294410f7a6" x="214.683719" y="140.2" style="stroke: #000000; stroke-width: 0.8"/>
      </g>
     </g>
     <g id="text_4">
      <!-- blend -->
      <g transform="translate(204.897469 152.92625) scale(0.08 -0.08)">
       <defs>
        <path id="ArialMT-62" d="M 941 0 
L 419 0 
L 419 4581 
L 981 4581 
L 981 2947 
Q 1338 3394 1891 3394 
Q 2197 3394 2470 3270 
Q 2744 3147 2920 2923 
Q 3097 2700 3197 2384 
Q 3297 2069 3297 1709 
Q 3297 856 2875 390 
Q 2453 -75 1863 -75 
Q 1275 -75 941 416 
L 941 0 
z
M 934 1684 
Q 934 1088 1097 822 
Q 1363 388 1816 388 
Q 2184 388 2453 708 
Q 2722 1028 2722 1663 
Q 2722 2313 2464 2622 
Q 2206 2931 1841 2931 
Q 1472 2931 1203 2611 
Q 934 2291 934 1684 
z
" transform="scale(0.015625)"/>
        <path id="ArialMT-65" d="M 2694 1069 
L 3275 997 
Q 3138 488 2766 206 
Q 2394 -75 1816 -75 
Q 1088 -75 661 373 
Q 234 822 234 1631 
Q 234 2469 665 2931 
Q 1097 3394 1784 3394 
Q 2450 3394 2872 2941 
Q 3294 2488 3294 1666 
Q 3294 1616 3291 1516 
L 816 1516 
Q 847 969 1125 678 
Q 1403 388 1819 388 
Q 2128 388 2347 550 
Q 2566 713 2694 1069 
z
M 847 1978 
L 2700 1978 
Q 2663 2397 2488 2606 
Q 2219 2931 1791 2931 
Q 1403 2931 1139 2672 
Q 875 2413 847 1978 
z
" transform="scale(0.015625)"/>
        <path id="ArialMT-64" d="M 2575 0 
L 2575 419 
Q 2259 -75 1647 -75 
Q 1250 -75 917 144 
Q 584 363 401 755 
Q 219 1147 219 1656 
Q 219 2153 384 2558 
Q 550 2963 881 3178 
Q 1213 3394 1622 3394 
Q 1922 3394 2156 3267 
Q 2391 3141 2538 2938 
L 2538 4581 
L 3097 4581 
L 3097 0 
L 2575 0 
z
M 797 1656 
Q 797 1019 1065 703 
Q 1334 388 1700 388 
Q 2069 388 2326 689 
Q 2584 991 2584 1609 
Q 2584 2291 2321 2609 
Q 2059 2928 1675 2928 
Q 1300 2928 1048 2622 
Q 797 2316 797 1656 
z
" transform="scale(0.015625)"/>
       </defs>
       <use xlink:href="#ArialMT-62"/>
       <use xlink:href="#ArialMT-6c" transform="translate(55.615234 0)"/>
       <use xlink:href="#ArialMT-65" transform="translate(77.832031 0)"/>
       <use xlink:href="#ArialMT-6e" transform="translate(133.447266 0)"/>
       <use xlink:href="#ArialMT-64" transform="translate(189.0625 0)"/>
      </g>
     </g>
    </g>
    <g id="text_5">
     <!-- Decision mode -->
     <g transform="translate(111.815625 164.36) scale(0.08 -0.08)">
      <defs>
       <path id="ArialMT-44" d="M 494 0 
L 494 4581 
L 2072 4581 
Q 2606 4581 2888 4516 
Q 3281 4425 3559 4188 
Q 3922 3881 4101 3404 
Q 4281 2928 4281 2316 
Q 4281 1794 4159 1391 
Q 4038 988 3847 723 
Q 3656 459 3429 307 
Q 3203 156 2883 78 
Q 2563 0 2147 0 
L 494 0 
z
M 1100 541 
L 2078 541 
Q 2531 541 2789 625 
Q 3047 709 3200 863 
Q 3416 1078 3536 1442 
Q 3656 1806 3656 2325 
Q 3656 3044 3420 3430 
Q 3184 3816 2847 3947 
Q 2603 4041 2063 4041 
L 1100 4041 
L 1100 541 
z
" transform="scale(0.015625)"/>
       <path id="ArialMT-6d" d="M 422 0 
L 422 3319 
L 925 3319 
L 925 2853 
Q 1081 3097 1340 3245 
Q 1600 3394 1931 3394 
Q 2300 3394 2536 3241 
Q 2772 3088 2869 2813 
Q 3263 3394 3894 3394 
Q 4388 3394 4653 3120 
Q 4919 2847 4919 2278 
L 4919 0 
L 4359 0 
L 4359 2091 
Q 4359 2428 4304 2576 
Q 4250 2725 4106 2815 
Q 3963 2906 3769 2906 
Q 3419 2906 3187 2673 
Q 2956 2441 2956 1928 
L 2956 0 
L 2394 0 
L 2394 2156 
Q 2394 2531 2256 2718 
Q 2119 2906 1806 2906 
Q 1569 2906 1367 2781 
Q 1166 2656 1075 2415 
Q 984 2175 984 1722 
L 984 0 
L 422 0 
z
" transform="scale(0.015625)"/>
      </defs>
      <use xlink:href="#ArialMT-44"/>
      <use xlink:href="#ArialMT-65" transform="translate(72.216797 0)"/>
      <use xlink:href="#ArialMT-63" transform="translate(127.832031 0)"/>
      <use xlink:href="#ArialMT-69" transform="translate(177.832031 0)"/>
      <use xlink:href="#ArialMT-73" transform="translate(200.048828 0)"/>
      <use xlink:href="#ArialMT-69" transform="translate(250.048828 0)"/>
      <use xlink:href="#ArialMT-6f" transform="translate(272.265625 0)"/>
      <use xlink:href="#ArialMT-6e" transform="translate(327.880859 0)"/>
      <use xlink:href="#ArialMT-20" transform="translate(383.496094 0)"/>
      <use xlink:href="#ArialMT-6d" transform="translate(411.279297 0)"/>
      <use xlink:href="#ArialMT-6f" transform="translate(494.580078 0)"/>
      <use xlink:href="#ArialMT-64" transform="translate(550.195312 0)"/>
      <use xlink:href="#ArialMT-65" transform="translate(605.810547 0)"/>
     </g>
    </g>
   </g>
   <g id="matplotlib.axis_2">
    <g id="ytick_1">
     <g id="line2d_5">
      <path d="M 34.605 134.154545 
L 241.9375 134.154545 
" clip-path="url(#pa1a6bb10ff)" style="fill: none; stroke: #b0b0b0; stroke-opacity: 0.3; stroke-width: 0.8; stroke-linecap: square"/>
     </g>
     <g id="line2d_6">
      <defs>
       <path id="mb423f25df2" d="M 0 0 
L -3.5 0 
" style="stroke: #000000; stroke-width: 0.8"/>
      </defs>
      <g>
       <use xlink:href="#mb423f25df2" x="34.605" y="134.154545" style="stroke: #000000; stroke-width: 0.8"/>
      </g>
     </g>
     <g id="text_6">
      <!-- 0 -->
      <g transform="translate(23.15625 137.01767) scale(0.08 -0.08)">
       <defs>
        <path id="ArialMT-30" d="M 266 2259 
Q 266 3072 433 3567 
Q 600 4063 929 4331 
Q 1259 4600 1759 4600 
Q 2128 4600 2406 4451 
Q 2684 4303 2865 4023 
Q 3047 3744 3150 3342 
Q 3253 2941 3253 2259 
Q 3253 1453 3087 958 
Q 2922 463 2592 192 
Q 2263 -78 1759 -78 
Q 1097 -78 719 397 
Q 266 969 266 2259 
z
M 844 2259 
Q 844 1131 1108 757 
Q 1372 384 1759 384 
Q 2147 384 2411 759 
Q 2675 1134 2675 2259 
Q 2675 3391 2411 3762 
Q 2147 4134 1753 4134 
Q 1366 4134 1134 3806 
Q 844 3388 844 2259 
z
" transform="scale(0.015625)"/>
       </defs>
       <use xlink:href="#ArialMT-30"/>
      </g>
     </g>
    </g>
    <g id="ytick_2">
     <g id="line2d_7">
      <path d="M 34.605 112.563636 
L 241.9375 112.563636 
" clip-path="url(#pa1a6bb10ff)" style="fill: none; stroke: #b0b0b0; stroke-opacity: 0.3; stroke-width: 0.8; stroke-linecap: square"/>
     </g>
     <g id="line2d_8">
      <g>
       <use xlink:href="#mb423f25df2" x="34.605" y="112.563636" style="stroke: #000000; stroke-width: 0.8"/>
      </g>
     </g>
     <g id="text_7">
      <!-- 5 -->
      <g transform="translate(23.15625 115.426761) scale(0.08 -0.08)">
       <defs>
        <path id="ArialMT-35" d="M 266 1200 
L 856 1250 
Q 922 819 1161 601 
Q 1400 384 1738 384 
Q 2144 384 2425 690 
Q 2706 997 2706 1503 
Q 2706 1984 2436 2262 
Q 2166 2541 1728 2541 
Q 1456 2541 1237 2417 
Q 1019 2294 894 2097 
L 366 2166 
L 809 4519 
L 3088 4519 
L 3088 3981 
L 1259 3981 
L 1013 2750 
Q 1425 3038 1878 3038 
Q 2478 3038 2890 2622 
Q 3303 2206 3303 1553 
Q 3303 931 2941 478 
Q 2500 -78 1738 -78 
Q 1113 -78 717 272 
Q 322 622 266 1200 
z
" transform="scale(0.015625)"/>
       </defs>
       <use xlink:href="#ArialMT-35"/>
      </g>
     </g>
    </g>
    <g id="ytick_3">
     <g id="line2d_9">
      <path d="M 34.605 90.972727 
L 241.9375 90.972727 
" clip-path="url(#pa1a6bb10ff)" style="fill: none; stroke: #b0b0b0; stroke-opacity: 0.3; stroke-width: 0.8; stroke-linecap: square"/>
     </g>
     <g id="line2d_10">
      <g>
       <use xlink:href="#mb423f25df2" x="34.605" y="90.972727" style="stroke: #000000; stroke-width: 0.8"/>
      </g>
     </g>
     <g id="text_8">
      <!-- 10 -->
      <g transform="translate(18.7075 93.835852) scale(0.08 -0.08)">
       <use xlink:href="#ArialMT-31"/>
       <use xlink:href="#ArialMT-30" transform="translate(55.615234 0)"/>
      </g>
     </g>
    </g>
    <g id="ytick_4">
     <g id="line2d_11">
      <path d="M 34.605 69.381818 
L 241.9375 69.381818 
" clip-path="url(#pa1a6bb10ff)" style="fill: none; stroke: #b0b0b0; stroke-opacity: 0.3; stroke-width: 0.8; stroke-linecap: square"/>
     </g>
     <g id="line2d_12">
      <g>
       <use xlink:href="#mb423f25df2" x="34.605" y="69.381818" style="stroke: #000000; stroke-width: 0.8"/>
      </g>
     </g>
     <g id="text_9">
      <!-- 15 -->
      <g transform="translate(18.7075 72.244943) scale(0.08 -0.08)">
       <use xlink:href="#ArialMT-31"/>
       <use xlink:href="#ArialMT-35" transform="translate(55.615234 0)"/>
      </g>
     </g>
    </g>
    <g id="ytick_5">
     <g id="line2d_13">
      <path d="M 34.605 47.790909 
L 241.9375 47.790909 
" clip-path="url(#pa1a6bb10ff)" style="fill: none; stroke: #b0b0b0; stroke-opacity: 0.3; stroke-width: 0.8; stroke-linecap: square"/>
     </g>
     <g id="line2d_14">
      <g>
       <use xlink:href="#mb423f25df2" x="34.605" y="47.790909" style="stroke: #000000; stroke-width: 0.8"/>
      </g>
     </g>
     <g id="text_10">
      <!-- 20 -->
      <g transform="translate(18.7075 50.654034) scale(0.08 -0.08)">
       <defs>
        <path id="ArialMT-32" d="M 3222 541 
L 3222 0 
L 194 0 
Q 188 203 259 391 
Q 375 700 629 1000 
Q 884 1300 1366 1694 
Q 2113 2306 2375 2664 
Q 2638 3022 2638 3341 
Q 2638 3675 2398 3904 
Q 2159 4134 1775 4134 
Q 1369 4134 1125 3890 
Q 881 3647 878 3216 
L 300 3275 
Q 359 3922 746 4261 
Q 1134 4600 1788 4600 
Q 2447 4600 2831 4234 
Q 3216 3869 3216 3328 
Q 3216 3053 3103 2787 
Q 2991 2522 2730 2228 
Q 2469 1934 1863 1422 
Q 1356 997 1212 845 
Q 1069 694 975 541 
L 3222 541 
z
" transform="scale(0.015625)"/>
       </defs>
       <use xlink:href="#ArialMT-32"/>
       <use xlink:href="#ArialMT-30" transform="translate(55.615234 0)"/>
      </g>
     </g>
    </g>
    <g id="ytick_6">
     <g id="line2d_15">
      <path d="M 34.605 26.2 
L 241.9375 26.2 
" clip-path="url(#pa1a6bb10ff)" style="fill: none; stroke: #b0b0b0; stroke-opacity: 0.3; stroke-width: 0.8; stroke-linecap: square"/>
     </g>
     <g id="line2d_16">
      <g>
       <use xlink:href="#mb423f25df2" x="34.605" y="26.2" style="stroke: #000000; stroke-width: 0.8"/>
      </g>
     </g>
     <g id="text_11">
      <!-- 25 -->
      <g transform="translate(18.7075 29.063125) scale(0.08 -0.08)">
       <use xlink:href="#ArialMT-32"/>
       <use xlink:href="#ArialMT-35" transform="translate(55.615234 0)"/>
      </g>
     </g>
    </g>
    <g id="text_12">
     <!-- First-departure timestep (hours) -->
     <g transform="translate(13.02375 129.935625) rotate(-90) scale(0.08 -0.08)">
      <defs>
       <path id="ArialMT-46" d="M 525 0 
L 525 4581 
L 3616 4581 
L 3616 4041 
L 1131 4041 
L 1131 2622 
L 3281 2622 
L 3281 2081 
L 1131 2081 
L 1131 0 
L 525 0 
z
" transform="scale(0.015625)"/>
       <path id="ArialMT-2d" d="M 203 1375 
L 203 1941 
L 1931 1941 
L 1931 1375 
L 203 1375 
z
" transform="scale(0.015625)"/>
       <path id="ArialMT-70" d="M 422 -1272 
L 422 3319 
L 934 3319 
L 934 2888 
Q 1116 3141 1344 3267 
Q 1572 3394 1897 3394 
Q 2322 3394 2647 3175 
Q 2972 2956 3137 2557 
Q 3303 2159 3303 1684 
Q 3303 1175 3120 767 
Q 2938 359 2589 142 
Q 2241 -75 1856 -75 
Q 1575 -75 1351 44 
Q 1128 163 984 344 
L 984 -1272 
L 422 -1272 
z
M 931 1641 
Q 931 1000 1190 694 
Q 1450 388 1819 388 
Q 2194 388 2461 705 
Q 2728 1022 2728 1688 
Q 2728 2322 2467 2637 
Q 2206 2953 1844 2953 
Q 1484 2953 1207 2617 
Q 931 2281 931 1641 
z
" transform="scale(0.015625)"/>
       <path id="ArialMT-75" d="M 2597 0 
L 2597 488 
Q 2209 -75 1544 -75 
Q 1250 -75 995 37 
Q 741 150 617 320 
Q 494 491 444 738 
Q 409 903 409 1263 
L 409 3319 
L 972 3319 
L 972 1478 
Q 972 1038 1006 884 
Q 1059 663 1231 536 
Q 1403 409 1656 409 
Q 1909 409 2131 539 
Q 2353 669 2445 892 
Q 2538 1116 2538 1541 
L 2538 3319 
L 3100 3319 
L 3100 0 
L 2597 0 
z
" transform="scale(0.015625)"/>
       <path id="ArialMT-28" d="M 1497 -1347 
Q 1031 -759 709 28 
Q 388 816 388 1659 
Q 388 2403 628 3084 
Q 909 3875 1497 4659 
L 1900 4659 
Q 1522 4009 1400 3731 
Q 1209 3300 1100 2831 
Q 966 2247 966 1656 
Q 966 153 1900 -1347 
L 1497 -1347 
z
" transform="scale(0.015625)"/>
       <path id="ArialMT-29" d="M 791 -1347 
L 388 -1347 
Q 1322 153 1322 1656 
Q 1322 2244 1188 2822 
Q 1081 3291 891 3722 
Q 769 4003 388 4659 
L 791 4659 
Q 1378 3875 1659 3084 
Q 1900 2403 1900 1659 
Q 1900 816 1576 28 
Q 1253 -759 791 -1347 
z
" transform="scale(0.015625)"/>
      </defs>
      <use xlink:href="#ArialMT-46"/>
      <use xlink:href="#ArialMT-69" transform="translate(61.083984 0)"/>
      <use xlink:href="#ArialMT-72" transform="translate(83.300781 0)"/>
      <use xlink:href="#ArialMT-73" transform="translate(116.601562 0)"/>
      <use xlink:href="#ArialMT-74" transform="translate(166.601562 0)"/>
      <use xlink:href="#ArialMT-2d" transform="translate(194.384766 0)"/>
      <use xlink:href="#ArialMT-64" transform="translate(227.685547 0)"/>
      <use xlink:href="#ArialMT-65" transform="translate(283.300781 0)"/>
      <use xlink:href="#ArialMT-70" transform="translate(338.916016 0)"/>
      <use xlink:href="#ArialMT-61" transform="translate(394.53125 0)"/>
      <use xlink:href="#ArialMT-72" transform="translate(450.146484 0)"/>
      <use xlink:href="#ArialMT-74" transform="translate(483.447266 0)"/>
      <use xlink:href="#ArialMT-75" transform="translate(511.230469 0)"/>
      <use xlink:href="#ArialMT-72" transform="translate(566.845703 0)"/>
      <use xlink:href="#ArialMT-65" transform="translate(600.146484 0)"/>
      <use xlink:href="#ArialMT-20" transform="translate(655.761719 0)"/>
      <use xlink:href="#ArialMT-74" transform="translate(683.544922 0)"/>
      <use xlink:href="#ArialMT-69" transform="translate(711.328125 0)"/>
      <use xlink:href="#ArialMT-6d" transform="translate(733.544922 0)"/>
      <use xlink:href="#ArialMT-65" transform="translate(816.845703 0)"/>
      <use xlink:href="#ArialMT-73" transform="translate(872.460938 0)"/>
      <use xlink:href="#ArialMT-74" transform="translate(922.460938 0)"/>
      <use xlink:href="#ArialMT-65" transform="translate(950.244141 0)"/>
      <use xlink:href="#ArialMT-70" transform="translate(1005.859375 0)"/>
      <use xlink:href="#ArialMT-20" transform="translate(1061.474609 0)"/>
      <use xlink:href="#ArialMT-28" transform="translate(1089.257812 0)"/>
      <use xlink:href="#ArialMT-68" transform="translate(1122.558594 0)"/>
      <use xlink:href="#ArialMT-6f" transform="translate(1178.173828 0)"/>
      <use xlink:href="#ArialMT-75" transform="translate(1233.789062 0)"/>
      <use xlink:href="#ArialMT-72" transform="translate(1289.404297 0)"/>
      <use xlink:href="#ArialMT-73" transform="translate(1322.705078 0)"/>
      <use xlink:href="#ArialMT-29" transform="translate(1372.705078 0)"/>
     </g>
    </g>
   </g>
   <g id="LineCollection_1">
    <path d="M 52.943993 124.047409 
L 70.773569 124.047409 
" clip-path="url(#pa1a6bb10ff)" style="fill: none; stroke: #1f77b4; stroke-width: 1.5"/>
   </g>
   <g id="LineCollection_2">
    <path d="M 52.943993 43.472727 
L 70.773569 43.472727 
" clip-path="url(#pa1a6bb10ff)" style="fill: none; stroke: #1f77b4; stroke-width: 1.5"/>
   </g>
   <g id="LineCollection_3">
    <path d="M 52.943993 134.154545 
L 70.773569 134.154545 
" clip-path="url(#pa1a6bb10ff)" style="fill: none; stroke: #1f77b4; stroke-width: 1.5"/>
   </g>
   <g id="LineCollection_4">
    <path d="M 61.858781 134.154545 
L 61.858781 43.472727 
" clip-path="url(#pa1a6bb10ff)" style="fill: none; stroke: #1f77b4; stroke-width: 1.5"/>
   </g>
   <g id="LineCollection_5">
    <path d="M 52.943993 129.836364 
L 70.773569 129.836364 
" clip-path="url(#pa1a6bb10ff)" style="fill: none; stroke: #1f77b4; stroke-width: 1.5"/>
   </g>
   <g id="LineCollection_6">
    <path d="M 103.885639 124.047409 
L 121.715215 124.047409 
" clip-path="url(#pa1a6bb10ff)" style="fill: none; stroke: #ff7f0e; stroke-width: 1.5"/>
   </g>
   <g id="LineCollection_7">
    <path d="M 103.885639 43.472727 
L 121.715215 43.472727 
" clip-path="url(#pa1a6bb10ff)" style="fill: none; stroke: #ff7f0e; stroke-width: 1.5"/>
   </g>
   <g id="LineCollection_8">
    <path d="M 103.885639 134.154545 
L 121.715215 134.154545 
" clip-path="url(#pa1a6bb10ff)" style="fill: none; stroke: #ff7f0e; stroke-width: 1.5"/>
   </g>
   <g id="LineCollection_9">
    <path d="M 112.800427 134.154545 
L 112.800427 43.472727 
" clip-path="url(#pa1a6bb10ff)" style="fill: none; stroke: #ff7f0e; stroke-width: 1.5"/>
   </g>
   <g id="LineCollection_10">
    <path d="M 103.885639 129.836364 
L 121.715215 129.836364 
" clip-path="url(#pa1a6bb10ff)" style="fill: none; stroke: #ff7f0e; stroke-width: 1.5"/>
   </g>
   <g id="LineCollection_11">
    <path d="M 154.827285 126.694455 
L 172.656861 126.694455 
" clip-path="url(#pa1a6bb10ff)" style="fill: none; stroke: #2ca02c; stroke-width: 1.5"/>
   </g>
   <g id="LineCollection_12">
    <path d="M 154.827285 13.245455 
L 172.656861 13.245455 
" clip-path="url(#pa1a6bb10ff)" style="fill: none; stroke: #2ca02c; stroke-width: 1.5"/>
   </g>
   <g id="LineCollection_13">
    <path d="M 154.827285 134.154545 
L 172.656861 134.154545 
" clip-path="url(#pa1a6bb10ff)" style="fill: none; stroke: #2ca02c; stroke-width: 1.5"/>
   </g>
   <g id="LineCollection_14">
    <path d="M 163.742073 134.154545 
L 163.742073 13.245455 
" clip-path="url(#pa1a6bb10ff)" style="fill: none; stroke: #2ca02c; stroke-width: 1.5"/>
   </g>
   <g id="LineCollection_15">
    <path d="M 154.827285 129.836364 
L 172.656861 129.836364 
" clip-path="url(#pa1a6bb10ff)" style="fill: none; stroke: #2ca02c; stroke-width: 1.5"/>
   </g>
   <g id="LineCollection_16">
    <path d="M 205.768931 127.279136 
L 223.598507 127.279136 
" clip-path="url(#pa1a6bb10ff)" style="fill: none; stroke: #d62728; stroke-width: 1.5"/>
   </g>
   <g id="LineCollection_17">
    <path d="M 205.768931 13.245455 
L 223.598507 13.245455 
" clip-path="url(#pa1a6bb10ff)" style="fill: none; stroke: #d62728; stroke-width: 1.5"/>
   </g>
   <g id="LineCollection_18">
    <path d="M 205.768931 134.154545 
L 223.598507 134.154545 
" clip-path="url(#pa1a6bb10ff)" style="fill: none; stroke: #d62728; stroke-width: 1.5"/>
   </g>
   <g id="LineCollection_19">
    <path d="M 214.683719 134.154545 
L 214.683719 13.245455 
" clip-path="url(#pa1a6bb10ff)" style="fill: none; stroke: #d62728; stroke-width: 1.5"/>
   </g>
   <g id="LineCollection_20">
    <path d="M 205.768931 129.836364 
L 223.598507 129.836364 
" clip-path="url(#pa1a6bb10ff)" style="fill: none; stroke: #d62728; stroke-width: 1.5"/>
   </g>
   <g id="patch_3">
    <path d="M 34.605 140.2 
L 34.605 7.2 
" style="fill: none; stroke: #000000; stroke-width: 0.5; stroke-linejoin: miter; stroke-linecap: square"/>
   </g>
   <g id="patch_4">
    <path d="M 34.605 140.2 
L 241.9375 140.2 
" style="fill: none; stroke: #000000; stroke-width: 0.5; stroke-linejoin: miter; stroke-linecap: square"/>
   </g>
   <g id="text_13">
    <g id="patch_5">
     <path d="M 165.7421 23.658125 
L 237.79085 23.658125 
Q 239.59085 23.658125 239.59085 21.858125 
L 239.59085 9.930312 
Q 239.59085 8.130312 237.79085 8.130312 
L 165.7421 8.130312 
Q 163.9421 8.130312 163.9421 9.930312 
L 163.9421 21.858125 
Q 163.9421 23.658125 165.7421 23.658125 
z
" style="fill: #ffffff; opacity: 0.9; stroke: #808080; stroke-linejoin: miter"/>
    </g>
    <!-- α=2.0, β=2.0, κ=5.0 -->
    <g transform="translate(185.670538 14.227812) scale(0.06 -0.06)">
     <defs>
      <path id="ArialMT-3b1" d="M 2884 3319 
L 3459 3319 
Q 3241 2631 3056 1659 
Q 3275 453 3459 0 
L 2900 0 
Q 2766 313 2697 606 
Q 2438 -75 1613 -75 
Q 988 -75 606 394 
Q 225 863 225 1666 
Q 225 2491 608 2942 
Q 991 3394 1622 3394 
Q 2013 3394 2259 3236 
Q 2506 3078 2719 2756 
Q 2741 2866 2884 3319 
z
M 1716 2928 
Q 1313 2928 1078 2603 
Q 844 2278 844 1666 
Q 844 1069 1066 728 
Q 1288 388 1684 388 
Q 2072 388 2331 723 
Q 2591 1059 2591 1691 
Q 2591 2303 2348 2615 
Q 2106 2928 1716 2928 
z
" transform="scale(0.015625)"/>
      <path id="ArialMT-3d" d="M 3381 2694 
L 356 2694 
L 356 3219 
L 3381 3219 
L 3381 2694 
z
M 3381 1303 
L 356 1303 
L 356 1828 
L 3381 1828 
L 3381 1303 
z
" transform="scale(0.015625)"/>
      <path id="ArialMT-2e" d="M 581 0 
L 581 641 
L 1222 641 
L 1222 0 
L 581 0 
z
" transform="scale(0.015625)"/>
      <path id="ArialMT-2c" d="M 569 0 
L 569 641 
L 1209 641 
L 1209 0 
Q 1209 -353 1084 -570 
Q 959 -788 688 -906 
L 531 -666 
Q 709 -588 793 -436 
Q 878 -284 888 0 
L 569 0 
z
" transform="scale(0.015625)"/>
      <path id="ArialMT-3b2" d="M 997 422 
L 997 -1272 
L 438 -1272 
L 438 3144 
Q 438 3672 580 3970 
Q 722 4269 1069 4464 
Q 1416 4659 1841 4659 
Q 2469 4659 2792 4298 
Q 3116 3938 3116 3509 
Q 3116 3091 2855 2834 
Q 2594 2578 2256 2519 
Q 2800 2466 3095 2128 
Q 3391 1791 3391 1297 
Q 3391 766 3042 345 
Q 2694 -75 2034 -75 
Q 1359 -75 997 422 
z
M 1494 2700 
Q 2069 2700 2331 2900 
Q 2594 3100 2594 3478 
Q 2594 3784 2370 3990 
Q 2147 4197 1813 4197 
Q 1522 4197 1308 4044 
Q 1094 3891 1045 3703 
Q 997 3516 997 3047 
L 997 1788 
Q 997 1250 1072 997 
Q 1147 744 1394 541 
Q 1641 338 1963 338 
Q 2353 338 2579 605 
Q 2806 872 2806 1266 
Q 2806 1591 2639 1848 
Q 2472 2106 2226 2198 
Q 1981 2291 1575 2291 
L 1494 2291 
L 1494 2700 
z
" transform="scale(0.015625)"/>
      <path id="ArialMT-3ba" d="M 419 3319 
L 978 3319 
L 978 2016 
L 2325 3319 
L 3069 3319 
L 1584 1941 
L 3197 0 
L 2478 0 
L 1184 1563 
L 978 1372 
L 978 0 
L 419 0 
L 419 3319 
z
" transform="scale(0.015625)"/>
     </defs>
     <use xlink:href="#ArialMT-3b1"/>
     <use xlink:href="#ArialMT-3d" transform="translate(57.8125 0)"/>
     <use xlink:href="#ArialMT-32" transform="translate(116.210938 0)"/>
     <use xlink:href="#ArialMT-2e" transform="translate(171.826172 0)"/>
     <use xlink:href="#ArialMT-30" transform="translate(199.609375 0)"/>
     <use xlink:href="#ArialMT-2c" transform="translate(255.224609 0)"/>
     <use xlink:href="#ArialMT-20" transform="translate(283.007812 0)"/>
     <use xlink:href="#ArialMT-3b2" transform="translate(310.791016 0)"/>
     <use xlink:href="#ArialMT-3d" transform="translate(368.310547 0)"/>
     <use xlink:href="#ArialMT-32" transform="translate(426.708984 0)"/>
     <use xlink:href="#ArialMT-2e" transform="translate(482.324219 0)"/>
     <use xlink:href="#ArialMT-30" transform="translate(510.107422 0)"/>
     <use xlink:href="#ArialMT-2c" transform="translate(565.722656 0)"/>
     <use xlink:href="#ArialMT-20" transform="translate(593.505859 0)"/>
     <use xlink:href="#ArialMT-3ba" transform="translate(621.289062 0)"/>
     <use xlink:href="#ArialMT-3d" transform="translate(671.289062 0)"/>
     <use xlink:href="#ArialMT-35" transform="translate(729.6875 0)"/>
     <use xlink:href="#ArialMT-2e" transform="translate(785.302734 0)"/>
     <use xlink:href="#ArialMT-30" transform="translate(813.085938 0)"/>
    </g>
    <!-- N_agents=500, N_runs=10 -->
    <g transform="translate(165.7421 20.595312) scale(0.06 -0.06)">
     <defs>
      <path id="ArialMT-4e" d="M 488 0 
L 488 4581 
L 1109 4581 
L 3516 984 
L 3516 4581 
L 4097 4581 
L 4097 0 
L 3475 0 
L 1069 3600 
L 1069 0 
L 488 0 
z
" transform="scale(0.015625)"/>
      <path id="ArialMT-5f" d="M -97 -1272 
L -97 -866 
L 3631 -866 
L 3631 -1272 
L -97 -1272 
z
" transform="scale(0.015625)"/>
     </defs>
     <use xlink:href="#ArialMT-4e"/>
     <use xlink:href="#ArialMT-5f" transform="translate(72.216797 0)"/>
     <use xlink:href="#ArialMT-61" transform="translate(127.832031 0)"/>
     <use xlink:href="#ArialMT-67" transform="translate(183.447266 0)"/>
     <use xlink:href="#ArialMT-65" transform="translate(239.0625 0)"/>
     <use xlink:href="#ArialMT-6e" transform="translate(294.677734 0)"/>
     <use xlink:href="#ArialMT-74" transform="translate(350.292969 0)"/>
     <use xlink:href="#ArialMT-73" transform="translate(378.076172 0)"/>
     <use xlink:href="#ArialMT-3d" transform="translate(428.076172 0)"/>
     <use xlink:href="#ArialMT-35" transform="translate(486.474609 0)"/>
     <use xlink:href="#ArialMT-30" transform="translate(542.089844 0)"/>
     <use xlink:href="#ArialMT-30" transform="translate(597.705078 0)"/>
     <use xlink:href="#ArialMT-2c" transform="translate(653.320312 0)"/>
     <use xlink:href="#ArialMT-20" transform="translate(681.103516 0)"/>
     <use xlink:href="#ArialMT-4e" transform="translate(708.886719 0)"/>
     <use xlink:href="#ArialMT-5f" transform="translate(781.103516 0)"/>
     <use xlink:href="#ArialMT-72" transform="translate(836.71875 0)"/>
     <use xlink:href="#ArialMT-75" transform="translate(870.019531 0)"/>
     <use xlink:href="#ArialMT-6e" transform="translate(925.634766 0)"/>
     <use xlink:href="#ArialMT-73" transform="translate(981.25 0)"/>
     <use xlink:href="#ArialMT-3d" transform="translate(1031.25 0)"/>
     <use xlink:href="#ArialMT-31" transform="translate(1089.648438 0)"/>
     <use xlink:href="#ArialMT-30" transform="translate(1145.263672 0)"/>
    </g>
   </g>
  </g>
 </g>
 <defs>
  <clipPath id="pa1a6bb10ff">
   <rect x="34.605" y="7.2" width="207.3325" height="133"/>
  </clipPath>
 </defs>
</svg>
