<?xml version="1.0" encoding="utf-8" standalone="no"?>
<!DOCTYPE svg PUBLIC "-//W3C//DTD SVG 1.1//EN"
  "http://www.w3.org/Graphics/SVG/1.1/DTD/svg11.dtd">
<svg xmlns:xlink="http://www.w3.org/1999/xlink" width="249.1375pt" height="173.15pt" viewBox="0 0 249.1375 173.15" xmlns="http://www.w3.org/2000/svg" version="1.1">
 <metadata>
  <rdf:RDF xmlns:dc="http://purl.org/dc/elements/1.1/" xmlns:cc="http://creativecommons.org/ns#" xmlns:rdf="http://www.w3.org/1999/02/22-rdf-syntax-ns#">
   <cc:Work>
    <dc:type rdf:resource="http://purl.org/dc/dcmitype/StillImage"/>
    <dc:date>2026-03-22T18:16:27.617894</dc:date>
    <dc:format>image/svg+xml</dc:format>
    <dc:creator>
     <cc:Agent>
      <dc:title>Matplotlib v3.10.7, https://matplotlib.org/</dc:title>
     </cc:Agent>
    </dc:creator>
   </cc:Work>
  </rdf:RDF>
 </metadata>
 <defs>
  <style type="text/css">*{stroke-linejoin: round; stroke-linecap: butt}</style>
 </defs>
 <g id="figure_1">
  <g id="patch_1">
   <path d="M 0 173.15 
L 249.1375 173.15 
L 249.1375 0 
L 0 0 
z
" style="fill: #ffffff"/>
  </g>
  <g id="axes_1">
   <g id="patch_2">
    <path d="M 34.605 140.2 
L 241.9375 140.2 
L 241.9375 7.2 
L 34.605 7.2 
z
" style="fill: #ffffff"/>
   </g>
   <g id="FillBetweenPolyCollection_1">
    <path d="M 79.31776 134.154545 
L 44.399801 134.154545 
L 44.029205 133.068942 
L 45.0443 131.983338 
L 46.151907 130.897735 
L 47.11452 129.812131 
L 48.304892 128.726528 
L 49.627603 127.640924 
L 50.652475 126.555321 
L 51.402438 125.469717 
L 52.249063 124.384114 
L 53.217022 123.29851 
L 53.999921 122.212907 
L 54.543076 121.127303 
L 55.086743 120.0417 
L 55.692708 118.956096 
L 56.178879 117.870493 
L 56.512941 116.784889 
L 56.887355 115.699286 
L 57.373974 114.613682 
L 57.819606 113.528079 
L 58.132596 112.442475 
L 58.41083 111.356872 
L 58.726602 110.271268 
L 59.007733 109.185665 
L 59.207262 108.100061 
L 59.410732 107.014458 
L 59.690084 105.928854 
L 59.985557 104.843251 
L 60.209678 103.757647 
L 60.364693 102.672044 
L 60.490091 101.58644 
L 60.581125 100.500837 
L 60.628182 99.415233 
L 60.672287 98.32963 
L 60.75536 97.244026 
L 60.857527 96.158423 
L 60.936523 95.072819 
L 60.994089 93.987216 
L 61.056492 92.901612 
L 61.120296 91.816009 
L 61.164897 90.730405 
L 61.197898 89.644802 
L 61.244494 88.559198 
L 61.304131 87.473595 
L 61.354675 86.387991 
L 61.39156 85.302388 
L 61.430477 84.216784 
L 61.475659 83.13118 
L 61.514044 82.045577 
L 61.540267 80.959973 
L 61.563611 79.87437 
L 61.588619 78.788766 
L 61.608686 77.703163 
L 61.621978 76.617559 
L 61.637092 75.531956 
L 61.658425 74.446352 
L 61.678887 73.360749 
L 61.691323 72.275145 
L 61.696467 71.189542 
L 61.69617 70.103938 
L 61.689481 69.018335 
L 61.680373 67.932731 
L 61.679878 66.847128 
L 61.693991 65.761524 
L 61.716045 64.675921 
L 61.736482 63.590317 
L 61.754313 62.504714 
L 61.77381 61.41911 
L 61.795004 60.333507 
L 61.813117 59.247903 
L 61.824657 58.1623 
L 61.82981 57.076696 
L 61.830313 55.991093 
L 61.828214 54.905489 
L 61.825973 53.819886 
L 61.825212 52.734282 
L 61.82536 51.648679 
L 61.825062 50.563075 
L 61.824457 49.477472 
L 61.824572 48.391868 
L 61.825204 47.306265 
L 61.825327 46.220661 
L 61.82527 45.135058 
L 61.826488 44.049454 
L 61.829189 42.963851 
L 61.831939 41.878247 
L 61.833764 40.792644 
L 61.835027 39.70704 
L 61.836075 38.621437 
L 61.836658 37.535833 
L 61.837174 36.45023 
L 61.839067 35.364626 
L 61.843181 34.279023 
L 61.848476 33.193419 
L 61.852914 32.107816 
L 61.855092 31.022212 
L 61.854838 29.936609 
L 61.852936 28.851005 
L 61.850784 27.765401 
L 61.849856 26.679798 
L 61.867706 26.679798 
L 61.867706 26.679798 
L 61.866777 27.765401 
L 61.864625 28.851005 
L 61.862724 29.936609 
L 61.862469 31.022212 
L 61.864647 32.107816 
L 61.869085 33.193419 
L 61.874381 34.279023 
L 61.878495 35.364626 
L 61.880388 36.45023 
L 61.880903 37.535833 
L 61.881486 38.621437 
L 61.882534 39.70704 
L 61.883798 40.792644 
L 61.885623 41.878247 
L 61.888373 42.963851 
L 61.891073 44.049454 
L 61.892292 45.135058 
L 61.892234 46.220661 
L 61.892358 47.306265 
L 61.892989 48.391868 
L 61.893105 49.477472 
L 61.892499 50.563075 
L 61.892202 51.648679 
L 61.89235 52.734282 
L 61.891588 53.819886 
L 61.889348 54.905489 
L 61.887248 55.991093 
L 61.887751 57.076696 
L 61.892904 58.1623 
L 61.904445 59.247903 
L 61.922557 60.333507 
L 61.943752 61.41911 
L 61.963248 62.504714 
L 61.98108 63.590317 
L 62.001516 64.675921 
L 62.02357 65.761524 
L 62.037684 66.847128 
L 62.037188 67.932731 
L 62.028081 69.018335 
L 62.021391 70.103938 
L 62.021094 71.189542 
L 62.026238 72.275145 
L 62.038674 73.360749 
L 62.059136 74.446352 
L 62.08047 75.531956 
L 62.095583 76.617559 
L 62.108875 77.703163 
L 62.128942 78.788766 
L 62.15395 79.87437 
L 62.177295 80.959973 
L 62.203517 82.045577 
L 62.241902 83.13118 
L 62.287084 84.216784 
L 62.326002 85.302388 
L 62.362887 86.387991 
L 62.41343 87.473595 
L 62.473068 88.559198 
L 62.519663 89.644802 
L 62.552664 90.730405 
L 62.597266 91.816009 
L 62.66107 92.901612 
L 62.723472 93.987216 
L 62.781039 95.072819 
L 62.860034 96.158423 
L 62.962201 97.244026 
L 63.045275 98.32963 
L 63.089379 99.415233 
L 63.136436 100.500837 
L 63.22747 101.58644 
L 63.352868 102.672044 
L 63.507884 103.757647 
L 63.732004 104.843251 
L 64.027477 105.928854 
L 64.30683 107.014458 
L 64.510299 108.100061 
L 64.709829 109.185665 
L 64.990959 110.271268 
L 65.306732 111.356872 
L 65.584965 112.442475 
L 65.897956 113.528079 
L 66.343588 114.613682 
L 66.830207 115.699286 
L 67.204621 116.784889 
L 67.538682 117.870493 
L 68.024853 118.956096 
L 68.630818 120.0417 
L 69.174485 121.127303 
L 69.717641 122.212907 
L 70.50054 123.29851 
L 71.468498 124.384114 
L 72.315124 125.469717 
L 73.065086 126.555321 
L 74.089958 127.640924 
L 75.41267 128.726528 
L 76.603042 129.812131 
L 77.565654 130.897735 
L 78.673261 131.983338 
L 79.688357 133.068942 
L 79.31776 134.154545 
z
" clip-path="url(#pefa8446cb3)" style="fill: #888780; fill-opacity: 0.7"/>
   </g>
   <g id="FillBetweenPolyCollection_2">
    <path d="M 130.259406 134.154545 
L 95.341448 134.154545 
L 94.970851 133.068942 
L 95.985947 131.983338 
L 97.093553 130.897735 
L 98.056166 129.812131 
L 99.246538 128.726528 
L 100.569249 127.640924 
L 101.594121 126.555321 
L 102.344084 125.469717 
L 103.19071 124.384114 
L 104.158668 123.29851 
L 104.941567 122.212907 
L 105.484722 121.127303 
L 106.028389 120.0417 
L 106.634354 118.956096 
L 107.120526 117.870493 
L 107.454587 116.784889 
L 107.829001 115.699286 
L 108.31562 114.613682 
L 108.761252 113.528079 
L 109.074242 112.442475 
L 109.352476 111.356872 
L 109.668248 110.271268 
L 109.949379 109.185665 
L 110.148908 108.100061 
L 110.352378 107.014458 
L 110.631731 105.928854 
L 110.927203 104.843251 
L 111.151324 103.757647 
L 111.306339 102.672044 
L 111.431738 101.58644 
L 111.522772 100.500837 
L 111.569828 99.415233 
L 111.613933 98.32963 
L 111.697006 97.244026 
L 111.799173 96.158423 
L 111.878169 95.072819 
L 111.935736 93.987216 
L 111.998138 92.901612 
L 112.061942 91.816009 
L 112.106543 90.730405 
L 112.139545 89.644802 
L 112.18614 88.559198 
L 112.245777 87.473595 
L 112.296321 86.387991 
L 112.333206 85.302388 
L 112.372123 84.216784 
L 112.417305 83.13118 
L 112.45569 82.045577 
L 112.481913 80.959973 
L 112.505258 79.87437 
L 112.530266 78.788766 
L 112.550332 77.703163 
L 112.563625 76.617559 
L 112.578738 75.531956 
L 112.600071 74.446352 
L 112.620533 73.360749 
L 112.63297 72.275145 
L 112.638113 71.189542 
L 112.637816 70.103938 
L 112.631127 69.018335 
L 112.622019 67.932731 
L 112.621524 66.847128 
L 112.635637 65.761524 
L 112.657692 64.675921 
L 112.678128 63.590317 
L 112.69596 62.504714 
L 112.715456 61.41911 
L 112.73665 60.333507 
L 112.754763 59.247903 
L 112.766303 58.1623 
L 112.771456 57.076696 
L 112.771959 55.991093 
L 112.76986 54.905489 
L 112.767619 53.819886 
L 112.766858 52.734282 
L 112.767006 51.648679 
L 112.766708 50.563075 
L 112.766103 49.477472 
L 112.766218 48.391868 
L 112.76685 47.306265 
L 112.766973 46.220661 
L 112.766916 45.135058 
L 112.768134 44.049454 
L 112.770835 42.963851 
L 112.773585 41.878247 
L 112.77541 40.792644 
L 112.776673 39.70704 
L 112.777721 38.621437 
L 112.778305 37.535833 
L 112.77882 36.45023 
L 112.780713 35.364626 
L 112.784827 34.279023 
L 112.790123 33.193419 
L 112.79456 32.107816 
L 112.796738 31.022212 
L 112.796484 29.936609 
L 112.794582 28.851005 
L 112.792431 27.765401 
L 112.791502 26.679798 
L 112.809352 26.679798 
L 112.809352 26.679798 
L 112.808423 27.765401 
L 112.806272 28.851005 
L 112.80437 29.936609 
L 112.804115 31.022212 
L 112.806294 32.107816 
L 112.810731 33.193419 
L 112.816027 34.279023 
L 112.820141 35.364626 
L 112.822034 36.45023 
L 112.822549 37.535833 
L 112.823132 38.621437 
L 112.82418 39.70704 
L 112.825444 40.792644 
L 112.827269 41.878247 
L 112.830019 42.963851 
L 112.83272 44.049454 
L 112.833938 45.135058 
L 112.833881 46.220661 
L 112.834004 47.306265 
L 112.834636 48.391868 
L 112.834751 49.477472 
L 112.834145 50.563075 
L 112.833848 51.648679 
L 112.833996 52.734282 
L 112.833234 53.819886 
L 112.830994 54.905489 
L 112.828894 55.991093 
L 112.829398 57.076696 
L 112.834551 58.1623 
L 112.846091 59.247903 
L 112.864204 60.333507 
L 112.885398 61.41911 
L 112.904894 62.504714 
L 112.922726 63.590317 
L 112.943162 64.675921 
L 112.965216 65.761524 
L 112.97933 66.847128 
L 112.978834 67.932731 
L 112.969727 69.018335 
L 112.963038 70.103938 
L 112.96274 71.189542 
L 112.967884 72.275145 
L 112.980321 73.360749 
L 113.000783 74.446352 
L 113.022116 75.531956 
L 113.037229 76.617559 
L 113.050521 77.703163 
L 113.070588 78.788766 
L 113.095596 79.87437 
L 113.118941 80.959973 
L 113.145164 82.045577 
L 113.183548 83.13118 
L 113.22873 84.216784 
L 113.267648 85.302388 
L 113.304533 86.387991 
L 113.355076 87.473595 
L 113.414714 88.559198 
L 113.461309 89.644802 
L 113.49431 90.730405 
L 113.538912 91.816009 
L 113.602716 92.901612 
L 113.665118 93.987216 
L 113.722685 95.072819 
L 113.801681 96.158423 
L 113.903847 97.244026 
L 113.986921 98.32963 
L 114.031025 99.415233 
L 114.078082 100.500837 
L 114.169116 101.58644 
L 114.294514 102.672044 
L 114.44953 103.757647 
L 114.673651 104.843251 
L 114.969123 105.928854 
L 115.248476 107.014458 
L 115.451945 108.100061 
L 115.651475 109.185665 
L 115.932606 110.271268 
L 116.248378 111.356872 
L 116.526612 112.442475 
L 116.839602 113.528079 
L 117.285234 114.613682 
L 117.771853 115.699286 
L 118.146267 116.784889 
L 118.480328 117.870493 
L 118.966499 118.956096 
L 119.572465 120.0417 
L 120.116131 121.127303 
L 120.659287 122.212907 
L 121.442186 123.29851 
L 122.410144 124.384114 
L 123.25677 125.469717 
L 124.006732 126.555321 
L 125.031605 127.640924 
L 126.354316 128.726528 
L 127.544688 129.812131 
L 128.507301 130.897735 
L 129.614907 131.983338 
L 130.630003 133.068942 
L 130.259406 134.154545 
z
" clip-path="url(#pefa8446cb3)" style="fill: #378add; fill-opacity: 0.7"/>
   </g>
   <g id="FillBetweenPolyCollection_3">
    <path d="M 181.571649 134.154545 
L 145.912497 134.154545 
L 147.22766 132.933242 
L 150.0595 131.711938 
L 151.175383 130.490634 
L 152.057523 129.26933 
L 154.044171 128.048026 
L 155.526685 126.826722 
L 155.947419 125.605418 
L 156.815713 124.384114 
L 158.299668 123.16281 
L 159.207085 121.941506 
L 159.57975 120.720202 
L 160.180117 119.498898 
L 160.773203 118.277594 
L 160.939216 117.05629 
L 161.083093 115.834986 
L 161.477381 114.613682 
L 161.737824 113.392378 
L 161.771685 112.171074 
L 161.960696 110.94977 
L 162.318186 109.728466 
L 162.526323 108.507163 
L 162.603924 107.285859 
L 162.747269 106.064555 
L 162.879521 104.843251 
L 162.894138 103.621947 
L 162.923706 102.400643 
L 163.044079 101.179339 
L 163.127832 99.958035 
L 163.140445 98.736731 
L 163.195596 97.515427 
L 163.296406 96.294123 
L 163.348916 95.072819 
L 163.366378 93.851515 
L 163.412305 92.630211 
L 163.457585 91.408907 
L 163.464555 90.187603 
L 163.476625 88.966299 
L 163.5205 87.744995 
L 163.554913 86.523691 
L 163.564633 85.302388 
L 163.582396 84.081084 
L 163.610989 82.85978 
L 163.624726 81.638476 
L 163.628759 80.417172 
L 163.641867 79.195868 
L 163.654646 77.974564 
L 163.65576 76.75326 
L 163.658648 75.531956 
L 163.670951 74.310652 
L 163.679533 73.089348 
L 163.6805 71.868044 
L 163.684607 70.64674 
L 163.691337 69.425436 
L 163.692095 68.204132 
L 163.691709 66.982828 
L 163.698943 65.761524 
L 163.708702 64.54022 
L 163.713266 63.318916 
L 163.714886 62.097612 
L 163.715847 60.876309 
L 163.713307 59.655005 
L 163.709802 58.433701 
L 163.712692 57.212397 
L 163.721349 55.991093 
L 163.728588 54.769789 
L 163.732003 53.548485 
L 163.733717 52.327181 
L 163.734312 51.105877 
L 163.733758 49.884573 
L 163.733579 48.663269 
L 163.734217 47.441965 
L 163.734217 46.220661 
L 163.733579 44.999357 
L 163.733761 43.778053 
L 163.734347 42.556749 
L 163.733999 41.335445 
L 163.733511 40.114141 
L 163.733999 38.892837 
L 163.734347 37.671534 
L 163.733761 36.45023 
L 163.733579 35.228926 
L 163.734217 34.007622 
L 163.734217 32.786318 
L 163.733579 31.565014 
L 163.733762 30.34371 
L 163.734359 29.122406 
L 163.734092 27.901102 
L 163.734014 26.679798 
L 163.735803 25.458494 
L 163.738688 24.23719 
L 163.740841 23.015886 
L 163.741772 21.794582 
L 163.742019 20.573278 
L 163.742019 19.351974 
L 163.741772 18.13067 
L 163.740842 16.909366 
L 163.738699 15.688062 
L 163.735897 14.466758 
L 163.734517 13.245455 
L 163.749629 13.245455 
L 163.749629 13.245455 
L 163.74825 14.466758 
L 163.745447 15.688062 
L 163.743305 16.909366 
L 163.742374 18.13067 
L 163.742127 19.351974 
L 163.742127 20.573278 
L 163.742374 21.794582 
L 163.743306 23.015886 
L 163.745459 24.23719 
L 163.748343 25.458494 
L 163.750132 26.679798 
L 163.750054 27.901102 
L 163.749788 29.122406 
L 163.750384 30.34371 
L 163.750567 31.565014 
L 163.749929 32.786318 
L 163.749929 34.007622 
L 163.750567 35.228926 
L 163.750385 36.45023 
L 163.749799 37.671534 
L 163.750148 38.892837 
L 163.750635 40.114141 
L 163.750148 41.335445 
L 163.749799 42.556749 
L 163.750385 43.778053 
L 163.750567 44.999357 
L 163.749929 46.220661 
L 163.749929 47.441965 
L 163.750567 48.663269 
L 163.750388 49.884573 
L 163.749834 51.105877 
L 163.750429 52.327181 
L 163.752143 53.548485 
L 163.755558 54.769789 
L 163.762797 55.991093 
L 163.771454 57.212397 
L 163.774344 58.433701 
L 163.77084 59.655005 
L 163.768299 60.876309 
L 163.76926 62.097612 
L 163.77088 63.318916 
L 163.775444 64.54022 
L 163.785204 65.761524 
L 163.792438 66.982828 
L 163.792051 68.204132 
L 163.792809 69.425436 
L 163.799539 70.64674 
L 163.803646 71.868044 
L 163.804613 73.089348 
L 163.813195 74.310652 
L 163.825499 75.531956 
L 163.828386 76.75326 
L 163.8295 77.974564 
L 163.842279 79.195868 
L 163.855387 80.417172 
L 163.85942 81.638476 
L 163.873157 82.85978 
L 163.90175 84.081084 
L 163.919513 85.302388 
L 163.929233 86.523691 
L 163.963646 87.744995 
L 164.007522 88.966299 
L 164.019591 90.187603 
L 164.026562 91.408907 
L 164.071841 92.630211 
L 164.117768 93.851515 
L 164.13523 95.072819 
L 164.18774 96.294123 
L 164.28855 97.515427 
L 164.343701 98.736731 
L 164.356314 99.958035 
L 164.440068 101.179339 
L 164.56044 102.400643 
L 164.590008 103.621947 
L 164.604625 104.843251 
L 164.736877 106.064555 
L 164.880223 107.285859 
L 164.957823 108.507163 
L 165.16596 109.728466 
L 165.52345 110.94977 
L 165.712461 112.171074 
L 165.746322 113.392378 
L 166.006765 114.613682 
L 166.401053 115.834986 
L 166.54493 117.05629 
L 166.710943 118.277594 
L 167.304029 119.498898 
L 167.904396 120.720202 
L 168.277061 121.941506 
L 169.184478 123.16281 
L 170.668433 124.384114 
L 171.536727 125.605418 
L 171.957461 126.826722 
L 173.439975 128.048026 
L 175.426623 129.26933 
L 176.308763 130.490634 
L 177.424646 131.711938 
L 180.256486 132.933242 
L 181.571649 134.154545 
z
" clip-path="url(#pefa8446cb3)" style="fill: #ba7517; fill-opacity: 0.7"/>
   </g>
   <g id="FillBetweenPolyCollection_4">
    <path d="M 232.513295 134.154545 
L 196.854143 134.154545 
L 199.204656 133.159409 
L 203.382562 132.164272 
L 204.460736 131.169136 
L 203.168794 130.173999 
L 203.546551 129.178863 
L 206.258157 128.183726 
L 208.21652 127.18859 
L 207.925332 126.193453 
L 207.41542 125.198316 
L 208.578153 124.20318 
L 210.40676 123.208043 
L 211.087724 122.212907 
L 210.799455 121.21777 
L 210.962251 120.222634 
L 211.862473 119.227497 
L 212.492667 118.232361 
L 212.365778 117.237224 
L 212.178615 116.242088 
L 212.567418 115.246951 
L 213.169256 114.251814 
L 213.355377 113.256678 
L 213.21294 112.261541 
L 213.268383 111.266405 
L 213.619229 110.271268 
L 213.879605 109.276132 
L 213.8569 108.280995 
L 213.797504 107.285859 
L 213.930767 106.290722 
L 214.127447 105.295585 
L 214.16591 104.300449 
L 214.090937 103.305312 
L 214.105885 102.310176 
L 214.237052 101.315039 
L 214.319045 100.319903 
L 214.2793 99.324766 
L 214.240261 98.32963 
L 214.309246 97.334493 
L 214.419515 96.339357 
L 214.45859 95.34422 
L 214.438574 94.349083 
L 214.448358 93.353947 
L 214.505151 92.35881 
L 214.544854 91.363674 
L 214.536622 90.368537 
L 214.524663 89.373401 
L 214.549266 88.378264 
L 214.58728 87.383128 
L 214.598763 86.387991 
L 214.58947 85.392854 
L 214.593275 84.397718 
L 214.616871 83.402581 
L 214.636027 82.407445 
L 214.637732 81.412308 
L 214.635563 80.417172 
L 214.643056 79.422035 
L 214.653889 78.426899 
L 214.656273 77.431762 
L 214.652577 76.436626 
L 214.653936 75.441489 
L 214.66274 74.446352 
L 214.671303 73.451216 
L 214.674697 72.456079 
L 214.675504 71.460943 
L 214.677359 70.465806 
L 214.680233 69.47067 
L 214.682419 68.475533 
L 214.683392 67.480397 
L 214.683664 66.48526 
L 214.683713 65.490123 
L 214.683719 64.494987 
L 214.683719 63.49985 
L 214.683719 62.504714 
L 214.683719 61.509577 
L 214.683719 60.514441 
L 214.683719 59.519304 
L 214.683719 58.524168 
L 214.683719 57.529031 
L 214.683719 56.533895 
L 214.683719 55.538758 
L 214.683719 54.543621 
L 214.683719 53.548485 
L 214.683719 52.553348 
L 214.683719 51.558212 
L 214.683713 50.563075 
L 214.683664 49.567939 
L 214.683392 48.572802 
L 214.68242 47.577666 
L 214.68024 46.582529 
L 214.677438 45.587392 
L 214.676071 44.592256 
L 214.677438 43.597119 
L 214.68024 42.601983 
L 214.682413 41.606846 
L 214.683336 40.61171 
L 214.683336 39.616573 
L 214.682413 38.621437 
L 214.68024 37.6263 
L 214.677438 36.631163 
L 214.676071 35.636027 
L 214.691367 35.636027 
L 214.691367 35.636027 
L 214.69 36.631163 
L 214.687199 37.6263 
L 214.685025 38.621437 
L 214.684102 39.616573 
L 214.684102 40.61171 
L 214.685025 41.606846 
L 214.687199 42.601983 
L 214.69 43.597119 
L 214.691367 44.592256 
L 214.69 45.587392 
L 214.687198 46.582529 
L 214.685019 47.577666 
L 214.684047 48.572802 
L 214.683775 49.567939 
L 214.683726 50.563075 
L 214.68372 51.558212 
L 214.683719 52.553348 
L 214.683719 53.548485 
L 214.683719 54.543621 
L 214.683719 55.538758 
L 214.683719 56.533895 
L 214.683719 57.529031 
L 214.683719 58.524168 
L 214.683719 59.519304 
L 214.683719 60.514441 
L 214.683719 61.509577 
L 214.683719 62.504714 
L 214.683719 63.49985 
L 214.68372 64.494987 
L 214.683726 65.490123 
L 214.683775 66.48526 
L 214.684047 67.480397 
L 214.685019 68.475533 
L 214.687206 69.47067 
L 214.690079 70.465806 
L 214.691934 71.460943 
L 214.692741 72.456079 
L 214.696135 73.451216 
L 214.704698 74.446352 
L 214.713503 75.441489 
L 214.714862 76.436626 
L 214.711165 77.431762 
L 214.713549 78.426899 
L 214.724383 79.422035 
L 214.731876 80.417172 
L 214.729706 81.412308 
L 214.731412 82.407445 
L 214.750568 83.402581 
L 214.774163 84.397718 
L 214.777968 85.392854 
L 214.768675 86.387991 
L 214.780159 87.383128 
L 214.818172 88.378264 
L 214.842776 89.373401 
L 214.830817 90.368537 
L 214.822585 91.363674 
L 214.862287 92.35881 
L 214.919081 93.353947 
L 214.928865 94.349083 
L 214.908848 95.34422 
L 214.947924 96.339357 
L 215.058193 97.334493 
L 215.127178 98.32963 
L 215.088139 99.324766 
L 215.048393 100.319903 
L 215.130387 101.315039 
L 215.261554 102.310176 
L 215.276502 103.305312 
L 215.201528 104.300449 
L 215.239992 105.295585 
L 215.436671 106.290722 
L 215.569935 107.285859 
L 215.510539 108.280995 
L 215.487834 109.276132 
L 215.74821 110.271268 
L 216.099055 111.266405 
L 216.154498 112.261541 
L 216.012061 113.256678 
L 216.198182 114.251814 
L 216.80002 115.246951 
L 217.188823 116.242088 
L 217.001661 117.237224 
L 216.874772 118.232361 
L 217.504965 119.227497 
L 218.405187 120.222634 
L 218.567984 121.21777 
L 218.279714 122.212907 
L 218.960678 123.208043 
L 220.789286 124.20318 
L 221.952018 125.198316 
L 221.442107 126.193453 
L 221.150919 127.18859 
L 223.109281 128.183726 
L 225.820887 129.178863 
L 226.198645 130.173999 
L 224.906703 131.169136 
L 225.984877 132.164272 
L 230.162782 133.159409 
L 232.513295 134.154545 
z
" clip-path="url(#pefa8446cb3)" style="fill: #1d9e75; fill-opacity: 0.7"/>
   </g>
   <g id="matplotlib.axis_1">
    <g id="xtick_1">
     <g id="line2d_1">
      <defs>
       <path id="mb417768afa" d="M 0 0 
L 0 3.5 
" style="stroke: #000000; stroke-width: 0.8"/>
      </defs>
      <g>
       <use xlink:href="#mb417768afa" x="61.858781" y="140.2" style="stroke: #000000; stroke-width: 0.8"/>
      </g>
     </g>
     <g id="text_1">
      <!-- original -->
      <g transform="translate(48.963156 152.92625) scale(0.08 -0.08)">
       <defs>
        <path id="ArialMT-6f" d="M 213 1659 
Q 213 2581 725 3025 
Q 1153 3394 1769 3394 
Q 2453 3394 2887 2945 
Q 3322 2497 3322 1706 
Q 3322 1066 3130 698 
Q 2938 331 2570 128 
Q 2203 -75 1769 -75 
Q 1072 -75 642 372 
Q 213 819 213 1659 
z
M 791 1659 
Q 791 1022 1069 705 
Q 1347 388 1769 388 
Q 2188 388 2466 706 
Q 2744 1025 2744 1678 
Q 2744 2294 2464 2611 
Q 2184 2928 1769 2928 
Q 1347 2928 1069 2612 
Q 791 2297 791 1659 
z
" transform="scale(0.015625)"/>
        <path id="ArialMT-72" d="M 416 0 
L 416 3319 
L 922 3319 
L 922 2816 
Q 1116 3169 1280 3281 
Q 1444 3394 1641 3394 
Q 1925 3394 2219 3213 
L 2025 2691 
Q 1819 2813 1613 2813 
Q 1428 2813 1281 2702 
Q 1134 2591 1072 2394 
Q 978 2094 978 1738 
L 978 0 
L 416 0 
z
" transform="scale(0.015625)"/>
        <path id="ArialMT-69" d="M 425 3934 
L 425 4581 
L 988 4581 
L 988 3934 
L 425 3934 
z
M 425 0 
L 425 3319 
L 988 3319 
L 988 0 
L 425 0 
z
" transform="scale(0.015625)"/>
        <path id="ArialMT-67" d="M 319 -275 
L 866 -356 
Q 900 -609 1056 -725 
Q 1266 -881 1628 -881 
Q 2019 -881 2231 -725 
Q 2444 -569 2519 -288 
Q 2563 -116 2559 434 
Q 2191 0 1641 0 
Q 956 0 581 494 
Q 206 988 206 1678 
Q 206 2153 378 2554 
Q 550 2956 876 3175 
Q 1203 3394 1644 3394 
Q 2231 3394 2613 2919 
L 2613 3319 
L 3131 3319 
L 3131 450 
Q 3131 -325 2973 -648 
Q 2816 -972 2473 -1159 
Q 2131 -1347 1631 -1347 
Q 1038 -1347 672 -1080 
Q 306 -813 319 -275 
z
M 784 1719 
Q 784 1066 1043 766 
Q 1303 466 1694 466 
Q 2081 466 2343 764 
Q 2606 1063 2606 1700 
Q 2606 2309 2336 2618 
Q 2066 2928 1684 2928 
Q 1309 2928 1046 2623 
Q 784 2319 784 1719 
z
" transform="scale(0.015625)"/>
        <path id="ArialMT-6e" d="M 422 0 
L 422 3319 
L 928 3319 
L 928 2847 
Q 1294 3394 1984 3394 
Q 2284 3394 2536 3286 
Q 2788 3178 2913 3003 
Q 3038 2828 3088 2588 
Q 3119 2431 3119 2041 
L 3119 0 
L 2556 0 
L 2556 2019 
Q 2556 2363 2490 2533 
Q 2425 2703 2258 2804 
Q 2091 2906 1866 2906 
Q 1506 2906 1245 2678 
Q 984 2450 984 1813 
L 984 0 
L 422 0 
z
" transform="scale(0.015625)"/>
        <path id="ArialMT-61" d="M 2588 409 
Q 2275 144 1986 34 
Q 1697 -75 1366 -75 
Q 819 -75 525 192 
Q 231 459 231 875 
Q 231 1119 342 1320 
Q 453 1522 633 1644 
Q 813 1766 1038 1828 
Q 1203 1872 1538 1913 
Q 2219 1994 2541 2106 
Q 2544 2222 2544 2253 
Q 2544 2597 2384 2738 
Q 2169 2928 1744 2928 
Q 1347 2928 1158 2789 
Q 969 2650 878 2297 
L 328 2372 
Q 403 2725 575 2942 
Q 747 3159 1072 3276 
Q 1397 3394 1825 3394 
Q 2250 3394 2515 3294 
Q 2781 3194 2906 3042 
Q 3031 2891 3081 2659 
Q 3109 2516 3109 2141 
L 3109 1391 
Q 3109 606 3145 398 
Q 3181 191 3288 0 
L 2700 0 
Q 2613 175 2588 409 
z
M 2541 1666 
Q 2234 1541 1622 1453 
Q 1275 1403 1131 1340 
Q 988 1278 909 1158 
Q 831 1038 831 891 
Q 831 666 1001 516 
Q 1172 366 1500 366 
Q 1825 366 2078 508 
Q 2331 650 2450 897 
Q 2541 1088 2541 1459 
L 2541 1666 
z
" transform="scale(0.015625)"/>
        <path id="ArialMT-6c" d="M 409 0 
L 409 4581 
L 972 4581 
L 972 0 
L 409 0 
z
" transform="scale(0.015625)"/>
       </defs>
       <use xlink:href="#ArialMT-6f"/>
       <use xlink:href="#ArialMT-72" transform="translate(55.615234 0)"/>
       <use xlink:href="#ArialMT-69" transform="translate(88.916016 0)"/>
       <use xlink:href="#ArialMT-67" transform="translate(111.132812 0)"/>
       <use xlink:href="#ArialMT-69" transform="translate(166.748047 0)"/>
       <use xlink:href="#ArialMT-6e" transform="translate(188.964844 0)"/>
       <use xlink:href="#ArialMT-61" transform="translate(244.580078 0)"/>
       <use xlink:href="#ArialMT-6c" transform="translate(300.195312 0)"/>
      </g>
     </g>
    </g>
    <g id="xtick_2">
     <g id="line2d_2">
      <g>
       <use xlink:href="#mb417768afa" x="112.800427" y="140.2" style="stroke: #000000; stroke-width: 0.8"/>
      </g>
     </g>
     <g id="text_2">
      <!-- s1 only -->
      <g transform="translate(100.127302 152.95) scale(0.08 -0.08)">
       <defs>
        <path id="ArialMT-73" d="M 197 991 
L 753 1078 
Q 800 744 1014 566 
Q 1228 388 1613 388 
Q 2000 388 2187 545 
Q 2375 703 2375 916 
Q 2375 1106 2209 1216 
Q 2094 1291 1634 1406 
Q 1016 1563 777 1677 
Q 538 1791 414 1992 
Q 291 2194 291 2438 
Q 291 2659 392 2848 
Q 494 3038 669 3163 
Q 800 3259 1026 3326 
Q 1253 3394 1513 3394 
Q 1903 3394 2198 3281 
Q 2494 3169 2634 2976 
Q 2775 2784 2828 2463 
L 2278 2388 
Q 2241 2644 2061 2787 
Q 1881 2931 1553 2931 
Q 1166 2931 1000 2803 
Q 834 2675 834 2503 
Q 834 2394 903 2306 
Q 972 2216 1119 2156 
Q 1203 2125 1616 2013 
Q 2213 1853 2448 1751 
Q 2684 1650 2818 1456 
Q 2953 1263 2953 975 
Q 2953 694 2789 445 
Q 2625 197 2315 61 
Q 2006 -75 1616 -75 
Q 969 -75 630 194 
Q 291 463 197 991 
z
" transform="scale(0.015625)"/>
        <path id="ArialMT-31" d="M 2384 0 
L 1822 0 
L 1822 3584 
Q 1619 3391 1289 3197 
Q 959 3003 697 2906 
L 697 3450 
Q 1169 3672 1522 3987 
Q 1875 4303 2022 4600 
L 2384 4600 
L 2384 0 
z
" transform="scale(0.015625)"/>
        <path id="ArialMT-20" transform="scale(0.015625)"/>
        <path id="ArialMT-79" d="M 397 -1278 
L 334 -750 
Q 519 -800 656 -800 
Q 844 -800 956 -737 
Q 1069 -675 1141 -563 
Q 1194 -478 1313 -144 
Q 1328 -97 1363 -6 
L 103 3319 
L 709 3319 
L 1400 1397 
Q 1534 1031 1641 628 
Q 1738 1016 1872 1384 
L 2581 3319 
L 3144 3319 
L 1881 -56 
Q 1678 -603 1566 -809 
Q 1416 -1088 1222 -1217 
Q 1028 -1347 759 -1347 
Q 597 -1347 397 -1278 
z
" transform="scale(0.015625)"/>
       </defs>
       <use xlink:href="#ArialMT-73"/>
       <use xlink:href="#ArialMT-31" transform="translate(50 0)"/>
       <use xlink:href="#ArialMT-20" transform="translate(105.615234 0)"/>
       <use xlink:href="#ArialMT-6f" transform="translate(133.398438 0)"/>
       <use xlink:href="#ArialMT-6e" transform="translate(189.013672 0)"/>
       <use xlink:href="#ArialMT-6c" transform="translate(244.628906 0)"/>
       <use xlink:href="#ArialMT-79" transform="translate(266.845703 0)"/>
      </g>
     </g>
    </g>
    <g id="xtick_3">
     <g id="line2d_3">
      <g>
       <use xlink:href="#mb417768afa" x="163.742073" y="140.2" style="stroke: #000000; stroke-width: 0.8"/>
      </g>
     </g>
     <g id="text_3">
      <!-- switch -->
      <g transform="translate(152.628948 152.92625) scale(0.08 -0.08)">
       <defs>
        <path id="ArialMT-77" d="M 1034 0 
L 19 3319 
L 600 3319 
L 1128 1403 
L 1325 691 
Q 1338 744 1497 1375 
L 2025 3319 
L 2603 3319 
L 3100 1394 
L 3266 759 
L 3456 1400 
L 4025 3319 
L 4572 3319 
L 3534 0 
L 2950 0 
L 2422 1988 
L 2294 2553 
L 1622 0 
L 1034 0 
z
" transform="scale(0.015625)"/>
        <path id="ArialMT-74" d="M 1650 503 
L 1731 6 
Q 1494 -44 1306 -44 
Q 1000 -44 831 53 
Q 663 150 594 308 
Q 525 466 525 972 
L 525 2881 
L 113 2881 
L 113 3319 
L 525 3319 
L 525 4141 
L 1084 4478 
L 1084 3319 
L 1650 3319 
L 1650 2881 
L 1084 2881 
L 1084 941 
Q 1084 700 1114 631 
Q 1144 563 1211 522 
Q 1278 481 1403 481 
Q 1497 481 1650 503 
z
" transform="scale(0.015625)"/>
        <path id="ArialMT-63" d="M 2588 1216 
L 3141 1144 
Q 3050 572 2676 248 
Q 2303 -75 1759 -75 
Q 1078 -75 664 370 
Q 250 816 250 1647 
Q 250 2184 428 2587 
Q 606 2991 970 3192 
Q 1334 3394 1763 3394 
Q 2303 3394 2647 3120 
Q 2991 2847 3088 2344 
L 2541 2259 
Q 2463 2594 2264 2762 
Q 2066 2931 1784 2931 
Q 1359 2931 1093 2626 
Q 828 2322 828 1663 
Q 828 994 1084 691 
Q 1341 388 1753 388 
Q 2084 388 2306 591 
Q 2528 794 2588 1216 
z
" transform="scale(0.015625)"/>
        <path id="ArialMT-68" d="M 422 0 
L 422 4581 
L 984 4581 
L 984 2938 
Q 1378 3394 1978 3394 
Q 2347 3394 2619 3248 
Q 2891 3103 3008 2847 
Q 3125 2591 3125 2103 
L 3125 0 
L 2563 0 
L 2563 2103 
Q 2563 2525 2380 2717 
Q 2197 2909 1863 2909 
Q 1613 2909 1392 2779 
Q 1172 2650 1078 2428 
Q 984 2206 984 1816 
L 984 0 
L 422 0 
z
" transform="scale(0.015625)"/>
       </defs>
       <use xlink:href="#ArialMT-73"/>
       <use xlink:href="#ArialMT-77" transform="translate(50 0)"/>
       <use xlink:href="#ArialMT-69" transform="translate(122.216797 0)"/>
       <use xlink:href="#ArialMT-74" transform="translate(144.433594 0)"/>
       <use xlink:href="#ArialMT-63" transform="translate(172.216797 0)"/>
       <use xlink:href="#ArialMT-68" transform="translate(222.216797 0)"/>
      </g>
     </g>
    </g>
    <g id="xtick_4">
     <g id="line2d_4">
      <g>
       <use xlink:href="#mb417768afa" x="214.683719" y="140.2" style="stroke: #000000; stroke-width: 0.8"/>
      </g>
     </g>
     <g id="text_4">
      <!-- blend -->
      <g transform="translate(204.897469 152.92625) scale(0.08 -0.08)">
       <defs>
        <path id="ArialMT-62" d="M 941 0 
L 419 0 
L 419 4581 
L 981 4581 
L 981 2947 
Q 1338 3394 1891 3394 
Q 2197 3394 2470 3270 
Q 2744 3147 2920 2923 
Q 3097 2700 3197 2384 
Q 3297 2069 3297 1709 
Q 3297 856 2875 390 
Q 2453 -75 1863 -75 
Q 1275 -75 941 416 
L 941 0 
z
M 934 1684 
Q 934 1088 1097 822 
Q 1363 388 1816 388 
Q 2184 388 2453 708 
Q 2722 1028 2722 1663 
Q 2722 2313 2464 2622 
Q 2206 2931 1841 2931 
Q 1472 2931 1203 2611 
Q 934 2291 934 1684 
z
" transform="scale(0.015625)"/>
        <path id="ArialMT-65" d="M 2694 1069 
L 3275 997 
Q 3138 488 2766 206 
Q 2394 -75 1816 -75 
Q 1088 -75 661 373 
Q 234 822 234 1631 
Q 234 2469 665 2931 
Q 1097 3394 1784 3394 
Q 2450 3394 2872 2941 
Q 3294 2488 3294 1666 
Q 3294 1616 3291 1516 
L 816 1516 
Q 847 969 1125 678 
Q 1403 388 1819 388 
Q 2128 388 2347 550 
Q 2566 713 2694 1069 
z
M 847 1978 
L 2700 1978 
Q 2663 2397 2488 2606 
Q 2219 2931 1791 2931 
Q 1403 2931 1139 2672 
Q 875 2413 847 1978 
z
" transform="scale(0.015625)"/>
        <path id="ArialMT-64" d="M 2575 0 
L 2575 419 
Q 2259 -75 1647 -75 
Q 1250 -75 917 144 
Q 584 363 401 755 
Q 219 1147 219 1656 
Q 219 2153 384 2558 
Q 550 2963 881 3178 
Q 1213 3394 1622 3394 
Q 1922 3394 2156 3267 
Q 2391 3141 2538 2938 
L 2538 4581 
L 3097 4581 
L 3097 0 
L 2575 0 
z
M 797 1656 
Q 797 1019 1065 703 
Q 1334 388 1700 388 
Q 2069 388 2326 689 
Q 2584 991 2584 1609 
Q 2584 2291 2321 2609 
Q 2059 2928 1675 2928 
Q 1300 2928 1048 2622 
Q 797 2316 797 1656 
z
" transform="scale(0.015625)"/>
       </defs>
       <use xlink:href="#ArialMT-62"/>
       <use xlink:href="#ArialMT-6c" transform="translate(55.615234 0)"/>
       <use xlink:href="#ArialMT-65" transform="translate(77.832031 0)"/>
       <use xlink:href="#ArialMT-6e" transform="translate(133.447266 0)"/>
       <use xlink:href="#ArialMT-64" transform="translate(189.0625 0)"/>
      </g>
     </g>
    </g>
    <g id="text_5">
     <!-- Decision mode -->
     <g transform="translate(111.815625 164.36) scale(0.08 -0.08)">
      <defs>
       <path id="ArialMT-44" d="M 494 0 
L 494 4581 
L 2072 4581 
Q 2606 4581 2888 4516 
Q 3281 4425 3559 4188 
Q 3922 3881 4101 3404 
Q 4281 2928 4281 2316 
Q 4281 1794 4159 1391 
Q 4038 988 3847 723 
Q 3656 459 3429 307 
Q 3203 156 2883 78 
Q 2563 0 2147 0 
L 494 0 
z
M 1100 541 
L 2078 541 
Q 2531 541 2789 625 
Q 3047 709 3200 863 
Q 3416 1078 3536 1442 
Q 3656 1806 3656 2325 
Q 3656 3044 3420 3430 
Q 3184 3816 2847 3947 
Q 2603 4041 2063 4041 
L 1100 4041 
L 1100 541 
z
" transform="scale(0.015625)"/>
       <path id="ArialMT-6d" d="M 422 0 
L 422 3319 
L 925 3319 
L 925 2853 
Q 1081 3097 1340 3245 
Q 1600 3394 1931 3394 
Q 2300 3394 2536 3241 
Q 2772 3088 2869 2813 
Q 3263 3394 3894 3394 
Q 4388 3394 4653 3120 
Q 4919 2847 4919 2278 
L 4919 0 
L 4359 0 
L 4359 2091 
Q 4359 2428 4304 2576 
Q 4250 2725 4106 2815 
Q 3963 2906 3769 2906 
Q 3419 2906 3187 2673 
Q 2956 2441 2956 1928 
L 2956 0 
L 2394 0 
L 2394 2156 
Q 2394 2531 2256 2718 
Q 2119 2906 1806 2906 
Q 1569 2906 1367 2781 
Q 1166 2656 1075 2415 
Q 984 2175 984 1722 
L 984 0 
L 422 0 
z
" transform="scale(0.015625)"/>
      </defs>
      <use xlink:href="#ArialMT-44"/>
      <use xlink:href="#ArialMT-65" transform="translate(72.216797 0)"/>
      <use xlink:href="#ArialMT-63" transform="translate(127.832031 0)"/>
      <use xlink:href="#ArialMT-69" transform="translate(177.832031 0)"/>
      <use xlink:href="#ArialMT-73" transform="translate(200.048828 0)"/>
      <use xlink:href="#ArialMT-69" transform="translate(250.048828 0)"/>
      <use xlink:href="#ArialMT-6f" transform="translate(272.265625 0)"/>
      <use xlink:href="#ArialMT-6e" transform="translate(327.880859 0)"/>
      <use xlink:href="#ArialMT-20" transform="translate(383.496094 0)"/>
      <use xlink:href="#ArialMT-6d" transform="translate(411.279297 0)"/>
      <use xlink:href="#ArialMT-6f" transform="translate(494.580078 0)"/>
      <use xlink:href="#ArialMT-64" transform="translate(550.195312 0)"/>
      <use xlink:href="#ArialMT-65" transform="translate(605.810547 0)"/>
     </g>
    </g>
   </g>
   <g id="matplotlib.axis_2">
    <g id="ytick_1">
     <g id="line2d_5">
      <path d="M 34.605 134.154545 
L 241.9375 134.154545 
" clip-path="url(#pefa8446cb3)" style="fill: none; stroke: #b0b0b0; stroke-opacity: 0.3; stroke-width: 0.8; stroke-linecap: square"/>
     </g>
     <g id="line2d_6">
      <defs>
       <path id="m636f2030e5" d="M 0 0 
L -3.5 0 
" style="stroke: #000000; stroke-width: 0.8"/>
      </defs>
      <g>
       <use xlink:href="#m636f2030e5" x="34.605" y="134.154545" style="stroke: #000000; stroke-width: 0.8"/>
      </g>
     </g>
     <g id="text_6">
      <!-- 0 -->
      <g transform="translate(23.15625 137.01767) scale(0.08 -0.08)">
       <defs>
        <path id="ArialMT-30" d="M 266 2259 
Q 266 3072 433 3567 
Q 600 4063 929 4331 
Q 1259 4600 1759 4600 
Q 2128 4600 2406 4451 
Q 2684 4303 2865 4023 
Q 3047 3744 3150 3342 
Q 3253 2941 3253 2259 
Q 3253 1453 3087 958 
Q 2922 463 2592 192 
Q 2263 -78 1759 -78 
Q 1097 -78 719 397 
Q 266 969 266 2259 
z
M 844 2259 
Q 844 1131 1108 757 
Q 1372 384 1759 384 
Q 2147 384 2411 759 
Q 2675 1134 2675 2259 
Q 2675 3391 2411 3762 
Q 2147 4134 1753 4134 
Q 1366 4134 1134 3806 
Q 844 3388 844 2259 
z
" transform="scale(0.015625)"/>
       </defs>
       <use xlink:href="#ArialMT-30"/>
      </g>
     </g>
    </g>
    <g id="ytick_2">
     <g id="line2d_7">
      <path d="M 34.605 111.763973 
L 241.9375 111.763973 
" clip-path="url(#pefa8446cb3)" style="fill: none; stroke: #b0b0b0; stroke-opacity: 0.3; stroke-width: 0.8; stroke-linecap: square"/>
     </g>
     <g id="line2d_8">
      <g>
       <use xlink:href="#m636f2030e5" x="34.605" y="111.763973" style="stroke: #000000; stroke-width: 0.8"/>
      </g>
     </g>
     <g id="text_7">
      <!-- 5 -->
      <g transform="translate(23.15625 114.627098) scale(0.08 -0.08)">
       <defs>
        <path id="ArialMT-35" d="M 266 1200 
L 856 1250 
Q 922 819 1161 601 
Q 1400 384 1738 384 
Q 2144 384 2425 690 
Q 2706 997 2706 1503 
Q 2706 1984 2436 2262 
Q 2166 2541 1728 2541 
Q 1456 2541 1237 2417 
Q 1019 2294 894 2097 
L 366 2166 
L 809 4519 
L 3088 4519 
L 3088 3981 
L 1259 3981 
L 1013 2750 
Q 1425 3038 1878 3038 
Q 2478 3038 2890 2622 
Q 3303 2206 3303 1553 
Q 3303 931 2941 478 
Q 2500 -78 1738 -78 
Q 1113 -78 717 272 
Q 322 622 266 1200 
z
" transform="scale(0.015625)"/>
       </defs>
       <use xlink:href="#ArialMT-35"/>
      </g>
     </g>
    </g>
    <g id="ytick_3">
     <g id="line2d_9">
      <path d="M 34.605 89.373401 
L 241.9375 89.373401 
" clip-path="url(#pefa8446cb3)" style="fill: none; stroke: #b0b0b0; stroke-opacity: 0.3; stroke-width: 0.8; stroke-linecap: square"/>
     </g>
     <g id="line2d_10">
      <g>
       <use xlink:href="#m636f2030e5" x="34.605" y="89.373401" style="stroke: #000000; stroke-width: 0.8"/>
      </g>
     </g>
     <g id="text_8">
      <!-- 10 -->
      <g transform="translate(18.7075 92.236526) scale(0.08 -0.08)">
       <use xlink:href="#ArialMT-31"/>
       <use xlink:href="#ArialMT-30" transform="translate(55.615234 0)"/>
      </g>
     </g>
    </g>
    <g id="ytick_4">
     <g id="line2d_11">
      <path d="M 34.605 66.982828 
L 241.9375 66.982828 
" clip-path="url(#pefa8446cb3)" style="fill: none; stroke: #b0b0b0; stroke-opacity: 0.3; stroke-width: 0.8; stroke-linecap: square"/>
     </g>
     <g id="line2d_12">
      <g>
       <use xlink:href="#m636f2030e5" x="34.605" y="66.982828" style="stroke: #000000; stroke-width: 0.8"/>
      </g>
     </g>
     <g id="text_9">
      <!-- 15 -->
      <g transform="translate(18.7075 69.845953) scale(0.08 -0.08)">
       <use xlink:href="#ArialMT-31"/>
       <use xlink:href="#ArialMT-35" transform="translate(55.615234 0)"/>
      </g>
     </g>
    </g>
    <g id="ytick_5">
     <g id="line2d_13">
      <path d="M 34.605 44.592256 
L 241.9375 44.592256 
" clip-path="url(#pefa8446cb3)" style="fill: none; stroke: #b0b0b0; stroke-opacity: 0.3; stroke-width: 0.8; stroke-linecap: square"/>
     </g>
     <g id="line2d_14">
      <g>
       <use xlink:href="#m636f2030e5" x="34.605" y="44.592256" style="stroke: #000000; stroke-width: 0.8"/>
      </g>
     </g>
     <g id="text_10">
      <!-- 20 -->
      <g transform="translate(18.7075 47.455381) scale(0.08 -0.08)">
       <defs>
        <path id="ArialMT-32" d="M 3222 541 
L 3222 0 
L 194 0 
Q 188 203 259 391 
Q 375 700 629 1000 
Q 884 1300 1366 1694 
Q 2113 2306 2375 2664 
Q 2638 3022 2638 3341 
Q 2638 3675 2398 3904 
Q 2159 4134 1775 4134 
Q 1369 4134 1125 3890 
Q 881 3647 878 3216 
L 300 3275 
Q 359 3922 746 4261 
Q 1134 4600 1788 4600 
Q 2447 4600 2831 4234 
Q 3216 3869 3216 3328 
Q 3216 3053 3103 2787 
Q 2991 2522 2730 2228 
Q 2469 1934 1863 1422 
Q 1356 997 1212 845 
Q 1069 694 975 541 
L 3222 541 
z
" transform="scale(0.015625)"/>
       </defs>
       <use xlink:href="#ArialMT-32"/>
       <use xlink:href="#ArialMT-30" transform="translate(55.615234 0)"/>
      </g>
     </g>
    </g>
    <g id="ytick_6">
     <g id="line2d_15">
      <path d="M 34.605 22.201684 
L 241.9375 22.201684 
" clip-path="url(#pefa8446cb3)" style="fill: none; stroke: #b0b0b0; stroke-opacity: 0.3; stroke-width: 0.8; stroke-linecap: square"/>
     </g>
     <g id="line2d_16">
      <g>
       <use xlink:href="#m636f2030e5" x="34.605" y="22.201684" style="stroke: #000000; stroke-width: 0.8"/>
      </g>
     </g>
     <g id="text_11">
      <!-- 25 -->
      <g transform="translate(18.7075 25.064809) scale(0.08 -0.08)">
       <use xlink:href="#ArialMT-32"/>
       <use xlink:href="#ArialMT-35" transform="translate(55.615234 0)"/>
      </g>
     </g>
    </g>
    <g id="text_12">
     <!-- First-departure timestep (hours) -->
     <g transform="translate(13.02375 129.935625) rotate(-90) scale(0.08 -0.08)">
      <defs>
       <path id="ArialMT-46" d="M 525 0 
L 525 4581 
L 3616 4581 
L 3616 4041 
L 1131 4041 
L 1131 2622 
L 3281 2622 
L 3281 2081 
L 1131 2081 
L 1131 0 
L 525 0 
z
" transform="scale(0.015625)"/>
       <path id="ArialMT-2d" d="M 203 1375 
L 203 1941 
L 1931 1941 
L 1931 1375 
L 203 1375 
z
" transform="scale(0.015625)"/>
       <path id="ArialMT-70" d="M 422 -1272 
L 422 3319 
L 934 3319 
L 934 2888 
Q 1116 3141 1344 3267 
Q 1572 3394 1897 3394 
Q 2322 3394 2647 3175 
Q 2972 2956 3137 2557 
Q 3303 2159 3303 1684 
Q 3303 1175 3120 767 
Q 2938 359 2589 142 
Q 2241 -75 1856 -75 
Q 1575 -75 1351 44 
Q 1128 163 984 344 
L 984 -1272 
L 422 -1272 
z
M 931 1641 
Q 931 1000 1190 694 
Q 1450 388 1819 388 
Q 2194 388 2461 705 
Q 2728 1022 2728 1688 
Q 2728 2322 2467 2637 
Q 2206 2953 1844 2953 
Q 1484 2953 1207 2617 
Q 931 2281 931 1641 
z
" transform="scale(0.015625)"/>
       <path id="ArialMT-75" d="M 2597 0 
L 2597 488 
Q 2209 -75 1544 -75 
Q 1250 -75 995 37 
Q 741 150 617 320 
Q 494 491 444 738 
Q 409 903 409 1263 
L 409 3319 
L 972 3319 
L 972 1478 
Q 972 1038 1006 884 
Q 1059 663 1231 536 
Q 1403 409 1656 409 
Q 1909 409 2131 539 
Q 2353 669 2445 892 
Q 2538 1116 2538 1541 
L 2538 3319 
L 3100 3319 
L 3100 0 
L 2597 0 
z
" transform="scale(0.015625)"/>
       <path id="ArialMT-28" d="M 1497 -1347 
Q 1031 -759 709 28 
Q 388 816 388 1659 
Q 388 2403 628 3084 
Q 909 3875 1497 4659 
L 1900 4659 
Q 1522 4009 1400 3731 
Q 1209 3300 1100 2831 
Q 966 2247 966 1656 
Q 966 153 1900 -1347 
L 1497 -1347 
z
" transform="scale(0.015625)"/>
       <path id="ArialMT-29" d="M 791 -1347 
L 388 -1347 
Q 1322 153 1322 1656 
Q 1322 2244 1188 2822 
Q 1081 3291 891 3722 
Q 769 4003 388 4659 
L 791 4659 
Q 1378 3875 1659 3084 
Q 1900 2403 1900 1659 
Q 1900 816 1576 28 
Q 1253 -759 791 -1347 
z
" transform="scale(0.015625)"/>
      </defs>
      <use xlink:href="#ArialMT-46"/>
      <use xlink:href="#ArialMT-69" transform="translate(61.083984 0)"/>
      <use xlink:href="#ArialMT-72" transform="translate(83.300781 0)"/>
      <use xlink:href="#ArialMT-73" transform="translate(116.601562 0)"/>
      <use xlink:href="#ArialMT-74" transform="translate(166.601562 0)"/>
      <use xlink:href="#ArialMT-2d" transform="translate(194.384766 0)"/>
      <use xlink:href="#ArialMT-64" transform="translate(227.685547 0)"/>
      <use xlink:href="#ArialMT-65" transform="translate(283.300781 0)"/>
      <use xlink:href="#ArialMT-70" transform="translate(338.916016 0)"/>
      <use xlink:href="#ArialMT-61" transform="translate(394.53125 0)"/>
      <use xlink:href="#ArialMT-72" transform="translate(450.146484 0)"/>
      <use xlink:href="#ArialMT-74" transform="translate(483.447266 0)"/>
      <use xlink:href="#ArialMT-75" transform="translate(511.230469 0)"/>
      <use xlink:href="#ArialMT-72" transform="translate(566.845703 0)"/>
      <use xlink:href="#ArialMT-65" transform="translate(600.146484 0)"/>
      <use xlink:href="#ArialMT-20" transform="translate(655.761719 0)"/>
      <use xlink:href="#ArialMT-74" transform="translate(683.544922 0)"/>
      <use xlink:href="#ArialMT-69" transform="translate(711.328125 0)"/>
      <use xlink:href="#ArialMT-6d" transform="translate(733.544922 0)"/>
      <use xlink:href="#ArialMT-65" transform="translate(816.845703 0)"/>
      <use xlink:href="#ArialMT-73" transform="translate(872.460938 0)"/>
      <use xlink:href="#ArialMT-74" transform="translate(922.460938 0)"/>
      <use xlink:href="#ArialMT-65" transform="translate(950.244141 0)"/>
      <use xlink:href="#ArialMT-70" transform="translate(1005.859375 0)"/>
      <use xlink:href="#ArialMT-20" transform="translate(1061.474609 0)"/>
      <use xlink:href="#ArialMT-28" transform="translate(1089.257812 0)"/>
      <use xlink:href="#ArialMT-68" transform="translate(1122.558594 0)"/>
      <use xlink:href="#ArialMT-6f" transform="translate(1178.173828 0)"/>
      <use xlink:href="#ArialMT-75" transform="translate(1233.789062 0)"/>
      <use xlink:href="#ArialMT-72" transform="translate(1289.404297 0)"/>
      <use xlink:href="#ArialMT-73" transform="translate(1322.705078 0)"/>
      <use xlink:href="#ArialMT-29" transform="translate(1372.705078 0)"/>
     </g>
    </g>
   </g>
   <g id="LineCollection_1">
    <path d="M 52.943993 123.473496 
L 70.773569 123.473496 
" clip-path="url(#pefa8446cb3)" style="fill: none; stroke: #1f77b4; stroke-width: 1.5"/>
   </g>
   <g id="LineCollection_2">
    <path d="M 52.943993 26.679798 
L 70.773569 26.679798 
" clip-path="url(#pefa8446cb3)" style="fill: none; stroke: #1f77b4; stroke-width: 1.5"/>
   </g>
   <g id="LineCollection_3">
    <path d="M 52.943993 134.154545 
L 70.773569 134.154545 
" clip-path="url(#pefa8446cb3)" style="fill: none; stroke: #1f77b4; stroke-width: 1.5"/>
   </g>
   <g id="LineCollection_4">
    <path d="M 61.858781 134.154545 
L 61.858781 26.679798 
" clip-path="url(#pefa8446cb3)" style="fill: none; stroke: #1f77b4; stroke-width: 1.5"/>
   </g>
   <g id="LineCollection_5">
    <path d="M 52.943993 129.676431 
L 70.773569 129.676431 
" clip-path="url(#pefa8446cb3)" style="fill: none; stroke: #1f77b4; stroke-width: 1.5"/>
   </g>
   <g id="LineCollection_6">
    <path d="M 103.885639 123.473496 
L 121.715215 123.473496 
" clip-path="url(#pefa8446cb3)" style="fill: none; stroke: #ff7f0e; stroke-width: 1.5"/>
   </g>
   <g id="LineCollection_7">
    <path d="M 103.885639 26.679798 
L 121.715215 26.679798 
" clip-path="url(#pefa8446cb3)" style="fill: none; stroke: #ff7f0e; stroke-width: 1.5"/>
   </g>
   <g id="LineCollection_8">
    <path d="M 103.885639 134.154545 
L 121.715215 134.154545 
" clip-path="url(#pefa8446cb3)" style="fill: none; stroke: #ff7f0e; stroke-width: 1.5"/>
   </g>
   <g id="LineCollection_9">
    <path d="M 112.800427 134.154545 
L 112.800427 26.679798 
" clip-path="url(#pefa8446cb3)" style="fill: none; stroke: #ff7f0e; stroke-width: 1.5"/>
   </g>
   <g id="LineCollection_10">
    <path d="M 103.885639 129.676431 
L 121.715215 129.676431 
" clip-path="url(#pefa8446cb3)" style="fill: none; stroke: #ff7f0e; stroke-width: 1.5"/>
   </g>
   <g id="LineCollection_11">
    <path d="M 154.827285 126.186487 
L 172.656861 126.186487 
" clip-path="url(#pefa8446cb3)" style="fill: none; stroke: #2ca02c; stroke-width: 1.5"/>
   </g>
   <g id="LineCollection_12">
    <path d="M 154.827285 13.245455 
L 172.656861 13.245455 
" clip-path="url(#pefa8446cb3)" style="fill: none; stroke: #2ca02c; stroke-width: 1.5"/>
   </g>
   <g id="LineCollection_13">
    <path d="M 154.827285 134.154545 
L 172.656861 134.154545 
" clip-path="url(#pefa8446cb3)" style="fill: none; stroke: #2ca02c; stroke-width: 1.5"/>
   </g>
   <g id="LineCollection_14">
    <path d="M 163.742073 134.154545 
L 163.742073 13.245455 
" clip-path="url(#pefa8446cb3)" style="fill: none; stroke: #2ca02c; stroke-width: 1.5"/>
   </g>
   <g id="LineCollection_15">
    <path d="M 154.827285 129.676431 
L 172.656861 129.676431 
" clip-path="url(#pefa8446cb3)" style="fill: none; stroke: #2ca02c; stroke-width: 1.5"/>
   </g>
   <g id="LineCollection_16">
    <path d="M 205.768931 127.138086 
L 223.598507 127.138086 
" clip-path="url(#pefa8446cb3)" style="fill: none; stroke: #d62728; stroke-width: 1.5"/>
   </g>
   <g id="LineCollection_17">
    <path d="M 205.768931 35.636027 
L 223.598507 35.636027 
" clip-path="url(#pefa8446cb3)" style="fill: none; stroke: #d62728; stroke-width: 1.5"/>
   </g>
   <g id="LineCollection_18">
    <path d="M 205.768931 134.154545 
L 223.598507 134.154545 
" clip-path="url(#pefa8446cb3)" style="fill: none; stroke: #d62728; stroke-width: 1.5"/>
   </g>
   <g id="LineCollection_19">
    <path d="M 214.683719 134.154545 
L 214.683719 35.636027 
" clip-path="url(#pefa8446cb3)" style="fill: none; stroke: #d62728; stroke-width: 1.5"/>
   </g>
   <g id="LineCollection_20">
    <path d="M 205.768931 129.676431 
L 223.598507 129.676431 
" clip-path="url(#pefa8446cb3)" style="fill: none; stroke: #d62728; stroke-width: 1.5"/>
   </g>
   <g id="patch_3">
    <path d="M 34.605 140.2 
L 34.605 7.2 
" style="fill: none; stroke: #000000; stroke-width: 0.5; stroke-linejoin: miter; stroke-linecap: square"/>
   </g>
   <g id="patch_4">
    <path d="M 34.605 140.2 
L 241.9375 140.2 
" style="fill: none; stroke: #000000; stroke-width: 0.5; stroke-linejoin: miter; stroke-linecap: square"/>
   </g>
   <g id="text_13">
    <g id="patch_5">
     <path d="M 165.7421 23.658125 
L 237.79085 23.658125 
Q 239.59085 23.658125 239.59085 21.858125 
L 239.59085 9.930312 
Q 239.59085 8.130312 237.79085 8.130312 
L 165.7421 8.130312 
Q 163.9421 8.130312 163.9421 9.930312 
L 163.9421 21.858125 
Q 163.9421 23.658125 165.7421 23.658125 
z
" style="fill: #ffffff; opacity: 0.9; stroke: #808080; stroke-linejoin: miter"/>
    </g>
    <!-- α=2.0, β=2.0, κ=5.0 -->
    <g transform="translate(185.670538 14.227812) scale(0.06 -0.06)">
     <defs>
      <path id="ArialMT-3b1" d="M 2884 3319 
L 3459 3319 
Q 3241 2631 3056 1659 
Q 3275 453 3459 0 
L 2900 0 
Q 2766 313 2697 606 
Q 2438 -75 1613 -75 
Q 988 -75 606 394 
Q 225 863 225 1666 
Q 225 2491 608 2942 
Q 991 3394 1622 3394 
Q 2013 3394 2259 3236 
Q 2506 3078 2719 2756 
Q 2741 2866 2884 3319 
z
M 1716 2928 
Q 1313 2928 1078 2603 
Q 844 2278 844 1666 
Q 844 1069 1066 728 
Q 1288 388 1684 388 
Q 2072 388 2331 723 
Q 2591 1059 2591 1691 
Q 2591 2303 2348 2615 
Q 2106 2928 1716 2928 
z
" transform="scale(0.015625)"/>
      <path id="ArialMT-3d" d="M 3381 2694 
L 356 2694 
L 356 3219 
L 3381 3219 
L 3381 2694 
z
M 3381 1303 
L 356 1303 
L 356 1828 
L 3381 1828 
L 3381 1303 
z
" transform="scale(0.015625)"/>
      <path id="ArialMT-2e" d="M 581 0 
L 581 641 
L 1222 641 
L 1222 0 
L 581 0 
z
" transform="scale(0.015625)"/>
      <path id="ArialMT-2c" d="M 569 0 
L 569 641 
L 1209 641 
L 1209 0 
Q 1209 -353 1084 -570 
Q 959 -788 688 -906 
L 531 -666 
Q 709 -588 793 -436 
Q 878 -284 888 0 
L 569 0 
z
" transform="scale(0.015625)"/>
      <path id="ArialMT-3b2" d="M 997 422 
L 997 -1272 
L 438 -1272 
L 438 3144 
Q 438 3672 580 3970 
Q 722 4269 1069 4464 
Q 1416 4659 1841 4659 
Q 2469 4659 2792 4298 
Q 3116 3938 3116 3509 
Q 3116 3091 2855 2834 
Q 2594 2578 2256 2519 
Q 2800 2466 3095 2128 
Q 3391 1791 3391 1297 
Q 3391 766 3042 345 
Q 2694 -75 2034 -75 
Q 1359 -75 997 422 
z
M 1494 2700 
Q 2069 2700 2331 2900 
Q 2594 3100 2594 3478 
Q 2594 3784 2370 3990 
Q 2147 4197 1813 4197 
Q 1522 4197 1308 4044 
Q 1094 3891 1045 3703 
Q 997 3516 997 3047 
L 997 1788 
Q 997 1250 1072 997 
Q 1147 744 1394 541 
Q 1641 338 1963 338 
Q 2353 338 2579 605 
Q 2806 872 2806 1266 
Q 2806 1591 2639 1848 
Q 2472 2106 2226 2198 
Q 1981 2291 1575 2291 
L 1494 2291 
L 1494 2700 
z
" transform="scale(0.015625)"/>
      <path id="ArialMT-3ba" d="M 419 3319 
L 978 3319 
L 978 2016 
L 2325 3319 
L 3069 3319 
L 1584 1941 
L 3197 0 
L 2478 0 
L 1184 1563 
L 978 1372 
L 978 0 
L 419 0 
L 419 3319 
z
" transform="scale(0.015625)"/>
     </defs>
     <use xlink:href="#ArialMT-3b1"/>
     <use xlink:href="#ArialMT-3d" transform="translate(57.8125 0)"/>
     <use xlink:href="#ArialMT-32" transform="translate(116.210938 0)"/>
     <use xlink:href="#ArialMT-2e" transform="translate(171.826172 0)"/>
     <use xlink:href="#ArialMT-30" transform="translate(199.609375 0)"/>
     <use xlink:href="#ArialMT-2c" transform="translate(255.224609 0)"/>
     <use xlink:href="#ArialMT-20" transform="translate(283.007812 0)"/>
     <use xlink:href="#ArialMT-3b2" transform="translate(310.791016 0)"/>
     <use xlink:href="#ArialMT-3d" transform="translate(368.310547 0)"/>
     <use xlink:href="#ArialMT-32" transform="translate(426.708984 0)"/>
     <use xlink:href="#ArialMT-2e" transform="translate(482.324219 0)"/>
     <use xlink:href="#ArialMT-30" transform="translate(510.107422 0)"/>
     <use xlink:href="#ArialMT-2c" transform="translate(565.722656 0)"/>
     <use xlink:href="#ArialMT-20" transform="translate(593.505859 0)"/>
     <use xlink:href="#ArialMT-3ba" transform="translate(621.289062 0)"/>
     <use xlink:href="#ArialMT-3d" transform="translate(671.289062 0)"/>
     <use xlink:href="#ArialMT-35" transform="translate(729.6875 0)"/>
     <use xlink:href="#ArialMT-2e" transform="translate(785.302734 0)"/>
     <use xlink:href="#ArialMT-30" transform="translate(813.085938 0)"/>
    </g>
    <!-- N_agents=500, N_runs=10 -->
    <g transform="translate(165.7421 20.595312) scale(0.06 -0.06)">
     <defs>
      <path id="ArialMT-4e" d="M 488 0 
L 488 4581 
L 1109 4581 
L 3516 984 
L 3516 4581 
L 4097 4581 
L 4097 0 
L 3475 0 
L 1069 3600 
L 1069 0 
L 488 0 
z
" transform="scale(0.015625)"/>
      <path id="ArialMT-5f" d="M -97 -1272 
L -97 -866 
L 3631 -866 
L 3631 -1272 
L -97 -1272 
z
" transform="scale(0.015625)"/>
     </defs>
     <use xlink:href="#ArialMT-4e"/>
     <use xlink:href="#ArialMT-5f" transform="translate(72.216797 0)"/>
     <use xlink:href="#ArialMT-61" transform="translate(127.832031 0)"/>
     <use xlink:href="#ArialMT-67" transform="translate(183.447266 0)"/>
     <use xlink:href="#ArialMT-65" transform="translate(239.0625 0)"/>
     <use xlink:href="#ArialMT-6e" transform="translate(294.677734 0)"/>
     <use xlink:href="#ArialMT-74" transform="translate(350.292969 0)"/>
     <use xlink:href="#ArialMT-73" transform="translate(378.076172 0)"/>
     <use xlink:href="#ArialMT-3d" transform="translate(428.076172 0)"/>
     <use xlink:href="#ArialMT-35" transform="translate(486.474609 0)"/>
     <use xlink:href="#ArialMT-30" transform="translate(542.089844 0)"/>
     <use xlink:href="#ArialMT-30" transform="translate(597.705078 0)"/>
     <use xlink:href="#ArialMT-2c" transform="translate(653.320312 0)"/>
     <use xlink:href="#ArialMT-20" transform="translate(681.103516 0)"/>
     <use xlink:href="#ArialMT-4e" transform="translate(708.886719 0)"/>
     <use xlink:href="#ArialMT-5f" transform="translate(781.103516 0)"/>
     <use xlink:href="#ArialMT-72" transform="translate(836.71875 0)"/>
     <use xlink:href="#ArialMT-75" transform="translate(870.019531 0)"/>
     <use xlink:href="#ArialMT-6e" transform="translate(925.634766 0)"/>
     <use xlink:href="#ArialMT-73" transform="translate(981.25 0)"/>
     <use xlink:href="#ArialMT-3d" transform="translate(1031.25 0)"/>
     <use xlink:href="#ArialMT-31" transform="translate(1089.648438 0)"/>
     <use xlink:href="#ArialMT-30" transform="translate(1145.263672 0)"/>
    </g>
   </g>
  </g>
 </g>
 <defs>
  <clipPath id="pefa8446cb3">
   <rect x="34.605" y="7.2" width="207.3325" height="133"/>
  </clipPath>
 </defs>
</svg>
