<?xml version="1.0" encoding="utf-8" standalone="no"?>
<!DOCTYPE svg PUBLIC "-//W3C//DTD SVG 1.1//EN"
  "http://www.w3.org/Graphics/SVG/1.1/DTD/svg11.dtd">
<svg xmlns:xlink="http://www.w3.org/1999/xlink" width="249.07375pt" height="173.22375pt" viewBox="0 0 249.07375 173.22375" xmlns="http://www.w3.org/2000/svg" version="1.1">
 <metadata>
  <rdf:RDF xmlns:dc="http://purl.org/dc/elements/1.1/" xmlns:cc="http://creativecommons.org/ns#" xmlns:rdf="http://www.w3.org/1999/02/22-rdf-syntax-ns#">
   <cc:Work>
    <dc:type rdf:resource="http://purl.org/dc/dcmitype/StillImage"/>
    <dc:date>2026-03-22T18:16:27.823539</dc:date>
    <dc:format>image/svg+xml</dc:format>
    <dc:creator>
     <cc:Agent>
      <dc:title>Matplotlib v3.10.7, https://matplotlib.org/</dc:title>
     </cc:Agent>
    </dc:creator>
   </cc:Work>
  </rdf:RDF>
 </metadata>
 <defs>
  <style type="text/css">*{stroke-linejoin: round; stroke-linecap: butt}</style>
 </defs>
 <g id="figure_1">
  <g id="patch_1">
   <path d="M 0 173.22375 
L 249.07375 173.22375 
L 249.07375 0 
L 0 0 
z
" style="fill: #ffffff"/>
  </g>
  <g id="axes_1">
   <g id="patch_2">
    <path d="M 47.95125 140.2 
L 241.87375 140.2 
L 241.87375 7.2 
L 47.95125 7.2 
z
" style="fill: #ffffff"/>
   </g>
   <g id="FillBetweenPolyCollection_1">
    <defs>
     <path id="m6ddbd745ce" d="M 47.95125 -130.525172 
L 47.95125 -129.553667 
L 50.644618 -138.745989 
L 53.337986 -141.170491 
L 56.031354 -142.637181 
L 58.724722 -144.134738 
L 61.41809 -145.530522 
L 64.111458 -146.410512 
L 66.804826 -147.568224 
L 69.498194 -148.605374 
L 72.191563 -149.181342 
L 74.884931 -150.173312 
L 77.578299 -150.792308 
L 80.271667 -151.751558 
L 82.965035 -152.189722 
L 85.658403 -152.764118 
L 88.351771 -153.318024 
L 91.045139 -153.83564 
L 93.738507 -154.47741 
L 96.431875 -155.100808 
L 99.125243 -155.690693 
L 101.818611 -156.031127 
L 104.511979 -156.345869 
L 107.205347 -156.674453 
L 109.898715 -157.09283 
L 112.592083 -157.55939 
L 115.285451 -157.845174 
L 117.978819 -157.99504 
L 120.672188 -158.599044 
L 123.365556 -158.882873 
L 126.058924 -158.978791 
L 128.752292 -159.124329 
L 131.44566 -159.312646 
L 134.139028 -159.534454 
L 136.832396 -159.760683 
L 139.525764 -159.832332 
L 142.219132 -159.94429 
L 144.9125 -160.326619 
L 147.605868 -160.536539 
L 150.299236 -160.723446 
L 152.992604 -160.976933 
L 155.685972 -161.2738 
L 158.37934 -161.440243 
L 161.072708 -161.438571 
L 163.766076 -161.557625 
L 166.459444 -161.665335 
L 169.152812 -161.816291 
L 171.846181 -162.068427 
L 174.539549 -162.091994 
L 177.232917 -162.158815 
L 179.926285 -162.336327 
L 182.619653 -162.416215 
L 185.313021 -162.5005 
L 188.006389 -162.589943 
L 190.699757 -162.627817 
L 193.393125 -162.724041 
L 196.086493 -162.908675 
L 198.779861 -163.055609 
L 201.473229 -163.122766 
L 204.166597 -163.057207 
L 206.859965 -163.098136 
L 209.553333 -163.075587 
L 212.246701 -163.076632 
L 214.940069 -163.209731 
L 217.633437 -163.242356 
L 220.326806 -163.239793 
L 223.020174 -163.330688 
L 225.713542 -163.303407 
L 228.40691 -163.381745 
L 231.100278 -163.47303 
L 233.793646 -163.460781 
L 236.487014 -163.530417 
L 239.180382 -163.523831 
L 241.87375 -163.584832 
L 241.87375 -163.857119 
L 241.87375 -163.857119 
L 239.180382 -163.820125 
L 236.487014 -163.80129 
L 233.793646 -163.736183 
L 231.100278 -163.748432 
L 228.40691 -163.753972 
L 225.713542 -163.697566 
L 223.020174 -163.658036 
L 220.326806 -163.61451 
L 217.633437 -163.574876 
L 214.940069 -163.497257 
L 212.246701 -163.471114 
L 209.553333 -163.423161 
L 206.859965 -163.412862 
L 204.166597 -163.355796 
L 201.473229 -163.400481 
L 198.779861 -163.308397 
L 196.086493 -163.210666 
L 193.393125 -163.125491 
L 190.699757 -163.074723 
L 188.006389 -163.137095 
L 185.313021 -162.969301 
L 182.619653 -162.882095 
L 179.926285 -162.778242 
L 177.232917 -162.661769 
L 174.539549 -162.667343 
L 171.846181 -162.519419 
L 169.152812 -162.281902 
L 166.459444 -162.114051 
L 163.766076 -162.038021 
L 161.072708 -161.875339 
L 158.37934 -161.849168 
L 155.685972 -161.733875 
L 152.992604 -161.614264 
L 150.299236 -161.451271 
L 147.605868 -161.123704 
L 144.9125 -161.02739 
L 142.219132 -160.748252 
L 139.525764 -160.602972 
L 136.832396 -160.50313 
L 134.139028 -160.374128 
L 131.44566 -160.154958 
L 128.752292 -159.84105 
L 126.058924 -159.594608 
L 123.365556 -159.470038 
L 120.672188 -159.263892 
L 117.978819 -158.643279 
L 115.285451 -158.351845 
L 112.592083 -158.172152 
L 109.898715 -157.879251 
L 107.205347 -157.391174 
L 104.511979 -156.813303 
L 101.818611 -156.552325 
L 99.125243 -156.145546 
L 96.431875 -155.608489 
L 93.738507 -155.215188 
L 91.045139 -154.901506 
L 88.351771 -154.46367 
L 85.658403 -153.755889 
L 82.965035 -153.215915 
L 80.271667 -152.539062 
L 77.578299 -151.685404 
L 74.884931 -151.287701 
L 72.191563 -150.295271 
L 69.498194 -149.511558 
L 66.804826 -148.429565 
L 64.111458 -147.35789 
L 61.41809 -146.204483 
L 58.724722 -145.138141 
L 56.031354 -143.291617 
L 53.337986 -141.830704 
L 50.644618 -139.47827 
L 47.95125 -130.525172 
z
" style="stroke: #888780; stroke-opacity: 0.25"/>
    </defs>
    <g clip-path="url(#p7a9b8b6236)">
     <use xlink:href="#m6ddbd745ce" x="0" y="173.22375" style="fill: #888780; fill-opacity: 0.25; stroke: #888780; stroke-opacity: 0.25"/>
    </g>
   </g>
   <g id="FillBetweenPolyCollection_2">
    <defs>
     <path id="mfbe40dc131" d="M 47.95125 -130.525172 
L 47.95125 -129.553667 
L 50.644618 -138.745989 
L 53.337986 -141.170491 
L 56.031354 -142.637181 
L 58.724722 -144.134738 
L 61.41809 -145.530522 
L 64.111458 -146.410512 
L 66.804826 -147.568224 
L 69.498194 -148.605374 
L 72.191563 -149.181342 
L 74.884931 -150.173312 
L 77.578299 -150.792308 
L 80.271667 -151.751558 
L 82.965035 -152.189722 
L 85.658403 -152.764118 
L 88.351771 -153.318024 
L 91.045139 -153.83564 
L 93.738507 -154.47741 
L 96.431875 -155.100808 
L 99.125243 -155.690693 
L 101.818611 -156.031127 
L 104.511979 -156.345869 
L 107.205347 -156.674453 
L 109.898715 -157.09283 
L 112.592083 -157.55939 
L 115.285451 -157.845174 
L 117.978819 -157.99504 
L 120.672188 -158.599044 
L 123.365556 -158.882873 
L 126.058924 -158.978791 
L 128.752292 -159.124329 
L 131.44566 -159.312646 
L 134.139028 -159.534454 
L 136.832396 -159.760683 
L 139.525764 -159.832332 
L 142.219132 -159.94429 
L 144.9125 -160.326619 
L 147.605868 -160.536539 
L 150.299236 -160.723446 
L 152.992604 -160.976933 
L 155.685972 -161.2738 
L 158.37934 -161.440243 
L 161.072708 -161.438571 
L 163.766076 -161.557625 
L 166.459444 -161.665335 
L 169.152812 -161.816291 
L 171.846181 -162.068427 
L 174.539549 -162.091994 
L 177.232917 -162.158815 
L 179.926285 -162.336327 
L 182.619653 -162.416215 
L 185.313021 -162.5005 
L 188.006389 -162.589943 
L 190.699757 -162.627817 
L 193.393125 -162.724041 
L 196.086493 -162.908675 
L 198.779861 -163.055609 
L 201.473229 -163.122766 
L 204.166597 -163.057207 
L 206.859965 -163.098136 
L 209.553333 -163.075587 
L 212.246701 -163.076632 
L 214.940069 -163.209731 
L 217.633437 -163.242356 
L 220.326806 -163.239793 
L 223.020174 -163.330688 
L 225.713542 -163.303407 
L 228.40691 -163.381745 
L 231.100278 -163.47303 
L 233.793646 -163.460781 
L 236.487014 -163.530417 
L 239.180382 -163.523831 
L 241.87375 -163.584832 
L 241.87375 -163.857119 
L 241.87375 -163.857119 
L 239.180382 -163.820125 
L 236.487014 -163.80129 
L 233.793646 -163.736183 
L 231.100278 -163.748432 
L 228.40691 -163.753972 
L 225.713542 -163.697566 
L 223.020174 -163.658036 
L 220.326806 -163.61451 
L 217.633437 -163.574876 
L 214.940069 -163.497257 
L 212.246701 -163.471114 
L 209.553333 -163.423161 
L 206.859965 -163.412862 
L 204.166597 -163.355796 
L 201.473229 -163.400481 
L 198.779861 -163.308397 
L 196.086493 -163.210666 
L 193.393125 -163.125491 
L 190.699757 -163.074723 
L 188.006389 -163.137095 
L 185.313021 -162.969301 
L 182.619653 -162.882095 
L 179.926285 -162.778242 
L 177.232917 -162.661769 
L 174.539549 -162.667343 
L 171.846181 -162.519419 
L 169.152812 -162.281902 
L 166.459444 -162.114051 
L 163.766076 -162.038021 
L 161.072708 -161.875339 
L 158.37934 -161.849168 
L 155.685972 -161.733875 
L 152.992604 -161.614264 
L 150.299236 -161.451271 
L 147.605868 -161.123704 
L 144.9125 -161.02739 
L 142.219132 -160.748252 
L 139.525764 -160.602972 
L 136.832396 -160.50313 
L 134.139028 -160.374128 
L 131.44566 -160.154958 
L 128.752292 -159.84105 
L 126.058924 -159.594608 
L 123.365556 -159.470038 
L 120.672188 -159.263892 
L 117.978819 -158.643279 
L 115.285451 -158.351845 
L 112.592083 -158.172152 
L 109.898715 -157.879251 
L 107.205347 -157.391174 
L 104.511979 -156.813303 
L 101.818611 -156.552325 
L 99.125243 -156.145546 
L 96.431875 -155.608489 
L 93.738507 -155.215188 
L 91.045139 -154.901506 
L 88.351771 -154.46367 
L 85.658403 -153.755889 
L 82.965035 -153.215915 
L 80.271667 -152.539062 
L 77.578299 -151.685404 
L 74.884931 -151.287701 
L 72.191563 -150.295271 
L 69.498194 -149.511558 
L 66.804826 -148.429565 
L 64.111458 -147.35789 
L 61.41809 -146.204483 
L 58.724722 -145.138141 
L 56.031354 -143.291617 
L 53.337986 -141.830704 
L 50.644618 -139.47827 
L 47.95125 -130.525172 
z
" style="stroke: #378add; stroke-opacity: 0.25"/>
    </defs>
    <g clip-path="url(#p7a9b8b6236)">
     <use xlink:href="#mfbe40dc131" x="0" y="173.22375" style="fill: #378add; fill-opacity: 0.25; stroke: #378add; stroke-opacity: 0.25"/>
    </g>
   </g>
   <g id="FillBetweenPolyCollection_3">
    <defs>
     <path id="m772eb1f7fe" d="M 47.95125 -128.182048 
L 47.95125 -126.851384 
L 50.644618 -138.699685 
L 53.337986 -141.371909 
L 56.031354 -143.975732 
L 58.724722 -145.943037 
L 61.41809 -147.752119 
L 64.111458 -149.212655 
L 66.804826 -150.406334 
L 69.498194 -151.228107 
L 72.191563 -151.909403 
L 74.884931 -152.948042 
L 77.578299 -153.88305 
L 80.271667 -154.777989 
L 82.965035 -155.407844 
L 85.658403 -155.879065 
L 88.351771 -156.553546 
L 91.045139 -157.110278 
L 93.738507 -157.362932 
L 96.431875 -157.950415 
L 99.125243 -158.334995 
L 101.818611 -158.783162 
L 104.511979 -159.288663 
L 107.205347 -159.523477 
L 109.898715 -159.733868 
L 112.592083 -159.876088 
L 115.285451 -160.138646 
L 117.978819 -160.302912 
L 120.672188 -160.548154 
L 123.365556 -160.726871 
L 126.058924 -161.088476 
L 128.752292 -161.110876 
L 131.44566 -161.287331 
L 134.139028 -161.179295 
L 136.832396 -161.375549 
L 139.525764 -161.551102 
L 142.219132 -161.571467 
L 144.9125 -161.741941 
L 147.605868 -161.944366 
L 150.299236 -162.100133 
L 152.992604 -162.172278 
L 155.685972 -162.277932 
L 158.37934 -162.414403 
L 161.072708 -162.530609 
L 163.766076 -162.6323 
L 166.459444 -162.598571 
L 169.152812 -162.730885 
L 171.846181 -162.800347 
L 174.539549 -162.88096 
L 177.232917 -162.981796 
L 179.926285 -163.002473 
L 182.619653 -163.049866 
L 185.313021 -163.058616 
L 188.006389 -163.098013 
L 190.699757 -163.135451 
L 193.393125 -163.171145 
L 196.086493 -163.235481 
L 198.779861 -163.319088 
L 201.473229 -163.395989 
L 204.166597 -163.438154 
L 206.859965 -163.49676 
L 209.553333 -163.461197 
L 212.246701 -163.493277 
L 214.940069 -163.530552 
L 217.633437 -163.567814 
L 220.326806 -163.55921 
L 223.020174 -163.576609 
L 225.713542 -163.529552 
L 228.40691 -163.578163 
L 231.100278 -163.597904 
L 233.793646 -163.662715 
L 236.487014 -163.664747 
L 239.180382 -163.689575 
L 241.87375 -163.66651 
L 241.87375 -163.959182 
L 241.87375 -163.959182 
L 239.180382 -163.948366 
L 236.487014 -163.924197 
L 233.793646 -163.913979 
L 231.100278 -163.893044 
L 228.40691 -163.876037 
L 225.713542 -163.875651 
L 223.020174 -163.853093 
L 220.326806 -163.845993 
L 217.633437 -163.812891 
L 214.940069 -163.764406 
L 212.246701 -163.740434 
L 209.553333 -163.772515 
L 206.859965 -163.724702 
L 204.166597 -163.709812 
L 201.473229 -163.666231 
L 198.779861 -163.608389 
L 196.086493 -163.545326 
L 193.393125 -163.523594 
L 190.699757 -163.498042 
L 188.006389 -163.401058 
L 185.313021 -163.391136 
L 182.619653 -163.399886 
L 179.926285 -163.373782 
L 177.232917 -163.394459 
L 174.539549 -163.348303 
L 171.846181 -163.318671 
L 169.152812 -163.25339 
L 166.459444 -163.226461 
L 163.766076 -163.057989 
L 161.072708 -163.012689 
L 158.37934 -162.933226 
L 155.685972 -162.861458 
L 152.992604 -162.80787 
L 150.299236 -162.695952 
L 147.605868 -162.582232 
L 144.9125 -162.478746 
L 142.219132 -162.39166 
L 139.525764 -162.289854 
L 136.832396 -162.134674 
L 134.139028 -161.951196 
L 131.44566 -161.81834 
L 128.752292 -161.676633 
L 126.058924 -161.539468 
L 123.365556 -161.349851 
L 120.672188 -161.320974 
L 117.978819 -161.075917 
L 115.285451 -160.812101 
L 112.592083 -160.609827 
L 109.898715 -160.482238 
L 107.205347 -160.140762 
L 104.511979 -159.824676 
L 101.818611 -159.462084 
L 99.125243 -159.432526 
L 96.431875 -159.068603 
L 93.738507 -158.34766 
L 91.045139 -158.084549 
L 88.351771 -157.34317 
L 85.658403 -156.928747 
L 82.965035 -156.469982 
L 80.271667 -155.716947 
L 77.578299 -154.824767 
L 74.884931 -154.168968 
L 72.191563 -153.200643 
L 69.498194 -152.38816 
L 66.804826 -151.375107 
L 64.111458 -150.142763 
L 61.41809 -148.628312 
L 58.724722 -146.854454 
L 56.031354 -145.001565 
L 53.337986 -142.995758 
L 50.644618 -139.755402 
L 47.95125 -128.182048 
z
" style="stroke: #ba7517; stroke-opacity: 0.25"/>
    </defs>
    <g clip-path="url(#p7a9b8b6236)">
     <use xlink:href="#m772eb1f7fe" x="0" y="173.22375" style="fill: #ba7517; fill-opacity: 0.25; stroke: #ba7517; stroke-opacity: 0.25"/>
    </g>
   </g>
   <g id="FillBetweenPolyCollection_4">
    <defs>
     <path id="m73ce3628ab" d="M 47.95125 -127.31381 
L 47.95125 -126.801572 
L 50.644618 -138.718433 
L 53.337986 -141.23832 
L 56.031354 -143.836154 
L 58.724722 -146.096404 
L 61.41809 -147.964651 
L 64.111458 -149.263415 
L 66.804826 -150.675452 
L 69.498194 -151.475126 
L 72.191563 -152.565404 
L 74.884931 -153.818669 
L 77.578299 -154.658546 
L 80.271667 -155.562724 
L 82.965035 -156.413034 
L 85.658403 -157.21395 
L 88.351771 -157.644663 
L 91.045139 -158.289912 
L 93.738507 -158.862776 
L 96.431875 -159.19273 
L 99.125243 -159.576431 
L 101.818611 -160.087171 
L 104.511979 -160.406821 
L 107.205347 -160.65594 
L 109.898715 -160.96305 
L 112.592083 -161.424497 
L 115.285451 -161.545413 
L 117.978819 -161.723253 
L 120.672188 -162.106725 
L 123.365556 -162.273095 
L 126.058924 -162.255993 
L 128.752292 -162.35885 
L 131.44566 -162.56785 
L 134.139028 -162.687532 
L 136.832396 -162.86839 
L 139.525764 -162.942498 
L 142.219132 -163.141711 
L 144.9125 -163.241114 
L 147.605868 -163.249231 
L 150.299236 -163.296071 
L 152.992604 -163.258799 
L 155.685972 -163.337192 
L 158.37934 -163.463387 
L 161.072708 -163.551214 
L 163.766076 -163.665299 
L 166.459444 -163.649797 
L 169.152812 -163.607607 
L 171.846181 -163.719846 
L 174.539549 -163.742301 
L 177.232917 -163.811303 
L 179.926285 -163.774398 
L 182.619653 -163.841225 
L 185.313021 -163.767575 
L 188.006389 -163.899106 
L 190.699757 -163.857844 
L 193.393125 -163.816637 
L 196.086493 -163.822369 
L 198.779861 -163.829539 
L 201.473229 -163.857092 
L 204.166597 -163.897199 
L 206.859965 -163.967172 
L 209.553333 -163.970836 
L 212.246701 -163.99869 
L 214.940069 -163.989944 
L 217.633437 -164.027755 
L 220.326806 -164.002413 
L 223.020174 -164.006406 
L 225.713542 -163.995549 
L 228.40691 -164.068378 
L 231.100278 -164.068378 
L 233.793646 -164.068378 
L 236.487014 -164.082134 
L 239.180382 -164.082134 
L 241.87375 -164.082134 
L 241.87375 -164.156027 
L 241.87375 -164.156027 
L 239.180382 -164.156027 
L 236.487014 -164.156027 
L 233.793646 -164.133035 
L 231.100278 -164.133035 
L 228.40691 -164.133035 
L 225.713542 -164.144939 
L 223.020174 -164.109261 
L 220.326806 -164.113254 
L 217.633437 -164.112411 
L 214.940069 -164.113796 
L 212.246701 -164.116977 
L 209.553333 -164.083584 
L 206.859965 -164.087248 
L 204.166597 -164.071476 
L 201.473229 -164.087084 
L 198.779861 -164.090138 
L 196.086493 -164.06056 
L 193.393125 -164.078542 
L 190.699757 -164.013158 
L 188.006389 -164.008644 
L 185.313021 -163.993828 
L 182.619653 -163.968208 
L 179.926285 -163.986037 
L 177.232917 -163.961381 
L 174.539549 -163.908212 
L 171.846181 -163.856848 
L 169.152812 -163.859488 
L 166.459444 -163.828902 
L 163.766076 -163.789224 
L 161.072708 -163.744712 
L 158.37934 -163.734545 
L 155.685972 -163.701175 
L 152.992604 -163.608399 
L 150.299236 -163.582408 
L 147.605868 -163.507077 
L 144.9125 -163.563869 
L 142.219132 -163.467927 
L 139.525764 -163.325126 
L 136.832396 -163.263522 
L 134.139028 -163.12622 
L 131.44566 -162.976415 
L 128.752292 -162.892075 
L 126.058924 -162.725123 
L 123.365556 -162.744447 
L 120.672188 -162.568156 
L 117.978819 -162.352699 
L 115.285451 -162.198515 
L 112.592083 -161.940346 
L 109.898715 -161.656516 
L 107.205347 -161.449796 
L 104.511979 -161.184765 
L 101.818611 -161.000255 
L 99.125243 -160.459483 
L 96.431875 -160.193645 
L 93.738507 -159.778321 
L 91.045139 -159.308698 
L 88.351771 -158.900178 
L 85.658403 -158.252299 
L 82.965035 -157.328311 
L 80.271667 -156.709985 
L 77.578299 -155.791909 
L 74.884931 -154.938791 
L 72.191563 -153.881439 
L 69.498194 -152.791972 
L 66.804826 -151.716522 
L 64.111458 -150.460129 
L 61.41809 -148.869652 
L 58.724722 -147.040845 
L 56.031354 -144.759154 
L 53.337986 -142.900795 
L 50.644618 -140.087047 
L 47.95125 -127.31381 
z
" style="stroke: #1d9e75; stroke-opacity: 0.25"/>
    </defs>
    <g clip-path="url(#p7a9b8b6236)">
     <use xlink:href="#m73ce3628ab" x="0" y="173.22375" style="fill: #1d9e75; fill-opacity: 0.25; stroke: #1d9e75; stroke-opacity: 0.25"/>
    </g>
   </g>
   <g id="matplotlib.axis_1">
    <g id="xtick_1">
     <g id="line2d_1">
      <path d="M 47.95125 140.2 
L 47.95125 7.2 
" clip-path="url(#p7a9b8b6236)" style="fill: none; stroke: #b0b0b0; stroke-opacity: 0.3; stroke-width: 0.8; stroke-linecap: square"/>
     </g>
     <g id="line2d_2">
      <defs>
       <path id="m264b3dd684" d="M 0 0 
L 0 3.5 
" style="stroke: #000000; stroke-width: 0.8"/>
      </defs>
      <g>
       <use xlink:href="#m264b3dd684" x="47.95125" y="140.2" style="stroke: #000000; stroke-width: 0.8"/>
      </g>
     </g>
     <g id="text_1">
      <!-- 0 -->
      <g transform="translate(45.726875 152.92625) scale(0.08 -0.08)">
       <defs>
        <path id="ArialMT-30" d="M 266 2259 
Q 266 3072 433 3567 
Q 600 4063 929 4331 
Q 1259 4600 1759 4600 
Q 2128 4600 2406 4451 
Q 2684 4303 2865 4023 
Q 3047 3744 3150 3342 
Q 3253 2941 3253 2259 
Q 3253 1453 3087 958 
Q 2922 463 2592 192 
Q 2263 -78 1759 -78 
Q 1097 -78 719 397 
Q 266 969 266 2259 
z
M 844 2259 
Q 844 1131 1108 757 
Q 1372 384 1759 384 
Q 2147 384 2411 759 
Q 2675 1134 2675 2259 
Q 2675 3391 2411 3762 
Q 2147 4134 1753 4134 
Q 1366 4134 1134 3806 
Q 844 3388 844 2259 
z
" transform="scale(0.015625)"/>
       </defs>
       <use xlink:href="#ArialMT-30"/>
      </g>
     </g>
    </g>
    <g id="xtick_2">
     <g id="line2d_3">
      <path d="M 74.884931 140.2 
L 74.884931 7.2 
" clip-path="url(#p7a9b8b6236)" style="fill: none; stroke: #b0b0b0; stroke-opacity: 0.3; stroke-width: 0.8; stroke-linecap: square"/>
     </g>
     <g id="line2d_4">
      <g>
       <use xlink:href="#m264b3dd684" x="74.884931" y="140.2" style="stroke: #000000; stroke-width: 0.8"/>
      </g>
     </g>
     <g id="text_2">
      <!-- 10 -->
      <g transform="translate(70.436181 152.92625) scale(0.08 -0.08)">
       <defs>
        <path id="ArialMT-31" d="M 2384 0 
L 1822 0 
L 1822 3584 
Q 1619 3391 1289 3197 
Q 959 3003 697 2906 
L 697 3450 
Q 1169 3672 1522 3987 
Q 1875 4303 2022 4600 
L 2384 4600 
L 2384 0 
z
" transform="scale(0.015625)"/>
       </defs>
       <use xlink:href="#ArialMT-31"/>
       <use xlink:href="#ArialMT-30" transform="translate(55.615234 0)"/>
      </g>
     </g>
    </g>
    <g id="xtick_3">
     <g id="line2d_5">
      <path d="M 101.818611 140.2 
L 101.818611 7.2 
" clip-path="url(#p7a9b8b6236)" style="fill: none; stroke: #b0b0b0; stroke-opacity: 0.3; stroke-width: 0.8; stroke-linecap: square"/>
     </g>
     <g id="line2d_6">
      <g>
       <use xlink:href="#m264b3dd684" x="101.818611" y="140.2" style="stroke: #000000; stroke-width: 0.8"/>
      </g>
     </g>
     <g id="text_3">
      <!-- 20 -->
      <g transform="translate(97.369861 152.92625) scale(0.08 -0.08)">
       <defs>
        <path id="ArialMT-32" d="M 3222 541 
L 3222 0 
L 194 0 
Q 188 203 259 391 
Q 375 700 629 1000 
Q 884 1300 1366 1694 
Q 2113 2306 2375 2664 
Q 2638 3022 2638 3341 
Q 2638 3675 2398 3904 
Q 2159 4134 1775 4134 
Q 1369 4134 1125 3890 
Q 881 3647 878 3216 
L 300 3275 
Q 359 3922 746 4261 
Q 1134 4600 1788 4600 
Q 2447 4600 2831 4234 
Q 3216 3869 3216 3328 
Q 3216 3053 3103 2787 
Q 2991 2522 2730 2228 
Q 2469 1934 1863 1422 
Q 1356 997 1212 845 
Q 1069 694 975 541 
L 3222 541 
z
" transform="scale(0.015625)"/>
       </defs>
       <use xlink:href="#ArialMT-32"/>
       <use xlink:href="#ArialMT-30" transform="translate(55.615234 0)"/>
      </g>
     </g>
    </g>
    <g id="xtick_4">
     <g id="line2d_7">
      <path d="M 128.752292 140.2 
L 128.752292 7.2 
" clip-path="url(#p7a9b8b6236)" style="fill: none; stroke: #b0b0b0; stroke-opacity: 0.3; stroke-width: 0.8; stroke-linecap: square"/>
     </g>
     <g id="line2d_8">
      <g>
       <use xlink:href="#m264b3dd684" x="128.752292" y="140.2" style="stroke: #000000; stroke-width: 0.8"/>
      </g>
     </g>
     <g id="text_4">
      <!-- 30 -->
      <g transform="translate(124.303542 152.92625) scale(0.08 -0.08)">
       <defs>
        <path id="ArialMT-33" d="M 269 1209 
L 831 1284 
Q 928 806 1161 595 
Q 1394 384 1728 384 
Q 2125 384 2398 659 
Q 2672 934 2672 1341 
Q 2672 1728 2419 1979 
Q 2166 2231 1775 2231 
Q 1616 2231 1378 2169 
L 1441 2663 
Q 1497 2656 1531 2656 
Q 1891 2656 2178 2843 
Q 2466 3031 2466 3422 
Q 2466 3731 2256 3934 
Q 2047 4138 1716 4138 
Q 1388 4138 1169 3931 
Q 950 3725 888 3313 
L 325 3413 
Q 428 3978 793 4289 
Q 1159 4600 1703 4600 
Q 2078 4600 2393 4439 
Q 2709 4278 2876 4000 
Q 3044 3722 3044 3409 
Q 3044 3113 2884 2869 
Q 2725 2625 2413 2481 
Q 2819 2388 3044 2092 
Q 3269 1797 3269 1353 
Q 3269 753 2831 336 
Q 2394 -81 1725 -81 
Q 1122 -81 723 278 
Q 325 638 269 1209 
z
" transform="scale(0.015625)"/>
       </defs>
       <use xlink:href="#ArialMT-33"/>
       <use xlink:href="#ArialMT-30" transform="translate(55.615234 0)"/>
      </g>
     </g>
    </g>
    <g id="xtick_5">
     <g id="line2d_9">
      <path d="M 155.685972 140.2 
L 155.685972 7.2 
" clip-path="url(#p7a9b8b6236)" style="fill: none; stroke: #b0b0b0; stroke-opacity: 0.3; stroke-width: 0.8; stroke-linecap: square"/>
     </g>
     <g id="line2d_10">
      <g>
       <use xlink:href="#m264b3dd684" x="155.685972" y="140.2" style="stroke: #000000; stroke-width: 0.8"/>
      </g>
     </g>
     <g id="text_5">
      <!-- 40 -->
      <g transform="translate(151.237222 152.92625) scale(0.08 -0.08)">
       <defs>
        <path id="ArialMT-34" d="M 2069 0 
L 2069 1097 
L 81 1097 
L 81 1613 
L 2172 4581 
L 2631 4581 
L 2631 1613 
L 3250 1613 
L 3250 1097 
L 2631 1097 
L 2631 0 
L 2069 0 
z
M 2069 1613 
L 2069 3678 
L 634 1613 
L 2069 1613 
z
" transform="scale(0.015625)"/>
       </defs>
       <use xlink:href="#ArialMT-34"/>
       <use xlink:href="#ArialMT-30" transform="translate(55.615234 0)"/>
      </g>
     </g>
    </g>
    <g id="xtick_6">
     <g id="line2d_11">
      <path d="M 182.619653 140.2 
L 182.619653 7.2 
" clip-path="url(#p7a9b8b6236)" style="fill: none; stroke: #b0b0b0; stroke-opacity: 0.3; stroke-width: 0.8; stroke-linecap: square"/>
     </g>
     <g id="line2d_12">
      <g>
       <use xlink:href="#m264b3dd684" x="182.619653" y="140.2" style="stroke: #000000; stroke-width: 0.8"/>
      </g>
     </g>
     <g id="text_6">
      <!-- 50 -->
      <g transform="translate(178.170903 152.92625) scale(0.08 -0.08)">
       <defs>
        <path id="ArialMT-35" d="M 266 1200 
L 856 1250 
Q 922 819 1161 601 
Q 1400 384 1738 384 
Q 2144 384 2425 690 
Q 2706 997 2706 1503 
Q 2706 1984 2436 2262 
Q 2166 2541 1728 2541 
Q 1456 2541 1237 2417 
Q 1019 2294 894 2097 
L 366 2166 
L 809 4519 
L 3088 4519 
L 3088 3981 
L 1259 3981 
L 1013 2750 
Q 1425 3038 1878 3038 
Q 2478 3038 2890 2622 
Q 3303 2206 3303 1553 
Q 3303 931 2941 478 
Q 2500 -78 1738 -78 
Q 1113 -78 717 272 
Q 322 622 266 1200 
z
" transform="scale(0.015625)"/>
       </defs>
       <use xlink:href="#ArialMT-35"/>
       <use xlink:href="#ArialMT-30" transform="translate(55.615234 0)"/>
      </g>
     </g>
    </g>
    <g id="xtick_7">
     <g id="line2d_13">
      <path d="M 209.553333 140.2 
L 209.553333 7.2 
" clip-path="url(#p7a9b8b6236)" style="fill: none; stroke: #b0b0b0; stroke-opacity: 0.3; stroke-width: 0.8; stroke-linecap: square"/>
     </g>
     <g id="line2d_14">
      <g>
       <use xlink:href="#m264b3dd684" x="209.553333" y="140.2" style="stroke: #000000; stroke-width: 0.8"/>
      </g>
     </g>
     <g id="text_7">
      <!-- 60 -->
      <g transform="translate(205.104583 152.92625) scale(0.08 -0.08)">
       <defs>
        <path id="ArialMT-36" d="M 3184 3459 
L 2625 3416 
Q 2550 3747 2413 3897 
Q 2184 4138 1850 4138 
Q 1581 4138 1378 3988 
Q 1113 3794 959 3422 
Q 806 3050 800 2363 
Q 1003 2672 1297 2822 
Q 1591 2972 1913 2972 
Q 2475 2972 2870 2558 
Q 3266 2144 3266 1488 
Q 3266 1056 3080 686 
Q 2894 316 2569 119 
Q 2244 -78 1831 -78 
Q 1128 -78 684 439 
Q 241 956 241 2144 
Q 241 3472 731 4075 
Q 1159 4600 1884 4600 
Q 2425 4600 2770 4297 
Q 3116 3994 3184 3459 
z
M 888 1484 
Q 888 1194 1011 928 
Q 1134 663 1356 523 
Q 1578 384 1822 384 
Q 2178 384 2434 671 
Q 2691 959 2691 1453 
Q 2691 1928 2437 2201 
Q 2184 2475 1800 2475 
Q 1419 2475 1153 2201 
Q 888 1928 888 1484 
z
" transform="scale(0.015625)"/>
       </defs>
       <use xlink:href="#ArialMT-36"/>
       <use xlink:href="#ArialMT-30" transform="translate(55.615234 0)"/>
      </g>
     </g>
    </g>
    <g id="xtick_8">
     <g id="line2d_15">
      <path d="M 236.487014 140.2 
L 236.487014 7.2 
" clip-path="url(#p7a9b8b6236)" style="fill: none; stroke: #b0b0b0; stroke-opacity: 0.3; stroke-width: 0.8; stroke-linecap: square"/>
     </g>
     <g id="line2d_16">
      <g>
       <use xlink:href="#m264b3dd684" x="236.487014" y="140.2" style="stroke: #000000; stroke-width: 0.8"/>
      </g>
     </g>
     <g id="text_8">
      <!-- 70 -->
      <g transform="translate(232.038264 152.92625) scale(0.08 -0.08)">
       <defs>
        <path id="ArialMT-37" d="M 303 3981 
L 303 4522 
L 3269 4522 
L 3269 4084 
Q 2831 3619 2401 2847 
Q 1972 2075 1738 1259 
Q 1569 684 1522 0 
L 944 0 
Q 953 541 1156 1306 
Q 1359 2072 1739 2783 
Q 2119 3494 2547 3981 
L 303 3981 
z
" transform="scale(0.015625)"/>
       </defs>
       <use xlink:href="#ArialMT-37"/>
       <use xlink:href="#ArialMT-30" transform="translate(55.615234 0)"/>
      </g>
     </g>
    </g>
    <g id="text_9">
     <!-- Time (hours) -->
     <g transform="translate(122.394375 164.34) scale(0.08 -0.08)">
      <defs>
       <path id="ArialMT-54" d="M 1659 0 
L 1659 4041 
L 150 4041 
L 150 4581 
L 3781 4581 
L 3781 4041 
L 2266 4041 
L 2266 0 
L 1659 0 
z
" transform="scale(0.015625)"/>
       <path id="ArialMT-69" d="M 425 3934 
L 425 4581 
L 988 4581 
L 988 3934 
L 425 3934 
z
M 425 0 
L 425 3319 
L 988 3319 
L 988 0 
L 425 0 
z
" transform="scale(0.015625)"/>
       <path id="ArialMT-6d" d="M 422 0 
L 422 3319 
L 925 3319 
L 925 2853 
Q 1081 3097 1340 3245 
Q 1600 3394 1931 3394 
Q 2300 3394 2536 3241 
Q 2772 3088 2869 2813 
Q 3263 3394 3894 3394 
Q 4388 3394 4653 3120 
Q 4919 2847 4919 2278 
L 4919 0 
L 4359 0 
L 4359 2091 
Q 4359 2428 4304 2576 
Q 4250 2725 4106 2815 
Q 3963 2906 3769 2906 
Q 3419 2906 3187 2673 
Q 2956 2441 2956 1928 
L 2956 0 
L 2394 0 
L 2394 2156 
Q 2394 2531 2256 2718 
Q 2119 2906 1806 2906 
Q 1569 2906 1367 2781 
Q 1166 2656 1075 2415 
Q 984 2175 984 1722 
L 984 0 
L 422 0 
z
" transform="scale(0.015625)"/>
       <path id="ArialMT-65" d="M 2694 1069 
L 3275 997 
Q 3138 488 2766 206 
Q 2394 -75 1816 -75 
Q 1088 -75 661 373 
Q 234 822 234 1631 
Q 234 2469 665 2931 
Q 1097 3394 1784 3394 
Q 2450 3394 2872 2941 
Q 3294 2488 3294 1666 
Q 3294 1616 3291 1516 
L 816 1516 
Q 847 969 1125 678 
Q 1403 388 1819 388 
Q 2128 388 2347 550 
Q 2566 713 2694 1069 
z
M 847 1978 
L 2700 1978 
Q 2663 2397 2488 2606 
Q 2219 2931 1791 2931 
Q 1403 2931 1139 2672 
Q 875 2413 847 1978 
z
" transform="scale(0.015625)"/>
       <path id="ArialMT-20" transform="scale(0.015625)"/>
       <path id="ArialMT-28" d="M 1497 -1347 
Q 1031 -759 709 28 
Q 388 816 388 1659 
Q 388 2403 628 3084 
Q 909 3875 1497 4659 
L 1900 4659 
Q 1522 4009 1400 3731 
Q 1209 3300 1100 2831 
Q 966 2247 966 1656 
Q 966 153 1900 -1347 
L 1497 -1347 
z
" transform="scale(0.015625)"/>
       <path id="ArialMT-68" d="M 422 0 
L 422 4581 
L 984 4581 
L 984 2938 
Q 1378 3394 1978 3394 
Q 2347 3394 2619 3248 
Q 2891 3103 3008 2847 
Q 3125 2591 3125 2103 
L 3125 0 
L 2563 0 
L 2563 2103 
Q 2563 2525 2380 2717 
Q 2197 2909 1863 2909 
Q 1613 2909 1392 2779 
Q 1172 2650 1078 2428 
Q 984 2206 984 1816 
L 984 0 
L 422 0 
z
" transform="scale(0.015625)"/>
       <path id="ArialMT-6f" d="M 213 1659 
Q 213 2581 725 3025 
Q 1153 3394 1769 3394 
Q 2453 3394 2887 2945 
Q 3322 2497 3322 1706 
Q 3322 1066 3130 698 
Q 2938 331 2570 128 
Q 2203 -75 1769 -75 
Q 1072 -75 642 372 
Q 213 819 213 1659 
z
M 791 1659 
Q 791 1022 1069 705 
Q 1347 388 1769 388 
Q 2188 388 2466 706 
Q 2744 1025 2744 1678 
Q 2744 2294 2464 2611 
Q 2184 2928 1769 2928 
Q 1347 2928 1069 2612 
Q 791 2297 791 1659 
z
" transform="scale(0.015625)"/>
       <path id="ArialMT-75" d="M 2597 0 
L 2597 488 
Q 2209 -75 1544 -75 
Q 1250 -75 995 37 
Q 741 150 617 320 
Q 494 491 444 738 
Q 409 903 409 1263 
L 409 3319 
L 972 3319 
L 972 1478 
Q 972 1038 1006 884 
Q 1059 663 1231 536 
Q 1403 409 1656 409 
Q 1909 409 2131 539 
Q 2353 669 2445 892 
Q 2538 1116 2538 1541 
L 2538 3319 
L 3100 3319 
L 3100 0 
L 2597 0 
z
" transform="scale(0.015625)"/>
       <path id="ArialMT-72" d="M 416 0 
L 416 3319 
L 922 3319 
L 922 2816 
Q 1116 3169 1280 3281 
Q 1444 3394 1641 3394 
Q 1925 3394 2219 3213 
L 2025 2691 
Q 1819 2813 1613 2813 
Q 1428 2813 1281 2702 
Q 1134 2591 1072 2394 
Q 978 2094 978 1738 
L 978 0 
L 416 0 
z
" transform="scale(0.015625)"/>
       <path id="ArialMT-73" d="M 197 991 
L 753 1078 
Q 800 744 1014 566 
Q 1228 388 1613 388 
Q 2000 388 2187 545 
Q 2375 703 2375 916 
Q 2375 1106 2209 1216 
Q 2094 1291 1634 1406 
Q 1016 1563 777 1677 
Q 538 1791 414 1992 
Q 291 2194 291 2438 
Q 291 2659 392 2848 
Q 494 3038 669 3163 
Q 800 3259 1026 3326 
Q 1253 3394 1513 3394 
Q 1903 3394 2198 3281 
Q 2494 3169 2634 2976 
Q 2775 2784 2828 2463 
L 2278 2388 
Q 2241 2644 2061 2787 
Q 1881 2931 1553 2931 
Q 1166 2931 1000 2803 
Q 834 2675 834 2503 
Q 834 2394 903 2306 
Q 972 2216 1119 2156 
Q 1203 2125 1616 2013 
Q 2213 1853 2448 1751 
Q 2684 1650 2818 1456 
Q 2953 1263 2953 975 
Q 2953 694 2789 445 
Q 2625 197 2315 61 
Q 2006 -75 1616 -75 
Q 969 -75 630 194 
Q 291 463 197 991 
z
" transform="scale(0.015625)"/>
       <path id="ArialMT-29" d="M 791 -1347 
L 388 -1347 
Q 1322 153 1322 1656 
Q 1322 2244 1188 2822 
Q 1081 3291 891 3722 
Q 769 4003 388 4659 
L 791 4659 
Q 1378 3875 1659 3084 
Q 1900 2403 1900 1659 
Q 1900 816 1576 28 
Q 1253 -759 791 -1347 
z
" transform="scale(0.015625)"/>
      </defs>
      <use xlink:href="#ArialMT-54"/>
      <use xlink:href="#ArialMT-69" transform="translate(57.333984 0)"/>
      <use xlink:href="#ArialMT-6d" transform="translate(79.550781 0)"/>
      <use xlink:href="#ArialMT-65" transform="translate(162.851562 0)"/>
      <use xlink:href="#ArialMT-20" transform="translate(218.466797 0)"/>
      <use xlink:href="#ArialMT-28" transform="translate(246.25 0)"/>
      <use xlink:href="#ArialMT-68" transform="translate(279.550781 0)"/>
      <use xlink:href="#ArialMT-6f" transform="translate(335.166016 0)"/>
      <use xlink:href="#ArialMT-75" transform="translate(390.78125 0)"/>
      <use xlink:href="#ArialMT-72" transform="translate(446.396484 0)"/>
      <use xlink:href="#ArialMT-73" transform="translate(479.697266 0)"/>
      <use xlink:href="#ArialMT-29" transform="translate(529.697266 0)"/>
     </g>
    </g>
   </g>
   <g id="matplotlib.axis_2">
    <g id="ytick_1">
     <g id="line2d_17">
      <path d="M 47.95125 140.2 
L 241.87375 140.2 
" clip-path="url(#p7a9b8b6236)" style="fill: none; stroke: #b0b0b0; stroke-opacity: 0.3; stroke-width: 0.8; stroke-linecap: square"/>
     </g>
     <g id="line2d_18">
      <defs>
       <path id="mae23a9acd1" d="M 0 0 
L -3.5 0 
" style="stroke: #000000; stroke-width: 0.8"/>
      </defs>
      <g>
       <use xlink:href="#mae23a9acd1" x="47.95125" y="140.2" style="stroke: #000000; stroke-width: 0.8"/>
      </g>
     </g>
     <g id="text_10">
      <!-- 0 -->
      <g transform="translate(36.5025 143.063125) scale(0.08 -0.08)">
       <use xlink:href="#ArialMT-30"/>
      </g>
     </g>
    </g>
    <g id="ytick_2">
     <g id="line2d_19">
      <path d="M 47.95125 120.545015 
L 241.87375 120.545015 
" clip-path="url(#p7a9b8b6236)" style="fill: none; stroke: #b0b0b0; stroke-opacity: 0.3; stroke-width: 0.8; stroke-linecap: square"/>
     </g>
     <g id="line2d_20">
      <g>
       <use xlink:href="#mae23a9acd1" x="47.95125" y="120.545015" style="stroke: #000000; stroke-width: 0.8"/>
      </g>
     </g>
     <g id="text_11">
      <!-- 2500 -->
      <g transform="translate(23.15625 123.40814) scale(0.08 -0.08)">
       <use xlink:href="#ArialMT-32"/>
       <use xlink:href="#ArialMT-35" transform="translate(55.615234 0)"/>
       <use xlink:href="#ArialMT-30" transform="translate(111.230469 0)"/>
       <use xlink:href="#ArialMT-30" transform="translate(166.845703 0)"/>
      </g>
     </g>
    </g>
    <g id="ytick_3">
     <g id="line2d_21">
      <path d="M 47.95125 100.890029 
L 241.87375 100.890029 
" clip-path="url(#p7a9b8b6236)" style="fill: none; stroke: #b0b0b0; stroke-opacity: 0.3; stroke-width: 0.8; stroke-linecap: square"/>
     </g>
     <g id="line2d_22">
      <g>
       <use xlink:href="#mae23a9acd1" x="47.95125" y="100.890029" style="stroke: #000000; stroke-width: 0.8"/>
      </g>
     </g>
     <g id="text_12">
      <!-- 5000 -->
      <g transform="translate(23.15625 103.753154) scale(0.08 -0.08)">
       <use xlink:href="#ArialMT-35"/>
       <use xlink:href="#ArialMT-30" transform="translate(55.615234 0)"/>
       <use xlink:href="#ArialMT-30" transform="translate(111.230469 0)"/>
       <use xlink:href="#ArialMT-30" transform="translate(166.845703 0)"/>
      </g>
     </g>
    </g>
    <g id="ytick_4">
     <g id="line2d_23">
      <path d="M 47.95125 81.235044 
L 241.87375 81.235044 
" clip-path="url(#p7a9b8b6236)" style="fill: none; stroke: #b0b0b0; stroke-opacity: 0.3; stroke-width: 0.8; stroke-linecap: square"/>
     </g>
     <g id="line2d_24">
      <g>
       <use xlink:href="#mae23a9acd1" x="47.95125" y="81.235044" style="stroke: #000000; stroke-width: 0.8"/>
      </g>
     </g>
     <g id="text_13">
      <!-- 7500 -->
      <g transform="translate(23.15625 84.098169) scale(0.08 -0.08)">
       <use xlink:href="#ArialMT-37"/>
       <use xlink:href="#ArialMT-35" transform="translate(55.615234 0)"/>
       <use xlink:href="#ArialMT-30" transform="translate(111.230469 0)"/>
       <use xlink:href="#ArialMT-30" transform="translate(166.845703 0)"/>
      </g>
     </g>
    </g>
    <g id="ytick_5">
     <g id="line2d_25">
      <path d="M 47.95125 61.580059 
L 241.87375 61.580059 
" clip-path="url(#p7a9b8b6236)" style="fill: none; stroke: #b0b0b0; stroke-opacity: 0.3; stroke-width: 0.8; stroke-linecap: square"/>
     </g>
     <g id="line2d_26">
      <g>
       <use xlink:href="#mae23a9acd1" x="47.95125" y="61.580059" style="stroke: #000000; stroke-width: 0.8"/>
      </g>
     </g>
     <g id="text_14">
      <!-- 10000 -->
      <g transform="translate(18.7075 64.443184) scale(0.08 -0.08)">
       <use xlink:href="#ArialMT-31"/>
       <use xlink:href="#ArialMT-30" transform="translate(55.615234 0)"/>
       <use xlink:href="#ArialMT-30" transform="translate(111.230469 0)"/>
       <use xlink:href="#ArialMT-30" transform="translate(166.845703 0)"/>
       <use xlink:href="#ArialMT-30" transform="translate(222.460938 0)"/>
      </g>
     </g>
    </g>
    <g id="ytick_6">
     <g id="line2d_27">
      <path d="M 47.95125 41.925074 
L 241.87375 41.925074 
" clip-path="url(#p7a9b8b6236)" style="fill: none; stroke: #b0b0b0; stroke-opacity: 0.3; stroke-width: 0.8; stroke-linecap: square"/>
     </g>
     <g id="line2d_28">
      <g>
       <use xlink:href="#mae23a9acd1" x="47.95125" y="41.925074" style="stroke: #000000; stroke-width: 0.8"/>
      </g>
     </g>
     <g id="text_15">
      <!-- 12500 -->
      <g transform="translate(18.7075 44.788199) scale(0.08 -0.08)">
       <use xlink:href="#ArialMT-31"/>
       <use xlink:href="#ArialMT-32" transform="translate(55.615234 0)"/>
       <use xlink:href="#ArialMT-35" transform="translate(111.230469 0)"/>
       <use xlink:href="#ArialMT-30" transform="translate(166.845703 0)"/>
       <use xlink:href="#ArialMT-30" transform="translate(222.460938 0)"/>
      </g>
     </g>
    </g>
    <g id="ytick_7">
     <g id="line2d_29">
      <path d="M 47.95125 22.270088 
L 241.87375 22.270088 
" clip-path="url(#p7a9b8b6236)" style="fill: none; stroke: #b0b0b0; stroke-opacity: 0.3; stroke-width: 0.8; stroke-linecap: square"/>
     </g>
     <g id="line2d_30">
      <g>
       <use xlink:href="#mae23a9acd1" x="47.95125" y="22.270088" style="stroke: #000000; stroke-width: 0.8"/>
      </g>
     </g>
     <g id="text_16">
      <!-- 15000 -->
      <g transform="translate(18.7075 25.133213) scale(0.08 -0.08)">
       <use xlink:href="#ArialMT-31"/>
       <use xlink:href="#ArialMT-35" transform="translate(55.615234 0)"/>
       <use xlink:href="#ArialMT-30" transform="translate(111.230469 0)"/>
       <use xlink:href="#ArialMT-30" transform="translate(166.845703 0)"/>
       <use xlink:href="#ArialMT-30" transform="translate(222.460938 0)"/>
      </g>
     </g>
    </g>
    <g id="text_17">
     <!-- Mean distance from source (km) -->
     <g transform="translate(13.02375 131.0475) rotate(-90) scale(0.08 -0.08)">
      <defs>
       <path id="ArialMT-4d" d="M 475 0 
L 475 4581 
L 1388 4581 
L 2472 1338 
Q 2622 884 2691 659 
Q 2769 909 2934 1394 
L 4031 4581 
L 4847 4581 
L 4847 0 
L 4263 0 
L 4263 3834 
L 2931 0 
L 2384 0 
L 1059 3900 
L 1059 0 
L 475 0 
z
" transform="scale(0.015625)"/>
       <path id="ArialMT-61" d="M 2588 409 
Q 2275 144 1986 34 
Q 1697 -75 1366 -75 
Q 819 -75 525 192 
Q 231 459 231 875 
Q 231 1119 342 1320 
Q 453 1522 633 1644 
Q 813 1766 1038 1828 
Q 1203 1872 1538 1913 
Q 2219 1994 2541 2106 
Q 2544 2222 2544 2253 
Q 2544 2597 2384 2738 
Q 2169 2928 1744 2928 
Q 1347 2928 1158 2789 
Q 969 2650 878 2297 
L 328 2372 
Q 403 2725 575 2942 
Q 747 3159 1072 3276 
Q 1397 3394 1825 3394 
Q 2250 3394 2515 3294 
Q 2781 3194 2906 3042 
Q 3031 2891 3081 2659 
Q 3109 2516 3109 2141 
L 3109 1391 
Q 3109 606 3145 398 
Q 3181 191 3288 0 
L 2700 0 
Q 2613 175 2588 409 
z
M 2541 1666 
Q 2234 1541 1622 1453 
Q 1275 1403 1131 1340 
Q 988 1278 909 1158 
Q 831 1038 831 891 
Q 831 666 1001 516 
Q 1172 366 1500 366 
Q 1825 366 2078 508 
Q 2331 650 2450 897 
Q 2541 1088 2541 1459 
L 2541 1666 
z
" transform="scale(0.015625)"/>
       <path id="ArialMT-6e" d="M 422 0 
L 422 3319 
L 928 3319 
L 928 2847 
Q 1294 3394 1984 3394 
Q 2284 3394 2536 3286 
Q 2788 3178 2913 3003 
Q 3038 2828 3088 2588 
Q 3119 2431 3119 2041 
L 3119 0 
L 2556 0 
L 2556 2019 
Q 2556 2363 2490 2533 
Q 2425 2703 2258 2804 
Q 2091 2906 1866 2906 
Q 1506 2906 1245 2678 
Q 984 2450 984 1813 
L 984 0 
L 422 0 
z
" transform="scale(0.015625)"/>
       <path id="ArialMT-64" d="M 2575 0 
L 2575 419 
Q 2259 -75 1647 -75 
Q 1250 -75 917 144 
Q 584 363 401 755 
Q 219 1147 219 1656 
Q 219 2153 384 2558 
Q 550 2963 881 3178 
Q 1213 3394 1622 3394 
Q 1922 3394 2156 3267 
Q 2391 3141 2538 2938 
L 2538 4581 
L 3097 4581 
L 3097 0 
L 2575 0 
z
M 797 1656 
Q 797 1019 1065 703 
Q 1334 388 1700 388 
Q 2069 388 2326 689 
Q 2584 991 2584 1609 
Q 2584 2291 2321 2609 
Q 2059 2928 1675 2928 
Q 1300 2928 1048 2622 
Q 797 2316 797 1656 
z
" transform="scale(0.015625)"/>
       <path id="ArialMT-74" d="M 1650 503 
L 1731 6 
Q 1494 -44 1306 -44 
Q 1000 -44 831 53 
Q 663 150 594 308 
Q 525 466 525 972 
L 525 2881 
L 113 2881 
L 113 3319 
L 525 3319 
L 525 4141 
L 1084 4478 
L 1084 3319 
L 1650 3319 
L 1650 2881 
L 1084 2881 
L 1084 941 
Q 1084 700 1114 631 
Q 1144 563 1211 522 
Q 1278 481 1403 481 
Q 1497 481 1650 503 
z
" transform="scale(0.015625)"/>
       <path id="ArialMT-63" d="M 2588 1216 
L 3141 1144 
Q 3050 572 2676 248 
Q 2303 -75 1759 -75 
Q 1078 -75 664 370 
Q 250 816 250 1647 
Q 250 2184 428 2587 
Q 606 2991 970 3192 
Q 1334 3394 1763 3394 
Q 2303 3394 2647 3120 
Q 2991 2847 3088 2344 
L 2541 2259 
Q 2463 2594 2264 2762 
Q 2066 2931 1784 2931 
Q 1359 2931 1093 2626 
Q 828 2322 828 1663 
Q 828 994 1084 691 
Q 1341 388 1753 388 
Q 2084 388 2306 591 
Q 2528 794 2588 1216 
z
" transform="scale(0.015625)"/>
       <path id="ArialMT-66" d="M 556 0 
L 556 2881 
L 59 2881 
L 59 3319 
L 556 3319 
L 556 3672 
Q 556 4006 616 4169 
Q 697 4388 901 4523 
Q 1106 4659 1475 4659 
Q 1713 4659 2000 4603 
L 1916 4113 
Q 1741 4144 1584 4144 
Q 1328 4144 1222 4034 
Q 1116 3925 1116 3625 
L 1116 3319 
L 1763 3319 
L 1763 2881 
L 1116 2881 
L 1116 0 
L 556 0 
z
" transform="scale(0.015625)"/>
       <path id="ArialMT-6b" d="M 425 0 
L 425 4581 
L 988 4581 
L 988 1969 
L 2319 3319 
L 3047 3319 
L 1778 2088 
L 3175 0 
L 2481 0 
L 1384 1697 
L 988 1316 
L 988 0 
L 425 0 
z
" transform="scale(0.015625)"/>
      </defs>
      <use xlink:href="#ArialMT-4d"/>
      <use xlink:href="#ArialMT-65" transform="translate(83.300781 0)"/>
      <use xlink:href="#ArialMT-61" transform="translate(138.916016 0)"/>
      <use xlink:href="#ArialMT-6e" transform="translate(194.53125 0)"/>
      <use xlink:href="#ArialMT-20" transform="translate(250.146484 0)"/>
      <use xlink:href="#ArialMT-64" transform="translate(277.929688 0)"/>
      <use xlink:href="#ArialMT-69" transform="translate(333.544922 0)"/>
      <use xlink:href="#ArialMT-73" transform="translate(355.761719 0)"/>
      <use xlink:href="#ArialMT-74" transform="translate(405.761719 0)"/>
      <use xlink:href="#ArialMT-61" transform="translate(433.544922 0)"/>
      <use xlink:href="#ArialMT-6e" transform="translate(489.160156 0)"/>
      <use xlink:href="#ArialMT-63" transform="translate(544.775391 0)"/>
      <use xlink:href="#ArialMT-65" transform="translate(594.775391 0)"/>
      <use xlink:href="#ArialMT-20" transform="translate(650.390625 0)"/>
      <use xlink:href="#ArialMT-66" transform="translate(678.173828 0)"/>
      <use xlink:href="#ArialMT-72" transform="translate(705.957031 0)"/>
      <use xlink:href="#ArialMT-6f" transform="translate(739.257812 0)"/>
      <use xlink:href="#ArialMT-6d" transform="translate(794.873047 0)"/>
      <use xlink:href="#ArialMT-20" transform="translate(878.173828 0)"/>
      <use xlink:href="#ArialMT-73" transform="translate(905.957031 0)"/>
      <use xlink:href="#ArialMT-6f" transform="translate(955.957031 0)"/>
      <use xlink:href="#ArialMT-75" transform="translate(1011.572266 0)"/>
      <use xlink:href="#ArialMT-72" transform="translate(1067.1875 0)"/>
      <use xlink:href="#ArialMT-63" transform="translate(1100.488281 0)"/>
      <use xlink:href="#ArialMT-65" transform="translate(1150.488281 0)"/>
      <use xlink:href="#ArialMT-20" transform="translate(1206.103516 0)"/>
      <use xlink:href="#ArialMT-28" transform="translate(1233.886719 0)"/>
      <use xlink:href="#ArialMT-6b" transform="translate(1267.1875 0)"/>
      <use xlink:href="#ArialMT-6d" transform="translate(1317.1875 0)"/>
      <use xlink:href="#ArialMT-29" transform="translate(1400.488281 0)"/>
     </g>
    </g>
   </g>
   <g id="line2d_31">
    <path d="M 47.95125 43.184331 
L 50.644618 34.11162 
L 53.337986 31.723152 
L 56.031354 30.259351 
L 58.724722 28.587311 
L 61.41809 27.356248 
L 64.111458 26.339549 
L 66.804826 25.224856 
L 69.498194 24.165284 
L 72.191563 23.485443 
L 74.884931 22.493243 
L 77.578299 21.984894 
L 80.271667 21.07844 
L 82.965035 20.520932 
L 85.658403 19.963746 
L 88.351771 19.332903 
L 91.045139 18.855177 
L 93.738507 18.377451 
L 96.431875 17.869102 
L 99.125243 17.30563 
L 101.818611 16.932024 
L 104.511979 16.644164 
L 107.205347 16.190937 
L 109.898715 15.73771 
L 112.592083 15.357979 
L 115.285451 15.12524 
L 117.978819 14.90459 
L 120.672188 14.292282 
L 123.365556 14.047295 
L 126.058924 13.93705 
L 128.752292 13.74106 
L 131.44566 13.489948 
L 134.139028 13.269459 
L 136.832396 13.091843 
L 139.525764 13.006098 
L 142.219132 12.877479 
L 144.9125 12.546746 
L 147.605868 12.393628 
L 150.299236 12.136391 
L 152.992604 11.928152 
L 155.685972 11.719912 
L 158.37934 11.579044 
L 161.072708 11.566795 
L 163.766076 11.425927 
L 166.459444 11.334057 
L 169.152812 11.174654 
L 171.846181 10.929827 
L 174.539549 10.844082 
L 177.232917 10.813458 
L 179.926285 10.666466 
L 182.619653 10.574595 
L 185.313021 10.48885 
L 188.006389 10.360231 
L 190.699757 10.37248 
L 193.393125 10.298984 
L 196.086493 10.16408 
L 198.779861 10.041747 
L 201.473229 9.962126 
L 204.166597 10.017249 
L 206.859965 9.968251 
L 209.553333 9.974376 
L 212.246701 9.949877 
L 214.940069 9.870256 
L 217.633437 9.815134 
L 220.326806 9.796598 
L 223.020174 9.729388 
L 225.713542 9.723263 
L 228.40691 9.655892 
L 231.100278 9.613019 
L 233.793646 9.625268 
L 236.487014 9.557897 
L 239.180382 9.551772 
L 241.87375 9.502775 
" clip-path="url(#p7a9b8b6236)" style="fill: none; stroke: #888780; stroke-width: 1.5; stroke-linecap: square"/>
   </g>
   <g id="line2d_32">
    <path d="M 47.95125 43.184331 
L 50.644618 34.11162 
L 53.337986 31.723152 
L 56.031354 30.259351 
L 58.724722 28.587311 
L 61.41809 27.356248 
L 64.111458 26.339549 
L 66.804826 25.224856 
L 69.498194 24.165284 
L 72.191563 23.485443 
L 74.884931 22.493243 
L 77.578299 21.984894 
L 80.271667 21.07844 
L 82.965035 20.520932 
L 85.658403 19.963746 
L 88.351771 19.332903 
L 91.045139 18.855177 
L 93.738507 18.377451 
L 96.431875 17.869102 
L 99.125243 17.30563 
L 101.818611 16.932024 
L 104.511979 16.644164 
L 107.205347 16.190937 
L 109.898715 15.73771 
L 112.592083 15.357979 
L 115.285451 15.12524 
L 117.978819 14.90459 
L 120.672188 14.292282 
L 123.365556 14.047295 
L 126.058924 13.93705 
L 128.752292 13.74106 
L 131.44566 13.489948 
L 134.139028 13.269459 
L 136.832396 13.091843 
L 139.525764 13.006098 
L 142.219132 12.877479 
L 144.9125 12.546746 
L 147.605868 12.393628 
L 150.299236 12.136391 
L 152.992604 11.928152 
L 155.685972 11.719912 
L 158.37934 11.579044 
L 161.072708 11.566795 
L 163.766076 11.425927 
L 166.459444 11.334057 
L 169.152812 11.174654 
L 171.846181 10.929827 
L 174.539549 10.844082 
L 177.232917 10.813458 
L 179.926285 10.666466 
L 182.619653 10.574595 
L 185.313021 10.48885 
L 188.006389 10.360231 
L 190.699757 10.37248 
L 193.393125 10.298984 
L 196.086493 10.16408 
L 198.779861 10.041747 
L 201.473229 9.962126 
L 204.166597 10.017249 
L 206.859965 9.968251 
L 209.553333 9.974376 
L 212.246701 9.949877 
L 214.940069 9.870256 
L 217.633437 9.815134 
L 220.326806 9.796598 
L 223.020174 9.729388 
L 225.713542 9.723263 
L 228.40691 9.655892 
L 231.100278 9.613019 
L 233.793646 9.625268 
L 236.487014 9.557897 
L 239.180382 9.551772 
L 241.87375 9.502775 
" clip-path="url(#p7a9b8b6236)" style="fill: none; stroke: #378add; stroke-width: 1.5; stroke-linecap: square"/>
   </g>
   <g id="line2d_33">
    <path d="M 47.95125 45.707034 
L 50.644618 33.996207 
L 53.337986 31.039916 
L 56.031354 28.735101 
L 58.724722 26.825004 
L 61.41809 25.033534 
L 64.111458 23.546041 
L 66.804826 22.33303 
L 69.498194 21.415616 
L 72.191563 20.668727 
L 74.884931 19.665245 
L 77.578299 18.869842 
L 80.271667 17.976282 
L 82.965035 17.284837 
L 85.658403 16.819844 
L 88.351771 16.275392 
L 91.045139 15.626336 
L 93.738507 15.368454 
L 96.431875 14.714241 
L 99.125243 14.33999 
L 101.818611 14.101127 
L 104.511979 13.66708 
L 107.205347 13.39163 
L 109.898715 13.115697 
L 112.592083 12.980792 
L 115.285451 12.748377 
L 117.978819 12.534335 
L 120.672188 12.289186 
L 123.365556 12.185389 
L 126.058924 11.909778 
L 128.752292 11.829995 
L 131.44566 11.670915 
L 134.139028 11.658504 
L 136.832396 11.468639 
L 139.525764 11.303272 
L 142.219132 11.242186 
L 144.9125 11.113407 
L 147.605868 10.960451 
L 150.299236 10.825707 
L 152.992604 10.733676 
L 155.685972 10.654055 
L 158.37934 10.549935 
L 161.072708 10.452101 
L 163.766076 10.378605 
L 166.459444 10.311234 
L 169.152812 10.231613 
L 171.846181 10.164241 
L 174.539549 10.109119 
L 177.232917 10.035622 
L 179.926285 10.035623 
L 182.619653 9.998874 
L 185.313021 9.998874 
L 188.006389 9.974214 
L 190.699757 9.907004 
L 193.393125 9.876381 
L 196.086493 9.833347 
L 198.779861 9.760011 
L 201.473229 9.69264 
L 204.166597 9.649767 
L 206.859965 9.613019 
L 209.553333 9.606894 
L 212.246701 9.606894 
L 214.940069 9.576271 
L 217.633437 9.533398 
L 220.326806 9.521148 
L 223.020174 9.508899 
L 225.713542 9.521148 
L 228.40691 9.49665 
L 231.100278 9.478276 
L 233.793646 9.435403 
L 236.487014 9.429278 
L 239.180382 9.404779 
L 241.87375 9.410904 
" clip-path="url(#p7a9b8b6236)" style="fill: none; stroke: #ba7517; stroke-width: 1.5; stroke-linecap: square"/>
   </g>
   <g id="line2d_34">
    <path d="M 47.95125 46.166059 
L 50.644618 33.82101 
L 53.337986 31.154193 
L 56.031354 28.926096 
L 58.724722 26.655126 
L 61.41809 24.806598 
L 64.111458 23.361978 
L 66.804826 22.027763 
L 69.498194 21.090201 
L 72.191563 20.000329 
L 74.884931 18.84502 
L 77.578299 17.998523 
L 80.271667 17.087395 
L 82.965035 16.353078 
L 85.658403 15.490625 
L 88.351771 14.95133 
L 91.045139 14.424445 
L 93.738507 13.903201 
L 96.431875 13.530563 
L 99.125243 13.205793 
L 101.818611 12.680037 
L 104.511979 12.427957 
L 107.205347 12.170882 
L 109.898715 11.913967 
L 112.592083 11.541329 
L 115.285451 11.351786 
L 117.978819 11.185774 
L 120.672188 10.886309 
L 123.365556 10.714979 
L 126.058924 10.733192 
L 128.752292 10.598288 
L 131.44566 10.451618 
L 134.139028 10.316874 
L 136.832396 10.157794 
L 139.525764 10.089938 
L 142.219132 9.918931 
L 144.9125 9.821258 
L 147.605868 9.845596 
L 150.299236 9.78451 
L 152.992604 9.790151 
L 155.685972 9.704567 
L 158.37934 9.624784 
L 161.072708 9.575787 
L 163.766076 9.496488 
L 166.459444 9.484401 
L 169.152812 9.490203 
L 171.846181 9.435403 
L 174.539549 9.398493 
L 177.232917 9.337408 
L 179.926285 9.343533 
L 182.619653 9.319034 
L 185.313021 9.343049 
L 188.006389 9.269875 
L 190.699757 9.288249 
L 193.393125 9.276161 
L 196.086493 9.282286 
L 198.779861 9.263912 
L 201.473229 9.251662 
L 204.166597 9.239413 
L 206.859965 9.19654 
L 209.553333 9.19654 
L 212.246701 9.165917 
L 214.940069 9.17188 
L 217.633437 9.153667 
L 220.326806 9.165916 
L 223.020174 9.165916 
L 225.713542 9.153506 
L 228.40691 9.123044 
L 231.100278 9.123044 
L 233.793646 9.123044 
L 236.487014 9.10467 
L 239.180382 9.10467 
L 241.87375 9.10467 
" clip-path="url(#p7a9b8b6236)" style="fill: none; stroke: #1d9e75; stroke-width: 1.5; stroke-linecap: square"/>
   </g>
   <g id="patch_3">
    <path d="M 47.95125 140.2 
L 47.95125 7.2 
" style="fill: none; stroke: #000000; stroke-width: 0.5; stroke-linejoin: miter; stroke-linecap: square"/>
   </g>
   <g id="patch_4">
    <path d="M 47.95125 140.2 
L 241.87375 140.2 
" style="fill: none; stroke: #000000; stroke-width: 0.5; stroke-linejoin: miter; stroke-linecap: square"/>
   </g>
   <g id="text_18">
    <g id="patch_5">
     <path d="M 165.94655 23.658125 
L 237.9953 23.658125 
Q 239.7953 23.658125 239.7953 21.858125 
L 239.7953 9.930312 
Q 239.7953 8.130312 237.9953 8.130312 
L 165.94655 8.130312 
Q 164.14655 8.130312 164.14655 9.930312 
L 164.14655 21.858125 
Q 164.14655 23.658125 165.94655 23.658125 
z
" style="fill: #ffffff; opacity: 0.9; stroke: #808080; stroke-linejoin: miter"/>
    </g>
    <!-- α=2.0, β=2.0, κ=5.0 -->
    <g transform="translate(185.874987 14.227812) scale(0.06 -0.06)">
     <defs>
      <path id="ArialMT-3b1" d="M 2884 3319 
L 3459 3319 
Q 3241 2631 3056 1659 
Q 3275 453 3459 0 
L 2900 0 
Q 2766 313 2697 606 
Q 2438 -75 1613 -75 
Q 988 -75 606 394 
Q 225 863 225 1666 
Q 225 2491 608 2942 
Q 991 3394 1622 3394 
Q 2013 3394 2259 3236 
Q 2506 3078 2719 2756 
Q 2741 2866 2884 3319 
z
M 1716 2928 
Q 1313 2928 1078 2603 
Q 844 2278 844 1666 
Q 844 1069 1066 728 
Q 1288 388 1684 388 
Q 2072 388 2331 723 
Q 2591 1059 2591 1691 
Q 2591 2303 2348 2615 
Q 2106 2928 1716 2928 
z
" transform="scale(0.015625)"/>
      <path id="ArialMT-3d" d="M 3381 2694 
L 356 2694 
L 356 3219 
L 3381 3219 
L 3381 2694 
z
M 3381 1303 
L 356 1303 
L 356 1828 
L 3381 1828 
L 3381 1303 
z
" transform="scale(0.015625)"/>
      <path id="ArialMT-2e" d="M 581 0 
L 581 641 
L 1222 641 
L 1222 0 
L 581 0 
z
" transform="scale(0.015625)"/>
      <path id="ArialMT-2c" d="M 569 0 
L 569 641 
L 1209 641 
L 1209 0 
Q 1209 -353 1084 -570 
Q 959 -788 688 -906 
L 531 -666 
Q 709 -588 793 -436 
Q 878 -284 888 0 
L 569 0 
z
" transform="scale(0.015625)"/>
      <path id="ArialMT-3b2" d="M 997 422 
L 997 -1272 
L 438 -1272 
L 438 3144 
Q 438 3672 580 3970 
Q 722 4269 1069 4464 
Q 1416 4659 1841 4659 
Q 2469 4659 2792 4298 
Q 3116 3938 3116 3509 
Q 3116 3091 2855 2834 
Q 2594 2578 2256 2519 
Q 2800 2466 3095 2128 
Q 3391 1791 3391 1297 
Q 3391 766 3042 345 
Q 2694 -75 2034 -75 
Q 1359 -75 997 422 
z
M 1494 2700 
Q 2069 2700 2331 2900 
Q 2594 3100 2594 3478 
Q 2594 3784 2370 3990 
Q 2147 4197 1813 4197 
Q 1522 4197 1308 4044 
Q 1094 3891 1045 3703 
Q 997 3516 997 3047 
L 997 1788 
Q 997 1250 1072 997 
Q 1147 744 1394 541 
Q 1641 338 1963 338 
Q 2353 338 2579 605 
Q 2806 872 2806 1266 
Q 2806 1591 2639 1848 
Q 2472 2106 2226 2198 
Q 1981 2291 1575 2291 
L 1494 2291 
L 1494 2700 
z
" transform="scale(0.015625)"/>
      <path id="ArialMT-3ba" d="M 419 3319 
L 978 3319 
L 978 2016 
L 2325 3319 
L 3069 3319 
L 1584 1941 
L 3197 0 
L 2478 0 
L 1184 1563 
L 978 1372 
L 978 0 
L 419 0 
L 419 3319 
z
" transform="scale(0.015625)"/>
     </defs>
     <use xlink:href="#ArialMT-3b1"/>
     <use xlink:href="#ArialMT-3d" transform="translate(57.8125 0)"/>
     <use xlink:href="#ArialMT-32" transform="translate(116.210938 0)"/>
     <use xlink:href="#ArialMT-2e" transform="translate(171.826172 0)"/>
     <use xlink:href="#ArialMT-30" transform="translate(199.609375 0)"/>
     <use xlink:href="#ArialMT-2c" transform="translate(255.224609 0)"/>
     <use xlink:href="#ArialMT-20" transform="translate(283.007812 0)"/>
     <use xlink:href="#ArialMT-3b2" transform="translate(310.791016 0)"/>
     <use xlink:href="#ArialMT-3d" transform="translate(368.310547 0)"/>
     <use xlink:href="#ArialMT-32" transform="translate(426.708984 0)"/>
     <use xlink:href="#ArialMT-2e" transform="translate(482.324219 0)"/>
     <use xlink:href="#ArialMT-30" transform="translate(510.107422 0)"/>
     <use xlink:href="#ArialMT-2c" transform="translate(565.722656 0)"/>
     <use xlink:href="#ArialMT-20" transform="translate(593.505859 0)"/>
     <use xlink:href="#ArialMT-3ba" transform="translate(621.289062 0)"/>
     <use xlink:href="#ArialMT-3d" transform="translate(671.289062 0)"/>
     <use xlink:href="#ArialMT-35" transform="translate(729.6875 0)"/>
     <use xlink:href="#ArialMT-2e" transform="translate(785.302734 0)"/>
     <use xlink:href="#ArialMT-30" transform="translate(813.085938 0)"/>
    </g>
    <!-- N_agents=500, N_runs=10 -->
    <g transform="translate(165.94655 20.595312) scale(0.06 -0.06)">
     <defs>
      <path id="ArialMT-4e" d="M 488 0 
L 488 4581 
L 1109 4581 
L 3516 984 
L 3516 4581 
L 4097 4581 
L 4097 0 
L 3475 0 
L 1069 3600 
L 1069 0 
L 488 0 
z
" transform="scale(0.015625)"/>
      <path id="ArialMT-5f" d="M -97 -1272 
L -97 -866 
L 3631 -866 
L 3631 -1272 
L -97 -1272 
z
" transform="scale(0.015625)"/>
      <path id="ArialMT-67" d="M 319 -275 
L 866 -356 
Q 900 -609 1056 -725 
Q 1266 -881 1628 -881 
Q 2019 -881 2231 -725 
Q 2444 -569 2519 -288 
Q 2563 -116 2559 434 
Q 2191 0 1641 0 
Q 956 0 581 494 
Q 206 988 206 1678 
Q 206 2153 378 2554 
Q 550 2956 876 3175 
Q 1203 3394 1644 3394 
Q 2231 3394 2613 2919 
L 2613 3319 
L 3131 3319 
L 3131 450 
Q 3131 -325 2973 -648 
Q 2816 -972 2473 -1159 
Q 2131 -1347 1631 -1347 
Q 1038 -1347 672 -1080 
Q 306 -813 319 -275 
z
M 784 1719 
Q 784 1066 1043 766 
Q 1303 466 1694 466 
Q 2081 466 2343 764 
Q 2606 1063 2606 1700 
Q 2606 2309 2336 2618 
Q 2066 2928 1684 2928 
Q 1309 2928 1046 2623 
Q 784 2319 784 1719 
z
" transform="scale(0.015625)"/>
     </defs>
     <use xlink:href="#ArialMT-4e"/>
     <use xlink:href="#ArialMT-5f" transform="translate(72.216797 0)"/>
     <use xlink:href="#ArialMT-61" transform="translate(127.832031 0)"/>
     <use xlink:href="#ArialMT-67" transform="translate(183.447266 0)"/>
     <use xlink:href="#ArialMT-65" transform="translate(239.0625 0)"/>
     <use xlink:href="#ArialMT-6e" transform="translate(294.677734 0)"/>
     <use xlink:href="#ArialMT-74" transform="translate(350.292969 0)"/>
     <use xlink:href="#ArialMT-73" transform="translate(378.076172 0)"/>
     <use xlink:href="#ArialMT-3d" transform="translate(428.076172 0)"/>
     <use xlink:href="#ArialMT-35" transform="translate(486.474609 0)"/>
     <use xlink:href="#ArialMT-30" transform="translate(542.089844 0)"/>
     <use xlink:href="#ArialMT-30" transform="translate(597.705078 0)"/>
     <use xlink:href="#ArialMT-2c" transform="translate(653.320312 0)"/>
     <use xlink:href="#ArialMT-20" transform="translate(681.103516 0)"/>
     <use xlink:href="#ArialMT-4e" transform="translate(708.886719 0)"/>
     <use xlink:href="#ArialMT-5f" transform="translate(781.103516 0)"/>
     <use xlink:href="#ArialMT-72" transform="translate(836.71875 0)"/>
     <use xlink:href="#ArialMT-75" transform="translate(870.019531 0)"/>
     <use xlink:href="#ArialMT-6e" transform="translate(925.634766 0)"/>
     <use xlink:href="#ArialMT-73" transform="translate(981.25 0)"/>
     <use xlink:href="#ArialMT-3d" transform="translate(1031.25 0)"/>
     <use xlink:href="#ArialMT-31" transform="translate(1089.648438 0)"/>
     <use xlink:href="#ArialMT-30" transform="translate(1145.263672 0)"/>
    </g>
   </g>
   <g id="legend_1">
    <g id="patch_6">
     <path d="M 52.85125 136.7 
L 97.818594 136.7 
Q 99.218594 136.7 99.218594 135.3 
L 99.218594 96.208281 
Q 99.218594 94.808281 97.818594 94.808281 
L 52.85125 94.808281 
Q 51.45125 94.808281 51.45125 96.208281 
L 51.45125 135.3 
Q 51.45125 136.7 52.85125 136.7 
z
" style="fill: #ffffff; opacity: 0.8; stroke: #cccccc; stroke-linejoin: miter"/>
    </g>
    <g id="line2d_35">
     <path d="M 54.25125 100.16875 
L 61.25125 100.16875 
L 68.25125 100.16875 
" style="fill: none; stroke: #888780; stroke-width: 1.5; stroke-linecap: square"/>
    </g>
    <g id="text_19">
     <!-- original -->
     <g transform="translate(73.85125 102.61875) scale(0.07 -0.07)">
      <defs>
       <path id="ArialMT-6c" d="M 409 0 
L 409 4581 
L 972 4581 
L 972 0 
L 409 0 
z
" transform="scale(0.015625)"/>
      </defs>
      <use xlink:href="#ArialMT-6f"/>
      <use xlink:href="#ArialMT-72" transform="translate(55.615234 0)"/>
      <use xlink:href="#ArialMT-69" transform="translate(88.916016 0)"/>
      <use xlink:href="#ArialMT-67" transform="translate(111.132812 0)"/>
      <use xlink:href="#ArialMT-69" transform="translate(166.748047 0)"/>
      <use xlink:href="#ArialMT-6e" transform="translate(188.964844 0)"/>
      <use xlink:href="#ArialMT-61" transform="translate(244.580078 0)"/>
      <use xlink:href="#ArialMT-6c" transform="translate(300.195312 0)"/>
     </g>
    </g>
    <g id="line2d_36">
     <path d="M 54.25125 110.173281 
L 61.25125 110.173281 
L 68.25125 110.173281 
" style="fill: none; stroke: #378add; stroke-width: 1.5; stroke-linecap: square"/>
    </g>
    <g id="text_20">
     <!-- s1 only -->
     <g transform="translate(73.85125 112.623281) scale(0.07 -0.07)">
      <defs>
       <path id="ArialMT-79" d="M 397 -1278 
L 334 -750 
Q 519 -800 656 -800 
Q 844 -800 956 -737 
Q 1069 -675 1141 -563 
Q 1194 -478 1313 -144 
Q 1328 -97 1363 -6 
L 103 3319 
L 709 3319 
L 1400 1397 
Q 1534 1031 1641 628 
Q 1738 1016 1872 1384 
L 2581 3319 
L 3144 3319 
L 1881 -56 
Q 1678 -603 1566 -809 
Q 1416 -1088 1222 -1217 
Q 1028 -1347 759 -1347 
Q 597 -1347 397 -1278 
z
" transform="scale(0.015625)"/>
      </defs>
      <use xlink:href="#ArialMT-73"/>
      <use xlink:href="#ArialMT-31" transform="translate(50 0)"/>
      <use xlink:href="#ArialMT-20" transform="translate(105.615234 0)"/>
      <use xlink:href="#ArialMT-6f" transform="translate(133.398438 0)"/>
      <use xlink:href="#ArialMT-6e" transform="translate(189.013672 0)"/>
      <use xlink:href="#ArialMT-6c" transform="translate(244.628906 0)"/>
      <use xlink:href="#ArialMT-79" transform="translate(266.845703 0)"/>
     </g>
    </g>
    <g id="line2d_37">
     <path d="M 54.25125 120.157031 
L 61.25125 120.157031 
L 68.25125 120.157031 
" style="fill: none; stroke: #ba7517; stroke-width: 1.5; stroke-linecap: square"/>
    </g>
    <g id="text_21">
     <!-- switch -->
     <g transform="translate(73.85125 122.607031) scale(0.07 -0.07)">
      <defs>
       <path id="ArialMT-77" d="M 1034 0 
L 19 3319 
L 600 3319 
L 1128 1403 
L 1325 691 
Q 1338 744 1497 1375 
L 2025 3319 
L 2603 3319 
L 3100 1394 
L 3266 759 
L 3456 1400 
L 4025 3319 
L 4572 3319 
L 3534 0 
L 2950 0 
L 2422 1988 
L 2294 2553 
L 1622 0 
L 1034 0 
z
" transform="scale(0.015625)"/>
      </defs>
      <use xlink:href="#ArialMT-73"/>
      <use xlink:href="#ArialMT-77" transform="translate(50 0)"/>
      <use xlink:href="#ArialMT-69" transform="translate(122.216797 0)"/>
      <use xlink:href="#ArialMT-74" transform="translate(144.433594 0)"/>
      <use xlink:href="#ArialMT-63" transform="translate(172.216797 0)"/>
      <use xlink:href="#ArialMT-68" transform="translate(222.216797 0)"/>
     </g>
    </g>
    <g id="line2d_38">
     <path d="M 54.25125 130.05875 
L 61.25125 130.05875 
L 68.25125 130.05875 
" style="fill: none; stroke: #1d9e75; stroke-width: 1.5; stroke-linecap: square"/>
    </g>
    <g id="text_22">
     <!-- blend -->
     <g transform="translate(73.85125 132.50875) scale(0.07 -0.07)">
      <defs>
       <path id="ArialMT-62" d="M 941 0 
L 419 0 
L 419 4581 
L 981 4581 
L 981 2947 
Q 1338 3394 1891 3394 
Q 2197 3394 2470 3270 
Q 2744 3147 2920 2923 
Q 3097 2700 3197 2384 
Q 3297 2069 3297 1709 
Q 3297 856 2875 390 
Q 2453 -75 1863 -75 
Q 1275 -75 941 416 
L 941 0 
z
M 934 1684 
Q 934 1088 1097 822 
Q 1363 388 1816 388 
Q 2184 388 2453 708 
Q 2722 1028 2722 1663 
Q 2722 2313 2464 2622 
Q 2206 2931 1841 2931 
Q 1472 2931 1203 2611 
Q 934 2291 934 1684 
z
" transform="scale(0.015625)"/>
      </defs>
      <use xlink:href="#ArialMT-62"/>
      <use xlink:href="#ArialMT-6c" transform="translate(55.615234 0)"/>
      <use xlink:href="#ArialMT-65" transform="translate(77.832031 0)"/>
      <use xlink:href="#ArialMT-6e" transform="translate(133.447266 0)"/>
      <use xlink:href="#ArialMT-64" transform="translate(189.0625 0)"/>
     </g>
    </g>
   </g>
  </g>
 </g>
 <defs>
  <clipPath id="p7a9b8b6236">
   <rect x="47.95125" y="7.2" width="193.9225" height="133"/>
  </clipPath>
 </defs>
</svg>
