<?xml version="1.0" encoding="utf-8" standalone="no"?>
<!DOCTYPE svg PUBLIC "-//W3C//DTD SVG 1.1//EN"
  "http://www.w3.org/Graphics/SVG/1.1/DTD/svg11.dtd">
<svg xmlns:xlink="http://www.w3.org/1999/xlink" width="249.1075pt" height="173.15pt" viewBox="0 0 249.1075 173.15" xmlns="http://www.w3.org/2000/svg" version="1.1">
 <metadata>
  <rdf:RDF xmlns:dc="http://purl.org/dc/elements/1.1/" xmlns:cc="http://creativecommons.org/ns#" xmlns:rdf="http://www.w3.org/1999/02/22-rdf-syntax-ns#">
   <cc:Work>
    <dc:type rdf:resource="http://purl.org/dc/dcmitype/StillImage"/>
    <dc:date>2026-03-22T21:29:21.533695</dc:date>
    <dc:format>image/svg+xml</dc:format>
    <dc:creator>
     <cc:Agent>
      <dc:title>Matplotlib v3.10.7, https://matplotlib.org/</dc:title>
     </cc:Agent>
    </dc:creator>
   </cc:Work>
  </rdf:RDF>
 </metadata>
 <defs>
  <style type="text/css">*{stroke-linejoin: round; stroke-linecap: butt}</style>
 </defs>
 <g id="figure_1">
  <g id="patch_1">
   <path d="M 0 173.15 
L 249.1075 173.15 
L 249.1075 0 
L 0 0 
z
" style="fill: #ffffff"/>
  </g>
  <g id="axes_1">
   <g id="patch_2">
    <path d="M 34.605 140.2 
L 241.9075 140.2 
L 241.9075 7.2 
L 34.605 7.2 
z
" style="fill: #ffffff"/>
   </g>
   <g id="FillBetweenPolyCollection_1">
    <path d="M 78.717699 134.154545 
L 44.991976 134.154545 
L 44.331259 133.177502 
L 44.470668 132.200459 
L 44.065554 131.223416 
L 44.027841 130.246373 
L 45.808336 129.26933 
L 48.904252 128.292287 
L 51.603969 127.315243 
L 53.259448 126.3382 
L 54.396315 125.361157 
L 55.285624 124.384114 
L 55.726879 123.407071 
L 55.89174 122.430028 
L 56.293285 121.452984 
L 56.984645 120.475941 
L 57.548657 119.498898 
L 57.838433 118.521855 
L 58.11295 117.544812 
L 58.471899 116.567769 
L 58.713552 115.590725 
L 58.790298 114.613682 
L 58.935273 113.636639 
L 59.251296 112.659596 
L 59.553421 111.682553 
L 59.71698 110.70551 
L 59.865973 109.728466 
L 60.110536 108.751423 
L 60.359454 107.77438 
L 60.508025 106.797337 
L 60.607191 105.820294 
L 60.734164 104.843251 
L 60.852642 103.866208 
L 60.907381 102.889164 
L 60.938108 101.912121 
L 61.001077 100.935078 
L 61.067916 99.958035 
L 61.092325 98.980992 
L 61.106284 98.003949 
L 61.165381 97.026905 
L 61.252579 96.049862 
L 61.313924 95.072819 
L 61.348941 94.095776 
L 61.39562 93.118733 
L 61.455924 92.14169 
L 61.499714 91.164646 
L 61.524468 90.187603 
L 61.556825 89.21056 
L 61.603306 88.233517 
L 61.642585 87.256474 
L 61.662775 86.279431 
L 61.671904 85.302388 
L 61.673503 84.325344 
L 61.662522 83.348301 
L 61.647775 82.371258 
L 61.651498 81.394215 
L 61.679827 80.417172 
L 61.714104 79.440129 
L 61.736608 78.463085 
L 61.74687 77.486042 
L 61.749037 76.508999 
L 61.742145 75.531956 
L 61.73046 74.554913 
L 61.728063 73.57787 
L 61.742922 72.600826 
L 61.766219 71.623783 
L 61.785214 70.64674 
L 61.79821 69.669697 
L 61.810531 68.692654 
L 61.823443 67.715611 
L 61.833544 66.738567 
L 61.838618 65.761524 
L 61.838995 64.784481 
L 61.835553 63.807438 
L 61.830051 62.830395 
L 61.826023 61.853352 
L 61.826089 60.876309 
L 61.828914 59.899265 
L 61.831292 58.922222 
L 61.832376 57.945179 
L 61.83343 56.968136 
L 61.834564 55.991093 
L 61.834769 55.01405 
L 61.834734 54.037006 
L 61.836751 53.059963 
L 61.841543 52.08292 
L 61.847197 51.105877 
L 61.85146 50.128834 
L 61.853695 49.151791 
L 61.854542 48.174747 
L 61.854779 47.197704 
L 61.854828 46.220661 
L 61.854835 45.243618 
L 61.854825 44.266575 
L 61.85477 43.289532 
L 61.854537 42.312489 
L 61.853823 41.335445 
L 61.852221 40.358402 
L 61.849689 39.381359 
L 61.847109 38.404316 
L 61.845989 37.427273 
L 61.863685 37.427273 
L 61.863685 37.427273 
L 61.862565 38.404316 
L 61.859986 39.381359 
L 61.857454 40.358402 
L 61.855852 41.335445 
L 61.855137 42.312489 
L 61.854905 43.289532 
L 61.854849 44.266575 
L 61.85484 45.243618 
L 61.854846 46.220661 
L 61.854895 47.197704 
L 61.855132 48.174747 
L 61.855979 49.151791 
L 61.858214 50.128834 
L 61.862477 51.105877 
L 61.868131 52.08292 
L 61.872923 53.059963 
L 61.87494 54.037006 
L 61.874905 55.01405 
L 61.87511 55.991093 
L 61.876244 56.968136 
L 61.877299 57.945179 
L 61.878383 58.922222 
L 61.88076 59.899265 
L 61.883586 60.876309 
L 61.883652 61.853352 
L 61.879624 62.830395 
L 61.874122 63.807438 
L 61.87068 64.784481 
L 61.871056 65.761524 
L 61.87613 66.738567 
L 61.886232 67.715611 
L 61.899143 68.692654 
L 61.911465 69.669697 
L 61.92446 70.64674 
L 61.943456 71.623783 
L 61.966752 72.600826 
L 61.981611 73.57787 
L 61.979215 74.554913 
L 61.96753 75.531956 
L 61.960638 76.508999 
L 61.962805 77.486042 
L 61.973066 78.463085 
L 61.99557 79.440129 
L 62.029847 80.417172 
L 62.058177 81.394215 
L 62.061899 82.371258 
L 62.047152 83.348301 
L 62.036172 84.325344 
L 62.03777 85.302388 
L 62.0469 86.279431 
L 62.06709 87.256474 
L 62.106369 88.233517 
L 62.152849 89.21056 
L 62.185207 90.187603 
L 62.209961 91.164646 
L 62.253751 92.14169 
L 62.314054 93.118733 
L 62.360734 94.095776 
L 62.39575 95.072819 
L 62.457096 96.049862 
L 62.544293 97.026905 
L 62.60339 98.003949 
L 62.61735 98.980992 
L 62.641758 99.958035 
L 62.708597 100.935078 
L 62.771566 101.912121 
L 62.802293 102.889164 
L 62.857033 103.866208 
L 62.97551 104.843251 
L 63.102483 105.820294 
L 63.201649 106.797337 
L 63.35022 107.77438 
L 63.599138 108.751423 
L 63.843701 109.728466 
L 63.992695 110.70551 
L 64.156254 111.682553 
L 64.458378 112.659596 
L 64.774401 113.636639 
L 64.919377 114.613682 
L 64.996123 115.590725 
L 65.237775 116.567769 
L 65.596725 117.544812 
L 65.871242 118.521855 
L 66.161017 119.498898 
L 66.72503 120.475941 
L 67.41639 121.452984 
L 67.817935 122.430028 
L 67.982795 123.407071 
L 68.424051 124.384114 
L 69.31336 125.361157 
L 70.450226 126.3382 
L 72.105705 127.315243 
L 74.805423 128.292287 
L 77.901338 129.26933 
L 79.681834 130.246373 
L 79.644121 131.223416 
L 79.239006 132.200459 
L 79.378416 133.177502 
L 78.717699 134.154545 
z
" clip-path="url(#p14aa1686b4)" style="fill: #888780; fill-opacity: 0.7"/>
   </g>
   <g id="FillBetweenPolyCollection_2">
    <path d="M 129.651974 134.154545 
L 95.926251 134.154545 
L 95.265534 133.177502 
L 95.404943 132.200459 
L 94.999829 131.223416 
L 94.962116 130.246373 
L 96.742612 129.26933 
L 99.838527 128.292287 
L 102.538244 127.315243 
L 104.193723 126.3382 
L 105.33059 125.361157 
L 106.219899 124.384114 
L 106.661155 123.407071 
L 106.826015 122.430028 
L 107.22756 121.452984 
L 107.91892 120.475941 
L 108.482932 119.498898 
L 108.772708 118.521855 
L 109.047225 117.544812 
L 109.406174 116.567769 
L 109.647827 115.590725 
L 109.724573 114.613682 
L 109.869548 113.636639 
L 110.185571 112.659596 
L 110.487696 111.682553 
L 110.651255 110.70551 
L 110.800248 109.728466 
L 111.044811 108.751423 
L 111.293729 107.77438 
L 111.442301 106.797337 
L 111.541466 105.820294 
L 111.668439 104.843251 
L 111.786917 103.866208 
L 111.841656 102.889164 
L 111.872384 101.912121 
L 111.935352 100.935078 
L 112.002191 99.958035 
L 112.0266 98.980992 
L 112.040559 98.003949 
L 112.099656 97.026905 
L 112.186854 96.049862 
L 112.248199 95.072819 
L 112.283216 94.095776 
L 112.329895 93.118733 
L 112.390199 92.14169 
L 112.433989 91.164646 
L 112.458743 90.187603 
L 112.4911 89.21056 
L 112.537581 88.233517 
L 112.57686 87.256474 
L 112.59705 86.279431 
L 112.606179 85.302388 
L 112.607778 84.325344 
L 112.596798 83.348301 
L 112.58205 82.371258 
L 112.585773 81.394215 
L 112.614102 80.417172 
L 112.648379 79.440129 
L 112.670884 78.463085 
L 112.681145 77.486042 
L 112.683312 76.508999 
L 112.67642 75.531956 
L 112.664735 74.554913 
L 112.662338 73.57787 
L 112.677197 72.600826 
L 112.700494 71.623783 
L 112.71949 70.64674 
L 112.732485 69.669697 
L 112.744807 68.692654 
L 112.757718 67.715611 
L 112.767819 66.738567 
L 112.772893 65.761524 
L 112.77327 64.784481 
L 112.769828 63.807438 
L 112.764326 62.830395 
L 112.760298 61.853352 
L 112.760364 60.876309 
L 112.76319 59.899265 
L 112.765567 58.922222 
L 112.766651 57.945179 
L 112.767705 56.968136 
L 112.768839 55.991093 
L 112.769045 55.01405 
L 112.76901 54.037006 
L 112.771026 53.059963 
L 112.775819 52.08292 
L 112.781473 51.105877 
L 112.785735 50.128834 
L 112.78797 49.151791 
L 112.788818 48.174747 
L 112.789054 47.197704 
L 112.789104 46.220661 
L 112.78911 45.243618 
L 112.789101 44.266575 
L 112.789045 43.289532 
L 112.788812 42.312489 
L 112.788098 41.335445 
L 112.786496 40.358402 
L 112.783964 39.381359 
L 112.781385 38.404316 
L 112.780264 37.427273 
L 112.797961 37.427273 
L 112.797961 37.427273 
L 112.79684 38.404316 
L 112.794261 39.381359 
L 112.791729 40.358402 
L 112.790127 41.335445 
L 112.789412 42.312489 
L 112.78918 43.289532 
L 112.789124 44.266575 
L 112.789115 45.243618 
L 112.789121 46.220661 
L 112.78917 47.197704 
L 112.789407 48.174747 
L 112.790254 49.151791 
L 112.79249 50.128834 
L 112.796752 51.105877 
L 112.802406 52.08292 
L 112.807198 53.059963 
L 112.809215 54.037006 
L 112.80918 55.01405 
L 112.809385 55.991093 
L 112.810519 56.968136 
L 112.811574 57.945179 
L 112.812658 58.922222 
L 112.815035 59.899265 
L 112.817861 60.876309 
L 112.817927 61.853352 
L 112.813899 62.830395 
L 112.808397 63.807438 
L 112.804955 64.784481 
L 112.805332 65.761524 
L 112.810405 66.738567 
L 112.820507 67.715611 
L 112.833418 68.692654 
L 112.84574 69.669697 
L 112.858735 70.64674 
L 112.877731 71.623783 
L 112.901027 72.600826 
L 112.915887 73.57787 
L 112.91349 74.554913 
L 112.901805 75.531956 
L 112.894913 76.508999 
L 112.89708 77.486042 
L 112.907341 78.463085 
L 112.929846 79.440129 
L 112.964122 80.417172 
L 112.992452 81.394215 
L 112.996174 82.371258 
L 112.981427 83.348301 
L 112.970447 84.325344 
L 112.972045 85.302388 
L 112.981175 86.279431 
L 113.001365 87.256474 
L 113.040644 88.233517 
L 113.087124 89.21056 
L 113.119482 90.187603 
L 113.144236 91.164646 
L 113.188026 92.14169 
L 113.248329 93.118733 
L 113.295009 94.095776 
L 113.330025 95.072819 
L 113.391371 96.049862 
L 113.478569 97.026905 
L 113.537665 98.003949 
L 113.551625 98.980992 
L 113.576034 99.958035 
L 113.642873 100.935078 
L 113.705841 101.912121 
L 113.736568 102.889164 
L 113.791308 103.866208 
L 113.909786 104.843251 
L 114.036758 105.820294 
L 114.135924 106.797337 
L 114.284496 107.77438 
L 114.533414 108.751423 
L 114.777977 109.728466 
L 114.92697 110.70551 
L 115.090529 111.682553 
L 115.392654 112.659596 
L 115.708677 113.636639 
L 115.853652 114.613682 
L 115.930398 115.590725 
L 116.172051 116.567769 
L 116.531 117.544812 
L 116.805517 118.521855 
L 117.095293 119.498898 
L 117.659305 120.475941 
L 118.350665 121.452984 
L 118.75221 122.430028 
L 118.91707 123.407071 
L 119.358326 124.384114 
L 120.247635 125.361157 
L 121.384501 126.3382 
L 123.039981 127.315243 
L 125.739698 128.292287 
L 128.835613 129.26933 
L 130.616109 130.246373 
L 130.578396 131.223416 
L 130.173281 132.200459 
L 130.312691 133.177502 
L 129.651974 134.154545 
z
" clip-path="url(#p14aa1686b4)" style="fill: #378add; fill-opacity: 0.7"/>
   </g>
   <g id="FillBetweenPolyCollection_3">
    <path d="M 181.550384 134.154545 
L 145.896391 134.154545 
L 147.750061 132.933242 
L 149.802006 131.711938 
L 149.050016 130.490634 
L 150.957037 129.26933 
L 155.105535 128.048026 
L 157.044086 126.826722 
L 157.958367 125.605418 
L 159.518359 124.384114 
L 160.323408 123.16281 
L 160.492145 121.941506 
L 161.101568 120.720202 
L 161.496413 119.498898 
L 161.424665 118.277594 
L 161.709679 117.05629 
L 162.112166 115.834986 
L 162.113749 114.613682 
L 162.229566 113.392378 
L 162.616646 112.171074 
L 162.785536 110.94977 
L 162.828817 109.728466 
L 163.002963 108.507163 
L 163.089117 107.285859 
L 163.065684 106.064555 
L 163.161922 104.843251 
L 163.272696 103.621947 
L 163.271466 102.400643 
L 163.312065 101.179339 
L 163.407652 99.958035 
L 163.42975 98.736731 
L 163.435987 97.515427 
L 163.482498 96.294123 
L 163.486505 95.072819 
L 163.470315 93.851515 
L 163.516229 92.630211 
L 163.567607 91.408907 
L 163.575782 90.187603 
L 163.58753 88.966299 
L 163.596648 87.744995 
L 163.575667 86.523691 
L 163.573959 85.302388 
L 163.605127 84.081084 
L 163.616633 82.85978 
L 163.617156 81.638476 
L 163.64134 80.417172 
L 163.664919 79.195868 
L 163.671946 77.974564 
L 163.684602 76.75326 
L 163.705187 75.531956 
L 163.718472 74.310652 
L 163.722633 73.089348 
L 163.723308 71.868044 
L 163.723192 70.64674 
L 163.721901 69.425436 
L 163.716878 68.204132 
L 163.707185 66.982828 
L 163.700125 65.761524 
L 163.702348 64.54022 
L 163.706498 63.318916 
L 163.706489 62.097612 
L 163.707473 60.876309 
L 163.709351 59.655005 
L 163.70796 58.433701 
L 163.708216 57.212397 
L 163.713958 55.991093 
L 163.719967 54.769789 
L 163.722354 53.548485 
L 163.721618 52.327181 
L 163.718669 51.105877 
L 163.715802 49.884573 
L 163.715674 48.663269 
L 163.716382 47.441965 
L 163.715582 46.220661 
L 163.715983 44.999357 
L 163.719025 43.778053 
L 163.721909 42.556749 
L 163.723103 41.335445 
L 163.723357 40.114141 
L 163.723386 38.892837 
L 163.723388 37.671534 
L 163.723388 36.45023 
L 163.723388 35.228926 
L 163.723388 34.007622 
L 163.723388 32.786318 
L 163.723388 31.565014 
L 163.723388 30.34371 
L 163.723388 29.122406 
L 163.723388 27.901102 
L 163.723388 26.679798 
L 163.723388 25.458494 
L 163.723388 24.23719 
L 163.723388 23.015886 
L 163.723388 21.794582 
L 163.723387 20.573278 
L 163.723381 19.351974 
L 163.723307 18.13067 
L 163.722799 16.909366 
L 163.720951 15.688062 
L 163.717677 14.466758 
L 163.715802 13.245455 
L 163.730973 13.245455 
L 163.730973 13.245455 
L 163.729098 14.466758 
L 163.725824 15.688062 
L 163.723977 16.909366 
L 163.723468 18.13067 
L 163.723394 19.351974 
L 163.723388 20.573278 
L 163.723388 21.794582 
L 163.723388 23.015886 
L 163.723388 24.23719 
L 163.723388 25.458494 
L 163.723388 26.679798 
L 163.723388 27.901102 
L 163.723388 29.122406 
L 163.723388 30.34371 
L 163.723388 31.565014 
L 163.723388 32.786318 
L 163.723388 34.007622 
L 163.723388 35.228926 
L 163.723388 36.45023 
L 163.723388 37.671534 
L 163.72339 38.892837 
L 163.723419 40.114141 
L 163.723672 41.335445 
L 163.724866 42.556749 
L 163.72775 43.778053 
L 163.730792 44.999357 
L 163.731194 46.220661 
L 163.730394 47.441965 
L 163.731101 48.663269 
L 163.730974 49.884573 
L 163.728106 51.105877 
L 163.725157 52.327181 
L 163.724421 53.548485 
L 163.726808 54.769789 
L 163.732817 55.991093 
L 163.738559 57.212397 
L 163.738815 58.433701 
L 163.737425 59.655005 
L 163.739303 60.876309 
L 163.740286 62.097612 
L 163.740277 63.318916 
L 163.744427 64.54022 
L 163.74665 65.761524 
L 163.73959 66.982828 
L 163.729897 68.204132 
L 163.724874 69.425436 
L 163.723583 70.64674 
L 163.723467 71.868044 
L 163.724142 73.089348 
L 163.728303 74.310652 
L 163.741588 75.531956 
L 163.762173 76.75326 
L 163.77483 77.974564 
L 163.781856 79.195868 
L 163.805436 80.417172 
L 163.82962 81.638476 
L 163.830142 82.85978 
L 163.841648 84.081084 
L 163.872816 85.302388 
L 163.871108 86.523691 
L 163.850127 87.744995 
L 163.859245 88.966299 
L 163.870993 90.187603 
L 163.879168 91.408907 
L 163.930546 92.630211 
L 163.97646 93.851515 
L 163.96027 95.072819 
L 163.964277 96.294123 
L 164.010788 97.515427 
L 164.017025 98.736731 
L 164.039124 99.958035 
L 164.13471 101.179339 
L 164.175309 102.400643 
L 164.174079 103.621947 
L 164.284853 104.843251 
L 164.381091 106.064555 
L 164.357659 107.285859 
L 164.443812 108.507163 
L 164.617959 109.728466 
L 164.66124 110.94977 
L 164.830129 112.171074 
L 165.217209 113.392378 
L 165.333026 114.613682 
L 165.33461 115.834986 
L 165.737096 117.05629 
L 166.02211 118.277594 
L 165.950363 119.498898 
L 166.345207 120.720202 
L 166.95463 121.941506 
L 167.123367 123.16281 
L 167.928416 124.384114 
L 169.488408 125.605418 
L 170.402689 126.826722 
L 172.34124 128.048026 
L 176.489738 129.26933 
L 178.396759 130.490634 
L 177.64477 131.711938 
L 179.696714 132.933242 
L 181.550384 134.154545 
z
" clip-path="url(#p14aa1686b4)" style="fill: #ba7517; fill-opacity: 0.7"/>
   </g>
   <g id="FillBetweenPolyCollection_4">
    <path d="M 232.484659 134.154545 
L 196.830666 134.154545 
L 198.695819 133.462473 
L 202.674513 132.770401 
L 205.050925 132.078329 
L 204.160734 131.386257 
L 201.753464 130.694184 
L 200.978956 130.002112 
L 203.154332 129.31004 
L 206.681007 128.617968 
L 209.065157 127.925895 
L 209.399082 127.233823 
L 208.765729 126.541751 
L 208.756803 125.849679 
L 209.870235 125.157606 
L 211.285902 124.465534 
L 211.970922 123.773462 
L 211.740235 123.08139 
L 211.284401 122.389317 
L 211.365907 121.697245 
L 212.063314 121.005173 
L 212.804857 120.313101 
L 213.047026 119.621028 
L 212.800419 118.928956 
L 212.535635 118.236884 
L 212.66479 117.544812 
L 213.144251 116.85274 
L 213.589361 116.160667 
L 213.709664 115.468595 
L 213.566892 114.776523 
L 213.452751 114.084451 
L 213.571335 113.392378 
L 213.853779 112.700306 
L 214.074159 112.008234 
L 214.099533 111.316162 
L 214.000884 110.624089 
L 213.951826 109.932017 
L 214.044803 109.239945 
L 214.212094 108.547873 
L 214.319548 107.8558 
L 214.309569 107.163728 
L 214.243992 106.471656 
L 214.22678 105.779584 
L 214.295895 105.087511 
L 214.393993 104.395439 
L 214.439843 103.703367 
L 214.412584 103.011295 
L 214.364857 102.319223 
L 214.363735 101.62715 
L 214.423399 100.935078 
L 214.498971 100.243006 
L 214.540389 99.550934 
L 214.539263 98.858861 
L 214.525566 98.166789 
L 214.530314 97.474717 
L 214.554801 96.782645 
L 214.574183 96.090572 
L 214.567193 95.3985 
L 214.539639 94.706428 
L 214.51939 94.014356 
L 214.52777 93.322283 
L 214.556891 92.630211 
L 214.578736 91.938139 
L 214.574836 91.246067 
L 214.553971 90.553994 
L 214.541951 89.861922 
L 214.555085 89.16985 
L 214.585122 88.477778 
L 214.611073 87.785706 
L 214.621016 87.093633 
L 214.61958 86.401561 
L 214.618677 85.709489 
L 214.624809 85.017417 
L 214.634902 84.325344 
L 214.642203 83.633272 
L 214.64383 82.9412 
L 214.642405 82.249128 
L 214.642197 81.557055 
L 214.644668 80.864983 
L 214.647588 80.172911 
L 214.647983 79.480839 
L 214.64546 78.788766 
L 214.642687 78.096694 
L 214.642704 77.404622 
L 214.645818 76.71255 
L 214.649509 76.020478 
L 214.651244 75.328405 
L 214.650797 74.636333 
L 214.649945 73.944261 
L 214.650439 73.252189 
L 214.652429 72.560116 
L 214.654774 71.868044 
L 214.656451 71.175972 
L 214.657269 70.4839 
L 214.657517 69.791827 
L 214.657405 69.099755 
L 214.656827 68.407683 
L 214.65547 67.715611 
L 214.653287 67.023538 
L 214.65104 66.331466 
L 214.650059 65.639394 
L 214.665267 65.639394 
L 214.665267 65.639394 
L 214.664286 66.331466 
L 214.662038 67.023538 
L 214.659856 67.715611 
L 214.658499 68.407683 
L 214.65792 69.099755 
L 214.657808 69.791827 
L 214.658056 70.4839 
L 214.658874 71.175972 
L 214.660552 71.868044 
L 214.662897 72.560116 
L 214.664886 73.252189 
L 214.66538 73.944261 
L 214.664529 74.636333 
L 214.664081 75.328405 
L 214.665816 76.020478 
L 214.669507 76.71255 
L 214.672621 77.404622 
L 214.672638 78.096694 
L 214.669866 78.788766 
L 214.667343 79.480839 
L 214.667737 80.172911 
L 214.670658 80.864983 
L 214.673129 81.557055 
L 214.672921 82.249128 
L 214.671495 82.9412 
L 214.673122 83.633272 
L 214.680424 84.325344 
L 214.690516 85.017417 
L 214.696649 85.709489 
L 214.695746 86.401561 
L 214.694309 87.093633 
L 214.704252 87.785706 
L 214.730204 88.477778 
L 214.760241 89.16985 
L 214.773375 89.861922 
L 214.761355 90.553994 
L 214.740489 91.246067 
L 214.73659 91.938139 
L 214.758434 92.630211 
L 214.787556 93.322283 
L 214.795935 94.014356 
L 214.775686 94.706428 
L 214.748132 95.3985 
L 214.741143 96.090572 
L 214.760524 96.782645 
L 214.785011 97.474717 
L 214.789759 98.166789 
L 214.776063 98.858861 
L 214.774936 99.550934 
L 214.816355 100.243006 
L 214.891926 100.935078 
L 214.951591 101.62715 
L 214.950468 102.319223 
L 214.902741 103.011295 
L 214.875482 103.703367 
L 214.921332 104.395439 
L 215.01943 105.087511 
L 215.088545 105.779584 
L 215.071334 106.471656 
L 215.005756 107.163728 
L 214.995778 107.8558 
L 215.103232 108.547873 
L 215.270522 109.239945 
L 215.3635 109.932017 
L 215.314441 110.624089 
L 215.215792 111.316162 
L 215.241166 112.008234 
L 215.461547 112.700306 
L 215.743991 113.392378 
L 215.862574 114.084451 
L 215.748433 114.776523 
L 215.605662 115.468595 
L 215.725964 116.160667 
L 216.171074 116.85274 
L 216.650536 117.544812 
L 216.77969 118.236884 
L 216.514906 118.928956 
L 216.268299 119.621028 
L 216.510469 120.313101 
L 217.252011 121.005173 
L 217.949418 121.697245 
L 218.030925 122.389317 
L 217.575091 123.08139 
L 217.344404 123.773462 
L 218.029424 124.465534 
L 219.44509 125.157606 
L 220.558522 125.849679 
L 220.549597 126.541751 
L 219.916243 127.233823 
L 220.250168 127.925895 
L 222.634319 128.617968 
L 226.160993 129.31004 
L 228.336369 130.002112 
L 227.561861 130.694184 
L 225.154592 131.386257 
L 224.264401 132.078329 
L 226.640813 132.770401 
L 230.619507 133.462473 
L 232.484659 134.154545 
z
" clip-path="url(#p14aa1686b4)" style="fill: #1d9e75; fill-opacity: 0.7"/>
   </g>
   <g id="matplotlib.axis_1">
    <g id="xtick_1">
     <g id="line2d_1">
      <defs>
       <path id="m1bd73a5f43" d="M 0 0 
L 0 3.5 
" style="stroke: #000000; stroke-width: 0.8"/>
      </defs>
      <g>
       <use xlink:href="#m1bd73a5f43" x="61.854837" y="140.2" style="stroke: #000000; stroke-width: 0.8"/>
      </g>
     </g>
     <g id="text_1">
      <!-- original -->
      <g transform="translate(48.959212 152.92625) scale(0.08 -0.08)">
       <defs>
        <path id="ArialMT-6f" d="M 213 1659 
Q 213 2581 725 3025 
Q 1153 3394 1769 3394 
Q 2453 3394 2887 2945 
Q 3322 2497 3322 1706 
Q 3322 1066 3130 698 
Q 2938 331 2570 128 
Q 2203 -75 1769 -75 
Q 1072 -75 642 372 
Q 213 819 213 1659 
z
M 791 1659 
Q 791 1022 1069 705 
Q 1347 388 1769 388 
Q 2188 388 2466 706 
Q 2744 1025 2744 1678 
Q 2744 2294 2464 2611 
Q 2184 2928 1769 2928 
Q 1347 2928 1069 2612 
Q 791 2297 791 1659 
z
" transform="scale(0.015625)"/>
        <path id="ArialMT-72" d="M 416 0 
L 416 3319 
L 922 3319 
L 922 2816 
Q 1116 3169 1280 3281 
Q 1444 3394 1641 3394 
Q 1925 3394 2219 3213 
L 2025 2691 
Q 1819 2813 1613 2813 
Q 1428 2813 1281 2702 
Q 1134 2591 1072 2394 
Q 978 2094 978 1738 
L 978 0 
L 416 0 
z
" transform="scale(0.015625)"/>
        <path id="ArialMT-69" d="M 425 3934 
L 425 4581 
L 988 4581 
L 988 3934 
L 425 3934 
z
M 425 0 
L 425 3319 
L 988 3319 
L 988 0 
L 425 0 
z
" transform="scale(0.015625)"/>
        <path id="ArialMT-67" d="M 319 -275 
L 866 -356 
Q 900 -609 1056 -725 
Q 1266 -881 1628 -881 
Q 2019 -881 2231 -725 
Q 2444 -569 2519 -288 
Q 2563 -116 2559 434 
Q 2191 0 1641 0 
Q 956 0 581 494 
Q 206 988 206 1678 
Q 206 2153 378 2554 
Q 550 2956 876 3175 
Q 1203 3394 1644 3394 
Q 2231 3394 2613 2919 
L 2613 3319 
L 3131 3319 
L 3131 450 
Q 3131 -325 2973 -648 
Q 2816 -972 2473 -1159 
Q 2131 -1347 1631 -1347 
Q 1038 -1347 672 -1080 
Q 306 -813 319 -275 
z
M 784 1719 
Q 784 1066 1043 766 
Q 1303 466 1694 466 
Q 2081 466 2343 764 
Q 2606 1063 2606 1700 
Q 2606 2309 2336 2618 
Q 2066 2928 1684 2928 
Q 1309 2928 1046 2623 
Q 784 2319 784 1719 
z
" transform="scale(0.015625)"/>
        <path id="ArialMT-6e" d="M 422 0 
L 422 3319 
L 928 3319 
L 928 2847 
Q 1294 3394 1984 3394 
Q 2284 3394 2536 3286 
Q 2788 3178 2913 3003 
Q 3038 2828 3088 2588 
Q 3119 2431 3119 2041 
L 3119 0 
L 2556 0 
L 2556 2019 
Q 2556 2363 2490 2533 
Q 2425 2703 2258 2804 
Q 2091 2906 1866 2906 
Q 1506 2906 1245 2678 
Q 984 2450 984 1813 
L 984 0 
L 422 0 
z
" transform="scale(0.015625)"/>
        <path id="ArialMT-61" d="M 2588 409 
Q 2275 144 1986 34 
Q 1697 -75 1366 -75 
Q 819 -75 525 192 
Q 231 459 231 875 
Q 231 1119 342 1320 
Q 453 1522 633 1644 
Q 813 1766 1038 1828 
Q 1203 1872 1538 1913 
Q 2219 1994 2541 2106 
Q 2544 2222 2544 2253 
Q 2544 2597 2384 2738 
Q 2169 2928 1744 2928 
Q 1347 2928 1158 2789 
Q 969 2650 878 2297 
L 328 2372 
Q 403 2725 575 2942 
Q 747 3159 1072 3276 
Q 1397 3394 1825 3394 
Q 2250 3394 2515 3294 
Q 2781 3194 2906 3042 
Q 3031 2891 3081 2659 
Q 3109 2516 3109 2141 
L 3109 1391 
Q 3109 606 3145 398 
Q 3181 191 3288 0 
L 2700 0 
Q 2613 175 2588 409 
z
M 2541 1666 
Q 2234 1541 1622 1453 
Q 1275 1403 1131 1340 
Q 988 1278 909 1158 
Q 831 1038 831 891 
Q 831 666 1001 516 
Q 1172 366 1500 366 
Q 1825 366 2078 508 
Q 2331 650 2450 897 
Q 2541 1088 2541 1459 
L 2541 1666 
z
" transform="scale(0.015625)"/>
        <path id="ArialMT-6c" d="M 409 0 
L 409 4581 
L 972 4581 
L 972 0 
L 409 0 
z
" transform="scale(0.015625)"/>
       </defs>
       <use xlink:href="#ArialMT-6f"/>
       <use xlink:href="#ArialMT-72" transform="translate(55.615234 0)"/>
       <use xlink:href="#ArialMT-69" transform="translate(88.916016 0)"/>
       <use xlink:href="#ArialMT-67" transform="translate(111.132812 0)"/>
       <use xlink:href="#ArialMT-69" transform="translate(166.748047 0)"/>
       <use xlink:href="#ArialMT-6e" transform="translate(188.964844 0)"/>
       <use xlink:href="#ArialMT-61" transform="translate(244.580078 0)"/>
       <use xlink:href="#ArialMT-6c" transform="translate(300.195312 0)"/>
      </g>
     </g>
    </g>
    <g id="xtick_2">
     <g id="line2d_2">
      <g>
       <use xlink:href="#m1bd73a5f43" x="112.789112" y="140.2" style="stroke: #000000; stroke-width: 0.8"/>
      </g>
     </g>
     <g id="text_2">
      <!-- s1 only -->
      <g transform="translate(100.115987 152.95) scale(0.08 -0.08)">
       <defs>
        <path id="ArialMT-73" d="M 197 991 
L 753 1078 
Q 800 744 1014 566 
Q 1228 388 1613 388 
Q 2000 388 2187 545 
Q 2375 703 2375 916 
Q 2375 1106 2209 1216 
Q 2094 1291 1634 1406 
Q 1016 1563 777 1677 
Q 538 1791 414 1992 
Q 291 2194 291 2438 
Q 291 2659 392 2848 
Q 494 3038 669 3163 
Q 800 3259 1026 3326 
Q 1253 3394 1513 3394 
Q 1903 3394 2198 3281 
Q 2494 3169 2634 2976 
Q 2775 2784 2828 2463 
L 2278 2388 
Q 2241 2644 2061 2787 
Q 1881 2931 1553 2931 
Q 1166 2931 1000 2803 
Q 834 2675 834 2503 
Q 834 2394 903 2306 
Q 972 2216 1119 2156 
Q 1203 2125 1616 2013 
Q 2213 1853 2448 1751 
Q 2684 1650 2818 1456 
Q 2953 1263 2953 975 
Q 2953 694 2789 445 
Q 2625 197 2315 61 
Q 2006 -75 1616 -75 
Q 969 -75 630 194 
Q 291 463 197 991 
z
" transform="scale(0.015625)"/>
        <path id="ArialMT-31" d="M 2384 0 
L 1822 0 
L 1822 3584 
Q 1619 3391 1289 3197 
Q 959 3003 697 2906 
L 697 3450 
Q 1169 3672 1522 3987 
Q 1875 4303 2022 4600 
L 2384 4600 
L 2384 0 
z
" transform="scale(0.015625)"/>
        <path id="ArialMT-20" transform="scale(0.015625)"/>
        <path id="ArialMT-79" d="M 397 -1278 
L 334 -750 
Q 519 -800 656 -800 
Q 844 -800 956 -737 
Q 1069 -675 1141 -563 
Q 1194 -478 1313 -144 
Q 1328 -97 1363 -6 
L 103 3319 
L 709 3319 
L 1400 1397 
Q 1534 1031 1641 628 
Q 1738 1016 1872 1384 
L 2581 3319 
L 3144 3319 
L 1881 -56 
Q 1678 -603 1566 -809 
Q 1416 -1088 1222 -1217 
Q 1028 -1347 759 -1347 
Q 597 -1347 397 -1278 
z
" transform="scale(0.015625)"/>
       </defs>
       <use xlink:href="#ArialMT-73"/>
       <use xlink:href="#ArialMT-31" transform="translate(50 0)"/>
       <use xlink:href="#ArialMT-20" transform="translate(105.615234 0)"/>
       <use xlink:href="#ArialMT-6f" transform="translate(133.398438 0)"/>
       <use xlink:href="#ArialMT-6e" transform="translate(189.013672 0)"/>
       <use xlink:href="#ArialMT-6c" transform="translate(244.628906 0)"/>
       <use xlink:href="#ArialMT-79" transform="translate(266.845703 0)"/>
      </g>
     </g>
    </g>
    <g id="xtick_3">
     <g id="line2d_3">
      <g>
       <use xlink:href="#m1bd73a5f43" x="163.723388" y="140.2" style="stroke: #000000; stroke-width: 0.8"/>
      </g>
     </g>
     <g id="text_3">
      <!-- switch -->
      <g transform="translate(152.610263 152.92625) scale(0.08 -0.08)">
       <defs>
        <path id="ArialMT-77" d="M 1034 0 
L 19 3319 
L 600 3319 
L 1128 1403 
L 1325 691 
Q 1338 744 1497 1375 
L 2025 3319 
L 2603 3319 
L 3100 1394 
L 3266 759 
L 3456 1400 
L 4025 3319 
L 4572 3319 
L 3534 0 
L 2950 0 
L 2422 1988 
L 2294 2553 
L 1622 0 
L 1034 0 
z
" transform="scale(0.015625)"/>
        <path id="ArialMT-74" d="M 1650 503 
L 1731 6 
Q 1494 -44 1306 -44 
Q 1000 -44 831 53 
Q 663 150 594 308 
Q 525 466 525 972 
L 525 2881 
L 113 2881 
L 113 3319 
L 525 3319 
L 525 4141 
L 1084 4478 
L 1084 3319 
L 1650 3319 
L 1650 2881 
L 1084 2881 
L 1084 941 
Q 1084 700 1114 631 
Q 1144 563 1211 522 
Q 1278 481 1403 481 
Q 1497 481 1650 503 
z
" transform="scale(0.015625)"/>
        <path id="ArialMT-63" d="M 2588 1216 
L 3141 1144 
Q 3050 572 2676 248 
Q 2303 -75 1759 -75 
Q 1078 -75 664 370 
Q 250 816 250 1647 
Q 250 2184 428 2587 
Q 606 2991 970 3192 
Q 1334 3394 1763 3394 
Q 2303 3394 2647 3120 
Q 2991 2847 3088 2344 
L 2541 2259 
Q 2463 2594 2264 2762 
Q 2066 2931 1784 2931 
Q 1359 2931 1093 2626 
Q 828 2322 828 1663 
Q 828 994 1084 691 
Q 1341 388 1753 388 
Q 2084 388 2306 591 
Q 2528 794 2588 1216 
z
" transform="scale(0.015625)"/>
        <path id="ArialMT-68" d="M 422 0 
L 422 4581 
L 984 4581 
L 984 2938 
Q 1378 3394 1978 3394 
Q 2347 3394 2619 3248 
Q 2891 3103 3008 2847 
Q 3125 2591 3125 2103 
L 3125 0 
L 2563 0 
L 2563 2103 
Q 2563 2525 2380 2717 
Q 2197 2909 1863 2909 
Q 1613 2909 1392 2779 
Q 1172 2650 1078 2428 
Q 984 2206 984 1816 
L 984 0 
L 422 0 
z
" transform="scale(0.015625)"/>
       </defs>
       <use xlink:href="#ArialMT-73"/>
       <use xlink:href="#ArialMT-77" transform="translate(50 0)"/>
       <use xlink:href="#ArialMT-69" transform="translate(122.216797 0)"/>
       <use xlink:href="#ArialMT-74" transform="translate(144.433594 0)"/>
       <use xlink:href="#ArialMT-63" transform="translate(172.216797 0)"/>
       <use xlink:href="#ArialMT-68" transform="translate(222.216797 0)"/>
      </g>
     </g>
    </g>
    <g id="xtick_4">
     <g id="line2d_4">
      <g>
       <use xlink:href="#m1bd73a5f43" x="214.657663" y="140.2" style="stroke: #000000; stroke-width: 0.8"/>
      </g>
     </g>
     <g id="text_4">
      <!-- blend -->
      <g transform="translate(204.871413 152.92625) scale(0.08 -0.08)">
       <defs>
        <path id="ArialMT-62" d="M 941 0 
L 419 0 
L 419 4581 
L 981 4581 
L 981 2947 
Q 1338 3394 1891 3394 
Q 2197 3394 2470 3270 
Q 2744 3147 2920 2923 
Q 3097 2700 3197 2384 
Q 3297 2069 3297 1709 
Q 3297 856 2875 390 
Q 2453 -75 1863 -75 
Q 1275 -75 941 416 
L 941 0 
z
M 934 1684 
Q 934 1088 1097 822 
Q 1363 388 1816 388 
Q 2184 388 2453 708 
Q 2722 1028 2722 1663 
Q 2722 2313 2464 2622 
Q 2206 2931 1841 2931 
Q 1472 2931 1203 2611 
Q 934 2291 934 1684 
z
" transform="scale(0.015625)"/>
        <path id="ArialMT-65" d="M 2694 1069 
L 3275 997 
Q 3138 488 2766 206 
Q 2394 -75 1816 -75 
Q 1088 -75 661 373 
Q 234 822 234 1631 
Q 234 2469 665 2931 
Q 1097 3394 1784 3394 
Q 2450 3394 2872 2941 
Q 3294 2488 3294 1666 
Q 3294 1616 3291 1516 
L 816 1516 
Q 847 969 1125 678 
Q 1403 388 1819 388 
Q 2128 388 2347 550 
Q 2566 713 2694 1069 
z
M 847 1978 
L 2700 1978 
Q 2663 2397 2488 2606 
Q 2219 2931 1791 2931 
Q 1403 2931 1139 2672 
Q 875 2413 847 1978 
z
" transform="scale(0.015625)"/>
        <path id="ArialMT-64" d="M 2575 0 
L 2575 419 
Q 2259 -75 1647 -75 
Q 1250 -75 917 144 
Q 584 363 401 755 
Q 219 1147 219 1656 
Q 219 2153 384 2558 
Q 550 2963 881 3178 
Q 1213 3394 1622 3394 
Q 1922 3394 2156 3267 
Q 2391 3141 2538 2938 
L 2538 4581 
L 3097 4581 
L 3097 0 
L 2575 0 
z
M 797 1656 
Q 797 1019 1065 703 
Q 1334 388 1700 388 
Q 2069 388 2326 689 
Q 2584 991 2584 1609 
Q 2584 2291 2321 2609 
Q 2059 2928 1675 2928 
Q 1300 2928 1048 2622 
Q 797 2316 797 1656 
z
" transform="scale(0.015625)"/>
       </defs>
       <use xlink:href="#ArialMT-62"/>
       <use xlink:href="#ArialMT-6c" transform="translate(55.615234 0)"/>
       <use xlink:href="#ArialMT-65" transform="translate(77.832031 0)"/>
       <use xlink:href="#ArialMT-6e" transform="translate(133.447266 0)"/>
       <use xlink:href="#ArialMT-64" transform="translate(189.0625 0)"/>
      </g>
     </g>
    </g>
    <g id="text_5">
     <!-- Decision mode -->
     <g transform="translate(111.800625 164.36) scale(0.08 -0.08)">
      <defs>
       <path id="ArialMT-44" d="M 494 0 
L 494 4581 
L 2072 4581 
Q 2606 4581 2888 4516 
Q 3281 4425 3559 4188 
Q 3922 3881 4101 3404 
Q 4281 2928 4281 2316 
Q 4281 1794 4159 1391 
Q 4038 988 3847 723 
Q 3656 459 3429 307 
Q 3203 156 2883 78 
Q 2563 0 2147 0 
L 494 0 
z
M 1100 541 
L 2078 541 
Q 2531 541 2789 625 
Q 3047 709 3200 863 
Q 3416 1078 3536 1442 
Q 3656 1806 3656 2325 
Q 3656 3044 3420 3430 
Q 3184 3816 2847 3947 
Q 2603 4041 2063 4041 
L 1100 4041 
L 1100 541 
z
" transform="scale(0.015625)"/>
       <path id="ArialMT-6d" d="M 422 0 
L 422 3319 
L 925 3319 
L 925 2853 
Q 1081 3097 1340 3245 
Q 1600 3394 1931 3394 
Q 2300 3394 2536 3241 
Q 2772 3088 2869 2813 
Q 3263 3394 3894 3394 
Q 4388 3394 4653 3120 
Q 4919 2847 4919 2278 
L 4919 0 
L 4359 0 
L 4359 2091 
Q 4359 2428 4304 2576 
Q 4250 2725 4106 2815 
Q 3963 2906 3769 2906 
Q 3419 2906 3187 2673 
Q 2956 2441 2956 1928 
L 2956 0 
L 2394 0 
L 2394 2156 
Q 2394 2531 2256 2718 
Q 2119 2906 1806 2906 
Q 1569 2906 1367 2781 
Q 1166 2656 1075 2415 
Q 984 2175 984 1722 
L 984 0 
L 422 0 
z
" transform="scale(0.015625)"/>
      </defs>
      <use xlink:href="#ArialMT-44"/>
      <use xlink:href="#ArialMT-65" transform="translate(72.216797 0)"/>
      <use xlink:href="#ArialMT-63" transform="translate(127.832031 0)"/>
      <use xlink:href="#ArialMT-69" transform="translate(177.832031 0)"/>
      <use xlink:href="#ArialMT-73" transform="translate(200.048828 0)"/>
      <use xlink:href="#ArialMT-69" transform="translate(250.048828 0)"/>
      <use xlink:href="#ArialMT-6f" transform="translate(272.265625 0)"/>
      <use xlink:href="#ArialMT-6e" transform="translate(327.880859 0)"/>
      <use xlink:href="#ArialMT-20" transform="translate(383.496094 0)"/>
      <use xlink:href="#ArialMT-6d" transform="translate(411.279297 0)"/>
      <use xlink:href="#ArialMT-6f" transform="translate(494.580078 0)"/>
      <use xlink:href="#ArialMT-64" transform="translate(550.195312 0)"/>
      <use xlink:href="#ArialMT-65" transform="translate(605.810547 0)"/>
     </g>
    </g>
   </g>
   <g id="matplotlib.axis_2">
    <g id="ytick_1">
     <g id="line2d_5">
      <path d="M 34.605 134.154545 
L 241.9075 134.154545 
" clip-path="url(#p14aa1686b4)" style="fill: none; stroke: #b0b0b0; stroke-opacity: 0.3; stroke-width: 0.8; stroke-linecap: square"/>
     </g>
     <g id="line2d_6">
      <defs>
       <path id="m7e60b1d8f1" d="M 0 0 
L -3.5 0 
" style="stroke: #000000; stroke-width: 0.8"/>
      </defs>
      <g>
       <use xlink:href="#m7e60b1d8f1" x="34.605" y="134.154545" style="stroke: #000000; stroke-width: 0.8"/>
      </g>
     </g>
     <g id="text_6">
      <!-- 0 -->
      <g transform="translate(23.15625 137.01767) scale(0.08 -0.08)">
       <defs>
        <path id="ArialMT-30" d="M 266 2259 
Q 266 3072 433 3567 
Q 600 4063 929 4331 
Q 1259 4600 1759 4600 
Q 2128 4600 2406 4451 
Q 2684 4303 2865 4023 
Q 3047 3744 3150 3342 
Q 3253 2941 3253 2259 
Q 3253 1453 3087 958 
Q 2922 463 2592 192 
Q 2263 -78 1759 -78 
Q 1097 -78 719 397 
Q 266 969 266 2259 
z
M 844 2259 
Q 844 1131 1108 757 
Q 1372 384 1759 384 
Q 2147 384 2411 759 
Q 2675 1134 2675 2259 
Q 2675 3391 2411 3762 
Q 2147 4134 1753 4134 
Q 1366 4134 1134 3806 
Q 844 3388 844 2259 
z
" transform="scale(0.015625)"/>
       </defs>
       <use xlink:href="#ArialMT-30"/>
      </g>
     </g>
    </g>
    <g id="ytick_2">
     <g id="line2d_7">
      <path d="M 34.605 114.00303 
L 241.9075 114.00303 
" clip-path="url(#p14aa1686b4)" style="fill: none; stroke: #b0b0b0; stroke-opacity: 0.3; stroke-width: 0.8; stroke-linecap: square"/>
     </g>
     <g id="line2d_8">
      <g>
       <use xlink:href="#m7e60b1d8f1" x="34.605" y="114.00303" style="stroke: #000000; stroke-width: 0.8"/>
      </g>
     </g>
     <g id="text_7">
      <!-- 5 -->
      <g transform="translate(23.15625 116.866155) scale(0.08 -0.08)">
       <defs>
        <path id="ArialMT-35" d="M 266 1200 
L 856 1250 
Q 922 819 1161 601 
Q 1400 384 1738 384 
Q 2144 384 2425 690 
Q 2706 997 2706 1503 
Q 2706 1984 2436 2262 
Q 2166 2541 1728 2541 
Q 1456 2541 1237 2417 
Q 1019 2294 894 2097 
L 366 2166 
L 809 4519 
L 3088 4519 
L 3088 3981 
L 1259 3981 
L 1013 2750 
Q 1425 3038 1878 3038 
Q 2478 3038 2890 2622 
Q 3303 2206 3303 1553 
Q 3303 931 2941 478 
Q 2500 -78 1738 -78 
Q 1113 -78 717 272 
Q 322 622 266 1200 
z
" transform="scale(0.015625)"/>
       </defs>
       <use xlink:href="#ArialMT-35"/>
      </g>
     </g>
    </g>
    <g id="ytick_3">
     <g id="line2d_9">
      <path d="M 34.605 93.851515 
L 241.9075 93.851515 
" clip-path="url(#p14aa1686b4)" style="fill: none; stroke: #b0b0b0; stroke-opacity: 0.3; stroke-width: 0.8; stroke-linecap: square"/>
     </g>
     <g id="line2d_10">
      <g>
       <use xlink:href="#m7e60b1d8f1" x="34.605" y="93.851515" style="stroke: #000000; stroke-width: 0.8"/>
      </g>
     </g>
     <g id="text_8">
      <!-- 10 -->
      <g transform="translate(18.7075 96.71464) scale(0.08 -0.08)">
       <use xlink:href="#ArialMT-31"/>
       <use xlink:href="#ArialMT-30" transform="translate(55.615234 0)"/>
      </g>
     </g>
    </g>
    <g id="ytick_4">
     <g id="line2d_11">
      <path d="M 34.605 73.7 
L 241.9075 73.7 
" clip-path="url(#p14aa1686b4)" style="fill: none; stroke: #b0b0b0; stroke-opacity: 0.3; stroke-width: 0.8; stroke-linecap: square"/>
     </g>
     <g id="line2d_12">
      <g>
       <use xlink:href="#m7e60b1d8f1" x="34.605" y="73.7" style="stroke: #000000; stroke-width: 0.8"/>
      </g>
     </g>
     <g id="text_9">
      <!-- 15 -->
      <g transform="translate(18.7075 76.563125) scale(0.08 -0.08)">
       <use xlink:href="#ArialMT-31"/>
       <use xlink:href="#ArialMT-35" transform="translate(55.615234 0)"/>
      </g>
     </g>
    </g>
    <g id="ytick_5">
     <g id="line2d_13">
      <path d="M 34.605 53.548485 
L 241.9075 53.548485 
" clip-path="url(#p14aa1686b4)" style="fill: none; stroke: #b0b0b0; stroke-opacity: 0.3; stroke-width: 0.8; stroke-linecap: square"/>
     </g>
     <g id="line2d_14">
      <g>
       <use xlink:href="#m7e60b1d8f1" x="34.605" y="53.548485" style="stroke: #000000; stroke-width: 0.8"/>
      </g>
     </g>
     <g id="text_10">
      <!-- 20 -->
      <g transform="translate(18.7075 56.41161) scale(0.08 -0.08)">
       <defs>
        <path id="ArialMT-32" d="M 3222 541 
L 3222 0 
L 194 0 
Q 188 203 259 391 
Q 375 700 629 1000 
Q 884 1300 1366 1694 
Q 2113 2306 2375 2664 
Q 2638 3022 2638 3341 
Q 2638 3675 2398 3904 
Q 2159 4134 1775 4134 
Q 1369 4134 1125 3890 
Q 881 3647 878 3216 
L 300 3275 
Q 359 3922 746 4261 
Q 1134 4600 1788 4600 
Q 2447 4600 2831 4234 
Q 3216 3869 3216 3328 
Q 3216 3053 3103 2787 
Q 2991 2522 2730 2228 
Q 2469 1934 1863 1422 
Q 1356 997 1212 845 
Q 1069 694 975 541 
L 3222 541 
z
" transform="scale(0.015625)"/>
       </defs>
       <use xlink:href="#ArialMT-32"/>
       <use xlink:href="#ArialMT-30" transform="translate(55.615234 0)"/>
      </g>
     </g>
    </g>
    <g id="ytick_6">
     <g id="line2d_15">
      <path d="M 34.605 33.39697 
L 241.9075 33.39697 
" clip-path="url(#p14aa1686b4)" style="fill: none; stroke: #b0b0b0; stroke-opacity: 0.3; stroke-width: 0.8; stroke-linecap: square"/>
     </g>
     <g id="line2d_16">
      <g>
       <use xlink:href="#m7e60b1d8f1" x="34.605" y="33.39697" style="stroke: #000000; stroke-width: 0.8"/>
      </g>
     </g>
     <g id="text_11">
      <!-- 25 -->
      <g transform="translate(18.7075 36.260095) scale(0.08 -0.08)">
       <use xlink:href="#ArialMT-32"/>
       <use xlink:href="#ArialMT-35" transform="translate(55.615234 0)"/>
      </g>
     </g>
    </g>
    <g id="ytick_7">
     <g id="line2d_17">
      <path d="M 34.605 13.245455 
L 241.9075 13.245455 
" clip-path="url(#p14aa1686b4)" style="fill: none; stroke: #b0b0b0; stroke-opacity: 0.3; stroke-width: 0.8; stroke-linecap: square"/>
     </g>
     <g id="line2d_18">
      <g>
       <use xlink:href="#m7e60b1d8f1" x="34.605" y="13.245455" style="stroke: #000000; stroke-width: 0.8"/>
      </g>
     </g>
     <g id="text_12">
      <!-- 30 -->
      <g transform="translate(18.7075 16.10858) scale(0.08 -0.08)">
       <defs>
        <path id="ArialMT-33" d="M 269 1209 
L 831 1284 
Q 928 806 1161 595 
Q 1394 384 1728 384 
Q 2125 384 2398 659 
Q 2672 934 2672 1341 
Q 2672 1728 2419 1979 
Q 2166 2231 1775 2231 
Q 1616 2231 1378 2169 
L 1441 2663 
Q 1497 2656 1531 2656 
Q 1891 2656 2178 2843 
Q 2466 3031 2466 3422 
Q 2466 3731 2256 3934 
Q 2047 4138 1716 4138 
Q 1388 4138 1169 3931 
Q 950 3725 888 3313 
L 325 3413 
Q 428 3978 793 4289 
Q 1159 4600 1703 4600 
Q 2078 4600 2393 4439 
Q 2709 4278 2876 4000 
Q 3044 3722 3044 3409 
Q 3044 3113 2884 2869 
Q 2725 2625 2413 2481 
Q 2819 2388 3044 2092 
Q 3269 1797 3269 1353 
Q 3269 753 2831 336 
Q 2394 -81 1725 -81 
Q 1122 -81 723 278 
Q 325 638 269 1209 
z
" transform="scale(0.015625)"/>
       </defs>
       <use xlink:href="#ArialMT-33"/>
       <use xlink:href="#ArialMT-30" transform="translate(55.615234 0)"/>
      </g>
     </g>
    </g>
    <g id="text_13">
     <!-- First-departure timestep (hours) -->
     <g transform="translate(13.02375 129.935625) rotate(-90) scale(0.08 -0.08)">
      <defs>
       <path id="ArialMT-46" d="M 525 0 
L 525 4581 
L 3616 4581 
L 3616 4041 
L 1131 4041 
L 1131 2622 
L 3281 2622 
L 3281 2081 
L 1131 2081 
L 1131 0 
L 525 0 
z
" transform="scale(0.015625)"/>
       <path id="ArialMT-2d" d="M 203 1375 
L 203 1941 
L 1931 1941 
L 1931 1375 
L 203 1375 
z
" transform="scale(0.015625)"/>
       <path id="ArialMT-70" d="M 422 -1272 
L 422 3319 
L 934 3319 
L 934 2888 
Q 1116 3141 1344 3267 
Q 1572 3394 1897 3394 
Q 2322 3394 2647 3175 
Q 2972 2956 3137 2557 
Q 3303 2159 3303 1684 
Q 3303 1175 3120 767 
Q 2938 359 2589 142 
Q 2241 -75 1856 -75 
Q 1575 -75 1351 44 
Q 1128 163 984 344 
L 984 -1272 
L 422 -1272 
z
M 931 1641 
Q 931 1000 1190 694 
Q 1450 388 1819 388 
Q 2194 388 2461 705 
Q 2728 1022 2728 1688 
Q 2728 2322 2467 2637 
Q 2206 2953 1844 2953 
Q 1484 2953 1207 2617 
Q 931 2281 931 1641 
z
" transform="scale(0.015625)"/>
       <path id="ArialMT-75" d="M 2597 0 
L 2597 488 
Q 2209 -75 1544 -75 
Q 1250 -75 995 37 
Q 741 150 617 320 
Q 494 491 444 738 
Q 409 903 409 1263 
L 409 3319 
L 972 3319 
L 972 1478 
Q 972 1038 1006 884 
Q 1059 663 1231 536 
Q 1403 409 1656 409 
Q 1909 409 2131 539 
Q 2353 669 2445 892 
Q 2538 1116 2538 1541 
L 2538 3319 
L 3100 3319 
L 3100 0 
L 2597 0 
z
" transform="scale(0.015625)"/>
       <path id="ArialMT-28" d="M 1497 -1347 
Q 1031 -759 709 28 
Q 388 816 388 1659 
Q 388 2403 628 3084 
Q 909 3875 1497 4659 
L 1900 4659 
Q 1522 4009 1400 3731 
Q 1209 3300 1100 2831 
Q 966 2247 966 1656 
Q 966 153 1900 -1347 
L 1497 -1347 
z
" transform="scale(0.015625)"/>
       <path id="ArialMT-29" d="M 791 -1347 
L 388 -1347 
Q 1322 153 1322 1656 
Q 1322 2244 1188 2822 
Q 1081 3291 891 3722 
Q 769 4003 388 4659 
L 791 4659 
Q 1378 3875 1659 3084 
Q 1900 2403 1900 1659 
Q 1900 816 1576 28 
Q 1253 -759 791 -1347 
z
" transform="scale(0.015625)"/>
      </defs>
      <use xlink:href="#ArialMT-46"/>
      <use xlink:href="#ArialMT-69" transform="translate(61.083984 0)"/>
      <use xlink:href="#ArialMT-72" transform="translate(83.300781 0)"/>
      <use xlink:href="#ArialMT-73" transform="translate(116.601562 0)"/>
      <use xlink:href="#ArialMT-74" transform="translate(166.601562 0)"/>
      <use xlink:href="#ArialMT-2d" transform="translate(194.384766 0)"/>
      <use xlink:href="#ArialMT-64" transform="translate(227.685547 0)"/>
      <use xlink:href="#ArialMT-65" transform="translate(283.300781 0)"/>
      <use xlink:href="#ArialMT-70" transform="translate(338.916016 0)"/>
      <use xlink:href="#ArialMT-61" transform="translate(394.53125 0)"/>
      <use xlink:href="#ArialMT-72" transform="translate(450.146484 0)"/>
      <use xlink:href="#ArialMT-74" transform="translate(483.447266 0)"/>
      <use xlink:href="#ArialMT-75" transform="translate(511.230469 0)"/>
      <use xlink:href="#ArialMT-72" transform="translate(566.845703 0)"/>
      <use xlink:href="#ArialMT-65" transform="translate(600.146484 0)"/>
      <use xlink:href="#ArialMT-20" transform="translate(655.761719 0)"/>
      <use xlink:href="#ArialMT-74" transform="translate(683.544922 0)"/>
      <use xlink:href="#ArialMT-69" transform="translate(711.328125 0)"/>
      <use xlink:href="#ArialMT-6d" transform="translate(733.544922 0)"/>
      <use xlink:href="#ArialMT-65" transform="translate(816.845703 0)"/>
      <use xlink:href="#ArialMT-73" transform="translate(872.460938 0)"/>
      <use xlink:href="#ArialMT-74" transform="translate(922.460938 0)"/>
      <use xlink:href="#ArialMT-65" transform="translate(950.244141 0)"/>
      <use xlink:href="#ArialMT-70" transform="translate(1005.859375 0)"/>
      <use xlink:href="#ArialMT-20" transform="translate(1061.474609 0)"/>
      <use xlink:href="#ArialMT-28" transform="translate(1089.257812 0)"/>
      <use xlink:href="#ArialMT-68" transform="translate(1122.558594 0)"/>
      <use xlink:href="#ArialMT-6f" transform="translate(1178.173828 0)"/>
      <use xlink:href="#ArialMT-75" transform="translate(1233.789062 0)"/>
      <use xlink:href="#ArialMT-72" transform="translate(1289.404297 0)"/>
      <use xlink:href="#ArialMT-73" transform="translate(1322.705078 0)"/>
      <use xlink:href="#ArialMT-29" transform="translate(1372.705078 0)"/>
     </g>
    </g>
   </g>
   <g id="LineCollection_1">
    <path d="M 52.941339 125.57403 
L 70.768335 125.57403 
" clip-path="url(#p14aa1686b4)" style="fill: none; stroke: #1f77b4; stroke-width: 1.5"/>
   </g>
   <g id="LineCollection_2">
    <path d="M 52.941339 37.427273 
L 70.768335 37.427273 
" clip-path="url(#p14aa1686b4)" style="fill: none; stroke: #1f77b4; stroke-width: 1.5"/>
   </g>
   <g id="LineCollection_3">
    <path d="M 52.941339 134.154545 
L 70.768335 134.154545 
" clip-path="url(#p14aa1686b4)" style="fill: none; stroke: #1f77b4; stroke-width: 1.5"/>
   </g>
   <g id="LineCollection_4">
    <path d="M 61.854837 134.154545 
L 61.854837 37.427273 
" clip-path="url(#p14aa1686b4)" style="fill: none; stroke: #1f77b4; stroke-width: 1.5"/>
   </g>
   <g id="LineCollection_5">
    <path d="M 52.941339 130.124242 
L 70.768335 130.124242 
" clip-path="url(#p14aa1686b4)" style="fill: none; stroke: #1f77b4; stroke-width: 1.5"/>
   </g>
   <g id="LineCollection_6">
    <path d="M 103.875614 125.57403 
L 121.702611 125.57403 
" clip-path="url(#p14aa1686b4)" style="fill: none; stroke: #ff7f0e; stroke-width: 1.5"/>
   </g>
   <g id="LineCollection_7">
    <path d="M 103.875614 37.427273 
L 121.702611 37.427273 
" clip-path="url(#p14aa1686b4)" style="fill: none; stroke: #ff7f0e; stroke-width: 1.5"/>
   </g>
   <g id="LineCollection_8">
    <path d="M 103.875614 134.154545 
L 121.702611 134.154545 
" clip-path="url(#p14aa1686b4)" style="fill: none; stroke: #ff7f0e; stroke-width: 1.5"/>
   </g>
   <g id="LineCollection_9">
    <path d="M 112.789112 134.154545 
L 112.789112 37.427273 
" clip-path="url(#p14aa1686b4)" style="fill: none; stroke: #ff7f0e; stroke-width: 1.5"/>
   </g>
   <g id="LineCollection_10">
    <path d="M 103.875614 130.124242 
L 121.702611 130.124242 
" clip-path="url(#p14aa1686b4)" style="fill: none; stroke: #ff7f0e; stroke-width: 1.5"/>
   </g>
   <g id="LineCollection_11">
    <path d="M 154.809889 127.723525 
L 172.636886 127.723525 
" clip-path="url(#p14aa1686b4)" style="fill: none; stroke: #2ca02c; stroke-width: 1.5"/>
   </g>
   <g id="LineCollection_12">
    <path d="M 154.809889 13.245455 
L 172.636886 13.245455 
" clip-path="url(#p14aa1686b4)" style="fill: none; stroke: #2ca02c; stroke-width: 1.5"/>
   </g>
   <g id="LineCollection_13">
    <path d="M 154.809889 134.154545 
L 172.636886 134.154545 
" clip-path="url(#p14aa1686b4)" style="fill: none; stroke: #2ca02c; stroke-width: 1.5"/>
   </g>
   <g id="LineCollection_14">
    <path d="M 163.723388 134.154545 
L 163.723388 13.245455 
" clip-path="url(#p14aa1686b4)" style="fill: none; stroke: #2ca02c; stroke-width: 1.5"/>
   </g>
   <g id="LineCollection_15">
    <path d="M 154.809889 130.124242 
L 172.636886 130.124242 
" clip-path="url(#p14aa1686b4)" style="fill: none; stroke: #2ca02c; stroke-width: 1.5"/>
   </g>
   <g id="LineCollection_16">
    <path d="M 205.744165 128.499359 
L 223.571161 128.499359 
" clip-path="url(#p14aa1686b4)" style="fill: none; stroke: #d62728; stroke-width: 1.5"/>
   </g>
   <g id="LineCollection_17">
    <path d="M 205.744165 65.639394 
L 223.571161 65.639394 
" clip-path="url(#p14aa1686b4)" style="fill: none; stroke: #d62728; stroke-width: 1.5"/>
   </g>
   <g id="LineCollection_18">
    <path d="M 205.744165 134.154545 
L 223.571161 134.154545 
" clip-path="url(#p14aa1686b4)" style="fill: none; stroke: #d62728; stroke-width: 1.5"/>
   </g>
   <g id="LineCollection_19">
    <path d="M 214.657663 134.154545 
L 214.657663 65.639394 
" clip-path="url(#p14aa1686b4)" style="fill: none; stroke: #d62728; stroke-width: 1.5"/>
   </g>
   <g id="LineCollection_20">
    <path d="M 205.744165 130.124242 
L 223.571161 130.124242 
" clip-path="url(#p14aa1686b4)" style="fill: none; stroke: #d62728; stroke-width: 1.5"/>
   </g>
   <g id="patch_3">
    <path d="M 34.605 140.2 
L 34.605 7.2 
" style="fill: none; stroke: #000000; stroke-width: 0.5; stroke-linejoin: miter; stroke-linecap: square"/>
   </g>
   <g id="patch_4">
    <path d="M 34.605 140.2 
L 241.9075 140.2 
" style="fill: none; stroke: #000000; stroke-width: 0.5; stroke-linejoin: miter; stroke-linecap: square"/>
   </g>
   <g id="text_14">
    <g id="patch_5">
     <path d="M 165.7127 23.658125 
L 237.76145 23.658125 
Q 239.56145 23.658125 239.56145 21.858125 
L 239.56145 9.930312 
Q 239.56145 8.130312 237.76145 8.130312 
L 165.7127 8.130312 
Q 163.9127 8.130312 163.9127 9.930312 
L 163.9127 21.858125 
Q 163.9127 23.658125 165.7127 23.658125 
z
" style="fill: #ffffff; opacity: 0.9; stroke: #808080; stroke-linejoin: miter"/>
    </g>
    <!-- α=2.0, β=2.0, κ=5.0 -->
    <g transform="translate(185.641138 14.227812) scale(0.06 -0.06)">
     <defs>
      <path id="ArialMT-3b1" d="M 2884 3319 
L 3459 3319 
Q 3241 2631 3056 1659 
Q 3275 453 3459 0 
L 2900 0 
Q 2766 313 2697 606 
Q 2438 -75 1613 -75 
Q 988 -75 606 394 
Q 225 863 225 1666 
Q 225 2491 608 2942 
Q 991 3394 1622 3394 
Q 2013 3394 2259 3236 
Q 2506 3078 2719 2756 
Q 2741 2866 2884 3319 
z
M 1716 2928 
Q 1313 2928 1078 2603 
Q 844 2278 844 1666 
Q 844 1069 1066 728 
Q 1288 388 1684 388 
Q 2072 388 2331 723 
Q 2591 1059 2591 1691 
Q 2591 2303 2348 2615 
Q 2106 2928 1716 2928 
z
" transform="scale(0.015625)"/>
      <path id="ArialMT-3d" d="M 3381 2694 
L 356 2694 
L 356 3219 
L 3381 3219 
L 3381 2694 
z
M 3381 1303 
L 356 1303 
L 356 1828 
L 3381 1828 
L 3381 1303 
z
" transform="scale(0.015625)"/>
      <path id="ArialMT-2e" d="M 581 0 
L 581 641 
L 1222 641 
L 1222 0 
L 581 0 
z
" transform="scale(0.015625)"/>
      <path id="ArialMT-2c" d="M 569 0 
L 569 641 
L 1209 641 
L 1209 0 
Q 1209 -353 1084 -570 
Q 959 -788 688 -906 
L 531 -666 
Q 709 -588 793 -436 
Q 878 -284 888 0 
L 569 0 
z
" transform="scale(0.015625)"/>
      <path id="ArialMT-3b2" d="M 997 422 
L 997 -1272 
L 438 -1272 
L 438 3144 
Q 438 3672 580 3970 
Q 722 4269 1069 4464 
Q 1416 4659 1841 4659 
Q 2469 4659 2792 4298 
Q 3116 3938 3116 3509 
Q 3116 3091 2855 2834 
Q 2594 2578 2256 2519 
Q 2800 2466 3095 2128 
Q 3391 1791 3391 1297 
Q 3391 766 3042 345 
Q 2694 -75 2034 -75 
Q 1359 -75 997 422 
z
M 1494 2700 
Q 2069 2700 2331 2900 
Q 2594 3100 2594 3478 
Q 2594 3784 2370 3990 
Q 2147 4197 1813 4197 
Q 1522 4197 1308 4044 
Q 1094 3891 1045 3703 
Q 997 3516 997 3047 
L 997 1788 
Q 997 1250 1072 997 
Q 1147 744 1394 541 
Q 1641 338 1963 338 
Q 2353 338 2579 605 
Q 2806 872 2806 1266 
Q 2806 1591 2639 1848 
Q 2472 2106 2226 2198 
Q 1981 2291 1575 2291 
L 1494 2291 
L 1494 2700 
z
" transform="scale(0.015625)"/>
      <path id="ArialMT-3ba" d="M 419 3319 
L 978 3319 
L 978 2016 
L 2325 3319 
L 3069 3319 
L 1584 1941 
L 3197 0 
L 2478 0 
L 1184 1563 
L 978 1372 
L 978 0 
L 419 0 
L 419 3319 
z
" transform="scale(0.015625)"/>
     </defs>
     <use xlink:href="#ArialMT-3b1"/>
     <use xlink:href="#ArialMT-3d" transform="translate(57.8125 0)"/>
     <use xlink:href="#ArialMT-32" transform="translate(116.210938 0)"/>
     <use xlink:href="#ArialMT-2e" transform="translate(171.826172 0)"/>
     <use xlink:href="#ArialMT-30" transform="translate(199.609375 0)"/>
     <use xlink:href="#ArialMT-2c" transform="translate(255.224609 0)"/>
     <use xlink:href="#ArialMT-20" transform="translate(283.007812 0)"/>
     <use xlink:href="#ArialMT-3b2" transform="translate(310.791016 0)"/>
     <use xlink:href="#ArialMT-3d" transform="translate(368.310547 0)"/>
     <use xlink:href="#ArialMT-32" transform="translate(426.708984 0)"/>
     <use xlink:href="#ArialMT-2e" transform="translate(482.324219 0)"/>
     <use xlink:href="#ArialMT-30" transform="translate(510.107422 0)"/>
     <use xlink:href="#ArialMT-2c" transform="translate(565.722656 0)"/>
     <use xlink:href="#ArialMT-20" transform="translate(593.505859 0)"/>
     <use xlink:href="#ArialMT-3ba" transform="translate(621.289062 0)"/>
     <use xlink:href="#ArialMT-3d" transform="translate(671.289062 0)"/>
     <use xlink:href="#ArialMT-35" transform="translate(729.6875 0)"/>
     <use xlink:href="#ArialMT-2e" transform="translate(785.302734 0)"/>
     <use xlink:href="#ArialMT-30" transform="translate(813.085938 0)"/>
    </g>
    <!-- N_agents=500, N_runs=10 -->
    <g transform="translate(165.7127 20.595312) scale(0.06 -0.06)">
     <defs>
      <path id="ArialMT-4e" d="M 488 0 
L 488 4581 
L 1109 4581 
L 3516 984 
L 3516 4581 
L 4097 4581 
L 4097 0 
L 3475 0 
L 1069 3600 
L 1069 0 
L 488 0 
z
" transform="scale(0.015625)"/>
      <path id="ArialMT-5f" d="M -97 -1272 
L -97 -866 
L 3631 -866 
L 3631 -1272 
L -97 -1272 
z
" transform="scale(0.015625)"/>
     </defs>
     <use xlink:href="#ArialMT-4e"/>
     <use xlink:href="#ArialMT-5f" transform="translate(72.216797 0)"/>
     <use xlink:href="#ArialMT-61" transform="translate(127.832031 0)"/>
     <use xlink:href="#ArialMT-67" transform="translate(183.447266 0)"/>
     <use xlink:href="#ArialMT-65" transform="translate(239.0625 0)"/>
     <use xlink:href="#ArialMT-6e" transform="translate(294.677734 0)"/>
     <use xlink:href="#ArialMT-74" transform="translate(350.292969 0)"/>
     <use xlink:href="#ArialMT-73" transform="translate(378.076172 0)"/>
     <use xlink:href="#ArialMT-3d" transform="translate(428.076172 0)"/>
     <use xlink:href="#ArialMT-35" transform="translate(486.474609 0)"/>
     <use xlink:href="#ArialMT-30" transform="translate(542.089844 0)"/>
     <use xlink:href="#ArialMT-30" transform="translate(597.705078 0)"/>
     <use xlink:href="#ArialMT-2c" transform="translate(653.320312 0)"/>
     <use xlink:href="#ArialMT-20" transform="translate(681.103516 0)"/>
     <use xlink:href="#ArialMT-4e" transform="translate(708.886719 0)"/>
     <use xlink:href="#ArialMT-5f" transform="translate(781.103516 0)"/>
     <use xlink:href="#ArialMT-72" transform="translate(836.71875 0)"/>
     <use xlink:href="#ArialMT-75" transform="translate(870.019531 0)"/>
     <use xlink:href="#ArialMT-6e" transform="translate(925.634766 0)"/>
     <use xlink:href="#ArialMT-73" transform="translate(981.25 0)"/>
     <use xlink:href="#ArialMT-3d" transform="translate(1031.25 0)"/>
     <use xlink:href="#ArialMT-31" transform="translate(1089.648438 0)"/>
     <use xlink:href="#ArialMT-30" transform="translate(1145.263672 0)"/>
    </g>
   </g>
  </g>
 </g>
 <defs>
  <clipPath id="p14aa1686b4">
   <rect x="34.605" y="7.2" width="207.3025" height="133"/>
  </clipPath>
 </defs>
</svg>
