<?xml version="1.0" encoding="utf-8" standalone="no"?>
<!DOCTYPE svg PUBLIC "-//W3C//DTD SVG 1.1//EN"
  "http://www.w3.org/Graphics/SVG/1.1/DTD/svg11.dtd">
<svg xmlns:xlink="http://www.w3.org/1999/xlink" width="249.07375pt" height="173.262809pt" viewBox="0 0 249.07375 173.262809" xmlns="http://www.w3.org/2000/svg" version="1.1">
 <metadata>
  <rdf:RDF xmlns:dc="http://purl.org/dc/elements/1.1/" xmlns:cc="http://creativecommons.org/ns#" xmlns:rdf="http://www.w3.org/1999/02/22-rdf-syntax-ns#">
   <cc:Work>
    <dc:type rdf:resource="http://purl.org/dc/dcmitype/StillImage"/>
    <dc:date>2026-03-22T18:15:41.059924</dc:date>
    <dc:format>image/svg+xml</dc:format>
    <dc:creator>
     <cc:Agent>
      <dc:title>Matplotlib v3.10.7, https://matplotlib.org/</dc:title>
     </cc:Agent>
    </dc:creator>
   </cc:Work>
  </rdf:RDF>
 </metadata>
 <defs>
  <style type="text/css">*{stroke-linejoin: round; stroke-linecap: butt}</style>
 </defs>
 <g id="figure_1">
  <g id="patch_1">
   <path d="M 0 173.262809 
L 249.07375 173.262809 
L 249.07375 0 
L 0 0 
z
" style="fill: #ffffff"/>
  </g>
  <g id="axes_1">
   <g id="patch_2">
    <path d="M 47.95125 140.239059 
L 241.87375 140.239059 
L 241.87375 7.555946 
L 47.95125 7.555946 
z
" style="fill: #ffffff"/>
   </g>
   <g id="FillBetweenPolyCollection_1">
    <defs>
     <path id="m75f7d7bc1a" d="M 47.95125 -147.50798 
L 47.95125 -145.357235 
L 50.644618 -156.590448 
L 53.337986 -157.812573 
L 56.031354 -158.92614 
L 58.724722 -158.877727 
L 61.41809 -158.648163 
L 64.111458 -158.34257 
L 66.804826 -158.136414 
L 69.498194 -157.940127 
L 72.191563 -157.410783 
L 74.884931 -156.284386 
L 77.578299 -155.136479 
L 80.271667 -154.594576 
L 82.965035 -152.946734 
L 85.658403 -152.755909 
L 88.351771 -152.231103 
L 91.045139 -151.408995 
L 93.738507 -150.647674 
L 96.431875 -150.19062 
L 99.125243 -149.689926 
L 101.818611 -148.833826 
L 104.511979 -146.90939 
L 107.205347 -146.186492 
L 109.898715 -145.052384 
L 112.592083 -144.512882 
L 115.285451 -143.712887 
L 117.978819 -143.257396 
L 120.672188 -142.402065 
L 123.365556 -142.066419 
L 126.058924 -140.76235 
L 128.752292 -139.78908 
L 131.44566 -139.692294 
L 134.139028 -138.879742 
L 136.832396 -138.80382 
L 139.525764 -137.471901 
L 142.219132 -137.119871 
L 144.9125 -136.304191 
L 147.605868 -135.541553 
L 150.299236 -135.234615 
L 152.992604 -134.048394 
L 155.685972 -133.291533 
L 158.37934 -133.26945 
L 161.072708 -132.504587 
L 163.766076 -131.700598 
L 166.459444 -130.929771 
L 169.152812 -130.305276 
L 171.846181 -129.847153 
L 174.539549 -129.335192 
L 177.232917 -128.679288 
L 179.926285 -127.984507 
L 182.619653 -127.451439 
L 185.313021 -126.969399 
L 188.006389 -126.47038 
L 190.699757 -126.26487 
L 193.393125 -125.21625 
L 196.086493 -124.946357 
L 198.779861 -124.494355 
L 201.473229 -124.152395 
L 204.166597 -123.644386 
L 206.859965 -123.318809 
L 209.553333 -122.895974 
L 212.246701 -122.61677 
L 214.940069 -121.677964 
L 217.633437 -121.682677 
L 220.326806 -121.134996 
L 223.020174 -121.301097 
L 225.713542 -120.975339 
L 228.40691 -120.592213 
L 231.100278 -120.843074 
L 233.793646 -120.222344 
L 236.487014 -119.612998 
L 239.180382 -119.253388 
L 241.87375 -118.907168 
L 241.87375 -120.899485 
L 241.87375 -120.899485 
L 239.180382 -121.043803 
L 236.487014 -121.512479 
L 233.793646 -121.807815 
L 231.100278 -121.930934 
L 228.40691 -122.045087 
L 225.713542 -122.365603 
L 223.020174 -122.819881 
L 220.326806 -123.17496 
L 217.633437 -123.917958 
L 214.940069 -124.095566 
L 212.246701 -124.238357 
L 209.553333 -124.747231 
L 206.859965 -125.176807 
L 204.166597 -125.655392 
L 201.473229 -126.317436 
L 198.779861 -127.173677 
L 196.086493 -128.237519 
L 193.393125 -128.313415 
L 190.699757 -128.909306 
L 188.006389 -129.037523 
L 185.313021 -129.760828 
L 182.619653 -130.175429 
L 179.926285 -130.977268 
L 177.232917 -131.287689 
L 174.539549 -131.717402 
L 171.846181 -132.435808 
L 169.152812 -132.781847 
L 166.459444 -133.713404 
L 163.766076 -134.140777 
L 161.072708 -134.539009 
L 158.37934 -135.113074 
L 155.685972 -135.838862 
L 152.992604 -136.445054 
L 150.299236 -137.33759 
L 147.605868 -137.758418 
L 144.9125 -138.608123 
L 142.219132 -138.882082 
L 139.525764 -139.868981 
L 136.832396 -140.941504 
L 134.139028 -141.195288 
L 131.44566 -142.071475 
L 128.752292 -142.682351 
L 126.058924 -143.076155 
L 123.365556 -143.814655 
L 120.672188 -144.665148 
L 117.978819 -145.265349 
L 115.285451 -146.675511 
L 112.592083 -147.552193 
L 109.898715 -147.808811 
L 107.205347 -149.055021 
L 104.511979 -149.896216 
L 101.818611 -151.208529 
L 99.125243 -151.739608 
L 96.431875 -153.233234 
L 93.738507 -154.022629 
L 91.045139 -154.202177 
L 88.351771 -154.670748 
L 85.658403 -154.592251 
L 82.965035 -155.382504 
L 80.271667 -156.287874 
L 77.578299 -157.623688 
L 74.884931 -158.498245 
L 72.191563 -159.442564 
L 69.498194 -160.047087 
L 66.804826 -160.44588 
L 64.111458 -161.092135 
L 61.41809 -161.301206 
L 58.724722 -161.590325 
L 56.031354 -160.68548 
L 53.337986 -160.399806 
L 50.644618 -159.201406 
L 47.95125 -147.50798 
z
" style="stroke: #888780; stroke-opacity: 0.25"/>
    </defs>
    <g clip-path="url(#p002220c612)">
     <use xlink:href="#m75f7d7bc1a" x="0" y="173.262809" style="fill: #888780; fill-opacity: 0.25; stroke: #888780; stroke-opacity: 0.25"/>
    </g>
   </g>
   <g id="FillBetweenPolyCollection_2">
    <defs>
     <path id="m118f3fce68" d="M 47.95125 -147.50798 
L 47.95125 -145.357235 
L 50.644618 -156.590448 
L 53.337986 -157.812573 
L 56.031354 -158.92614 
L 58.724722 -158.877727 
L 61.41809 -158.648163 
L 64.111458 -158.34257 
L 66.804826 -158.136414 
L 69.498194 -157.940127 
L 72.191563 -157.410783 
L 74.884931 -156.284386 
L 77.578299 -155.136479 
L 80.271667 -154.594576 
L 82.965035 -152.946734 
L 85.658403 -152.755909 
L 88.351771 -152.231103 
L 91.045139 -151.408995 
L 93.738507 -150.647674 
L 96.431875 -150.19062 
L 99.125243 -149.689926 
L 101.818611 -148.833826 
L 104.511979 -146.90939 
L 107.205347 -146.186492 
L 109.898715 -145.052384 
L 112.592083 -144.512882 
L 115.285451 -143.712887 
L 117.978819 -143.257396 
L 120.672188 -142.402065 
L 123.365556 -142.066419 
L 126.058924 -140.76235 
L 128.752292 -139.78908 
L 131.44566 -139.692294 
L 134.139028 -138.879742 
L 136.832396 -138.80382 
L 139.525764 -137.471901 
L 142.219132 -137.119871 
L 144.9125 -136.304191 
L 147.605868 -135.541553 
L 150.299236 -135.234615 
L 152.992604 -134.048394 
L 155.685972 -133.291533 
L 158.37934 -133.26945 
L 161.072708 -132.504587 
L 163.766076 -131.700598 
L 166.459444 -130.929771 
L 169.152812 -130.305276 
L 171.846181 -129.847153 
L 174.539549 -129.335192 
L 177.232917 -128.679288 
L 179.926285 -127.984507 
L 182.619653 -127.451439 
L 185.313021 -126.969399 
L 188.006389 -126.47038 
L 190.699757 -126.26487 
L 193.393125 -125.21625 
L 196.086493 -124.946357 
L 198.779861 -124.494355 
L 201.473229 -124.152395 
L 204.166597 -123.644386 
L 206.859965 -123.318809 
L 209.553333 -122.895974 
L 212.246701 -122.61677 
L 214.940069 -121.677964 
L 217.633437 -121.682677 
L 220.326806 -121.134996 
L 223.020174 -121.301097 
L 225.713542 -120.975339 
L 228.40691 -120.592213 
L 231.100278 -120.843074 
L 233.793646 -120.222344 
L 236.487014 -119.612998 
L 239.180382 -119.253388 
L 241.87375 -118.907168 
L 241.87375 -120.899485 
L 241.87375 -120.899485 
L 239.180382 -121.043803 
L 236.487014 -121.512479 
L 233.793646 -121.807815 
L 231.100278 -121.930934 
L 228.40691 -122.045087 
L 225.713542 -122.365603 
L 223.020174 -122.819881 
L 220.326806 -123.17496 
L 217.633437 -123.917958 
L 214.940069 -124.095566 
L 212.246701 -124.238357 
L 209.553333 -124.747231 
L 206.859965 -125.176807 
L 204.166597 -125.655392 
L 201.473229 -126.317436 
L 198.779861 -127.173677 
L 196.086493 -128.237519 
L 193.393125 -128.313415 
L 190.699757 -128.909306 
L 188.006389 -129.037523 
L 185.313021 -129.760828 
L 182.619653 -130.175429 
L 179.926285 -130.977268 
L 177.232917 -131.287689 
L 174.539549 -131.717402 
L 171.846181 -132.435808 
L 169.152812 -132.781847 
L 166.459444 -133.713404 
L 163.766076 -134.140777 
L 161.072708 -134.539009 
L 158.37934 -135.113074 
L 155.685972 -135.838862 
L 152.992604 -136.445054 
L 150.299236 -137.33759 
L 147.605868 -137.758418 
L 144.9125 -138.608123 
L 142.219132 -138.882082 
L 139.525764 -139.868981 
L 136.832396 -140.941504 
L 134.139028 -141.195288 
L 131.44566 -142.071475 
L 128.752292 -142.682351 
L 126.058924 -143.076155 
L 123.365556 -143.814655 
L 120.672188 -144.665148 
L 117.978819 -145.265349 
L 115.285451 -146.675511 
L 112.592083 -147.552193 
L 109.898715 -147.808811 
L 107.205347 -149.055021 
L 104.511979 -149.896216 
L 101.818611 -151.208529 
L 99.125243 -151.739608 
L 96.431875 -153.233234 
L 93.738507 -154.022629 
L 91.045139 -154.202177 
L 88.351771 -154.670748 
L 85.658403 -154.592251 
L 82.965035 -155.382504 
L 80.271667 -156.287874 
L 77.578299 -157.623688 
L 74.884931 -158.498245 
L 72.191563 -159.442564 
L 69.498194 -160.047087 
L 66.804826 -160.44588 
L 64.111458 -161.092135 
L 61.41809 -161.301206 
L 58.724722 -161.590325 
L 56.031354 -160.68548 
L 53.337986 -160.399806 
L 50.644618 -159.201406 
L 47.95125 -147.50798 
z
" style="stroke: #378add; stroke-opacity: 0.25"/>
    </defs>
    <g clip-path="url(#p002220c612)">
     <use xlink:href="#m118f3fce68" x="0" y="173.262809" style="fill: #378add; fill-opacity: 0.25; stroke: #378add; stroke-opacity: 0.25"/>
    </g>
   </g>
   <g id="FillBetweenPolyCollection_3">
    <defs>
     <path id="mf093da97dc" d="M 47.95125 -149.15091 
L 47.95125 -146.23133 
L 50.644618 -158.581076 
L 53.337986 -160.218342 
L 56.031354 -159.163378 
L 58.724722 -158.189751 
L 61.41809 -157.338791 
L 64.111458 -155.741594 
L 66.804826 -153.92381 
L 69.498194 -152.675209 
L 72.191563 -151.286991 
L 74.884931 -150.279121 
L 77.578299 -148.642834 
L 80.271667 -146.587785 
L 82.965035 -145.554485 
L 85.658403 -144.315518 
L 88.351771 -142.860039 
L 91.045139 -142.200829 
L 93.738507 -140.207898 
L 96.431875 -139.345276 
L 99.125243 -138.411835 
L 101.818611 -136.746495 
L 104.511979 -135.836186 
L 107.205347 -134.018781 
L 109.898715 -133.009797 
L 112.592083 -132.348713 
L 115.285451 -131.311651 
L 117.978819 -130.395064 
L 120.672188 -130.22075 
L 123.365556 -129.496726 
L 126.058924 -128.743062 
L 128.752292 -127.958263 
L 131.44566 -127.027113 
L 134.139028 -125.654556 
L 136.832396 -125.525229 
L 139.525764 -124.741358 
L 142.219132 -124.715268 
L 144.9125 -124.204501 
L 147.605868 -124.340953 
L 150.299236 -123.700846 
L 152.992604 -123.535505 
L 155.685972 -122.724885 
L 158.37934 -122.413435 
L 161.072708 -121.71707 
L 163.766076 -121.30961 
L 166.459444 -120.626628 
L 169.152812 -120.309366 
L 171.846181 -120.374694 
L 174.539549 -120.043134 
L 177.232917 -119.890567 
L 179.926285 -119.347543 
L 182.619653 -118.784928 
L 185.313021 -118.249488 
L 188.006389 -117.657271 
L 190.699757 -117.786246 
L 193.393125 -117.716245 
L 196.086493 -117.438881 
L 198.779861 -117.299147 
L 201.473229 -117.157642 
L 204.166597 -116.645204 
L 206.859965 -116.739458 
L 209.553333 -116.3547 
L 212.246701 -115.985287 
L 214.940069 -115.603555 
L 217.633437 -115.235279 
L 220.326806 -115.157854 
L 223.020174 -114.591796 
L 225.713542 -114.268704 
L 228.40691 -114.127741 
L 231.100278 -114.184637 
L 233.793646 -113.933269 
L 236.487014 -113.882091 
L 239.180382 -113.683826 
L 241.87375 -113.620217 
L 241.87375 -115.13726 
L 241.87375 -115.13726 
L 239.180382 -115.258608 
L 236.487014 -115.305612 
L 233.793646 -115.885701 
L 231.100278 -116.076622 
L 228.40691 -116.201871 
L 225.713542 -116.181532 
L 223.020174 -116.276604 
L 220.326806 -116.643373 
L 217.633437 -116.787093 
L 214.940069 -117.347622 
L 212.246701 -117.589116 
L 209.553333 -117.90324 
L 206.859965 -118.15377 
L 204.166597 -118.272148 
L 201.473229 -118.033125 
L 198.779861 -118.619386 
L 196.086493 -119.311959 
L 193.393125 -119.593487 
L 190.699757 -119.358633 
L 188.006389 -119.616274 
L 185.313021 -120.08555 
L 182.619653 -120.257772 
L 179.926285 -120.652109 
L 177.232917 -120.98562 
L 174.539549 -121.307508 
L 171.846181 -121.422258 
L 169.152812 -121.765022 
L 166.459444 -122.280067 
L 163.766076 -122.578162 
L 161.072708 -123.594067 
L 158.37934 -123.890841 
L 155.685972 -124.138283 
L 152.992604 -124.75907 
L 150.299236 -125.442119 
L 147.605868 -126.140941 
L 144.9125 -126.916702 
L 142.219132 -127.161846 
L 139.525764 -127.670524 
L 136.832396 -128.466829 
L 134.139028 -128.968769 
L 131.44566 -129.606615 
L 128.752292 -130.500911 
L 126.058924 -130.669044 
L 123.365556 -131.41514 
L 120.672188 -132.637187 
L 117.978819 -133.443949 
L 115.285451 -134.622203 
L 112.592083 -135.269859 
L 109.898715 -136.916718 
L 107.205347 -137.552244 
L 104.511979 -138.280009 
L 101.818611 -139.118751 
L 99.125243 -140.412725 
L 96.431875 -141.574124 
L 93.738507 -142.665614 
L 91.045139 -144.564823 
L 88.351771 -145.791371 
L 85.658403 -147.206749 
L 82.965035 -149.023594 
L 80.271667 -149.819761 
L 77.578299 -151.604583 
L 74.884931 -153.028129 
L 72.191563 -155.047926 
L 69.498194 -156.992957 
L 66.804826 -158.719753 
L 64.111458 -160.729777 
L 61.41809 -161.58125 
L 58.724722 -162.077261 
L 56.031354 -162.619478 
L 53.337986 -163.072317 
L 50.644618 -161.384376 
L 47.95125 -149.15091 
z
" style="stroke: #ba7517; stroke-opacity: 0.25"/>
    </defs>
    <g clip-path="url(#p002220c612)">
     <use xlink:href="#mf093da97dc" x="0" y="173.262809" style="fill: #ba7517; fill-opacity: 0.25; stroke: #ba7517; stroke-opacity: 0.25"/>
    </g>
   </g>
   <g id="FillBetweenPolyCollection_4">
    <defs>
     <path id="m4481c7d5b3" d="M 47.95125 -148.936412 
L 47.95125 -145.85879 
L 50.644618 -157.572362 
L 53.337986 -160.118561 
L 56.031354 -160.032996 
L 58.724722 -159.578466 
L 61.41809 -159.254078 
L 64.111458 -157.578256 
L 66.804826 -155.529039 
L 69.498194 -154.757168 
L 72.191563 -153.813132 
L 74.884931 -151.753502 
L 77.578299 -150.089501 
L 80.271667 -148.377374 
L 82.965035 -146.619801 
L 85.658403 -145.284194 
L 88.351771 -143.00119 
L 91.045139 -142.458869 
L 93.738507 -141.814058 
L 96.431875 -140.015473 
L 99.125243 -139.07431 
L 101.818611 -138.509278 
L 104.511979 -137.63805 
L 107.205347 -136.142111 
L 109.898715 -134.557561 
L 112.592083 -133.490329 
L 115.285451 -132.690831 
L 117.978819 -131.936011 
L 120.672188 -131.220958 
L 123.365556 -130.291197 
L 126.058924 -129.628317 
L 128.752292 -128.823386 
L 131.44566 -127.992004 
L 134.139028 -127.143688 
L 136.832396 -126.633449 
L 139.525764 -125.745514 
L 142.219132 -124.744521 
L 144.9125 -124.019414 
L 147.605868 -123.267406 
L 150.299236 -122.313351 
L 152.992604 -122.343284 
L 155.685972 -120.950082 
L 158.37934 -120.442098 
L 161.072708 -120.020678 
L 163.766076 -119.79647 
L 166.459444 -118.95666 
L 169.152812 -118.27402 
L 171.846181 -117.404494 
L 174.539549 -116.747976 
L 177.232917 -115.995503 
L 179.926285 -115.556199 
L 182.619653 -115.05167 
L 185.313021 -114.453019 
L 188.006389 -114.060738 
L 190.699757 -114.106522 
L 193.393125 -113.908943 
L 196.086493 -113.886637 
L 198.779861 -113.287062 
L 201.473229 -113.340619 
L 204.166597 -112.826539 
L 206.859965 -113.002316 
L 209.553333 -112.779144 
L 212.246701 -112.475954 
L 214.940069 -112.576882 
L 217.633437 -111.964796 
L 220.326806 -111.728692 
L 223.020174 -111.660175 
L 225.713542 -111.524355 
L 228.40691 -111.164302 
L 231.100278 -110.889285 
L 233.793646 -110.960949 
L 236.487014 -110.976011 
L 239.180382 -110.876471 
L 241.87375 -110.558431 
L 241.87375 -111.496361 
L 241.87375 -111.496361 
L 239.180382 -111.857838 
L 236.487014 -111.790464 
L 233.793646 -112.002546 
L 231.100278 -112.218958 
L 228.40691 -112.454584 
L 225.713542 -112.629298 
L 223.020174 -112.831226 
L 220.326806 -112.955708 
L 217.633437 -113.310662 
L 214.940069 -113.66759 
L 212.246701 -113.889143 
L 209.553333 -114.426302 
L 206.859965 -114.480565 
L 204.166597 -114.604072 
L 201.473229 -115.107256 
L 198.779861 -115.434228 
L 196.086493 -116.081103 
L 193.393125 -116.384482 
L 190.699757 -116.496505 
L 188.006389 -116.767455 
L 185.313021 -117.464812 
L 182.619653 -117.823112 
L 179.926285 -117.953871 
L 177.232917 -118.025209 
L 174.539549 -118.73631 
L 171.846181 -119.277992 
L 169.152812 -119.7675 
L 166.459444 -120.58462 
L 163.766076 -120.826406 
L 161.072708 -121.462651 
L 158.37934 -122.03035 
L 155.685972 -122.483339 
L 152.992604 -123.703661 
L 150.299236 -124.055258 
L 147.605868 -124.986961 
L 144.9125 -126.020191 
L 142.219132 -127.204968 
L 139.525764 -128.415419 
L 136.832396 -128.765891 
L 134.139028 -129.293021 
L 131.44566 -129.385573 
L 128.752292 -130.319326 
L 126.058924 -130.732699 
L 123.365556 -132.015889 
L 120.672188 -132.754763 
L 117.978819 -133.716386 
L 115.285451 -134.686493 
L 112.592083 -136.00998 
L 109.898715 -136.94913 
L 107.205347 -137.929855 
L 104.511979 -139.915934 
L 101.818611 -141.228004 
L 99.125243 -142.013963 
L 96.431875 -142.230793 
L 93.738507 -144.050934 
L 91.045139 -144.600302 
L 88.351771 -146.373966 
L 85.658403 -148.433432 
L 82.965035 -149.634954 
L 80.271667 -150.257699 
L 77.578299 -152.389463 
L 74.884931 -154.380375 
L 72.191563 -156.73157 
L 69.498194 -158.179913 
L 66.804826 -158.79522 
L 64.111458 -159.96667 
L 61.41809 -161.587909 
L 58.724722 -162.015412 
L 56.031354 -163.080747 
L 53.337986 -162.577018 
L 50.644618 -160.656101 
L 47.95125 -148.936412 
z
" style="stroke: #1d9e75; stroke-opacity: 0.25"/>
    </defs>
    <g clip-path="url(#p002220c612)">
     <use xlink:href="#m4481c7d5b3" x="0" y="173.262809" style="fill: #1d9e75; fill-opacity: 0.25; stroke: #1d9e75; stroke-opacity: 0.25"/>
    </g>
   </g>
   <g id="matplotlib.axis_1">
    <g id="xtick_1">
     <g id="line2d_1">
      <path d="M 47.95125 140.239059 
L 47.95125 7.555946 
" clip-path="url(#p002220c612)" style="fill: none; stroke: #b0b0b0; stroke-opacity: 0.3; stroke-width: 0.8; stroke-linecap: square"/>
     </g>
     <g id="line2d_2">
      <defs>
       <path id="m348050161b" d="M 0 0 
L 0 3.5 
" style="stroke: #000000; stroke-width: 0.8"/>
      </defs>
      <g>
       <use xlink:href="#m348050161b" x="47.95125" y="140.239059" style="stroke: #000000; stroke-width: 0.8"/>
      </g>
     </g>
     <g id="text_1">
      <!-- 0 -->
      <g transform="translate(45.726875 152.965309) scale(0.08 -0.08)">
       <defs>
        <path id="ArialMT-30" d="M 266 2259 
Q 266 3072 433 3567 
Q 600 4063 929 4331 
Q 1259 4600 1759 4600 
Q 2128 4600 2406 4451 
Q 2684 4303 2865 4023 
Q 3047 3744 3150 3342 
Q 3253 2941 3253 2259 
Q 3253 1453 3087 958 
Q 2922 463 2592 192 
Q 2263 -78 1759 -78 
Q 1097 -78 719 397 
Q 266 969 266 2259 
z
M 844 2259 
Q 844 1131 1108 757 
Q 1372 384 1759 384 
Q 2147 384 2411 759 
Q 2675 1134 2675 2259 
Q 2675 3391 2411 3762 
Q 2147 4134 1753 4134 
Q 1366 4134 1134 3806 
Q 844 3388 844 2259 
z
" transform="scale(0.015625)"/>
       </defs>
       <use xlink:href="#ArialMT-30"/>
      </g>
     </g>
    </g>
    <g id="xtick_2">
     <g id="line2d_3">
      <path d="M 74.884931 140.239059 
L 74.884931 7.555946 
" clip-path="url(#p002220c612)" style="fill: none; stroke: #b0b0b0; stroke-opacity: 0.3; stroke-width: 0.8; stroke-linecap: square"/>
     </g>
     <g id="line2d_4">
      <g>
       <use xlink:href="#m348050161b" x="74.884931" y="140.239059" style="stroke: #000000; stroke-width: 0.8"/>
      </g>
     </g>
     <g id="text_2">
      <!-- 10 -->
      <g transform="translate(70.436181 152.965309) scale(0.08 -0.08)">
       <defs>
        <path id="ArialMT-31" d="M 2384 0 
L 1822 0 
L 1822 3584 
Q 1619 3391 1289 3197 
Q 959 3003 697 2906 
L 697 3450 
Q 1169 3672 1522 3987 
Q 1875 4303 2022 4600 
L 2384 4600 
L 2384 0 
z
" transform="scale(0.015625)"/>
       </defs>
       <use xlink:href="#ArialMT-31"/>
       <use xlink:href="#ArialMT-30" transform="translate(55.615234 0)"/>
      </g>
     </g>
    </g>
    <g id="xtick_3">
     <g id="line2d_5">
      <path d="M 101.818611 140.239059 
L 101.818611 7.555946 
" clip-path="url(#p002220c612)" style="fill: none; stroke: #b0b0b0; stroke-opacity: 0.3; stroke-width: 0.8; stroke-linecap: square"/>
     </g>
     <g id="line2d_6">
      <g>
       <use xlink:href="#m348050161b" x="101.818611" y="140.239059" style="stroke: #000000; stroke-width: 0.8"/>
      </g>
     </g>
     <g id="text_3">
      <!-- 20 -->
      <g transform="translate(97.369861 152.965309) scale(0.08 -0.08)">
       <defs>
        <path id="ArialMT-32" d="M 3222 541 
L 3222 0 
L 194 0 
Q 188 203 259 391 
Q 375 700 629 1000 
Q 884 1300 1366 1694 
Q 2113 2306 2375 2664 
Q 2638 3022 2638 3341 
Q 2638 3675 2398 3904 
Q 2159 4134 1775 4134 
Q 1369 4134 1125 3890 
Q 881 3647 878 3216 
L 300 3275 
Q 359 3922 746 4261 
Q 1134 4600 1788 4600 
Q 2447 4600 2831 4234 
Q 3216 3869 3216 3328 
Q 3216 3053 3103 2787 
Q 2991 2522 2730 2228 
Q 2469 1934 1863 1422 
Q 1356 997 1212 845 
Q 1069 694 975 541 
L 3222 541 
z
" transform="scale(0.015625)"/>
       </defs>
       <use xlink:href="#ArialMT-32"/>
       <use xlink:href="#ArialMT-30" transform="translate(55.615234 0)"/>
      </g>
     </g>
    </g>
    <g id="xtick_4">
     <g id="line2d_7">
      <path d="M 128.752292 140.239059 
L 128.752292 7.555946 
" clip-path="url(#p002220c612)" style="fill: none; stroke: #b0b0b0; stroke-opacity: 0.3; stroke-width: 0.8; stroke-linecap: square"/>
     </g>
     <g id="line2d_8">
      <g>
       <use xlink:href="#m348050161b" x="128.752292" y="140.239059" style="stroke: #000000; stroke-width: 0.8"/>
      </g>
     </g>
     <g id="text_4">
      <!-- 30 -->
      <g transform="translate(124.303542 152.965309) scale(0.08 -0.08)">
       <defs>
        <path id="ArialMT-33" d="M 269 1209 
L 831 1284 
Q 928 806 1161 595 
Q 1394 384 1728 384 
Q 2125 384 2398 659 
Q 2672 934 2672 1341 
Q 2672 1728 2419 1979 
Q 2166 2231 1775 2231 
Q 1616 2231 1378 2169 
L 1441 2663 
Q 1497 2656 1531 2656 
Q 1891 2656 2178 2843 
Q 2466 3031 2466 3422 
Q 2466 3731 2256 3934 
Q 2047 4138 1716 4138 
Q 1388 4138 1169 3931 
Q 950 3725 888 3313 
L 325 3413 
Q 428 3978 793 4289 
Q 1159 4600 1703 4600 
Q 2078 4600 2393 4439 
Q 2709 4278 2876 4000 
Q 3044 3722 3044 3409 
Q 3044 3113 2884 2869 
Q 2725 2625 2413 2481 
Q 2819 2388 3044 2092 
Q 3269 1797 3269 1353 
Q 3269 753 2831 336 
Q 2394 -81 1725 -81 
Q 1122 -81 723 278 
Q 325 638 269 1209 
z
" transform="scale(0.015625)"/>
       </defs>
       <use xlink:href="#ArialMT-33"/>
       <use xlink:href="#ArialMT-30" transform="translate(55.615234 0)"/>
      </g>
     </g>
    </g>
    <g id="xtick_5">
     <g id="line2d_9">
      <path d="M 155.685972 140.239059 
L 155.685972 7.555946 
" clip-path="url(#p002220c612)" style="fill: none; stroke: #b0b0b0; stroke-opacity: 0.3; stroke-width: 0.8; stroke-linecap: square"/>
     </g>
     <g id="line2d_10">
      <g>
       <use xlink:href="#m348050161b" x="155.685972" y="140.239059" style="stroke: #000000; stroke-width: 0.8"/>
      </g>
     </g>
     <g id="text_5">
      <!-- 40 -->
      <g transform="translate(151.237222 152.965309) scale(0.08 -0.08)">
       <defs>
        <path id="ArialMT-34" d="M 2069 0 
L 2069 1097 
L 81 1097 
L 81 1613 
L 2172 4581 
L 2631 4581 
L 2631 1613 
L 3250 1613 
L 3250 1097 
L 2631 1097 
L 2631 0 
L 2069 0 
z
M 2069 1613 
L 2069 3678 
L 634 1613 
L 2069 1613 
z
" transform="scale(0.015625)"/>
       </defs>
       <use xlink:href="#ArialMT-34"/>
       <use xlink:href="#ArialMT-30" transform="translate(55.615234 0)"/>
      </g>
     </g>
    </g>
    <g id="xtick_6">
     <g id="line2d_11">
      <path d="M 182.619653 140.239059 
L 182.619653 7.555946 
" clip-path="url(#p002220c612)" style="fill: none; stroke: #b0b0b0; stroke-opacity: 0.3; stroke-width: 0.8; stroke-linecap: square"/>
     </g>
     <g id="line2d_12">
      <g>
       <use xlink:href="#m348050161b" x="182.619653" y="140.239059" style="stroke: #000000; stroke-width: 0.8"/>
      </g>
     </g>
     <g id="text_6">
      <!-- 50 -->
      <g transform="translate(178.170903 152.965309) scale(0.08 -0.08)">
       <defs>
        <path id="ArialMT-35" d="M 266 1200 
L 856 1250 
Q 922 819 1161 601 
Q 1400 384 1738 384 
Q 2144 384 2425 690 
Q 2706 997 2706 1503 
Q 2706 1984 2436 2262 
Q 2166 2541 1728 2541 
Q 1456 2541 1237 2417 
Q 1019 2294 894 2097 
L 366 2166 
L 809 4519 
L 3088 4519 
L 3088 3981 
L 1259 3981 
L 1013 2750 
Q 1425 3038 1878 3038 
Q 2478 3038 2890 2622 
Q 3303 2206 3303 1553 
Q 3303 931 2941 478 
Q 2500 -78 1738 -78 
Q 1113 -78 717 272 
Q 322 622 266 1200 
z
" transform="scale(0.015625)"/>
       </defs>
       <use xlink:href="#ArialMT-35"/>
       <use xlink:href="#ArialMT-30" transform="translate(55.615234 0)"/>
      </g>
     </g>
    </g>
    <g id="xtick_7">
     <g id="line2d_13">
      <path d="M 209.553333 140.239059 
L 209.553333 7.555946 
" clip-path="url(#p002220c612)" style="fill: none; stroke: #b0b0b0; stroke-opacity: 0.3; stroke-width: 0.8; stroke-linecap: square"/>
     </g>
     <g id="line2d_14">
      <g>
       <use xlink:href="#m348050161b" x="209.553333" y="140.239059" style="stroke: #000000; stroke-width: 0.8"/>
      </g>
     </g>
     <g id="text_7">
      <!-- 60 -->
      <g transform="translate(205.104583 152.965309) scale(0.08 -0.08)">
       <defs>
        <path id="ArialMT-36" d="M 3184 3459 
L 2625 3416 
Q 2550 3747 2413 3897 
Q 2184 4138 1850 4138 
Q 1581 4138 1378 3988 
Q 1113 3794 959 3422 
Q 806 3050 800 2363 
Q 1003 2672 1297 2822 
Q 1591 2972 1913 2972 
Q 2475 2972 2870 2558 
Q 3266 2144 3266 1488 
Q 3266 1056 3080 686 
Q 2894 316 2569 119 
Q 2244 -78 1831 -78 
Q 1128 -78 684 439 
Q 241 956 241 2144 
Q 241 3472 731 4075 
Q 1159 4600 1884 4600 
Q 2425 4600 2770 4297 
Q 3116 3994 3184 3459 
z
M 888 1484 
Q 888 1194 1011 928 
Q 1134 663 1356 523 
Q 1578 384 1822 384 
Q 2178 384 2434 671 
Q 2691 959 2691 1453 
Q 2691 1928 2437 2201 
Q 2184 2475 1800 2475 
Q 1419 2475 1153 2201 
Q 888 1928 888 1484 
z
" transform="scale(0.015625)"/>
       </defs>
       <use xlink:href="#ArialMT-36"/>
       <use xlink:href="#ArialMT-30" transform="translate(55.615234 0)"/>
      </g>
     </g>
    </g>
    <g id="xtick_8">
     <g id="line2d_15">
      <path d="M 236.487014 140.239059 
L 236.487014 7.555946 
" clip-path="url(#p002220c612)" style="fill: none; stroke: #b0b0b0; stroke-opacity: 0.3; stroke-width: 0.8; stroke-linecap: square"/>
     </g>
     <g id="line2d_16">
      <g>
       <use xlink:href="#m348050161b" x="236.487014" y="140.239059" style="stroke: #000000; stroke-width: 0.8"/>
      </g>
     </g>
     <g id="text_8">
      <!-- 70 -->
      <g transform="translate(232.038264 152.965309) scale(0.08 -0.08)">
       <defs>
        <path id="ArialMT-37" d="M 303 3981 
L 303 4522 
L 3269 4522 
L 3269 4084 
Q 2831 3619 2401 2847 
Q 1972 2075 1738 1259 
Q 1569 684 1522 0 
L 944 0 
Q 953 541 1156 1306 
Q 1359 2072 1739 2783 
Q 2119 3494 2547 3981 
L 303 3981 
z
" transform="scale(0.015625)"/>
       </defs>
       <use xlink:href="#ArialMT-37"/>
       <use xlink:href="#ArialMT-30" transform="translate(55.615234 0)"/>
      </g>
     </g>
    </g>
    <g id="text_9">
     <!-- Time (hours) -->
     <g transform="translate(122.394375 164.379059) scale(0.08 -0.08)">
      <defs>
       <path id="ArialMT-54" d="M 1659 0 
L 1659 4041 
L 150 4041 
L 150 4581 
L 3781 4581 
L 3781 4041 
L 2266 4041 
L 2266 0 
L 1659 0 
z
" transform="scale(0.015625)"/>
       <path id="ArialMT-69" d="M 425 3934 
L 425 4581 
L 988 4581 
L 988 3934 
L 425 3934 
z
M 425 0 
L 425 3319 
L 988 3319 
L 988 0 
L 425 0 
z
" transform="scale(0.015625)"/>
       <path id="ArialMT-6d" d="M 422 0 
L 422 3319 
L 925 3319 
L 925 2853 
Q 1081 3097 1340 3245 
Q 1600 3394 1931 3394 
Q 2300 3394 2536 3241 
Q 2772 3088 2869 2813 
Q 3263 3394 3894 3394 
Q 4388 3394 4653 3120 
Q 4919 2847 4919 2278 
L 4919 0 
L 4359 0 
L 4359 2091 
Q 4359 2428 4304 2576 
Q 4250 2725 4106 2815 
Q 3963 2906 3769 2906 
Q 3419 2906 3187 2673 
Q 2956 2441 2956 1928 
L 2956 0 
L 2394 0 
L 2394 2156 
Q 2394 2531 2256 2718 
Q 2119 2906 1806 2906 
Q 1569 2906 1367 2781 
Q 1166 2656 1075 2415 
Q 984 2175 984 1722 
L 984 0 
L 422 0 
z
" transform="scale(0.015625)"/>
       <path id="ArialMT-65" d="M 2694 1069 
L 3275 997 
Q 3138 488 2766 206 
Q 2394 -75 1816 -75 
Q 1088 -75 661 373 
Q 234 822 234 1631 
Q 234 2469 665 2931 
Q 1097 3394 1784 3394 
Q 2450 3394 2872 2941 
Q 3294 2488 3294 1666 
Q 3294 1616 3291 1516 
L 816 1516 
Q 847 969 1125 678 
Q 1403 388 1819 388 
Q 2128 388 2347 550 
Q 2566 713 2694 1069 
z
M 847 1978 
L 2700 1978 
Q 2663 2397 2488 2606 
Q 2219 2931 1791 2931 
Q 1403 2931 1139 2672 
Q 875 2413 847 1978 
z
" transform="scale(0.015625)"/>
       <path id="ArialMT-20" transform="scale(0.015625)"/>
       <path id="ArialMT-28" d="M 1497 -1347 
Q 1031 -759 709 28 
Q 388 816 388 1659 
Q 388 2403 628 3084 
Q 909 3875 1497 4659 
L 1900 4659 
Q 1522 4009 1400 3731 
Q 1209 3300 1100 2831 
Q 966 2247 966 1656 
Q 966 153 1900 -1347 
L 1497 -1347 
z
" transform="scale(0.015625)"/>
       <path id="ArialMT-68" d="M 422 0 
L 422 4581 
L 984 4581 
L 984 2938 
Q 1378 3394 1978 3394 
Q 2347 3394 2619 3248 
Q 2891 3103 3008 2847 
Q 3125 2591 3125 2103 
L 3125 0 
L 2563 0 
L 2563 2103 
Q 2563 2525 2380 2717 
Q 2197 2909 1863 2909 
Q 1613 2909 1392 2779 
Q 1172 2650 1078 2428 
Q 984 2206 984 1816 
L 984 0 
L 422 0 
z
" transform="scale(0.015625)"/>
       <path id="ArialMT-6f" d="M 213 1659 
Q 213 2581 725 3025 
Q 1153 3394 1769 3394 
Q 2453 3394 2887 2945 
Q 3322 2497 3322 1706 
Q 3322 1066 3130 698 
Q 2938 331 2570 128 
Q 2203 -75 1769 -75 
Q 1072 -75 642 372 
Q 213 819 213 1659 
z
M 791 1659 
Q 791 1022 1069 705 
Q 1347 388 1769 388 
Q 2188 388 2466 706 
Q 2744 1025 2744 1678 
Q 2744 2294 2464 2611 
Q 2184 2928 1769 2928 
Q 1347 2928 1069 2612 
Q 791 2297 791 1659 
z
" transform="scale(0.015625)"/>
       <path id="ArialMT-75" d="M 2597 0 
L 2597 488 
Q 2209 -75 1544 -75 
Q 1250 -75 995 37 
Q 741 150 617 320 
Q 494 491 444 738 
Q 409 903 409 1263 
L 409 3319 
L 972 3319 
L 972 1478 
Q 972 1038 1006 884 
Q 1059 663 1231 536 
Q 1403 409 1656 409 
Q 1909 409 2131 539 
Q 2353 669 2445 892 
Q 2538 1116 2538 1541 
L 2538 3319 
L 3100 3319 
L 3100 0 
L 2597 0 
z
" transform="scale(0.015625)"/>
       <path id="ArialMT-72" d="M 416 0 
L 416 3319 
L 922 3319 
L 922 2816 
Q 1116 3169 1280 3281 
Q 1444 3394 1641 3394 
Q 1925 3394 2219 3213 
L 2025 2691 
Q 1819 2813 1613 2813 
Q 1428 2813 1281 2702 
Q 1134 2591 1072 2394 
Q 978 2094 978 1738 
L 978 0 
L 416 0 
z
" transform="scale(0.015625)"/>
       <path id="ArialMT-73" d="M 197 991 
L 753 1078 
Q 800 744 1014 566 
Q 1228 388 1613 388 
Q 2000 388 2187 545 
Q 2375 703 2375 916 
Q 2375 1106 2209 1216 
Q 2094 1291 1634 1406 
Q 1016 1563 777 1677 
Q 538 1791 414 1992 
Q 291 2194 291 2438 
Q 291 2659 392 2848 
Q 494 3038 669 3163 
Q 800 3259 1026 3326 
Q 1253 3394 1513 3394 
Q 1903 3394 2198 3281 
Q 2494 3169 2634 2976 
Q 2775 2784 2828 2463 
L 2278 2388 
Q 2241 2644 2061 2787 
Q 1881 2931 1553 2931 
Q 1166 2931 1000 2803 
Q 834 2675 834 2503 
Q 834 2394 903 2306 
Q 972 2216 1119 2156 
Q 1203 2125 1616 2013 
Q 2213 1853 2448 1751 
Q 2684 1650 2818 1456 
Q 2953 1263 2953 975 
Q 2953 694 2789 445 
Q 2625 197 2315 61 
Q 2006 -75 1616 -75 
Q 969 -75 630 194 
Q 291 463 197 991 
z
" transform="scale(0.015625)"/>
       <path id="ArialMT-29" d="M 791 -1347 
L 388 -1347 
Q 1322 153 1322 1656 
Q 1322 2244 1188 2822 
Q 1081 3291 891 3722 
Q 769 4003 388 4659 
L 791 4659 
Q 1378 3875 1659 3084 
Q 1900 2403 1900 1659 
Q 1900 816 1576 28 
Q 1253 -759 791 -1347 
z
" transform="scale(0.015625)"/>
      </defs>
      <use xlink:href="#ArialMT-54"/>
      <use xlink:href="#ArialMT-69" transform="translate(57.333984 0)"/>
      <use xlink:href="#ArialMT-6d" transform="translate(79.550781 0)"/>
      <use xlink:href="#ArialMT-65" transform="translate(162.851562 0)"/>
      <use xlink:href="#ArialMT-20" transform="translate(218.466797 0)"/>
      <use xlink:href="#ArialMT-28" transform="translate(246.25 0)"/>
      <use xlink:href="#ArialMT-68" transform="translate(279.550781 0)"/>
      <use xlink:href="#ArialMT-6f" transform="translate(335.166016 0)"/>
      <use xlink:href="#ArialMT-75" transform="translate(390.78125 0)"/>
      <use xlink:href="#ArialMT-72" transform="translate(446.396484 0)"/>
      <use xlink:href="#ArialMT-73" transform="translate(479.697266 0)"/>
      <use xlink:href="#ArialMT-29" transform="translate(529.697266 0)"/>
     </g>
    </g>
   </g>
   <g id="matplotlib.axis_2">
    <g id="ytick_1">
     <g id="line2d_17">
      <path d="M 47.95125 140.239059 
L 241.87375 140.239059 
" clip-path="url(#p002220c612)" style="fill: none; stroke: #b0b0b0; stroke-opacity: 0.3; stroke-width: 0.8; stroke-linecap: square"/>
     </g>
     <g id="line2d_18">
      <defs>
       <path id="m5ca82ab3c5" d="M 0 0 
L -3.5 0 
" style="stroke: #000000; stroke-width: 0.8"/>
      </defs>
      <g>
       <use xlink:href="#m5ca82ab3c5" x="47.95125" y="140.239059" style="stroke: #000000; stroke-width: 0.8"/>
      </g>
     </g>
     <g id="text_10">
      <!-- 0 -->
      <g transform="translate(36.5025 143.102184) scale(0.08 -0.08)">
       <use xlink:href="#ArialMT-30"/>
      </g>
     </g>
    </g>
    <g id="ytick_2">
     <g id="line2d_19">
      <path d="M 47.95125 118.54307 
L 241.87375 118.54307 
" clip-path="url(#p002220c612)" style="fill: none; stroke: #b0b0b0; stroke-opacity: 0.3; stroke-width: 0.8; stroke-linecap: square"/>
     </g>
     <g id="line2d_20">
      <g>
       <use xlink:href="#m5ca82ab3c5" x="47.95125" y="118.54307" style="stroke: #000000; stroke-width: 0.8"/>
      </g>
     </g>
     <g id="text_11">
      <!-- 2000 -->
      <g transform="translate(23.15625 121.406195) scale(0.08 -0.08)">
       <use xlink:href="#ArialMT-32"/>
       <use xlink:href="#ArialMT-30" transform="translate(55.615234 0)"/>
       <use xlink:href="#ArialMT-30" transform="translate(111.230469 0)"/>
       <use xlink:href="#ArialMT-30" transform="translate(166.845703 0)"/>
      </g>
     </g>
    </g>
    <g id="ytick_3">
     <g id="line2d_21">
      <path d="M 47.95125 96.847081 
L 241.87375 96.847081 
" clip-path="url(#p002220c612)" style="fill: none; stroke: #b0b0b0; stroke-opacity: 0.3; stroke-width: 0.8; stroke-linecap: square"/>
     </g>
     <g id="line2d_22">
      <g>
       <use xlink:href="#m5ca82ab3c5" x="47.95125" y="96.847081" style="stroke: #000000; stroke-width: 0.8"/>
      </g>
     </g>
     <g id="text_12">
      <!-- 4000 -->
      <g transform="translate(23.15625 99.710206) scale(0.08 -0.08)">
       <use xlink:href="#ArialMT-34"/>
       <use xlink:href="#ArialMT-30" transform="translate(55.615234 0)"/>
       <use xlink:href="#ArialMT-30" transform="translate(111.230469 0)"/>
       <use xlink:href="#ArialMT-30" transform="translate(166.845703 0)"/>
      </g>
     </g>
    </g>
    <g id="ytick_4">
     <g id="line2d_23">
      <path d="M 47.95125 75.151092 
L 241.87375 75.151092 
" clip-path="url(#p002220c612)" style="fill: none; stroke: #b0b0b0; stroke-opacity: 0.3; stroke-width: 0.8; stroke-linecap: square"/>
     </g>
     <g id="line2d_24">
      <g>
       <use xlink:href="#m5ca82ab3c5" x="47.95125" y="75.151092" style="stroke: #000000; stroke-width: 0.8"/>
      </g>
     </g>
     <g id="text_13">
      <!-- 6000 -->
      <g transform="translate(23.15625 78.014217) scale(0.08 -0.08)">
       <use xlink:href="#ArialMT-36"/>
       <use xlink:href="#ArialMT-30" transform="translate(55.615234 0)"/>
       <use xlink:href="#ArialMT-30" transform="translate(111.230469 0)"/>
       <use xlink:href="#ArialMT-30" transform="translate(166.845703 0)"/>
      </g>
     </g>
    </g>
    <g id="ytick_5">
     <g id="line2d_25">
      <path d="M 47.95125 53.455103 
L 241.87375 53.455103 
" clip-path="url(#p002220c612)" style="fill: none; stroke: #b0b0b0; stroke-opacity: 0.3; stroke-width: 0.8; stroke-linecap: square"/>
     </g>
     <g id="line2d_26">
      <g>
       <use xlink:href="#m5ca82ab3c5" x="47.95125" y="53.455103" style="stroke: #000000; stroke-width: 0.8"/>
      </g>
     </g>
     <g id="text_14">
      <!-- 8000 -->
      <g transform="translate(23.15625 56.318228) scale(0.08 -0.08)">
       <defs>
        <path id="ArialMT-38" d="M 1131 2484 
Q 781 2613 612 2850 
Q 444 3088 444 3419 
Q 444 3919 803 4259 
Q 1163 4600 1759 4600 
Q 2359 4600 2725 4251 
Q 3091 3903 3091 3403 
Q 3091 3084 2923 2848 
Q 2756 2613 2416 2484 
Q 2838 2347 3058 2040 
Q 3278 1734 3278 1309 
Q 3278 722 2862 322 
Q 2447 -78 1769 -78 
Q 1091 -78 675 323 
Q 259 725 259 1325 
Q 259 1772 486 2073 
Q 713 2375 1131 2484 
z
M 1019 3438 
Q 1019 3113 1228 2906 
Q 1438 2700 1772 2700 
Q 2097 2700 2305 2904 
Q 2513 3109 2513 3406 
Q 2513 3716 2298 3927 
Q 2084 4138 1766 4138 
Q 1444 4138 1231 3931 
Q 1019 3725 1019 3438 
z
M 838 1322 
Q 838 1081 952 856 
Q 1066 631 1291 507 
Q 1516 384 1775 384 
Q 2178 384 2440 643 
Q 2703 903 2703 1303 
Q 2703 1709 2433 1975 
Q 2163 2241 1756 2241 
Q 1359 2241 1098 1978 
Q 838 1716 838 1322 
z
" transform="scale(0.015625)"/>
       </defs>
       <use xlink:href="#ArialMT-38"/>
       <use xlink:href="#ArialMT-30" transform="translate(55.615234 0)"/>
       <use xlink:href="#ArialMT-30" transform="translate(111.230469 0)"/>
       <use xlink:href="#ArialMT-30" transform="translate(166.845703 0)"/>
      </g>
     </g>
    </g>
    <g id="ytick_6">
     <g id="line2d_27">
      <path d="M 47.95125 31.759114 
L 241.87375 31.759114 
" clip-path="url(#p002220c612)" style="fill: none; stroke: #b0b0b0; stroke-opacity: 0.3; stroke-width: 0.8; stroke-linecap: square"/>
     </g>
     <g id="line2d_28">
      <g>
       <use xlink:href="#m5ca82ab3c5" x="47.95125" y="31.759114" style="stroke: #000000; stroke-width: 0.8"/>
      </g>
     </g>
     <g id="text_15">
      <!-- 10000 -->
      <g transform="translate(18.7075 34.622239) scale(0.08 -0.08)">
       <use xlink:href="#ArialMT-31"/>
       <use xlink:href="#ArialMT-30" transform="translate(55.615234 0)"/>
       <use xlink:href="#ArialMT-30" transform="translate(111.230469 0)"/>
       <use xlink:href="#ArialMT-30" transform="translate(166.845703 0)"/>
       <use xlink:href="#ArialMT-30" transform="translate(222.460938 0)"/>
      </g>
     </g>
    </g>
    <g id="ytick_7">
     <g id="line2d_29">
      <path d="M 47.95125 10.063125 
L 241.87375 10.063125 
" clip-path="url(#p002220c612)" style="fill: none; stroke: #b0b0b0; stroke-opacity: 0.3; stroke-width: 0.8; stroke-linecap: square"/>
     </g>
     <g id="line2d_30">
      <g>
       <use xlink:href="#m5ca82ab3c5" x="47.95125" y="10.063125" style="stroke: #000000; stroke-width: 0.8"/>
      </g>
     </g>
     <g id="text_16">
      <!-- 12000 -->
      <g transform="translate(18.7075 12.92625) scale(0.08 -0.08)">
       <use xlink:href="#ArialMT-31"/>
       <use xlink:href="#ArialMT-32" transform="translate(55.615234 0)"/>
       <use xlink:href="#ArialMT-30" transform="translate(111.230469 0)"/>
       <use xlink:href="#ArialMT-30" transform="translate(166.845703 0)"/>
       <use xlink:href="#ArialMT-30" transform="translate(222.460938 0)"/>
      </g>
     </g>
    </g>
    <g id="text_17">
     <!-- Mean distance from source (km) -->
     <g transform="translate(13.02375 131.245003) rotate(-90) scale(0.08 -0.08)">
      <defs>
       <path id="ArialMT-4d" d="M 475 0 
L 475 4581 
L 1388 4581 
L 2472 1338 
Q 2622 884 2691 659 
Q 2769 909 2934 1394 
L 4031 4581 
L 4847 4581 
L 4847 0 
L 4263 0 
L 4263 3834 
L 2931 0 
L 2384 0 
L 1059 3900 
L 1059 0 
L 475 0 
z
" transform="scale(0.015625)"/>
       <path id="ArialMT-61" d="M 2588 409 
Q 2275 144 1986 34 
Q 1697 -75 1366 -75 
Q 819 -75 525 192 
Q 231 459 231 875 
Q 231 1119 342 1320 
Q 453 1522 633 1644 
Q 813 1766 1038 1828 
Q 1203 1872 1538 1913 
Q 2219 1994 2541 2106 
Q 2544 2222 2544 2253 
Q 2544 2597 2384 2738 
Q 2169 2928 1744 2928 
Q 1347 2928 1158 2789 
Q 969 2650 878 2297 
L 328 2372 
Q 403 2725 575 2942 
Q 747 3159 1072 3276 
Q 1397 3394 1825 3394 
Q 2250 3394 2515 3294 
Q 2781 3194 2906 3042 
Q 3031 2891 3081 2659 
Q 3109 2516 3109 2141 
L 3109 1391 
Q 3109 606 3145 398 
Q 3181 191 3288 0 
L 2700 0 
Q 2613 175 2588 409 
z
M 2541 1666 
Q 2234 1541 1622 1453 
Q 1275 1403 1131 1340 
Q 988 1278 909 1158 
Q 831 1038 831 891 
Q 831 666 1001 516 
Q 1172 366 1500 366 
Q 1825 366 2078 508 
Q 2331 650 2450 897 
Q 2541 1088 2541 1459 
L 2541 1666 
z
" transform="scale(0.015625)"/>
       <path id="ArialMT-6e" d="M 422 0 
L 422 3319 
L 928 3319 
L 928 2847 
Q 1294 3394 1984 3394 
Q 2284 3394 2536 3286 
Q 2788 3178 2913 3003 
Q 3038 2828 3088 2588 
Q 3119 2431 3119 2041 
L 3119 0 
L 2556 0 
L 2556 2019 
Q 2556 2363 2490 2533 
Q 2425 2703 2258 2804 
Q 2091 2906 1866 2906 
Q 1506 2906 1245 2678 
Q 984 2450 984 1813 
L 984 0 
L 422 0 
z
" transform="scale(0.015625)"/>
       <path id="ArialMT-64" d="M 2575 0 
L 2575 419 
Q 2259 -75 1647 -75 
Q 1250 -75 917 144 
Q 584 363 401 755 
Q 219 1147 219 1656 
Q 219 2153 384 2558 
Q 550 2963 881 3178 
Q 1213 3394 1622 3394 
Q 1922 3394 2156 3267 
Q 2391 3141 2538 2938 
L 2538 4581 
L 3097 4581 
L 3097 0 
L 2575 0 
z
M 797 1656 
Q 797 1019 1065 703 
Q 1334 388 1700 388 
Q 2069 388 2326 689 
Q 2584 991 2584 1609 
Q 2584 2291 2321 2609 
Q 2059 2928 1675 2928 
Q 1300 2928 1048 2622 
Q 797 2316 797 1656 
z
" transform="scale(0.015625)"/>
       <path id="ArialMT-74" d="M 1650 503 
L 1731 6 
Q 1494 -44 1306 -44 
Q 1000 -44 831 53 
Q 663 150 594 308 
Q 525 466 525 972 
L 525 2881 
L 113 2881 
L 113 3319 
L 525 3319 
L 525 4141 
L 1084 4478 
L 1084 3319 
L 1650 3319 
L 1650 2881 
L 1084 2881 
L 1084 941 
Q 1084 700 1114 631 
Q 1144 563 1211 522 
Q 1278 481 1403 481 
Q 1497 481 1650 503 
z
" transform="scale(0.015625)"/>
       <path id="ArialMT-63" d="M 2588 1216 
L 3141 1144 
Q 3050 572 2676 248 
Q 2303 -75 1759 -75 
Q 1078 -75 664 370 
Q 250 816 250 1647 
Q 250 2184 428 2587 
Q 606 2991 970 3192 
Q 1334 3394 1763 3394 
Q 2303 3394 2647 3120 
Q 2991 2847 3088 2344 
L 2541 2259 
Q 2463 2594 2264 2762 
Q 2066 2931 1784 2931 
Q 1359 2931 1093 2626 
Q 828 2322 828 1663 
Q 828 994 1084 691 
Q 1341 388 1753 388 
Q 2084 388 2306 591 
Q 2528 794 2588 1216 
z
" transform="scale(0.015625)"/>
       <path id="ArialMT-66" d="M 556 0 
L 556 2881 
L 59 2881 
L 59 3319 
L 556 3319 
L 556 3672 
Q 556 4006 616 4169 
Q 697 4388 901 4523 
Q 1106 4659 1475 4659 
Q 1713 4659 2000 4603 
L 1916 4113 
Q 1741 4144 1584 4144 
Q 1328 4144 1222 4034 
Q 1116 3925 1116 3625 
L 1116 3319 
L 1763 3319 
L 1763 2881 
L 1116 2881 
L 1116 0 
L 556 0 
z
" transform="scale(0.015625)"/>
       <path id="ArialMT-6b" d="M 425 0 
L 425 4581 
L 988 4581 
L 988 1969 
L 2319 3319 
L 3047 3319 
L 1778 2088 
L 3175 0 
L 2481 0 
L 1384 1697 
L 988 1316 
L 988 0 
L 425 0 
z
" transform="scale(0.015625)"/>
      </defs>
      <use xlink:href="#ArialMT-4d"/>
      <use xlink:href="#ArialMT-65" transform="translate(83.300781 0)"/>
      <use xlink:href="#ArialMT-61" transform="translate(138.916016 0)"/>
      <use xlink:href="#ArialMT-6e" transform="translate(194.53125 0)"/>
      <use xlink:href="#ArialMT-20" transform="translate(250.146484 0)"/>
      <use xlink:href="#ArialMT-64" transform="translate(277.929688 0)"/>
      <use xlink:href="#ArialMT-69" transform="translate(333.544922 0)"/>
      <use xlink:href="#ArialMT-73" transform="translate(355.761719 0)"/>
      <use xlink:href="#ArialMT-74" transform="translate(405.761719 0)"/>
      <use xlink:href="#ArialMT-61" transform="translate(433.544922 0)"/>
      <use xlink:href="#ArialMT-6e" transform="translate(489.160156 0)"/>
      <use xlink:href="#ArialMT-63" transform="translate(544.775391 0)"/>
      <use xlink:href="#ArialMT-65" transform="translate(594.775391 0)"/>
      <use xlink:href="#ArialMT-20" transform="translate(650.390625 0)"/>
      <use xlink:href="#ArialMT-66" transform="translate(678.173828 0)"/>
      <use xlink:href="#ArialMT-72" transform="translate(705.957031 0)"/>
      <use xlink:href="#ArialMT-6f" transform="translate(739.257812 0)"/>
      <use xlink:href="#ArialMT-6d" transform="translate(794.873047 0)"/>
      <use xlink:href="#ArialMT-20" transform="translate(878.173828 0)"/>
      <use xlink:href="#ArialMT-73" transform="translate(905.957031 0)"/>
      <use xlink:href="#ArialMT-6f" transform="translate(955.957031 0)"/>
      <use xlink:href="#ArialMT-75" transform="translate(1011.572266 0)"/>
      <use xlink:href="#ArialMT-72" transform="translate(1067.1875 0)"/>
      <use xlink:href="#ArialMT-63" transform="translate(1100.488281 0)"/>
      <use xlink:href="#ArialMT-65" transform="translate(1150.488281 0)"/>
      <use xlink:href="#ArialMT-20" transform="translate(1206.103516 0)"/>
      <use xlink:href="#ArialMT-28" transform="translate(1233.886719 0)"/>
      <use xlink:href="#ArialMT-6b" transform="translate(1267.1875 0)"/>
      <use xlink:href="#ArialMT-6d" transform="translate(1317.1875 0)"/>
      <use xlink:href="#ArialMT-29" transform="translate(1400.488281 0)"/>
     </g>
    </g>
   </g>
   <g id="line2d_31">
    <path d="M 47.95125 26.830201 
L 50.644618 15.366882 
L 53.337986 14.156619 
L 56.031354 13.456999 
L 58.724722 13.028783 
L 61.41809 13.288125 
L 64.111458 13.545456 
L 66.804826 13.971662 
L 69.498194 14.269202 
L 72.191563 14.836135 
L 74.884931 15.871493 
L 77.578299 16.882726 
L 80.271667 17.821584 
L 82.965035 19.09819 
L 85.658403 19.588729 
L 88.351771 19.811883 
L 91.045139 20.457223 
L 93.738507 20.927657 
L 96.431875 21.550882 
L 99.125243 22.548042 
L 101.818611 23.241631 
L 104.511979 24.860006 
L 107.205347 25.642053 
L 109.898715 26.832211 
L 112.592083 27.230271 
L 115.285451 28.06861 
L 117.978819 29.001437 
L 120.672188 29.729202 
L 123.365556 30.322272 
L 126.058924 31.343556 
L 128.752292 32.027093 
L 131.44566 32.380924 
L 134.139028 33.225294 
L 136.832396 33.390147 
L 139.525764 34.592368 
L 142.219132 35.261832 
L 144.9125 35.806652 
L 147.605868 36.612823 
L 150.299236 36.976706 
L 152.992604 38.016085 
L 155.685972 38.697611 
L 158.37934 39.071546 
L 161.072708 39.741011 
L 163.766076 40.342121 
L 166.459444 40.941221 
L 169.152812 41.719248 
L 171.846181 42.121328 
L 174.539549 42.736512 
L 177.232917 43.27932 
L 179.926285 43.781921 
L 182.619653 44.449375 
L 185.313021 44.897695 
L 188.006389 45.508858 
L 190.699757 45.675721 
L 193.393125 46.497976 
L 196.086493 46.670871 
L 198.779861 47.428793 
L 201.473229 48.027893 
L 204.166597 48.61292 
L 206.859965 49.015001 
L 209.553333 49.441206 
L 212.246701 49.835245 
L 214.940069 50.376044 
L 217.633437 50.462491 
L 220.326806 51.107831 
L 223.020174 51.20232 
L 225.713542 51.592338 
L 228.40691 51.944159 
L 231.100278 51.875805 
L 233.793646 52.247729 
L 236.487014 52.70007 
L 239.180382 53.114213 
L 241.87375 53.359482 
" clip-path="url(#p002220c612)" style="fill: none; stroke: #888780; stroke-width: 1.5; stroke-linecap: square"/>
   </g>
   <g id="line2d_32">
    <path d="M 47.95125 26.830201 
L 50.644618 15.366882 
L 53.337986 14.156619 
L 56.031354 13.456999 
L 58.724722 13.028783 
L 61.41809 13.288125 
L 64.111458 13.545456 
L 66.804826 13.971662 
L 69.498194 14.269202 
L 72.191563 14.836135 
L 74.884931 15.871493 
L 77.578299 16.882726 
L 80.271667 17.821584 
L 82.965035 19.09819 
L 85.658403 19.588729 
L 88.351771 19.811883 
L 91.045139 20.457223 
L 93.738507 20.927657 
L 96.431875 21.550882 
L 99.125243 22.548042 
L 101.818611 23.241631 
L 104.511979 24.860006 
L 107.205347 25.642053 
L 109.898715 26.832211 
L 112.592083 27.230271 
L 115.285451 28.06861 
L 117.978819 29.001437 
L 120.672188 29.729202 
L 123.365556 30.322272 
L 126.058924 31.343556 
L 128.752292 32.027093 
L 131.44566 32.380924 
L 134.139028 33.225294 
L 136.832396 33.390147 
L 139.525764 34.592368 
L 142.219132 35.261832 
L 144.9125 35.806652 
L 147.605868 36.612823 
L 150.299236 36.976706 
L 152.992604 38.016085 
L 155.685972 38.697611 
L 158.37934 39.071546 
L 161.072708 39.741011 
L 163.766076 40.342121 
L 166.459444 40.941221 
L 169.152812 41.719248 
L 171.846181 42.121328 
L 174.539549 42.736512 
L 177.232917 43.27932 
L 179.926285 43.781921 
L 182.619653 44.449375 
L 185.313021 44.897695 
L 188.006389 45.508858 
L 190.699757 45.675721 
L 193.393125 46.497976 
L 196.086493 46.670871 
L 198.779861 47.428793 
L 201.473229 48.027893 
L 204.166597 48.61292 
L 206.859965 49.015001 
L 209.553333 49.441206 
L 212.246701 49.835245 
L 214.940069 50.376044 
L 217.633437 50.462491 
L 220.326806 51.107831 
L 223.020174 51.20232 
L 225.713542 51.592338 
L 228.40691 51.944159 
L 231.100278 51.875805 
L 233.793646 52.247729 
L 236.487014 52.70007 
L 239.180382 53.114213 
L 241.87375 53.359482 
" clip-path="url(#p002220c612)" style="fill: none; stroke: #378add; stroke-width: 1.5; stroke-linecap: square"/>
   </g>
   <g id="line2d_33">
    <path d="M 47.95125 25.571689 
L 50.644618 13.280083 
L 53.337986 11.617479 
L 56.031354 12.371381 
L 58.724722 13.129303 
L 61.41809 13.802788 
L 64.111458 15.027123 
L 66.804826 16.941027 
L 69.498194 18.428726 
L 72.191563 20.09535 
L 74.884931 21.609183 
L 77.578299 23.139101 
L 80.271667 25.059036 
L 82.965035 25.973769 
L 85.658403 27.501676 
L 88.351771 28.937104 
L 91.045139 29.879983 
L 93.738507 31.826053 
L 96.431875 32.803109 
L 99.125243 33.850529 
L 101.818611 35.330186 
L 104.511979 36.204711 
L 107.205347 37.477297 
L 109.898715 38.299552 
L 112.592083 39.453523 
L 115.285451 40.295882 
L 117.978819 41.343302 
L 120.672188 41.833841 
L 123.365556 42.806876 
L 126.058924 43.556756 
L 128.752292 44.033222 
L 131.44566 44.945945 
L 134.139028 45.951146 
L 136.832396 46.26678 
L 139.525764 47.056868 
L 142.219132 47.324252 
L 144.9125 47.702208 
L 147.605868 48.021862 
L 150.299236 48.691326 
L 152.992604 49.115521 
L 155.685972 49.831225 
L 158.37934 50.110671 
L 161.072708 50.60724 
L 163.766076 51.318923 
L 166.459444 51.809461 
L 169.152812 52.225615 
L 171.846181 52.364333 
L 174.539549 52.587487 
L 177.232917 52.824715 
L 179.926285 53.262983 
L 182.619653 53.741459 
L 185.313021 54.09529 
L 188.006389 54.626036 
L 190.699757 54.690369 
L 193.393125 54.607943 
L 196.086493 54.887389 
L 198.779861 55.303542 
L 201.473229 55.667425 
L 204.166597 55.804133 
L 206.859965 55.816195 
L 209.553333 56.133839 
L 212.246701 56.475607 
L 214.940069 56.78722 
L 217.633437 57.251623 
L 220.326806 57.362195 
L 223.020174 57.828609 
L 225.713542 58.037691 
L 228.40691 58.098003 
L 231.100278 58.13218 
L 233.793646 58.353324 
L 236.487014 58.668957 
L 239.180382 58.791592 
L 241.87375 58.88407 
" clip-path="url(#p002220c612)" style="fill: none; stroke: #ba7517; stroke-width: 1.5; stroke-linecap: square"/>
   </g>
   <g id="line2d_34">
    <path d="M 47.95125 25.865208 
L 50.644618 14.148577 
L 53.337986 11.915019 
L 56.031354 11.705937 
L 58.724722 12.46587 
L 61.41809 12.841815 
L 64.111458 14.490346 
L 66.804826 16.100679 
L 69.498194 16.794268 
L 72.191563 17.990458 
L 74.884931 20.19587 
L 77.578299 22.023327 
L 80.271667 23.945272 
L 82.965035 25.135431 
L 85.658403 26.403996 
L 88.351771 28.575231 
L 91.045139 29.733223 
L 93.738507 30.330313 
L 96.431875 32.139676 
L 99.125243 32.718672 
L 101.818611 33.394168 
L 104.511979 34.485817 
L 107.205347 36.226826 
L 109.898715 37.509463 
L 112.592083 38.512654 
L 115.285451 39.574147 
L 117.978819 40.43661 
L 120.672188 41.274948 
L 123.365556 42.109266 
L 126.058924 43.082301 
L 128.752292 43.691453 
L 131.44566 44.57402 
L 134.139028 45.044454 
L 136.832396 45.563139 
L 139.525764 46.182343 
L 142.219132 47.288064 
L 144.9125 48.243006 
L 147.605868 49.135625 
L 150.299236 50.078504 
L 152.992604 50.239336 
L 155.685972 51.546098 
L 158.37934 52.026585 
L 161.072708 52.521144 
L 163.766076 52.951371 
L 166.459444 53.492169 
L 169.152812 54.242049 
L 171.846181 54.921566 
L 174.539549 55.520666 
L 177.232917 56.252452 
L 179.926285 56.507774 
L 182.619653 56.825418 
L 185.313021 57.303894 
L 188.006389 57.848713 
L 190.699757 57.961295 
L 193.393125 58.116096 
L 196.086493 58.278939 
L 198.779861 58.902164 
L 201.473229 59.038871 
L 204.166597 59.547503 
L 206.859965 59.521368 
L 209.553333 59.660086 
L 212.246701 60.08026 
L 214.940069 60.140573 
L 217.633437 60.62508 
L 220.326806 60.920609 
L 223.020174 61.017108 
L 225.713542 61.185982 
L 228.40691 61.453366 
L 231.100278 61.708687 
L 233.793646 61.781062 
L 236.487014 61.879571 
L 239.180382 61.895654 
L 241.87375 62.235413 
" clip-path="url(#p002220c612)" style="fill: none; stroke: #1d9e75; stroke-width: 1.5; stroke-linecap: square"/>
   </g>
   <g id="patch_3">
    <path d="M 47.95125 140.239059 
L 47.95125 7.555946 
" style="fill: none; stroke: #000000; stroke-width: 0.5; stroke-linejoin: miter; stroke-linecap: square"/>
   </g>
   <g id="patch_4">
    <path d="M 47.95125 140.239059 
L 241.87375 140.239059 
" style="fill: none; stroke: #000000; stroke-width: 0.5; stroke-linejoin: miter; stroke-linecap: square"/>
   </g>
   <g id="text_18">
    <g id="patch_5">
     <path d="M 165.94655 24.007734 
L 237.9953 24.007734 
Q 239.7953 24.007734 239.7953 22.207734 
L 239.7953 10.279921 
Q 239.7953 8.479921 237.9953 8.479921 
L 165.94655 8.479921 
Q 164.14655 8.479921 164.14655 10.279921 
L 164.14655 22.207734 
Q 164.14655 24.007734 165.94655 24.007734 
z
" style="fill: #ffffff; opacity: 0.9; stroke: #808080; stroke-linejoin: miter"/>
    </g>
    <!-- α=2.0, β=2.0, κ=5.0 -->
    <g transform="translate(185.874987 14.577421) scale(0.06 -0.06)">
     <defs>
      <path id="ArialMT-3b1" d="M 2884 3319 
L 3459 3319 
Q 3241 2631 3056 1659 
Q 3275 453 3459 0 
L 2900 0 
Q 2766 313 2697 606 
Q 2438 -75 1613 -75 
Q 988 -75 606 394 
Q 225 863 225 1666 
Q 225 2491 608 2942 
Q 991 3394 1622 3394 
Q 2013 3394 2259 3236 
Q 2506 3078 2719 2756 
Q 2741 2866 2884 3319 
z
M 1716 2928 
Q 1313 2928 1078 2603 
Q 844 2278 844 1666 
Q 844 1069 1066 728 
Q 1288 388 1684 388 
Q 2072 388 2331 723 
Q 2591 1059 2591 1691 
Q 2591 2303 2348 2615 
Q 2106 2928 1716 2928 
z
" transform="scale(0.015625)"/>
      <path id="ArialMT-3d" d="M 3381 2694 
L 356 2694 
L 356 3219 
L 3381 3219 
L 3381 2694 
z
M 3381 1303 
L 356 1303 
L 356 1828 
L 3381 1828 
L 3381 1303 
z
" transform="scale(0.015625)"/>
      <path id="ArialMT-2e" d="M 581 0 
L 581 641 
L 1222 641 
L 1222 0 
L 581 0 
z
" transform="scale(0.015625)"/>
      <path id="ArialMT-2c" d="M 569 0 
L 569 641 
L 1209 641 
L 1209 0 
Q 1209 -353 1084 -570 
Q 959 -788 688 -906 
L 531 -666 
Q 709 -588 793 -436 
Q 878 -284 888 0 
L 569 0 
z
" transform="scale(0.015625)"/>
      <path id="ArialMT-3b2" d="M 997 422 
L 997 -1272 
L 438 -1272 
L 438 3144 
Q 438 3672 580 3970 
Q 722 4269 1069 4464 
Q 1416 4659 1841 4659 
Q 2469 4659 2792 4298 
Q 3116 3938 3116 3509 
Q 3116 3091 2855 2834 
Q 2594 2578 2256 2519 
Q 2800 2466 3095 2128 
Q 3391 1791 3391 1297 
Q 3391 766 3042 345 
Q 2694 -75 2034 -75 
Q 1359 -75 997 422 
z
M 1494 2700 
Q 2069 2700 2331 2900 
Q 2594 3100 2594 3478 
Q 2594 3784 2370 3990 
Q 2147 4197 1813 4197 
Q 1522 4197 1308 4044 
Q 1094 3891 1045 3703 
Q 997 3516 997 3047 
L 997 1788 
Q 997 1250 1072 997 
Q 1147 744 1394 541 
Q 1641 338 1963 338 
Q 2353 338 2579 605 
Q 2806 872 2806 1266 
Q 2806 1591 2639 1848 
Q 2472 2106 2226 2198 
Q 1981 2291 1575 2291 
L 1494 2291 
L 1494 2700 
z
" transform="scale(0.015625)"/>
      <path id="ArialMT-3ba" d="M 419 3319 
L 978 3319 
L 978 2016 
L 2325 3319 
L 3069 3319 
L 1584 1941 
L 3197 0 
L 2478 0 
L 1184 1563 
L 978 1372 
L 978 0 
L 419 0 
L 419 3319 
z
" transform="scale(0.015625)"/>
     </defs>
     <use xlink:href="#ArialMT-3b1"/>
     <use xlink:href="#ArialMT-3d" transform="translate(57.8125 0)"/>
     <use xlink:href="#ArialMT-32" transform="translate(116.210938 0)"/>
     <use xlink:href="#ArialMT-2e" transform="translate(171.826172 0)"/>
     <use xlink:href="#ArialMT-30" transform="translate(199.609375 0)"/>
     <use xlink:href="#ArialMT-2c" transform="translate(255.224609 0)"/>
     <use xlink:href="#ArialMT-20" transform="translate(283.007812 0)"/>
     <use xlink:href="#ArialMT-3b2" transform="translate(310.791016 0)"/>
     <use xlink:href="#ArialMT-3d" transform="translate(368.310547 0)"/>
     <use xlink:href="#ArialMT-32" transform="translate(426.708984 0)"/>
     <use xlink:href="#ArialMT-2e" transform="translate(482.324219 0)"/>
     <use xlink:href="#ArialMT-30" transform="translate(510.107422 0)"/>
     <use xlink:href="#ArialMT-2c" transform="translate(565.722656 0)"/>
     <use xlink:href="#ArialMT-20" transform="translate(593.505859 0)"/>
     <use xlink:href="#ArialMT-3ba" transform="translate(621.289062 0)"/>
     <use xlink:href="#ArialMT-3d" transform="translate(671.289062 0)"/>
     <use xlink:href="#ArialMT-35" transform="translate(729.6875 0)"/>
     <use xlink:href="#ArialMT-2e" transform="translate(785.302734 0)"/>
     <use xlink:href="#ArialMT-30" transform="translate(813.085938 0)"/>
    </g>
    <!-- N_agents=500, N_runs=10 -->
    <g transform="translate(165.94655 20.944921) scale(0.06 -0.06)">
     <defs>
      <path id="ArialMT-4e" d="M 488 0 
L 488 4581 
L 1109 4581 
L 3516 984 
L 3516 4581 
L 4097 4581 
L 4097 0 
L 3475 0 
L 1069 3600 
L 1069 0 
L 488 0 
z
" transform="scale(0.015625)"/>
      <path id="ArialMT-5f" d="M -97 -1272 
L -97 -866 
L 3631 -866 
L 3631 -1272 
L -97 -1272 
z
" transform="scale(0.015625)"/>
      <path id="ArialMT-67" d="M 319 -275 
L 866 -356 
Q 900 -609 1056 -725 
Q 1266 -881 1628 -881 
Q 2019 -881 2231 -725 
Q 2444 -569 2519 -288 
Q 2563 -116 2559 434 
Q 2191 0 1641 0 
Q 956 0 581 494 
Q 206 988 206 1678 
Q 206 2153 378 2554 
Q 550 2956 876 3175 
Q 1203 3394 1644 3394 
Q 2231 3394 2613 2919 
L 2613 3319 
L 3131 3319 
L 3131 450 
Q 3131 -325 2973 -648 
Q 2816 -972 2473 -1159 
Q 2131 -1347 1631 -1347 
Q 1038 -1347 672 -1080 
Q 306 -813 319 -275 
z
M 784 1719 
Q 784 1066 1043 766 
Q 1303 466 1694 466 
Q 2081 466 2343 764 
Q 2606 1063 2606 1700 
Q 2606 2309 2336 2618 
Q 2066 2928 1684 2928 
Q 1309 2928 1046 2623 
Q 784 2319 784 1719 
z
" transform="scale(0.015625)"/>
     </defs>
     <use xlink:href="#ArialMT-4e"/>
     <use xlink:href="#ArialMT-5f" transform="translate(72.216797 0)"/>
     <use xlink:href="#ArialMT-61" transform="translate(127.832031 0)"/>
     <use xlink:href="#ArialMT-67" transform="translate(183.447266 0)"/>
     <use xlink:href="#ArialMT-65" transform="translate(239.0625 0)"/>
     <use xlink:href="#ArialMT-6e" transform="translate(294.677734 0)"/>
     <use xlink:href="#ArialMT-74" transform="translate(350.292969 0)"/>
     <use xlink:href="#ArialMT-73" transform="translate(378.076172 0)"/>
     <use xlink:href="#ArialMT-3d" transform="translate(428.076172 0)"/>
     <use xlink:href="#ArialMT-35" transform="translate(486.474609 0)"/>
     <use xlink:href="#ArialMT-30" transform="translate(542.089844 0)"/>
     <use xlink:href="#ArialMT-30" transform="translate(597.705078 0)"/>
     <use xlink:href="#ArialMT-2c" transform="translate(653.320312 0)"/>
     <use xlink:href="#ArialMT-20" transform="translate(681.103516 0)"/>
     <use xlink:href="#ArialMT-4e" transform="translate(708.886719 0)"/>
     <use xlink:href="#ArialMT-5f" transform="translate(781.103516 0)"/>
     <use xlink:href="#ArialMT-72" transform="translate(836.71875 0)"/>
     <use xlink:href="#ArialMT-75" transform="translate(870.019531 0)"/>
     <use xlink:href="#ArialMT-6e" transform="translate(925.634766 0)"/>
     <use xlink:href="#ArialMT-73" transform="translate(981.25 0)"/>
     <use xlink:href="#ArialMT-3d" transform="translate(1031.25 0)"/>
     <use xlink:href="#ArialMT-31" transform="translate(1089.648438 0)"/>
     <use xlink:href="#ArialMT-30" transform="translate(1145.263672 0)"/>
    </g>
   </g>
   <g id="legend_1">
    <g id="patch_6">
     <path d="M 52.85125 136.739059 
L 97.818594 136.739059 
Q 99.218594 136.739059 99.218594 135.339059 
L 99.218594 96.24734 
Q 99.218594 94.84734 97.818594 94.84734 
L 52.85125 94.84734 
Q 51.45125 94.84734 51.45125 96.24734 
L 51.45125 135.339059 
Q 51.45125 136.739059 52.85125 136.739059 
z
" style="fill: #ffffff; opacity: 0.8; stroke: #cccccc; stroke-linejoin: miter"/>
    </g>
    <g id="line2d_35">
     <path d="M 54.25125 100.207809 
L 61.25125 100.207809 
L 68.25125 100.207809 
" style="fill: none; stroke: #888780; stroke-width: 1.5; stroke-linecap: square"/>
    </g>
    <g id="text_19">
     <!-- original -->
     <g transform="translate(73.85125 102.657809) scale(0.07 -0.07)">
      <defs>
       <path id="ArialMT-6c" d="M 409 0 
L 409 4581 
L 972 4581 
L 972 0 
L 409 0 
z
" transform="scale(0.015625)"/>
      </defs>
      <use xlink:href="#ArialMT-6f"/>
      <use xlink:href="#ArialMT-72" transform="translate(55.615234 0)"/>
      <use xlink:href="#ArialMT-69" transform="translate(88.916016 0)"/>
      <use xlink:href="#ArialMT-67" transform="translate(111.132812 0)"/>
      <use xlink:href="#ArialMT-69" transform="translate(166.748047 0)"/>
      <use xlink:href="#ArialMT-6e" transform="translate(188.964844 0)"/>
      <use xlink:href="#ArialMT-61" transform="translate(244.580078 0)"/>
      <use xlink:href="#ArialMT-6c" transform="translate(300.195312 0)"/>
     </g>
    </g>
    <g id="line2d_36">
     <path d="M 54.25125 110.21234 
L 61.25125 110.21234 
L 68.25125 110.21234 
" style="fill: none; stroke: #378add; stroke-width: 1.5; stroke-linecap: square"/>
    </g>
    <g id="text_20">
     <!-- s1 only -->
     <g transform="translate(73.85125 112.66234) scale(0.07 -0.07)">
      <defs>
       <path id="ArialMT-79" d="M 397 -1278 
L 334 -750 
Q 519 -800 656 -800 
Q 844 -800 956 -737 
Q 1069 -675 1141 -563 
Q 1194 -478 1313 -144 
Q 1328 -97 1363 -6 
L 103 3319 
L 709 3319 
L 1400 1397 
Q 1534 1031 1641 628 
Q 1738 1016 1872 1384 
L 2581 3319 
L 3144 3319 
L 1881 -56 
Q 1678 -603 1566 -809 
Q 1416 -1088 1222 -1217 
Q 1028 -1347 759 -1347 
Q 597 -1347 397 -1278 
z
" transform="scale(0.015625)"/>
      </defs>
      <use xlink:href="#ArialMT-73"/>
      <use xlink:href="#ArialMT-31" transform="translate(50 0)"/>
      <use xlink:href="#ArialMT-20" transform="translate(105.615234 0)"/>
      <use xlink:href="#ArialMT-6f" transform="translate(133.398438 0)"/>
      <use xlink:href="#ArialMT-6e" transform="translate(189.013672 0)"/>
      <use xlink:href="#ArialMT-6c" transform="translate(244.628906 0)"/>
      <use xlink:href="#ArialMT-79" transform="translate(266.845703 0)"/>
     </g>
    </g>
    <g id="line2d_37">
     <path d="M 54.25125 120.19609 
L 61.25125 120.19609 
L 68.25125 120.19609 
" style="fill: none; stroke: #ba7517; stroke-width: 1.5; stroke-linecap: square"/>
    </g>
    <g id="text_21">
     <!-- switch -->
     <g transform="translate(73.85125 122.64609) scale(0.07 -0.07)">
      <defs>
       <path id="ArialMT-77" d="M 1034 0 
L 19 3319 
L 600 3319 
L 1128 1403 
L 1325 691 
Q 1338 744 1497 1375 
L 2025 3319 
L 2603 3319 
L 3100 1394 
L 3266 759 
L 3456 1400 
L 4025 3319 
L 4572 3319 
L 3534 0 
L 2950 0 
L 2422 1988 
L 2294 2553 
L 1622 0 
L 1034 0 
z
" transform="scale(0.015625)"/>
      </defs>
      <use xlink:href="#ArialMT-73"/>
      <use xlink:href="#ArialMT-77" transform="translate(50 0)"/>
      <use xlink:href="#ArialMT-69" transform="translate(122.216797 0)"/>
      <use xlink:href="#ArialMT-74" transform="translate(144.433594 0)"/>
      <use xlink:href="#ArialMT-63" transform="translate(172.216797 0)"/>
      <use xlink:href="#ArialMT-68" transform="translate(222.216797 0)"/>
     </g>
    </g>
    <g id="line2d_38">
     <path d="M 54.25125 130.097809 
L 61.25125 130.097809 
L 68.25125 130.097809 
" style="fill: none; stroke: #1d9e75; stroke-width: 1.5; stroke-linecap: square"/>
    </g>
    <g id="text_22">
     <!-- blend -->
     <g transform="translate(73.85125 132.547809) scale(0.07 -0.07)">
      <defs>
       <path id="ArialMT-62" d="M 941 0 
L 419 0 
L 419 4581 
L 981 4581 
L 981 2947 
Q 1338 3394 1891 3394 
Q 2197 3394 2470 3270 
Q 2744 3147 2920 2923 
Q 3097 2700 3197 2384 
Q 3297 2069 3297 1709 
Q 3297 856 2875 390 
Q 2453 -75 1863 -75 
Q 1275 -75 941 416 
L 941 0 
z
M 934 1684 
Q 934 1088 1097 822 
Q 1363 388 1816 388 
Q 2184 388 2453 708 
Q 2722 1028 2722 1663 
Q 2722 2313 2464 2622 
Q 2206 2931 1841 2931 
Q 1472 2931 1203 2611 
Q 934 2291 934 1684 
z
" transform="scale(0.015625)"/>
      </defs>
      <use xlink:href="#ArialMT-62"/>
      <use xlink:href="#ArialMT-6c" transform="translate(55.615234 0)"/>
      <use xlink:href="#ArialMT-65" transform="translate(77.832031 0)"/>
      <use xlink:href="#ArialMT-6e" transform="translate(133.447266 0)"/>
      <use xlink:href="#ArialMT-64" transform="translate(189.0625 0)"/>
     </g>
    </g>
   </g>
  </g>
 </g>
 <defs>
  <clipPath id="p002220c612">
   <rect x="47.95125" y="7.555946" width="193.9225" height="132.683113"/>
  </clipPath>
 </defs>
</svg>
