<?xml version="1.0" encoding="utf-8" standalone="no"?>
<!DOCTYPE svg PUBLIC "-//W3C//DTD SVG 1.1//EN"
  "http://www.w3.org/Graphics/SVG/1.1/DTD/svg11.dtd">
<svg xmlns:xlink="http://www.w3.org/1999/xlink" width="249.07375pt" height="173.261459pt" viewBox="0 0 249.07375 173.261459" xmlns="http://www.w3.org/2000/svg" version="1.1">
 <metadata>
  <rdf:RDF xmlns:dc="http://purl.org/dc/elements/1.1/" xmlns:cc="http://creativecommons.org/ns#" xmlns:rdf="http://www.w3.org/1999/02/22-rdf-syntax-ns#">
   <cc:Work>
    <dc:type rdf:resource="http://purl.org/dc/dcmitype/StillImage"/>
    <dc:date>2026-03-22T21:29:21.717712</dc:date>
    <dc:format>image/svg+xml</dc:format>
    <dc:creator>
     <cc:Agent>
      <dc:title>Matplotlib v3.10.7, https://matplotlib.org/</dc:title>
     </cc:Agent>
    </dc:creator>
   </cc:Work>
  </rdf:RDF>
 </metadata>
 <defs>
  <style type="text/css">*{stroke-linejoin: round; stroke-linecap: butt}</style>
 </defs>
 <g id="figure_1">
  <g id="patch_1">
   <path d="M 0 173.261459 
L 249.07375 173.261459 
L 249.07375 0 
L 0 0 
z
" style="fill: #ffffff"/>
  </g>
  <g id="axes_1">
   <g id="patch_2">
    <path d="M 47.95125 140.237709 
L 241.87375 140.237709 
L 241.87375 7.827823 
L 47.95125 7.827823 
z
" style="fill: #ffffff"/>
   </g>
   <g id="FillBetweenPolyCollection_1">
    <defs>
     <path id="m21cb8c4e0d" d="M 47.95125 -147.506793 
L 47.95125 -145.356071 
L 51.991302 -156.589167 
L 56.031354 -157.811279 
L 60.071406 -158.924834 
L 64.111458 -158.876422 
L 68.15151 -158.64686 
L 72.191563 -158.341271 
L 76.231615 -158.135117 
L 80.271667 -157.938832 
L 84.311719 -157.409493 
L 88.351771 -156.283108 
L 92.391823 -155.135212 
L 96.431875 -154.593315 
L 100.471927 -152.94549 
L 104.511979 -152.754667 
L 108.552031 -152.229867 
L 112.592083 -151.407767 
L 116.632135 -150.646454 
L 120.672188 -150.189404 
L 124.71224 -149.688716 
L 128.752292 -148.832625 
L 132.792344 -146.908209 
L 136.832396 -146.185318 
L 140.872448 -145.051222 
L 144.9125 -144.511725 
L 148.952552 -143.711739 
L 152.992604 -143.256253 
L 157.032656 -142.400931 
L 161.072708 -142.065288 
L 165.11276 -140.761232 
L 169.152812 -139.787973 
L 173.192865 -139.691188 
L 177.232917 -138.878645 
L 181.272969 -138.802723 
L 185.313021 -137.470818 
L 189.353073 -137.118791 
L 193.393125 -136.30312 
L 197.433177 -135.54049 
L 201.473229 -135.233555 
L 205.513281 -134.047346 
L 209.553333 -133.290493 
L 213.593385 -133.268411 
L 217.633437 -132.503555 
L 221.67349 -131.699575 
L 225.713542 -130.928755 
L 229.753594 -130.304267 
L 233.793646 -129.846149 
L 237.833698 -129.334193 
L 241.87375 -128.678296 
L 241.87375 -131.28667 
L 241.87375 -131.28667 
L 237.833698 -131.716379 
L 233.793646 -132.434777 
L 229.753594 -132.780812 
L 225.713542 -133.71236 
L 221.67349 -134.139729 
L 217.633437 -134.537956 
L 213.593385 -135.112016 
L 209.553333 -135.837796 
L 205.513281 -136.443982 
L 201.473229 -137.336509 
L 197.433177 -137.757332 
L 193.393125 -138.607028 
L 189.353073 -138.880984 
L 185.313021 -139.867873 
L 181.272969 -140.940385 
L 177.232917 -141.194166 
L 173.192865 -142.070344 
L 169.152812 -142.681213 
L 165.11276 -143.075014 
L 161.072708 -143.813506 
L 157.032656 -144.66399 
L 152.992604 -145.264185 
L 148.952552 -146.674333 
L 144.9125 -147.551006 
L 140.872448 -147.807621 
L 136.832396 -149.053817 
L 132.792344 -149.895004 
L 128.752292 -151.207303 
L 124.71224 -151.738377 
L 120.672188 -153.231987 
L 116.632135 -154.021375 
L 112.592083 -154.20092 
L 108.552031 -154.669486 
L 104.511979 -154.590991 
L 100.471927 -155.381235 
L 96.431875 -156.286596 
L 92.391823 -157.622396 
L 88.351771 -158.496944 
L 84.311719 -159.441253 
L 80.271667 -160.04577 
L 76.231615 -160.444558 
L 72.191563 -161.090807 
L 68.15151 -161.299875 
L 64.111458 -161.588992 
L 60.071406 -160.684156 
L 56.031354 -160.398485 
L 51.991302 -159.200097 
L 47.95125 -147.506793 
z
" style="stroke: #888780; stroke-opacity: 0.25"/>
    </defs>
    <g clip-path="url(#pf9599e055f)">
     <use xlink:href="#m21cb8c4e0d" x="0" y="173.261459" style="fill: #888780; fill-opacity: 0.25; stroke: #888780; stroke-opacity: 0.25"/>
    </g>
   </g>
   <g id="FillBetweenPolyCollection_2">
    <defs>
     <path id="me092184098" d="M 47.95125 -147.506793 
L 47.95125 -145.356071 
L 51.991302 -156.589167 
L 56.031354 -157.811279 
L 60.071406 -158.924834 
L 64.111458 -158.876422 
L 68.15151 -158.64686 
L 72.191563 -158.341271 
L 76.231615 -158.135117 
L 80.271667 -157.938832 
L 84.311719 -157.409493 
L 88.351771 -156.283108 
L 92.391823 -155.135212 
L 96.431875 -154.593315 
L 100.471927 -152.94549 
L 104.511979 -152.754667 
L 108.552031 -152.229867 
L 112.592083 -151.407767 
L 116.632135 -150.646454 
L 120.672188 -150.189404 
L 124.71224 -149.688716 
L 128.752292 -148.832625 
L 132.792344 -146.908209 
L 136.832396 -146.185318 
L 140.872448 -145.051222 
L 144.9125 -144.511725 
L 148.952552 -143.711739 
L 152.992604 -143.256253 
L 157.032656 -142.400931 
L 161.072708 -142.065288 
L 165.11276 -140.761232 
L 169.152812 -139.787973 
L 173.192865 -139.691188 
L 177.232917 -138.878645 
L 181.272969 -138.802723 
L 185.313021 -137.470818 
L 189.353073 -137.118791 
L 193.393125 -136.30312 
L 197.433177 -135.54049 
L 201.473229 -135.233555 
L 205.513281 -134.047346 
L 209.553333 -133.290493 
L 213.593385 -133.268411 
L 217.633437 -132.503555 
L 221.67349 -131.699575 
L 225.713542 -130.928755 
L 229.753594 -130.304267 
L 233.793646 -129.846149 
L 237.833698 -129.334193 
L 241.87375 -128.678296 
L 241.87375 -131.28667 
L 241.87375 -131.28667 
L 237.833698 -131.716379 
L 233.793646 -132.434777 
L 229.753594 -132.780812 
L 225.713542 -133.71236 
L 221.67349 -134.139729 
L 217.633437 -134.537956 
L 213.593385 -135.112016 
L 209.553333 -135.837796 
L 205.513281 -136.443982 
L 201.473229 -137.336509 
L 197.433177 -137.757332 
L 193.393125 -138.607028 
L 189.353073 -138.880984 
L 185.313021 -139.867873 
L 181.272969 -140.940385 
L 177.232917 -141.194166 
L 173.192865 -142.070344 
L 169.152812 -142.681213 
L 165.11276 -143.075014 
L 161.072708 -143.813506 
L 157.032656 -144.66399 
L 152.992604 -145.264185 
L 148.952552 -146.674333 
L 144.9125 -147.551006 
L 140.872448 -147.807621 
L 136.832396 -149.053817 
L 132.792344 -149.895004 
L 128.752292 -151.207303 
L 124.71224 -151.738377 
L 120.672188 -153.231987 
L 116.632135 -154.021375 
L 112.592083 -154.20092 
L 108.552031 -154.669486 
L 104.511979 -154.590991 
L 100.471927 -155.381235 
L 96.431875 -156.286596 
L 92.391823 -157.622396 
L 88.351771 -158.496944 
L 84.311719 -159.441253 
L 80.271667 -160.04577 
L 76.231615 -160.444558 
L 72.191563 -161.090807 
L 68.15151 -161.299875 
L 64.111458 -161.588992 
L 60.071406 -160.684156 
L 56.031354 -160.398485 
L 51.991302 -159.200097 
L 47.95125 -147.506793 
z
" style="stroke: #378add; stroke-opacity: 0.25"/>
    </defs>
    <g clip-path="url(#pf9599e055f)">
     <use xlink:href="#me092184098" x="0" y="173.261459" style="fill: #378add; fill-opacity: 0.25; stroke: #378add; stroke-opacity: 0.25"/>
    </g>
   </g>
   <g id="FillBetweenPolyCollection_3">
    <defs>
     <path id="m5bcf69e338" d="M 47.95125 -149.149706 
L 47.95125 -146.230156 
L 51.991302 -158.579774 
L 56.031354 -160.217023 
L 60.071406 -159.16207 
L 64.111458 -158.188453 
L 68.15151 -157.337502 
L 72.191563 -155.740321 
L 76.231615 -153.922556 
L 80.271667 -152.673969 
L 84.311719 -151.285765 
L 88.351771 -150.277905 
L 92.391823 -148.641634 
L 96.431875 -146.586608 
L 100.471927 -145.553318 
L 104.511979 -144.314363 
L 108.552031 -142.8589 
L 112.592083 -142.199697 
L 116.632135 -140.206786 
L 120.672188 -139.344173 
L 124.71224 -138.410742 
L 128.752292 -136.745419 
L 132.792344 -135.83512 
L 136.832396 -134.017733 
L 140.872448 -133.00876 
L 144.9125 -132.347683 
L 148.952552 -131.310632 
L 152.992604 -130.394055 
L 157.032656 -130.219742 
L 161.072708 -129.495726 
L 165.11276 -128.74207 
L 169.152812 -127.957279 
L 173.192865 -127.026138 
L 177.232917 -125.653595 
L 181.272969 -125.52427 
L 185.313021 -124.740407 
L 189.353073 -124.714318 
L 193.393125 -124.203555 
L 197.433177 -124.340006 
L 201.473229 -123.699906 
L 205.513281 -123.534566 
L 209.553333 -122.723955 
L 213.593385 -122.412508 
L 217.633437 -121.71615 
L 221.67349 -121.308694 
L 225.713542 -120.62572 
L 229.753594 -120.308461 
L 233.793646 -120.373788 
L 237.833698 -120.042232 
L 241.87375 -119.889666 
L 241.87375 -120.984708 
L 241.87375 -120.984708 
L 237.833698 -121.306593 
L 233.793646 -121.421341 
L 229.753594 -121.764101 
L 225.713542 -122.279141 
L 221.67349 -122.577233 
L 217.633437 -123.593128 
L 213.593385 -123.889899 
L 209.553333 -124.137338 
L 205.513281 -124.758119 
L 201.473229 -125.441161 
L 197.433177 -126.139975 
L 193.393125 -126.915728 
L 189.353073 -127.160869 
L 185.313021 -127.669542 
L 181.272969 -128.465839 
L 177.232917 -128.967774 
L 173.192865 -129.605614 
L 169.152812 -130.4999 
L 165.11276 -130.668031 
L 161.072708 -131.414119 
L 157.032656 -132.636154 
L 152.992604 -133.442907 
L 148.952552 -134.621149 
L 144.9125 -135.268798 
L 140.872448 -136.91564 
L 136.832396 -137.55116 
L 132.792344 -138.278917 
L 128.752292 -139.117651 
L 124.71224 -140.411611 
L 120.672188 -141.572998 
L 116.632135 -142.664477 
L 112.592083 -144.563666 
L 108.552031 -145.790202 
L 104.511979 -147.205565 
L 100.471927 -149.022391 
L 96.431875 -149.81855 
L 92.391823 -151.603353 
L 88.351771 -153.026885 
L 84.311719 -155.046661 
L 80.271667 -156.991671 
L 76.231615 -158.718449 
L 72.191563 -160.728453 
L 68.15151 -161.579917 
L 64.111458 -162.075922 
L 60.071406 -162.618134 
L 56.031354 -163.070968 
L 51.991302 -161.383044 
L 47.95125 -149.149706 
z
" style="stroke: #ba7517; stroke-opacity: 0.25"/>
    </defs>
    <g clip-path="url(#pf9599e055f)">
     <use xlink:href="#m5bcf69e338" x="0" y="173.261459" style="fill: #ba7517; fill-opacity: 0.25; stroke: #ba7517; stroke-opacity: 0.25"/>
    </g>
   </g>
   <g id="FillBetweenPolyCollection_4">
    <defs>
     <path id="mf40193b191" d="M 47.95125 -148.93521 
L 47.95125 -145.85762 
L 51.991302 -157.57107 
L 56.031354 -160.117243 
L 60.071406 -160.031679 
L 64.111458 -159.577154 
L 68.15151 -159.252769 
L 72.191563 -157.576964 
L 76.231615 -155.527769 
L 80.271667 -154.755906 
L 84.311719 -153.811879 
L 88.351771 -151.752271 
L 92.391823 -150.088287 
L 96.431875 -148.376178 
L 100.471927 -146.618623 
L 104.511979 -145.28303 
L 108.552031 -143.000049 
L 112.592083 -142.457734 
L 116.632135 -141.81293 
L 120.672188 -140.014363 
L 124.71224 -139.07321 
L 128.752292 -138.508184 
L 132.792344 -137.636965 
L 136.832396 -136.141042 
L 140.872448 -134.556509 
L 144.9125 -133.489287 
L 148.952552 -132.689797 
L 152.992604 -131.934985 
L 157.032656 -131.219939 
L 161.072708 -130.290189 
L 165.11276 -129.627315 
L 169.152812 -128.822392 
L 173.192865 -127.991019 
L 177.232917 -127.142711 
L 181.272969 -126.632478 
L 185.313021 -125.744552 
L 189.353073 -124.74357 
L 193.393125 -124.01847 
L 197.433177 -123.26647 
L 201.473229 -122.312425 
L 205.513281 -122.342358 
L 209.553333 -120.94917 
L 213.593385 -120.441191 
L 217.633437 -120.019776 
L 221.67349 -119.79557 
L 225.713542 -118.955769 
L 229.753594 -118.273136 
L 233.793646 -117.403619 
L 237.833698 -116.747108 
L 241.87375 -115.994643 
L 241.87375 -118.024328 
L 241.87375 -118.024328 
L 237.833698 -118.735421 
L 233.793646 -119.277097 
L 229.753594 -119.7666 
L 225.713542 -120.583712 
L 221.67349 -120.825495 
L 217.633437 -121.461734 
L 213.593385 -122.029427 
L 209.553333 -122.482411 
L 205.513281 -123.70272 
L 201.473229 -124.054314 
L 197.433177 -124.986007 
L 193.393125 -126.019227 
L 189.353073 -127.203991 
L 185.313021 -128.41443 
L 181.272969 -128.764899 
L 177.232917 -129.292023 
L 173.192865 -129.384574 
L 169.152812 -130.318317 
L 165.11276 -130.731685 
L 161.072708 -132.014863 
L 157.032656 -132.753729 
L 152.992604 -133.715342 
L 148.952552 -134.685438 
L 144.9125 -136.008912 
L 140.872448 -136.948052 
L 136.832396 -137.928767 
L 132.792344 -139.914826 
L 128.752292 -141.226882 
L 124.71224 -142.012833 
L 120.672188 -142.22966 
L 116.632135 -144.049782 
L 112.592083 -144.599145 
L 108.552031 -146.37279 
L 104.511979 -148.432235 
L 100.471927 -149.633745 
L 96.431875 -150.256483 
L 92.391823 -152.388225 
L 88.351771 -154.379116 
L 84.311719 -156.730287 
L 80.271667 -158.178615 
L 76.231615 -158.793916 
L 72.191563 -159.965354 
L 68.15151 -161.586576 
L 64.111458 -162.014074 
L 60.071406 -163.079398 
L 56.031354 -162.575674 
L 51.991302 -160.654777 
L 47.95125 -148.93521 
z
" style="stroke: #1d9e75; stroke-opacity: 0.25"/>
    </defs>
    <g clip-path="url(#pf9599e055f)">
     <use xlink:href="#mf40193b191" x="0" y="173.261459" style="fill: #1d9e75; fill-opacity: 0.25; stroke: #1d9e75; stroke-opacity: 0.25"/>
    </g>
   </g>
   <g id="matplotlib.axis_1">
    <g id="xtick_1">
     <g id="line2d_1">
      <path d="M 47.95125 140.237709 
L 47.95125 7.827823 
" clip-path="url(#pf9599e055f)" style="fill: none; stroke: #b0b0b0; stroke-opacity: 0.3; stroke-width: 0.8; stroke-linecap: square"/>
     </g>
     <g id="line2d_2">
      <defs>
       <path id="mf005cc7ea7" d="M 0 0 
L 0 3.5 
" style="stroke: #000000; stroke-width: 0.8"/>
      </defs>
      <g>
       <use xlink:href="#mf005cc7ea7" x="47.95125" y="140.237709" style="stroke: #000000; stroke-width: 0.8"/>
      </g>
     </g>
     <g id="text_1">
      <!-- 0 -->
      <g transform="translate(45.726875 152.963959) scale(0.08 -0.08)">
       <defs>
        <path id="ArialMT-30" d="M 266 2259 
Q 266 3072 433 3567 
Q 600 4063 929 4331 
Q 1259 4600 1759 4600 
Q 2128 4600 2406 4451 
Q 2684 4303 2865 4023 
Q 3047 3744 3150 3342 
Q 3253 2941 3253 2259 
Q 3253 1453 3087 958 
Q 2922 463 2592 192 
Q 2263 -78 1759 -78 
Q 1097 -78 719 397 
Q 266 969 266 2259 
z
M 844 2259 
Q 844 1131 1108 757 
Q 1372 384 1759 384 
Q 2147 384 2411 759 
Q 2675 1134 2675 2259 
Q 2675 3391 2411 3762 
Q 2147 4134 1753 4134 
Q 1366 4134 1134 3806 
Q 844 3388 844 2259 
z
" transform="scale(0.015625)"/>
       </defs>
       <use xlink:href="#ArialMT-30"/>
      </g>
     </g>
    </g>
    <g id="xtick_2">
     <g id="line2d_3">
      <path d="M 88.351771 140.237709 
L 88.351771 7.827823 
" clip-path="url(#pf9599e055f)" style="fill: none; stroke: #b0b0b0; stroke-opacity: 0.3; stroke-width: 0.8; stroke-linecap: square"/>
     </g>
     <g id="line2d_4">
      <g>
       <use xlink:href="#mf005cc7ea7" x="88.351771" y="140.237709" style="stroke: #000000; stroke-width: 0.8"/>
      </g>
     </g>
     <g id="text_2">
      <!-- 10 -->
      <g transform="translate(83.903021 152.963959) scale(0.08 -0.08)">
       <defs>
        <path id="ArialMT-31" d="M 2384 0 
L 1822 0 
L 1822 3584 
Q 1619 3391 1289 3197 
Q 959 3003 697 2906 
L 697 3450 
Q 1169 3672 1522 3987 
Q 1875 4303 2022 4600 
L 2384 4600 
L 2384 0 
z
" transform="scale(0.015625)"/>
       </defs>
       <use xlink:href="#ArialMT-31"/>
       <use xlink:href="#ArialMT-30" transform="translate(55.615234 0)"/>
      </g>
     </g>
    </g>
    <g id="xtick_3">
     <g id="line2d_5">
      <path d="M 128.752292 140.237709 
L 128.752292 7.827823 
" clip-path="url(#pf9599e055f)" style="fill: none; stroke: #b0b0b0; stroke-opacity: 0.3; stroke-width: 0.8; stroke-linecap: square"/>
     </g>
     <g id="line2d_6">
      <g>
       <use xlink:href="#mf005cc7ea7" x="128.752292" y="140.237709" style="stroke: #000000; stroke-width: 0.8"/>
      </g>
     </g>
     <g id="text_3">
      <!-- 20 -->
      <g transform="translate(124.303542 152.963959) scale(0.08 -0.08)">
       <defs>
        <path id="ArialMT-32" d="M 3222 541 
L 3222 0 
L 194 0 
Q 188 203 259 391 
Q 375 700 629 1000 
Q 884 1300 1366 1694 
Q 2113 2306 2375 2664 
Q 2638 3022 2638 3341 
Q 2638 3675 2398 3904 
Q 2159 4134 1775 4134 
Q 1369 4134 1125 3890 
Q 881 3647 878 3216 
L 300 3275 
Q 359 3922 746 4261 
Q 1134 4600 1788 4600 
Q 2447 4600 2831 4234 
Q 3216 3869 3216 3328 
Q 3216 3053 3103 2787 
Q 2991 2522 2730 2228 
Q 2469 1934 1863 1422 
Q 1356 997 1212 845 
Q 1069 694 975 541 
L 3222 541 
z
" transform="scale(0.015625)"/>
       </defs>
       <use xlink:href="#ArialMT-32"/>
       <use xlink:href="#ArialMT-30" transform="translate(55.615234 0)"/>
      </g>
     </g>
    </g>
    <g id="xtick_4">
     <g id="line2d_7">
      <path d="M 169.152812 140.237709 
L 169.152812 7.827823 
" clip-path="url(#pf9599e055f)" style="fill: none; stroke: #b0b0b0; stroke-opacity: 0.3; stroke-width: 0.8; stroke-linecap: square"/>
     </g>
     <g id="line2d_8">
      <g>
       <use xlink:href="#mf005cc7ea7" x="169.152812" y="140.237709" style="stroke: #000000; stroke-width: 0.8"/>
      </g>
     </g>
     <g id="text_4">
      <!-- 30 -->
      <g transform="translate(164.704062 152.963959) scale(0.08 -0.08)">
       <defs>
        <path id="ArialMT-33" d="M 269 1209 
L 831 1284 
Q 928 806 1161 595 
Q 1394 384 1728 384 
Q 2125 384 2398 659 
Q 2672 934 2672 1341 
Q 2672 1728 2419 1979 
Q 2166 2231 1775 2231 
Q 1616 2231 1378 2169 
L 1441 2663 
Q 1497 2656 1531 2656 
Q 1891 2656 2178 2843 
Q 2466 3031 2466 3422 
Q 2466 3731 2256 3934 
Q 2047 4138 1716 4138 
Q 1388 4138 1169 3931 
Q 950 3725 888 3313 
L 325 3413 
Q 428 3978 793 4289 
Q 1159 4600 1703 4600 
Q 2078 4600 2393 4439 
Q 2709 4278 2876 4000 
Q 3044 3722 3044 3409 
Q 3044 3113 2884 2869 
Q 2725 2625 2413 2481 
Q 2819 2388 3044 2092 
Q 3269 1797 3269 1353 
Q 3269 753 2831 336 
Q 2394 -81 1725 -81 
Q 1122 -81 723 278 
Q 325 638 269 1209 
z
" transform="scale(0.015625)"/>
       </defs>
       <use xlink:href="#ArialMT-33"/>
       <use xlink:href="#ArialMT-30" transform="translate(55.615234 0)"/>
      </g>
     </g>
    </g>
    <g id="xtick_5">
     <g id="line2d_9">
      <path d="M 209.553333 140.237709 
L 209.553333 7.827823 
" clip-path="url(#pf9599e055f)" style="fill: none; stroke: #b0b0b0; stroke-opacity: 0.3; stroke-width: 0.8; stroke-linecap: square"/>
     </g>
     <g id="line2d_10">
      <g>
       <use xlink:href="#mf005cc7ea7" x="209.553333" y="140.237709" style="stroke: #000000; stroke-width: 0.8"/>
      </g>
     </g>
     <g id="text_5">
      <!-- 40 -->
      <g transform="translate(205.104583 152.963959) scale(0.08 -0.08)">
       <defs>
        <path id="ArialMT-34" d="M 2069 0 
L 2069 1097 
L 81 1097 
L 81 1613 
L 2172 4581 
L 2631 4581 
L 2631 1613 
L 3250 1613 
L 3250 1097 
L 2631 1097 
L 2631 0 
L 2069 0 
z
M 2069 1613 
L 2069 3678 
L 634 1613 
L 2069 1613 
z
" transform="scale(0.015625)"/>
       </defs>
       <use xlink:href="#ArialMT-34"/>
       <use xlink:href="#ArialMT-30" transform="translate(55.615234 0)"/>
      </g>
     </g>
    </g>
    <g id="text_6">
     <!-- Time (hours) -->
     <g transform="translate(122.394375 164.377709) scale(0.08 -0.08)">
      <defs>
       <path id="ArialMT-54" d="M 1659 0 
L 1659 4041 
L 150 4041 
L 150 4581 
L 3781 4581 
L 3781 4041 
L 2266 4041 
L 2266 0 
L 1659 0 
z
" transform="scale(0.015625)"/>
       <path id="ArialMT-69" d="M 425 3934 
L 425 4581 
L 988 4581 
L 988 3934 
L 425 3934 
z
M 425 0 
L 425 3319 
L 988 3319 
L 988 0 
L 425 0 
z
" transform="scale(0.015625)"/>
       <path id="ArialMT-6d" d="M 422 0 
L 422 3319 
L 925 3319 
L 925 2853 
Q 1081 3097 1340 3245 
Q 1600 3394 1931 3394 
Q 2300 3394 2536 3241 
Q 2772 3088 2869 2813 
Q 3263 3394 3894 3394 
Q 4388 3394 4653 3120 
Q 4919 2847 4919 2278 
L 4919 0 
L 4359 0 
L 4359 2091 
Q 4359 2428 4304 2576 
Q 4250 2725 4106 2815 
Q 3963 2906 3769 2906 
Q 3419 2906 3187 2673 
Q 2956 2441 2956 1928 
L 2956 0 
L 2394 0 
L 2394 2156 
Q 2394 2531 2256 2718 
Q 2119 2906 1806 2906 
Q 1569 2906 1367 2781 
Q 1166 2656 1075 2415 
Q 984 2175 984 1722 
L 984 0 
L 422 0 
z
" transform="scale(0.015625)"/>
       <path id="ArialMT-65" d="M 2694 1069 
L 3275 997 
Q 3138 488 2766 206 
Q 2394 -75 1816 -75 
Q 1088 -75 661 373 
Q 234 822 234 1631 
Q 234 2469 665 2931 
Q 1097 3394 1784 3394 
Q 2450 3394 2872 2941 
Q 3294 2488 3294 1666 
Q 3294 1616 3291 1516 
L 816 1516 
Q 847 969 1125 678 
Q 1403 388 1819 388 
Q 2128 388 2347 550 
Q 2566 713 2694 1069 
z
M 847 1978 
L 2700 1978 
Q 2663 2397 2488 2606 
Q 2219 2931 1791 2931 
Q 1403 2931 1139 2672 
Q 875 2413 847 1978 
z
" transform="scale(0.015625)"/>
       <path id="ArialMT-20" transform="scale(0.015625)"/>
       <path id="ArialMT-28" d="M 1497 -1347 
Q 1031 -759 709 28 
Q 388 816 388 1659 
Q 388 2403 628 3084 
Q 909 3875 1497 4659 
L 1900 4659 
Q 1522 4009 1400 3731 
Q 1209 3300 1100 2831 
Q 966 2247 966 1656 
Q 966 153 1900 -1347 
L 1497 -1347 
z
" transform="scale(0.015625)"/>
       <path id="ArialMT-68" d="M 422 0 
L 422 4581 
L 984 4581 
L 984 2938 
Q 1378 3394 1978 3394 
Q 2347 3394 2619 3248 
Q 2891 3103 3008 2847 
Q 3125 2591 3125 2103 
L 3125 0 
L 2563 0 
L 2563 2103 
Q 2563 2525 2380 2717 
Q 2197 2909 1863 2909 
Q 1613 2909 1392 2779 
Q 1172 2650 1078 2428 
Q 984 2206 984 1816 
L 984 0 
L 422 0 
z
" transform="scale(0.015625)"/>
       <path id="ArialMT-6f" d="M 213 1659 
Q 213 2581 725 3025 
Q 1153 3394 1769 3394 
Q 2453 3394 2887 2945 
Q 3322 2497 3322 1706 
Q 3322 1066 3130 698 
Q 2938 331 2570 128 
Q 2203 -75 1769 -75 
Q 1072 -75 642 372 
Q 213 819 213 1659 
z
M 791 1659 
Q 791 1022 1069 705 
Q 1347 388 1769 388 
Q 2188 388 2466 706 
Q 2744 1025 2744 1678 
Q 2744 2294 2464 2611 
Q 2184 2928 1769 2928 
Q 1347 2928 1069 2612 
Q 791 2297 791 1659 
z
" transform="scale(0.015625)"/>
       <path id="ArialMT-75" d="M 2597 0 
L 2597 488 
Q 2209 -75 1544 -75 
Q 1250 -75 995 37 
Q 741 150 617 320 
Q 494 491 444 738 
Q 409 903 409 1263 
L 409 3319 
L 972 3319 
L 972 1478 
Q 972 1038 1006 884 
Q 1059 663 1231 536 
Q 1403 409 1656 409 
Q 1909 409 2131 539 
Q 2353 669 2445 892 
Q 2538 1116 2538 1541 
L 2538 3319 
L 3100 3319 
L 3100 0 
L 2597 0 
z
" transform="scale(0.015625)"/>
       <path id="ArialMT-72" d="M 416 0 
L 416 3319 
L 922 3319 
L 922 2816 
Q 1116 3169 1280 3281 
Q 1444 3394 1641 3394 
Q 1925 3394 2219 3213 
L 2025 2691 
Q 1819 2813 1613 2813 
Q 1428 2813 1281 2702 
Q 1134 2591 1072 2394 
Q 978 2094 978 1738 
L 978 0 
L 416 0 
z
" transform="scale(0.015625)"/>
       <path id="ArialMT-73" d="M 197 991 
L 753 1078 
Q 800 744 1014 566 
Q 1228 388 1613 388 
Q 2000 388 2187 545 
Q 2375 703 2375 916 
Q 2375 1106 2209 1216 
Q 2094 1291 1634 1406 
Q 1016 1563 777 1677 
Q 538 1791 414 1992 
Q 291 2194 291 2438 
Q 291 2659 392 2848 
Q 494 3038 669 3163 
Q 800 3259 1026 3326 
Q 1253 3394 1513 3394 
Q 1903 3394 2198 3281 
Q 2494 3169 2634 2976 
Q 2775 2784 2828 2463 
L 2278 2388 
Q 2241 2644 2061 2787 
Q 1881 2931 1553 2931 
Q 1166 2931 1000 2803 
Q 834 2675 834 2503 
Q 834 2394 903 2306 
Q 972 2216 1119 2156 
Q 1203 2125 1616 2013 
Q 2213 1853 2448 1751 
Q 2684 1650 2818 1456 
Q 2953 1263 2953 975 
Q 2953 694 2789 445 
Q 2625 197 2315 61 
Q 2006 -75 1616 -75 
Q 969 -75 630 194 
Q 291 463 197 991 
z
" transform="scale(0.015625)"/>
       <path id="ArialMT-29" d="M 791 -1347 
L 388 -1347 
Q 1322 153 1322 1656 
Q 1322 2244 1188 2822 
Q 1081 3291 891 3722 
Q 769 4003 388 4659 
L 791 4659 
Q 1378 3875 1659 3084 
Q 1900 2403 1900 1659 
Q 1900 816 1576 28 
Q 1253 -759 791 -1347 
z
" transform="scale(0.015625)"/>
      </defs>
      <use xlink:href="#ArialMT-54"/>
      <use xlink:href="#ArialMT-69" transform="translate(57.333984 0)"/>
      <use xlink:href="#ArialMT-6d" transform="translate(79.550781 0)"/>
      <use xlink:href="#ArialMT-65" transform="translate(162.851562 0)"/>
      <use xlink:href="#ArialMT-20" transform="translate(218.466797 0)"/>
      <use xlink:href="#ArialMT-28" transform="translate(246.25 0)"/>
      <use xlink:href="#ArialMT-68" transform="translate(279.550781 0)"/>
      <use xlink:href="#ArialMT-6f" transform="translate(335.166016 0)"/>
      <use xlink:href="#ArialMT-75" transform="translate(390.78125 0)"/>
      <use xlink:href="#ArialMT-72" transform="translate(446.396484 0)"/>
      <use xlink:href="#ArialMT-73" transform="translate(479.697266 0)"/>
      <use xlink:href="#ArialMT-29" transform="translate(529.697266 0)"/>
     </g>
    </g>
   </g>
   <g id="matplotlib.axis_2">
    <g id="ytick_1">
     <g id="line2d_11">
      <path d="M 47.95125 140.237709 
L 241.87375 140.237709 
" clip-path="url(#pf9599e055f)" style="fill: none; stroke: #b0b0b0; stroke-opacity: 0.3; stroke-width: 0.8; stroke-linecap: square"/>
     </g>
     <g id="line2d_12">
      <defs>
       <path id="mfd6ea19312" d="M 0 0 
L -3.5 0 
" style="stroke: #000000; stroke-width: 0.8"/>
      </defs>
      <g>
       <use xlink:href="#mfd6ea19312" x="47.95125" y="140.237709" style="stroke: #000000; stroke-width: 0.8"/>
      </g>
     </g>
     <g id="text_7">
      <!-- 0 -->
      <g transform="translate(36.5025 143.100834) scale(0.08 -0.08)">
       <use xlink:href="#ArialMT-30"/>
      </g>
     </g>
    </g>
    <g id="ytick_2">
     <g id="line2d_13">
      <path d="M 47.95125 118.541945 
L 241.87375 118.541945 
" clip-path="url(#pf9599e055f)" style="fill: none; stroke: #b0b0b0; stroke-opacity: 0.3; stroke-width: 0.8; stroke-linecap: square"/>
     </g>
     <g id="line2d_14">
      <g>
       <use xlink:href="#mfd6ea19312" x="47.95125" y="118.541945" style="stroke: #000000; stroke-width: 0.8"/>
      </g>
     </g>
     <g id="text_8">
      <!-- 2000 -->
      <g transform="translate(23.15625 121.40507) scale(0.08 -0.08)">
       <use xlink:href="#ArialMT-32"/>
       <use xlink:href="#ArialMT-30" transform="translate(55.615234 0)"/>
       <use xlink:href="#ArialMT-30" transform="translate(111.230469 0)"/>
       <use xlink:href="#ArialMT-30" transform="translate(166.845703 0)"/>
      </g>
     </g>
    </g>
    <g id="ytick_3">
     <g id="line2d_15">
      <path d="M 47.95125 96.846181 
L 241.87375 96.846181 
" clip-path="url(#pf9599e055f)" style="fill: none; stroke: #b0b0b0; stroke-opacity: 0.3; stroke-width: 0.8; stroke-linecap: square"/>
     </g>
     <g id="line2d_16">
      <g>
       <use xlink:href="#mfd6ea19312" x="47.95125" y="96.846181" style="stroke: #000000; stroke-width: 0.8"/>
      </g>
     </g>
     <g id="text_9">
      <!-- 4000 -->
      <g transform="translate(23.15625 99.709306) scale(0.08 -0.08)">
       <use xlink:href="#ArialMT-34"/>
       <use xlink:href="#ArialMT-30" transform="translate(55.615234 0)"/>
       <use xlink:href="#ArialMT-30" transform="translate(111.230469 0)"/>
       <use xlink:href="#ArialMT-30" transform="translate(166.845703 0)"/>
      </g>
     </g>
    </g>
    <g id="ytick_4">
     <g id="line2d_17">
      <path d="M 47.95125 75.150417 
L 241.87375 75.150417 
" clip-path="url(#pf9599e055f)" style="fill: none; stroke: #b0b0b0; stroke-opacity: 0.3; stroke-width: 0.8; stroke-linecap: square"/>
     </g>
     <g id="line2d_18">
      <g>
       <use xlink:href="#mfd6ea19312" x="47.95125" y="75.150417" style="stroke: #000000; stroke-width: 0.8"/>
      </g>
     </g>
     <g id="text_10">
      <!-- 6000 -->
      <g transform="translate(23.15625 78.013542) scale(0.08 -0.08)">
       <defs>
        <path id="ArialMT-36" d="M 3184 3459 
L 2625 3416 
Q 2550 3747 2413 3897 
Q 2184 4138 1850 4138 
Q 1581 4138 1378 3988 
Q 1113 3794 959 3422 
Q 806 3050 800 2363 
Q 1003 2672 1297 2822 
Q 1591 2972 1913 2972 
Q 2475 2972 2870 2558 
Q 3266 2144 3266 1488 
Q 3266 1056 3080 686 
Q 2894 316 2569 119 
Q 2244 -78 1831 -78 
Q 1128 -78 684 439 
Q 241 956 241 2144 
Q 241 3472 731 4075 
Q 1159 4600 1884 4600 
Q 2425 4600 2770 4297 
Q 3116 3994 3184 3459 
z
M 888 1484 
Q 888 1194 1011 928 
Q 1134 663 1356 523 
Q 1578 384 1822 384 
Q 2178 384 2434 671 
Q 2691 959 2691 1453 
Q 2691 1928 2437 2201 
Q 2184 2475 1800 2475 
Q 1419 2475 1153 2201 
Q 888 1928 888 1484 
z
" transform="scale(0.015625)"/>
       </defs>
       <use xlink:href="#ArialMT-36"/>
       <use xlink:href="#ArialMT-30" transform="translate(55.615234 0)"/>
       <use xlink:href="#ArialMT-30" transform="translate(111.230469 0)"/>
       <use xlink:href="#ArialMT-30" transform="translate(166.845703 0)"/>
      </g>
     </g>
    </g>
    <g id="ytick_5">
     <g id="line2d_19">
      <path d="M 47.95125 53.454653 
L 241.87375 53.454653 
" clip-path="url(#pf9599e055f)" style="fill: none; stroke: #b0b0b0; stroke-opacity: 0.3; stroke-width: 0.8; stroke-linecap: square"/>
     </g>
     <g id="line2d_20">
      <g>
       <use xlink:href="#mfd6ea19312" x="47.95125" y="53.454653" style="stroke: #000000; stroke-width: 0.8"/>
      </g>
     </g>
     <g id="text_11">
      <!-- 8000 -->
      <g transform="translate(23.15625 56.317778) scale(0.08 -0.08)">
       <defs>
        <path id="ArialMT-38" d="M 1131 2484 
Q 781 2613 612 2850 
Q 444 3088 444 3419 
Q 444 3919 803 4259 
Q 1163 4600 1759 4600 
Q 2359 4600 2725 4251 
Q 3091 3903 3091 3403 
Q 3091 3084 2923 2848 
Q 2756 2613 2416 2484 
Q 2838 2347 3058 2040 
Q 3278 1734 3278 1309 
Q 3278 722 2862 322 
Q 2447 -78 1769 -78 
Q 1091 -78 675 323 
Q 259 725 259 1325 
Q 259 1772 486 2073 
Q 713 2375 1131 2484 
z
M 1019 3438 
Q 1019 3113 1228 2906 
Q 1438 2700 1772 2700 
Q 2097 2700 2305 2904 
Q 2513 3109 2513 3406 
Q 2513 3716 2298 3927 
Q 2084 4138 1766 4138 
Q 1444 4138 1231 3931 
Q 1019 3725 1019 3438 
z
M 838 1322 
Q 838 1081 952 856 
Q 1066 631 1291 507 
Q 1516 384 1775 384 
Q 2178 384 2440 643 
Q 2703 903 2703 1303 
Q 2703 1709 2433 1975 
Q 2163 2241 1756 2241 
Q 1359 2241 1098 1978 
Q 838 1716 838 1322 
z
" transform="scale(0.015625)"/>
       </defs>
       <use xlink:href="#ArialMT-38"/>
       <use xlink:href="#ArialMT-30" transform="translate(55.615234 0)"/>
       <use xlink:href="#ArialMT-30" transform="translate(111.230469 0)"/>
       <use xlink:href="#ArialMT-30" transform="translate(166.845703 0)"/>
      </g>
     </g>
    </g>
    <g id="ytick_6">
     <g id="line2d_21">
      <path d="M 47.95125 31.758889 
L 241.87375 31.758889 
" clip-path="url(#pf9599e055f)" style="fill: none; stroke: #b0b0b0; stroke-opacity: 0.3; stroke-width: 0.8; stroke-linecap: square"/>
     </g>
     <g id="line2d_22">
      <g>
       <use xlink:href="#mfd6ea19312" x="47.95125" y="31.758889" style="stroke: #000000; stroke-width: 0.8"/>
      </g>
     </g>
     <g id="text_12">
      <!-- 10000 -->
      <g transform="translate(18.7075 34.622014) scale(0.08 -0.08)">
       <use xlink:href="#ArialMT-31"/>
       <use xlink:href="#ArialMT-30" transform="translate(55.615234 0)"/>
       <use xlink:href="#ArialMT-30" transform="translate(111.230469 0)"/>
       <use xlink:href="#ArialMT-30" transform="translate(166.845703 0)"/>
       <use xlink:href="#ArialMT-30" transform="translate(222.460938 0)"/>
      </g>
     </g>
    </g>
    <g id="ytick_7">
     <g id="line2d_23">
      <path d="M 47.95125 10.063125 
L 241.87375 10.063125 
" clip-path="url(#pf9599e055f)" style="fill: none; stroke: #b0b0b0; stroke-opacity: 0.3; stroke-width: 0.8; stroke-linecap: square"/>
     </g>
     <g id="line2d_24">
      <g>
       <use xlink:href="#mfd6ea19312" x="47.95125" y="10.063125" style="stroke: #000000; stroke-width: 0.8"/>
      </g>
     </g>
     <g id="text_13">
      <!-- 12000 -->
      <g transform="translate(18.7075 12.92625) scale(0.08 -0.08)">
       <use xlink:href="#ArialMT-31"/>
       <use xlink:href="#ArialMT-32" transform="translate(55.615234 0)"/>
       <use xlink:href="#ArialMT-30" transform="translate(111.230469 0)"/>
       <use xlink:href="#ArialMT-30" transform="translate(166.845703 0)"/>
       <use xlink:href="#ArialMT-30" transform="translate(222.460938 0)"/>
      </g>
     </g>
    </g>
    <g id="text_14">
     <!-- Mean distance from source (km) -->
     <g transform="translate(13.02375 131.380266) rotate(-90) scale(0.08 -0.08)">
      <defs>
       <path id="ArialMT-4d" d="M 475 0 
L 475 4581 
L 1388 4581 
L 2472 1338 
Q 2622 884 2691 659 
Q 2769 909 2934 1394 
L 4031 4581 
L 4847 4581 
L 4847 0 
L 4263 0 
L 4263 3834 
L 2931 0 
L 2384 0 
L 1059 3900 
L 1059 0 
L 475 0 
z
" transform="scale(0.015625)"/>
       <path id="ArialMT-61" d="M 2588 409 
Q 2275 144 1986 34 
Q 1697 -75 1366 -75 
Q 819 -75 525 192 
Q 231 459 231 875 
Q 231 1119 342 1320 
Q 453 1522 633 1644 
Q 813 1766 1038 1828 
Q 1203 1872 1538 1913 
Q 2219 1994 2541 2106 
Q 2544 2222 2544 2253 
Q 2544 2597 2384 2738 
Q 2169 2928 1744 2928 
Q 1347 2928 1158 2789 
Q 969 2650 878 2297 
L 328 2372 
Q 403 2725 575 2942 
Q 747 3159 1072 3276 
Q 1397 3394 1825 3394 
Q 2250 3394 2515 3294 
Q 2781 3194 2906 3042 
Q 3031 2891 3081 2659 
Q 3109 2516 3109 2141 
L 3109 1391 
Q 3109 606 3145 398 
Q 3181 191 3288 0 
L 2700 0 
Q 2613 175 2588 409 
z
M 2541 1666 
Q 2234 1541 1622 1453 
Q 1275 1403 1131 1340 
Q 988 1278 909 1158 
Q 831 1038 831 891 
Q 831 666 1001 516 
Q 1172 366 1500 366 
Q 1825 366 2078 508 
Q 2331 650 2450 897 
Q 2541 1088 2541 1459 
L 2541 1666 
z
" transform="scale(0.015625)"/>
       <path id="ArialMT-6e" d="M 422 0 
L 422 3319 
L 928 3319 
L 928 2847 
Q 1294 3394 1984 3394 
Q 2284 3394 2536 3286 
Q 2788 3178 2913 3003 
Q 3038 2828 3088 2588 
Q 3119 2431 3119 2041 
L 3119 0 
L 2556 0 
L 2556 2019 
Q 2556 2363 2490 2533 
Q 2425 2703 2258 2804 
Q 2091 2906 1866 2906 
Q 1506 2906 1245 2678 
Q 984 2450 984 1813 
L 984 0 
L 422 0 
z
" transform="scale(0.015625)"/>
       <path id="ArialMT-64" d="M 2575 0 
L 2575 419 
Q 2259 -75 1647 -75 
Q 1250 -75 917 144 
Q 584 363 401 755 
Q 219 1147 219 1656 
Q 219 2153 384 2558 
Q 550 2963 881 3178 
Q 1213 3394 1622 3394 
Q 1922 3394 2156 3267 
Q 2391 3141 2538 2938 
L 2538 4581 
L 3097 4581 
L 3097 0 
L 2575 0 
z
M 797 1656 
Q 797 1019 1065 703 
Q 1334 388 1700 388 
Q 2069 388 2326 689 
Q 2584 991 2584 1609 
Q 2584 2291 2321 2609 
Q 2059 2928 1675 2928 
Q 1300 2928 1048 2622 
Q 797 2316 797 1656 
z
" transform="scale(0.015625)"/>
       <path id="ArialMT-74" d="M 1650 503 
L 1731 6 
Q 1494 -44 1306 -44 
Q 1000 -44 831 53 
Q 663 150 594 308 
Q 525 466 525 972 
L 525 2881 
L 113 2881 
L 113 3319 
L 525 3319 
L 525 4141 
L 1084 4478 
L 1084 3319 
L 1650 3319 
L 1650 2881 
L 1084 2881 
L 1084 941 
Q 1084 700 1114 631 
Q 1144 563 1211 522 
Q 1278 481 1403 481 
Q 1497 481 1650 503 
z
" transform="scale(0.015625)"/>
       <path id="ArialMT-63" d="M 2588 1216 
L 3141 1144 
Q 3050 572 2676 248 
Q 2303 -75 1759 -75 
Q 1078 -75 664 370 
Q 250 816 250 1647 
Q 250 2184 428 2587 
Q 606 2991 970 3192 
Q 1334 3394 1763 3394 
Q 2303 3394 2647 3120 
Q 2991 2847 3088 2344 
L 2541 2259 
Q 2463 2594 2264 2762 
Q 2066 2931 1784 2931 
Q 1359 2931 1093 2626 
Q 828 2322 828 1663 
Q 828 994 1084 691 
Q 1341 388 1753 388 
Q 2084 388 2306 591 
Q 2528 794 2588 1216 
z
" transform="scale(0.015625)"/>
       <path id="ArialMT-66" d="M 556 0 
L 556 2881 
L 59 2881 
L 59 3319 
L 556 3319 
L 556 3672 
Q 556 4006 616 4169 
Q 697 4388 901 4523 
Q 1106 4659 1475 4659 
Q 1713 4659 2000 4603 
L 1916 4113 
Q 1741 4144 1584 4144 
Q 1328 4144 1222 4034 
Q 1116 3925 1116 3625 
L 1116 3319 
L 1763 3319 
L 1763 2881 
L 1116 2881 
L 1116 0 
L 556 0 
z
" transform="scale(0.015625)"/>
       <path id="ArialMT-6b" d="M 425 0 
L 425 4581 
L 988 4581 
L 988 1969 
L 2319 3319 
L 3047 3319 
L 1778 2088 
L 3175 0 
L 2481 0 
L 1384 1697 
L 988 1316 
L 988 0 
L 425 0 
z
" transform="scale(0.015625)"/>
      </defs>
      <use xlink:href="#ArialMT-4d"/>
      <use xlink:href="#ArialMT-65" transform="translate(83.300781 0)"/>
      <use xlink:href="#ArialMT-61" transform="translate(138.916016 0)"/>
      <use xlink:href="#ArialMT-6e" transform="translate(194.53125 0)"/>
      <use xlink:href="#ArialMT-20" transform="translate(250.146484 0)"/>
      <use xlink:href="#ArialMT-64" transform="translate(277.929688 0)"/>
      <use xlink:href="#ArialMT-69" transform="translate(333.544922 0)"/>
      <use xlink:href="#ArialMT-73" transform="translate(355.761719 0)"/>
      <use xlink:href="#ArialMT-74" transform="translate(405.761719 0)"/>
      <use xlink:href="#ArialMT-61" transform="translate(433.544922 0)"/>
      <use xlink:href="#ArialMT-6e" transform="translate(489.160156 0)"/>
      <use xlink:href="#ArialMT-63" transform="translate(544.775391 0)"/>
      <use xlink:href="#ArialMT-65" transform="translate(594.775391 0)"/>
      <use xlink:href="#ArialMT-20" transform="translate(650.390625 0)"/>
      <use xlink:href="#ArialMT-66" transform="translate(678.173828 0)"/>
      <use xlink:href="#ArialMT-72" transform="translate(705.957031 0)"/>
      <use xlink:href="#ArialMT-6f" transform="translate(739.257812 0)"/>
      <use xlink:href="#ArialMT-6d" transform="translate(794.873047 0)"/>
      <use xlink:href="#ArialMT-20" transform="translate(878.173828 0)"/>
      <use xlink:href="#ArialMT-73" transform="translate(905.957031 0)"/>
      <use xlink:href="#ArialMT-6f" transform="translate(955.957031 0)"/>
      <use xlink:href="#ArialMT-75" transform="translate(1011.572266 0)"/>
      <use xlink:href="#ArialMT-72" transform="translate(1067.1875 0)"/>
      <use xlink:href="#ArialMT-63" transform="translate(1100.488281 0)"/>
      <use xlink:href="#ArialMT-65" transform="translate(1150.488281 0)"/>
      <use xlink:href="#ArialMT-20" transform="translate(1206.103516 0)"/>
      <use xlink:href="#ArialMT-28" transform="translate(1233.886719 0)"/>
      <use xlink:href="#ArialMT-6b" transform="translate(1267.1875 0)"/>
      <use xlink:href="#ArialMT-6d" transform="translate(1317.1875 0)"/>
      <use xlink:href="#ArialMT-29" transform="translate(1400.488281 0)"/>
     </g>
    </g>
   </g>
   <g id="line2d_25">
    <path d="M 47.95125 26.830027 
L 51.991302 15.366827 
L 56.031354 14.156576 
L 60.071406 13.456964 
L 64.111458 13.028752 
L 68.15151 13.288091 
L 72.191563 13.54542 
L 76.231615 13.971621 
L 80.271667 14.269158 
L 84.311719 14.836086 
L 88.351771 15.871433 
L 92.391823 16.882655 
L 96.431875 17.821504 
L 100.471927 19.098096 
L 104.511979 19.58863 
L 108.552031 19.811782 
L 112.592083 20.457115 
L 116.632135 20.927544 
L 120.672188 21.550763 
L 124.71224 22.547912 
L 128.752292 23.241494 
L 132.792344 24.859852 
L 136.832396 25.641891 
L 140.872448 26.832038 
L 144.9125 27.230093 
L 148.952552 28.068423 
L 152.992604 29.00124 
L 157.032656 29.728998 
L 161.072708 30.322062 
L 165.11276 31.343336 
L 169.152812 32.026866 
L 173.192865 32.380693 
L 177.232917 33.225054 
L 181.272969 33.389905 
L 185.313021 34.592114 
L 189.353073 35.261571 
L 193.393125 35.806385 
L 197.433177 36.612548 
L 201.473229 36.976427 
L 205.513281 38.015795 
L 209.553333 38.697314 
L 213.593385 39.071246 
L 217.633437 39.740703 
L 221.67349 40.341807 
L 225.713542 40.940901 
L 229.753594 41.718919 
L 233.793646 42.120996 
L 237.833698 42.736173 
L 241.87375 43.278976 
" clip-path="url(#pf9599e055f)" style="fill: none; stroke: #888780; stroke-width: 1.5; stroke-linecap: square"/>
   </g>
   <g id="line2d_26">
    <path d="M 47.95125 26.830027 
L 51.991302 15.366827 
L 56.031354 14.156576 
L 60.071406 13.456964 
L 64.111458 13.028752 
L 68.15151 13.288091 
L 72.191563 13.54542 
L 76.231615 13.971621 
L 80.271667 14.269158 
L 84.311719 14.836086 
L 88.351771 15.871433 
L 92.391823 16.882655 
L 96.431875 17.821504 
L 100.471927 19.098096 
L 104.511979 19.58863 
L 108.552031 19.811782 
L 112.592083 20.457115 
L 116.632135 20.927544 
L 120.672188 21.550763 
L 124.71224 22.547912 
L 128.752292 23.241494 
L 132.792344 24.859852 
L 136.832396 25.641891 
L 140.872448 26.832038 
L 144.9125 27.230093 
L 148.952552 28.068423 
L 152.992604 29.00124 
L 157.032656 29.728998 
L 161.072708 30.322062 
L 165.11276 31.343336 
L 169.152812 32.026866 
L 173.192865 32.380693 
L 177.232917 33.225054 
L 181.272969 33.389905 
L 185.313021 34.592114 
L 189.353073 35.261571 
L 193.393125 35.806385 
L 197.433177 36.612548 
L 201.473229 36.976427 
L 205.513281 38.015795 
L 209.553333 38.697314 
L 213.593385 39.071246 
L 217.633437 39.740703 
L 221.67349 40.341807 
L 225.713542 40.940901 
L 229.753594 41.718919 
L 233.793646 42.120996 
L 237.833698 42.736173 
L 241.87375 43.278976 
" clip-path="url(#pf9599e055f)" style="fill: none; stroke: #378add; stroke-width: 1.5; stroke-linecap: square"/>
   </g>
   <g id="line2d_27">
    <path d="M 47.95125 25.571528 
L 51.991302 13.28005 
L 56.031354 11.617463 
L 60.071406 12.371357 
L 64.111458 13.129271 
L 68.15151 13.802749 
L 72.191563 15.027072 
L 76.231615 16.940956 
L 80.271667 18.428639 
L 84.311719 20.095246 
L 88.351771 21.609064 
L 92.391823 23.138965 
L 96.431875 25.05888 
L 100.471927 25.973604 
L 104.511979 27.501495 
L 108.552031 28.936908 
L 112.592083 29.879777 
L 116.632135 31.825827 
L 120.672188 32.802873 
L 124.71224 33.850283 
L 128.752292 35.329924 
L 132.792344 36.20444 
L 136.832396 37.477012 
L 140.872448 38.299259 
L 144.9125 39.453218 
L 148.952552 40.295568 
L 152.992604 41.342978 
L 157.032656 41.833511 
L 161.072708 42.806536 
L 165.11276 43.556409 
L 169.152812 44.032869 
L 173.192865 44.945583 
L 177.232917 45.950774 
L 181.272969 46.266404 
L 185.313021 47.056484 
L 189.353073 47.323865 
L 193.393125 47.701817 
L 197.433177 48.021468 
L 201.473229 48.690926 
L 205.513281 49.115116 
L 209.553333 49.830812 
L 213.593385 50.110255 
L 217.633437 50.60682 
L 221.67349 51.318495 
L 225.713542 51.809028 
L 229.753594 52.225178 
L 233.793646 52.363894 
L 237.833698 52.587046 
L 241.87375 52.824272 
" clip-path="url(#pf9599e055f)" style="fill: none; stroke: #ba7517; stroke-width: 1.5; stroke-linecap: square"/>
   </g>
   <g id="line2d_28">
    <path d="M 47.95125 25.865044 
L 51.991302 14.148535 
L 56.031354 11.915 
L 60.071406 11.70592 
L 64.111458 12.465845 
L 68.15151 12.841786 
L 72.191563 14.4903 
L 76.231615 16.100616 
L 80.271667 16.794198 
L 84.311719 17.990376 
L 88.351771 20.195765 
L 92.391823 22.023203 
L 96.431875 23.945128 
L 100.471927 25.135275 
L 104.511979 26.403826 
L 108.552031 28.575039 
L 112.592083 29.733019 
L 116.632135 30.330103 
L 120.672188 32.139447 
L 124.71224 32.718437 
L 128.752292 33.393926 
L 132.792344 34.485563 
L 136.832396 36.226555 
L 140.872448 37.509178 
L 144.9125 38.512359 
L 148.952552 39.573841 
L 152.992604 40.436295 
L 157.032656 41.274625 
L 161.072708 42.108933 
L 165.11276 43.081959 
L 169.152812 43.691104 
L 173.192865 44.573662 
L 177.232917 45.044092 
L 181.272969 45.56277 
L 185.313021 46.181968 
L 189.353073 47.287678 
L 193.393125 48.24261 
L 197.433177 49.13522 
L 201.473229 50.078089 
L 205.513281 50.23892 
L 209.553333 51.545668 
L 213.593385 52.02615 
L 217.633437 52.520704 
L 221.67349 52.950926 
L 225.713542 53.491718 
L 229.753594 54.241591 
L 233.793646 54.9211 
L 237.833698 55.520194 
L 241.87375 56.251973 
" clip-path="url(#pf9599e055f)" style="fill: none; stroke: #1d9e75; stroke-width: 1.5; stroke-linecap: square"/>
   </g>
   <g id="patch_3">
    <path d="M 47.95125 140.237709 
L 47.95125 7.827823 
" style="fill: none; stroke: #000000; stroke-width: 0.5; stroke-linejoin: miter; stroke-linecap: square"/>
   </g>
   <g id="patch_4">
    <path d="M 47.95125 140.237709 
L 241.87375 140.237709 
" style="fill: none; stroke: #000000; stroke-width: 0.5; stroke-linejoin: miter; stroke-linecap: square"/>
   </g>
   <g id="text_15">
    <g id="patch_5">
     <path d="M 165.94655 24.274146 
L 237.9953 24.274146 
Q 239.7953 24.274146 239.7953 22.474146 
L 239.7953 10.546333 
Q 239.7953 8.746333 237.9953 8.746333 
L 165.94655 8.746333 
Q 164.14655 8.746333 164.14655 10.546333 
L 164.14655 22.474146 
Q 164.14655 24.274146 165.94655 24.274146 
z
" style="fill: #ffffff; opacity: 0.9; stroke: #808080; stroke-linejoin: miter"/>
    </g>
    <!-- α=2.0, β=2.0, κ=5.0 -->
    <g transform="translate(185.874987 14.843833) scale(0.06 -0.06)">
     <defs>
      <path id="ArialMT-3b1" d="M 2884 3319 
L 3459 3319 
Q 3241 2631 3056 1659 
Q 3275 453 3459 0 
L 2900 0 
Q 2766 313 2697 606 
Q 2438 -75 1613 -75 
Q 988 -75 606 394 
Q 225 863 225 1666 
Q 225 2491 608 2942 
Q 991 3394 1622 3394 
Q 2013 3394 2259 3236 
Q 2506 3078 2719 2756 
Q 2741 2866 2884 3319 
z
M 1716 2928 
Q 1313 2928 1078 2603 
Q 844 2278 844 1666 
Q 844 1069 1066 728 
Q 1288 388 1684 388 
Q 2072 388 2331 723 
Q 2591 1059 2591 1691 
Q 2591 2303 2348 2615 
Q 2106 2928 1716 2928 
z
" transform="scale(0.015625)"/>
      <path id="ArialMT-3d" d="M 3381 2694 
L 356 2694 
L 356 3219 
L 3381 3219 
L 3381 2694 
z
M 3381 1303 
L 356 1303 
L 356 1828 
L 3381 1828 
L 3381 1303 
z
" transform="scale(0.015625)"/>
      <path id="ArialMT-2e" d="M 581 0 
L 581 641 
L 1222 641 
L 1222 0 
L 581 0 
z
" transform="scale(0.015625)"/>
      <path id="ArialMT-2c" d="M 569 0 
L 569 641 
L 1209 641 
L 1209 0 
Q 1209 -353 1084 -570 
Q 959 -788 688 -906 
L 531 -666 
Q 709 -588 793 -436 
Q 878 -284 888 0 
L 569 0 
z
" transform="scale(0.015625)"/>
      <path id="ArialMT-3b2" d="M 997 422 
L 997 -1272 
L 438 -1272 
L 438 3144 
Q 438 3672 580 3970 
Q 722 4269 1069 4464 
Q 1416 4659 1841 4659 
Q 2469 4659 2792 4298 
Q 3116 3938 3116 3509 
Q 3116 3091 2855 2834 
Q 2594 2578 2256 2519 
Q 2800 2466 3095 2128 
Q 3391 1791 3391 1297 
Q 3391 766 3042 345 
Q 2694 -75 2034 -75 
Q 1359 -75 997 422 
z
M 1494 2700 
Q 2069 2700 2331 2900 
Q 2594 3100 2594 3478 
Q 2594 3784 2370 3990 
Q 2147 4197 1813 4197 
Q 1522 4197 1308 4044 
Q 1094 3891 1045 3703 
Q 997 3516 997 3047 
L 997 1788 
Q 997 1250 1072 997 
Q 1147 744 1394 541 
Q 1641 338 1963 338 
Q 2353 338 2579 605 
Q 2806 872 2806 1266 
Q 2806 1591 2639 1848 
Q 2472 2106 2226 2198 
Q 1981 2291 1575 2291 
L 1494 2291 
L 1494 2700 
z
" transform="scale(0.015625)"/>
      <path id="ArialMT-3ba" d="M 419 3319 
L 978 3319 
L 978 2016 
L 2325 3319 
L 3069 3319 
L 1584 1941 
L 3197 0 
L 2478 0 
L 1184 1563 
L 978 1372 
L 978 0 
L 419 0 
L 419 3319 
z
" transform="scale(0.015625)"/>
      <path id="ArialMT-35" d="M 266 1200 
L 856 1250 
Q 922 819 1161 601 
Q 1400 384 1738 384 
Q 2144 384 2425 690 
Q 2706 997 2706 1503 
Q 2706 1984 2436 2262 
Q 2166 2541 1728 2541 
Q 1456 2541 1237 2417 
Q 1019 2294 894 2097 
L 366 2166 
L 809 4519 
L 3088 4519 
L 3088 3981 
L 1259 3981 
L 1013 2750 
Q 1425 3038 1878 3038 
Q 2478 3038 2890 2622 
Q 3303 2206 3303 1553 
Q 3303 931 2941 478 
Q 2500 -78 1738 -78 
Q 1113 -78 717 272 
Q 322 622 266 1200 
z
" transform="scale(0.015625)"/>
     </defs>
     <use xlink:href="#ArialMT-3b1"/>
     <use xlink:href="#ArialMT-3d" transform="translate(57.8125 0)"/>
     <use xlink:href="#ArialMT-32" transform="translate(116.210938 0)"/>
     <use xlink:href="#ArialMT-2e" transform="translate(171.826172 0)"/>
     <use xlink:href="#ArialMT-30" transform="translate(199.609375 0)"/>
     <use xlink:href="#ArialMT-2c" transform="translate(255.224609 0)"/>
     <use xlink:href="#ArialMT-20" transform="translate(283.007812 0)"/>
     <use xlink:href="#ArialMT-3b2" transform="translate(310.791016 0)"/>
     <use xlink:href="#ArialMT-3d" transform="translate(368.310547 0)"/>
     <use xlink:href="#ArialMT-32" transform="translate(426.708984 0)"/>
     <use xlink:href="#ArialMT-2e" transform="translate(482.324219 0)"/>
     <use xlink:href="#ArialMT-30" transform="translate(510.107422 0)"/>
     <use xlink:href="#ArialMT-2c" transform="translate(565.722656 0)"/>
     <use xlink:href="#ArialMT-20" transform="translate(593.505859 0)"/>
     <use xlink:href="#ArialMT-3ba" transform="translate(621.289062 0)"/>
     <use xlink:href="#ArialMT-3d" transform="translate(671.289062 0)"/>
     <use xlink:href="#ArialMT-35" transform="translate(729.6875 0)"/>
     <use xlink:href="#ArialMT-2e" transform="translate(785.302734 0)"/>
     <use xlink:href="#ArialMT-30" transform="translate(813.085938 0)"/>
    </g>
    <!-- N_agents=500, N_runs=10 -->
    <g transform="translate(165.94655 21.211333) scale(0.06 -0.06)">
     <defs>
      <path id="ArialMT-4e" d="M 488 0 
L 488 4581 
L 1109 4581 
L 3516 984 
L 3516 4581 
L 4097 4581 
L 4097 0 
L 3475 0 
L 1069 3600 
L 1069 0 
L 488 0 
z
" transform="scale(0.015625)"/>
      <path id="ArialMT-5f" d="M -97 -1272 
L -97 -866 
L 3631 -866 
L 3631 -1272 
L -97 -1272 
z
" transform="scale(0.015625)"/>
      <path id="ArialMT-67" d="M 319 -275 
L 866 -356 
Q 900 -609 1056 -725 
Q 1266 -881 1628 -881 
Q 2019 -881 2231 -725 
Q 2444 -569 2519 -288 
Q 2563 -116 2559 434 
Q 2191 0 1641 0 
Q 956 0 581 494 
Q 206 988 206 1678 
Q 206 2153 378 2554 
Q 550 2956 876 3175 
Q 1203 3394 1644 3394 
Q 2231 3394 2613 2919 
L 2613 3319 
L 3131 3319 
L 3131 450 
Q 3131 -325 2973 -648 
Q 2816 -972 2473 -1159 
Q 2131 -1347 1631 -1347 
Q 1038 -1347 672 -1080 
Q 306 -813 319 -275 
z
M 784 1719 
Q 784 1066 1043 766 
Q 1303 466 1694 466 
Q 2081 466 2343 764 
Q 2606 1063 2606 1700 
Q 2606 2309 2336 2618 
Q 2066 2928 1684 2928 
Q 1309 2928 1046 2623 
Q 784 2319 784 1719 
z
" transform="scale(0.015625)"/>
     </defs>
     <use xlink:href="#ArialMT-4e"/>
     <use xlink:href="#ArialMT-5f" transform="translate(72.216797 0)"/>
     <use xlink:href="#ArialMT-61" transform="translate(127.832031 0)"/>
     <use xlink:href="#ArialMT-67" transform="translate(183.447266 0)"/>
     <use xlink:href="#ArialMT-65" transform="translate(239.0625 0)"/>
     <use xlink:href="#ArialMT-6e" transform="translate(294.677734 0)"/>
     <use xlink:href="#ArialMT-74" transform="translate(350.292969 0)"/>
     <use xlink:href="#ArialMT-73" transform="translate(378.076172 0)"/>
     <use xlink:href="#ArialMT-3d" transform="translate(428.076172 0)"/>
     <use xlink:href="#ArialMT-35" transform="translate(486.474609 0)"/>
     <use xlink:href="#ArialMT-30" transform="translate(542.089844 0)"/>
     <use xlink:href="#ArialMT-30" transform="translate(597.705078 0)"/>
     <use xlink:href="#ArialMT-2c" transform="translate(653.320312 0)"/>
     <use xlink:href="#ArialMT-20" transform="translate(681.103516 0)"/>
     <use xlink:href="#ArialMT-4e" transform="translate(708.886719 0)"/>
     <use xlink:href="#ArialMT-5f" transform="translate(781.103516 0)"/>
     <use xlink:href="#ArialMT-72" transform="translate(836.71875 0)"/>
     <use xlink:href="#ArialMT-75" transform="translate(870.019531 0)"/>
     <use xlink:href="#ArialMT-6e" transform="translate(925.634766 0)"/>
     <use xlink:href="#ArialMT-73" transform="translate(981.25 0)"/>
     <use xlink:href="#ArialMT-3d" transform="translate(1031.25 0)"/>
     <use xlink:href="#ArialMT-31" transform="translate(1089.648438 0)"/>
     <use xlink:href="#ArialMT-30" transform="translate(1145.263672 0)"/>
    </g>
   </g>
   <g id="legend_1">
    <g id="patch_6">
     <path d="M 52.85125 136.737709 
L 97.818594 136.737709 
Q 99.218594 136.737709 99.218594 135.337709 
L 99.218594 96.24599 
Q 99.218594 94.84599 97.818594 94.84599 
L 52.85125 94.84599 
Q 51.45125 94.84599 51.45125 96.24599 
L 51.45125 135.337709 
Q 51.45125 136.737709 52.85125 136.737709 
z
" style="fill: #ffffff; opacity: 0.8; stroke: #cccccc; stroke-linejoin: miter"/>
    </g>
    <g id="line2d_29">
     <path d="M 54.25125 100.206459 
L 61.25125 100.206459 
L 68.25125 100.206459 
" style="fill: none; stroke: #888780; stroke-width: 1.5; stroke-linecap: square"/>
    </g>
    <g id="text_16">
     <!-- original -->
     <g transform="translate(73.85125 102.656459) scale(0.07 -0.07)">
      <defs>
       <path id="ArialMT-6c" d="M 409 0 
L 409 4581 
L 972 4581 
L 972 0 
L 409 0 
z
" transform="scale(0.015625)"/>
      </defs>
      <use xlink:href="#ArialMT-6f"/>
      <use xlink:href="#ArialMT-72" transform="translate(55.615234 0)"/>
      <use xlink:href="#ArialMT-69" transform="translate(88.916016 0)"/>
      <use xlink:href="#ArialMT-67" transform="translate(111.132812 0)"/>
      <use xlink:href="#ArialMT-69" transform="translate(166.748047 0)"/>
      <use xlink:href="#ArialMT-6e" transform="translate(188.964844 0)"/>
      <use xlink:href="#ArialMT-61" transform="translate(244.580078 0)"/>
      <use xlink:href="#ArialMT-6c" transform="translate(300.195312 0)"/>
     </g>
    </g>
    <g id="line2d_30">
     <path d="M 54.25125 110.21099 
L 61.25125 110.21099 
L 68.25125 110.21099 
" style="fill: none; stroke: #378add; stroke-width: 1.5; stroke-linecap: square"/>
    </g>
    <g id="text_17">
     <!-- s1 only -->
     <g transform="translate(73.85125 112.66099) scale(0.07 -0.07)">
      <defs>
       <path id="ArialMT-79" d="M 397 -1278 
L 334 -750 
Q 519 -800 656 -800 
Q 844 -800 956 -737 
Q 1069 -675 1141 -563 
Q 1194 -478 1313 -144 
Q 1328 -97 1363 -6 
L 103 3319 
L 709 3319 
L 1400 1397 
Q 1534 1031 1641 628 
Q 1738 1016 1872 1384 
L 2581 3319 
L 3144 3319 
L 1881 -56 
Q 1678 -603 1566 -809 
Q 1416 -1088 1222 -1217 
Q 1028 -1347 759 -1347 
Q 597 -1347 397 -1278 
z
" transform="scale(0.015625)"/>
      </defs>
      <use xlink:href="#ArialMT-73"/>
      <use xlink:href="#ArialMT-31" transform="translate(50 0)"/>
      <use xlink:href="#ArialMT-20" transform="translate(105.615234 0)"/>
      <use xlink:href="#ArialMT-6f" transform="translate(133.398438 0)"/>
      <use xlink:href="#ArialMT-6e" transform="translate(189.013672 0)"/>
      <use xlink:href="#ArialMT-6c" transform="translate(244.628906 0)"/>
      <use xlink:href="#ArialMT-79" transform="translate(266.845703 0)"/>
     </g>
    </g>
    <g id="line2d_31">
     <path d="M 54.25125 120.19474 
L 61.25125 120.19474 
L 68.25125 120.19474 
" style="fill: none; stroke: #ba7517; stroke-width: 1.5; stroke-linecap: square"/>
    </g>
    <g id="text_18">
     <!-- switch -->
     <g transform="translate(73.85125 122.64474) scale(0.07 -0.07)">
      <defs>
       <path id="ArialMT-77" d="M 1034 0 
L 19 3319 
L 600 3319 
L 1128 1403 
L 1325 691 
Q 1338 744 1497 1375 
L 2025 3319 
L 2603 3319 
L 3100 1394 
L 3266 759 
L 3456 1400 
L 4025 3319 
L 4572 3319 
L 3534 0 
L 2950 0 
L 2422 1988 
L 2294 2553 
L 1622 0 
L 1034 0 
z
" transform="scale(0.015625)"/>
      </defs>
      <use xlink:href="#ArialMT-73"/>
      <use xlink:href="#ArialMT-77" transform="translate(50 0)"/>
      <use xlink:href="#ArialMT-69" transform="translate(122.216797 0)"/>
      <use xlink:href="#ArialMT-74" transform="translate(144.433594 0)"/>
      <use xlink:href="#ArialMT-63" transform="translate(172.216797 0)"/>
      <use xlink:href="#ArialMT-68" transform="translate(222.216797 0)"/>
     </g>
    </g>
    <g id="line2d_32">
     <path d="M 54.25125 130.096459 
L 61.25125 130.096459 
L 68.25125 130.096459 
" style="fill: none; stroke: #1d9e75; stroke-width: 1.5; stroke-linecap: square"/>
    </g>
    <g id="text_19">
     <!-- blend -->
     <g transform="translate(73.85125 132.546459) scale(0.07 -0.07)">
      <defs>
       <path id="ArialMT-62" d="M 941 0 
L 419 0 
L 419 4581 
L 981 4581 
L 981 2947 
Q 1338 3394 1891 3394 
Q 2197 3394 2470 3270 
Q 2744 3147 2920 2923 
Q 3097 2700 3197 2384 
Q 3297 2069 3297 1709 
Q 3297 856 2875 390 
Q 2453 -75 1863 -75 
Q 1275 -75 941 416 
L 941 0 
z
M 934 1684 
Q 934 1088 1097 822 
Q 1363 388 1816 388 
Q 2184 388 2453 708 
Q 2722 1028 2722 1663 
Q 2722 2313 2464 2622 
Q 2206 2931 1841 2931 
Q 1472 2931 1203 2611 
Q 934 2291 934 1684 
z
" transform="scale(0.015625)"/>
      </defs>
      <use xlink:href="#ArialMT-62"/>
      <use xlink:href="#ArialMT-6c" transform="translate(55.615234 0)"/>
      <use xlink:href="#ArialMT-65" transform="translate(77.832031 0)"/>
      <use xlink:href="#ArialMT-6e" transform="translate(133.447266 0)"/>
      <use xlink:href="#ArialMT-64" transform="translate(189.0625 0)"/>
     </g>
    </g>
   </g>
  </g>
 </g>
 <defs>
  <clipPath id="pf9599e055f">
   <rect x="47.95125" y="7.827823" width="193.9225" height="132.409886"/>
  </clipPath>
 </defs>
</svg>
