<?xml version="1.0" encoding="utf-8" standalone="no"?>
<!DOCTYPE svg PUBLIC "-//W3C//DTD SVG 1.1//EN"
  "http://www.w3.org/Graphics/SVG/1.1/DTD/svg11.dtd">
<svg xmlns:xlink="http://www.w3.org/1999/xlink" width="501.1375pt" height="223.606875pt" viewBox="0 0 501.1375 223.606875" xmlns="http://www.w3.org/2000/svg" version="1.1">
 <metadata>
  <rdf:RDF xmlns:dc="http://purl.org/dc/elements/1.1/" xmlns:cc="http://creativecommons.org/ns#" xmlns:rdf="http://www.w3.org/1999/02/22-rdf-syntax-ns#">
   <cc:Work>
    <dc:type rdf:resource="http://purl.org/dc/dcmitype/StillImage"/>
    <dc:date>2026-04-16T01:28:51.417926</dc:date>
    <dc:format>image/svg+xml</dc:format>
    <dc:creator>
     <cc:Agent>
      <dc:title>Matplotlib v3.10.7, https://matplotlib.org/</dc:title>
     </cc:Agent>
    </dc:creator>
   </cc:Work>
  </rdf:RDF>
 </metadata>
 <defs>
  <style type="text/css">*{stroke-linejoin: round; stroke-linecap: butt}</style>
 </defs>
 <g id="figure_1">
  <g id="patch_1">
   <path d="M 0 223.606875 
L 501.1375 223.606875 
L 501.1375 0 
L 0 0 
z
" style="fill: #ffffff"/>
  </g>
  <g id="axes_1">
   <g id="patch_2">
    <path d="M 36.8275 190.583125 
L 464.31 190.583125 
L 464.31 10.063125 
L 36.8275 10.063125 
z
" style="fill: #ffffff"/>
   </g>
   <g id="FillBetweenPolyCollection_1">
    <defs>
     <path id="m2a86fe3d58" d="M 36.8275 -174.89774 
L 36.8275 -172.717997 
L 45.733385 -171.739577 
L 54.639271 -172.392489 
L 63.545156 -172.075916 
L 72.451042 -171.871638 
L 81.356927 -171.508632 
L 90.262813 -171.284097 
L 99.168698 -170.738983 
L 108.074583 -170.524748 
L 116.980469 -169.887206 
L 125.886354 -169.313511 
L 134.79224 -168.999001 
L 143.698125 -168.5591 
L 152.60401 -168.386552 
L 161.509896 -167.702473 
L 170.415781 -167.306816 
L 179.321667 -166.587475 
L 188.227552 -166.521882 
L 197.133438 -166.296454 
L 206.039323 -165.930047 
L 214.945208 -165.786065 
L 223.851094 -165.388747 
L 232.756979 -165.045001 
L 241.662865 -164.810706 
L 250.56875 -164.355802 
L 259.474635 -163.991367 
L 268.380521 -163.791025 
L 277.286406 -163.402519 
L 286.192292 -162.871679 
L 295.098177 -162.599951 
L 304.004062 -162.578216 
L 312.909948 -161.863975 
L 321.815833 -161.440227 
L 330.721719 -161.412907 
L 339.627604 -161.256543 
L 348.53349 -161.228463 
L 357.439375 -161.126869 
L 366.34526 -160.977876 
L 375.251146 -160.46809 
L 384.157031 -160.166521 
L 393.062917 -159.514162 
L 401.968802 -158.621548 
L 410.874687 -158.594008 
L 419.780573 -158.95597 
L 428.686458 -158.798352 
L 437.592344 -158.897647 
L 446.498229 -158.261015 
L 455.404115 -158.614608 
L 464.31 -158.147628 
L 464.31 -161.444003 
L 464.31 -161.444003 
L 455.404115 -160.622602 
L 446.498229 -161.560358 
L 437.592344 -162.356935 
L 428.686458 -163.321702 
L 419.780573 -163.807638 
L 410.874687 -163.555772 
L 401.968802 -163.764954 
L 393.062917 -163.538158 
L 384.157031 -164.207747 
L 375.251146 -164.959512 
L 366.34526 -164.998146 
L 357.439375 -165.560883 
L 348.53349 -165.860705 
L 339.627604 -166.249927 
L 330.721719 -166.255189 
L 321.815833 -166.041753 
L 312.909948 -166.264266 
L 304.004062 -166.564488 
L 295.098177 -167.183057 
L 286.192292 -167.615838 
L 277.286406 -167.374853 
L 268.380521 -168.041186 
L 259.474635 -168.171375 
L 250.56875 -168.623554 
L 241.662865 -168.958424 
L 232.756979 -169.41528 
L 223.851094 -169.615802 
L 214.945208 -169.883399 
L 206.039323 -170.597789 
L 197.133438 -170.391023 
L 188.227552 -170.416458 
L 179.321667 -170.914448 
L 170.415781 -171.288877 
L 161.509896 -171.264851 
L 152.60401 -171.613526 
L 143.698125 -171.800093 
L 134.79224 -171.919924 
L 125.886354 -172.379545 
L 116.980469 -172.780657 
L 108.074583 -173.197052 
L 99.168698 -173.734381 
L 90.262813 -173.953589 
L 81.356927 -174.224461 
L 72.451042 -174.395133 
L 63.545156 -174.621455 
L 54.639271 -174.714001 
L 45.733385 -174.317249 
L 36.8275 -174.89774 
z
" style="stroke: #888780; stroke-opacity: 0.2"/>
    </defs>
    <g clip-path="url(#pb2eedc24b5)">
     <use xlink:href="#m2a86fe3d58" x="0" y="223.606875" style="fill: #888780; fill-opacity: 0.2; stroke: #888780; stroke-opacity: 0.2"/>
    </g>
   </g>
   <g id="FillBetweenPolyCollection_2">
    <defs>
     <path id="m496af69258" d="M 36.8275 -174.432788 
L 36.8275 -173.792544 
L 45.733385 -173.128252 
L 54.639271 -172.709896 
L 63.545156 -172.467834 
L 72.451042 -172.346617 
L 81.356927 -172.5688 
L 90.262813 -172.24332 
L 99.168698 -171.441038 
L 108.074583 -171.161169 
L 116.980469 -170.690211 
L 125.886354 -169.610774 
L 134.79224 -169.393348 
L 143.698125 -168.845425 
L 152.60401 -166.585367 
L 161.509896 -166.552299 
L 170.415781 -165.170119 
L 179.321667 -164.637546 
L 188.227552 -163.676182 
L 197.133438 -162.958929 
L 206.039323 -162.715497 
L 214.945208 -162.389877 
L 223.851094 -162.097427 
L 232.756979 -162.091958 
L 241.662865 -162.849959 
L 250.56875 -161.252956 
L 259.474635 -160.837689 
L 268.380521 -160.983655 
L 277.286406 -161.976943 
L 286.192292 -160.800426 
L 295.098177 -158.702589 
L 304.004062 -159.680483 
L 312.909948 -160.685265 
L 321.815833 -159.843568 
L 330.721719 -158.385053 
L 339.627604 -157.769123 
L 348.53349 -156.370424 
L 357.439375 -156.714976 
L 366.34526 -157.628382 
L 375.251146 -156.880901 
L 384.157031 -155.399913 
L 393.062917 -155.54497 
L 401.968802 -156.465242 
L 410.874687 -156.423709 
L 419.780573 -156.141404 
L 428.686458 -155.49662 
L 437.592344 -155.489916 
L 446.498229 -156.051073 
L 455.404115 -155.951432 
L 464.31 -154.263199 
L 464.31 -163.683112 
L 464.31 -163.683112 
L 455.404115 -163.353994 
L 446.498229 -162.86062 
L 437.592344 -162.609437 
L 428.686458 -161.608267 
L 419.780573 -162.641919 
L 410.874687 -163.141265 
L 401.968802 -164.12308 
L 393.062917 -164.631566 
L 384.157031 -165.196833 
L 375.251146 -164.003674 
L 366.34526 -165.338993 
L 357.439375 -163.364882 
L 348.53349 -164.882813 
L 339.627604 -164.898187 
L 330.721719 -164.859721 
L 321.815833 -163.962824 
L 312.909948 -162.729398 
L 304.004062 -162.71003 
L 295.098177 -164.560237 
L 286.192292 -164.547005 
L 277.286406 -164.623297 
L 268.380521 -164.345724 
L 259.474635 -164.263232 
L 250.56875 -164.236684 
L 241.662865 -164.724487 
L 232.756979 -165.975508 
L 223.851094 -165.036751 
L 214.945208 -165.0911 
L 206.039323 -165.274346 
L 197.133438 -165.340204 
L 188.227552 -165.62223 
L 179.321667 -166.504176 
L 170.415781 -166.819445 
L 161.509896 -167.78944 
L 152.60401 -169.253686 
L 143.698125 -170.581563 
L 134.79224 -170.569985 
L 125.886354 -170.95349 
L 116.980469 -171.883441 
L 108.074583 -172.286401 
L 99.168698 -172.460439 
L 90.262813 -172.72162 
L 81.356927 -173.283497 
L 72.451042 -173.891592 
L 63.545156 -174.812977 
L 54.639271 -175.249871 
L 45.733385 -173.626845 
L 36.8275 -174.432788 
z
" style="stroke: #378add; stroke-opacity: 0.2"/>
    </defs>
    <g clip-path="url(#pb2eedc24b5)">
     <use xlink:href="#m496af69258" x="0" y="223.606875" style="fill: #378add; fill-opacity: 0.2; stroke: #378add; stroke-opacity: 0.2"/>
    </g>
   </g>
   <g id="FillBetweenPolyCollection_3">
    <defs>
     <path id="me390c4c5b2" d="M 36.8275 -174.89774 
L 36.8275 -172.717997 
L 45.733385 -165.174773 
L 54.639271 -166.401654 
L 63.545156 -158.32971 
L 72.451042 -159.703035 
L 81.356927 -152.280262 
L 90.262813 -152.98869 
L 99.168698 -147.504953 
L 108.074583 -147.895471 
L 116.980469 -144.483228 
L 125.886354 -138.116765 
L 134.79224 -139.831758 
L 143.698125 -130.81278 
L 152.60401 -133.152282 
L 161.509896 -124.681521 
L 170.415781 -127.03701 
L 179.321667 -117.96864 
L 188.227552 -117.002259 
L 197.133438 -117.421029 
L 206.039323 -116.0247 
L 214.945208 -117.894939 
L 223.851094 -116.592979 
L 232.756979 -120.794983 
L 241.662865 -124.039815 
L 250.56875 -132.396304 
L 259.474635 -134.641485 
L 268.380521 -143.035718 
L 277.286406 -142.35509 
L 286.192292 -148.956071 
L 295.098177 -147.959713 
L 304.004062 -147.3189 
L 312.909948 -147.588427 
L 321.815833 -147.745339 
L 330.721719 -147.286847 
L 339.627604 -147.391401 
L 348.53349 -147.449088 
L 357.439375 -147.560557 
L 366.34526 -147.603062 
L 375.251146 -147.895863 
L 384.157031 -147.328881 
L 393.062917 -147.489529 
L 401.968802 -147.29706 
L 410.874687 -147.172035 
L 419.780573 -146.578901 
L 428.686458 -146.931103 
L 437.592344 -146.287271 
L 446.498229 -146.405671 
L 455.404115 -146.840284 
L 464.31 -146.11247 
L 464.31 -160.352349 
L 464.31 -160.352349 
L 455.404115 -159.469768 
L 446.498229 -159.271779 
L 437.592344 -158.741391 
L 428.686458 -158.316348 
L 419.780573 -158.079695 
L 410.874687 -157.925285 
L 401.968802 -157.447704 
L 393.062917 -158.681463 
L 384.157031 -158.887842 
L 375.251146 -158.406247 
L 366.34526 -159.763033 
L 357.439375 -159.376802 
L 348.53349 -159.589303 
L 339.627604 -159.802357 
L 330.721719 -159.519154 
L 321.815833 -159.859704 
L 312.909948 -159.42812 
L 304.004062 -159.969451 
L 295.098177 -160.318068 
L 286.192292 -160.05089 
L 277.286406 -151.963319 
L 268.380521 -150.795167 
L 259.474635 -142.578371 
L 250.56875 -143.016788 
L 241.662865 -133.493072 
L 232.756979 -131.809527 
L 223.851094 -124.749429 
L 214.945208 -124.360179 
L 206.039323 -123.987878 
L 197.133438 -123.087799 
L 188.227552 -122.931311 
L 179.321667 -121.538121 
L 170.415781 -130.939354 
L 161.509896 -129.702555 
L 152.60401 -138.208075 
L 143.698125 -135.181861 
L 134.79224 -142.980908 
L 125.886354 -141.45629 
L 116.980469 -146.405362 
L 108.074583 -150.277944 
L 99.168698 -149.273102 
L 90.262813 -155.953585 
L 81.356927 -155.527143 
L 72.451042 -162.848823 
L 63.545156 -161.010637 
L 54.639271 -168.832998 
L 45.733385 -167.833766 
L 36.8275 -174.89774 
z
" style="stroke: #1d9e75; stroke-opacity: 0.2"/>
    </defs>
    <g clip-path="url(#pb2eedc24b5)">
     <use xlink:href="#me390c4c5b2" x="0" y="223.606875" style="fill: #1d9e75; fill-opacity: 0.2; stroke: #1d9e75; stroke-opacity: 0.2"/>
    </g>
   </g>
   <g id="matplotlib.axis_1">
    <g id="xtick_1">
     <g id="line2d_1">
      <path d="M 36.8275 190.583125 
L 36.8275 10.063125 
" clip-path="url(#pb2eedc24b5)" style="fill: none; stroke: #b0b0b0; stroke-opacity: 0.3; stroke-width: 0.8; stroke-linecap: square"/>
     </g>
     <g id="line2d_2">
      <defs>
       <path id="mc93d7ecf43" d="M 0 0 
L 0 3.5 
" style="stroke: #000000; stroke-width: 0.8"/>
      </defs>
      <g>
       <use xlink:href="#mc93d7ecf43" x="36.8275" y="190.583125" style="stroke: #000000; stroke-width: 0.8"/>
      </g>
     </g>
     <g id="text_1">
      <!-- 0 -->
      <g transform="translate(34.603125 203.309375) scale(0.08 -0.08)">
       <defs>
        <path id="ArialMT-30" d="M 266 2259 
Q 266 3072 433 3567 
Q 600 4063 929 4331 
Q 1259 4600 1759 4600 
Q 2128 4600 2406 4451 
Q 2684 4303 2865 4023 
Q 3047 3744 3150 3342 
Q 3253 2941 3253 2259 
Q 3253 1453 3087 958 
Q 2922 463 2592 192 
Q 2263 -78 1759 -78 
Q 1097 -78 719 397 
Q 266 969 266 2259 
z
M 844 2259 
Q 844 1131 1108 757 
Q 1372 384 1759 384 
Q 2147 384 2411 759 
Q 2675 1134 2675 2259 
Q 2675 3391 2411 3762 
Q 2147 4134 1753 4134 
Q 1366 4134 1134 3806 
Q 844 3388 844 2259 
z
" transform="scale(0.015625)"/>
       </defs>
       <use xlink:href="#ArialMT-30"/>
      </g>
     </g>
    </g>
    <g id="xtick_2">
     <g id="line2d_3">
      <path d="M 125.886354 190.583125 
L 125.886354 10.063125 
" clip-path="url(#pb2eedc24b5)" style="fill: none; stroke: #b0b0b0; stroke-opacity: 0.3; stroke-width: 0.8; stroke-linecap: square"/>
     </g>
     <g id="line2d_4">
      <g>
       <use xlink:href="#mc93d7ecf43" x="125.886354" y="190.583125" style="stroke: #000000; stroke-width: 0.8"/>
      </g>
     </g>
     <g id="text_2">
      <!-- 10 -->
      <g transform="translate(121.437604 203.309375) scale(0.08 -0.08)">
       <defs>
        <path id="ArialMT-31" d="M 2384 0 
L 1822 0 
L 1822 3584 
Q 1619 3391 1289 3197 
Q 959 3003 697 2906 
L 697 3450 
Q 1169 3672 1522 3987 
Q 1875 4303 2022 4600 
L 2384 4600 
L 2384 0 
z
" transform="scale(0.015625)"/>
       </defs>
       <use xlink:href="#ArialMT-31"/>
       <use xlink:href="#ArialMT-30" transform="translate(55.615234 0)"/>
      </g>
     </g>
    </g>
    <g id="xtick_3">
     <g id="line2d_5">
      <path d="M 214.945208 190.583125 
L 214.945208 10.063125 
" clip-path="url(#pb2eedc24b5)" style="fill: none; stroke: #b0b0b0; stroke-opacity: 0.3; stroke-width: 0.8; stroke-linecap: square"/>
     </g>
     <g id="line2d_6">
      <g>
       <use xlink:href="#mc93d7ecf43" x="214.945208" y="190.583125" style="stroke: #000000; stroke-width: 0.8"/>
      </g>
     </g>
     <g id="text_3">
      <!-- 20 -->
      <g transform="translate(210.496458 203.309375) scale(0.08 -0.08)">
       <defs>
        <path id="ArialMT-32" d="M 3222 541 
L 3222 0 
L 194 0 
Q 188 203 259 391 
Q 375 700 629 1000 
Q 884 1300 1366 1694 
Q 2113 2306 2375 2664 
Q 2638 3022 2638 3341 
Q 2638 3675 2398 3904 
Q 2159 4134 1775 4134 
Q 1369 4134 1125 3890 
Q 881 3647 878 3216 
L 300 3275 
Q 359 3922 746 4261 
Q 1134 4600 1788 4600 
Q 2447 4600 2831 4234 
Q 3216 3869 3216 3328 
Q 3216 3053 3103 2787 
Q 2991 2522 2730 2228 
Q 2469 1934 1863 1422 
Q 1356 997 1212 845 
Q 1069 694 975 541 
L 3222 541 
z
" transform="scale(0.015625)"/>
       </defs>
       <use xlink:href="#ArialMT-32"/>
       <use xlink:href="#ArialMT-30" transform="translate(55.615234 0)"/>
      </g>
     </g>
    </g>
    <g id="xtick_4">
     <g id="line2d_7">
      <path d="M 304.004062 190.583125 
L 304.004062 10.063125 
" clip-path="url(#pb2eedc24b5)" style="fill: none; stroke: #b0b0b0; stroke-opacity: 0.3; stroke-width: 0.8; stroke-linecap: square"/>
     </g>
     <g id="line2d_8">
      <g>
       <use xlink:href="#mc93d7ecf43" x="304.004062" y="190.583125" style="stroke: #000000; stroke-width: 0.8"/>
      </g>
     </g>
     <g id="text_4">
      <!-- 30 -->
      <g transform="translate(299.555312 203.309375) scale(0.08 -0.08)">
       <defs>
        <path id="ArialMT-33" d="M 269 1209 
L 831 1284 
Q 928 806 1161 595 
Q 1394 384 1728 384 
Q 2125 384 2398 659 
Q 2672 934 2672 1341 
Q 2672 1728 2419 1979 
Q 2166 2231 1775 2231 
Q 1616 2231 1378 2169 
L 1441 2663 
Q 1497 2656 1531 2656 
Q 1891 2656 2178 2843 
Q 2466 3031 2466 3422 
Q 2466 3731 2256 3934 
Q 2047 4138 1716 4138 
Q 1388 4138 1169 3931 
Q 950 3725 888 3313 
L 325 3413 
Q 428 3978 793 4289 
Q 1159 4600 1703 4600 
Q 2078 4600 2393 4439 
Q 2709 4278 2876 4000 
Q 3044 3722 3044 3409 
Q 3044 3113 2884 2869 
Q 2725 2625 2413 2481 
Q 2819 2388 3044 2092 
Q 3269 1797 3269 1353 
Q 3269 753 2831 336 
Q 2394 -81 1725 -81 
Q 1122 -81 723 278 
Q 325 638 269 1209 
z
" transform="scale(0.015625)"/>
       </defs>
       <use xlink:href="#ArialMT-33"/>
       <use xlink:href="#ArialMT-30" transform="translate(55.615234 0)"/>
      </g>
     </g>
    </g>
    <g id="xtick_5">
     <g id="line2d_9">
      <path d="M 393.062917 190.583125 
L 393.062917 10.063125 
" clip-path="url(#pb2eedc24b5)" style="fill: none; stroke: #b0b0b0; stroke-opacity: 0.3; stroke-width: 0.8; stroke-linecap: square"/>
     </g>
     <g id="line2d_10">
      <g>
       <use xlink:href="#mc93d7ecf43" x="393.062917" y="190.583125" style="stroke: #000000; stroke-width: 0.8"/>
      </g>
     </g>
     <g id="text_5">
      <!-- 40 -->
      <g transform="translate(388.614167 203.309375) scale(0.08 -0.08)">
       <defs>
        <path id="ArialMT-34" d="M 2069 0 
L 2069 1097 
L 81 1097 
L 81 1613 
L 2172 4581 
L 2631 4581 
L 2631 1613 
L 3250 1613 
L 3250 1097 
L 2631 1097 
L 2631 0 
L 2069 0 
z
M 2069 1613 
L 2069 3678 
L 634 1613 
L 2069 1613 
z
" transform="scale(0.015625)"/>
       </defs>
       <use xlink:href="#ArialMT-34"/>
       <use xlink:href="#ArialMT-30" transform="translate(55.615234 0)"/>
      </g>
     </g>
    </g>
    <g id="text_6">
     <!-- Time (hours) -->
     <g transform="translate(228.050625 214.723125) scale(0.08 -0.08)">
      <defs>
       <path id="ArialMT-54" d="M 1659 0 
L 1659 4041 
L 150 4041 
L 150 4581 
L 3781 4581 
L 3781 4041 
L 2266 4041 
L 2266 0 
L 1659 0 
z
" transform="scale(0.015625)"/>
       <path id="ArialMT-69" d="M 425 3934 
L 425 4581 
L 988 4581 
L 988 3934 
L 425 3934 
z
M 425 0 
L 425 3319 
L 988 3319 
L 988 0 
L 425 0 
z
" transform="scale(0.015625)"/>
       <path id="ArialMT-6d" d="M 422 0 
L 422 3319 
L 925 3319 
L 925 2853 
Q 1081 3097 1340 3245 
Q 1600 3394 1931 3394 
Q 2300 3394 2536 3241 
Q 2772 3088 2869 2813 
Q 3263 3394 3894 3394 
Q 4388 3394 4653 3120 
Q 4919 2847 4919 2278 
L 4919 0 
L 4359 0 
L 4359 2091 
Q 4359 2428 4304 2576 
Q 4250 2725 4106 2815 
Q 3963 2906 3769 2906 
Q 3419 2906 3187 2673 
Q 2956 2441 2956 1928 
L 2956 0 
L 2394 0 
L 2394 2156 
Q 2394 2531 2256 2718 
Q 2119 2906 1806 2906 
Q 1569 2906 1367 2781 
Q 1166 2656 1075 2415 
Q 984 2175 984 1722 
L 984 0 
L 422 0 
z
" transform="scale(0.015625)"/>
       <path id="ArialMT-65" d="M 2694 1069 
L 3275 997 
Q 3138 488 2766 206 
Q 2394 -75 1816 -75 
Q 1088 -75 661 373 
Q 234 822 234 1631 
Q 234 2469 665 2931 
Q 1097 3394 1784 3394 
Q 2450 3394 2872 2941 
Q 3294 2488 3294 1666 
Q 3294 1616 3291 1516 
L 816 1516 
Q 847 969 1125 678 
Q 1403 388 1819 388 
Q 2128 388 2347 550 
Q 2566 713 2694 1069 
z
M 847 1978 
L 2700 1978 
Q 2663 2397 2488 2606 
Q 2219 2931 1791 2931 
Q 1403 2931 1139 2672 
Q 875 2413 847 1978 
z
" transform="scale(0.015625)"/>
       <path id="ArialMT-20" transform="scale(0.015625)"/>
       <path id="ArialMT-28" d="M 1497 -1347 
Q 1031 -759 709 28 
Q 388 816 388 1659 
Q 388 2403 628 3084 
Q 909 3875 1497 4659 
L 1900 4659 
Q 1522 4009 1400 3731 
Q 1209 3300 1100 2831 
Q 966 2247 966 1656 
Q 966 153 1900 -1347 
L 1497 -1347 
z
" transform="scale(0.015625)"/>
       <path id="ArialMT-68" d="M 422 0 
L 422 4581 
L 984 4581 
L 984 2938 
Q 1378 3394 1978 3394 
Q 2347 3394 2619 3248 
Q 2891 3103 3008 2847 
Q 3125 2591 3125 2103 
L 3125 0 
L 2563 0 
L 2563 2103 
Q 2563 2525 2380 2717 
Q 2197 2909 1863 2909 
Q 1613 2909 1392 2779 
Q 1172 2650 1078 2428 
Q 984 2206 984 1816 
L 984 0 
L 422 0 
z
" transform="scale(0.015625)"/>
       <path id="ArialMT-6f" d="M 213 1659 
Q 213 2581 725 3025 
Q 1153 3394 1769 3394 
Q 2453 3394 2887 2945 
Q 3322 2497 3322 1706 
Q 3322 1066 3130 698 
Q 2938 331 2570 128 
Q 2203 -75 1769 -75 
Q 1072 -75 642 372 
Q 213 819 213 1659 
z
M 791 1659 
Q 791 1022 1069 705 
Q 1347 388 1769 388 
Q 2188 388 2466 706 
Q 2744 1025 2744 1678 
Q 2744 2294 2464 2611 
Q 2184 2928 1769 2928 
Q 1347 2928 1069 2612 
Q 791 2297 791 1659 
z
" transform="scale(0.015625)"/>
       <path id="ArialMT-75" d="M 2597 0 
L 2597 488 
Q 2209 -75 1544 -75 
Q 1250 -75 995 37 
Q 741 150 617 320 
Q 494 491 444 738 
Q 409 903 409 1263 
L 409 3319 
L 972 3319 
L 972 1478 
Q 972 1038 1006 884 
Q 1059 663 1231 536 
Q 1403 409 1656 409 
Q 1909 409 2131 539 
Q 2353 669 2445 892 
Q 2538 1116 2538 1541 
L 2538 3319 
L 3100 3319 
L 3100 0 
L 2597 0 
z
" transform="scale(0.015625)"/>
       <path id="ArialMT-72" d="M 416 0 
L 416 3319 
L 922 3319 
L 922 2816 
Q 1116 3169 1280 3281 
Q 1444 3394 1641 3394 
Q 1925 3394 2219 3213 
L 2025 2691 
Q 1819 2813 1613 2813 
Q 1428 2813 1281 2702 
Q 1134 2591 1072 2394 
Q 978 2094 978 1738 
L 978 0 
L 416 0 
z
" transform="scale(0.015625)"/>
       <path id="ArialMT-73" d="M 197 991 
L 753 1078 
Q 800 744 1014 566 
Q 1228 388 1613 388 
Q 2000 388 2187 545 
Q 2375 703 2375 916 
Q 2375 1106 2209 1216 
Q 2094 1291 1634 1406 
Q 1016 1563 777 1677 
Q 538 1791 414 1992 
Q 291 2194 291 2438 
Q 291 2659 392 2848 
Q 494 3038 669 3163 
Q 800 3259 1026 3326 
Q 1253 3394 1513 3394 
Q 1903 3394 2198 3281 
Q 2494 3169 2634 2976 
Q 2775 2784 2828 2463 
L 2278 2388 
Q 2241 2644 2061 2787 
Q 1881 2931 1553 2931 
Q 1166 2931 1000 2803 
Q 834 2675 834 2503 
Q 834 2394 903 2306 
Q 972 2216 1119 2156 
Q 1203 2125 1616 2013 
Q 2213 1853 2448 1751 
Q 2684 1650 2818 1456 
Q 2953 1263 2953 975 
Q 2953 694 2789 445 
Q 2625 197 2315 61 
Q 2006 -75 1616 -75 
Q 969 -75 630 194 
Q 291 463 197 991 
z
" transform="scale(0.015625)"/>
       <path id="ArialMT-29" d="M 791 -1347 
L 388 -1347 
Q 1322 153 1322 1656 
Q 1322 2244 1188 2822 
Q 1081 3291 891 3722 
Q 769 4003 388 4659 
L 791 4659 
Q 1378 3875 1659 3084 
Q 1900 2403 1900 1659 
Q 1900 816 1576 28 
Q 1253 -759 791 -1347 
z
" transform="scale(0.015625)"/>
      </defs>
      <use xlink:href="#ArialMT-54"/>
      <use xlink:href="#ArialMT-69" transform="translate(57.333984 0)"/>
      <use xlink:href="#ArialMT-6d" transform="translate(79.550781 0)"/>
      <use xlink:href="#ArialMT-65" transform="translate(162.851562 0)"/>
      <use xlink:href="#ArialMT-20" transform="translate(218.466797 0)"/>
      <use xlink:href="#ArialMT-28" transform="translate(246.25 0)"/>
      <use xlink:href="#ArialMT-68" transform="translate(279.550781 0)"/>
      <use xlink:href="#ArialMT-6f" transform="translate(335.166016 0)"/>
      <use xlink:href="#ArialMT-75" transform="translate(390.78125 0)"/>
      <use xlink:href="#ArialMT-72" transform="translate(446.396484 0)"/>
      <use xlink:href="#ArialMT-73" transform="translate(479.697266 0)"/>
      <use xlink:href="#ArialMT-29" transform="translate(529.697266 0)"/>
     </g>
    </g>
   </g>
   <g id="matplotlib.axis_2">
    <g id="ytick_1">
     <g id="line2d_11">
      <path d="M 36.8275 190.583125 
L 464.31 190.583125 
" clip-path="url(#pb2eedc24b5)" style="fill: none; stroke: #b0b0b0; stroke-opacity: 0.3; stroke-width: 0.8; stroke-linecap: square"/>
     </g>
     <g id="line2d_12">
      <defs>
       <path id="mb0126b2b91" d="M 0 0 
L -3.5 0 
" style="stroke: #000000; stroke-width: 0.8"/>
      </defs>
      <g>
       <use xlink:href="#mb0126b2b91" x="36.8275" y="190.583125" style="stroke: #000000; stroke-width: 0.8"/>
      </g>
     </g>
     <g id="text_7">
      <!-- 0.0 -->
      <g transform="translate(18.7075 193.44625) scale(0.08 -0.08)">
       <defs>
        <path id="ArialMT-2e" d="M 581 0 
L 581 641 
L 1222 641 
L 1222 0 
L 581 0 
z
" transform="scale(0.015625)"/>
       </defs>
       <use xlink:href="#ArialMT-30"/>
       <use xlink:href="#ArialMT-2e" transform="translate(55.615234 0)"/>
       <use xlink:href="#ArialMT-30" transform="translate(83.398438 0)"/>
      </g>
     </g>
    </g>
    <g id="ytick_2">
     <g id="line2d_13">
      <path d="M 36.8275 160.496458 
L 464.31 160.496458 
" clip-path="url(#pb2eedc24b5)" style="fill: none; stroke: #b0b0b0; stroke-opacity: 0.3; stroke-width: 0.8; stroke-linecap: square"/>
     </g>
     <g id="line2d_14">
      <g>
       <use xlink:href="#mb0126b2b91" x="36.8275" y="160.496458" style="stroke: #000000; stroke-width: 0.8"/>
      </g>
     </g>
     <g id="text_8">
      <!-- 0.1 -->
      <g transform="translate(18.7075 163.359583) scale(0.08 -0.08)">
       <use xlink:href="#ArialMT-30"/>
       <use xlink:href="#ArialMT-2e" transform="translate(55.615234 0)"/>
       <use xlink:href="#ArialMT-31" transform="translate(83.398438 0)"/>
      </g>
     </g>
    </g>
    <g id="ytick_3">
     <g id="line2d_15">
      <path d="M 36.8275 130.409792 
L 464.31 130.409792 
" clip-path="url(#pb2eedc24b5)" style="fill: none; stroke: #b0b0b0; stroke-opacity: 0.3; stroke-width: 0.8; stroke-linecap: square"/>
     </g>
     <g id="line2d_16">
      <g>
       <use xlink:href="#mb0126b2b91" x="36.8275" y="130.409792" style="stroke: #000000; stroke-width: 0.8"/>
      </g>
     </g>
     <g id="text_9">
      <!-- 0.2 -->
      <g transform="translate(18.7075 133.272917) scale(0.08 -0.08)">
       <use xlink:href="#ArialMT-30"/>
       <use xlink:href="#ArialMT-2e" transform="translate(55.615234 0)"/>
       <use xlink:href="#ArialMT-32" transform="translate(83.398438 0)"/>
      </g>
     </g>
    </g>
    <g id="ytick_4">
     <g id="line2d_17">
      <path d="M 36.8275 100.323125 
L 464.31 100.323125 
" clip-path="url(#pb2eedc24b5)" style="fill: none; stroke: #b0b0b0; stroke-opacity: 0.3; stroke-width: 0.8; stroke-linecap: square"/>
     </g>
     <g id="line2d_18">
      <g>
       <use xlink:href="#mb0126b2b91" x="36.8275" y="100.323125" style="stroke: #000000; stroke-width: 0.8"/>
      </g>
     </g>
     <g id="text_10">
      <!-- 0.3 -->
      <g transform="translate(18.7075 103.18625) scale(0.08 -0.08)">
       <use xlink:href="#ArialMT-30"/>
       <use xlink:href="#ArialMT-2e" transform="translate(55.615234 0)"/>
       <use xlink:href="#ArialMT-33" transform="translate(83.398438 0)"/>
      </g>
     </g>
    </g>
    <g id="ytick_5">
     <g id="line2d_19">
      <path d="M 36.8275 70.236458 
L 464.31 70.236458 
" clip-path="url(#pb2eedc24b5)" style="fill: none; stroke: #b0b0b0; stroke-opacity: 0.3; stroke-width: 0.8; stroke-linecap: square"/>
     </g>
     <g id="line2d_20">
      <g>
       <use xlink:href="#mb0126b2b91" x="36.8275" y="70.236458" style="stroke: #000000; stroke-width: 0.8"/>
      </g>
     </g>
     <g id="text_11">
      <!-- 0.4 -->
      <g transform="translate(18.7075 73.099583) scale(0.08 -0.08)">
       <use xlink:href="#ArialMT-30"/>
       <use xlink:href="#ArialMT-2e" transform="translate(55.615234 0)"/>
       <use xlink:href="#ArialMT-34" transform="translate(83.398438 0)"/>
      </g>
     </g>
    </g>
    <g id="ytick_6">
     <g id="line2d_21">
      <path d="M 36.8275 40.149792 
L 464.31 40.149792 
" clip-path="url(#pb2eedc24b5)" style="fill: none; stroke: #b0b0b0; stroke-opacity: 0.3; stroke-width: 0.8; stroke-linecap: square"/>
     </g>
     <g id="line2d_22">
      <g>
       <use xlink:href="#mb0126b2b91" x="36.8275" y="40.149792" style="stroke: #000000; stroke-width: 0.8"/>
      </g>
     </g>
     <g id="text_12">
      <!-- 0.5 -->
      <g transform="translate(18.7075 43.012917) scale(0.08 -0.08)">
       <defs>
        <path id="ArialMT-35" d="M 266 1200 
L 856 1250 
Q 922 819 1161 601 
Q 1400 384 1738 384 
Q 2144 384 2425 690 
Q 2706 997 2706 1503 
Q 2706 1984 2436 2262 
Q 2166 2541 1728 2541 
Q 1456 2541 1237 2417 
Q 1019 2294 894 2097 
L 366 2166 
L 809 4519 
L 3088 4519 
L 3088 3981 
L 1259 3981 
L 1013 2750 
Q 1425 3038 1878 3038 
Q 2478 3038 2890 2622 
Q 3303 2206 3303 1553 
Q 3303 931 2941 478 
Q 2500 -78 1738 -78 
Q 1113 -78 717 272 
Q 322 622 266 1200 
z
" transform="scale(0.015625)"/>
       </defs>
       <use xlink:href="#ArialMT-30"/>
       <use xlink:href="#ArialMT-2e" transform="translate(55.615234 0)"/>
       <use xlink:href="#ArialMT-35" transform="translate(83.398438 0)"/>
      </g>
     </g>
    </g>
    <g id="ytick_7">
     <g id="line2d_23">
      <path d="M 36.8275 10.063125 
L 464.31 10.063125 
" clip-path="url(#pb2eedc24b5)" style="fill: none; stroke: #b0b0b0; stroke-opacity: 0.3; stroke-width: 0.8; stroke-linecap: square"/>
     </g>
     <g id="line2d_24">
      <g>
       <use xlink:href="#mb0126b2b91" x="36.8275" y="10.063125" style="stroke: #000000; stroke-width: 0.8"/>
      </g>
     </g>
     <g id="text_13">
      <!-- 0.6 -->
      <g transform="translate(18.7075 12.92625) scale(0.08 -0.08)">
       <defs>
        <path id="ArialMT-36" d="M 3184 3459 
L 2625 3416 
Q 2550 3747 2413 3897 
Q 2184 4138 1850 4138 
Q 1581 4138 1378 3988 
Q 1113 3794 959 3422 
Q 806 3050 800 2363 
Q 1003 2672 1297 2822 
Q 1591 2972 1913 2972 
Q 2475 2972 2870 2558 
Q 3266 2144 3266 1488 
Q 3266 1056 3080 686 
Q 2894 316 2569 119 
Q 2244 -78 1831 -78 
Q 1128 -78 684 439 
Q 241 956 241 2144 
Q 241 3472 731 4075 
Q 1159 4600 1884 4600 
Q 2425 4600 2770 4297 
Q 3116 3994 3184 3459 
z
M 888 1484 
Q 888 1194 1011 928 
Q 1134 663 1356 523 
Q 1578 384 1822 384 
Q 2178 384 2434 671 
Q 2691 959 2691 1453 
Q 2691 1928 2437 2201 
Q 2184 2475 1800 2475 
Q 1419 2475 1153 2201 
Q 888 1928 888 1484 
z
" transform="scale(0.015625)"/>
       </defs>
       <use xlink:href="#ArialMT-30"/>
       <use xlink:href="#ArialMT-2e" transform="translate(55.615234 0)"/>
       <use xlink:href="#ArialMT-36" transform="translate(83.398438 0)"/>
      </g>
     </g>
    </g>
    <g id="text_14">
     <!-- Mean P_S2 (blend mode) -->
     <g transform="translate(13.02375 145.901875) rotate(-90) scale(0.08 -0.08)">
      <defs>
       <path id="ArialMT-4d" d="M 475 0 
L 475 4581 
L 1388 4581 
L 2472 1338 
Q 2622 884 2691 659 
Q 2769 909 2934 1394 
L 4031 4581 
L 4847 4581 
L 4847 0 
L 4263 0 
L 4263 3834 
L 2931 0 
L 2384 0 
L 1059 3900 
L 1059 0 
L 475 0 
z
" transform="scale(0.015625)"/>
       <path id="ArialMT-61" d="M 2588 409 
Q 2275 144 1986 34 
Q 1697 -75 1366 -75 
Q 819 -75 525 192 
Q 231 459 231 875 
Q 231 1119 342 1320 
Q 453 1522 633 1644 
Q 813 1766 1038 1828 
Q 1203 1872 1538 1913 
Q 2219 1994 2541 2106 
Q 2544 2222 2544 2253 
Q 2544 2597 2384 2738 
Q 2169 2928 1744 2928 
Q 1347 2928 1158 2789 
Q 969 2650 878 2297 
L 328 2372 
Q 403 2725 575 2942 
Q 747 3159 1072 3276 
Q 1397 3394 1825 3394 
Q 2250 3394 2515 3294 
Q 2781 3194 2906 3042 
Q 3031 2891 3081 2659 
Q 3109 2516 3109 2141 
L 3109 1391 
Q 3109 606 3145 398 
Q 3181 191 3288 0 
L 2700 0 
Q 2613 175 2588 409 
z
M 2541 1666 
Q 2234 1541 1622 1453 
Q 1275 1403 1131 1340 
Q 988 1278 909 1158 
Q 831 1038 831 891 
Q 831 666 1001 516 
Q 1172 366 1500 366 
Q 1825 366 2078 508 
Q 2331 650 2450 897 
Q 2541 1088 2541 1459 
L 2541 1666 
z
" transform="scale(0.015625)"/>
       <path id="ArialMT-6e" d="M 422 0 
L 422 3319 
L 928 3319 
L 928 2847 
Q 1294 3394 1984 3394 
Q 2284 3394 2536 3286 
Q 2788 3178 2913 3003 
Q 3038 2828 3088 2588 
Q 3119 2431 3119 2041 
L 3119 0 
L 2556 0 
L 2556 2019 
Q 2556 2363 2490 2533 
Q 2425 2703 2258 2804 
Q 2091 2906 1866 2906 
Q 1506 2906 1245 2678 
Q 984 2450 984 1813 
L 984 0 
L 422 0 
z
" transform="scale(0.015625)"/>
       <path id="ArialMT-50" d="M 494 0 
L 494 4581 
L 2222 4581 
Q 2678 4581 2919 4538 
Q 3256 4481 3484 4323 
Q 3713 4166 3852 3881 
Q 3991 3597 3991 3256 
Q 3991 2672 3619 2267 
Q 3247 1863 2275 1863 
L 1100 1863 
L 1100 0 
L 494 0 
z
M 1100 2403 
L 2284 2403 
Q 2872 2403 3119 2622 
Q 3366 2841 3366 3238 
Q 3366 3525 3220 3729 
Q 3075 3934 2838 4000 
Q 2684 4041 2272 4041 
L 1100 4041 
L 1100 2403 
z
" transform="scale(0.015625)"/>
       <path id="ArialMT-5f" d="M -97 -1272 
L -97 -866 
L 3631 -866 
L 3631 -1272 
L -97 -1272 
z
" transform="scale(0.015625)"/>
       <path id="ArialMT-53" d="M 288 1472 
L 859 1522 
Q 900 1178 1048 958 
Q 1197 738 1509 602 
Q 1822 466 2213 466 
Q 2559 466 2825 569 
Q 3091 672 3220 851 
Q 3350 1031 3350 1244 
Q 3350 1459 3225 1620 
Q 3100 1781 2813 1891 
Q 2628 1963 1997 2114 
Q 1366 2266 1113 2400 
Q 784 2572 623 2826 
Q 463 3081 463 3397 
Q 463 3744 659 4045 
Q 856 4347 1234 4503 
Q 1613 4659 2075 4659 
Q 2584 4659 2973 4495 
Q 3363 4331 3572 4012 
Q 3781 3694 3797 3291 
L 3216 3247 
Q 3169 3681 2898 3903 
Q 2628 4125 2100 4125 
Q 1550 4125 1298 3923 
Q 1047 3722 1047 3438 
Q 1047 3191 1225 3031 
Q 1400 2872 2139 2705 
Q 2878 2538 3153 2413 
Q 3553 2228 3743 1945 
Q 3934 1663 3934 1294 
Q 3934 928 3725 604 
Q 3516 281 3123 101 
Q 2731 -78 2241 -78 
Q 1619 -78 1198 103 
Q 778 284 539 648 
Q 300 1013 288 1472 
z
" transform="scale(0.015625)"/>
       <path id="ArialMT-62" d="M 941 0 
L 419 0 
L 419 4581 
L 981 4581 
L 981 2947 
Q 1338 3394 1891 3394 
Q 2197 3394 2470 3270 
Q 2744 3147 2920 2923 
Q 3097 2700 3197 2384 
Q 3297 2069 3297 1709 
Q 3297 856 2875 390 
Q 2453 -75 1863 -75 
Q 1275 -75 941 416 
L 941 0 
z
M 934 1684 
Q 934 1088 1097 822 
Q 1363 388 1816 388 
Q 2184 388 2453 708 
Q 2722 1028 2722 1663 
Q 2722 2313 2464 2622 
Q 2206 2931 1841 2931 
Q 1472 2931 1203 2611 
Q 934 2291 934 1684 
z
" transform="scale(0.015625)"/>
       <path id="ArialMT-6c" d="M 409 0 
L 409 4581 
L 972 4581 
L 972 0 
L 409 0 
z
" transform="scale(0.015625)"/>
       <path id="ArialMT-64" d="M 2575 0 
L 2575 419 
Q 2259 -75 1647 -75 
Q 1250 -75 917 144 
Q 584 363 401 755 
Q 219 1147 219 1656 
Q 219 2153 384 2558 
Q 550 2963 881 3178 
Q 1213 3394 1622 3394 
Q 1922 3394 2156 3267 
Q 2391 3141 2538 2938 
L 2538 4581 
L 3097 4581 
L 3097 0 
L 2575 0 
z
M 797 1656 
Q 797 1019 1065 703 
Q 1334 388 1700 388 
Q 2069 388 2326 689 
Q 2584 991 2584 1609 
Q 2584 2291 2321 2609 
Q 2059 2928 1675 2928 
Q 1300 2928 1048 2622 
Q 797 2316 797 1656 
z
" transform="scale(0.015625)"/>
      </defs>
      <use xlink:href="#ArialMT-4d"/>
      <use xlink:href="#ArialMT-65" transform="translate(83.300781 0)"/>
      <use xlink:href="#ArialMT-61" transform="translate(138.916016 0)"/>
      <use xlink:href="#ArialMT-6e" transform="translate(194.53125 0)"/>
      <use xlink:href="#ArialMT-20" transform="translate(250.146484 0)"/>
      <use xlink:href="#ArialMT-50" transform="translate(277.929688 0)"/>
      <use xlink:href="#ArialMT-5f" transform="translate(344.628906 0)"/>
      <use xlink:href="#ArialMT-53" transform="translate(400.244141 0)"/>
      <use xlink:href="#ArialMT-32" transform="translate(466.943359 0)"/>
      <use xlink:href="#ArialMT-20" transform="translate(522.558594 0)"/>
      <use xlink:href="#ArialMT-28" transform="translate(550.341797 0)"/>
      <use xlink:href="#ArialMT-62" transform="translate(583.642578 0)"/>
      <use xlink:href="#ArialMT-6c" transform="translate(639.257812 0)"/>
      <use xlink:href="#ArialMT-65" transform="translate(661.474609 0)"/>
      <use xlink:href="#ArialMT-6e" transform="translate(717.089844 0)"/>
      <use xlink:href="#ArialMT-64" transform="translate(772.705078 0)"/>
      <use xlink:href="#ArialMT-20" transform="translate(828.320312 0)"/>
      <use xlink:href="#ArialMT-6d" transform="translate(856.103516 0)"/>
      <use xlink:href="#ArialMT-6f" transform="translate(939.404297 0)"/>
      <use xlink:href="#ArialMT-64" transform="translate(995.019531 0)"/>
      <use xlink:href="#ArialMT-65" transform="translate(1050.634766 0)"/>
      <use xlink:href="#ArialMT-29" transform="translate(1106.25 0)"/>
     </g>
    </g>
   </g>
   <g id="line2d_25">
    <path d="M 36.8275 49.799007 
L 45.733385 50.578462 
L 54.639271 50.05363 
L 63.545156 50.25819 
L 72.451042 50.47349 
L 81.356927 50.740328 
L 90.262813 50.988032 
L 99.168698 51.370193 
L 108.074583 51.745975 
L 116.980469 52.272943 
L 125.886354 52.760347 
L 134.79224 53.147412 
L 143.698125 53.427278 
L 152.60401 53.606836 
L 161.509896 54.123213 
L 170.415781 54.309028 
L 179.321667 54.855914 
L 188.227552 55.137705 
L 197.133438 55.263137 
L 206.039323 55.342957 
L 214.945208 55.772143 
L 223.851094 56.104601 
L 232.756979 56.376734 
L 241.662865 56.72231 
L 250.56875 57.117197 
L 259.474635 57.525504 
L 268.380521 57.69077 
L 277.286406 58.218189 
L 286.192292 58.363116 
L 295.098177 58.715371 
L 304.004062 59.035523 
L 312.909948 59.542754 
L 321.815833 59.865885 
L 330.721719 59.772827 
L 339.627604 59.85364 
L 348.53349 60.062291 
L 357.439375 60.262999 
L 366.34526 60.618864 
L 375.251146 60.893074 
L 384.157031 61.419741 
L 393.062917 62.080715 
L 401.968802 62.413624 
L 410.874687 62.531985 
L 419.780573 62.225071 
L 428.686458 62.546848 
L 437.592344 62.979584 
L 446.498229 63.696189 
L 455.404115 63.98827 
L 464.31 63.81106 
" clip-path="url(#pb2eedc24b5)" style="fill: none; stroke: #888780; stroke-width: 1.5; stroke-linecap: square"/>
   </g>
   <g id="line2d_26">
    <path d="M 36.8275 49.494209 
L 45.733385 50.229326 
L 54.639271 49.626991 
L 63.545156 49.966469 
L 72.451042 50.487771 
L 81.356927 50.680727 
L 90.262813 51.124405 
L 99.168698 51.656136 
L 108.074583 51.88309 
L 116.980469 52.320049 
L 125.886354 53.324743 
L 134.79224 53.625209 
L 143.698125 53.893381 
L 152.60401 55.687349 
L 161.509896 56.436005 
L 170.415781 57.612093 
L 179.321667 58.036014 
L 188.227552 58.957669 
L 197.133438 59.457308 
L 206.039323 59.611954 
L 214.945208 59.866387 
L 223.851094 60.039786 
L 232.756979 59.573142 
L 241.662865 59.819652 
L 250.56875 60.862055 
L 259.474635 61.056415 
L 268.380521 60.942186 
L 277.286406 60.306755 
L 286.192292 60.93316 
L 295.098177 61.975462 
L 304.004062 62.411618 
L 312.909948 61.899543 
L 321.815833 61.703679 
L 330.721719 61.984488 
L 339.627604 62.27322 
L 348.53349 62.980256 
L 357.439375 63.566946 
L 366.34526 62.123188 
L 375.251146 63.164587 
L 384.157031 63.308502 
L 393.062917 63.518607 
L 401.968802 63.312714 
L 410.874687 63.824388 
L 419.780573 64.215214 
L 428.686458 65.054431 
L 437.592344 64.557199 
L 446.498229 64.151029 
L 455.404115 63.954162 
L 464.31 64.633719 
" clip-path="url(#pb2eedc24b5)" style="fill: none; stroke: #378add; stroke-width: 1.5; stroke-linecap: square"/>
   </g>
   <g id="line2d_27">
    <path d="M 36.8275 49.799007 
L 45.733385 57.102605 
L 54.639271 55.989549 
L 63.545156 63.936701 
L 72.451042 62.330946 
L 81.356927 69.703172 
L 90.262813 69.135738 
L 99.168698 75.217848 
L 108.074583 74.520168 
L 116.980469 78.16258 
L 125.886354 83.820348 
L 134.79224 82.200542 
L 143.698125 90.609554 
L 152.60401 87.926696 
L 161.509896 96.414837 
L 170.415781 94.618693 
L 179.321667 103.853494 
L 188.227552 103.64009 
L 197.133438 103.352461 
L 206.039323 103.600586 
L 214.945208 102.479316 
L 223.851094 102.935671 
L 232.756979 97.30462 
L 241.662865 94.840432 
L 250.56875 85.900329 
L 259.474635 84.996947 
L 268.380521 76.691432 
L 277.286406 76.44767 
L 286.192292 69.103394 
L 295.098177 69.467985 
L 304.004062 69.9627 
L 312.909948 70.098601 
L 321.815833 69.804354 
L 330.721719 70.203874 
L 339.627604 70.009996 
L 348.53349 70.08768 
L 357.439375 70.138195 
L 366.34526 69.923828 
L 375.251146 70.45582 
L 384.157031 70.498513 
L 393.062917 70.521379 
L 401.968802 71.234493 
L 410.874687 71.058215 
L 419.780573 71.277577 
L 428.686458 70.983149 
L 437.592344 71.092544 
L 446.498229 70.76815 
L 455.404115 70.451849 
L 464.31 70.374466 
" clip-path="url(#pb2eedc24b5)" style="fill: none; stroke: #1d9e75; stroke-width: 1.5; stroke-linecap: square"/>
   </g>
   <g id="patch_3">
    <path d="M 36.8275 190.583125 
L 36.8275 10.063125 
" style="fill: none; stroke: #000000; stroke-width: 0.5; stroke-linejoin: miter; stroke-linecap: square"/>
   </g>
   <g id="patch_4">
    <path d="M 36.8275 190.583125 
L 464.31 190.583125 
" style="fill: none; stroke: #000000; stroke-width: 0.5; stroke-linejoin: miter; stroke-linecap: square"/>
   </g>
   <g id="text_15">
    <g id="patch_5">
     <path d="M 383.7116 27.47165 
L 455.76035 27.47165 
Q 457.56035 27.47165 457.56035 25.67165 
L 457.56035 13.743838 
Q 457.56035 11.943838 455.76035 11.943838 
L 383.7116 11.943838 
Q 381.9116 11.943838 381.9116 13.743838 
L 381.9116 25.67165 
Q 381.9116 27.47165 383.7116 27.47165 
z
" style="fill: #ffffff; opacity: 0.9; stroke: #808080; stroke-linejoin: miter"/>
    </g>
    <!-- α=2.0, β=2.0, κ=5.0 -->
    <g transform="translate(403.640038 18.041338) scale(0.06 -0.06)">
     <defs>
      <path id="ArialMT-3b1" d="M 2884 3319 
L 3459 3319 
Q 3241 2631 3056 1659 
Q 3275 453 3459 0 
L 2900 0 
Q 2766 313 2697 606 
Q 2438 -75 1613 -75 
Q 988 -75 606 394 
Q 225 863 225 1666 
Q 225 2491 608 2942 
Q 991 3394 1622 3394 
Q 2013 3394 2259 3236 
Q 2506 3078 2719 2756 
Q 2741 2866 2884 3319 
z
M 1716 2928 
Q 1313 2928 1078 2603 
Q 844 2278 844 1666 
Q 844 1069 1066 728 
Q 1288 388 1684 388 
Q 2072 388 2331 723 
Q 2591 1059 2591 1691 
Q 2591 2303 2348 2615 
Q 2106 2928 1716 2928 
z
" transform="scale(0.015625)"/>
      <path id="ArialMT-3d" d="M 3381 2694 
L 356 2694 
L 356 3219 
L 3381 3219 
L 3381 2694 
z
M 3381 1303 
L 356 1303 
L 356 1828 
L 3381 1828 
L 3381 1303 
z
" transform="scale(0.015625)"/>
      <path id="ArialMT-2c" d="M 569 0 
L 569 641 
L 1209 641 
L 1209 0 
Q 1209 -353 1084 -570 
Q 959 -788 688 -906 
L 531 -666 
Q 709 -588 793 -436 
Q 878 -284 888 0 
L 569 0 
z
" transform="scale(0.015625)"/>
      <path id="ArialMT-3b2" d="M 997 422 
L 997 -1272 
L 438 -1272 
L 438 3144 
Q 438 3672 580 3970 
Q 722 4269 1069 4464 
Q 1416 4659 1841 4659 
Q 2469 4659 2792 4298 
Q 3116 3938 3116 3509 
Q 3116 3091 2855 2834 
Q 2594 2578 2256 2519 
Q 2800 2466 3095 2128 
Q 3391 1791 3391 1297 
Q 3391 766 3042 345 
Q 2694 -75 2034 -75 
Q 1359 -75 997 422 
z
M 1494 2700 
Q 2069 2700 2331 2900 
Q 2594 3100 2594 3478 
Q 2594 3784 2370 3990 
Q 2147 4197 1813 4197 
Q 1522 4197 1308 4044 
Q 1094 3891 1045 3703 
Q 997 3516 997 3047 
L 997 1788 
Q 997 1250 1072 997 
Q 1147 744 1394 541 
Q 1641 338 1963 338 
Q 2353 338 2579 605 
Q 2806 872 2806 1266 
Q 2806 1591 2639 1848 
Q 2472 2106 2226 2198 
Q 1981 2291 1575 2291 
L 1494 2291 
L 1494 2700 
z
" transform="scale(0.015625)"/>
      <path id="ArialMT-3ba" d="M 419 3319 
L 978 3319 
L 978 2016 
L 2325 3319 
L 3069 3319 
L 1584 1941 
L 3197 0 
L 2478 0 
L 1184 1563 
L 978 1372 
L 978 0 
L 419 0 
L 419 3319 
z
" transform="scale(0.015625)"/>
     </defs>
     <use xlink:href="#ArialMT-3b1"/>
     <use xlink:href="#ArialMT-3d" transform="translate(57.8125 0)"/>
     <use xlink:href="#ArialMT-32" transform="translate(116.210938 0)"/>
     <use xlink:href="#ArialMT-2e" transform="translate(171.826172 0)"/>
     <use xlink:href="#ArialMT-30" transform="translate(199.609375 0)"/>
     <use xlink:href="#ArialMT-2c" transform="translate(255.224609 0)"/>
     <use xlink:href="#ArialMT-20" transform="translate(283.007812 0)"/>
     <use xlink:href="#ArialMT-3b2" transform="translate(310.791016 0)"/>
     <use xlink:href="#ArialMT-3d" transform="translate(368.310547 0)"/>
     <use xlink:href="#ArialMT-32" transform="translate(426.708984 0)"/>
     <use xlink:href="#ArialMT-2e" transform="translate(482.324219 0)"/>
     <use xlink:href="#ArialMT-30" transform="translate(510.107422 0)"/>
     <use xlink:href="#ArialMT-2c" transform="translate(565.722656 0)"/>
     <use xlink:href="#ArialMT-20" transform="translate(593.505859 0)"/>
     <use xlink:href="#ArialMT-3ba" transform="translate(621.289062 0)"/>
     <use xlink:href="#ArialMT-3d" transform="translate(671.289062 0)"/>
     <use xlink:href="#ArialMT-35" transform="translate(729.6875 0)"/>
     <use xlink:href="#ArialMT-2e" transform="translate(785.302734 0)"/>
     <use xlink:href="#ArialMT-30" transform="translate(813.085938 0)"/>
    </g>
    <!-- N_agents=500, N_runs=10 -->
    <g transform="translate(383.7116 24.408838) scale(0.06 -0.06)">
     <defs>
      <path id="ArialMT-4e" d="M 488 0 
L 488 4581 
L 1109 4581 
L 3516 984 
L 3516 4581 
L 4097 4581 
L 4097 0 
L 3475 0 
L 1069 3600 
L 1069 0 
L 488 0 
z
" transform="scale(0.015625)"/>
      <path id="ArialMT-67" d="M 319 -275 
L 866 -356 
Q 900 -609 1056 -725 
Q 1266 -881 1628 -881 
Q 2019 -881 2231 -725 
Q 2444 -569 2519 -288 
Q 2563 -116 2559 434 
Q 2191 0 1641 0 
Q 956 0 581 494 
Q 206 988 206 1678 
Q 206 2153 378 2554 
Q 550 2956 876 3175 
Q 1203 3394 1644 3394 
Q 2231 3394 2613 2919 
L 2613 3319 
L 3131 3319 
L 3131 450 
Q 3131 -325 2973 -648 
Q 2816 -972 2473 -1159 
Q 2131 -1347 1631 -1347 
Q 1038 -1347 672 -1080 
Q 306 -813 319 -275 
z
M 784 1719 
Q 784 1066 1043 766 
Q 1303 466 1694 466 
Q 2081 466 2343 764 
Q 2606 1063 2606 1700 
Q 2606 2309 2336 2618 
Q 2066 2928 1684 2928 
Q 1309 2928 1046 2623 
Q 784 2319 784 1719 
z
" transform="scale(0.015625)"/>
      <path id="ArialMT-74" d="M 1650 503 
L 1731 6 
Q 1494 -44 1306 -44 
Q 1000 -44 831 53 
Q 663 150 594 308 
Q 525 466 525 972 
L 525 2881 
L 113 2881 
L 113 3319 
L 525 3319 
L 525 4141 
L 1084 4478 
L 1084 3319 
L 1650 3319 
L 1650 2881 
L 1084 2881 
L 1084 941 
Q 1084 700 1114 631 
Q 1144 563 1211 522 
Q 1278 481 1403 481 
Q 1497 481 1650 503 
z
" transform="scale(0.015625)"/>
     </defs>
     <use xlink:href="#ArialMT-4e"/>
     <use xlink:href="#ArialMT-5f" transform="translate(72.216797 0)"/>
     <use xlink:href="#ArialMT-61" transform="translate(127.832031 0)"/>
     <use xlink:href="#ArialMT-67" transform="translate(183.447266 0)"/>
     <use xlink:href="#ArialMT-65" transform="translate(239.0625 0)"/>
     <use xlink:href="#ArialMT-6e" transform="translate(294.677734 0)"/>
     <use xlink:href="#ArialMT-74" transform="translate(350.292969 0)"/>
     <use xlink:href="#ArialMT-73" transform="translate(378.076172 0)"/>
     <use xlink:href="#ArialMT-3d" transform="translate(428.076172 0)"/>
     <use xlink:href="#ArialMT-35" transform="translate(486.474609 0)"/>
     <use xlink:href="#ArialMT-30" transform="translate(542.089844 0)"/>
     <use xlink:href="#ArialMT-30" transform="translate(597.705078 0)"/>
     <use xlink:href="#ArialMT-2c" transform="translate(653.320312 0)"/>
     <use xlink:href="#ArialMT-20" transform="translate(681.103516 0)"/>
     <use xlink:href="#ArialMT-4e" transform="translate(708.886719 0)"/>
     <use xlink:href="#ArialMT-5f" transform="translate(781.103516 0)"/>
     <use xlink:href="#ArialMT-72" transform="translate(836.71875 0)"/>
     <use xlink:href="#ArialMT-75" transform="translate(870.019531 0)"/>
     <use xlink:href="#ArialMT-6e" transform="translate(925.634766 0)"/>
     <use xlink:href="#ArialMT-73" transform="translate(981.25 0)"/>
     <use xlink:href="#ArialMT-3d" transform="translate(1031.25 0)"/>
     <use xlink:href="#ArialMT-31" transform="translate(1089.648438 0)"/>
     <use xlink:href="#ArialMT-30" transform="translate(1145.263672 0)"/>
    </g>
   </g>
   <g id="legend_1">
    <g id="patch_6">
     <path d="M 41.7275 45.870313 
L 113.928125 45.870313 
Q 115.328125 45.870313 115.328125 44.470313 
L 115.328125 14.963125 
Q 115.328125 13.563125 113.928125 13.563125 
L 41.7275 13.563125 
Q 40.3275 13.563125 40.3275 14.963125 
L 40.3275 44.470313 
Q 40.3275 45.870313 41.7275 45.870313 
z
" style="fill: #ffffff; opacity: 0.8; stroke: #cccccc; stroke-linejoin: miter"/>
    </g>
    <g id="line2d_28">
     <path d="M 43.1275 19.008906 
L 50.1275 19.008906 
L 57.1275 19.008906 
" style="fill: none; stroke: #888780; stroke-width: 1.5; stroke-linecap: square"/>
    </g>
    <g id="text_16">
     <!-- P_S2 (static) -->
     <g transform="translate(62.7275 21.458906) scale(0.07 -0.07)">
      <defs>
       <path id="ArialMT-63" d="M 2588 1216 
L 3141 1144 
Q 3050 572 2676 248 
Q 2303 -75 1759 -75 
Q 1078 -75 664 370 
Q 250 816 250 1647 
Q 250 2184 428 2587 
Q 606 2991 970 3192 
Q 1334 3394 1763 3394 
Q 2303 3394 2647 3120 
Q 2991 2847 3088 2344 
L 2541 2259 
Q 2463 2594 2264 2762 
Q 2066 2931 1784 2931 
Q 1359 2931 1093 2626 
Q 828 2322 828 1663 
Q 828 994 1084 691 
Q 1341 388 1753 388 
Q 2084 388 2306 591 
Q 2528 794 2588 1216 
z
" transform="scale(0.015625)"/>
      </defs>
      <use xlink:href="#ArialMT-50"/>
      <use xlink:href="#ArialMT-5f" transform="translate(66.699219 0)"/>
      <use xlink:href="#ArialMT-53" transform="translate(122.314453 0)"/>
      <use xlink:href="#ArialMT-32" transform="translate(189.013672 0)"/>
      <use xlink:href="#ArialMT-20" transform="translate(244.628906 0)"/>
      <use xlink:href="#ArialMT-28" transform="translate(272.412109 0)"/>
      <use xlink:href="#ArialMT-73" transform="translate(305.712891 0)"/>
      <use xlink:href="#ArialMT-74" transform="translate(355.712891 0)"/>
      <use xlink:href="#ArialMT-61" transform="translate(383.496094 0)"/>
      <use xlink:href="#ArialMT-74" transform="translate(439.111328 0)"/>
      <use xlink:href="#ArialMT-69" transform="translate(466.894531 0)"/>
      <use xlink:href="#ArialMT-63" transform="translate(489.111328 0)"/>
      <use xlink:href="#ArialMT-29" transform="translate(539.111328 0)"/>
     </g>
    </g>
    <g id="line2d_29">
     <path d="M 43.1275 29.077969 
L 50.1275 29.077969 
L 57.1275 29.077969 
" style="fill: none; stroke: #378add; stroke-width: 1.5; stroke-linecap: square"/>
    </g>
    <g id="text_17">
     <!-- P_S2 (pulse) -->
     <g transform="translate(62.7275 31.527969) scale(0.07 -0.07)">
      <defs>
       <path id="ArialMT-70" d="M 422 -1272 
L 422 3319 
L 934 3319 
L 934 2888 
Q 1116 3141 1344 3267 
Q 1572 3394 1897 3394 
Q 2322 3394 2647 3175 
Q 2972 2956 3137 2557 
Q 3303 2159 3303 1684 
Q 3303 1175 3120 767 
Q 2938 359 2589 142 
Q 2241 -75 1856 -75 
Q 1575 -75 1351 44 
Q 1128 163 984 344 
L 984 -1272 
L 422 -1272 
z
M 931 1641 
Q 931 1000 1190 694 
Q 1450 388 1819 388 
Q 2194 388 2461 705 
Q 2728 1022 2728 1688 
Q 2728 2322 2467 2637 
Q 2206 2953 1844 2953 
Q 1484 2953 1207 2617 
Q 931 2281 931 1641 
z
" transform="scale(0.015625)"/>
      </defs>
      <use xlink:href="#ArialMT-50"/>
      <use xlink:href="#ArialMT-5f" transform="translate(66.699219 0)"/>
      <use xlink:href="#ArialMT-53" transform="translate(122.314453 0)"/>
      <use xlink:href="#ArialMT-32" transform="translate(189.013672 0)"/>
      <use xlink:href="#ArialMT-20" transform="translate(244.628906 0)"/>
      <use xlink:href="#ArialMT-28" transform="translate(272.412109 0)"/>
      <use xlink:href="#ArialMT-70" transform="translate(305.712891 0)"/>
      <use xlink:href="#ArialMT-75" transform="translate(361.328125 0)"/>
      <use xlink:href="#ArialMT-6c" transform="translate(416.943359 0)"/>
      <use xlink:href="#ArialMT-73" transform="translate(439.160156 0)"/>
      <use xlink:href="#ArialMT-65" transform="translate(489.160156 0)"/>
      <use xlink:href="#ArialMT-29" transform="translate(544.775391 0)"/>
     </g>
    </g>
    <g id="line2d_30">
     <path d="M 43.1275 39.147031 
L 50.1275 39.147031 
L 57.1275 39.147031 
" style="fill: none; stroke: #1d9e75; stroke-width: 1.5; stroke-linecap: square"/>
    </g>
    <g id="text_18">
     <!-- P_S2 (escalate) -->
     <g transform="translate(62.7275 41.597031) scale(0.07 -0.07)">
      <use xlink:href="#ArialMT-50"/>
      <use xlink:href="#ArialMT-5f" transform="translate(66.699219 0)"/>
      <use xlink:href="#ArialMT-53" transform="translate(122.314453 0)"/>
      <use xlink:href="#ArialMT-32" transform="translate(189.013672 0)"/>
      <use xlink:href="#ArialMT-20" transform="translate(244.628906 0)"/>
      <use xlink:href="#ArialMT-28" transform="translate(272.412109 0)"/>
      <use xlink:href="#ArialMT-65" transform="translate(305.712891 0)"/>
      <use xlink:href="#ArialMT-73" transform="translate(361.328125 0)"/>
      <use xlink:href="#ArialMT-63" transform="translate(411.328125 0)"/>
      <use xlink:href="#ArialMT-61" transform="translate(461.328125 0)"/>
      <use xlink:href="#ArialMT-6c" transform="translate(516.943359 0)"/>
      <use xlink:href="#ArialMT-61" transform="translate(539.160156 0)"/>
      <use xlink:href="#ArialMT-74" transform="translate(594.775391 0)"/>
      <use xlink:href="#ArialMT-65" transform="translate(622.558594 0)"/>
      <use xlink:href="#ArialMT-29" transform="translate(678.173828 0)"/>
     </g>
    </g>
   </g>
  </g>
  <g id="axes_2">
   <g id="matplotlib.axis_3">
    <g id="ytick_8">
     <g id="line2d_31">
      <defs>
       <path id="m1233fdb721" d="M 0 0 
L 3.5 0 
" style="stroke: #000000; stroke-width: 0.8"/>
      </defs>
      <g>
       <use xlink:href="#m1233fdb721" x="464.31" y="190.583125" style="stroke: #000000; stroke-width: 0.8"/>
      </g>
     </g>
     <g id="text_19">
      <!-- 0.0 -->
      <g transform="translate(471.31 193.44625) scale(0.08 -0.08)">
       <use xlink:href="#ArialMT-30"/>
       <use xlink:href="#ArialMT-2e" transform="translate(55.615234 0)"/>
       <use xlink:href="#ArialMT-30" transform="translate(83.398438 0)"/>
      </g>
     </g>
    </g>
    <g id="ytick_9">
     <g id="line2d_32">
      <g>
       <use xlink:href="#m1233fdb721" x="464.31" y="160.496458" style="stroke: #000000; stroke-width: 0.8"/>
      </g>
     </g>
     <g id="text_20">
      <!-- 0.2 -->
      <g transform="translate(471.31 163.359583) scale(0.08 -0.08)">
       <use xlink:href="#ArialMT-30"/>
       <use xlink:href="#ArialMT-2e" transform="translate(55.615234 0)"/>
       <use xlink:href="#ArialMT-32" transform="translate(83.398438 0)"/>
      </g>
     </g>
    </g>
    <g id="ytick_10">
     <g id="line2d_33">
      <g>
       <use xlink:href="#m1233fdb721" x="464.31" y="130.409792" style="stroke: #000000; stroke-width: 0.8"/>
      </g>
     </g>
     <g id="text_21">
      <!-- 0.4 -->
      <g transform="translate(471.31 133.272917) scale(0.08 -0.08)">
       <use xlink:href="#ArialMT-30"/>
       <use xlink:href="#ArialMT-2e" transform="translate(55.615234 0)"/>
       <use xlink:href="#ArialMT-34" transform="translate(83.398438 0)"/>
      </g>
     </g>
    </g>
    <g id="ytick_11">
     <g id="line2d_34">
      <g>
       <use xlink:href="#m1233fdb721" x="464.31" y="100.323125" style="stroke: #000000; stroke-width: 0.8"/>
      </g>
     </g>
     <g id="text_22">
      <!-- 0.6 -->
      <g transform="translate(471.31 103.18625) scale(0.08 -0.08)">
       <use xlink:href="#ArialMT-30"/>
       <use xlink:href="#ArialMT-2e" transform="translate(55.615234 0)"/>
       <use xlink:href="#ArialMT-36" transform="translate(83.398438 0)"/>
      </g>
     </g>
    </g>
    <g id="ytick_12">
     <g id="line2d_35">
      <g>
       <use xlink:href="#m1233fdb721" x="464.31" y="70.236458" style="stroke: #000000; stroke-width: 0.8"/>
      </g>
     </g>
     <g id="text_23">
      <!-- 0.8 -->
      <g transform="translate(471.31 73.099583) scale(0.08 -0.08)">
       <defs>
        <path id="ArialMT-38" d="M 1131 2484 
Q 781 2613 612 2850 
Q 444 3088 444 3419 
Q 444 3919 803 4259 
Q 1163 4600 1759 4600 
Q 2359 4600 2725 4251 
Q 3091 3903 3091 3403 
Q 3091 3084 2923 2848 
Q 2756 2613 2416 2484 
Q 2838 2347 3058 2040 
Q 3278 1734 3278 1309 
Q 3278 722 2862 322 
Q 2447 -78 1769 -78 
Q 1091 -78 675 323 
Q 259 725 259 1325 
Q 259 1772 486 2073 
Q 713 2375 1131 2484 
z
M 1019 3438 
Q 1019 3113 1228 2906 
Q 1438 2700 1772 2700 
Q 2097 2700 2305 2904 
Q 2513 3109 2513 3406 
Q 2513 3716 2298 3927 
Q 2084 4138 1766 4138 
Q 1444 4138 1231 3931 
Q 1019 3725 1019 3438 
z
M 838 1322 
Q 838 1081 952 856 
Q 1066 631 1291 507 
Q 1516 384 1775 384 
Q 2178 384 2440 643 
Q 2703 903 2703 1303 
Q 2703 1709 2433 1975 
Q 2163 2241 1756 2241 
Q 1359 2241 1098 1978 
Q 838 1716 838 1322 
z
" transform="scale(0.015625)"/>
       </defs>
       <use xlink:href="#ArialMT-30"/>
       <use xlink:href="#ArialMT-2e" transform="translate(55.615234 0)"/>
       <use xlink:href="#ArialMT-38" transform="translate(83.398438 0)"/>
      </g>
     </g>
    </g>
    <g id="ytick_13">
     <g id="line2d_36">
      <g>
       <use xlink:href="#m1233fdb721" x="464.31" y="40.149792" style="stroke: #000000; stroke-width: 0.8"/>
      </g>
     </g>
     <g id="text_24">
      <!-- 1.0 -->
      <g transform="translate(471.31 43.012917) scale(0.08 -0.08)">
       <use xlink:href="#ArialMT-31"/>
       <use xlink:href="#ArialMT-2e" transform="translate(55.615234 0)"/>
       <use xlink:href="#ArialMT-30" transform="translate(83.398438 0)"/>
      </g>
     </g>
    </g>
    <g id="ytick_14">
     <g id="line2d_37">
      <g>
       <use xlink:href="#m1233fdb721" x="464.31" y="10.063125" style="stroke: #000000; stroke-width: 0.8"/>
      </g>
     </g>
     <g id="text_25">
      <!-- 1.2 -->
      <g transform="translate(471.31 12.92625) scale(0.08 -0.08)">
       <use xlink:href="#ArialMT-31"/>
       <use xlink:href="#ArialMT-2e" transform="translate(55.615234 0)"/>
       <use xlink:href="#ArialMT-32" transform="translate(83.398438 0)"/>
      </g>
     </g>
    </g>
    <g id="text_26">
     <!-- Conflict intensity (dashed) -->
     <g transform="translate(492.25375 146.341875) rotate(-90) scale(0.08 -0.08)">
      <defs>
       <path id="ArialMT-43" d="M 3763 1606 
L 4369 1453 
Q 4178 706 3683 314 
Q 3188 -78 2472 -78 
Q 1731 -78 1267 223 
Q 803 525 561 1097 
Q 319 1669 319 2325 
Q 319 3041 592 3573 
Q 866 4106 1370 4382 
Q 1875 4659 2481 4659 
Q 3169 4659 3637 4309 
Q 4106 3959 4291 3325 
L 3694 3184 
Q 3534 3684 3231 3912 
Q 2928 4141 2469 4141 
Q 1941 4141 1586 3887 
Q 1231 3634 1087 3207 
Q 944 2781 944 2328 
Q 944 1744 1114 1308 
Q 1284 872 1643 656 
Q 2003 441 2422 441 
Q 2931 441 3284 734 
Q 3638 1028 3763 1606 
z
" transform="scale(0.015625)"/>
       <path id="ArialMT-66" d="M 556 0 
L 556 2881 
L 59 2881 
L 59 3319 
L 556 3319 
L 556 3672 
Q 556 4006 616 4169 
Q 697 4388 901 4523 
Q 1106 4659 1475 4659 
Q 1713 4659 2000 4603 
L 1916 4113 
Q 1741 4144 1584 4144 
Q 1328 4144 1222 4034 
Q 1116 3925 1116 3625 
L 1116 3319 
L 1763 3319 
L 1763 2881 
L 1116 2881 
L 1116 0 
L 556 0 
z
" transform="scale(0.015625)"/>
       <path id="ArialMT-79" d="M 397 -1278 
L 334 -750 
Q 519 -800 656 -800 
Q 844 -800 956 -737 
Q 1069 -675 1141 -563 
Q 1194 -478 1313 -144 
Q 1328 -97 1363 -6 
L 103 3319 
L 709 3319 
L 1400 1397 
Q 1534 1031 1641 628 
Q 1738 1016 1872 1384 
L 2581 3319 
L 3144 3319 
L 1881 -56 
Q 1678 -603 1566 -809 
Q 1416 -1088 1222 -1217 
Q 1028 -1347 759 -1347 
Q 597 -1347 397 -1278 
z
" transform="scale(0.015625)"/>
      </defs>
      <use xlink:href="#ArialMT-43"/>
      <use xlink:href="#ArialMT-6f" transform="translate(72.216797 0)"/>
      <use xlink:href="#ArialMT-6e" transform="translate(127.832031 0)"/>
      <use xlink:href="#ArialMT-66" transform="translate(183.447266 0)"/>
      <use xlink:href="#ArialMT-6c" transform="translate(211.230469 0)"/>
      <use xlink:href="#ArialMT-69" transform="translate(233.447266 0)"/>
      <use xlink:href="#ArialMT-63" transform="translate(255.664062 0)"/>
      <use xlink:href="#ArialMT-74" transform="translate(305.664062 0)"/>
      <use xlink:href="#ArialMT-20" transform="translate(333.447266 0)"/>
      <use xlink:href="#ArialMT-69" transform="translate(361.230469 0)"/>
      <use xlink:href="#ArialMT-6e" transform="translate(383.447266 0)"/>
      <use xlink:href="#ArialMT-74" transform="translate(439.0625 0)"/>
      <use xlink:href="#ArialMT-65" transform="translate(466.845703 0)"/>
      <use xlink:href="#ArialMT-6e" transform="translate(522.460938 0)"/>
      <use xlink:href="#ArialMT-73" transform="translate(578.076172 0)"/>
      <use xlink:href="#ArialMT-69" transform="translate(628.076172 0)"/>
      <use xlink:href="#ArialMT-74" transform="translate(650.292969 0)"/>
      <use xlink:href="#ArialMT-79" transform="translate(678.076172 0)"/>
      <use xlink:href="#ArialMT-20" transform="translate(728.076172 0)"/>
      <use xlink:href="#ArialMT-28" transform="translate(755.859375 0)"/>
      <use xlink:href="#ArialMT-64" transform="translate(789.160156 0)"/>
      <use xlink:href="#ArialMT-61" transform="translate(844.775391 0)"/>
      <use xlink:href="#ArialMT-73" transform="translate(900.390625 0)"/>
      <use xlink:href="#ArialMT-68" transform="translate(950.390625 0)"/>
      <use xlink:href="#ArialMT-65" transform="translate(1006.005859 0)"/>
      <use xlink:href="#ArialMT-64" transform="translate(1061.621094 0)"/>
      <use xlink:href="#ArialMT-29" transform="translate(1117.236328 0)"/>
     </g>
    </g>
   </g>
   <g id="line2d_38">
    <path d="M 36.8275 190.583125 
L 45.733385 40.149792 
L 54.639271 40.149792 
L 63.545156 40.149792 
L 72.451042 40.149792 
L 81.356927 40.149792 
L 90.262813 40.149792 
L 99.168698 40.149792 
L 108.074583 40.149792 
L 116.980469 40.149792 
L 125.886354 40.149792 
L 134.79224 40.149792 
L 143.698125 40.149792 
L 152.60401 40.149792 
L 161.509896 40.149792 
L 170.415781 40.149792 
L 179.321667 40.149792 
L 188.227552 40.149792 
L 197.133438 40.149792 
L 206.039323 40.149792 
L 214.945208 40.149792 
L 223.851094 40.149792 
L 232.756979 40.149792 
L 241.662865 40.149792 
L 250.56875 40.149792 
L 259.474635 40.149792 
L 268.380521 40.149792 
L 277.286406 40.149792 
L 286.192292 40.149792 
L 295.098177 40.149792 
L 304.004062 40.149792 
L 312.909948 40.149792 
L 321.815833 40.149792 
L 330.721719 40.149792 
L 339.627604 40.149792 
L 348.53349 40.149792 
L 357.439375 40.149792 
L 366.34526 40.149792 
L 375.251146 40.149792 
L 384.157031 40.149792 
L 393.062917 40.149792 
L 401.968802 40.149792 
L 410.874687 40.149792 
L 419.780573 40.149792 
L 428.686458 40.149792 
L 437.592344 40.149792 
L 446.498229 40.149792 
L 455.404115 40.149792 
L 464.31 40.149792 
" clip-path="url(#pb2eedc24b5)" style="fill: none; stroke-dasharray: 2.96,1.28; stroke-dashoffset: 0; stroke: #888780; stroke-opacity: 0.5; stroke-width: 0.8"/>
   </g>
   <g id="line2d_39">
    <path d="M 36.8275 190.583125 
L 45.733385 40.149792 
L 54.639271 40.149792 
L 63.545156 40.149792 
L 72.451042 40.149792 
L 81.356927 40.149792 
L 90.262813 40.149792 
L 99.168698 40.149792 
L 108.074583 40.149792 
L 116.980469 40.149792 
L 125.886354 40.149792 
L 134.79224 40.149792 
L 143.698125 40.149792 
L 152.60401 160.496458 
L 161.509896 160.496458 
L 170.415781 160.496458 
L 179.321667 160.496458 
L 188.227552 160.496458 
L 197.133438 160.496458 
L 206.039323 160.496458 
L 214.945208 160.496458 
L 223.851094 160.496458 
L 232.756979 160.496458 
L 241.662865 160.496458 
L 250.56875 160.496458 
L 259.474635 160.496458 
L 268.380521 160.496458 
L 277.286406 160.496458 
L 286.192292 160.496458 
L 295.098177 160.496458 
L 304.004062 160.496458 
L 312.909948 160.496458 
L 321.815833 160.496458 
L 330.721719 160.496458 
L 339.627604 160.496458 
L 348.53349 160.496458 
L 357.439375 160.496458 
L 366.34526 160.496458 
L 375.251146 160.496458 
L 384.157031 160.496458 
L 393.062917 160.496458 
L 401.968802 160.496458 
L 410.874687 160.496458 
L 419.780573 160.496458 
L 428.686458 160.496458 
L 437.592344 160.496458 
L 446.498229 160.496458 
L 455.404115 160.496458 
L 464.31 160.496458 
" clip-path="url(#pb2eedc24b5)" style="fill: none; stroke-dasharray: 2.96,1.28; stroke-dashoffset: 0; stroke: #378add; stroke-opacity: 0.5; stroke-width: 0.8"/>
   </g>
   <g id="line2d_40">
    <path d="M 36.8275 190.583125 
L 45.733385 145.453125 
L 54.639271 145.453125 
L 63.545156 145.453125 
L 72.451042 145.453125 
L 81.356927 145.453125 
L 90.262813 145.453125 
L 99.168698 145.453125 
L 108.074583 40.149792 
L 116.980469 40.149792 
L 125.886354 40.149792 
L 134.79224 40.149792 
L 143.698125 40.149792 
L 152.60401 40.149792 
L 161.509896 40.149792 
L 170.415781 40.149792 
L 179.321667 40.149792 
L 188.227552 40.149792 
L 197.133438 40.149792 
L 206.039323 40.149792 
L 214.945208 175.539792 
L 223.851094 175.539792 
L 232.756979 175.539792 
L 241.662865 175.539792 
L 250.56875 175.539792 
L 259.474635 175.539792 
L 268.380521 175.539792 
L 277.286406 175.539792 
L 286.192292 175.539792 
L 295.098177 175.539792 
L 304.004062 175.539792 
L 312.909948 175.539792 
L 321.815833 175.539792 
L 330.721719 175.539792 
L 339.627604 175.539792 
L 348.53349 175.539792 
L 357.439375 175.539792 
L 366.34526 175.539792 
L 375.251146 175.539792 
L 384.157031 175.539792 
L 393.062917 175.539792 
L 401.968802 175.539792 
L 410.874687 175.539792 
L 419.780573 175.539792 
L 428.686458 175.539792 
L 437.592344 175.539792 
L 446.498229 175.539792 
L 455.404115 175.539792 
L 464.31 175.539792 
" clip-path="url(#pb2eedc24b5)" style="fill: none; stroke-dasharray: 2.96,1.28; stroke-dashoffset: 0; stroke: #1d9e75; stroke-opacity: 0.5; stroke-width: 0.8"/>
   </g>
   <g id="patch_7">
    <path d="M 36.8275 190.583125 
L 36.8275 10.063125 
" style="fill: none; stroke: #000000; stroke-width: 0.5; stroke-linejoin: miter; stroke-linecap: square"/>
   </g>
   <g id="patch_8">
    <path d="M 36.8275 190.583125 
L 464.31 190.583125 
" style="fill: none; stroke: #000000; stroke-width: 0.5; stroke-linejoin: miter; stroke-linecap: square"/>
   </g>
  </g>
 </g>
 <defs>
  <clipPath id="pb2eedc24b5">
   <rect x="36.8275" y="10.063125" width="427.4825" height="180.52"/>
  </clipPath>
 </defs>
</svg>
