<?xml version="1.0" encoding="utf-8" standalone="no"?>
<!DOCTYPE svg PUBLIC "-//W3C//DTD SVG 1.1//EN"
  "http://www.w3.org/Graphics/SVG/1.1/DTD/svg11.dtd">
<svg xmlns:xlink="http://www.w3.org/1999/xlink" width="249.1375pt" height="173.15pt" viewBox="0 0 249.1375 173.15" xmlns="http://www.w3.org/2000/svg" version="1.1">
 <metadata>
  <rdf:RDF xmlns:dc="http://purl.org/dc/elements/1.1/" xmlns:cc="http://creativecommons.org/ns#" xmlns:rdf="http://www.w3.org/1999/02/22-rdf-syntax-ns#">
   <cc:Work>
    <dc:type rdf:resource="http://purl.org/dc/dcmitype/StillImage"/>
    <dc:date>2026-04-16T01:28:55.179441</dc:date>
    <dc:format>image/svg+xml</dc:format>
    <dc:creator>
     <cc:Agent>
      <dc:title>Matplotlib v3.10.7, https://matplotlib.org/</dc:title>
     </cc:Agent>
    </dc:creator>
   </cc:Work>
  </rdf:RDF>
 </metadata>
 <defs>
  <style type="text/css">*{stroke-linejoin: round; stroke-linecap: butt}</style>
 </defs>
 <g id="figure_1">
  <g id="patch_1">
   <path d="M 0 173.15 
L 249.1375 173.15 
L 249.1375 0 
L 0 0 
z
" style="fill: #ffffff"/>
  </g>
  <g id="axes_1">
   <g id="patch_2">
    <path d="M 34.605 140.2 
L 241.9375 140.2 
L 241.9375 7.2 
L 34.605 7.2 
z
" style="fill: #ffffff"/>
   </g>
   <g id="FillBetweenPolyCollection_1">
    <path d="M 79.360401 134.154545 
L 44.357161 134.154545 
L 44.029205 132.933242 
L 44.996252 131.711938 
L 46.09428 130.490634 
L 46.96748 129.26933 
L 47.971852 128.048026 
L 49.258089 126.826722 
L 50.46555 125.605418 
L 51.305936 124.384114 
L 51.96491 123.16281 
L 52.727968 121.941506 
L 53.525655 120.720202 
L 54.108182 119.498898 
L 54.478837 118.277594 
L 54.868897 117.05629 
L 55.355193 115.834986 
L 55.772818 114.613682 
L 56.03224 113.392378 
L 56.294986 112.171074 
L 56.73484 110.94977 
L 57.284034 109.728466 
L 57.747657 108.507163 
L 58.071447 107.285859 
L 58.355712 106.064555 
L 58.652885 104.843251 
L 58.897768 103.621947 
L 59.049895 102.400643 
L 59.183114 101.179339 
L 59.378936 99.958035 
L 59.610472 98.736731 
L 59.800553 97.515427 
L 59.948315 96.294123 
L 60.125705 95.072819 
L 60.364704 93.851515 
L 60.612529 92.630211 
L 60.804332 91.408907 
L 60.93002 90.187603 
L 61.012367 88.966299 
L 61.059887 87.744995 
L 61.072526 86.523691 
L 61.071983 85.302388 
L 61.090939 84.081084 
L 61.134314 82.85978 
L 61.177058 81.638476 
L 61.203893 80.417172 
L 61.229476 79.195868 
L 61.271193 77.974564 
L 61.321194 76.75326 
L 61.360089 75.531956 
L 61.386174 74.310652 
L 61.413887 73.089348 
L 61.448539 71.868044 
L 61.479866 70.64674 
L 61.502134 69.425436 
L 61.52609 68.204132 
L 61.56421 66.982828 
L 61.6132 65.761524 
L 61.658902 64.54022 
L 61.693354 63.318916 
L 61.719604 62.097612 
L 61.742305 60.876309 
L 61.760948 59.655005 
L 61.773052 58.433701 
L 61.778581 57.212397 
L 61.778768 55.991093 
L 61.773992 54.769789 
L 61.765878 53.548485 
L 61.759673 52.327181 
L 61.761026 51.105877 
L 61.770279 49.884573 
L 61.782315 48.663269 
L 61.7923 47.441965 
L 61.799588 46.220661 
L 61.805651 44.999357 
L 61.810643 43.778053 
L 61.813616 42.556749 
L 61.814635 41.335445 
L 61.814676 40.114141 
L 61.813858 38.892837 
L 61.811619 37.671534 
L 61.808867 36.45023 
L 61.80828 35.228926 
L 61.811588 34.007622 
L 61.817518 32.786318 
L 61.823373 31.565014 
L 61.827934 30.34371 
L 61.831866 29.122406 
L 61.835854 27.901102 
L 61.839558 26.679798 
L 61.842511 25.458494 
L 61.845058 24.23719 
L 61.847898 23.015886 
L 61.851105 21.794582 
L 61.853975 20.573278 
L 61.855656 19.351974 
L 61.855669 18.13067 
L 61.854055 16.909366 
L 61.85143 15.688062 
L 61.848972 14.466758 
L 61.847965 13.245455 
L 61.869597 13.245455 
L 61.869597 13.245455 
L 61.86859 14.466758 
L 61.866131 15.688062 
L 61.863506 16.909366 
L 61.861892 18.13067 
L 61.861906 19.351974 
L 61.863587 20.573278 
L 61.866457 21.794582 
L 61.869663 23.015886 
L 61.872504 24.23719 
L 61.875051 25.458494 
L 61.878004 26.679798 
L 61.881708 27.901102 
L 61.885695 29.122406 
L 61.889628 30.34371 
L 61.894188 31.565014 
L 61.900044 32.786318 
L 61.905974 34.007622 
L 61.909281 35.228926 
L 61.908695 36.45023 
L 61.905942 37.671534 
L 61.903704 38.892837 
L 61.902885 40.114141 
L 61.902926 41.335445 
L 61.903945 42.556749 
L 61.906918 43.778053 
L 61.911911 44.999357 
L 61.917974 46.220661 
L 61.925261 47.441965 
L 61.935246 48.663269 
L 61.947282 49.884573 
L 61.956536 51.105877 
L 61.957888 52.327181 
L 61.951684 53.548485 
L 61.94357 54.769789 
L 61.938793 55.991093 
L 61.938981 57.212397 
L 61.944509 58.433701 
L 61.956613 59.655005 
L 61.975256 60.876309 
L 61.997957 62.097612 
L 62.024207 63.318916 
L 62.058659 64.54022 
L 62.104361 65.761524 
L 62.153351 66.982828 
L 62.191472 68.204132 
L 62.215428 69.425436 
L 62.237696 70.64674 
L 62.269023 71.868044 
L 62.303675 73.089348 
L 62.331387 74.310652 
L 62.357473 75.531956 
L 62.396368 76.75326 
L 62.446368 77.974564 
L 62.488086 79.195868 
L 62.513669 80.417172 
L 62.540503 81.638476 
L 62.583248 82.85978 
L 62.626622 84.081084 
L 62.645579 85.302388 
L 62.645035 86.523691 
L 62.657675 87.744995 
L 62.705194 88.966299 
L 62.787541 90.187603 
L 62.913229 91.408907 
L 63.105032 92.630211 
L 63.352858 93.851515 
L 63.591857 95.072819 
L 63.769246 96.294123 
L 63.917008 97.515427 
L 64.107089 98.736731 
L 64.338625 99.958035 
L 64.534448 101.179339 
L 64.667667 102.400643 
L 64.819793 103.621947 
L 65.064677 104.843251 
L 65.361849 106.064555 
L 65.646114 107.285859 
L 65.969904 108.507163 
L 66.433527 109.728466 
L 66.982722 110.94977 
L 67.422575 112.171074 
L 67.685322 113.392378 
L 67.944743 114.613682 
L 68.362369 115.834986 
L 68.848665 117.05629 
L 69.238724 118.277594 
L 69.609379 119.498898 
L 70.191906 120.720202 
L 70.989593 121.941506 
L 71.752651 123.16281 
L 72.411626 124.384114 
L 73.252011 125.605418 
L 74.459472 126.826722 
L 75.745709 128.048026 
L 76.750082 129.26933 
L 77.623281 130.490634 
L 78.72131 131.711938 
L 79.688357 132.933242 
L 79.360401 134.154545 
z
" clip-path="url(#p2329066961)" style="fill: #888780; fill-opacity: 0.7"/>
   </g>
   <g id="FillBetweenPolyCollection_2">
    <path d="M 130.302047 134.154545 
L 95.298807 134.154545 
L 94.970851 132.933242 
L 95.937898 131.711938 
L 97.035926 130.490634 
L 97.909126 129.26933 
L 98.913499 128.048026 
L 100.199735 126.826722 
L 101.407196 125.605418 
L 102.247582 124.384114 
L 102.906557 123.16281 
L 103.669614 121.941506 
L 104.467301 120.720202 
L 105.049828 119.498898 
L 105.420484 118.277594 
L 105.810543 117.05629 
L 106.296839 115.834986 
L 106.714464 114.613682 
L 106.973886 113.392378 
L 107.236633 112.171074 
L 107.676486 110.94977 
L 108.22568 109.728466 
L 108.689303 108.507163 
L 109.013093 107.285859 
L 109.297358 106.064555 
L 109.594531 104.843251 
L 109.839414 103.621947 
L 109.991541 102.400643 
L 110.12476 101.179339 
L 110.320582 99.958035 
L 110.552118 98.736731 
L 110.742199 97.515427 
L 110.889961 96.294123 
L 111.067351 95.072819 
L 111.30635 93.851515 
L 111.554175 92.630211 
L 111.745979 91.408907 
L 111.871667 90.187603 
L 111.954014 88.966299 
L 112.001533 87.744995 
L 112.014173 86.523691 
L 112.013629 85.302388 
L 112.032585 84.081084 
L 112.07596 82.85978 
L 112.118705 81.638476 
L 112.145539 80.417172 
L 112.171122 79.195868 
L 112.212839 77.974564 
L 112.26284 76.75326 
L 112.301735 75.531956 
L 112.327821 74.310652 
L 112.355533 73.089348 
L 112.390185 71.868044 
L 112.421512 70.64674 
L 112.44378 69.425436 
L 112.467736 68.204132 
L 112.505856 66.982828 
L 112.554847 65.761524 
L 112.600548 64.54022 
L 112.635 63.318916 
L 112.66125 62.097612 
L 112.683951 60.876309 
L 112.702594 59.655005 
L 112.714699 58.433701 
L 112.720227 57.212397 
L 112.720414 55.991093 
L 112.715638 54.769789 
L 112.707524 53.548485 
L 112.70132 52.327181 
L 112.702672 51.105877 
L 112.711926 49.884573 
L 112.723961 48.663269 
L 112.733946 47.441965 
L 112.741234 46.220661 
L 112.747297 44.999357 
L 112.75229 43.778053 
L 112.755262 42.556749 
L 112.756281 41.335445 
L 112.756322 40.114141 
L 112.755504 38.892837 
L 112.753265 37.671534 
L 112.750513 36.45023 
L 112.749927 35.228926 
L 112.753234 34.007622 
L 112.759164 32.786318 
L 112.76502 31.565014 
L 112.76958 30.34371 
L 112.773512 29.122406 
L 112.7775 27.901102 
L 112.781204 26.679798 
L 112.784157 25.458494 
L 112.786704 24.23719 
L 112.789545 23.015886 
L 112.792751 21.794582 
L 112.795621 20.573278 
L 112.797302 19.351974 
L 112.797316 18.13067 
L 112.795702 16.909366 
L 112.793077 15.688062 
L 112.790618 14.466758 
L 112.789611 13.245455 
L 112.811243 13.245455 
L 112.811243 13.245455 
L 112.810236 14.466758 
L 112.807777 15.688062 
L 112.805152 16.909366 
L 112.803538 18.13067 
L 112.803552 19.351974 
L 112.805233 20.573278 
L 112.808103 21.794582 
L 112.811309 23.015886 
L 112.81415 24.23719 
L 112.816697 25.458494 
L 112.81965 26.679798 
L 112.823354 27.901102 
L 112.827342 29.122406 
L 112.831274 30.34371 
L 112.835834 31.565014 
L 112.84169 32.786318 
L 112.84762 34.007622 
L 112.850927 35.228926 
L 112.850341 36.45023 
L 112.847588 37.671534 
L 112.84535 38.892837 
L 112.844531 40.114141 
L 112.844573 41.335445 
L 112.845592 42.556749 
L 112.848564 43.778053 
L 112.853557 44.999357 
L 112.85962 46.220661 
L 112.866908 47.441965 
L 112.876892 48.663269 
L 112.888928 49.884573 
L 112.898182 51.105877 
L 112.899534 52.327181 
L 112.89333 53.548485 
L 112.885216 54.769789 
L 112.88044 55.991093 
L 112.880627 57.212397 
L 112.886155 58.433701 
L 112.89826 59.655005 
L 112.916902 60.876309 
L 112.939603 62.097612 
L 112.965854 63.318916 
L 113.000306 64.54022 
L 113.046007 65.761524 
L 113.094998 66.982828 
L 113.133118 68.204132 
L 113.157074 69.425436 
L 113.179342 70.64674 
L 113.210669 71.868044 
L 113.245321 73.089348 
L 113.273033 74.310652 
L 113.299119 75.531956 
L 113.338014 76.75326 
L 113.388015 77.974564 
L 113.429732 79.195868 
L 113.455315 80.417172 
L 113.482149 81.638476 
L 113.524894 82.85978 
L 113.568269 84.081084 
L 113.587225 85.302388 
L 113.586681 86.523691 
L 113.599321 87.744995 
L 113.64684 88.966299 
L 113.729187 90.187603 
L 113.854875 91.408907 
L 114.046679 92.630211 
L 114.294504 93.851515 
L 114.533503 95.072819 
L 114.710892 96.294123 
L 114.858654 97.515427 
L 115.048736 98.736731 
L 115.280272 99.958035 
L 115.476094 101.179339 
L 115.609313 102.400643 
L 115.761439 103.621947 
L 116.006323 104.843251 
L 116.303496 106.064555 
L 116.58776 107.285859 
L 116.91155 108.507163 
L 117.375173 109.728466 
L 117.924368 110.94977 
L 118.364221 112.171074 
L 118.626968 113.392378 
L 118.88639 114.613682 
L 119.304015 115.834986 
L 119.790311 117.05629 
L 120.18037 118.277594 
L 120.551026 119.498898 
L 121.133552 120.720202 
L 121.931239 121.941506 
L 122.694297 123.16281 
L 123.353272 124.384114 
L 124.193657 125.605418 
L 125.401119 126.826722 
L 126.687355 128.048026 
L 127.691728 129.26933 
L 128.564927 130.490634 
L 129.662956 131.711938 
L 130.630003 132.933242 
L 130.302047 134.154545 
z
" clip-path="url(#p2329066961)" style="fill: #378add; fill-opacity: 0.7"/>
   </g>
   <g id="FillBetweenPolyCollection_3">
    <path d="M 181.571649 134.154545 
L 145.912497 134.154545 
L 146.212449 132.933242 
L 148.093872 131.711938 
L 149.871599 130.490634 
L 151.041598 129.26933 
L 152.175309 128.048026 
L 153.583876 126.826722 
L 154.853706 125.605418 
L 155.651418 124.384114 
L 156.280611 123.16281 
L 157.17497 121.941506 
L 158.265018 120.720202 
L 159.161894 119.498898 
L 159.72261 118.277594 
L 160.120833 117.05629 
L 160.474947 115.834986 
L 160.707445 114.613682 
L 160.786547 113.392378 
L 160.868623 112.171074 
L 161.098352 110.94977 
L 161.411022 109.728466 
L 161.649752 108.507163 
L 161.791914 107.285859 
L 161.940759 106.064555 
L 162.139622 104.843251 
L 162.317092 103.621947 
L 162.418459 102.400643 
L 162.488343 101.179339 
L 162.586207 99.958035 
L 162.693252 98.736731 
L 162.757232 97.515427 
L 162.784926 96.294123 
L 162.829433 95.072819 
L 162.904174 93.851515 
L 162.96766 92.630211 
L 162.9961 91.408907 
L 163.021098 90.187603 
L 163.077008 88.966299 
L 163.148856 87.744995 
L 163.200632 86.523691 
L 163.231164 85.302388 
L 163.269982 84.081084 
L 163.328347 82.85978 
L 163.384857 81.638476 
L 163.419985 80.417172 
L 163.439321 79.195868 
L 163.454764 77.974564 
L 163.463076 76.75326 
L 163.457807 75.531956 
L 163.450371 74.310652 
L 163.461509 73.089348 
L 163.49462 71.868044 
L 163.532047 70.64674 
L 163.558644 69.425436 
L 163.576799 68.204132 
L 163.595072 66.982828 
L 163.613077 65.761524 
L 163.62472 64.54022 
L 163.629548 63.318916 
L 163.632363 62.097612 
L 163.634131 60.876309 
L 163.63131 59.655005 
L 163.624821 58.433701 
L 163.62271 57.212397 
L 163.630644 55.991093 
L 163.644493 54.769789 
L 163.656332 53.548485 
L 163.664561 52.327181 
L 163.673784 51.105877 
L 163.686606 49.884573 
L 163.70004 48.663269 
L 163.709849 47.441965 
L 163.714784 46.220661 
L 163.715666 44.999357 
L 163.713186 43.778053 
L 163.70865 42.556749 
L 163.705444 41.335445 
L 163.7073 40.114141 
L 163.714783 38.892837 
L 163.724668 37.671534 
L 163.73293 36.45023 
L 163.737547 35.228926 
L 163.738666 34.007622 
L 163.737376 32.786318 
L 163.734956 31.565014 
L 163.732571 30.34371 
L 163.730737 29.122406 
L 163.728969 27.901102 
L 163.726593 26.679798 
L 163.72407 25.458494 
L 163.722935 24.23719 
L 163.724063 23.015886 
L 163.726556 21.794582 
L 163.728813 20.573278 
L 163.730206 19.351974 
L 163.731129 18.13067 
L 163.731847 16.909366 
L 163.732142 15.688062 
L 163.732102 14.466758 
L 163.732502 13.245455 
L 163.751644 13.245455 
L 163.751644 13.245455 
L 163.752044 14.466758 
L 163.752004 15.688062 
L 163.752299 16.909366 
L 163.753017 18.13067 
L 163.75394 19.351974 
L 163.755333 20.573278 
L 163.75759 21.794582 
L 163.760083 23.015886 
L 163.761211 24.23719 
L 163.760077 25.458494 
L 163.757554 26.679798 
L 163.755177 27.901102 
L 163.753409 29.122406 
L 163.751575 30.34371 
L 163.749191 31.565014 
L 163.74677 32.786318 
L 163.74548 34.007622 
L 163.746599 35.228926 
L 163.751216 36.45023 
L 163.759478 37.671534 
L 163.769363 38.892837 
L 163.776847 40.114141 
L 163.778703 41.335445 
L 163.775496 42.556749 
L 163.77096 43.778053 
L 163.76848 44.999357 
L 163.769362 46.220661 
L 163.774297 47.441965 
L 163.784106 48.663269 
L 163.797541 49.884573 
L 163.810363 51.105877 
L 163.819585 52.327181 
L 163.827815 53.548485 
L 163.839654 54.769789 
L 163.853502 55.991093 
L 163.861436 57.212397 
L 163.859325 58.433701 
L 163.852836 59.655005 
L 163.850015 60.876309 
L 163.851784 62.097612 
L 163.854598 63.318916 
L 163.859426 64.54022 
L 163.871069 65.761524 
L 163.889074 66.982828 
L 163.907347 68.204132 
L 163.925502 69.425436 
L 163.952099 70.64674 
L 163.989526 71.868044 
L 164.022637 73.089348 
L 164.033775 74.310652 
L 164.026339 75.531956 
L 164.02107 76.75326 
L 164.029382 77.974564 
L 164.044825 79.195868 
L 164.064161 80.417172 
L 164.099289 81.638476 
L 164.155799 82.85978 
L 164.214164 84.081084 
L 164.252982 85.302388 
L 164.283515 86.523691 
L 164.33529 87.744995 
L 164.407138 88.966299 
L 164.463048 90.187603 
L 164.488046 91.408907 
L 164.516486 92.630211 
L 164.579972 93.851515 
L 164.654714 95.072819 
L 164.69922 96.294123 
L 164.726914 97.515427 
L 164.790894 98.736731 
L 164.897939 99.958035 
L 164.995803 101.179339 
L 165.065687 102.400643 
L 165.167054 103.621947 
L 165.344524 104.843251 
L 165.543387 106.064555 
L 165.692233 107.285859 
L 165.834395 108.507163 
L 166.073124 109.728466 
L 166.385794 110.94977 
L 166.615523 112.171074 
L 166.697599 113.392378 
L 166.776701 114.613682 
L 167.009199 115.834986 
L 167.363314 117.05629 
L 167.761537 118.277594 
L 168.322252 119.498898 
L 169.219129 120.720202 
L 170.309176 121.941506 
L 171.203535 123.16281 
L 171.832728 124.384114 
L 172.63044 125.605418 
L 173.90027 126.826722 
L 175.308838 128.048026 
L 176.442548 129.26933 
L 177.612547 130.490634 
L 179.390275 131.711938 
L 181.271697 132.933242 
L 181.571649 134.154545 
z
" clip-path="url(#p2329066961)" style="fill: #ba7517; fill-opacity: 0.7"/>
   </g>
   <g id="FillBetweenPolyCollection_4">
    <path d="M 232.513295 134.154545 
L 196.854143 134.154545 
L 198.370663 132.933242 
L 201.690722 131.711938 
L 203.384406 130.490634 
L 203.41822 129.26933 
L 204.068283 128.048026 
L 205.94821 126.826722 
L 207.438129 125.605418 
L 207.614984 124.384114 
L 207.583783 123.16281 
L 208.506236 121.941506 
L 209.888352 120.720202 
L 210.627335 119.498898 
L 210.71367 118.277594 
L 210.95774 117.05629 
L 211.590853 115.834986 
L 212.057478 114.613682 
L 212.057113 113.392378 
L 212.009864 112.171074 
L 212.329908 110.94977 
L 212.807735 109.728466 
L 213.025942 108.507163 
L 213.009251 107.285859 
L 213.095392 106.064555 
L 213.36599 104.843251 
L 213.573154 103.621947 
L 213.582113 102.400643 
L 213.566888 101.179339 
L 213.702944 99.958035 
L 213.905365 98.736731 
L 214.000602 97.515427 
L 213.997811 96.294123 
L 214.03769 95.072819 
L 214.158019 93.851515 
L 214.259604 92.630211 
L 214.281848 91.408907 
L 214.283709 90.187603 
L 214.329704 88.966299 
L 214.391199 87.744995 
L 214.409558 86.523691 
L 214.396277 85.302388 
L 214.410102 84.081084 
L 214.464134 82.85978 
L 214.514046 81.638476 
L 214.53069 80.417172 
L 214.533672 79.195868 
L 214.546244 77.974564 
L 214.556822 76.75326 
L 214.545947 75.531956 
L 214.527006 74.310652 
L 214.531791 73.089348 
L 214.564841 71.868044 
L 214.599364 70.64674 
L 214.615936 69.425436 
L 214.620785 68.204132 
L 214.624309 66.982828 
L 214.622376 65.761524 
L 214.608724 64.54022 
L 214.593763 63.318916 
L 214.595891 62.097612 
L 214.61713 60.876309 
L 214.64136 59.655005 
L 214.655799 58.433701 
L 214.66203 57.212397 
L 214.666561 55.991093 
L 214.670907 54.769789 
L 214.67324 53.548485 
L 214.673778 52.327181 
L 214.674842 51.105877 
L 214.677444 49.884573 
L 214.68041 48.663269 
L 214.682378 47.441965 
L 214.683008 46.220661 
L 214.682378 44.999357 
L 214.680413 43.778053 
L 214.677473 42.556749 
L 214.675009 41.335445 
L 214.674478 40.114141 
L 214.675377 38.892837 
L 214.675721 37.671534 
L 214.674868 36.45023 
L 214.674475 35.228926 
L 214.676064 34.007622 
L 214.679002 32.786318 
L 214.681592 31.565014 
L 214.683021 30.34371 
L 214.683552 29.122406 
L 214.68369 27.901102 
L 214.683716 26.679798 
L 214.683719 25.458494 
L 214.683719 24.23719 
L 214.683719 23.015886 
L 214.683716 21.794582 
L 214.68369 20.573278 
L 214.683552 19.351974 
L 214.683021 18.13067 
L 214.681594 16.909366 
L 214.679013 15.688062 
L 214.676137 14.466758 
L 214.67483 13.245455 
L 214.692609 13.245455 
L 214.692609 13.245455 
L 214.691302 14.466758 
L 214.688426 15.688062 
L 214.685845 16.909366 
L 214.684418 18.13067 
L 214.683886 19.351974 
L 214.683748 20.573278 
L 214.683723 21.794582 
L 214.68372 23.015886 
L 214.683719 24.23719 
L 214.68372 25.458494 
L 214.683723 26.679798 
L 214.683748 27.901102 
L 214.683886 29.122406 
L 214.684418 30.34371 
L 214.685846 31.565014 
L 214.688437 32.786318 
L 214.691375 34.007622 
L 214.692964 35.228926 
L 214.69257 36.45023 
L 214.691717 37.671534 
L 214.692061 38.892837 
L 214.692961 40.114141 
L 214.692429 41.335445 
L 214.689966 42.556749 
L 214.687025 43.778053 
L 214.68506 44.999357 
L 214.68443 46.220661 
L 214.685061 47.441965 
L 214.687029 48.663269 
L 214.689995 49.884573 
L 214.692596 51.105877 
L 214.69366 52.327181 
L 214.694199 53.548485 
L 214.696532 54.769789 
L 214.700878 55.991093 
L 214.705408 57.212397 
L 214.71164 58.433701 
L 214.726079 59.655005 
L 214.750309 60.876309 
L 214.771548 62.097612 
L 214.773676 63.318916 
L 214.758714 64.54022 
L 214.745063 65.761524 
L 214.74313 66.982828 
L 214.746653 68.204132 
L 214.751503 69.425436 
L 214.768075 70.64674 
L 214.802598 71.868044 
L 214.835647 73.089348 
L 214.840433 74.310652 
L 214.821491 75.531956 
L 214.810617 76.75326 
L 214.821195 77.974564 
L 214.833767 79.195868 
L 214.836749 80.417172 
L 214.853393 81.638476 
L 214.903305 82.85978 
L 214.957337 84.081084 
L 214.971162 85.302388 
L 214.95788 86.523691 
L 214.97624 87.744995 
L 215.037734 88.966299 
L 215.08373 90.187603 
L 215.085591 91.408907 
L 215.107835 92.630211 
L 215.209419 93.851515 
L 215.329748 95.072819 
L 215.369627 96.294123 
L 215.366836 97.515427 
L 215.462074 98.736731 
L 215.664495 99.958035 
L 215.800551 101.179339 
L 215.785325 102.400643 
L 215.794284 103.621947 
L 216.001448 104.843251 
L 216.272046 106.064555 
L 216.358187 107.285859 
L 216.341496 108.507163 
L 216.559703 109.728466 
L 217.037531 110.94977 
L 217.357575 112.171074 
L 217.310326 113.392378 
L 217.309961 114.613682 
L 217.776586 115.834986 
L 218.409699 117.05629 
L 218.653769 118.277594 
L 218.740104 119.498898 
L 219.479087 120.720202 
L 220.861203 121.941506 
L 221.783656 123.16281 
L 221.752455 124.384114 
L 221.929309 125.605418 
L 223.419228 126.826722 
L 225.299156 128.048026 
L 225.949219 129.26933 
L 225.983032 130.490634 
L 227.676717 131.711938 
L 230.996775 132.933242 
L 232.513295 134.154545 
z
" clip-path="url(#p2329066961)" style="fill: #1d9e75; fill-opacity: 0.7"/>
   </g>
   <g id="matplotlib.axis_1">
    <g id="xtick_1">
     <g id="line2d_1">
      <defs>
       <path id="m127c171dfa" d="M 0 0 
L 0 3.5 
" style="stroke: #000000; stroke-width: 0.8"/>
      </defs>
      <g>
       <use xlink:href="#m127c171dfa" x="61.858781" y="140.2" style="stroke: #000000; stroke-width: 0.8"/>
      </g>
     </g>
     <g id="text_1">
      <!-- original -->
      <g transform="translate(48.963156 152.92625) scale(0.08 -0.08)">
       <defs>
        <path id="ArialMT-6f" d="M 213 1659 
Q 213 2581 725 3025 
Q 1153 3394 1769 3394 
Q 2453 3394 2887 2945 
Q 3322 2497 3322 1706 
Q 3322 1066 3130 698 
Q 2938 331 2570 128 
Q 2203 -75 1769 -75 
Q 1072 -75 642 372 
Q 213 819 213 1659 
z
M 791 1659 
Q 791 1022 1069 705 
Q 1347 388 1769 388 
Q 2188 388 2466 706 
Q 2744 1025 2744 1678 
Q 2744 2294 2464 2611 
Q 2184 2928 1769 2928 
Q 1347 2928 1069 2612 
Q 791 2297 791 1659 
z
" transform="scale(0.015625)"/>
        <path id="ArialMT-72" d="M 416 0 
L 416 3319 
L 922 3319 
L 922 2816 
Q 1116 3169 1280 3281 
Q 1444 3394 1641 3394 
Q 1925 3394 2219 3213 
L 2025 2691 
Q 1819 2813 1613 2813 
Q 1428 2813 1281 2702 
Q 1134 2591 1072 2394 
Q 978 2094 978 1738 
L 978 0 
L 416 0 
z
" transform="scale(0.015625)"/>
        <path id="ArialMT-69" d="M 425 3934 
L 425 4581 
L 988 4581 
L 988 3934 
L 425 3934 
z
M 425 0 
L 425 3319 
L 988 3319 
L 988 0 
L 425 0 
z
" transform="scale(0.015625)"/>
        <path id="ArialMT-67" d="M 319 -275 
L 866 -356 
Q 900 -609 1056 -725 
Q 1266 -881 1628 -881 
Q 2019 -881 2231 -725 
Q 2444 -569 2519 -288 
Q 2563 -116 2559 434 
Q 2191 0 1641 0 
Q 956 0 581 494 
Q 206 988 206 1678 
Q 206 2153 378 2554 
Q 550 2956 876 3175 
Q 1203 3394 1644 3394 
Q 2231 3394 2613 2919 
L 2613 3319 
L 3131 3319 
L 3131 450 
Q 3131 -325 2973 -648 
Q 2816 -972 2473 -1159 
Q 2131 -1347 1631 -1347 
Q 1038 -1347 672 -1080 
Q 306 -813 319 -275 
z
M 784 1719 
Q 784 1066 1043 766 
Q 1303 466 1694 466 
Q 2081 466 2343 764 
Q 2606 1063 2606 1700 
Q 2606 2309 2336 2618 
Q 2066 2928 1684 2928 
Q 1309 2928 1046 2623 
Q 784 2319 784 1719 
z
" transform="scale(0.015625)"/>
        <path id="ArialMT-6e" d="M 422 0 
L 422 3319 
L 928 3319 
L 928 2847 
Q 1294 3394 1984 3394 
Q 2284 3394 2536 3286 
Q 2788 3178 2913 3003 
Q 3038 2828 3088 2588 
Q 3119 2431 3119 2041 
L 3119 0 
L 2556 0 
L 2556 2019 
Q 2556 2363 2490 2533 
Q 2425 2703 2258 2804 
Q 2091 2906 1866 2906 
Q 1506 2906 1245 2678 
Q 984 2450 984 1813 
L 984 0 
L 422 0 
z
" transform="scale(0.015625)"/>
        <path id="ArialMT-61" d="M 2588 409 
Q 2275 144 1986 34 
Q 1697 -75 1366 -75 
Q 819 -75 525 192 
Q 231 459 231 875 
Q 231 1119 342 1320 
Q 453 1522 633 1644 
Q 813 1766 1038 1828 
Q 1203 1872 1538 1913 
Q 2219 1994 2541 2106 
Q 2544 2222 2544 2253 
Q 2544 2597 2384 2738 
Q 2169 2928 1744 2928 
Q 1347 2928 1158 2789 
Q 969 2650 878 2297 
L 328 2372 
Q 403 2725 575 2942 
Q 747 3159 1072 3276 
Q 1397 3394 1825 3394 
Q 2250 3394 2515 3294 
Q 2781 3194 2906 3042 
Q 3031 2891 3081 2659 
Q 3109 2516 3109 2141 
L 3109 1391 
Q 3109 606 3145 398 
Q 3181 191 3288 0 
L 2700 0 
Q 2613 175 2588 409 
z
M 2541 1666 
Q 2234 1541 1622 1453 
Q 1275 1403 1131 1340 
Q 988 1278 909 1158 
Q 831 1038 831 891 
Q 831 666 1001 516 
Q 1172 366 1500 366 
Q 1825 366 2078 508 
Q 2331 650 2450 897 
Q 2541 1088 2541 1459 
L 2541 1666 
z
" transform="scale(0.015625)"/>
        <path id="ArialMT-6c" d="M 409 0 
L 409 4581 
L 972 4581 
L 972 0 
L 409 0 
z
" transform="scale(0.015625)"/>
       </defs>
       <use xlink:href="#ArialMT-6f"/>
       <use xlink:href="#ArialMT-72" transform="translate(55.615234 0)"/>
       <use xlink:href="#ArialMT-69" transform="translate(88.916016 0)"/>
       <use xlink:href="#ArialMT-67" transform="translate(111.132812 0)"/>
       <use xlink:href="#ArialMT-69" transform="translate(166.748047 0)"/>
       <use xlink:href="#ArialMT-6e" transform="translate(188.964844 0)"/>
       <use xlink:href="#ArialMT-61" transform="translate(244.580078 0)"/>
       <use xlink:href="#ArialMT-6c" transform="translate(300.195312 0)"/>
      </g>
     </g>
    </g>
    <g id="xtick_2">
     <g id="line2d_2">
      <g>
       <use xlink:href="#m127c171dfa" x="112.800427" y="140.2" style="stroke: #000000; stroke-width: 0.8"/>
      </g>
     </g>
     <g id="text_2">
      <!-- s1 only -->
      <g transform="translate(100.127302 152.95) scale(0.08 -0.08)">
       <defs>
        <path id="ArialMT-73" d="M 197 991 
L 753 1078 
Q 800 744 1014 566 
Q 1228 388 1613 388 
Q 2000 388 2187 545 
Q 2375 703 2375 916 
Q 2375 1106 2209 1216 
Q 2094 1291 1634 1406 
Q 1016 1563 777 1677 
Q 538 1791 414 1992 
Q 291 2194 291 2438 
Q 291 2659 392 2848 
Q 494 3038 669 3163 
Q 800 3259 1026 3326 
Q 1253 3394 1513 3394 
Q 1903 3394 2198 3281 
Q 2494 3169 2634 2976 
Q 2775 2784 2828 2463 
L 2278 2388 
Q 2241 2644 2061 2787 
Q 1881 2931 1553 2931 
Q 1166 2931 1000 2803 
Q 834 2675 834 2503 
Q 834 2394 903 2306 
Q 972 2216 1119 2156 
Q 1203 2125 1616 2013 
Q 2213 1853 2448 1751 
Q 2684 1650 2818 1456 
Q 2953 1263 2953 975 
Q 2953 694 2789 445 
Q 2625 197 2315 61 
Q 2006 -75 1616 -75 
Q 969 -75 630 194 
Q 291 463 197 991 
z
" transform="scale(0.015625)"/>
        <path id="ArialMT-31" d="M 2384 0 
L 1822 0 
L 1822 3584 
Q 1619 3391 1289 3197 
Q 959 3003 697 2906 
L 697 3450 
Q 1169 3672 1522 3987 
Q 1875 4303 2022 4600 
L 2384 4600 
L 2384 0 
z
" transform="scale(0.015625)"/>
        <path id="ArialMT-20" transform="scale(0.015625)"/>
        <path id="ArialMT-79" d="M 397 -1278 
L 334 -750 
Q 519 -800 656 -800 
Q 844 -800 956 -737 
Q 1069 -675 1141 -563 
Q 1194 -478 1313 -144 
Q 1328 -97 1363 -6 
L 103 3319 
L 709 3319 
L 1400 1397 
Q 1534 1031 1641 628 
Q 1738 1016 1872 1384 
L 2581 3319 
L 3144 3319 
L 1881 -56 
Q 1678 -603 1566 -809 
Q 1416 -1088 1222 -1217 
Q 1028 -1347 759 -1347 
Q 597 -1347 397 -1278 
z
" transform="scale(0.015625)"/>
       </defs>
       <use xlink:href="#ArialMT-73"/>
       <use xlink:href="#ArialMT-31" transform="translate(50 0)"/>
       <use xlink:href="#ArialMT-20" transform="translate(105.615234 0)"/>
       <use xlink:href="#ArialMT-6f" transform="translate(133.398438 0)"/>
       <use xlink:href="#ArialMT-6e" transform="translate(189.013672 0)"/>
       <use xlink:href="#ArialMT-6c" transform="translate(244.628906 0)"/>
       <use xlink:href="#ArialMT-79" transform="translate(266.845703 0)"/>
      </g>
     </g>
    </g>
    <g id="xtick_3">
     <g id="line2d_3">
      <g>
       <use xlink:href="#m127c171dfa" x="163.742073" y="140.2" style="stroke: #000000; stroke-width: 0.8"/>
      </g>
     </g>
     <g id="text_3">
      <!-- switch -->
      <g transform="translate(152.628948 152.92625) scale(0.08 -0.08)">
       <defs>
        <path id="ArialMT-77" d="M 1034 0 
L 19 3319 
L 600 3319 
L 1128 1403 
L 1325 691 
Q 1338 744 1497 1375 
L 2025 3319 
L 2603 3319 
L 3100 1394 
L 3266 759 
L 3456 1400 
L 4025 3319 
L 4572 3319 
L 3534 0 
L 2950 0 
L 2422 1988 
L 2294 2553 
L 1622 0 
L 1034 0 
z
" transform="scale(0.015625)"/>
        <path id="ArialMT-74" d="M 1650 503 
L 1731 6 
Q 1494 -44 1306 -44 
Q 1000 -44 831 53 
Q 663 150 594 308 
Q 525 466 525 972 
L 525 2881 
L 113 2881 
L 113 3319 
L 525 3319 
L 525 4141 
L 1084 4478 
L 1084 3319 
L 1650 3319 
L 1650 2881 
L 1084 2881 
L 1084 941 
Q 1084 700 1114 631 
Q 1144 563 1211 522 
Q 1278 481 1403 481 
Q 1497 481 1650 503 
z
" transform="scale(0.015625)"/>
        <path id="ArialMT-63" d="M 2588 1216 
L 3141 1144 
Q 3050 572 2676 248 
Q 2303 -75 1759 -75 
Q 1078 -75 664 370 
Q 250 816 250 1647 
Q 250 2184 428 2587 
Q 606 2991 970 3192 
Q 1334 3394 1763 3394 
Q 2303 3394 2647 3120 
Q 2991 2847 3088 2344 
L 2541 2259 
Q 2463 2594 2264 2762 
Q 2066 2931 1784 2931 
Q 1359 2931 1093 2626 
Q 828 2322 828 1663 
Q 828 994 1084 691 
Q 1341 388 1753 388 
Q 2084 388 2306 591 
Q 2528 794 2588 1216 
z
" transform="scale(0.015625)"/>
        <path id="ArialMT-68" d="M 422 0 
L 422 4581 
L 984 4581 
L 984 2938 
Q 1378 3394 1978 3394 
Q 2347 3394 2619 3248 
Q 2891 3103 3008 2847 
Q 3125 2591 3125 2103 
L 3125 0 
L 2563 0 
L 2563 2103 
Q 2563 2525 2380 2717 
Q 2197 2909 1863 2909 
Q 1613 2909 1392 2779 
Q 1172 2650 1078 2428 
Q 984 2206 984 1816 
L 984 0 
L 422 0 
z
" transform="scale(0.015625)"/>
       </defs>
       <use xlink:href="#ArialMT-73"/>
       <use xlink:href="#ArialMT-77" transform="translate(50 0)"/>
       <use xlink:href="#ArialMT-69" transform="translate(122.216797 0)"/>
       <use xlink:href="#ArialMT-74" transform="translate(144.433594 0)"/>
       <use xlink:href="#ArialMT-63" transform="translate(172.216797 0)"/>
       <use xlink:href="#ArialMT-68" transform="translate(222.216797 0)"/>
      </g>
     </g>
    </g>
    <g id="xtick_4">
     <g id="line2d_4">
      <g>
       <use xlink:href="#m127c171dfa" x="214.683719" y="140.2" style="stroke: #000000; stroke-width: 0.8"/>
      </g>
     </g>
     <g id="text_4">
      <!-- blend -->
      <g transform="translate(204.897469 152.92625) scale(0.08 -0.08)">
       <defs>
        <path id="ArialMT-62" d="M 941 0 
L 419 0 
L 419 4581 
L 981 4581 
L 981 2947 
Q 1338 3394 1891 3394 
Q 2197 3394 2470 3270 
Q 2744 3147 2920 2923 
Q 3097 2700 3197 2384 
Q 3297 2069 3297 1709 
Q 3297 856 2875 390 
Q 2453 -75 1863 -75 
Q 1275 -75 941 416 
L 941 0 
z
M 934 1684 
Q 934 1088 1097 822 
Q 1363 388 1816 388 
Q 2184 388 2453 708 
Q 2722 1028 2722 1663 
Q 2722 2313 2464 2622 
Q 2206 2931 1841 2931 
Q 1472 2931 1203 2611 
Q 934 2291 934 1684 
z
" transform="scale(0.015625)"/>
        <path id="ArialMT-65" d="M 2694 1069 
L 3275 997 
Q 3138 488 2766 206 
Q 2394 -75 1816 -75 
Q 1088 -75 661 373 
Q 234 822 234 1631 
Q 234 2469 665 2931 
Q 1097 3394 1784 3394 
Q 2450 3394 2872 2941 
Q 3294 2488 3294 1666 
Q 3294 1616 3291 1516 
L 816 1516 
Q 847 969 1125 678 
Q 1403 388 1819 388 
Q 2128 388 2347 550 
Q 2566 713 2694 1069 
z
M 847 1978 
L 2700 1978 
Q 2663 2397 2488 2606 
Q 2219 2931 1791 2931 
Q 1403 2931 1139 2672 
Q 875 2413 847 1978 
z
" transform="scale(0.015625)"/>
        <path id="ArialMT-64" d="M 2575 0 
L 2575 419 
Q 2259 -75 1647 -75 
Q 1250 -75 917 144 
Q 584 363 401 755 
Q 219 1147 219 1656 
Q 219 2153 384 2558 
Q 550 2963 881 3178 
Q 1213 3394 1622 3394 
Q 1922 3394 2156 3267 
Q 2391 3141 2538 2938 
L 2538 4581 
L 3097 4581 
L 3097 0 
L 2575 0 
z
M 797 1656 
Q 797 1019 1065 703 
Q 1334 388 1700 388 
Q 2069 388 2326 689 
Q 2584 991 2584 1609 
Q 2584 2291 2321 2609 
Q 2059 2928 1675 2928 
Q 1300 2928 1048 2622 
Q 797 2316 797 1656 
z
" transform="scale(0.015625)"/>
       </defs>
       <use xlink:href="#ArialMT-62"/>
       <use xlink:href="#ArialMT-6c" transform="translate(55.615234 0)"/>
       <use xlink:href="#ArialMT-65" transform="translate(77.832031 0)"/>
       <use xlink:href="#ArialMT-6e" transform="translate(133.447266 0)"/>
       <use xlink:href="#ArialMT-64" transform="translate(189.0625 0)"/>
      </g>
     </g>
    </g>
    <g id="text_5">
     <!-- Decision mode -->
     <g transform="translate(111.815625 164.36) scale(0.08 -0.08)">
      <defs>
       <path id="ArialMT-44" d="M 494 0 
L 494 4581 
L 2072 4581 
Q 2606 4581 2888 4516 
Q 3281 4425 3559 4188 
Q 3922 3881 4101 3404 
Q 4281 2928 4281 2316 
Q 4281 1794 4159 1391 
Q 4038 988 3847 723 
Q 3656 459 3429 307 
Q 3203 156 2883 78 
Q 2563 0 2147 0 
L 494 0 
z
M 1100 541 
L 2078 541 
Q 2531 541 2789 625 
Q 3047 709 3200 863 
Q 3416 1078 3536 1442 
Q 3656 1806 3656 2325 
Q 3656 3044 3420 3430 
Q 3184 3816 2847 3947 
Q 2603 4041 2063 4041 
L 1100 4041 
L 1100 541 
z
" transform="scale(0.015625)"/>
       <path id="ArialMT-6d" d="M 422 0 
L 422 3319 
L 925 3319 
L 925 2853 
Q 1081 3097 1340 3245 
Q 1600 3394 1931 3394 
Q 2300 3394 2536 3241 
Q 2772 3088 2869 2813 
Q 3263 3394 3894 3394 
Q 4388 3394 4653 3120 
Q 4919 2847 4919 2278 
L 4919 0 
L 4359 0 
L 4359 2091 
Q 4359 2428 4304 2576 
Q 4250 2725 4106 2815 
Q 3963 2906 3769 2906 
Q 3419 2906 3187 2673 
Q 2956 2441 2956 1928 
L 2956 0 
L 2394 0 
L 2394 2156 
Q 2394 2531 2256 2718 
Q 2119 2906 1806 2906 
Q 1569 2906 1367 2781 
Q 1166 2656 1075 2415 
Q 984 2175 984 1722 
L 984 0 
L 422 0 
z
" transform="scale(0.015625)"/>
      </defs>
      <use xlink:href="#ArialMT-44"/>
      <use xlink:href="#ArialMT-65" transform="translate(72.216797 0)"/>
      <use xlink:href="#ArialMT-63" transform="translate(127.832031 0)"/>
      <use xlink:href="#ArialMT-69" transform="translate(177.832031 0)"/>
      <use xlink:href="#ArialMT-73" transform="translate(200.048828 0)"/>
      <use xlink:href="#ArialMT-69" transform="translate(250.048828 0)"/>
      <use xlink:href="#ArialMT-6f" transform="translate(272.265625 0)"/>
      <use xlink:href="#ArialMT-6e" transform="translate(327.880859 0)"/>
      <use xlink:href="#ArialMT-20" transform="translate(383.496094 0)"/>
      <use xlink:href="#ArialMT-6d" transform="translate(411.279297 0)"/>
      <use xlink:href="#ArialMT-6f" transform="translate(494.580078 0)"/>
      <use xlink:href="#ArialMT-64" transform="translate(550.195312 0)"/>
      <use xlink:href="#ArialMT-65" transform="translate(605.810547 0)"/>
     </g>
    </g>
   </g>
   <g id="matplotlib.axis_2">
    <g id="ytick_1">
     <g id="line2d_5">
      <path d="M 34.605 134.154545 
L 241.9375 134.154545 
" clip-path="url(#p2329066961)" style="fill: none; stroke: #b0b0b0; stroke-opacity: 0.3; stroke-width: 0.8; stroke-linecap: square"/>
     </g>
     <g id="line2d_6">
      <defs>
       <path id="m83504151b7" d="M 0 0 
L -3.5 0 
" style="stroke: #000000; stroke-width: 0.8"/>
      </defs>
      <g>
       <use xlink:href="#m83504151b7" x="34.605" y="134.154545" style="stroke: #000000; stroke-width: 0.8"/>
      </g>
     </g>
     <g id="text_6">
      <!-- 0 -->
      <g transform="translate(23.15625 137.01767) scale(0.08 -0.08)">
       <defs>
        <path id="ArialMT-30" d="M 266 2259 
Q 266 3072 433 3567 
Q 600 4063 929 4331 
Q 1259 4600 1759 4600 
Q 2128 4600 2406 4451 
Q 2684 4303 2865 4023 
Q 3047 3744 3150 3342 
Q 3253 2941 3253 2259 
Q 3253 1453 3087 958 
Q 2922 463 2592 192 
Q 2263 -78 1759 -78 
Q 1097 -78 719 397 
Q 266 969 266 2259 
z
M 844 2259 
Q 844 1131 1108 757 
Q 1372 384 1759 384 
Q 2147 384 2411 759 
Q 2675 1134 2675 2259 
Q 2675 3391 2411 3762 
Q 2147 4134 1753 4134 
Q 1366 4134 1134 3806 
Q 844 3388 844 2259 
z
" transform="scale(0.015625)"/>
       </defs>
       <use xlink:href="#ArialMT-30"/>
      </g>
     </g>
    </g>
    <g id="ytick_2">
     <g id="line2d_7">
      <path d="M 34.605 106.675207 
L 241.9375 106.675207 
" clip-path="url(#p2329066961)" style="fill: none; stroke: #b0b0b0; stroke-opacity: 0.3; stroke-width: 0.8; stroke-linecap: square"/>
     </g>
     <g id="line2d_8">
      <g>
       <use xlink:href="#m83504151b7" x="34.605" y="106.675207" style="stroke: #000000; stroke-width: 0.8"/>
      </g>
     </g>
     <g id="text_7">
      <!-- 5 -->
      <g transform="translate(23.15625 109.538332) scale(0.08 -0.08)">
       <defs>
        <path id="ArialMT-35" d="M 266 1200 
L 856 1250 
Q 922 819 1161 601 
Q 1400 384 1738 384 
Q 2144 384 2425 690 
Q 2706 997 2706 1503 
Q 2706 1984 2436 2262 
Q 2166 2541 1728 2541 
Q 1456 2541 1237 2417 
Q 1019 2294 894 2097 
L 366 2166 
L 809 4519 
L 3088 4519 
L 3088 3981 
L 1259 3981 
L 1013 2750 
Q 1425 3038 1878 3038 
Q 2478 3038 2890 2622 
Q 3303 2206 3303 1553 
Q 3303 931 2941 478 
Q 2500 -78 1738 -78 
Q 1113 -78 717 272 
Q 322 622 266 1200 
z
" transform="scale(0.015625)"/>
       </defs>
       <use xlink:href="#ArialMT-35"/>
      </g>
     </g>
    </g>
    <g id="ytick_3">
     <g id="line2d_9">
      <path d="M 34.605 79.195868 
L 241.9375 79.195868 
" clip-path="url(#p2329066961)" style="fill: none; stroke: #b0b0b0; stroke-opacity: 0.3; stroke-width: 0.8; stroke-linecap: square"/>
     </g>
     <g id="line2d_10">
      <g>
       <use xlink:href="#m83504151b7" x="34.605" y="79.195868" style="stroke: #000000; stroke-width: 0.8"/>
      </g>
     </g>
     <g id="text_8">
      <!-- 10 -->
      <g transform="translate(18.7075 82.058993) scale(0.08 -0.08)">
       <use xlink:href="#ArialMT-31"/>
       <use xlink:href="#ArialMT-30" transform="translate(55.615234 0)"/>
      </g>
     </g>
    </g>
    <g id="ytick_4">
     <g id="line2d_11">
      <path d="M 34.605 51.716529 
L 241.9375 51.716529 
" clip-path="url(#p2329066961)" style="fill: none; stroke: #b0b0b0; stroke-opacity: 0.3; stroke-width: 0.8; stroke-linecap: square"/>
     </g>
     <g id="line2d_12">
      <g>
       <use xlink:href="#m83504151b7" x="34.605" y="51.716529" style="stroke: #000000; stroke-width: 0.8"/>
      </g>
     </g>
     <g id="text_9">
      <!-- 15 -->
      <g transform="translate(18.7075 54.579654) scale(0.08 -0.08)">
       <use xlink:href="#ArialMT-31"/>
       <use xlink:href="#ArialMT-35" transform="translate(55.615234 0)"/>
      </g>
     </g>
    </g>
    <g id="ytick_5">
     <g id="line2d_13">
      <path d="M 34.605 24.23719 
L 241.9375 24.23719 
" clip-path="url(#p2329066961)" style="fill: none; stroke: #b0b0b0; stroke-opacity: 0.3; stroke-width: 0.8; stroke-linecap: square"/>
     </g>
     <g id="line2d_14">
      <g>
       <use xlink:href="#m83504151b7" x="34.605" y="24.23719" style="stroke: #000000; stroke-width: 0.8"/>
      </g>
     </g>
     <g id="text_10">
      <!-- 20 -->
      <g transform="translate(18.7075 27.100315) scale(0.08 -0.08)">
       <defs>
        <path id="ArialMT-32" d="M 3222 541 
L 3222 0 
L 194 0 
Q 188 203 259 391 
Q 375 700 629 1000 
Q 884 1300 1366 1694 
Q 2113 2306 2375 2664 
Q 2638 3022 2638 3341 
Q 2638 3675 2398 3904 
Q 2159 4134 1775 4134 
Q 1369 4134 1125 3890 
Q 881 3647 878 3216 
L 300 3275 
Q 359 3922 746 4261 
Q 1134 4600 1788 4600 
Q 2447 4600 2831 4234 
Q 3216 3869 3216 3328 
Q 3216 3053 3103 2787 
Q 2991 2522 2730 2228 
Q 2469 1934 1863 1422 
Q 1356 997 1212 845 
Q 1069 694 975 541 
L 3222 541 
z
" transform="scale(0.015625)"/>
       </defs>
       <use xlink:href="#ArialMT-32"/>
       <use xlink:href="#ArialMT-30" transform="translate(55.615234 0)"/>
      </g>
     </g>
    </g>
    <g id="text_11">
     <!-- First-departure timestep (hours) -->
     <g transform="translate(13.02375 129.935625) rotate(-90) scale(0.08 -0.08)">
      <defs>
       <path id="ArialMT-46" d="M 525 0 
L 525 4581 
L 3616 4581 
L 3616 4041 
L 1131 4041 
L 1131 2622 
L 3281 2622 
L 3281 2081 
L 1131 2081 
L 1131 0 
L 525 0 
z
" transform="scale(0.015625)"/>
       <path id="ArialMT-2d" d="M 203 1375 
L 203 1941 
L 1931 1941 
L 1931 1375 
L 203 1375 
z
" transform="scale(0.015625)"/>
       <path id="ArialMT-70" d="M 422 -1272 
L 422 3319 
L 934 3319 
L 934 2888 
Q 1116 3141 1344 3267 
Q 1572 3394 1897 3394 
Q 2322 3394 2647 3175 
Q 2972 2956 3137 2557 
Q 3303 2159 3303 1684 
Q 3303 1175 3120 767 
Q 2938 359 2589 142 
Q 2241 -75 1856 -75 
Q 1575 -75 1351 44 
Q 1128 163 984 344 
L 984 -1272 
L 422 -1272 
z
M 931 1641 
Q 931 1000 1190 694 
Q 1450 388 1819 388 
Q 2194 388 2461 705 
Q 2728 1022 2728 1688 
Q 2728 2322 2467 2637 
Q 2206 2953 1844 2953 
Q 1484 2953 1207 2617 
Q 931 2281 931 1641 
z
" transform="scale(0.015625)"/>
       <path id="ArialMT-75" d="M 2597 0 
L 2597 488 
Q 2209 -75 1544 -75 
Q 1250 -75 995 37 
Q 741 150 617 320 
Q 494 491 444 738 
Q 409 903 409 1263 
L 409 3319 
L 972 3319 
L 972 1478 
Q 972 1038 1006 884 
Q 1059 663 1231 536 
Q 1403 409 1656 409 
Q 1909 409 2131 539 
Q 2353 669 2445 892 
Q 2538 1116 2538 1541 
L 2538 3319 
L 3100 3319 
L 3100 0 
L 2597 0 
z
" transform="scale(0.015625)"/>
       <path id="ArialMT-28" d="M 1497 -1347 
Q 1031 -759 709 28 
Q 388 816 388 1659 
Q 388 2403 628 3084 
Q 909 3875 1497 4659 
L 1900 4659 
Q 1522 4009 1400 3731 
Q 1209 3300 1100 2831 
Q 966 2247 966 1656 
Q 966 153 1900 -1347 
L 1497 -1347 
z
" transform="scale(0.015625)"/>
       <path id="ArialMT-29" d="M 791 -1347 
L 388 -1347 
Q 1322 153 1322 1656 
Q 1322 2244 1188 2822 
Q 1081 3291 891 3722 
Q 769 4003 388 4659 
L 791 4659 
Q 1378 3875 1659 3084 
Q 1900 2403 1900 1659 
Q 1900 816 1576 28 
Q 1253 -759 791 -1347 
z
" transform="scale(0.015625)"/>
      </defs>
      <use xlink:href="#ArialMT-46"/>
      <use xlink:href="#ArialMT-69" transform="translate(61.083984 0)"/>
      <use xlink:href="#ArialMT-72" transform="translate(83.300781 0)"/>
      <use xlink:href="#ArialMT-73" transform="translate(116.601562 0)"/>
      <use xlink:href="#ArialMT-74" transform="translate(166.601562 0)"/>
      <use xlink:href="#ArialMT-2d" transform="translate(194.384766 0)"/>
      <use xlink:href="#ArialMT-64" transform="translate(227.685547 0)"/>
      <use xlink:href="#ArialMT-65" transform="translate(283.300781 0)"/>
      <use xlink:href="#ArialMT-70" transform="translate(338.916016 0)"/>
      <use xlink:href="#ArialMT-61" transform="translate(394.53125 0)"/>
      <use xlink:href="#ArialMT-72" transform="translate(450.146484 0)"/>
      <use xlink:href="#ArialMT-74" transform="translate(483.447266 0)"/>
      <use xlink:href="#ArialMT-75" transform="translate(511.230469 0)"/>
      <use xlink:href="#ArialMT-72" transform="translate(566.845703 0)"/>
      <use xlink:href="#ArialMT-65" transform="translate(600.146484 0)"/>
      <use xlink:href="#ArialMT-20" transform="translate(655.761719 0)"/>
      <use xlink:href="#ArialMT-74" transform="translate(683.544922 0)"/>
      <use xlink:href="#ArialMT-69" transform="translate(711.328125 0)"/>
      <use xlink:href="#ArialMT-6d" transform="translate(733.544922 0)"/>
      <use xlink:href="#ArialMT-65" transform="translate(816.845703 0)"/>
      <use xlink:href="#ArialMT-73" transform="translate(872.460938 0)"/>
      <use xlink:href="#ArialMT-74" transform="translate(922.460938 0)"/>
      <use xlink:href="#ArialMT-65" transform="translate(950.244141 0)"/>
      <use xlink:href="#ArialMT-70" transform="translate(1005.859375 0)"/>
      <use xlink:href="#ArialMT-20" transform="translate(1061.474609 0)"/>
      <use xlink:href="#ArialMT-28" transform="translate(1089.257812 0)"/>
      <use xlink:href="#ArialMT-68" transform="translate(1122.558594 0)"/>
      <use xlink:href="#ArialMT-6f" transform="translate(1178.173828 0)"/>
      <use xlink:href="#ArialMT-75" transform="translate(1233.789062 0)"/>
      <use xlink:href="#ArialMT-72" transform="translate(1289.404297 0)"/>
      <use xlink:href="#ArialMT-73" transform="translate(1322.705078 0)"/>
      <use xlink:href="#ArialMT-29" transform="translate(1372.705078 0)"/>
     </g>
    </g>
   </g>
   <g id="LineCollection_1">
    <path d="M 52.943993 121.235959 
L 70.773569 121.235959 
" clip-path="url(#p2329066961)" style="fill: none; stroke: #1f77b4; stroke-width: 1.5"/>
   </g>
   <g id="LineCollection_2">
    <path d="M 52.943993 13.245455 
L 70.773569 13.245455 
" clip-path="url(#p2329066961)" style="fill: none; stroke: #1f77b4; stroke-width: 1.5"/>
   </g>
   <g id="LineCollection_3">
    <path d="M 52.943993 134.154545 
L 70.773569 134.154545 
" clip-path="url(#p2329066961)" style="fill: none; stroke: #1f77b4; stroke-width: 1.5"/>
   </g>
   <g id="LineCollection_4">
    <path d="M 61.858781 134.154545 
L 61.858781 13.245455 
" clip-path="url(#p2329066961)" style="fill: none; stroke: #1f77b4; stroke-width: 1.5"/>
   </g>
   <g id="LineCollection_5">
    <path d="M 52.943993 128.658678 
L 70.773569 128.658678 
" clip-path="url(#p2329066961)" style="fill: none; stroke: #1f77b4; stroke-width: 1.5"/>
   </g>
   <g id="LineCollection_6">
    <path d="M 103.885639 121.235959 
L 121.715215 121.235959 
" clip-path="url(#p2329066961)" style="fill: none; stroke: #ff7f0e; stroke-width: 1.5"/>
   </g>
   <g id="LineCollection_7">
    <path d="M 103.885639 13.245455 
L 121.715215 13.245455 
" clip-path="url(#p2329066961)" style="fill: none; stroke: #ff7f0e; stroke-width: 1.5"/>
   </g>
   <g id="LineCollection_8">
    <path d="M 103.885639 134.154545 
L 121.715215 134.154545 
" clip-path="url(#p2329066961)" style="fill: none; stroke: #ff7f0e; stroke-width: 1.5"/>
   </g>
   <g id="LineCollection_9">
    <path d="M 112.800427 134.154545 
L 112.800427 13.245455 
" clip-path="url(#p2329066961)" style="fill: none; stroke: #ff7f0e; stroke-width: 1.5"/>
   </g>
   <g id="LineCollection_10">
    <path d="M 103.885639 128.658678 
L 121.715215 128.658678 
" clip-path="url(#p2329066961)" style="fill: none; stroke: #ff7f0e; stroke-width: 1.5"/>
   </g>
   <g id="LineCollection_11">
    <path d="M 154.827285 124.019066 
L 172.656861 124.019066 
" clip-path="url(#p2329066961)" style="fill: none; stroke: #2ca02c; stroke-width: 1.5"/>
   </g>
   <g id="LineCollection_12">
    <path d="M 154.827285 13.245455 
L 172.656861 13.245455 
" clip-path="url(#p2329066961)" style="fill: none; stroke: #2ca02c; stroke-width: 1.5"/>
   </g>
   <g id="LineCollection_13">
    <path d="M 154.827285 134.154545 
L 172.656861 134.154545 
" clip-path="url(#p2329066961)" style="fill: none; stroke: #2ca02c; stroke-width: 1.5"/>
   </g>
   <g id="LineCollection_14">
    <path d="M 163.742073 134.154545 
L 163.742073 13.245455 
" clip-path="url(#p2329066961)" style="fill: none; stroke: #2ca02c; stroke-width: 1.5"/>
   </g>
   <g id="LineCollection_15">
    <path d="M 154.827285 128.658678 
L 172.656861 128.658678 
" clip-path="url(#p2329066961)" style="fill: none; stroke: #2ca02c; stroke-width: 1.5"/>
   </g>
   <g id="LineCollection_16">
    <path d="M 205.768931 125.135826 
L 223.598507 125.135826 
" clip-path="url(#p2329066961)" style="fill: none; stroke: #d62728; stroke-width: 1.5"/>
   </g>
   <g id="LineCollection_17">
    <path d="M 205.768931 13.245455 
L 223.598507 13.245455 
" clip-path="url(#p2329066961)" style="fill: none; stroke: #d62728; stroke-width: 1.5"/>
   </g>
   <g id="LineCollection_18">
    <path d="M 205.768931 134.154545 
L 223.598507 134.154545 
" clip-path="url(#p2329066961)" style="fill: none; stroke: #d62728; stroke-width: 1.5"/>
   </g>
   <g id="LineCollection_19">
    <path d="M 214.683719 134.154545 
L 214.683719 13.245455 
" clip-path="url(#p2329066961)" style="fill: none; stroke: #d62728; stroke-width: 1.5"/>
   </g>
   <g id="LineCollection_20">
    <path d="M 205.768931 128.658678 
L 223.598507 128.658678 
" clip-path="url(#p2329066961)" style="fill: none; stroke: #d62728; stroke-width: 1.5"/>
   </g>
   <g id="patch_3">
    <path d="M 34.605 140.2 
L 34.605 7.2 
" style="fill: none; stroke: #000000; stroke-width: 0.5; stroke-linejoin: miter; stroke-linecap: square"/>
   </g>
   <g id="patch_4">
    <path d="M 34.605 140.2 
L 241.9375 140.2 
" style="fill: none; stroke: #000000; stroke-width: 0.5; stroke-linejoin: miter; stroke-linecap: square"/>
   </g>
   <g id="text_12">
    <g id="patch_5">
     <path d="M 165.7421 23.658125 
L 237.79085 23.658125 
Q 239.59085 23.658125 239.59085 21.858125 
L 239.59085 9.930312 
Q 239.59085 8.130312 237.79085 8.130312 
L 165.7421 8.130312 
Q 163.9421 8.130312 163.9421 9.930312 
L 163.9421 21.858125 
Q 163.9421 23.658125 165.7421 23.658125 
z
" style="fill: #ffffff; opacity: 0.9; stroke: #808080; stroke-linejoin: miter"/>
    </g>
    <!-- α=2.0, β=2.0, κ=5.0 -->
    <g transform="translate(185.670538 14.227812) scale(0.06 -0.06)">
     <defs>
      <path id="ArialMT-3b1" d="M 2884 3319 
L 3459 3319 
Q 3241 2631 3056 1659 
Q 3275 453 3459 0 
L 2900 0 
Q 2766 313 2697 606 
Q 2438 -75 1613 -75 
Q 988 -75 606 394 
Q 225 863 225 1666 
Q 225 2491 608 2942 
Q 991 3394 1622 3394 
Q 2013 3394 2259 3236 
Q 2506 3078 2719 2756 
Q 2741 2866 2884 3319 
z
M 1716 2928 
Q 1313 2928 1078 2603 
Q 844 2278 844 1666 
Q 844 1069 1066 728 
Q 1288 388 1684 388 
Q 2072 388 2331 723 
Q 2591 1059 2591 1691 
Q 2591 2303 2348 2615 
Q 2106 2928 1716 2928 
z
" transform="scale(0.015625)"/>
      <path id="ArialMT-3d" d="M 3381 2694 
L 356 2694 
L 356 3219 
L 3381 3219 
L 3381 2694 
z
M 3381 1303 
L 356 1303 
L 356 1828 
L 3381 1828 
L 3381 1303 
z
" transform="scale(0.015625)"/>
      <path id="ArialMT-2e" d="M 581 0 
L 581 641 
L 1222 641 
L 1222 0 
L 581 0 
z
" transform="scale(0.015625)"/>
      <path id="ArialMT-2c" d="M 569 0 
L 569 641 
L 1209 641 
L 1209 0 
Q 1209 -353 1084 -570 
Q 959 -788 688 -906 
L 531 -666 
Q 709 -588 793 -436 
Q 878 -284 888 0 
L 569 0 
z
" transform="scale(0.015625)"/>
      <path id="ArialMT-3b2" d="M 997 422 
L 997 -1272 
L 438 -1272 
L 438 3144 
Q 438 3672 580 3970 
Q 722 4269 1069 4464 
Q 1416 4659 1841 4659 
Q 2469 4659 2792 4298 
Q 3116 3938 3116 3509 
Q 3116 3091 2855 2834 
Q 2594 2578 2256 2519 
Q 2800 2466 3095 2128 
Q 3391 1791 3391 1297 
Q 3391 766 3042 345 
Q 2694 -75 2034 -75 
Q 1359 -75 997 422 
z
M 1494 2700 
Q 2069 2700 2331 2900 
Q 2594 3100 2594 3478 
Q 2594 3784 2370 3990 
Q 2147 4197 1813 4197 
Q 1522 4197 1308 4044 
Q 1094 3891 1045 3703 
Q 997 3516 997 3047 
L 997 1788 
Q 997 1250 1072 997 
Q 1147 744 1394 541 
Q 1641 338 1963 338 
Q 2353 338 2579 605 
Q 2806 872 2806 1266 
Q 2806 1591 2639 1848 
Q 2472 2106 2226 2198 
Q 1981 2291 1575 2291 
L 1494 2291 
L 1494 2700 
z
" transform="scale(0.015625)"/>
      <path id="ArialMT-3ba" d="M 419 3319 
L 978 3319 
L 978 2016 
L 2325 3319 
L 3069 3319 
L 1584 1941 
L 3197 0 
L 2478 0 
L 1184 1563 
L 978 1372 
L 978 0 
L 419 0 
L 419 3319 
z
" transform="scale(0.015625)"/>
     </defs>
     <use xlink:href="#ArialMT-3b1"/>
     <use xlink:href="#ArialMT-3d" transform="translate(57.8125 0)"/>
     <use xlink:href="#ArialMT-32" transform="translate(116.210938 0)"/>
     <use xlink:href="#ArialMT-2e" transform="translate(171.826172 0)"/>
     <use xlink:href="#ArialMT-30" transform="translate(199.609375 0)"/>
     <use xlink:href="#ArialMT-2c" transform="translate(255.224609 0)"/>
     <use xlink:href="#ArialMT-20" transform="translate(283.007812 0)"/>
     <use xlink:href="#ArialMT-3b2" transform="translate(310.791016 0)"/>
     <use xlink:href="#ArialMT-3d" transform="translate(368.310547 0)"/>
     <use xlink:href="#ArialMT-32" transform="translate(426.708984 0)"/>
     <use xlink:href="#ArialMT-2e" transform="translate(482.324219 0)"/>
     <use xlink:href="#ArialMT-30" transform="translate(510.107422 0)"/>
     <use xlink:href="#ArialMT-2c" transform="translate(565.722656 0)"/>
     <use xlink:href="#ArialMT-20" transform="translate(593.505859 0)"/>
     <use xlink:href="#ArialMT-3ba" transform="translate(621.289062 0)"/>
     <use xlink:href="#ArialMT-3d" transform="translate(671.289062 0)"/>
     <use xlink:href="#ArialMT-35" transform="translate(729.6875 0)"/>
     <use xlink:href="#ArialMT-2e" transform="translate(785.302734 0)"/>
     <use xlink:href="#ArialMT-30" transform="translate(813.085938 0)"/>
    </g>
    <!-- N_agents=500, N_runs=10 -->
    <g transform="translate(165.7421 20.595312) scale(0.06 -0.06)">
     <defs>
      <path id="ArialMT-4e" d="M 488 0 
L 488 4581 
L 1109 4581 
L 3516 984 
L 3516 4581 
L 4097 4581 
L 4097 0 
L 3475 0 
L 1069 3600 
L 1069 0 
L 488 0 
z
" transform="scale(0.015625)"/>
      <path id="ArialMT-5f" d="M -97 -1272 
L -97 -866 
L 3631 -866 
L 3631 -1272 
L -97 -1272 
z
" transform="scale(0.015625)"/>
     </defs>
     <use xlink:href="#ArialMT-4e"/>
     <use xlink:href="#ArialMT-5f" transform="translate(72.216797 0)"/>
     <use xlink:href="#ArialMT-61" transform="translate(127.832031 0)"/>
     <use xlink:href="#ArialMT-67" transform="translate(183.447266 0)"/>
     <use xlink:href="#ArialMT-65" transform="translate(239.0625 0)"/>
     <use xlink:href="#ArialMT-6e" transform="translate(294.677734 0)"/>
     <use xlink:href="#ArialMT-74" transform="translate(350.292969 0)"/>
     <use xlink:href="#ArialMT-73" transform="translate(378.076172 0)"/>
     <use xlink:href="#ArialMT-3d" transform="translate(428.076172 0)"/>
     <use xlink:href="#ArialMT-35" transform="translate(486.474609 0)"/>
     <use xlink:href="#ArialMT-30" transform="translate(542.089844 0)"/>
     <use xlink:href="#ArialMT-30" transform="translate(597.705078 0)"/>
     <use xlink:href="#ArialMT-2c" transform="translate(653.320312 0)"/>
     <use xlink:href="#ArialMT-20" transform="translate(681.103516 0)"/>
     <use xlink:href="#ArialMT-4e" transform="translate(708.886719 0)"/>
     <use xlink:href="#ArialMT-5f" transform="translate(781.103516 0)"/>
     <use xlink:href="#ArialMT-72" transform="translate(836.71875 0)"/>
     <use xlink:href="#ArialMT-75" transform="translate(870.019531 0)"/>
     <use xlink:href="#ArialMT-6e" transform="translate(925.634766 0)"/>
     <use xlink:href="#ArialMT-73" transform="translate(981.25 0)"/>
     <use xlink:href="#ArialMT-3d" transform="translate(1031.25 0)"/>
     <use xlink:href="#ArialMT-31" transform="translate(1089.648438 0)"/>
     <use xlink:href="#ArialMT-30" transform="translate(1145.263672 0)"/>
    </g>
   </g>
  </g>
 </g>
 <defs>
  <clipPath id="p2329066961">
   <rect x="34.605" y="7.2" width="207.3325" height="133"/>
  </clipPath>
 </defs>
</svg>
