<?xml version="1.0" encoding="utf-8" standalone="no"?>
<!DOCTYPE svg PUBLIC "-//W3C//DTD SVG 1.1//EN"
  "http://www.w3.org/Graphics/SVG/1.1/DTD/svg11.dtd">
<svg xmlns:xlink="http://www.w3.org/1999/xlink" width="249.07375pt" height="173.22375pt" viewBox="0 0 249.07375 173.22375" xmlns="http://www.w3.org/2000/svg" version="1.1">
 <metadata>
  <rdf:RDF xmlns:dc="http://purl.org/dc/elements/1.1/" xmlns:cc="http://creativecommons.org/ns#" xmlns:rdf="http://www.w3.org/1999/02/22-rdf-syntax-ns#">
   <cc:Work>
    <dc:type rdf:resource="http://purl.org/dc/dcmitype/StillImage"/>
    <dc:date>2026-04-16T01:28:55.328890</dc:date>
    <dc:format>image/svg+xml</dc:format>
    <dc:creator>
     <cc:Agent>
      <dc:title>Matplotlib v3.10.7, https://matplotlib.org/</dc:title>
     </cc:Agent>
    </dc:creator>
   </cc:Work>
  </rdf:RDF>
 </metadata>
 <defs>
  <style type="text/css">*{stroke-linejoin: round; stroke-linecap: butt}</style>
 </defs>
 <g id="figure_1">
  <g id="patch_1">
   <path d="M 0 173.22375 
L 249.07375 173.22375 
L 249.07375 0 
L 0 0 
z
" style="fill: #ffffff"/>
  </g>
  <g id="axes_1">
   <g id="patch_2">
    <path d="M 47.95125 140.2 
L 241.87375 140.2 
L 241.87375 7.2 
L 47.95125 7.2 
z
" style="fill: #ffffff"/>
   </g>
   <g id="FillBetweenPolyCollection_1">
    <defs>
     <path id="mb00a0e32e3" d="M 47.95125 -122.914537 
L 47.95125 -120.344749 
L 51.991302 -123.280867 
L 56.031354 -125.193974 
L 60.071406 -125.244974 
L 64.111458 -127.114831 
L 68.15151 -129.448125 
L 72.191563 -132.495587 
L 76.231615 -135.082896 
L 80.271667 -139.289623 
L 84.311719 -143.043076 
L 88.351771 -145.523174 
L 92.391823 -147.645414 
L 96.431875 -149.329979 
L 100.471927 -150.774462 
L 104.511979 -152.932173 
L 108.552031 -154.51284 
L 112.592083 -155.671318 
L 116.632135 -156.729079 
L 120.672188 -157.763766 
L 124.71224 -158.598104 
L 128.752292 -157.405859 
L 132.792344 -157.116786 
L 136.832396 -157.999422 
L 140.872448 -158.610242 
L 144.9125 -158.784045 
L 148.952552 -159.268154 
L 152.992604 -159.528482 
L 157.032656 -159.735075 
L 161.072708 -159.903612 
L 165.11276 -160.402151 
L 169.152812 -160.576097 
L 173.192865 -160.51019 
L 177.232917 -160.863631 
L 181.272969 -161.052345 
L 185.313021 -161.15912 
L 189.353073 -161.287063 
L 193.393125 -161.437813 
L 197.433177 -161.530537 
L 201.473229 -161.50205 
L 205.513281 -161.70375 
L 209.553333 -161.805159 
L 213.593385 -161.9939 
L 217.633437 -162.148394 
L 221.67349 -162.18784 
L 225.713542 -162.190362 
L 229.753594 -162.397169 
L 233.793646 -162.352635 
L 237.833698 -162.367397 
L 241.87375 -162.426142 
L 241.87375 -163.009787 
L 241.87375 -163.009787 
L 237.833698 -162.998284 
L 233.793646 -162.925698 
L 229.753594 -162.916288 
L 225.713542 -162.809752 
L 221.67349 -162.725389 
L 217.633437 -162.641438 
L 213.593385 -162.552375 
L 209.553333 -162.495708 
L 205.513281 -162.421496 
L 201.473229 -162.24053 
L 197.433177 -162.262879 
L 193.393125 -162.250692 
L 189.353073 -162.053438 
L 185.313021 -161.953074 
L 181.272969 -161.608321 
L 177.232917 -161.447643 
L 173.192865 -161.275609 
L 169.152812 -161.156552 
L 165.11276 -161.154878 
L 161.072708 -161.008243 
L 157.032656 -160.8468 
L 152.992604 -160.461369 
L 148.952552 -160.370917 
L 144.9125 -159.982934 
L 140.872448 -159.735246 
L 136.832396 -159.212853 
L 132.792344 -158.652171 
L 128.752292 -158.803064 
L 124.71224 -159.458978 
L 120.672188 -158.981246 
L 116.632135 -157.847481 
L 112.592083 -156.821365 
L 108.552031 -155.913989 
L 104.511979 -154.782242 
L 100.471927 -153.003741 
L 96.431875 -151.664173 
L 92.391823 -150.139498 
L 88.351771 -147.551406 
L 84.311719 -145.323947 
L 80.271667 -141.263686 
L 76.231615 -136.862717 
L 72.191563 -133.764078 
L 68.15151 -131.81189 
L 64.111458 -129.690884 
L 60.071406 -127.957724 
L 56.031354 -127.540986 
L 51.991302 -125.433759 
L 47.95125 -122.914537 
z
" style="stroke: #888780; stroke-opacity: 0.25"/>
    </defs>
    <g clip-path="url(#p28daf92943)">
     <use xlink:href="#mb00a0e32e3" x="0" y="173.22375" style="fill: #888780; fill-opacity: 0.25; stroke: #888780; stroke-opacity: 0.25"/>
    </g>
   </g>
   <g id="FillBetweenPolyCollection_2">
    <defs>
     <path id="m360373156d" d="M 47.95125 -122.914537 
L 47.95125 -120.344749 
L 51.991302 -123.280867 
L 56.031354 -125.193974 
L 60.071406 -125.244974 
L 64.111458 -127.114831 
L 68.15151 -129.448125 
L 72.191563 -132.495587 
L 76.231615 -135.082896 
L 80.271667 -139.289623 
L 84.311719 -143.043076 
L 88.351771 -145.523174 
L 92.391823 -147.645414 
L 96.431875 -149.329979 
L 100.471927 -150.774462 
L 104.511979 -152.932173 
L 108.552031 -154.51284 
L 112.592083 -155.671318 
L 116.632135 -156.729079 
L 120.672188 -157.763766 
L 124.71224 -158.598104 
L 128.752292 -157.405859 
L 132.792344 -157.116786 
L 136.832396 -157.999422 
L 140.872448 -158.610242 
L 144.9125 -158.784045 
L 148.952552 -159.268154 
L 152.992604 -159.528482 
L 157.032656 -159.735075 
L 161.072708 -159.903612 
L 165.11276 -160.402151 
L 169.152812 -160.576097 
L 173.192865 -160.51019 
L 177.232917 -160.863631 
L 181.272969 -161.052345 
L 185.313021 -161.15912 
L 189.353073 -161.287063 
L 193.393125 -161.437813 
L 197.433177 -161.530537 
L 201.473229 -161.50205 
L 205.513281 -161.70375 
L 209.553333 -161.805159 
L 213.593385 -161.9939 
L 217.633437 -162.148394 
L 221.67349 -162.18784 
L 225.713542 -162.190362 
L 229.753594 -162.397169 
L 233.793646 -162.352635 
L 237.833698 -162.367397 
L 241.87375 -162.426142 
L 241.87375 -163.009787 
L 241.87375 -163.009787 
L 237.833698 -162.998284 
L 233.793646 -162.925698 
L 229.753594 -162.916288 
L 225.713542 -162.809752 
L 221.67349 -162.725389 
L 217.633437 -162.641438 
L 213.593385 -162.552375 
L 209.553333 -162.495708 
L 205.513281 -162.421496 
L 201.473229 -162.24053 
L 197.433177 -162.262879 
L 193.393125 -162.250692 
L 189.353073 -162.053438 
L 185.313021 -161.953074 
L 181.272969 -161.608321 
L 177.232917 -161.447643 
L 173.192865 -161.275609 
L 169.152812 -161.156552 
L 165.11276 -161.154878 
L 161.072708 -161.008243 
L 157.032656 -160.8468 
L 152.992604 -160.461369 
L 148.952552 -160.370917 
L 144.9125 -159.982934 
L 140.872448 -159.735246 
L 136.832396 -159.212853 
L 132.792344 -158.652171 
L 128.752292 -158.803064 
L 124.71224 -159.458978 
L 120.672188 -158.981246 
L 116.632135 -157.847481 
L 112.592083 -156.821365 
L 108.552031 -155.913989 
L 104.511979 -154.782242 
L 100.471927 -153.003741 
L 96.431875 -151.664173 
L 92.391823 -150.139498 
L 88.351771 -147.551406 
L 84.311719 -145.323947 
L 80.271667 -141.263686 
L 76.231615 -136.862717 
L 72.191563 -133.764078 
L 68.15151 -131.81189 
L 64.111458 -129.690884 
L 60.071406 -127.957724 
L 56.031354 -127.540986 
L 51.991302 -125.433759 
L 47.95125 -122.914537 
z
" style="stroke: #378add; stroke-opacity: 0.25"/>
    </defs>
    <g clip-path="url(#p28daf92943)">
     <use xlink:href="#m360373156d" x="0" y="173.22375" style="fill: #378add; fill-opacity: 0.25; stroke: #378add; stroke-opacity: 0.25"/>
    </g>
   </g>
   <g id="FillBetweenPolyCollection_3">
    <defs>
     <path id="mefdcec7448" d="M 47.95125 -120.645689 
L 47.95125 -117.736004 
L 51.991302 -115.146966 
L 56.031354 -114.78575 
L 60.071406 -119.896775 
L 64.111458 -123.536888 
L 68.15151 -128.128536 
L 72.191563 -130.633577 
L 76.231615 -133.557855 
L 80.271667 -147.668444 
L 84.311719 -150.319339 
L 88.351771 -151.832595 
L 92.391823 -153.37678 
L 96.431875 -154.632437 
L 100.471927 -155.711702 
L 104.511979 -156.803294 
L 108.552031 -157.646599 
L 112.592083 -158.220338 
L 116.632135 -158.994544 
L 120.672188 -159.515781 
L 124.71224 -159.877323 
L 128.752292 -158.938247 
L 132.792344 -158.373064 
L 136.832396 -158.461364 
L 140.872448 -158.828181 
L 144.9125 -158.6119 
L 148.952552 -159.237109 
L 152.992604 -159.666327 
L 157.032656 -159.908943 
L 161.072708 -160.393908 
L 165.11276 -160.500213 
L 169.152812 -160.817262 
L 173.192865 -160.572973 
L 177.232917 -160.740575 
L 181.272969 -161.022916 
L 185.313021 -161.34797 
L 189.353073 -161.327091 
L 193.393125 -161.572882 
L 197.433177 -161.681623 
L 201.473229 -161.84246 
L 205.513281 -161.880211 
L 209.553333 -162.003089 
L 213.593385 -162.110592 
L 217.633437 -162.223846 
L 221.67349 -162.391705 
L 225.713542 -162.408233 
L 229.753594 -162.364014 
L 233.793646 -162.327197 
L 237.833698 -162.377042 
L 241.87375 -162.40284 
L 241.87375 -163.105188 
L 241.87375 -163.105188 
L 237.833698 -163.060737 
L 233.793646 -162.935886 
L 229.753594 -162.933731 
L 225.713542 -162.907075 
L 221.67349 -162.870453 
L 217.633437 -162.794293 
L 213.593385 -162.645502 
L 209.553333 -162.613434 
L 205.513281 -162.526491 
L 201.473229 -162.564243 
L 197.433177 -162.446397 
L 193.393125 -162.294019 
L 189.353073 -162.330453 
L 185.313021 -162.324824 
L 181.272969 -162.075415 
L 177.232917 -161.97139 
L 173.192865 -161.7725 
L 169.152812 -161.629422 
L 165.11276 -161.128452 
L 161.072708 -161.181608 
L 157.032656 -160.814354 
L 152.992604 -160.916011 
L 148.952552 -160.577583 
L 144.9125 -160.366286 
L 140.872448 -160.234578 
L 136.832396 -159.746864 
L 132.792344 -159.726092 
L 128.752292 -159.952579 
L 124.71224 -160.704529 
L 120.672188 -160.433835 
L 116.632135 -159.777949 
L 112.592083 -159.059838 
L 108.552031 -158.527165 
L 104.511979 -157.667408 
L 100.471927 -156.792044 
L 96.431875 -155.974602 
L 92.391823 -154.666655 
L 88.351771 -153.014074 
L 84.311719 -151.41745 
L 80.271667 -149.14773 
L 76.231615 -135.735904 
L 72.191563 -133.900863 
L 68.15151 -130.88634 
L 64.111458 -126.959478 
L 60.071406 -123.885341 
L 56.031354 -120.28051 
L 51.991302 -119.165938 
L 47.95125 -120.645689 
z
" style="stroke: #ba7517; stroke-opacity: 0.25"/>
    </defs>
    <g clip-path="url(#p28daf92943)">
     <use xlink:href="#mefdcec7448" x="0" y="173.22375" style="fill: #ba7517; fill-opacity: 0.25; stroke: #ba7517; stroke-opacity: 0.25"/>
    </g>
   </g>
   <g id="FillBetweenPolyCollection_4">
    <defs>
     <path id="mbd4cfa24f1" d="M 47.95125 -120.574723 
L 47.95125 -117.739496 
L 51.991302 -117.907729 
L 56.031354 -119.864767 
L 60.071406 -122.302878 
L 64.111458 -125.26058 
L 68.15151 -128.53957 
L 72.191563 -132.973496 
L 76.231615 -136.49405 
L 80.271667 -149.545331 
L 84.311719 -152.04334 
L 88.351771 -154.373205 
L 92.391823 -156.152717 
L 96.431875 -157.345006 
L 100.471927 -158.51523 
L 104.511979 -159.240413 
L 108.552031 -160.27033 
L 112.592083 -160.853003 
L 116.632135 -161.407806 
L 120.672188 -161.715467 
L 124.71224 -162.074786 
L 128.752292 -161.976663 
L 132.792344 -161.754382 
L 136.832396 -162.023069 
L 140.872448 -162.180276 
L 144.9125 -162.158039 
L 148.952552 -162.237292 
L 152.992604 -162.453651 
L 157.032656 -162.480115 
L 161.072708 -162.556066 
L 165.11276 -162.504538 
L 169.152812 -162.608444 
L 173.192865 -162.775149 
L 177.232917 -162.834709 
L 181.272969 -162.810995 
L 185.313021 -162.743374 
L 189.353073 -162.853556 
L 193.393125 -162.934136 
L 197.433177 -163.028282 
L 201.473229 -163.051582 
L 205.513281 -163.046086 
L 209.553333 -163.043294 
L 213.593385 -163.015524 
L 217.633437 -163.099522 
L 221.67349 -163.126952 
L 225.713542 -163.214838 
L 229.753594 -163.229128 
L 233.793646 -163.26814 
L 237.833698 -163.225235 
L 241.87375 -163.225235 
L 241.87375 -163.556964 
L 241.87375 -163.556964 
L 237.833698 -163.556964 
L 233.793646 -163.583845 
L 229.753594 -163.51841 
L 225.713542 -163.5327 
L 221.67349 -163.428328 
L 217.633437 -163.333285 
L 213.593385 -163.383084 
L 209.553333 -163.32019 
L 205.513281 -163.35206 
L 201.473229 -163.363201 
L 197.433177 -163.317177 
L 193.393125 -163.306876 
L 189.353073 -163.30057 
L 185.313021 -163.37609 
L 181.272969 -163.359768 
L 177.232917 -163.370716 
L 173.192865 -163.290704 
L 169.152812 -163.230951 
L 165.11276 -163.00349 
L 161.072708 -162.951036 
L 157.032656 -162.887415 
L 152.992604 -162.843632 
L 148.952552 -162.868658 
L 144.9125 -162.77229 
L 140.872448 -162.591993 
L 136.832396 -162.609166 
L 132.792344 -162.319102 
L 128.752292 -162.334829 
L 124.71224 -162.423415 
L 120.672188 -162.203648 
L 116.632135 -161.96642 
L 112.592083 -161.398174 
L 108.552031 -160.926658 
L 104.511979 -160.201289 
L 100.471927 -159.327859 
L 96.431875 -158.26862 
L 92.391823 -157.125612 
L 88.351771 -155.62101 
L 84.311719 -153.426789 
L 80.271667 -150.851212 
L 76.231615 -138.845223 
L 72.191563 -135.329871 
L 68.15151 -132.124305 
L 64.111458 -127.997186 
L 60.071406 -125.046633 
L 56.031354 -122.983297 
L 51.991302 -121.149221 
L 47.95125 -120.574723 
z
" style="stroke: #1d9e75; stroke-opacity: 0.25"/>
    </defs>
    <g clip-path="url(#p28daf92943)">
     <use xlink:href="#mbd4cfa24f1" x="0" y="173.22375" style="fill: #1d9e75; fill-opacity: 0.25; stroke: #1d9e75; stroke-opacity: 0.25"/>
    </g>
   </g>
   <g id="matplotlib.axis_1">
    <g id="xtick_1">
     <g id="line2d_1">
      <path d="M 47.95125 140.2 
L 47.95125 7.2 
" clip-path="url(#p28daf92943)" style="fill: none; stroke: #b0b0b0; stroke-opacity: 0.3; stroke-width: 0.8; stroke-linecap: square"/>
     </g>
     <g id="line2d_2">
      <defs>
       <path id="m7ed4bdfd3f" d="M 0 0 
L 0 3.5 
" style="stroke: #000000; stroke-width: 0.8"/>
      </defs>
      <g>
       <use xlink:href="#m7ed4bdfd3f" x="47.95125" y="140.2" style="stroke: #000000; stroke-width: 0.8"/>
      </g>
     </g>
     <g id="text_1">
      <!-- 0 -->
      <g transform="translate(45.726875 152.92625) scale(0.08 -0.08)">
       <defs>
        <path id="ArialMT-30" d="M 266 2259 
Q 266 3072 433 3567 
Q 600 4063 929 4331 
Q 1259 4600 1759 4600 
Q 2128 4600 2406 4451 
Q 2684 4303 2865 4023 
Q 3047 3744 3150 3342 
Q 3253 2941 3253 2259 
Q 3253 1453 3087 958 
Q 2922 463 2592 192 
Q 2263 -78 1759 -78 
Q 1097 -78 719 397 
Q 266 969 266 2259 
z
M 844 2259 
Q 844 1131 1108 757 
Q 1372 384 1759 384 
Q 2147 384 2411 759 
Q 2675 1134 2675 2259 
Q 2675 3391 2411 3762 
Q 2147 4134 1753 4134 
Q 1366 4134 1134 3806 
Q 844 3388 844 2259 
z
" transform="scale(0.015625)"/>
       </defs>
       <use xlink:href="#ArialMT-30"/>
      </g>
     </g>
    </g>
    <g id="xtick_2">
     <g id="line2d_3">
      <path d="M 88.351771 140.2 
L 88.351771 7.2 
" clip-path="url(#p28daf92943)" style="fill: none; stroke: #b0b0b0; stroke-opacity: 0.3; stroke-width: 0.8; stroke-linecap: square"/>
     </g>
     <g id="line2d_4">
      <g>
       <use xlink:href="#m7ed4bdfd3f" x="88.351771" y="140.2" style="stroke: #000000; stroke-width: 0.8"/>
      </g>
     </g>
     <g id="text_2">
      <!-- 10 -->
      <g transform="translate(83.903021 152.92625) scale(0.08 -0.08)">
       <defs>
        <path id="ArialMT-31" d="M 2384 0 
L 1822 0 
L 1822 3584 
Q 1619 3391 1289 3197 
Q 959 3003 697 2906 
L 697 3450 
Q 1169 3672 1522 3987 
Q 1875 4303 2022 4600 
L 2384 4600 
L 2384 0 
z
" transform="scale(0.015625)"/>
       </defs>
       <use xlink:href="#ArialMT-31"/>
       <use xlink:href="#ArialMT-30" transform="translate(55.615234 0)"/>
      </g>
     </g>
    </g>
    <g id="xtick_3">
     <g id="line2d_5">
      <path d="M 128.752292 140.2 
L 128.752292 7.2 
" clip-path="url(#p28daf92943)" style="fill: none; stroke: #b0b0b0; stroke-opacity: 0.3; stroke-width: 0.8; stroke-linecap: square"/>
     </g>
     <g id="line2d_6">
      <g>
       <use xlink:href="#m7ed4bdfd3f" x="128.752292" y="140.2" style="stroke: #000000; stroke-width: 0.8"/>
      </g>
     </g>
     <g id="text_3">
      <!-- 20 -->
      <g transform="translate(124.303542 152.92625) scale(0.08 -0.08)">
       <defs>
        <path id="ArialMT-32" d="M 3222 541 
L 3222 0 
L 194 0 
Q 188 203 259 391 
Q 375 700 629 1000 
Q 884 1300 1366 1694 
Q 2113 2306 2375 2664 
Q 2638 3022 2638 3341 
Q 2638 3675 2398 3904 
Q 2159 4134 1775 4134 
Q 1369 4134 1125 3890 
Q 881 3647 878 3216 
L 300 3275 
Q 359 3922 746 4261 
Q 1134 4600 1788 4600 
Q 2447 4600 2831 4234 
Q 3216 3869 3216 3328 
Q 3216 3053 3103 2787 
Q 2991 2522 2730 2228 
Q 2469 1934 1863 1422 
Q 1356 997 1212 845 
Q 1069 694 975 541 
L 3222 541 
z
" transform="scale(0.015625)"/>
       </defs>
       <use xlink:href="#ArialMT-32"/>
       <use xlink:href="#ArialMT-30" transform="translate(55.615234 0)"/>
      </g>
     </g>
    </g>
    <g id="xtick_4">
     <g id="line2d_7">
      <path d="M 169.152812 140.2 
L 169.152812 7.2 
" clip-path="url(#p28daf92943)" style="fill: none; stroke: #b0b0b0; stroke-opacity: 0.3; stroke-width: 0.8; stroke-linecap: square"/>
     </g>
     <g id="line2d_8">
      <g>
       <use xlink:href="#m7ed4bdfd3f" x="169.152812" y="140.2" style="stroke: #000000; stroke-width: 0.8"/>
      </g>
     </g>
     <g id="text_4">
      <!-- 30 -->
      <g transform="translate(164.704062 152.92625) scale(0.08 -0.08)">
       <defs>
        <path id="ArialMT-33" d="M 269 1209 
L 831 1284 
Q 928 806 1161 595 
Q 1394 384 1728 384 
Q 2125 384 2398 659 
Q 2672 934 2672 1341 
Q 2672 1728 2419 1979 
Q 2166 2231 1775 2231 
Q 1616 2231 1378 2169 
L 1441 2663 
Q 1497 2656 1531 2656 
Q 1891 2656 2178 2843 
Q 2466 3031 2466 3422 
Q 2466 3731 2256 3934 
Q 2047 4138 1716 4138 
Q 1388 4138 1169 3931 
Q 950 3725 888 3313 
L 325 3413 
Q 428 3978 793 4289 
Q 1159 4600 1703 4600 
Q 2078 4600 2393 4439 
Q 2709 4278 2876 4000 
Q 3044 3722 3044 3409 
Q 3044 3113 2884 2869 
Q 2725 2625 2413 2481 
Q 2819 2388 3044 2092 
Q 3269 1797 3269 1353 
Q 3269 753 2831 336 
Q 2394 -81 1725 -81 
Q 1122 -81 723 278 
Q 325 638 269 1209 
z
" transform="scale(0.015625)"/>
       </defs>
       <use xlink:href="#ArialMT-33"/>
       <use xlink:href="#ArialMT-30" transform="translate(55.615234 0)"/>
      </g>
     </g>
    </g>
    <g id="xtick_5">
     <g id="line2d_9">
      <path d="M 209.553333 140.2 
L 209.553333 7.2 
" clip-path="url(#p28daf92943)" style="fill: none; stroke: #b0b0b0; stroke-opacity: 0.3; stroke-width: 0.8; stroke-linecap: square"/>
     </g>
     <g id="line2d_10">
      <g>
       <use xlink:href="#m7ed4bdfd3f" x="209.553333" y="140.2" style="stroke: #000000; stroke-width: 0.8"/>
      </g>
     </g>
     <g id="text_5">
      <!-- 40 -->
      <g transform="translate(205.104583 152.92625) scale(0.08 -0.08)">
       <defs>
        <path id="ArialMT-34" d="M 2069 0 
L 2069 1097 
L 81 1097 
L 81 1613 
L 2172 4581 
L 2631 4581 
L 2631 1613 
L 3250 1613 
L 3250 1097 
L 2631 1097 
L 2631 0 
L 2069 0 
z
M 2069 1613 
L 2069 3678 
L 634 1613 
L 2069 1613 
z
" transform="scale(0.015625)"/>
       </defs>
       <use xlink:href="#ArialMT-34"/>
       <use xlink:href="#ArialMT-30" transform="translate(55.615234 0)"/>
      </g>
     </g>
    </g>
    <g id="text_6">
     <!-- Time (hours) -->
     <g transform="translate(122.394375 164.34) scale(0.08 -0.08)">
      <defs>
       <path id="ArialMT-54" d="M 1659 0 
L 1659 4041 
L 150 4041 
L 150 4581 
L 3781 4581 
L 3781 4041 
L 2266 4041 
L 2266 0 
L 1659 0 
z
" transform="scale(0.015625)"/>
       <path id="ArialMT-69" d="M 425 3934 
L 425 4581 
L 988 4581 
L 988 3934 
L 425 3934 
z
M 425 0 
L 425 3319 
L 988 3319 
L 988 0 
L 425 0 
z
" transform="scale(0.015625)"/>
       <path id="ArialMT-6d" d="M 422 0 
L 422 3319 
L 925 3319 
L 925 2853 
Q 1081 3097 1340 3245 
Q 1600 3394 1931 3394 
Q 2300 3394 2536 3241 
Q 2772 3088 2869 2813 
Q 3263 3394 3894 3394 
Q 4388 3394 4653 3120 
Q 4919 2847 4919 2278 
L 4919 0 
L 4359 0 
L 4359 2091 
Q 4359 2428 4304 2576 
Q 4250 2725 4106 2815 
Q 3963 2906 3769 2906 
Q 3419 2906 3187 2673 
Q 2956 2441 2956 1928 
L 2956 0 
L 2394 0 
L 2394 2156 
Q 2394 2531 2256 2718 
Q 2119 2906 1806 2906 
Q 1569 2906 1367 2781 
Q 1166 2656 1075 2415 
Q 984 2175 984 1722 
L 984 0 
L 422 0 
z
" transform="scale(0.015625)"/>
       <path id="ArialMT-65" d="M 2694 1069 
L 3275 997 
Q 3138 488 2766 206 
Q 2394 -75 1816 -75 
Q 1088 -75 661 373 
Q 234 822 234 1631 
Q 234 2469 665 2931 
Q 1097 3394 1784 3394 
Q 2450 3394 2872 2941 
Q 3294 2488 3294 1666 
Q 3294 1616 3291 1516 
L 816 1516 
Q 847 969 1125 678 
Q 1403 388 1819 388 
Q 2128 388 2347 550 
Q 2566 713 2694 1069 
z
M 847 1978 
L 2700 1978 
Q 2663 2397 2488 2606 
Q 2219 2931 1791 2931 
Q 1403 2931 1139 2672 
Q 875 2413 847 1978 
z
" transform="scale(0.015625)"/>
       <path id="ArialMT-20" transform="scale(0.015625)"/>
       <path id="ArialMT-28" d="M 1497 -1347 
Q 1031 -759 709 28 
Q 388 816 388 1659 
Q 388 2403 628 3084 
Q 909 3875 1497 4659 
L 1900 4659 
Q 1522 4009 1400 3731 
Q 1209 3300 1100 2831 
Q 966 2247 966 1656 
Q 966 153 1900 -1347 
L 1497 -1347 
z
" transform="scale(0.015625)"/>
       <path id="ArialMT-68" d="M 422 0 
L 422 4581 
L 984 4581 
L 984 2938 
Q 1378 3394 1978 3394 
Q 2347 3394 2619 3248 
Q 2891 3103 3008 2847 
Q 3125 2591 3125 2103 
L 3125 0 
L 2563 0 
L 2563 2103 
Q 2563 2525 2380 2717 
Q 2197 2909 1863 2909 
Q 1613 2909 1392 2779 
Q 1172 2650 1078 2428 
Q 984 2206 984 1816 
L 984 0 
L 422 0 
z
" transform="scale(0.015625)"/>
       <path id="ArialMT-6f" d="M 213 1659 
Q 213 2581 725 3025 
Q 1153 3394 1769 3394 
Q 2453 3394 2887 2945 
Q 3322 2497 3322 1706 
Q 3322 1066 3130 698 
Q 2938 331 2570 128 
Q 2203 -75 1769 -75 
Q 1072 -75 642 372 
Q 213 819 213 1659 
z
M 791 1659 
Q 791 1022 1069 705 
Q 1347 388 1769 388 
Q 2188 388 2466 706 
Q 2744 1025 2744 1678 
Q 2744 2294 2464 2611 
Q 2184 2928 1769 2928 
Q 1347 2928 1069 2612 
Q 791 2297 791 1659 
z
" transform="scale(0.015625)"/>
       <path id="ArialMT-75" d="M 2597 0 
L 2597 488 
Q 2209 -75 1544 -75 
Q 1250 -75 995 37 
Q 741 150 617 320 
Q 494 491 444 738 
Q 409 903 409 1263 
L 409 3319 
L 972 3319 
L 972 1478 
Q 972 1038 1006 884 
Q 1059 663 1231 536 
Q 1403 409 1656 409 
Q 1909 409 2131 539 
Q 2353 669 2445 892 
Q 2538 1116 2538 1541 
L 2538 3319 
L 3100 3319 
L 3100 0 
L 2597 0 
z
" transform="scale(0.015625)"/>
       <path id="ArialMT-72" d="M 416 0 
L 416 3319 
L 922 3319 
L 922 2816 
Q 1116 3169 1280 3281 
Q 1444 3394 1641 3394 
Q 1925 3394 2219 3213 
L 2025 2691 
Q 1819 2813 1613 2813 
Q 1428 2813 1281 2702 
Q 1134 2591 1072 2394 
Q 978 2094 978 1738 
L 978 0 
L 416 0 
z
" transform="scale(0.015625)"/>
       <path id="ArialMT-73" d="M 197 991 
L 753 1078 
Q 800 744 1014 566 
Q 1228 388 1613 388 
Q 2000 388 2187 545 
Q 2375 703 2375 916 
Q 2375 1106 2209 1216 
Q 2094 1291 1634 1406 
Q 1016 1563 777 1677 
Q 538 1791 414 1992 
Q 291 2194 291 2438 
Q 291 2659 392 2848 
Q 494 3038 669 3163 
Q 800 3259 1026 3326 
Q 1253 3394 1513 3394 
Q 1903 3394 2198 3281 
Q 2494 3169 2634 2976 
Q 2775 2784 2828 2463 
L 2278 2388 
Q 2241 2644 2061 2787 
Q 1881 2931 1553 2931 
Q 1166 2931 1000 2803 
Q 834 2675 834 2503 
Q 834 2394 903 2306 
Q 972 2216 1119 2156 
Q 1203 2125 1616 2013 
Q 2213 1853 2448 1751 
Q 2684 1650 2818 1456 
Q 2953 1263 2953 975 
Q 2953 694 2789 445 
Q 2625 197 2315 61 
Q 2006 -75 1616 -75 
Q 969 -75 630 194 
Q 291 463 197 991 
z
" transform="scale(0.015625)"/>
       <path id="ArialMT-29" d="M 791 -1347 
L 388 -1347 
Q 1322 153 1322 1656 
Q 1322 2244 1188 2822 
Q 1081 3291 891 3722 
Q 769 4003 388 4659 
L 791 4659 
Q 1378 3875 1659 3084 
Q 1900 2403 1900 1659 
Q 1900 816 1576 28 
Q 1253 -759 791 -1347 
z
" transform="scale(0.015625)"/>
      </defs>
      <use xlink:href="#ArialMT-54"/>
      <use xlink:href="#ArialMT-69" transform="translate(57.333984 0)"/>
      <use xlink:href="#ArialMT-6d" transform="translate(79.550781 0)"/>
      <use xlink:href="#ArialMT-65" transform="translate(162.851562 0)"/>
      <use xlink:href="#ArialMT-20" transform="translate(218.466797 0)"/>
      <use xlink:href="#ArialMT-28" transform="translate(246.25 0)"/>
      <use xlink:href="#ArialMT-68" transform="translate(279.550781 0)"/>
      <use xlink:href="#ArialMT-6f" transform="translate(335.166016 0)"/>
      <use xlink:href="#ArialMT-75" transform="translate(390.78125 0)"/>
      <use xlink:href="#ArialMT-72" transform="translate(446.396484 0)"/>
      <use xlink:href="#ArialMT-73" transform="translate(479.697266 0)"/>
      <use xlink:href="#ArialMT-29" transform="translate(529.697266 0)"/>
     </g>
    </g>
   </g>
   <g id="matplotlib.axis_2">
    <g id="ytick_1">
     <g id="line2d_11">
      <path d="M 47.95125 140.2 
L 241.87375 140.2 
" clip-path="url(#p28daf92943)" style="fill: none; stroke: #b0b0b0; stroke-opacity: 0.3; stroke-width: 0.8; stroke-linecap: square"/>
     </g>
     <g id="line2d_12">
      <defs>
       <path id="mcde7b8833b" d="M 0 0 
L -3.5 0 
" style="stroke: #000000; stroke-width: 0.8"/>
      </defs>
      <g>
       <use xlink:href="#mcde7b8833b" x="47.95125" y="140.2" style="stroke: #000000; stroke-width: 0.8"/>
      </g>
     </g>
     <g id="text_7">
      <!-- 0 -->
      <g transform="translate(36.5025 143.063125) scale(0.08 -0.08)">
       <use xlink:href="#ArialMT-30"/>
      </g>
     </g>
    </g>
    <g id="ytick_2">
     <g id="line2d_13">
      <path d="M 47.95125 120.630821 
L 241.87375 120.630821 
" clip-path="url(#p28daf92943)" style="fill: none; stroke: #b0b0b0; stroke-opacity: 0.3; stroke-width: 0.8; stroke-linecap: square"/>
     </g>
     <g id="line2d_14">
      <g>
       <use xlink:href="#mcde7b8833b" x="47.95125" y="120.630821" style="stroke: #000000; stroke-width: 0.8"/>
      </g>
     </g>
     <g id="text_8">
      <!-- 2500 -->
      <g transform="translate(23.15625 123.493946) scale(0.08 -0.08)">
       <defs>
        <path id="ArialMT-35" d="M 266 1200 
L 856 1250 
Q 922 819 1161 601 
Q 1400 384 1738 384 
Q 2144 384 2425 690 
Q 2706 997 2706 1503 
Q 2706 1984 2436 2262 
Q 2166 2541 1728 2541 
Q 1456 2541 1237 2417 
Q 1019 2294 894 2097 
L 366 2166 
L 809 4519 
L 3088 4519 
L 3088 3981 
L 1259 3981 
L 1013 2750 
Q 1425 3038 1878 3038 
Q 2478 3038 2890 2622 
Q 3303 2206 3303 1553 
Q 3303 931 2941 478 
Q 2500 -78 1738 -78 
Q 1113 -78 717 272 
Q 322 622 266 1200 
z
" transform="scale(0.015625)"/>
       </defs>
       <use xlink:href="#ArialMT-32"/>
       <use xlink:href="#ArialMT-35" transform="translate(55.615234 0)"/>
       <use xlink:href="#ArialMT-30" transform="translate(111.230469 0)"/>
       <use xlink:href="#ArialMT-30" transform="translate(166.845703 0)"/>
      </g>
     </g>
    </g>
    <g id="ytick_3">
     <g id="line2d_15">
      <path d="M 47.95125 101.061641 
L 241.87375 101.061641 
" clip-path="url(#p28daf92943)" style="fill: none; stroke: #b0b0b0; stroke-opacity: 0.3; stroke-width: 0.8; stroke-linecap: square"/>
     </g>
     <g id="line2d_16">
      <g>
       <use xlink:href="#mcde7b8833b" x="47.95125" y="101.061641" style="stroke: #000000; stroke-width: 0.8"/>
      </g>
     </g>
     <g id="text_9">
      <!-- 5000 -->
      <g transform="translate(23.15625 103.924766) scale(0.08 -0.08)">
       <use xlink:href="#ArialMT-35"/>
       <use xlink:href="#ArialMT-30" transform="translate(55.615234 0)"/>
       <use xlink:href="#ArialMT-30" transform="translate(111.230469 0)"/>
       <use xlink:href="#ArialMT-30" transform="translate(166.845703 0)"/>
      </g>
     </g>
    </g>
    <g id="ytick_4">
     <g id="line2d_17">
      <path d="M 47.95125 81.492462 
L 241.87375 81.492462 
" clip-path="url(#p28daf92943)" style="fill: none; stroke: #b0b0b0; stroke-opacity: 0.3; stroke-width: 0.8; stroke-linecap: square"/>
     </g>
     <g id="line2d_18">
      <g>
       <use xlink:href="#mcde7b8833b" x="47.95125" y="81.492462" style="stroke: #000000; stroke-width: 0.8"/>
      </g>
     </g>
     <g id="text_10">
      <!-- 7500 -->
      <g transform="translate(23.15625 84.355587) scale(0.08 -0.08)">
       <defs>
        <path id="ArialMT-37" d="M 303 3981 
L 303 4522 
L 3269 4522 
L 3269 4084 
Q 2831 3619 2401 2847 
Q 1972 2075 1738 1259 
Q 1569 684 1522 0 
L 944 0 
Q 953 541 1156 1306 
Q 1359 2072 1739 2783 
Q 2119 3494 2547 3981 
L 303 3981 
z
" transform="scale(0.015625)"/>
       </defs>
       <use xlink:href="#ArialMT-37"/>
       <use xlink:href="#ArialMT-35" transform="translate(55.615234 0)"/>
       <use xlink:href="#ArialMT-30" transform="translate(111.230469 0)"/>
       <use xlink:href="#ArialMT-30" transform="translate(166.845703 0)"/>
      </g>
     </g>
    </g>
    <g id="ytick_5">
     <g id="line2d_19">
      <path d="M 47.95125 61.923283 
L 241.87375 61.923283 
" clip-path="url(#p28daf92943)" style="fill: none; stroke: #b0b0b0; stroke-opacity: 0.3; stroke-width: 0.8; stroke-linecap: square"/>
     </g>
     <g id="line2d_20">
      <g>
       <use xlink:href="#mcde7b8833b" x="47.95125" y="61.923283" style="stroke: #000000; stroke-width: 0.8"/>
      </g>
     </g>
     <g id="text_11">
      <!-- 10000 -->
      <g transform="translate(18.7075 64.786408) scale(0.08 -0.08)">
       <use xlink:href="#ArialMT-31"/>
       <use xlink:href="#ArialMT-30" transform="translate(55.615234 0)"/>
       <use xlink:href="#ArialMT-30" transform="translate(111.230469 0)"/>
       <use xlink:href="#ArialMT-30" transform="translate(166.845703 0)"/>
       <use xlink:href="#ArialMT-30" transform="translate(222.460938 0)"/>
      </g>
     </g>
    </g>
    <g id="ytick_6">
     <g id="line2d_21">
      <path d="M 47.95125 42.354103 
L 241.87375 42.354103 
" clip-path="url(#p28daf92943)" style="fill: none; stroke: #b0b0b0; stroke-opacity: 0.3; stroke-width: 0.8; stroke-linecap: square"/>
     </g>
     <g id="line2d_22">
      <g>
       <use xlink:href="#mcde7b8833b" x="47.95125" y="42.354103" style="stroke: #000000; stroke-width: 0.8"/>
      </g>
     </g>
     <g id="text_12">
      <!-- 12500 -->
      <g transform="translate(18.7075 45.217228) scale(0.08 -0.08)">
       <use xlink:href="#ArialMT-31"/>
       <use xlink:href="#ArialMT-32" transform="translate(55.615234 0)"/>
       <use xlink:href="#ArialMT-35" transform="translate(111.230469 0)"/>
       <use xlink:href="#ArialMT-30" transform="translate(166.845703 0)"/>
       <use xlink:href="#ArialMT-30" transform="translate(222.460938 0)"/>
      </g>
     </g>
    </g>
    <g id="ytick_7">
     <g id="line2d_23">
      <path d="M 47.95125 22.784924 
L 241.87375 22.784924 
" clip-path="url(#p28daf92943)" style="fill: none; stroke: #b0b0b0; stroke-opacity: 0.3; stroke-width: 0.8; stroke-linecap: square"/>
     </g>
     <g id="line2d_24">
      <g>
       <use xlink:href="#mcde7b8833b" x="47.95125" y="22.784924" style="stroke: #000000; stroke-width: 0.8"/>
      </g>
     </g>
     <g id="text_13">
      <!-- 15000 -->
      <g transform="translate(18.7075 25.648049) scale(0.08 -0.08)">
       <use xlink:href="#ArialMT-31"/>
       <use xlink:href="#ArialMT-35" transform="translate(55.615234 0)"/>
       <use xlink:href="#ArialMT-30" transform="translate(111.230469 0)"/>
       <use xlink:href="#ArialMT-30" transform="translate(166.845703 0)"/>
       <use xlink:href="#ArialMT-30" transform="translate(222.460938 0)"/>
      </g>
     </g>
    </g>
    <g id="text_14">
     <!-- Mean distance from source (km) -->
     <g transform="translate(13.02375 131.0475) rotate(-90) scale(0.08 -0.08)">
      <defs>
       <path id="ArialMT-4d" d="M 475 0 
L 475 4581 
L 1388 4581 
L 2472 1338 
Q 2622 884 2691 659 
Q 2769 909 2934 1394 
L 4031 4581 
L 4847 4581 
L 4847 0 
L 4263 0 
L 4263 3834 
L 2931 0 
L 2384 0 
L 1059 3900 
L 1059 0 
L 475 0 
z
" transform="scale(0.015625)"/>
       <path id="ArialMT-61" d="M 2588 409 
Q 2275 144 1986 34 
Q 1697 -75 1366 -75 
Q 819 -75 525 192 
Q 231 459 231 875 
Q 231 1119 342 1320 
Q 453 1522 633 1644 
Q 813 1766 1038 1828 
Q 1203 1872 1538 1913 
Q 2219 1994 2541 2106 
Q 2544 2222 2544 2253 
Q 2544 2597 2384 2738 
Q 2169 2928 1744 2928 
Q 1347 2928 1158 2789 
Q 969 2650 878 2297 
L 328 2372 
Q 403 2725 575 2942 
Q 747 3159 1072 3276 
Q 1397 3394 1825 3394 
Q 2250 3394 2515 3294 
Q 2781 3194 2906 3042 
Q 3031 2891 3081 2659 
Q 3109 2516 3109 2141 
L 3109 1391 
Q 3109 606 3145 398 
Q 3181 191 3288 0 
L 2700 0 
Q 2613 175 2588 409 
z
M 2541 1666 
Q 2234 1541 1622 1453 
Q 1275 1403 1131 1340 
Q 988 1278 909 1158 
Q 831 1038 831 891 
Q 831 666 1001 516 
Q 1172 366 1500 366 
Q 1825 366 2078 508 
Q 2331 650 2450 897 
Q 2541 1088 2541 1459 
L 2541 1666 
z
" transform="scale(0.015625)"/>
       <path id="ArialMT-6e" d="M 422 0 
L 422 3319 
L 928 3319 
L 928 2847 
Q 1294 3394 1984 3394 
Q 2284 3394 2536 3286 
Q 2788 3178 2913 3003 
Q 3038 2828 3088 2588 
Q 3119 2431 3119 2041 
L 3119 0 
L 2556 0 
L 2556 2019 
Q 2556 2363 2490 2533 
Q 2425 2703 2258 2804 
Q 2091 2906 1866 2906 
Q 1506 2906 1245 2678 
Q 984 2450 984 1813 
L 984 0 
L 422 0 
z
" transform="scale(0.015625)"/>
       <path id="ArialMT-64" d="M 2575 0 
L 2575 419 
Q 2259 -75 1647 -75 
Q 1250 -75 917 144 
Q 584 363 401 755 
Q 219 1147 219 1656 
Q 219 2153 384 2558 
Q 550 2963 881 3178 
Q 1213 3394 1622 3394 
Q 1922 3394 2156 3267 
Q 2391 3141 2538 2938 
L 2538 4581 
L 3097 4581 
L 3097 0 
L 2575 0 
z
M 797 1656 
Q 797 1019 1065 703 
Q 1334 388 1700 388 
Q 2069 388 2326 689 
Q 2584 991 2584 1609 
Q 2584 2291 2321 2609 
Q 2059 2928 1675 2928 
Q 1300 2928 1048 2622 
Q 797 2316 797 1656 
z
" transform="scale(0.015625)"/>
       <path id="ArialMT-74" d="M 1650 503 
L 1731 6 
Q 1494 -44 1306 -44 
Q 1000 -44 831 53 
Q 663 150 594 308 
Q 525 466 525 972 
L 525 2881 
L 113 2881 
L 113 3319 
L 525 3319 
L 525 4141 
L 1084 4478 
L 1084 3319 
L 1650 3319 
L 1650 2881 
L 1084 2881 
L 1084 941 
Q 1084 700 1114 631 
Q 1144 563 1211 522 
Q 1278 481 1403 481 
Q 1497 481 1650 503 
z
" transform="scale(0.015625)"/>
       <path id="ArialMT-63" d="M 2588 1216 
L 3141 1144 
Q 3050 572 2676 248 
Q 2303 -75 1759 -75 
Q 1078 -75 664 370 
Q 250 816 250 1647 
Q 250 2184 428 2587 
Q 606 2991 970 3192 
Q 1334 3394 1763 3394 
Q 2303 3394 2647 3120 
Q 2991 2847 3088 2344 
L 2541 2259 
Q 2463 2594 2264 2762 
Q 2066 2931 1784 2931 
Q 1359 2931 1093 2626 
Q 828 2322 828 1663 
Q 828 994 1084 691 
Q 1341 388 1753 388 
Q 2084 388 2306 591 
Q 2528 794 2588 1216 
z
" transform="scale(0.015625)"/>
       <path id="ArialMT-66" d="M 556 0 
L 556 2881 
L 59 2881 
L 59 3319 
L 556 3319 
L 556 3672 
Q 556 4006 616 4169 
Q 697 4388 901 4523 
Q 1106 4659 1475 4659 
Q 1713 4659 2000 4603 
L 1916 4113 
Q 1741 4144 1584 4144 
Q 1328 4144 1222 4034 
Q 1116 3925 1116 3625 
L 1116 3319 
L 1763 3319 
L 1763 2881 
L 1116 2881 
L 1116 0 
L 556 0 
z
" transform="scale(0.015625)"/>
       <path id="ArialMT-6b" d="M 425 0 
L 425 4581 
L 988 4581 
L 988 1969 
L 2319 3319 
L 3047 3319 
L 1778 2088 
L 3175 0 
L 2481 0 
L 1384 1697 
L 988 1316 
L 988 0 
L 425 0 
z
" transform="scale(0.015625)"/>
      </defs>
      <use xlink:href="#ArialMT-4d"/>
      <use xlink:href="#ArialMT-65" transform="translate(83.300781 0)"/>
      <use xlink:href="#ArialMT-61" transform="translate(138.916016 0)"/>
      <use xlink:href="#ArialMT-6e" transform="translate(194.53125 0)"/>
      <use xlink:href="#ArialMT-20" transform="translate(250.146484 0)"/>
      <use xlink:href="#ArialMT-64" transform="translate(277.929688 0)"/>
      <use xlink:href="#ArialMT-69" transform="translate(333.544922 0)"/>
      <use xlink:href="#ArialMT-73" transform="translate(355.761719 0)"/>
      <use xlink:href="#ArialMT-74" transform="translate(405.761719 0)"/>
      <use xlink:href="#ArialMT-61" transform="translate(433.544922 0)"/>
      <use xlink:href="#ArialMT-6e" transform="translate(489.160156 0)"/>
      <use xlink:href="#ArialMT-63" transform="translate(544.775391 0)"/>
      <use xlink:href="#ArialMT-65" transform="translate(594.775391 0)"/>
      <use xlink:href="#ArialMT-20" transform="translate(650.390625 0)"/>
      <use xlink:href="#ArialMT-66" transform="translate(678.173828 0)"/>
      <use xlink:href="#ArialMT-72" transform="translate(705.957031 0)"/>
      <use xlink:href="#ArialMT-6f" transform="translate(739.257812 0)"/>
      <use xlink:href="#ArialMT-6d" transform="translate(794.873047 0)"/>
      <use xlink:href="#ArialMT-20" transform="translate(878.173828 0)"/>
      <use xlink:href="#ArialMT-73" transform="translate(905.957031 0)"/>
      <use xlink:href="#ArialMT-6f" transform="translate(955.957031 0)"/>
      <use xlink:href="#ArialMT-75" transform="translate(1011.572266 0)"/>
      <use xlink:href="#ArialMT-72" transform="translate(1067.1875 0)"/>
      <use xlink:href="#ArialMT-63" transform="translate(1100.488281 0)"/>
      <use xlink:href="#ArialMT-65" transform="translate(1150.488281 0)"/>
      <use xlink:href="#ArialMT-20" transform="translate(1206.103516 0)"/>
      <use xlink:href="#ArialMT-28" transform="translate(1233.886719 0)"/>
      <use xlink:href="#ArialMT-6b" transform="translate(1267.1875 0)"/>
      <use xlink:href="#ArialMT-6d" transform="translate(1317.1875 0)"/>
      <use xlink:href="#ArialMT-29" transform="translate(1400.488281 0)"/>
     </g>
    </g>
   </g>
   <g id="line2d_25">
    <path d="M 47.95125 51.594107 
L 51.991302 48.866437 
L 56.031354 46.85627 
L 60.071406 46.622401 
L 64.111458 44.820892 
L 68.15151 42.593742 
L 72.191563 40.093917 
L 76.231615 37.250944 
L 80.271667 32.947095 
L 84.311719 29.040238 
L 88.351771 26.68646 
L 92.391823 24.331294 
L 96.431875 22.726674 
L 100.471927 21.334649 
L 104.511979 19.366543 
L 108.552031 18.010336 
L 112.592083 16.977409 
L 116.632135 15.93547 
L 120.672188 14.851244 
L 124.71224 14.195209 
L 128.752292 15.119289 
L 132.792344 15.339271 
L 136.832396 14.617613 
L 140.872448 14.051006 
L 144.9125 13.840261 
L 148.952552 13.404214 
L 152.992604 13.228825 
L 157.032656 12.932812 
L 161.072708 12.767822 
L 165.11276 12.445236 
L 169.152812 12.357425 
L 173.192865 12.330851 
L 177.232917 12.068113 
L 181.272969 11.893417 
L 185.313021 11.667653 
L 189.353073 11.5535 
L 193.393125 11.379497 
L 197.433177 11.327042 
L 201.473229 11.35246 
L 205.513281 11.161127 
L 209.553333 11.073316 
L 213.593385 10.950613 
L 217.633437 10.828834 
L 221.67349 10.767136 
L 225.713542 10.723693 
L 229.753594 10.567022 
L 233.793646 10.584584 
L 237.833698 10.540909 
L 241.87375 10.505785 
" clip-path="url(#p28daf92943)" style="fill: none; stroke: #888780; stroke-width: 1.5; stroke-linecap: square"/>
   </g>
   <g id="line2d_26">
    <path d="M 47.95125 51.594107 
L 51.991302 48.866437 
L 56.031354 46.85627 
L 60.071406 46.622401 
L 64.111458 44.820892 
L 68.15151 42.593742 
L 72.191563 40.093917 
L 76.231615 37.250944 
L 80.271667 32.947095 
L 84.311719 29.040238 
L 88.351771 26.68646 
L 92.391823 24.331294 
L 96.431875 22.726674 
L 100.471927 21.334649 
L 104.511979 19.366543 
L 108.552031 18.010336 
L 112.592083 16.977409 
L 116.632135 15.93547 
L 120.672188 14.851244 
L 124.71224 14.195209 
L 128.752292 15.119289 
L 132.792344 15.339271 
L 136.832396 14.617613 
L 140.872448 14.051006 
L 144.9125 13.840261 
L 148.952552 13.404214 
L 152.992604 13.228825 
L 157.032656 12.932812 
L 161.072708 12.767822 
L 165.11276 12.445236 
L 169.152812 12.357425 
L 173.192865 12.330851 
L 177.232917 12.068113 
L 181.272969 11.893417 
L 185.313021 11.667653 
L 189.353073 11.5535 
L 193.393125 11.379497 
L 197.433177 11.327042 
L 201.473229 11.35246 
L 205.513281 11.161127 
L 209.553333 11.073316 
L 213.593385 10.950613 
L 217.633437 10.828834 
L 221.67349 10.767136 
L 225.713542 10.723693 
L 229.753594 10.567022 
L 233.793646 10.584584 
L 237.833698 10.540909 
L 241.87375 10.505785 
" clip-path="url(#p28daf92943)" style="fill: none; stroke: #378add; stroke-width: 1.5; stroke-linecap: square"/>
   </g>
   <g id="line2d_27">
    <path d="M 47.95125 54.032904 
L 51.991302 56.067298 
L 56.031354 55.69062 
L 60.071406 51.332692 
L 64.111458 47.975567 
L 68.15151 43.716312 
L 72.191563 40.95653 
L 76.231615 38.576871 
L 80.271667 24.815663 
L 84.311719 22.355356 
L 88.351771 20.800415 
L 92.391823 19.202033 
L 96.431875 17.92023 
L 100.471927 16.971877 
L 104.511979 15.988399 
L 108.552031 15.136868 
L 112.592083 14.583662 
L 116.632135 13.837504 
L 120.672188 13.248942 
L 124.71224 12.932824 
L 128.752292 13.778337 
L 132.792344 14.174172 
L 136.832396 14.119636 
L 140.872448 13.692371 
L 144.9125 13.734657 
L 148.952552 13.316404 
L 152.992604 12.932581 
L 157.032656 12.862102 
L 161.072708 12.435992 
L 165.11276 12.409418 
L 169.152812 12.000408 
L 173.192865 12.051013 
L 177.232917 11.867767 
L 181.272969 11.674584 
L 185.313021 11.387353 
L 189.353073 11.394978 
L 193.393125 11.290299 
L 197.433177 11.15974 
L 201.473229 11.020399 
L 205.513281 11.020399 
L 209.553333 10.915489 
L 213.593385 10.845703 
L 217.633437 10.714681 
L 221.67349 10.592671 
L 225.713542 10.566096 
L 229.753594 10.574878 
L 233.793646 10.592208 
L 237.833698 10.50486 
L 241.87375 10.469736 
" clip-path="url(#p28daf92943)" style="fill: none; stroke: #ba7517; stroke-width: 1.5; stroke-linecap: square"/>
   </g>
   <g id="line2d_28">
    <path d="M 47.95125 54.066641 
L 51.991302 53.695275 
L 56.031354 51.799718 
L 60.071406 49.548994 
L 64.111458 46.594867 
L 68.15151 42.891812 
L 72.191563 39.072066 
L 76.231615 35.554114 
L 80.271667 23.025478 
L 84.311719 20.488685 
L 88.351771 18.226642 
L 92.391823 16.584586 
L 96.431875 15.416937 
L 100.471927 14.302206 
L 104.511979 13.502899 
L 108.552031 12.625256 
L 112.592083 12.098162 
L 116.632135 11.536637 
L 120.672188 11.264193 
L 124.71224 10.97465 
L 128.752292 11.068004 
L 132.792344 11.187008 
L 136.832396 10.907633 
L 140.872448 10.837615 
L 144.9125 10.758586 
L 148.952552 10.670775 
L 152.992604 10.575109 
L 157.032656 10.539985 
L 161.072708 10.470199 
L 165.11276 10.469736 
L 169.152812 10.304052 
L 173.192865 10.190824 
L 177.232917 10.121038 
L 181.272969 10.138368 
L 185.313021 10.164018 
L 189.353073 10.146687 
L 193.393125 10.103244 
L 197.433177 10.051021 
L 201.473229 10.016359 
L 205.513281 10.024677 
L 209.553333 10.042008 
L 213.593385 10.024446 
L 217.633437 10.007347 
L 221.67349 9.94611 
L 225.713542 9.849981 
L 229.753594 9.849981 
L 233.793646 9.797757 
L 237.833698 9.83265 
L 241.87375 9.83265 
" clip-path="url(#p28daf92943)" style="fill: none; stroke: #1d9e75; stroke-width: 1.5; stroke-linecap: square"/>
   </g>
   <g id="patch_3">
    <path d="M 47.95125 140.2 
L 47.95125 7.2 
" style="fill: none; stroke: #000000; stroke-width: 0.5; stroke-linejoin: miter; stroke-linecap: square"/>
   </g>
   <g id="patch_4">
    <path d="M 47.95125 140.2 
L 241.87375 140.2 
" style="fill: none; stroke: #000000; stroke-width: 0.5; stroke-linejoin: miter; stroke-linecap: square"/>
   </g>
   <g id="text_15">
    <g id="patch_5">
     <path d="M 165.94655 23.658125 
L 237.9953 23.658125 
Q 239.7953 23.658125 239.7953 21.858125 
L 239.7953 9.930312 
Q 239.7953 8.130312 237.9953 8.130312 
L 165.94655 8.130312 
Q 164.14655 8.130312 164.14655 9.930312 
L 164.14655 21.858125 
Q 164.14655 23.658125 165.94655 23.658125 
z
" style="fill: #ffffff; opacity: 0.9; stroke: #808080; stroke-linejoin: miter"/>
    </g>
    <!-- α=2.0, β=2.0, κ=5.0 -->
    <g transform="translate(185.874987 14.227812) scale(0.06 -0.06)">
     <defs>
      <path id="ArialMT-3b1" d="M 2884 3319 
L 3459 3319 
Q 3241 2631 3056 1659 
Q 3275 453 3459 0 
L 2900 0 
Q 2766 313 2697 606 
Q 2438 -75 1613 -75 
Q 988 -75 606 394 
Q 225 863 225 1666 
Q 225 2491 608 2942 
Q 991 3394 1622 3394 
Q 2013 3394 2259 3236 
Q 2506 3078 2719 2756 
Q 2741 2866 2884 3319 
z
M 1716 2928 
Q 1313 2928 1078 2603 
Q 844 2278 844 1666 
Q 844 1069 1066 728 
Q 1288 388 1684 388 
Q 2072 388 2331 723 
Q 2591 1059 2591 1691 
Q 2591 2303 2348 2615 
Q 2106 2928 1716 2928 
z
" transform="scale(0.015625)"/>
      <path id="ArialMT-3d" d="M 3381 2694 
L 356 2694 
L 356 3219 
L 3381 3219 
L 3381 2694 
z
M 3381 1303 
L 356 1303 
L 356 1828 
L 3381 1828 
L 3381 1303 
z
" transform="scale(0.015625)"/>
      <path id="ArialMT-2e" d="M 581 0 
L 581 641 
L 1222 641 
L 1222 0 
L 581 0 
z
" transform="scale(0.015625)"/>
      <path id="ArialMT-2c" d="M 569 0 
L 569 641 
L 1209 641 
L 1209 0 
Q 1209 -353 1084 -570 
Q 959 -788 688 -906 
L 531 -666 
Q 709 -588 793 -436 
Q 878 -284 888 0 
L 569 0 
z
" transform="scale(0.015625)"/>
      <path id="ArialMT-3b2" d="M 997 422 
L 997 -1272 
L 438 -1272 
L 438 3144 
Q 438 3672 580 3970 
Q 722 4269 1069 4464 
Q 1416 4659 1841 4659 
Q 2469 4659 2792 4298 
Q 3116 3938 3116 3509 
Q 3116 3091 2855 2834 
Q 2594 2578 2256 2519 
Q 2800 2466 3095 2128 
Q 3391 1791 3391 1297 
Q 3391 766 3042 345 
Q 2694 -75 2034 -75 
Q 1359 -75 997 422 
z
M 1494 2700 
Q 2069 2700 2331 2900 
Q 2594 3100 2594 3478 
Q 2594 3784 2370 3990 
Q 2147 4197 1813 4197 
Q 1522 4197 1308 4044 
Q 1094 3891 1045 3703 
Q 997 3516 997 3047 
L 997 1788 
Q 997 1250 1072 997 
Q 1147 744 1394 541 
Q 1641 338 1963 338 
Q 2353 338 2579 605 
Q 2806 872 2806 1266 
Q 2806 1591 2639 1848 
Q 2472 2106 2226 2198 
Q 1981 2291 1575 2291 
L 1494 2291 
L 1494 2700 
z
" transform="scale(0.015625)"/>
      <path id="ArialMT-3ba" d="M 419 3319 
L 978 3319 
L 978 2016 
L 2325 3319 
L 3069 3319 
L 1584 1941 
L 3197 0 
L 2478 0 
L 1184 1563 
L 978 1372 
L 978 0 
L 419 0 
L 419 3319 
z
" transform="scale(0.015625)"/>
     </defs>
     <use xlink:href="#ArialMT-3b1"/>
     <use xlink:href="#ArialMT-3d" transform="translate(57.8125 0)"/>
     <use xlink:href="#ArialMT-32" transform="translate(116.210938 0)"/>
     <use xlink:href="#ArialMT-2e" transform="translate(171.826172 0)"/>
     <use xlink:href="#ArialMT-30" transform="translate(199.609375 0)"/>
     <use xlink:href="#ArialMT-2c" transform="translate(255.224609 0)"/>
     <use xlink:href="#ArialMT-20" transform="translate(283.007812 0)"/>
     <use xlink:href="#ArialMT-3b2" transform="translate(310.791016 0)"/>
     <use xlink:href="#ArialMT-3d" transform="translate(368.310547 0)"/>
     <use xlink:href="#ArialMT-32" transform="translate(426.708984 0)"/>
     <use xlink:href="#ArialMT-2e" transform="translate(482.324219 0)"/>
     <use xlink:href="#ArialMT-30" transform="translate(510.107422 0)"/>
     <use xlink:href="#ArialMT-2c" transform="translate(565.722656 0)"/>
     <use xlink:href="#ArialMT-20" transform="translate(593.505859 0)"/>
     <use xlink:href="#ArialMT-3ba" transform="translate(621.289062 0)"/>
     <use xlink:href="#ArialMT-3d" transform="translate(671.289062 0)"/>
     <use xlink:href="#ArialMT-35" transform="translate(729.6875 0)"/>
     <use xlink:href="#ArialMT-2e" transform="translate(785.302734 0)"/>
     <use xlink:href="#ArialMT-30" transform="translate(813.085938 0)"/>
    </g>
    <!-- N_agents=500, N_runs=10 -->
    <g transform="translate(165.94655 20.595312) scale(0.06 -0.06)">
     <defs>
      <path id="ArialMT-4e" d="M 488 0 
L 488 4581 
L 1109 4581 
L 3516 984 
L 3516 4581 
L 4097 4581 
L 4097 0 
L 3475 0 
L 1069 3600 
L 1069 0 
L 488 0 
z
" transform="scale(0.015625)"/>
      <path id="ArialMT-5f" d="M -97 -1272 
L -97 -866 
L 3631 -866 
L 3631 -1272 
L -97 -1272 
z
" transform="scale(0.015625)"/>
      <path id="ArialMT-67" d="M 319 -275 
L 866 -356 
Q 900 -609 1056 -725 
Q 1266 -881 1628 -881 
Q 2019 -881 2231 -725 
Q 2444 -569 2519 -288 
Q 2563 -116 2559 434 
Q 2191 0 1641 0 
Q 956 0 581 494 
Q 206 988 206 1678 
Q 206 2153 378 2554 
Q 550 2956 876 3175 
Q 1203 3394 1644 3394 
Q 2231 3394 2613 2919 
L 2613 3319 
L 3131 3319 
L 3131 450 
Q 3131 -325 2973 -648 
Q 2816 -972 2473 -1159 
Q 2131 -1347 1631 -1347 
Q 1038 -1347 672 -1080 
Q 306 -813 319 -275 
z
M 784 1719 
Q 784 1066 1043 766 
Q 1303 466 1694 466 
Q 2081 466 2343 764 
Q 2606 1063 2606 1700 
Q 2606 2309 2336 2618 
Q 2066 2928 1684 2928 
Q 1309 2928 1046 2623 
Q 784 2319 784 1719 
z
" transform="scale(0.015625)"/>
     </defs>
     <use xlink:href="#ArialMT-4e"/>
     <use xlink:href="#ArialMT-5f" transform="translate(72.216797 0)"/>
     <use xlink:href="#ArialMT-61" transform="translate(127.832031 0)"/>
     <use xlink:href="#ArialMT-67" transform="translate(183.447266 0)"/>
     <use xlink:href="#ArialMT-65" transform="translate(239.0625 0)"/>
     <use xlink:href="#ArialMT-6e" transform="translate(294.677734 0)"/>
     <use xlink:href="#ArialMT-74" transform="translate(350.292969 0)"/>
     <use xlink:href="#ArialMT-73" transform="translate(378.076172 0)"/>
     <use xlink:href="#ArialMT-3d" transform="translate(428.076172 0)"/>
     <use xlink:href="#ArialMT-35" transform="translate(486.474609 0)"/>
     <use xlink:href="#ArialMT-30" transform="translate(542.089844 0)"/>
     <use xlink:href="#ArialMT-30" transform="translate(597.705078 0)"/>
     <use xlink:href="#ArialMT-2c" transform="translate(653.320312 0)"/>
     <use xlink:href="#ArialMT-20" transform="translate(681.103516 0)"/>
     <use xlink:href="#ArialMT-4e" transform="translate(708.886719 0)"/>
     <use xlink:href="#ArialMT-5f" transform="translate(781.103516 0)"/>
     <use xlink:href="#ArialMT-72" transform="translate(836.71875 0)"/>
     <use xlink:href="#ArialMT-75" transform="translate(870.019531 0)"/>
     <use xlink:href="#ArialMT-6e" transform="translate(925.634766 0)"/>
     <use xlink:href="#ArialMT-73" transform="translate(981.25 0)"/>
     <use xlink:href="#ArialMT-3d" transform="translate(1031.25 0)"/>
     <use xlink:href="#ArialMT-31" transform="translate(1089.648438 0)"/>
     <use xlink:href="#ArialMT-30" transform="translate(1145.263672 0)"/>
    </g>
   </g>
   <g id="legend_1">
    <g id="patch_6">
     <path d="M 52.85125 136.7 
L 97.818594 136.7 
Q 99.218594 136.7 99.218594 135.3 
L 99.218594 96.208281 
Q 99.218594 94.808281 97.818594 94.808281 
L 52.85125 94.808281 
Q 51.45125 94.808281 51.45125 96.208281 
L 51.45125 135.3 
Q 51.45125 136.7 52.85125 136.7 
z
" style="fill: #ffffff; opacity: 0.8; stroke: #cccccc; stroke-linejoin: miter"/>
    </g>
    <g id="line2d_29">
     <path d="M 54.25125 100.16875 
L 61.25125 100.16875 
L 68.25125 100.16875 
" style="fill: none; stroke: #888780; stroke-width: 1.5; stroke-linecap: square"/>
    </g>
    <g id="text_16">
     <!-- original -->
     <g transform="translate(73.85125 102.61875) scale(0.07 -0.07)">
      <defs>
       <path id="ArialMT-6c" d="M 409 0 
L 409 4581 
L 972 4581 
L 972 0 
L 409 0 
z
" transform="scale(0.015625)"/>
      </defs>
      <use xlink:href="#ArialMT-6f"/>
      <use xlink:href="#ArialMT-72" transform="translate(55.615234 0)"/>
      <use xlink:href="#ArialMT-69" transform="translate(88.916016 0)"/>
      <use xlink:href="#ArialMT-67" transform="translate(111.132812 0)"/>
      <use xlink:href="#ArialMT-69" transform="translate(166.748047 0)"/>
      <use xlink:href="#ArialMT-6e" transform="translate(188.964844 0)"/>
      <use xlink:href="#ArialMT-61" transform="translate(244.580078 0)"/>
      <use xlink:href="#ArialMT-6c" transform="translate(300.195312 0)"/>
     </g>
    </g>
    <g id="line2d_30">
     <path d="M 54.25125 110.173281 
L 61.25125 110.173281 
L 68.25125 110.173281 
" style="fill: none; stroke: #378add; stroke-width: 1.5; stroke-linecap: square"/>
    </g>
    <g id="text_17">
     <!-- s1 only -->
     <g transform="translate(73.85125 112.623281) scale(0.07 -0.07)">
      <defs>
       <path id="ArialMT-79" d="M 397 -1278 
L 334 -750 
Q 519 -800 656 -800 
Q 844 -800 956 -737 
Q 1069 -675 1141 -563 
Q 1194 -478 1313 -144 
Q 1328 -97 1363 -6 
L 103 3319 
L 709 3319 
L 1400 1397 
Q 1534 1031 1641 628 
Q 1738 1016 1872 1384 
L 2581 3319 
L 3144 3319 
L 1881 -56 
Q 1678 -603 1566 -809 
Q 1416 -1088 1222 -1217 
Q 1028 -1347 759 -1347 
Q 597 -1347 397 -1278 
z
" transform="scale(0.015625)"/>
      </defs>
      <use xlink:href="#ArialMT-73"/>
      <use xlink:href="#ArialMT-31" transform="translate(50 0)"/>
      <use xlink:href="#ArialMT-20" transform="translate(105.615234 0)"/>
      <use xlink:href="#ArialMT-6f" transform="translate(133.398438 0)"/>
      <use xlink:href="#ArialMT-6e" transform="translate(189.013672 0)"/>
      <use xlink:href="#ArialMT-6c" transform="translate(244.628906 0)"/>
      <use xlink:href="#ArialMT-79" transform="translate(266.845703 0)"/>
     </g>
    </g>
    <g id="line2d_31">
     <path d="M 54.25125 120.157031 
L 61.25125 120.157031 
L 68.25125 120.157031 
" style="fill: none; stroke: #ba7517; stroke-width: 1.5; stroke-linecap: square"/>
    </g>
    <g id="text_18">
     <!-- switch -->
     <g transform="translate(73.85125 122.607031) scale(0.07 -0.07)">
      <defs>
       <path id="ArialMT-77" d="M 1034 0 
L 19 3319 
L 600 3319 
L 1128 1403 
L 1325 691 
Q 1338 744 1497 1375 
L 2025 3319 
L 2603 3319 
L 3100 1394 
L 3266 759 
L 3456 1400 
L 4025 3319 
L 4572 3319 
L 3534 0 
L 2950 0 
L 2422 1988 
L 2294 2553 
L 1622 0 
L 1034 0 
z
" transform="scale(0.015625)"/>
      </defs>
      <use xlink:href="#ArialMT-73"/>
      <use xlink:href="#ArialMT-77" transform="translate(50 0)"/>
      <use xlink:href="#ArialMT-69" transform="translate(122.216797 0)"/>
      <use xlink:href="#ArialMT-74" transform="translate(144.433594 0)"/>
      <use xlink:href="#ArialMT-63" transform="translate(172.216797 0)"/>
      <use xlink:href="#ArialMT-68" transform="translate(222.216797 0)"/>
     </g>
    </g>
    <g id="line2d_32">
     <path d="M 54.25125 130.05875 
L 61.25125 130.05875 
L 68.25125 130.05875 
" style="fill: none; stroke: #1d9e75; stroke-width: 1.5; stroke-linecap: square"/>
    </g>
    <g id="text_19">
     <!-- blend -->
     <g transform="translate(73.85125 132.50875) scale(0.07 -0.07)">
      <defs>
       <path id="ArialMT-62" d="M 941 0 
L 419 0 
L 419 4581 
L 981 4581 
L 981 2947 
Q 1338 3394 1891 3394 
Q 2197 3394 2470 3270 
Q 2744 3147 2920 2923 
Q 3097 2700 3197 2384 
Q 3297 2069 3297 1709 
Q 3297 856 2875 390 
Q 2453 -75 1863 -75 
Q 1275 -75 941 416 
L 941 0 
z
M 934 1684 
Q 934 1088 1097 822 
Q 1363 388 1816 388 
Q 2184 388 2453 708 
Q 2722 1028 2722 1663 
Q 2722 2313 2464 2622 
Q 2206 2931 1841 2931 
Q 1472 2931 1203 2611 
Q 934 2291 934 1684 
z
" transform="scale(0.015625)"/>
      </defs>
      <use xlink:href="#ArialMT-62"/>
      <use xlink:href="#ArialMT-6c" transform="translate(55.615234 0)"/>
      <use xlink:href="#ArialMT-65" transform="translate(77.832031 0)"/>
      <use xlink:href="#ArialMT-6e" transform="translate(133.447266 0)"/>
      <use xlink:href="#ArialMT-64" transform="translate(189.0625 0)"/>
     </g>
    </g>
   </g>
  </g>
 </g>
 <defs>
  <clipPath id="p28daf92943">
   <rect x="47.95125" y="7.2" width="193.9225" height="133"/>
  </clipPath>
 </defs>
</svg>
