<?xml version="1.0" encoding="utf-8" standalone="no"?>
<!DOCTYPE svg PUBLIC "-//W3C//DTD SVG 1.1//EN"
  "http://www.w3.org/Graphics/SVG/1.1/DTD/svg11.dtd">
<svg xmlns:xlink="http://www.w3.org/1999/xlink" width="249.1075pt" height="173.15pt" viewBox="0 0 249.1075 173.15" xmlns="http://www.w3.org/2000/svg" version="1.1">
 <metadata>
  <rdf:RDF xmlns:dc="http://purl.org/dc/elements/1.1/" xmlns:cc="http://creativecommons.org/ns#" xmlns:rdf="http://www.w3.org/1999/02/22-rdf-syntax-ns#">
   <cc:Work>
    <dc:type rdf:resource="http://purl.org/dc/dcmitype/StillImage"/>
    <dc:date>2026-03-22T02:47:12.353793</dc:date>
    <dc:format>image/svg+xml</dc:format>
    <dc:creator>
     <cc:Agent>
      <dc:title>Matplotlib v3.10.7, https://matplotlib.org/</dc:title>
     </cc:Agent>
    </dc:creator>
   </cc:Work>
  </rdf:RDF>
 </metadata>
 <defs>
  <style type="text/css">*{stroke-linejoin: round; stroke-linecap: butt}</style>
 </defs>
 <g id="figure_1">
  <g id="patch_1">
   <path d="M 0 173.15 
L 249.1075 173.15 
L 249.1075 0 
L 0 0 
z
" style="fill: #ffffff"/>
  </g>
  <g id="axes_1">
   <g id="patch_2">
    <path d="M 34.605 140.2 
L 241.9075 140.2 
L 241.9075 7.2 
L 34.605 7.2 
z
" style="fill: #ffffff"/>
   </g>
   <g id="FillBetweenPolyCollection_1">
    <path d="M 72.041126 134.154545 
L 51.668549 134.154545 
L 50.885255 132.933242 
L 50.13137 131.711938 
L 49.416753 130.490634 
L 48.749916 129.26933 
L 48.137692 128.048026 
L 47.584984 126.826722 
L 47.09462 125.605418 
L 46.66732 124.384114 
L 46.301774 123.16281 
L 45.994823 121.941506 
L 45.741726 120.720202 
L 45.536506 119.498898 
L 45.372326 118.277594 
L 45.241902 117.05629 
L 45.137892 115.834986 
L 45.053262 114.613682 
L 44.981605 113.392378 
L 44.917383 112.171074 
L 44.856104 110.94977 
L 44.794407 109.728466 
L 44.73009 108.507163 
L 44.66205 107.285859 
L 44.590184 106.064555 
L 44.515237 104.843251 
L 44.438636 103.621947 
L 44.362304 102.400643 
L 44.288484 101.179339 
L 44.219579 99.958035 
L 44.158003 98.736731 
L 44.106068 97.515427 
L 44.065889 96.294123 
L 44.039308 95.072819 
L 44.027841 93.851515 
L 44.032634 92.630211 
L 44.054428 91.408907 
L 44.093536 90.187603 
L 44.149816 88.966299 
L 44.222663 87.744995 
L 44.311014 86.523691 
L 44.413362 85.302388 
L 44.527803 84.081084 
L 44.652105 82.85978 
L 44.783806 81.638476 
L 44.920343 80.417172 
L 45.059192 79.195868 
L 45.198032 77.974564 
L 45.334899 76.75326 
L 45.46833 75.531956 
L 45.597477 74.310652 
L 45.722175 73.089348 
L 45.842961 71.868044 
L 45.96103 70.64674 
L 46.078127 69.425436 
L 46.196385 68.204132 
L 46.318119 66.982828 
L 46.445578 65.761524 
L 46.580693 64.54022 
L 46.724832 63.318916 
L 46.878576 62.097612 
L 47.04155 60.876309 
L 47.212315 59.655005 
L 47.388341 58.433701 
L 47.566049 57.212397 
L 47.740946 55.991093 
L 47.907834 54.769789 
L 48.06107 53.548485 
L 48.19489 52.327181 
L 48.303746 51.105877 
L 48.382656 49.884573 
L 48.427537 48.663269 
L 48.435498 47.441965 
L 48.405078 46.220661 
L 48.336415 44.999357 
L 48.231336 43.778053 
L 48.093357 42.556749 
L 47.927603 41.335445 
L 47.740649 40.114141 
L 47.54029 38.892837 
L 47.335262 37.671534 
L 47.134928 36.45023 
L 46.948938 35.228926 
L 46.7869 34.007622 
L 46.658063 32.786318 
L 46.571025 31.565014 
L 46.53349 30.34371 
L 46.552062 29.122406 
L 46.632092 27.901102 
L 46.777562 26.679798 
L 46.991021 25.458494 
L 47.273551 24.23719 
L 47.624764 23.015886 
L 48.042829 21.794582 
L 48.524527 20.573278 
L 49.065316 19.351974 
L 49.65944 18.13067 
L 50.30005 16.909366 
L 50.979354 15.688062 
L 51.688805 14.466758 
L 52.419308 13.245455 
L 71.290366 13.245455 
L 71.290366 13.245455 
L 72.020869 14.466758 
L 72.730321 15.688062 
L 73.409625 16.909366 
L 74.050234 18.13067 
L 74.644359 19.351974 
L 75.185148 20.573278 
L 75.666845 21.794582 
L 76.084911 23.015886 
L 76.436124 24.23719 
L 76.718653 25.458494 
L 76.932113 26.679798 
L 77.077583 27.901102 
L 77.157612 29.122406 
L 77.176185 30.34371 
L 77.13865 31.565014 
L 77.051612 32.786318 
L 76.922774 34.007622 
L 76.760737 35.228926 
L 76.574746 36.45023 
L 76.374412 37.671534 
L 76.169385 38.892837 
L 75.969026 40.114141 
L 75.782071 41.335445 
L 75.616318 42.556749 
L 75.478339 43.778053 
L 75.37326 44.999357 
L 75.304597 46.220661 
L 75.274176 47.441965 
L 75.282137 48.663269 
L 75.327018 49.884573 
L 75.405929 51.105877 
L 75.514784 52.327181 
L 75.648604 53.548485 
L 75.801841 54.769789 
L 75.968728 55.991093 
L 76.143626 57.212397 
L 76.321334 58.433701 
L 76.497359 59.655005 
L 76.668125 60.876309 
L 76.831098 62.097612 
L 76.984842 63.318916 
L 77.128981 64.54022 
L 77.264097 65.761524 
L 77.391555 66.982828 
L 77.513289 68.204132 
L 77.631548 69.425436 
L 77.748644 70.64674 
L 77.866713 71.868044 
L 77.987499 73.089348 
L 78.112198 74.310652 
L 78.241344 75.531956 
L 78.374775 76.75326 
L 78.511642 77.974564 
L 78.650483 79.195868 
L 78.789332 80.417172 
L 78.925868 81.638476 
L 79.05757 82.85978 
L 79.181872 84.081084 
L 79.296312 85.302388 
L 79.39866 86.523691 
L 79.487011 87.744995 
L 79.559859 88.966299 
L 79.616138 90.187603 
L 79.655246 91.408907 
L 79.677041 92.630211 
L 79.681834 93.851515 
L 79.670366 95.072819 
L 79.643785 96.294123 
L 79.603606 97.515427 
L 79.551672 98.736731 
L 79.490096 99.958035 
L 79.42119 101.179339 
L 79.347371 102.400643 
L 79.271038 103.621947 
L 79.194437 104.843251 
L 79.119491 106.064555 
L 79.047624 107.285859 
L 78.979585 108.507163 
L 78.915267 109.728466 
L 78.853571 110.94977 
L 78.792291 112.171074 
L 78.72807 113.392378 
L 78.656413 114.613682 
L 78.571783 115.834986 
L 78.467772 117.05629 
L 78.337348 118.277594 
L 78.173169 119.498898 
L 77.967948 120.720202 
L 77.714852 121.941506 
L 77.4079 123.16281 
L 77.042355 124.384114 
L 76.615055 125.605418 
L 76.124691 126.826722 
L 75.571982 128.048026 
L 74.959758 129.26933 
L 74.292922 130.490634 
L 73.578305 131.711938 
L 72.82442 132.933242 
L 72.041126 134.154545 
z
" clip-path="url(#pffb40c2425)" style="fill: #888780; fill-opacity: 0.7"/>
   </g>
   <g id="FillBetweenPolyCollection_2">
    <path d="M 122.975401 134.154545 
L 102.602824 134.154545 
L 101.81953 132.933242 
L 101.065645 131.711938 
L 100.351028 130.490634 
L 99.684191 129.26933 
L 99.071967 128.048026 
L 98.519259 126.826722 
L 98.028895 125.605418 
L 97.601595 124.384114 
L 97.236049 123.16281 
L 96.929098 121.941506 
L 96.676001 120.720202 
L 96.470781 119.498898 
L 96.306602 118.277594 
L 96.176178 117.05629 
L 96.072167 115.834986 
L 95.987537 114.613682 
L 95.91588 113.392378 
L 95.851659 112.171074 
L 95.790379 110.94977 
L 95.728682 109.728466 
L 95.664365 108.507163 
L 95.596325 107.285859 
L 95.524459 106.064555 
L 95.449513 104.843251 
L 95.372911 103.621947 
L 95.296579 102.400643 
L 95.22276 101.179339 
L 95.153854 99.958035 
L 95.092278 98.736731 
L 95.040344 97.515427 
L 95.000164 96.294123 
L 94.973583 95.072819 
L 94.962116 93.851515 
L 94.966909 92.630211 
L 94.988704 91.408907 
L 95.027811 90.187603 
L 95.084091 88.966299 
L 95.156938 87.744995 
L 95.245289 86.523691 
L 95.347637 85.302388 
L 95.462078 84.081084 
L 95.58638 82.85978 
L 95.718081 81.638476 
L 95.854618 80.417172 
L 95.993467 79.195868 
L 96.132307 77.974564 
L 96.269174 76.75326 
L 96.402605 75.531956 
L 96.531752 74.310652 
L 96.65645 73.089348 
L 96.777237 71.868044 
L 96.895305 70.64674 
L 97.012402 69.425436 
L 97.130661 68.204132 
L 97.252394 66.982828 
L 97.379853 65.761524 
L 97.514969 64.54022 
L 97.659108 63.318916 
L 97.812851 62.097612 
L 97.975825 60.876309 
L 98.146591 59.655005 
L 98.322616 58.433701 
L 98.500324 57.212397 
L 98.675222 55.991093 
L 98.842109 54.769789 
L 98.995345 53.548485 
L 99.129165 52.327181 
L 99.238021 51.105877 
L 99.316931 49.884573 
L 99.361813 48.663269 
L 99.369773 47.441965 
L 99.339353 46.220661 
L 99.27069 44.999357 
L 99.165611 43.778053 
L 99.027632 42.556749 
L 98.861878 41.335445 
L 98.674924 40.114141 
L 98.474565 38.892837 
L 98.269538 37.671534 
L 98.069203 36.45023 
L 97.883213 35.228926 
L 97.721175 34.007622 
L 97.592338 32.786318 
L 97.5053 31.565014 
L 97.467765 30.34371 
L 97.486337 29.122406 
L 97.566367 27.901102 
L 97.711837 26.679798 
L 97.925296 25.458494 
L 98.207826 24.23719 
L 98.559039 23.015886 
L 98.977105 21.794582 
L 99.458802 20.573278 
L 99.999591 19.351974 
L 100.593715 18.13067 
L 101.234325 16.909366 
L 101.913629 15.688062 
L 102.62308 14.466758 
L 103.353583 13.245455 
L 122.224641 13.245455 
L 122.224641 13.245455 
L 122.955144 14.466758 
L 123.664596 15.688062 
L 124.3439 16.909366 
L 124.984509 18.13067 
L 125.578634 19.351974 
L 126.119423 20.573278 
L 126.60112 21.794582 
L 127.019186 23.015886 
L 127.370399 24.23719 
L 127.652929 25.458494 
L 127.866388 26.679798 
L 128.011858 27.901102 
L 128.091887 29.122406 
L 128.11046 30.34371 
L 128.072925 31.565014 
L 127.985887 32.786318 
L 127.857049 34.007622 
L 127.695012 35.228926 
L 127.509022 36.45023 
L 127.308687 37.671534 
L 127.10366 38.892837 
L 126.903301 40.114141 
L 126.716347 41.335445 
L 126.550593 42.556749 
L 126.412614 43.778053 
L 126.307535 44.999357 
L 126.238872 46.220661 
L 126.208451 47.441965 
L 126.216412 48.663269 
L 126.261293 49.884573 
L 126.340204 51.105877 
L 126.44906 52.327181 
L 126.582879 53.548485 
L 126.736116 54.769789 
L 126.903003 55.991093 
L 127.077901 57.212397 
L 127.255609 58.433701 
L 127.431634 59.655005 
L 127.6024 60.876309 
L 127.765374 62.097612 
L 127.919117 63.318916 
L 128.063256 64.54022 
L 128.198372 65.761524 
L 128.325831 66.982828 
L 128.447564 68.204132 
L 128.565823 69.425436 
L 128.682919 70.64674 
L 128.800988 71.868044 
L 128.921775 73.089348 
L 129.046473 74.310652 
L 129.175619 75.531956 
L 129.309051 76.75326 
L 129.445918 77.974564 
L 129.584758 79.195868 
L 129.723607 80.417172 
L 129.860144 81.638476 
L 129.991845 82.85978 
L 130.116147 84.081084 
L 130.230588 85.302388 
L 130.332935 86.523691 
L 130.421286 87.744995 
L 130.494134 88.966299 
L 130.550414 90.187603 
L 130.589521 91.408907 
L 130.611316 92.630211 
L 130.616109 93.851515 
L 130.604642 95.072819 
L 130.57806 96.294123 
L 130.537881 97.515427 
L 130.485947 98.736731 
L 130.424371 99.958035 
L 130.355465 101.179339 
L 130.281646 102.400643 
L 130.205313 103.621947 
L 130.128712 104.843251 
L 130.053766 106.064555 
L 129.9819 107.285859 
L 129.91386 108.507163 
L 129.849543 109.728466 
L 129.787846 110.94977 
L 129.726566 112.171074 
L 129.662345 113.392378 
L 129.590688 114.613682 
L 129.506058 115.834986 
L 129.402047 117.05629 
L 129.271623 118.277594 
L 129.107444 119.498898 
L 128.902223 120.720202 
L 128.649127 121.941506 
L 128.342175 123.16281 
L 127.97663 124.384114 
L 127.54933 125.605418 
L 127.058966 126.826722 
L 126.506257 128.048026 
L 125.894034 129.26933 
L 125.227197 130.490634 
L 124.51258 131.711938 
L 123.758695 132.933242 
L 122.975401 134.154545 
z
" clip-path="url(#pffb40c2425)" style="fill: #378add; fill-opacity: 0.7"/>
   </g>
   <g id="FillBetweenPolyCollection_3">
    <path d="M 173.749568 134.154545 
L 153.697207 134.154545 
L 152.920235 132.933242 
L 152.172865 131.711938 
L 151.465032 130.490634 
L 150.80528 129.26933 
L 150.200416 128.048026 
L 149.655256 126.826722 
L 149.172471 125.605418 
L 148.752555 124.384114 
L 148.393908 123.16281 
L 148.09303 121.941506 
L 147.844809 120.720202 
L 147.642878 119.498898 
L 147.48003 118.277594 
L 147.34864 117.05629 
L 147.241098 115.834986 
L 147.150189 114.613682 
L 147.069432 113.392378 
L 146.993344 112.171074 
L 146.917615 110.94977 
L 146.839203 109.728466 
L 146.756339 108.507163 
L 146.668461 107.285859 
L 146.576082 106.064555 
L 146.48061 104.843251 
L 146.384142 103.621947 
L 146.289247 102.400643 
L 146.198751 101.179339 
L 146.115545 99.958035 
L 146.042418 98.736731 
L 145.981927 97.515427 
L 145.936288 96.294123 
L 145.907319 95.072819 
L 145.896391 93.851515 
L 145.90441 92.630211 
L 145.931811 91.408907 
L 145.978563 90.187603 
L 146.044184 88.966299 
L 146.127756 87.744995 
L 146.227956 86.523691 
L 146.343096 85.302388 
L 146.471173 84.081084 
L 146.609942 82.85978 
L 146.757003 81.638476 
L 146.909909 80.417172 
L 147.066284 79.195868 
L 147.223952 77.974564 
L 147.381057 76.75326 
L 147.536178 75.531956 
L 147.688412 74.310652 
L 147.837429 73.089348 
L 147.983477 71.868044 
L 148.127348 70.64674 
L 148.270283 69.425436 
L 148.413847 68.204132 
L 148.559752 66.982828 
L 148.709668 65.761524 
L 148.865012 64.54022 
L 149.026754 63.318916 
L 149.195233 62.097612 
L 149.370021 60.876309 
L 149.549832 59.655005 
L 149.732492 58.433701 
L 149.914975 57.212397 
L 150.093505 55.991093 
L 150.263716 54.769789 
L 150.420871 53.548485 
L 150.560119 52.327181 
L 150.676771 51.105877 
L 150.7666 49.884573 
L 150.826116 48.663269 
L 150.852821 47.441965 
L 150.845423 46.220661 
L 150.803989 44.999357 
L 150.73004 43.778053 
L 150.626567 42.556749 
L 150.497985 41.335445 
L 150.350013 40.114141 
L 150.189494 38.892837 
L 150.024173 37.671534 
L 149.862429 36.45023 
L 149.712992 35.228926 
L 149.584656 34.007622 
L 149.485988 32.786318 
L 149.425064 31.565014 
L 149.409229 30.34371 
L 149.444887 29.122406 
L 149.537328 27.901102 
L 149.690588 26.679798 
L 149.907352 25.458494 
L 150.188882 24.23719 
L 150.534987 23.015886 
L 150.944017 21.794582 
L 151.412893 20.573278 
L 151.937177 19.351974 
L 152.511164 18.13067 
L 153.128024 16.909366 
L 153.779969 15.688062 
L 154.458464 14.466758 
L 155.15446 13.245455 
L 172.292315 13.245455 
L 172.292315 13.245455 
L 172.988312 14.466758 
L 173.666806 15.688062 
L 174.318751 16.909366 
L 174.935611 18.13067 
L 175.509599 19.351974 
L 176.033882 20.573278 
L 176.502759 21.794582 
L 176.911788 23.015886 
L 177.257893 24.23719 
L 177.539423 25.458494 
L 177.756187 26.679798 
L 177.909447 27.901102 
L 178.001888 29.122406 
L 178.037546 30.34371 
L 178.021711 31.565014 
L 177.960788 32.786318 
L 177.862119 34.007622 
L 177.733783 35.228926 
L 177.584346 36.45023 
L 177.422602 37.671534 
L 177.257281 38.892837 
L 177.096762 40.114141 
L 176.94879 41.335445 
L 176.820208 42.556749 
L 176.716735 43.778053 
L 176.642786 44.999357 
L 176.601352 46.220661 
L 176.593954 47.441965 
L 176.620659 48.663269 
L 176.680175 49.884573 
L 176.770004 51.105877 
L 176.886657 52.327181 
L 177.025904 53.548485 
L 177.183059 54.769789 
L 177.35327 55.991093 
L 177.5318 57.212397 
L 177.714283 58.433701 
L 177.896943 59.655005 
L 178.076754 60.876309 
L 178.251542 62.097612 
L 178.420021 63.318916 
L 178.581763 64.54022 
L 178.737108 65.761524 
L 178.887023 66.982828 
L 179.032929 68.204132 
L 179.176492 69.425436 
L 179.319428 70.64674 
L 179.463298 71.868044 
L 179.609347 73.089348 
L 179.758363 74.310652 
L 179.910597 75.531956 
L 180.065718 76.75326 
L 180.222823 77.974564 
L 180.380491 79.195868 
L 180.536866 80.417172 
L 180.689772 81.638476 
L 180.836834 82.85978 
L 180.975602 84.081084 
L 181.103679 85.302388 
L 181.218819 86.523691 
L 181.31902 87.744995 
L 181.402591 88.966299 
L 181.468212 90.187603 
L 181.514964 91.408907 
L 181.542365 92.630211 
L 181.550384 93.851515 
L 181.539456 95.072819 
L 181.510487 96.294123 
L 181.464849 97.515427 
L 181.404357 98.736731 
L 181.331231 99.958035 
L 181.248025 101.179339 
L 181.157528 102.400643 
L 181.062633 103.621947 
L 180.966165 104.843251 
L 180.870693 106.064555 
L 180.778314 107.285859 
L 180.690437 108.507163 
L 180.607572 109.728466 
L 180.52916 110.94977 
L 180.453431 112.171074 
L 180.377343 113.392378 
L 180.296587 114.613682 
L 180.205677 115.834986 
L 180.098135 117.05629 
L 179.966746 118.277594 
L 179.803897 119.498898 
L 179.601966 120.720202 
L 179.353745 121.941506 
L 179.052867 123.16281 
L 178.69422 124.384114 
L 178.274304 125.605418 
L 177.791519 126.826722 
L 177.246359 128.048026 
L 176.641496 129.26933 
L 175.981743 130.490634 
L 175.27391 131.711938 
L 174.52654 132.933242 
L 173.749568 134.154545 
z
" clip-path="url(#pffb40c2425)" style="fill: #ba7517; fill-opacity: 0.7"/>
   </g>
   <g id="FillBetweenPolyCollection_4">
    <path d="M 225.048937 134.154545 
L 204.266388 134.154545 
L 203.461609 132.933242 
L 202.685834 131.711938 
L 201.949231 130.490634 
L 201.260651 129.26933 
L 200.627282 128.048026 
L 200.054388 126.826722 
L 199.545157 125.605418 
L 199.100653 124.384114 
L 198.719884 123.16281 
L 198.399973 121.941506 
L 198.136427 120.720202 
L 197.923471 119.498898 
L 197.754431 118.277594 
L 197.62214 117.05629 
L 197.519336 115.834986 
L 197.439036 114.613682 
L 197.374846 113.392378 
L 197.321219 112.171074 
L 197.273622 110.94977 
L 197.228635 109.728466 
L 197.183963 108.507163 
L 197.138383 107.285859 
L 197.091635 106.064555 
L 197.044268 104.843251 
L 196.997468 103.621947 
L 196.952872 102.400643 
L 196.912385 101.179339 
L 196.878021 99.958035 
L 196.851763 98.736731 
L 196.835444 97.515427 
L 196.830666 96.294123 
L 196.838736 95.072819 
L 196.860618 93.851515 
L 196.896911 92.630211 
L 196.947828 91.408907 
L 197.013187 90.187603 
L 197.092413 88.966299 
L 197.184544 87.744995 
L 197.288257 86.523691 
L 197.401898 85.302388 
L 197.523546 84.081084 
L 197.651089 82.85978 
L 197.782326 81.638476 
L 197.915085 80.417172 
L 198.047355 79.195868 
L 198.177421 77.974564 
L 198.303991 76.75326 
L 198.426299 75.531956 
L 198.544175 74.310652 
L 198.658081 73.089348 
L 198.769079 71.868044 
L 198.878764 70.64674 
L 198.989128 69.425436 
L 199.102397 68.204132 
L 199.220816 66.982828 
L 199.34643 65.761524 
L 199.480861 64.54022 
L 199.625093 63.318916 
L 199.779305 62.097612 
L 199.942745 60.876309 
L 200.113667 59.655005 
L 200.28934 58.433701 
L 200.466125 57.212397 
L 200.63962 55.991093 
L 200.804873 54.769789 
L 200.956631 53.548485 
L 201.089639 52.327181 
L 201.198944 51.105877 
L 201.280203 49.884573 
L 201.329967 48.663269 
L 201.345929 47.441965 
L 201.327118 46.220661 
L 201.274027 44.999357 
L 201.188672 43.778053 
L 201.074572 42.556749 
L 200.936654 41.335445 
L 200.781098 40.114141 
L 200.615116 38.892837 
L 200.446694 37.671534 
L 200.284306 36.45023 
L 200.136618 35.228926 
L 200.012194 34.007622 
L 199.919227 32.786318 
L 199.865291 31.565014 
L 199.857142 30.34371 
L 199.900552 29.122406 
L 200.000182 27.901102 
L 200.159499 26.679798 
L 200.380723 25.458494 
L 200.664799 24.23719 
L 201.011398 23.015886 
L 201.418925 21.794582 
L 201.884562 20.573278 
L 202.404311 19.351974 
L 202.973067 18.13067 
L 203.584717 16.909366 
L 204.232253 15.688062 
L 204.907931 14.466758 
L 205.603446 13.245455 
L 223.711879 13.245455 
L 223.711879 13.245455 
L 224.407395 14.466758 
L 225.083073 15.688062 
L 225.730609 16.909366 
L 226.342258 18.13067 
L 226.911015 19.351974 
L 227.430764 20.573278 
L 227.8964 21.794582 
L 228.303928 23.015886 
L 228.650526 24.23719 
L 228.934603 25.458494 
L 229.155827 26.679798 
L 229.315144 27.901102 
L 229.414774 29.122406 
L 229.458183 30.34371 
L 229.450035 31.565014 
L 229.396099 32.786318 
L 229.303131 34.007622 
L 229.178707 35.228926 
L 229.031019 36.45023 
L 228.868631 37.671534 
L 228.700209 38.892837 
L 228.534227 40.114141 
L 228.378671 41.335445 
L 228.240754 42.556749 
L 228.126654 43.778053 
L 228.041299 44.999357 
L 227.988208 46.220661 
L 227.969396 47.441965 
L 227.985358 48.663269 
L 228.035122 49.884573 
L 228.116382 51.105877 
L 228.225687 52.327181 
L 228.358695 53.548485 
L 228.510453 54.769789 
L 228.675705 55.991093 
L 228.849201 57.212397 
L 229.025985 58.433701 
L 229.201659 59.655005 
L 229.372581 60.876309 
L 229.53602 62.097612 
L 229.690232 63.318916 
L 229.834465 64.54022 
L 229.968895 65.761524 
L 230.09451 66.982828 
L 230.212929 68.204132 
L 230.326197 69.425436 
L 230.436562 70.64674 
L 230.546246 71.868044 
L 230.657245 73.089348 
L 230.77115 74.310652 
L 230.889027 75.531956 
L 231.011334 76.75326 
L 231.137904 77.974564 
L 231.267971 79.195868 
L 231.400241 80.417172 
L 231.533 81.638476 
L 231.664236 82.85978 
L 231.79178 84.081084 
L 231.913428 85.302388 
L 232.027069 86.523691 
L 232.130781 87.744995 
L 232.222913 88.966299 
L 232.302139 90.187603 
L 232.367498 91.408907 
L 232.418414 92.630211 
L 232.454707 93.851515 
L 232.47659 95.072819 
L 232.484659 96.294123 
L 232.479882 97.515427 
L 232.463563 98.736731 
L 232.437304 99.958035 
L 232.402941 101.179339 
L 232.362454 102.400643 
L 232.317857 103.621947 
L 232.271058 104.843251 
L 232.223691 106.064555 
L 232.176942 107.285859 
L 232.131362 108.507163 
L 232.08669 109.728466 
L 232.041703 110.94977 
L 231.994107 112.171074 
L 231.940479 113.392378 
L 231.87629 114.613682 
L 231.795989 115.834986 
L 231.693186 117.05629 
L 231.560895 118.277594 
L 231.391854 119.498898 
L 231.178898 120.720202 
L 230.915353 121.941506 
L 230.595442 123.16281 
L 230.214672 124.384114 
L 229.770168 125.605418 
L 229.260938 126.826722 
L 228.688044 128.048026 
L 228.054674 129.26933 
L 227.366095 130.490634 
L 226.629492 131.711938 
L 225.853717 132.933242 
L 225.048937 134.154545 
z
" clip-path="url(#pffb40c2425)" style="fill: #1d9e75; fill-opacity: 0.7"/>
   </g>
   <g id="matplotlib.axis_1">
    <g id="xtick_1">
     <g id="line2d_1">
      <defs>
       <path id="ma30263a5bc" d="M 0 0 
L 0 3.5 
" style="stroke: #000000; stroke-width: 0.8"/>
      </defs>
      <g>
       <use xlink:href="#ma30263a5bc" x="61.854837" y="140.2" style="stroke: #000000; stroke-width: 0.8"/>
      </g>
     </g>
     <g id="text_1">
      <!-- original -->
      <g transform="translate(48.959212 152.92625) scale(0.08 -0.08)">
       <defs>
        <path id="ArialMT-6f" d="M 213 1659 
Q 213 2581 725 3025 
Q 1153 3394 1769 3394 
Q 2453 3394 2887 2945 
Q 3322 2497 3322 1706 
Q 3322 1066 3130 698 
Q 2938 331 2570 128 
Q 2203 -75 1769 -75 
Q 1072 -75 642 372 
Q 213 819 213 1659 
z
M 791 1659 
Q 791 1022 1069 705 
Q 1347 388 1769 388 
Q 2188 388 2466 706 
Q 2744 1025 2744 1678 
Q 2744 2294 2464 2611 
Q 2184 2928 1769 2928 
Q 1347 2928 1069 2612 
Q 791 2297 791 1659 
z
" transform="scale(0.015625)"/>
        <path id="ArialMT-72" d="M 416 0 
L 416 3319 
L 922 3319 
L 922 2816 
Q 1116 3169 1280 3281 
Q 1444 3394 1641 3394 
Q 1925 3394 2219 3213 
L 2025 2691 
Q 1819 2813 1613 2813 
Q 1428 2813 1281 2702 
Q 1134 2591 1072 2394 
Q 978 2094 978 1738 
L 978 0 
L 416 0 
z
" transform="scale(0.015625)"/>
        <path id="ArialMT-69" d="M 425 3934 
L 425 4581 
L 988 4581 
L 988 3934 
L 425 3934 
z
M 425 0 
L 425 3319 
L 988 3319 
L 988 0 
L 425 0 
z
" transform="scale(0.015625)"/>
        <path id="ArialMT-67" d="M 319 -275 
L 866 -356 
Q 900 -609 1056 -725 
Q 1266 -881 1628 -881 
Q 2019 -881 2231 -725 
Q 2444 -569 2519 -288 
Q 2563 -116 2559 434 
Q 2191 0 1641 0 
Q 956 0 581 494 
Q 206 988 206 1678 
Q 206 2153 378 2554 
Q 550 2956 876 3175 
Q 1203 3394 1644 3394 
Q 2231 3394 2613 2919 
L 2613 3319 
L 3131 3319 
L 3131 450 
Q 3131 -325 2973 -648 
Q 2816 -972 2473 -1159 
Q 2131 -1347 1631 -1347 
Q 1038 -1347 672 -1080 
Q 306 -813 319 -275 
z
M 784 1719 
Q 784 1066 1043 766 
Q 1303 466 1694 466 
Q 2081 466 2343 764 
Q 2606 1063 2606 1700 
Q 2606 2309 2336 2618 
Q 2066 2928 1684 2928 
Q 1309 2928 1046 2623 
Q 784 2319 784 1719 
z
" transform="scale(0.015625)"/>
        <path id="ArialMT-6e" d="M 422 0 
L 422 3319 
L 928 3319 
L 928 2847 
Q 1294 3394 1984 3394 
Q 2284 3394 2536 3286 
Q 2788 3178 2913 3003 
Q 3038 2828 3088 2588 
Q 3119 2431 3119 2041 
L 3119 0 
L 2556 0 
L 2556 2019 
Q 2556 2363 2490 2533 
Q 2425 2703 2258 2804 
Q 2091 2906 1866 2906 
Q 1506 2906 1245 2678 
Q 984 2450 984 1813 
L 984 0 
L 422 0 
z
" transform="scale(0.015625)"/>
        <path id="ArialMT-61" d="M 2588 409 
Q 2275 144 1986 34 
Q 1697 -75 1366 -75 
Q 819 -75 525 192 
Q 231 459 231 875 
Q 231 1119 342 1320 
Q 453 1522 633 1644 
Q 813 1766 1038 1828 
Q 1203 1872 1538 1913 
Q 2219 1994 2541 2106 
Q 2544 2222 2544 2253 
Q 2544 2597 2384 2738 
Q 2169 2928 1744 2928 
Q 1347 2928 1158 2789 
Q 969 2650 878 2297 
L 328 2372 
Q 403 2725 575 2942 
Q 747 3159 1072 3276 
Q 1397 3394 1825 3394 
Q 2250 3394 2515 3294 
Q 2781 3194 2906 3042 
Q 3031 2891 3081 2659 
Q 3109 2516 3109 2141 
L 3109 1391 
Q 3109 606 3145 398 
Q 3181 191 3288 0 
L 2700 0 
Q 2613 175 2588 409 
z
M 2541 1666 
Q 2234 1541 1622 1453 
Q 1275 1403 1131 1340 
Q 988 1278 909 1158 
Q 831 1038 831 891 
Q 831 666 1001 516 
Q 1172 366 1500 366 
Q 1825 366 2078 508 
Q 2331 650 2450 897 
Q 2541 1088 2541 1459 
L 2541 1666 
z
" transform="scale(0.015625)"/>
        <path id="ArialMT-6c" d="M 409 0 
L 409 4581 
L 972 4581 
L 972 0 
L 409 0 
z
" transform="scale(0.015625)"/>
       </defs>
       <use xlink:href="#ArialMT-6f"/>
       <use xlink:href="#ArialMT-72" transform="translate(55.615234 0)"/>
       <use xlink:href="#ArialMT-69" transform="translate(88.916016 0)"/>
       <use xlink:href="#ArialMT-67" transform="translate(111.132812 0)"/>
       <use xlink:href="#ArialMT-69" transform="translate(166.748047 0)"/>
       <use xlink:href="#ArialMT-6e" transform="translate(188.964844 0)"/>
       <use xlink:href="#ArialMT-61" transform="translate(244.580078 0)"/>
       <use xlink:href="#ArialMT-6c" transform="translate(300.195312 0)"/>
      </g>
     </g>
    </g>
    <g id="xtick_2">
     <g id="line2d_2">
      <g>
       <use xlink:href="#ma30263a5bc" x="112.789112" y="140.2" style="stroke: #000000; stroke-width: 0.8"/>
      </g>
     </g>
     <g id="text_2">
      <!-- s1 only -->
      <g transform="translate(100.115987 152.95) scale(0.08 -0.08)">
       <defs>
        <path id="ArialMT-73" d="M 197 991 
L 753 1078 
Q 800 744 1014 566 
Q 1228 388 1613 388 
Q 2000 388 2187 545 
Q 2375 703 2375 916 
Q 2375 1106 2209 1216 
Q 2094 1291 1634 1406 
Q 1016 1563 777 1677 
Q 538 1791 414 1992 
Q 291 2194 291 2438 
Q 291 2659 392 2848 
Q 494 3038 669 3163 
Q 800 3259 1026 3326 
Q 1253 3394 1513 3394 
Q 1903 3394 2198 3281 
Q 2494 3169 2634 2976 
Q 2775 2784 2828 2463 
L 2278 2388 
Q 2241 2644 2061 2787 
Q 1881 2931 1553 2931 
Q 1166 2931 1000 2803 
Q 834 2675 834 2503 
Q 834 2394 903 2306 
Q 972 2216 1119 2156 
Q 1203 2125 1616 2013 
Q 2213 1853 2448 1751 
Q 2684 1650 2818 1456 
Q 2953 1263 2953 975 
Q 2953 694 2789 445 
Q 2625 197 2315 61 
Q 2006 -75 1616 -75 
Q 969 -75 630 194 
Q 291 463 197 991 
z
" transform="scale(0.015625)"/>
        <path id="ArialMT-31" d="M 2384 0 
L 1822 0 
L 1822 3584 
Q 1619 3391 1289 3197 
Q 959 3003 697 2906 
L 697 3450 
Q 1169 3672 1522 3987 
Q 1875 4303 2022 4600 
L 2384 4600 
L 2384 0 
z
" transform="scale(0.015625)"/>
        <path id="ArialMT-20" transform="scale(0.015625)"/>
        <path id="ArialMT-79" d="M 397 -1278 
L 334 -750 
Q 519 -800 656 -800 
Q 844 -800 956 -737 
Q 1069 -675 1141 -563 
Q 1194 -478 1313 -144 
Q 1328 -97 1363 -6 
L 103 3319 
L 709 3319 
L 1400 1397 
Q 1534 1031 1641 628 
Q 1738 1016 1872 1384 
L 2581 3319 
L 3144 3319 
L 1881 -56 
Q 1678 -603 1566 -809 
Q 1416 -1088 1222 -1217 
Q 1028 -1347 759 -1347 
Q 597 -1347 397 -1278 
z
" transform="scale(0.015625)"/>
       </defs>
       <use xlink:href="#ArialMT-73"/>
       <use xlink:href="#ArialMT-31" transform="translate(50 0)"/>
       <use xlink:href="#ArialMT-20" transform="translate(105.615234 0)"/>
       <use xlink:href="#ArialMT-6f" transform="translate(133.398438 0)"/>
       <use xlink:href="#ArialMT-6e" transform="translate(189.013672 0)"/>
       <use xlink:href="#ArialMT-6c" transform="translate(244.628906 0)"/>
       <use xlink:href="#ArialMT-79" transform="translate(266.845703 0)"/>
      </g>
     </g>
    </g>
    <g id="xtick_3">
     <g id="line2d_3">
      <g>
       <use xlink:href="#ma30263a5bc" x="163.723388" y="140.2" style="stroke: #000000; stroke-width: 0.8"/>
      </g>
     </g>
     <g id="text_3">
      <!-- switch -->
      <g transform="translate(152.610263 152.92625) scale(0.08 -0.08)">
       <defs>
        <path id="ArialMT-77" d="M 1034 0 
L 19 3319 
L 600 3319 
L 1128 1403 
L 1325 691 
Q 1338 744 1497 1375 
L 2025 3319 
L 2603 3319 
L 3100 1394 
L 3266 759 
L 3456 1400 
L 4025 3319 
L 4572 3319 
L 3534 0 
L 2950 0 
L 2422 1988 
L 2294 2553 
L 1622 0 
L 1034 0 
z
" transform="scale(0.015625)"/>
        <path id="ArialMT-74" d="M 1650 503 
L 1731 6 
Q 1494 -44 1306 -44 
Q 1000 -44 831 53 
Q 663 150 594 308 
Q 525 466 525 972 
L 525 2881 
L 113 2881 
L 113 3319 
L 525 3319 
L 525 4141 
L 1084 4478 
L 1084 3319 
L 1650 3319 
L 1650 2881 
L 1084 2881 
L 1084 941 
Q 1084 700 1114 631 
Q 1144 563 1211 522 
Q 1278 481 1403 481 
Q 1497 481 1650 503 
z
" transform="scale(0.015625)"/>
        <path id="ArialMT-63" d="M 2588 1216 
L 3141 1144 
Q 3050 572 2676 248 
Q 2303 -75 1759 -75 
Q 1078 -75 664 370 
Q 250 816 250 1647 
Q 250 2184 428 2587 
Q 606 2991 970 3192 
Q 1334 3394 1763 3394 
Q 2303 3394 2647 3120 
Q 2991 2847 3088 2344 
L 2541 2259 
Q 2463 2594 2264 2762 
Q 2066 2931 1784 2931 
Q 1359 2931 1093 2626 
Q 828 2322 828 1663 
Q 828 994 1084 691 
Q 1341 388 1753 388 
Q 2084 388 2306 591 
Q 2528 794 2588 1216 
z
" transform="scale(0.015625)"/>
        <path id="ArialMT-68" d="M 422 0 
L 422 4581 
L 984 4581 
L 984 2938 
Q 1378 3394 1978 3394 
Q 2347 3394 2619 3248 
Q 2891 3103 3008 2847 
Q 3125 2591 3125 2103 
L 3125 0 
L 2563 0 
L 2563 2103 
Q 2563 2525 2380 2717 
Q 2197 2909 1863 2909 
Q 1613 2909 1392 2779 
Q 1172 2650 1078 2428 
Q 984 2206 984 1816 
L 984 0 
L 422 0 
z
" transform="scale(0.015625)"/>
       </defs>
       <use xlink:href="#ArialMT-73"/>
       <use xlink:href="#ArialMT-77" transform="translate(50 0)"/>
       <use xlink:href="#ArialMT-69" transform="translate(122.216797 0)"/>
       <use xlink:href="#ArialMT-74" transform="translate(144.433594 0)"/>
       <use xlink:href="#ArialMT-63" transform="translate(172.216797 0)"/>
       <use xlink:href="#ArialMT-68" transform="translate(222.216797 0)"/>
      </g>
     </g>
    </g>
    <g id="xtick_4">
     <g id="line2d_4">
      <g>
       <use xlink:href="#ma30263a5bc" x="214.657663" y="140.2" style="stroke: #000000; stroke-width: 0.8"/>
      </g>
     </g>
     <g id="text_4">
      <!-- blend -->
      <g transform="translate(204.871413 152.92625) scale(0.08 -0.08)">
       <defs>
        <path id="ArialMT-62" d="M 941 0 
L 419 0 
L 419 4581 
L 981 4581 
L 981 2947 
Q 1338 3394 1891 3394 
Q 2197 3394 2470 3270 
Q 2744 3147 2920 2923 
Q 3097 2700 3197 2384 
Q 3297 2069 3297 1709 
Q 3297 856 2875 390 
Q 2453 -75 1863 -75 
Q 1275 -75 941 416 
L 941 0 
z
M 934 1684 
Q 934 1088 1097 822 
Q 1363 388 1816 388 
Q 2184 388 2453 708 
Q 2722 1028 2722 1663 
Q 2722 2313 2464 2622 
Q 2206 2931 1841 2931 
Q 1472 2931 1203 2611 
Q 934 2291 934 1684 
z
" transform="scale(0.015625)"/>
        <path id="ArialMT-65" d="M 2694 1069 
L 3275 997 
Q 3138 488 2766 206 
Q 2394 -75 1816 -75 
Q 1088 -75 661 373 
Q 234 822 234 1631 
Q 234 2469 665 2931 
Q 1097 3394 1784 3394 
Q 2450 3394 2872 2941 
Q 3294 2488 3294 1666 
Q 3294 1616 3291 1516 
L 816 1516 
Q 847 969 1125 678 
Q 1403 388 1819 388 
Q 2128 388 2347 550 
Q 2566 713 2694 1069 
z
M 847 1978 
L 2700 1978 
Q 2663 2397 2488 2606 
Q 2219 2931 1791 2931 
Q 1403 2931 1139 2672 
Q 875 2413 847 1978 
z
" transform="scale(0.015625)"/>
        <path id="ArialMT-64" d="M 2575 0 
L 2575 419 
Q 2259 -75 1647 -75 
Q 1250 -75 917 144 
Q 584 363 401 755 
Q 219 1147 219 1656 
Q 219 2153 384 2558 
Q 550 2963 881 3178 
Q 1213 3394 1622 3394 
Q 1922 3394 2156 3267 
Q 2391 3141 2538 2938 
L 2538 4581 
L 3097 4581 
L 3097 0 
L 2575 0 
z
M 797 1656 
Q 797 1019 1065 703 
Q 1334 388 1700 388 
Q 2069 388 2326 689 
Q 2584 991 2584 1609 
Q 2584 2291 2321 2609 
Q 2059 2928 1675 2928 
Q 1300 2928 1048 2622 
Q 797 2316 797 1656 
z
" transform="scale(0.015625)"/>
       </defs>
       <use xlink:href="#ArialMT-62"/>
       <use xlink:href="#ArialMT-6c" transform="translate(55.615234 0)"/>
       <use xlink:href="#ArialMT-65" transform="translate(77.832031 0)"/>
       <use xlink:href="#ArialMT-6e" transform="translate(133.447266 0)"/>
       <use xlink:href="#ArialMT-64" transform="translate(189.0625 0)"/>
      </g>
     </g>
    </g>
    <g id="text_5">
     <!-- Decision mode -->
     <g transform="translate(111.800625 164.36) scale(0.08 -0.08)">
      <defs>
       <path id="ArialMT-44" d="M 494 0 
L 494 4581 
L 2072 4581 
Q 2606 4581 2888 4516 
Q 3281 4425 3559 4188 
Q 3922 3881 4101 3404 
Q 4281 2928 4281 2316 
Q 4281 1794 4159 1391 
Q 4038 988 3847 723 
Q 3656 459 3429 307 
Q 3203 156 2883 78 
Q 2563 0 2147 0 
L 494 0 
z
M 1100 541 
L 2078 541 
Q 2531 541 2789 625 
Q 3047 709 3200 863 
Q 3416 1078 3536 1442 
Q 3656 1806 3656 2325 
Q 3656 3044 3420 3430 
Q 3184 3816 2847 3947 
Q 2603 4041 2063 4041 
L 1100 4041 
L 1100 541 
z
" transform="scale(0.015625)"/>
       <path id="ArialMT-6d" d="M 422 0 
L 422 3319 
L 925 3319 
L 925 2853 
Q 1081 3097 1340 3245 
Q 1600 3394 1931 3394 
Q 2300 3394 2536 3241 
Q 2772 3088 2869 2813 
Q 3263 3394 3894 3394 
Q 4388 3394 4653 3120 
Q 4919 2847 4919 2278 
L 4919 0 
L 4359 0 
L 4359 2091 
Q 4359 2428 4304 2576 
Q 4250 2725 4106 2815 
Q 3963 2906 3769 2906 
Q 3419 2906 3187 2673 
Q 2956 2441 2956 1928 
L 2956 0 
L 2394 0 
L 2394 2156 
Q 2394 2531 2256 2718 
Q 2119 2906 1806 2906 
Q 1569 2906 1367 2781 
Q 1166 2656 1075 2415 
Q 984 2175 984 1722 
L 984 0 
L 422 0 
z
" transform="scale(0.015625)"/>
      </defs>
      <use xlink:href="#ArialMT-44"/>
      <use xlink:href="#ArialMT-65" transform="translate(72.216797 0)"/>
      <use xlink:href="#ArialMT-63" transform="translate(127.832031 0)"/>
      <use xlink:href="#ArialMT-69" transform="translate(177.832031 0)"/>
      <use xlink:href="#ArialMT-73" transform="translate(200.048828 0)"/>
      <use xlink:href="#ArialMT-69" transform="translate(250.048828 0)"/>
      <use xlink:href="#ArialMT-6f" transform="translate(272.265625 0)"/>
      <use xlink:href="#ArialMT-6e" transform="translate(327.880859 0)"/>
      <use xlink:href="#ArialMT-20" transform="translate(383.496094 0)"/>
      <use xlink:href="#ArialMT-6d" transform="translate(411.279297 0)"/>
      <use xlink:href="#ArialMT-6f" transform="translate(494.580078 0)"/>
      <use xlink:href="#ArialMT-64" transform="translate(550.195312 0)"/>
      <use xlink:href="#ArialMT-65" transform="translate(605.810547 0)"/>
     </g>
    </g>
   </g>
   <g id="matplotlib.axis_2">
    <g id="ytick_1">
     <g id="line2d_5">
      <path d="M 34.605 134.154545 
L 241.9075 134.154545 
" clip-path="url(#pffb40c2425)" style="fill: none; stroke: #b0b0b0; stroke-opacity: 0.3; stroke-width: 0.8; stroke-linecap: square"/>
     </g>
     <g id="line2d_6">
      <defs>
       <path id="m3aaba7bd57" d="M 0 0 
L -3.5 0 
" style="stroke: #000000; stroke-width: 0.8"/>
      </defs>
      <g>
       <use xlink:href="#m3aaba7bd57" x="34.605" y="134.154545" style="stroke: #000000; stroke-width: 0.8"/>
      </g>
     </g>
     <g id="text_6">
      <!-- 0 -->
      <g transform="translate(23.15625 137.01767) scale(0.08 -0.08)">
       <defs>
        <path id="ArialMT-30" d="M 266 2259 
Q 266 3072 433 3567 
Q 600 4063 929 4331 
Q 1259 4600 1759 4600 
Q 2128 4600 2406 4451 
Q 2684 4303 2865 4023 
Q 3047 3744 3150 3342 
Q 3253 2941 3253 2259 
Q 3253 1453 3087 958 
Q 2922 463 2592 192 
Q 2263 -78 1759 -78 
Q 1097 -78 719 397 
Q 266 969 266 2259 
z
M 844 2259 
Q 844 1131 1108 757 
Q 1372 384 1759 384 
Q 2147 384 2411 759 
Q 2675 1134 2675 2259 
Q 2675 3391 2411 3762 
Q 2147 4134 1753 4134 
Q 1366 4134 1134 3806 
Q 844 3388 844 2259 
z
" transform="scale(0.015625)"/>
       </defs>
       <use xlink:href="#ArialMT-30"/>
      </g>
     </g>
    </g>
    <g id="ytick_2">
     <g id="line2d_7">
      <path d="M 34.605 117.361616 
L 241.9075 117.361616 
" clip-path="url(#pffb40c2425)" style="fill: none; stroke: #b0b0b0; stroke-opacity: 0.3; stroke-width: 0.8; stroke-linecap: square"/>
     </g>
     <g id="line2d_8">
      <g>
       <use xlink:href="#m3aaba7bd57" x="34.605" y="117.361616" style="stroke: #000000; stroke-width: 0.8"/>
      </g>
     </g>
     <g id="text_7">
      <!-- 10 -->
      <g transform="translate(18.7075 120.224741) scale(0.08 -0.08)">
       <use xlink:href="#ArialMT-31"/>
       <use xlink:href="#ArialMT-30" transform="translate(55.615234 0)"/>
      </g>
     </g>
    </g>
    <g id="ytick_3">
     <g id="line2d_9">
      <path d="M 34.605 100.568687 
L 241.9075 100.568687 
" clip-path="url(#pffb40c2425)" style="fill: none; stroke: #b0b0b0; stroke-opacity: 0.3; stroke-width: 0.8; stroke-linecap: square"/>
     </g>
     <g id="line2d_10">
      <g>
       <use xlink:href="#m3aaba7bd57" x="34.605" y="100.568687" style="stroke: #000000; stroke-width: 0.8"/>
      </g>
     </g>
     <g id="text_8">
      <!-- 20 -->
      <g transform="translate(18.7075 103.431812) scale(0.08 -0.08)">
       <defs>
        <path id="ArialMT-32" d="M 3222 541 
L 3222 0 
L 194 0 
Q 188 203 259 391 
Q 375 700 629 1000 
Q 884 1300 1366 1694 
Q 2113 2306 2375 2664 
Q 2638 3022 2638 3341 
Q 2638 3675 2398 3904 
Q 2159 4134 1775 4134 
Q 1369 4134 1125 3890 
Q 881 3647 878 3216 
L 300 3275 
Q 359 3922 746 4261 
Q 1134 4600 1788 4600 
Q 2447 4600 2831 4234 
Q 3216 3869 3216 3328 
Q 3216 3053 3103 2787 
Q 2991 2522 2730 2228 
Q 2469 1934 1863 1422 
Q 1356 997 1212 845 
Q 1069 694 975 541 
L 3222 541 
z
" transform="scale(0.015625)"/>
       </defs>
       <use xlink:href="#ArialMT-32"/>
       <use xlink:href="#ArialMT-30" transform="translate(55.615234 0)"/>
      </g>
     </g>
    </g>
    <g id="ytick_4">
     <g id="line2d_11">
      <path d="M 34.605 83.775758 
L 241.9075 83.775758 
" clip-path="url(#pffb40c2425)" style="fill: none; stroke: #b0b0b0; stroke-opacity: 0.3; stroke-width: 0.8; stroke-linecap: square"/>
     </g>
     <g id="line2d_12">
      <g>
       <use xlink:href="#m3aaba7bd57" x="34.605" y="83.775758" style="stroke: #000000; stroke-width: 0.8"/>
      </g>
     </g>
     <g id="text_9">
      <!-- 30 -->
      <g transform="translate(18.7075 86.638883) scale(0.08 -0.08)">
       <defs>
        <path id="ArialMT-33" d="M 269 1209 
L 831 1284 
Q 928 806 1161 595 
Q 1394 384 1728 384 
Q 2125 384 2398 659 
Q 2672 934 2672 1341 
Q 2672 1728 2419 1979 
Q 2166 2231 1775 2231 
Q 1616 2231 1378 2169 
L 1441 2663 
Q 1497 2656 1531 2656 
Q 1891 2656 2178 2843 
Q 2466 3031 2466 3422 
Q 2466 3731 2256 3934 
Q 2047 4138 1716 4138 
Q 1388 4138 1169 3931 
Q 950 3725 888 3313 
L 325 3413 
Q 428 3978 793 4289 
Q 1159 4600 1703 4600 
Q 2078 4600 2393 4439 
Q 2709 4278 2876 4000 
Q 3044 3722 3044 3409 
Q 3044 3113 2884 2869 
Q 2725 2625 2413 2481 
Q 2819 2388 3044 2092 
Q 3269 1797 3269 1353 
Q 3269 753 2831 336 
Q 2394 -81 1725 -81 
Q 1122 -81 723 278 
Q 325 638 269 1209 
z
" transform="scale(0.015625)"/>
       </defs>
       <use xlink:href="#ArialMT-33"/>
       <use xlink:href="#ArialMT-30" transform="translate(55.615234 0)"/>
      </g>
     </g>
    </g>
    <g id="ytick_5">
     <g id="line2d_13">
      <path d="M 34.605 66.982828 
L 241.9075 66.982828 
" clip-path="url(#pffb40c2425)" style="fill: none; stroke: #b0b0b0; stroke-opacity: 0.3; stroke-width: 0.8; stroke-linecap: square"/>
     </g>
     <g id="line2d_14">
      <g>
       <use xlink:href="#m3aaba7bd57" x="34.605" y="66.982828" style="stroke: #000000; stroke-width: 0.8"/>
      </g>
     </g>
     <g id="text_10">
      <!-- 40 -->
      <g transform="translate(18.7075 69.845953) scale(0.08 -0.08)">
       <defs>
        <path id="ArialMT-34" d="M 2069 0 
L 2069 1097 
L 81 1097 
L 81 1613 
L 2172 4581 
L 2631 4581 
L 2631 1613 
L 3250 1613 
L 3250 1097 
L 2631 1097 
L 2631 0 
L 2069 0 
z
M 2069 1613 
L 2069 3678 
L 634 1613 
L 2069 1613 
z
" transform="scale(0.015625)"/>
       </defs>
       <use xlink:href="#ArialMT-34"/>
       <use xlink:href="#ArialMT-30" transform="translate(55.615234 0)"/>
      </g>
     </g>
    </g>
    <g id="ytick_6">
     <g id="line2d_15">
      <path d="M 34.605 50.189899 
L 241.9075 50.189899 
" clip-path="url(#pffb40c2425)" style="fill: none; stroke: #b0b0b0; stroke-opacity: 0.3; stroke-width: 0.8; stroke-linecap: square"/>
     </g>
     <g id="line2d_16">
      <g>
       <use xlink:href="#m3aaba7bd57" x="34.605" y="50.189899" style="stroke: #000000; stroke-width: 0.8"/>
      </g>
     </g>
     <g id="text_11">
      <!-- 50 -->
      <g transform="translate(18.7075 53.053024) scale(0.08 -0.08)">
       <defs>
        <path id="ArialMT-35" d="M 266 1200 
L 856 1250 
Q 922 819 1161 601 
Q 1400 384 1738 384 
Q 2144 384 2425 690 
Q 2706 997 2706 1503 
Q 2706 1984 2436 2262 
Q 2166 2541 1728 2541 
Q 1456 2541 1237 2417 
Q 1019 2294 894 2097 
L 366 2166 
L 809 4519 
L 3088 4519 
L 3088 3981 
L 1259 3981 
L 1013 2750 
Q 1425 3038 1878 3038 
Q 2478 3038 2890 2622 
Q 3303 2206 3303 1553 
Q 3303 931 2941 478 
Q 2500 -78 1738 -78 
Q 1113 -78 717 272 
Q 322 622 266 1200 
z
" transform="scale(0.015625)"/>
       </defs>
       <use xlink:href="#ArialMT-35"/>
       <use xlink:href="#ArialMT-30" transform="translate(55.615234 0)"/>
      </g>
     </g>
    </g>
    <g id="ytick_7">
     <g id="line2d_17">
      <path d="M 34.605 33.39697 
L 241.9075 33.39697 
" clip-path="url(#pffb40c2425)" style="fill: none; stroke: #b0b0b0; stroke-opacity: 0.3; stroke-width: 0.8; stroke-linecap: square"/>
     </g>
     <g id="line2d_18">
      <g>
       <use xlink:href="#m3aaba7bd57" x="34.605" y="33.39697" style="stroke: #000000; stroke-width: 0.8"/>
      </g>
     </g>
     <g id="text_12">
      <!-- 60 -->
      <g transform="translate(18.7075 36.260095) scale(0.08 -0.08)">
       <defs>
        <path id="ArialMT-36" d="M 3184 3459 
L 2625 3416 
Q 2550 3747 2413 3897 
Q 2184 4138 1850 4138 
Q 1581 4138 1378 3988 
Q 1113 3794 959 3422 
Q 806 3050 800 2363 
Q 1003 2672 1297 2822 
Q 1591 2972 1913 2972 
Q 2475 2972 2870 2558 
Q 3266 2144 3266 1488 
Q 3266 1056 3080 686 
Q 2894 316 2569 119 
Q 2244 -78 1831 -78 
Q 1128 -78 684 439 
Q 241 956 241 2144 
Q 241 3472 731 4075 
Q 1159 4600 1884 4600 
Q 2425 4600 2770 4297 
Q 3116 3994 3184 3459 
z
M 888 1484 
Q 888 1194 1011 928 
Q 1134 663 1356 523 
Q 1578 384 1822 384 
Q 2178 384 2434 671 
Q 2691 959 2691 1453 
Q 2691 1928 2437 2201 
Q 2184 2475 1800 2475 
Q 1419 2475 1153 2201 
Q 888 1928 888 1484 
z
" transform="scale(0.015625)"/>
       </defs>
       <use xlink:href="#ArialMT-36"/>
       <use xlink:href="#ArialMT-30" transform="translate(55.615234 0)"/>
      </g>
     </g>
    </g>
    <g id="ytick_8">
     <g id="line2d_19">
      <path d="M 34.605 16.60404 
L 241.9075 16.60404 
" clip-path="url(#pffb40c2425)" style="fill: none; stroke: #b0b0b0; stroke-opacity: 0.3; stroke-width: 0.8; stroke-linecap: square"/>
     </g>
     <g id="line2d_20">
      <g>
       <use xlink:href="#m3aaba7bd57" x="34.605" y="16.60404" style="stroke: #000000; stroke-width: 0.8"/>
      </g>
     </g>
     <g id="text_13">
      <!-- 70 -->
      <g transform="translate(18.7075 19.467165) scale(0.08 -0.08)">
       <defs>
        <path id="ArialMT-37" d="M 303 3981 
L 303 4522 
L 3269 4522 
L 3269 4084 
Q 2831 3619 2401 2847 
Q 1972 2075 1738 1259 
Q 1569 684 1522 0 
L 944 0 
Q 953 541 1156 1306 
Q 1359 2072 1739 2783 
Q 2119 3494 2547 3981 
L 303 3981 
z
" transform="scale(0.015625)"/>
       </defs>
       <use xlink:href="#ArialMT-37"/>
       <use xlink:href="#ArialMT-30" transform="translate(55.615234 0)"/>
      </g>
     </g>
    </g>
    <g id="text_14">
     <!-- First-departure timestep (hours) -->
     <g transform="translate(13.02375 129.935625) rotate(-90) scale(0.08 -0.08)">
      <defs>
       <path id="ArialMT-46" d="M 525 0 
L 525 4581 
L 3616 4581 
L 3616 4041 
L 1131 4041 
L 1131 2622 
L 3281 2622 
L 3281 2081 
L 1131 2081 
L 1131 0 
L 525 0 
z
" transform="scale(0.015625)"/>
       <path id="ArialMT-2d" d="M 203 1375 
L 203 1941 
L 1931 1941 
L 1931 1375 
L 203 1375 
z
" transform="scale(0.015625)"/>
       <path id="ArialMT-70" d="M 422 -1272 
L 422 3319 
L 934 3319 
L 934 2888 
Q 1116 3141 1344 3267 
Q 1572 3394 1897 3394 
Q 2322 3394 2647 3175 
Q 2972 2956 3137 2557 
Q 3303 2159 3303 1684 
Q 3303 1175 3120 767 
Q 2938 359 2589 142 
Q 2241 -75 1856 -75 
Q 1575 -75 1351 44 
Q 1128 163 984 344 
L 984 -1272 
L 422 -1272 
z
M 931 1641 
Q 931 1000 1190 694 
Q 1450 388 1819 388 
Q 2194 388 2461 705 
Q 2728 1022 2728 1688 
Q 2728 2322 2467 2637 
Q 2206 2953 1844 2953 
Q 1484 2953 1207 2617 
Q 931 2281 931 1641 
z
" transform="scale(0.015625)"/>
       <path id="ArialMT-75" d="M 2597 0 
L 2597 488 
Q 2209 -75 1544 -75 
Q 1250 -75 995 37 
Q 741 150 617 320 
Q 494 491 444 738 
Q 409 903 409 1263 
L 409 3319 
L 972 3319 
L 972 1478 
Q 972 1038 1006 884 
Q 1059 663 1231 536 
Q 1403 409 1656 409 
Q 1909 409 2131 539 
Q 2353 669 2445 892 
Q 2538 1116 2538 1541 
L 2538 3319 
L 3100 3319 
L 3100 0 
L 2597 0 
z
" transform="scale(0.015625)"/>
       <path id="ArialMT-28" d="M 1497 -1347 
Q 1031 -759 709 28 
Q 388 816 388 1659 
Q 388 2403 628 3084 
Q 909 3875 1497 4659 
L 1900 4659 
Q 1522 4009 1400 3731 
Q 1209 3300 1100 2831 
Q 966 2247 966 1656 
Q 966 153 1900 -1347 
L 1497 -1347 
z
" transform="scale(0.015625)"/>
       <path id="ArialMT-29" d="M 791 -1347 
L 388 -1347 
Q 1322 153 1322 1656 
Q 1322 2244 1188 2822 
Q 1081 3291 891 3722 
Q 769 4003 388 4659 
L 791 4659 
Q 1378 3875 1659 3084 
Q 1900 2403 1900 1659 
Q 1900 816 1576 28 
Q 1253 -759 791 -1347 
z
" transform="scale(0.015625)"/>
      </defs>
      <use xlink:href="#ArialMT-46"/>
      <use xlink:href="#ArialMT-69" transform="translate(61.083984 0)"/>
      <use xlink:href="#ArialMT-72" transform="translate(83.300781 0)"/>
      <use xlink:href="#ArialMT-73" transform="translate(116.601562 0)"/>
      <use xlink:href="#ArialMT-74" transform="translate(166.601562 0)"/>
      <use xlink:href="#ArialMT-2d" transform="translate(194.384766 0)"/>
      <use xlink:href="#ArialMT-64" transform="translate(227.685547 0)"/>
      <use xlink:href="#ArialMT-65" transform="translate(283.300781 0)"/>
      <use xlink:href="#ArialMT-70" transform="translate(338.916016 0)"/>
      <use xlink:href="#ArialMT-61" transform="translate(394.53125 0)"/>
      <use xlink:href="#ArialMT-72" transform="translate(450.146484 0)"/>
      <use xlink:href="#ArialMT-74" transform="translate(483.447266 0)"/>
      <use xlink:href="#ArialMT-75" transform="translate(511.230469 0)"/>
      <use xlink:href="#ArialMT-72" transform="translate(566.845703 0)"/>
      <use xlink:href="#ArialMT-65" transform="translate(600.146484 0)"/>
      <use xlink:href="#ArialMT-20" transform="translate(655.761719 0)"/>
      <use xlink:href="#ArialMT-74" transform="translate(683.544922 0)"/>
      <use xlink:href="#ArialMT-69" transform="translate(711.328125 0)"/>
      <use xlink:href="#ArialMT-6d" transform="translate(733.544922 0)"/>
      <use xlink:href="#ArialMT-65" transform="translate(816.845703 0)"/>
      <use xlink:href="#ArialMT-73" transform="translate(872.460938 0)"/>
      <use xlink:href="#ArialMT-74" transform="translate(922.460938 0)"/>
      <use xlink:href="#ArialMT-65" transform="translate(950.244141 0)"/>
      <use xlink:href="#ArialMT-70" transform="translate(1005.859375 0)"/>
      <use xlink:href="#ArialMT-20" transform="translate(1061.474609 0)"/>
      <use xlink:href="#ArialMT-28" transform="translate(1089.257812 0)"/>
      <use xlink:href="#ArialMT-68" transform="translate(1122.558594 0)"/>
      <use xlink:href="#ArialMT-6f" transform="translate(1178.173828 0)"/>
      <use xlink:href="#ArialMT-75" transform="translate(1233.789062 0)"/>
      <use xlink:href="#ArialMT-72" transform="translate(1289.404297 0)"/>
      <use xlink:href="#ArialMT-73" transform="translate(1322.705078 0)"/>
      <use xlink:href="#ArialMT-29" transform="translate(1372.705078 0)"/>
     </g>
    </g>
   </g>
   <g id="LineCollection_1">
    <path d="M 52.941339 75.652778 
L 70.768335 75.652778 
" clip-path="url(#pffb40c2425)" style="fill: none; stroke: #1f77b4; stroke-width: 1.5"/>
   </g>
   <g id="LineCollection_2">
    <path d="M 52.941339 13.245455 
L 70.768335 13.245455 
" clip-path="url(#pffb40c2425)" style="fill: none; stroke: #1f77b4; stroke-width: 1.5"/>
   </g>
   <g id="LineCollection_3">
    <path d="M 52.941339 134.154545 
L 70.768335 134.154545 
" clip-path="url(#pffb40c2425)" style="fill: none; stroke: #1f77b4; stroke-width: 1.5"/>
   </g>
   <g id="LineCollection_4">
    <path d="M 61.854837 134.154545 
L 61.854837 13.245455 
" clip-path="url(#pffb40c2425)" style="fill: none; stroke: #1f77b4; stroke-width: 1.5"/>
   </g>
   <g id="LineCollection_5">
    <path d="M 52.941339 79.577525 
L 70.768335 79.577525 
" clip-path="url(#pffb40c2425)" style="fill: none; stroke: #1f77b4; stroke-width: 1.5"/>
   </g>
   <g id="LineCollection_6">
    <path d="M 103.875614 75.652778 
L 121.702611 75.652778 
" clip-path="url(#pffb40c2425)" style="fill: none; stroke: #ff7f0e; stroke-width: 1.5"/>
   </g>
   <g id="LineCollection_7">
    <path d="M 103.875614 13.245455 
L 121.702611 13.245455 
" clip-path="url(#pffb40c2425)" style="fill: none; stroke: #ff7f0e; stroke-width: 1.5"/>
   </g>
   <g id="LineCollection_8">
    <path d="M 103.875614 134.154545 
L 121.702611 134.154545 
" clip-path="url(#pffb40c2425)" style="fill: none; stroke: #ff7f0e; stroke-width: 1.5"/>
   </g>
   <g id="LineCollection_9">
    <path d="M 112.789112 134.154545 
L 112.789112 13.245455 
" clip-path="url(#pffb40c2425)" style="fill: none; stroke: #ff7f0e; stroke-width: 1.5"/>
   </g>
   <g id="LineCollection_10">
    <path d="M 103.875614 79.577525 
L 121.702611 79.577525 
" clip-path="url(#pffb40c2425)" style="fill: none; stroke: #ff7f0e; stroke-width: 1.5"/>
   </g>
   <g id="LineCollection_11">
    <path d="M 154.809889 76.635112 
L 172.636886 76.635112 
" clip-path="url(#pffb40c2425)" style="fill: none; stroke: #2ca02c; stroke-width: 1.5"/>
   </g>
   <g id="LineCollection_12">
    <path d="M 154.809889 13.245455 
L 172.636886 13.245455 
" clip-path="url(#pffb40c2425)" style="fill: none; stroke: #2ca02c; stroke-width: 1.5"/>
   </g>
   <g id="LineCollection_13">
    <path d="M 154.809889 134.154545 
L 172.636886 134.154545 
" clip-path="url(#pffb40c2425)" style="fill: none; stroke: #2ca02c; stroke-width: 1.5"/>
   </g>
   <g id="LineCollection_14">
    <path d="M 163.723388 134.154545 
L 163.723388 13.245455 
" clip-path="url(#pffb40c2425)" style="fill: none; stroke: #2ca02c; stroke-width: 1.5"/>
   </g>
   <g id="LineCollection_15">
    <path d="M 154.809889 82.096465 
L 172.636886 82.096465 
" clip-path="url(#pffb40c2425)" style="fill: none; stroke: #2ca02c; stroke-width: 1.5"/>
   </g>
   <g id="LineCollection_16">
    <path d="M 205.744165 76.396604 
L 223.571161 76.396604 
" clip-path="url(#pffb40c2425)" style="fill: none; stroke: #d62728; stroke-width: 1.5"/>
   </g>
   <g id="LineCollection_17">
    <path d="M 205.744165 13.245455 
L 223.571161 13.245455 
" clip-path="url(#pffb40c2425)" style="fill: none; stroke: #d62728; stroke-width: 1.5"/>
   </g>
   <g id="LineCollection_18">
    <path d="M 205.744165 134.154545 
L 223.571161 134.154545 
" clip-path="url(#pffb40c2425)" style="fill: none; stroke: #d62728; stroke-width: 1.5"/>
   </g>
   <g id="LineCollection_19">
    <path d="M 214.657663 134.154545 
L 214.657663 13.245455 
" clip-path="url(#pffb40c2425)" style="fill: none; stroke: #d62728; stroke-width: 1.5"/>
   </g>
   <g id="LineCollection_20">
    <path d="M 205.744165 82.096465 
L 223.571161 82.096465 
" clip-path="url(#pffb40c2425)" style="fill: none; stroke: #d62728; stroke-width: 1.5"/>
   </g>
   <g id="patch_3">
    <path d="M 34.605 140.2 
L 34.605 7.2 
" style="fill: none; stroke: #000000; stroke-width: 0.5; stroke-linejoin: miter; stroke-linecap: square"/>
   </g>
   <g id="patch_4">
    <path d="M 34.605 140.2 
L 241.9075 140.2 
" style="fill: none; stroke: #000000; stroke-width: 0.5; stroke-linejoin: miter; stroke-linecap: square"/>
   </g>
   <g id="text_15">
    <g id="patch_5">
     <path d="M 165.7127 23.658125 
L 237.76145 23.658125 
Q 239.56145 23.658125 239.56145 21.858125 
L 239.56145 9.930312 
Q 239.56145 8.130312 237.76145 8.130312 
L 165.7127 8.130312 
Q 163.9127 8.130312 163.9127 9.930312 
L 163.9127 21.858125 
Q 163.9127 23.658125 165.7127 23.658125 
z
" style="fill: #ffffff; opacity: 0.9; stroke: #808080; stroke-linejoin: miter"/>
    </g>
    <!-- α=2.0, β=2.0, κ=5.0 -->
    <g transform="translate(185.641138 14.227812) scale(0.06 -0.06)">
     <defs>
      <path id="ArialMT-3b1" d="M 2884 3319 
L 3459 3319 
Q 3241 2631 3056 1659 
Q 3275 453 3459 0 
L 2900 0 
Q 2766 313 2697 606 
Q 2438 -75 1613 -75 
Q 988 -75 606 394 
Q 225 863 225 1666 
Q 225 2491 608 2942 
Q 991 3394 1622 3394 
Q 2013 3394 2259 3236 
Q 2506 3078 2719 2756 
Q 2741 2866 2884 3319 
z
M 1716 2928 
Q 1313 2928 1078 2603 
Q 844 2278 844 1666 
Q 844 1069 1066 728 
Q 1288 388 1684 388 
Q 2072 388 2331 723 
Q 2591 1059 2591 1691 
Q 2591 2303 2348 2615 
Q 2106 2928 1716 2928 
z
" transform="scale(0.015625)"/>
      <path id="ArialMT-3d" d="M 3381 2694 
L 356 2694 
L 356 3219 
L 3381 3219 
L 3381 2694 
z
M 3381 1303 
L 356 1303 
L 356 1828 
L 3381 1828 
L 3381 1303 
z
" transform="scale(0.015625)"/>
      <path id="ArialMT-2e" d="M 581 0 
L 581 641 
L 1222 641 
L 1222 0 
L 581 0 
z
" transform="scale(0.015625)"/>
      <path id="ArialMT-2c" d="M 569 0 
L 569 641 
L 1209 641 
L 1209 0 
Q 1209 -353 1084 -570 
Q 959 -788 688 -906 
L 531 -666 
Q 709 -588 793 -436 
Q 878 -284 888 0 
L 569 0 
z
" transform="scale(0.015625)"/>
      <path id="ArialMT-3b2" d="M 997 422 
L 997 -1272 
L 438 -1272 
L 438 3144 
Q 438 3672 580 3970 
Q 722 4269 1069 4464 
Q 1416 4659 1841 4659 
Q 2469 4659 2792 4298 
Q 3116 3938 3116 3509 
Q 3116 3091 2855 2834 
Q 2594 2578 2256 2519 
Q 2800 2466 3095 2128 
Q 3391 1791 3391 1297 
Q 3391 766 3042 345 
Q 2694 -75 2034 -75 
Q 1359 -75 997 422 
z
M 1494 2700 
Q 2069 2700 2331 2900 
Q 2594 3100 2594 3478 
Q 2594 3784 2370 3990 
Q 2147 4197 1813 4197 
Q 1522 4197 1308 4044 
Q 1094 3891 1045 3703 
Q 997 3516 997 3047 
L 997 1788 
Q 997 1250 1072 997 
Q 1147 744 1394 541 
Q 1641 338 1963 338 
Q 2353 338 2579 605 
Q 2806 872 2806 1266 
Q 2806 1591 2639 1848 
Q 2472 2106 2226 2198 
Q 1981 2291 1575 2291 
L 1494 2291 
L 1494 2700 
z
" transform="scale(0.015625)"/>
      <path id="ArialMT-3ba" d="M 419 3319 
L 978 3319 
L 978 2016 
L 2325 3319 
L 3069 3319 
L 1584 1941 
L 3197 0 
L 2478 0 
L 1184 1563 
L 978 1372 
L 978 0 
L 419 0 
L 419 3319 
z
" transform="scale(0.015625)"/>
     </defs>
     <use xlink:href="#ArialMT-3b1"/>
     <use xlink:href="#ArialMT-3d" transform="translate(57.8125 0)"/>
     <use xlink:href="#ArialMT-32" transform="translate(116.210938 0)"/>
     <use xlink:href="#ArialMT-2e" transform="translate(171.826172 0)"/>
     <use xlink:href="#ArialMT-30" transform="translate(199.609375 0)"/>
     <use xlink:href="#ArialMT-2c" transform="translate(255.224609 0)"/>
     <use xlink:href="#ArialMT-20" transform="translate(283.007812 0)"/>
     <use xlink:href="#ArialMT-3b2" transform="translate(310.791016 0)"/>
     <use xlink:href="#ArialMT-3d" transform="translate(368.310547 0)"/>
     <use xlink:href="#ArialMT-32" transform="translate(426.708984 0)"/>
     <use xlink:href="#ArialMT-2e" transform="translate(482.324219 0)"/>
     <use xlink:href="#ArialMT-30" transform="translate(510.107422 0)"/>
     <use xlink:href="#ArialMT-2c" transform="translate(565.722656 0)"/>
     <use xlink:href="#ArialMT-20" transform="translate(593.505859 0)"/>
     <use xlink:href="#ArialMT-3ba" transform="translate(621.289062 0)"/>
     <use xlink:href="#ArialMT-3d" transform="translate(671.289062 0)"/>
     <use xlink:href="#ArialMT-35" transform="translate(729.6875 0)"/>
     <use xlink:href="#ArialMT-2e" transform="translate(785.302734 0)"/>
     <use xlink:href="#ArialMT-30" transform="translate(813.085938 0)"/>
    </g>
    <!-- N_agents=500, N_runs=10 -->
    <g transform="translate(165.7127 20.595312) scale(0.06 -0.06)">
     <defs>
      <path id="ArialMT-4e" d="M 488 0 
L 488 4581 
L 1109 4581 
L 3516 984 
L 3516 4581 
L 4097 4581 
L 4097 0 
L 3475 0 
L 1069 3600 
L 1069 0 
L 488 0 
z
" transform="scale(0.015625)"/>
      <path id="ArialMT-5f" d="M -97 -1272 
L -97 -866 
L 3631 -866 
L 3631 -1272 
L -97 -1272 
z
" transform="scale(0.015625)"/>
     </defs>
     <use xlink:href="#ArialMT-4e"/>
     <use xlink:href="#ArialMT-5f" transform="translate(72.216797 0)"/>
     <use xlink:href="#ArialMT-61" transform="translate(127.832031 0)"/>
     <use xlink:href="#ArialMT-67" transform="translate(183.447266 0)"/>
     <use xlink:href="#ArialMT-65" transform="translate(239.0625 0)"/>
     <use xlink:href="#ArialMT-6e" transform="translate(294.677734 0)"/>
     <use xlink:href="#ArialMT-74" transform="translate(350.292969 0)"/>
     <use xlink:href="#ArialMT-73" transform="translate(378.076172 0)"/>
     <use xlink:href="#ArialMT-3d" transform="translate(428.076172 0)"/>
     <use xlink:href="#ArialMT-35" transform="translate(486.474609 0)"/>
     <use xlink:href="#ArialMT-30" transform="translate(542.089844 0)"/>
     <use xlink:href="#ArialMT-30" transform="translate(597.705078 0)"/>
     <use xlink:href="#ArialMT-2c" transform="translate(653.320312 0)"/>
     <use xlink:href="#ArialMT-20" transform="translate(681.103516 0)"/>
     <use xlink:href="#ArialMT-4e" transform="translate(708.886719 0)"/>
     <use xlink:href="#ArialMT-5f" transform="translate(781.103516 0)"/>
     <use xlink:href="#ArialMT-72" transform="translate(836.71875 0)"/>
     <use xlink:href="#ArialMT-75" transform="translate(870.019531 0)"/>
     <use xlink:href="#ArialMT-6e" transform="translate(925.634766 0)"/>
     <use xlink:href="#ArialMT-73" transform="translate(981.25 0)"/>
     <use xlink:href="#ArialMT-3d" transform="translate(1031.25 0)"/>
     <use xlink:href="#ArialMT-31" transform="translate(1089.648438 0)"/>
     <use xlink:href="#ArialMT-30" transform="translate(1145.263672 0)"/>
    </g>
   </g>
  </g>
 </g>
 <defs>
  <clipPath id="pffb40c2425">
   <rect x="34.605" y="7.2" width="207.3025" height="133"/>
  </clipPath>
 </defs>
</svg>
