<?xml version="1.0" encoding="utf-8" standalone="no"?>
<!DOCTYPE svg PUBLIC "-//W3C//DTD SVG 1.1//EN"
  "http://www.w3.org/Graphics/SVG/1.1/DTD/svg11.dtd">
<svg xmlns:xlink="http://www.w3.org/1999/xlink" width="249.1375pt" height="173.15pt" viewBox="0 0 249.1375 173.15" xmlns="http://www.w3.org/2000/svg" version="1.1">
 <metadata>
  <rdf:RDF xmlns:dc="http://purl.org/dc/elements/1.1/" xmlns:cc="http://creativecommons.org/ns#" xmlns:rdf="http://www.w3.org/1999/02/22-rdf-syntax-ns#">
   <cc:Work>
    <dc:type rdf:resource="http://purl.org/dc/dcmitype/StillImage"/>
    <dc:date>2026-03-22T21:31:06.095028</dc:date>
    <dc:format>image/svg+xml</dc:format>
    <dc:creator>
     <cc:Agent>
      <dc:title>Matplotlib v3.10.7, https://matplotlib.org/</dc:title>
     </cc:Agent>
    </dc:creator>
   </cc:Work>
  </rdf:RDF>
 </metadata>
 <defs>
  <style type="text/css">*{stroke-linejoin: round; stroke-linecap: butt}</style>
 </defs>
 <g id="figure_1">
  <g id="patch_1">
   <path d="M 0 173.15 
L 249.1375 173.15 
L 249.1375 0 
L 0 0 
z
" style="fill: #ffffff"/>
  </g>
  <g id="axes_1">
   <g id="patch_2">
    <path d="M 34.605 140.2 
L 241.9375 140.2 
L 241.9375 7.2 
L 34.605 7.2 
z
" style="fill: #ffffff"/>
   </g>
   <g id="FillBetweenPolyCollection_1">
    <path d="M 78.667629 134.154545 
L 45.049932 134.154545 
L 44.485886 132.988755 
L 44.730631 131.822965 
L 44.516069 130.657175 
L 44.029205 129.491385 
L 44.547063 128.325595 
L 46.659067 127.159805 
L 49.492323 125.994015 
L 51.804317 124.828224 
L 53.260314 123.662434 
L 54.319834 122.496644 
L 55.295156 121.330854 
L 56.025275 120.165064 
L 56.373864 118.999274 
L 56.582543 117.833484 
L 56.958888 116.667693 
L 57.462603 115.501903 
L 57.824952 114.336113 
L 57.972231 113.170323 
L 58.109414 112.004533 
L 58.389977 110.838743 
L 58.70298 109.672953 
L 58.87383 108.507163 
L 58.941211 107.341372 
L 59.099353 106.175582 
L 59.420182 105.009792 
L 59.768696 103.844002 
L 60.000893 102.678212 
L 60.131632 101.512422 
L 60.256656 100.346632 
L 60.391004 99.180841 
L 60.469638 98.015051 
L 60.478922 96.849261 
L 60.499953 95.683471 
L 60.601272 94.517681 
L 60.748665 93.351891 
L 60.861286 92.186101 
L 60.921835 91.020311 
L 60.98384 89.85452 
L 61.083361 88.68873 
L 61.191872 87.52294 
L 61.266317 86.35715 
L 61.308987 85.19136 
L 61.353556 84.02557 
L 61.411651 82.85978 
L 61.461956 81.693989 
L 61.4885 80.528199 
L 61.504471 79.362409 
L 61.529779 78.196619 
L 61.562026 77.030829 
L 61.583933 75.865039 
L 61.591466 74.699249 
L 61.59898 73.533459 
L 61.616601 72.367668 
L 61.636207 71.201878 
L 61.645996 70.036088 
L 61.649817 68.870298 
L 61.662594 67.704508 
L 61.690048 66.538718 
L 61.721989 65.372928 
L 61.745968 64.207137 
L 61.760032 63.041347 
L 61.769259 61.875557 
L 61.775674 60.709767 
L 61.777123 59.543977 
L 61.773926 58.378187 
L 61.770663 57.212397 
L 61.769877 56.046607 
L 61.768216 54.880816 
L 61.762163 53.715026 
L 61.755363 52.549236 
L 61.756015 51.383446 
L 61.76709 50.217656 
L 61.782729 49.051866 
L 61.795326 47.886076 
L 61.803106 46.720285 
L 61.808999 45.554495 
L 61.814698 44.388705 
L 61.81893 43.222915 
L 61.82102 42.057125 
L 61.823244 40.891335 
L 61.828475 39.725545 
L 61.836809 38.559755 
L 61.845583 37.393964 
L 61.852051 36.228174 
L 61.855173 35.062384 
L 61.855329 33.896594 
L 61.853424 32.730804 
L 61.850613 31.565014 
L 61.848222 30.399224 
L 61.84714 29.233434 
L 61.847151 28.067643 
L 61.847264 26.901853 
L 61.846907 25.736063 
L 61.846497 24.570273 
L 61.84663 23.404483 
L 61.847109 22.238693 
L 61.847263 21.072903 
L 61.847071 19.907112 
L 61.847432 18.741322 
L 61.87013 18.741322 
L 61.87013 18.741322 
L 61.87049 19.907112 
L 61.870299 21.072903 
L 61.870452 22.238693 
L 61.870932 23.404483 
L 61.871064 24.570273 
L 61.870654 25.736063 
L 61.870298 26.901853 
L 61.870411 28.067643 
L 61.870422 29.233434 
L 61.869339 30.399224 
L 61.866948 31.565014 
L 61.864137 32.730804 
L 61.862232 33.896594 
L 61.862388 35.062384 
L 61.865511 36.228174 
L 61.871978 37.393964 
L 61.880752 38.559755 
L 61.889086 39.725545 
L 61.894318 40.891335 
L 61.896542 42.057125 
L 61.898632 43.222915 
L 61.902863 44.388705 
L 61.908562 45.554495 
L 61.914456 46.720285 
L 61.922235 47.886076 
L 61.934833 49.051866 
L 61.950471 50.217656 
L 61.961546 51.383446 
L 61.962199 52.549236 
L 61.955398 53.715026 
L 61.949346 54.880816 
L 61.947684 56.046607 
L 61.946899 57.212397 
L 61.943636 58.378187 
L 61.940439 59.543977 
L 61.941888 60.709767 
L 61.948303 61.875557 
L 61.95753 63.041347 
L 61.971593 64.207137 
L 61.995572 65.372928 
L 62.027513 66.538718 
L 62.054968 67.704508 
L 62.067745 68.870298 
L 62.071565 70.036088 
L 62.081354 71.201878 
L 62.10096 72.367668 
L 62.118581 73.533459 
L 62.126096 74.699249 
L 62.133629 75.865039 
L 62.155536 77.030829 
L 62.187782 78.196619 
L 62.21309 79.362409 
L 62.229061 80.528199 
L 62.255605 81.693989 
L 62.30591 82.85978 
L 62.364006 84.02557 
L 62.408574 85.19136 
L 62.451245 86.35715 
L 62.525689 87.52294 
L 62.6342 88.68873 
L 62.733721 89.85452 
L 62.795727 91.020311 
L 62.856276 92.186101 
L 62.968896 93.351891 
L 63.11629 94.517681 
L 63.217609 95.683471 
L 63.238639 96.849261 
L 63.247924 98.015051 
L 63.326557 99.180841 
L 63.460905 100.346632 
L 63.58593 101.512422 
L 63.716669 102.678212 
L 63.948865 103.844002 
L 64.297379 105.009792 
L 64.618208 106.175582 
L 64.776351 107.341372 
L 64.843731 108.507163 
L 65.014582 109.672953 
L 65.327585 110.838743 
L 65.608147 112.004533 
L 65.74533 113.170323 
L 65.892609 114.336113 
L 66.254958 115.501903 
L 66.758673 116.667693 
L 67.135019 117.833484 
L 67.343697 118.999274 
L 67.692286 120.165064 
L 68.422405 121.330854 
L 69.397727 122.496644 
L 70.457248 123.662434 
L 71.913245 124.828224 
L 74.225238 125.994015 
L 77.058494 127.159805 
L 79.170498 128.325595 
L 79.688357 129.491385 
L 79.201493 130.657175 
L 78.986931 131.822965 
L 79.231675 132.988755 
L 78.667629 134.154545 
z
" clip-path="url(#p137e8980f2)" style="fill: #888780; fill-opacity: 0.7"/>
   </g>
   <g id="FillBetweenPolyCollection_2">
    <path d="M 129.609276 134.154545 
L 95.991578 134.154545 
L 95.427533 132.988755 
L 95.672277 131.822965 
L 95.457715 130.657175 
L 94.970851 129.491385 
L 95.488709 128.325595 
L 97.600713 127.159805 
L 100.433969 125.994015 
L 102.745963 124.828224 
L 104.20196 123.662434 
L 105.261481 122.496644 
L 106.236803 121.330854 
L 106.966921 120.165064 
L 107.31551 118.999274 
L 107.524189 117.833484 
L 107.900534 116.667693 
L 108.40425 115.501903 
L 108.766598 114.336113 
L 108.913877 113.170323 
L 109.05106 112.004533 
L 109.331623 110.838743 
L 109.644626 109.672953 
L 109.815476 108.507163 
L 109.882857 107.341372 
L 110.041 106.175582 
L 110.361828 105.009792 
L 110.710342 103.844002 
L 110.942539 102.678212 
L 111.073278 101.512422 
L 111.198302 100.346632 
L 111.332651 99.180841 
L 111.411284 98.015051 
L 111.420568 96.849261 
L 111.441599 95.683471 
L 111.542918 94.517681 
L 111.690311 93.351891 
L 111.802932 92.186101 
L 111.863481 91.020311 
L 111.925487 89.85452 
L 112.025007 88.68873 
L 112.133519 87.52294 
L 112.207963 86.35715 
L 112.250633 85.19136 
L 112.295202 84.02557 
L 112.353297 82.85978 
L 112.403602 81.693989 
L 112.430147 80.528199 
L 112.446118 79.362409 
L 112.471425 78.196619 
L 112.503672 77.030829 
L 112.525579 75.865039 
L 112.533112 74.699249 
L 112.540626 73.533459 
L 112.558247 72.367668 
L 112.577854 71.201878 
L 112.587642 70.036088 
L 112.591463 68.870298 
L 112.60424 67.704508 
L 112.631694 66.538718 
L 112.663635 65.372928 
L 112.687614 64.207137 
L 112.701678 63.041347 
L 112.710905 61.875557 
L 112.71732 60.709767 
L 112.718769 59.543977 
L 112.715572 58.378187 
L 112.712309 57.212397 
L 112.711524 56.046607 
L 112.709862 54.880816 
L 112.703809 53.715026 
L 112.697009 52.549236 
L 112.697662 51.383446 
L 112.708736 50.217656 
L 112.724375 49.051866 
L 112.736973 47.886076 
L 112.744752 46.720285 
L 112.750645 45.554495 
L 112.756344 44.388705 
L 112.760576 43.222915 
L 112.762666 42.057125 
L 112.76489 40.891335 
L 112.770122 39.725545 
L 112.778455 38.559755 
L 112.787229 37.393964 
L 112.793697 36.228174 
L 112.79682 35.062384 
L 112.796975 33.896594 
L 112.79507 32.730804 
L 112.79226 31.565014 
L 112.789868 30.399224 
L 112.788786 29.233434 
L 112.788797 28.067643 
L 112.78891 26.901853 
L 112.788553 25.736063 
L 112.788143 24.570273 
L 112.788276 23.404483 
L 112.788755 22.238693 
L 112.788909 21.072903 
L 112.788718 19.907112 
L 112.789078 18.741322 
L 112.811776 18.741322 
L 112.811776 18.741322 
L 112.812136 19.907112 
L 112.811945 21.072903 
L 112.812098 22.238693 
L 112.812578 23.404483 
L 112.812711 24.570273 
L 112.812301 25.736063 
L 112.811944 26.901853 
L 112.812057 28.067643 
L 112.812068 29.233434 
L 112.810986 30.399224 
L 112.808594 31.565014 
L 112.805784 32.730804 
L 112.803878 33.896594 
L 112.804034 35.062384 
L 112.807157 36.228174 
L 112.813625 37.393964 
L 112.822398 38.559755 
L 112.830732 39.725545 
L 112.835964 40.891335 
L 112.838188 42.057125 
L 112.840278 43.222915 
L 112.84451 44.388705 
L 112.850208 45.554495 
L 112.856102 46.720285 
L 112.863881 47.886076 
L 112.876479 49.051866 
L 112.892118 50.217656 
L 112.903192 51.383446 
L 112.903845 52.549236 
L 112.897044 53.715026 
L 112.890992 54.880816 
L 112.88933 56.046607 
L 112.888545 57.212397 
L 112.885282 58.378187 
L 112.882085 59.543977 
L 112.883534 60.709767 
L 112.889949 61.875557 
L 112.899176 63.041347 
L 112.91324 64.207137 
L 112.937218 65.372928 
L 112.969159 66.538718 
L 112.996614 67.704508 
L 113.009391 68.870298 
L 113.013211 70.036088 
L 113.023 71.201878 
L 113.042607 72.367668 
L 113.060228 73.533459 
L 113.067742 74.699249 
L 113.075275 75.865039 
L 113.097182 77.030829 
L 113.129428 78.196619 
L 113.154736 79.362409 
L 113.170707 80.528199 
L 113.197252 81.693989 
L 113.247557 82.85978 
L 113.305652 84.02557 
L 113.35022 85.19136 
L 113.392891 86.35715 
L 113.467335 87.52294 
L 113.575847 88.68873 
L 113.675367 89.85452 
L 113.737373 91.020311 
L 113.797922 92.186101 
L 113.910543 93.351891 
L 114.057936 94.517681 
L 114.159255 95.683471 
L 114.180286 96.849261 
L 114.18957 98.015051 
L 114.268203 99.180841 
L 114.402552 100.346632 
L 114.527576 101.512422 
L 114.658315 102.678212 
L 114.890511 103.844002 
L 115.239025 105.009792 
L 115.559854 106.175582 
L 115.717997 107.341372 
L 115.785377 108.507163 
L 115.956228 109.672953 
L 116.269231 110.838743 
L 116.549794 112.004533 
L 116.686977 113.170323 
L 116.834255 114.336113 
L 117.196604 115.501903 
L 117.70032 116.667693 
L 118.076665 117.833484 
L 118.285344 118.999274 
L 118.633932 120.165064 
L 119.364051 121.330854 
L 120.339373 122.496644 
L 121.398894 123.662434 
L 122.854891 124.828224 
L 125.166884 125.994015 
L 128.00014 127.159805 
L 130.112145 128.325595 
L 130.630003 129.491385 
L 130.143139 130.657175 
L 129.928577 131.822965 
L 130.173321 132.988755 
L 129.609276 134.154545 
z
" clip-path="url(#p137e8980f2)" style="fill: #378add; fill-opacity: 0.7"/>
   </g>
   <g id="FillBetweenPolyCollection_3">
    <path d="M 181.571649 134.154545 
L 145.912497 134.154545 
L 146.873744 132.933242 
L 149.174022 131.711938 
L 149.777881 130.490634 
L 149.145139 129.26933 
L 149.944935 128.048026 
L 152.839762 126.826722 
L 155.829825 125.605418 
L 157.373316 124.384114 
L 158.040826 123.16281 
L 158.905602 121.941506 
L 159.903963 120.720202 
L 160.408942 119.498898 
L 160.466423 118.277594 
L 160.668598 117.05629 
L 161.184625 115.834986 
L 161.60551 114.613682 
L 161.686075 113.392378 
L 161.695256 112.171074 
L 161.920131 110.94977 
L 162.228549 109.728466 
L 162.34743 108.507163 
L 162.313038 107.285859 
L 162.375581 106.064555 
L 162.587219 104.843251 
L 162.752992 103.621947 
L 162.767443 102.400643 
L 162.765963 101.179339 
L 162.889579 99.958035 
L 163.077846 98.736731 
L 163.191575 97.515427 
L 163.220043 96.294123 
L 163.254784 95.072819 
L 163.324721 93.851515 
L 163.368607 92.630211 
L 163.356599 91.408907 
L 163.343787 90.187603 
L 163.378479 88.966299 
L 163.426978 87.744995 
L 163.4346 86.523691 
L 163.415144 85.302388 
L 163.424988 84.081084 
L 163.472339 82.85978 
L 163.509478 81.638476 
L 163.511533 80.417172 
L 163.510862 79.195868 
L 163.541097 77.974564 
L 163.588067 76.75326 
L 163.618226 75.531956 
L 163.627137 74.310652 
L 163.634087 73.089348 
L 163.644866 71.868044 
L 163.646313 70.64674 
L 163.635085 69.425436 
L 163.629107 68.204132 
L 163.642801 66.982828 
L 163.666853 65.761524 
L 163.683198 64.54022 
L 163.688286 63.318916 
L 163.690022 62.097612 
L 163.689853 60.876309 
L 163.681368 59.655005 
L 163.666011 58.433701 
L 163.657349 57.212397 
L 163.663446 55.991093 
L 163.674598 54.769789 
L 163.677629 53.548485 
L 163.674911 52.327181 
L 163.678963 51.105877 
L 163.693149 49.884573 
L 163.708405 48.663269 
L 163.717218 47.441965 
L 163.721486 46.220661 
L 163.726215 44.999357 
L 163.732319 43.778053 
L 163.737519 42.556749 
L 163.740324 41.335445 
L 163.740903 40.114141 
L 163.739747 38.892837 
L 163.737238 37.671534 
L 163.734453 36.45023 
L 163.733201 35.228926 
L 163.734454 34.007622 
L 163.737249 32.786318 
L 163.73982 31.565014 
L 163.741297 30.34371 
L 163.741876 29.122406 
L 163.742036 27.901102 
L 163.742068 26.679798 
L 163.742073 25.458494 
L 163.742073 24.23719 
L 163.742073 23.015886 
L 163.742068 21.794582 
L 163.742036 20.573278 
L 163.741876 19.351974 
L 163.741297 18.13067 
L 163.73982 16.909366 
L 163.737249 15.688062 
L 163.734454 14.466758 
L 163.733201 13.245455 
L 163.750945 13.245455 
L 163.750945 13.245455 
L 163.749692 14.466758 
L 163.746898 15.688062 
L 163.744326 16.909366 
L 163.742849 18.13067 
L 163.74227 19.351974 
L 163.74211 20.573278 
L 163.742078 21.794582 
L 163.742074 23.015886 
L 163.742073 24.23719 
L 163.742074 25.458494 
L 163.742078 26.679798 
L 163.74211 27.901102 
L 163.74227 29.122406 
L 163.742849 30.34371 
L 163.744326 31.565014 
L 163.746898 32.786318 
L 163.749692 34.007622 
L 163.750946 35.228926 
L 163.749693 36.45023 
L 163.746908 37.671534 
L 163.7444 38.892837 
L 163.743243 40.114141 
L 163.743823 41.335445 
L 163.746627 42.556749 
L 163.751827 43.778053 
L 163.757931 44.999357 
L 163.762661 46.220661 
L 163.766928 47.441965 
L 163.775741 48.663269 
L 163.790997 49.884573 
L 163.805183 51.105877 
L 163.809235 52.327181 
L 163.806518 53.548485 
L 163.809548 54.769789 
L 163.8207 55.991093 
L 163.826797 57.212397 
L 163.818136 58.433701 
L 163.802778 59.655005 
L 163.794293 60.876309 
L 163.794124 62.097612 
L 163.795861 63.318916 
L 163.800948 64.54022 
L 163.817294 65.761524 
L 163.841345 66.982828 
L 163.855039 68.204132 
L 163.849061 69.425436 
L 163.837833 70.64674 
L 163.83928 71.868044 
L 163.85006 73.089348 
L 163.857009 74.310652 
L 163.86592 75.531956 
L 163.896079 76.75326 
L 163.943049 77.974564 
L 163.973284 79.195868 
L 163.972613 80.417172 
L 163.974669 81.638476 
L 164.011807 82.85978 
L 164.059158 84.081084 
L 164.069002 85.302388 
L 164.049546 86.523691 
L 164.057169 87.744995 
L 164.105667 88.966299 
L 164.140359 90.187603 
L 164.127547 91.408907 
L 164.115539 92.630211 
L 164.159425 93.851515 
L 164.229362 95.072819 
L 164.264103 96.294123 
L 164.292571 97.515427 
L 164.4063 98.736731 
L 164.594567 99.958035 
L 164.718183 101.179339 
L 164.716703 102.400643 
L 164.731154 103.621947 
L 164.896927 104.843251 
L 165.108565 106.064555 
L 165.171109 107.285859 
L 165.136717 108.507163 
L 165.255597 109.728466 
L 165.564015 110.94977 
L 165.78889 112.171074 
L 165.798071 113.392378 
L 165.878637 114.613682 
L 166.299521 115.834986 
L 166.815548 117.05629 
L 167.017724 118.277594 
L 167.075204 119.498898 
L 167.580183 120.720202 
L 168.578544 121.941506 
L 169.44332 123.16281 
L 170.11083 124.384114 
L 171.654321 125.605418 
L 174.644385 126.826722 
L 177.539211 128.048026 
L 178.339007 129.26933 
L 177.706265 130.490634 
L 178.310124 131.711938 
L 180.610402 132.933242 
L 181.571649 134.154545 
z
" clip-path="url(#p137e8980f2)" style="fill: #ba7517; fill-opacity: 0.7"/>
   </g>
   <g id="FillBetweenPolyCollection_4">
    <path d="M 232.513295 134.154545 
L 196.854143 134.154545 
L 199.037032 133.099783 
L 203.220878 132.04502 
L 204.71333 130.990258 
L 202.664829 129.935495 
L 200.641494 128.880733 
L 201.970013 127.82597 
L 205.822766 126.771208 
L 208.857728 125.716445 
L 209.458267 124.661683 
L 208.938265 123.60692 
L 209.252739 122.552158 
L 210.650482 121.497395 
L 211.86644 120.442633 
L 212.010597 119.38787 
L 211.551529 118.333108 
L 211.520759 117.278345 
L 212.207134 116.223583 
L 212.953076 115.16882 
L 213.118418 114.114058 
L 212.83218 113.059295 
L 212.712881 112.004533 
L 213.066741 110.94977 
L 213.581136 109.895008 
L 213.810833 108.840245 
L 213.715732 107.785483 
L 213.616619 106.73072 
L 213.74926 105.675958 
L 213.996957 104.621195 
L 214.092614 103.566433 
L 213.97336 102.51167 
L 213.843632 101.456908 
L 213.909064 100.402145 
L 214.129307 99.347383 
L 214.300172 98.29262 
L 214.316438 97.237858 
L 214.263909 96.183095 
L 214.277993 95.128333 
L 214.377152 94.07357 
L 214.466765 93.018808 
L 214.475754 91.964045 
L 214.436745 90.909283 
L 214.431235 89.85452 
L 214.487585 88.799758 
L 214.559213 87.744995 
L 214.594674 86.690233 
L 214.593647 85.63547 
L 214.59002 84.580708 
L 214.603071 83.525945 
L 214.617747 82.471183 
L 214.610276 81.41642 
L 214.582903 80.361658 
L 214.565354 79.306895 
L 214.580246 78.252133 
L 214.616758 77.19737 
L 214.647767 76.142608 
L 214.661062 75.087845 
L 214.663576 74.033083 
L 214.66498 72.97832 
L 214.665807 71.923558 
L 214.659855 70.868795 
L 214.645293 69.814033 
L 214.631524 68.75927 
L 214.631093 67.704508 
L 214.644424 66.649745 
L 214.659272 65.594983 
L 214.665748 64.54022 
L 214.665337 63.485458 
L 214.665239 62.430695 
L 214.668565 61.375933 
L 214.671912 60.32117 
L 214.67118 59.266408 
L 214.667355 58.211645 
L 214.66551 57.156883 
L 214.668718 56.10212 
L 214.674836 55.047358 
L 214.679958 53.992595 
L 214.682572 52.937833 
L 214.683403 51.88307 
L 214.683318 50.828308 
L 214.682378 49.773545 
L 214.680208 48.718783 
L 214.677129 47.66402 
L 214.674852 46.609258 
L 214.675017 45.554495 
L 214.67691 44.499733 
L 214.677961 43.44497 
L 214.676808 42.390208 
L 214.674947 41.335445 
L 214.674918 40.280683 
L 214.67729 39.22592 
L 214.680354 38.171158 
L 214.682458 37.116395 
L 214.683362 36.061633 
L 214.683521 35.00687 
L 214.6831 33.952108 
L 214.681735 32.897345 
L 214.679117 31.842583 
L 214.676094 30.78782 
L 214.674696 29.733058 
L 214.692743 29.733058 
L 214.692743 29.733058 
L 214.691345 30.78782 
L 214.688322 31.842583 
L 214.685704 32.897345 
L 214.684339 33.952108 
L 214.683918 35.00687 
L 214.684077 36.061633 
L 214.68498 37.116395 
L 214.687084 38.171158 
L 214.690148 39.22592 
L 214.692521 40.280683 
L 214.692492 41.335445 
L 214.690631 42.390208 
L 214.689478 43.44497 
L 214.690529 44.499733 
L 214.692422 45.554495 
L 214.692587 46.609258 
L 214.69031 47.66402 
L 214.68723 48.718783 
L 214.68506 49.773545 
L 214.684121 50.828308 
L 214.684036 51.88307 
L 214.684866 52.937833 
L 214.687481 53.992595 
L 214.692602 55.047358 
L 214.69872 56.10212 
L 214.701928 57.156883 
L 214.700083 58.211645 
L 214.696258 59.266408 
L 214.695527 60.32117 
L 214.698873 61.375933 
L 214.7022 62.430695 
L 214.702102 63.485458 
L 214.70169 64.54022 
L 214.708166 65.594983 
L 214.723014 66.649745 
L 214.736346 67.704508 
L 214.735914 68.75927 
L 214.722145 69.814033 
L 214.707583 70.868795 
L 214.701631 71.923558 
L 214.702459 72.97832 
L 214.703863 74.033083 
L 214.706377 75.087845 
L 214.719671 76.142608 
L 214.75068 77.19737 
L 214.787193 78.252133 
L 214.802084 79.306895 
L 214.784536 80.361658 
L 214.757162 81.41642 
L 214.749692 82.471183 
L 214.764368 83.525945 
L 214.777418 84.580708 
L 214.773791 85.63547 
L 214.772765 86.690233 
L 214.808226 87.744995 
L 214.879854 88.799758 
L 214.936204 89.85452 
L 214.930694 90.909283 
L 214.891684 91.964045 
L 214.900674 93.018808 
L 214.990287 94.07357 
L 215.089445 95.128333 
L 215.103529 96.183095 
L 215.051 97.237858 
L 215.067266 98.29262 
L 215.238132 99.347383 
L 215.458375 100.402145 
L 215.523807 101.456908 
L 215.394079 102.51167 
L 215.274825 103.566433 
L 215.370481 104.621195 
L 215.618178 105.675958 
L 215.750819 106.73072 
L 215.651707 107.785483 
L 215.556606 108.840245 
L 215.786302 109.895008 
L 216.300697 110.94977 
L 216.654557 112.004533 
L 216.535258 113.059295 
L 216.24902 114.114058 
L 216.414362 115.16882 
L 217.160305 116.223583 
L 217.84668 117.278345 
L 217.81591 118.333108 
L 217.356841 119.38787 
L 217.500999 120.442633 
L 218.716957 121.497395 
L 220.114699 122.552158 
L 220.429173 123.60692 
L 219.909172 124.661683 
L 220.50971 125.716445 
L 223.544673 126.771208 
L 227.397426 127.82597 
L 228.725944 128.880733 
L 226.70261 129.935495 
L 224.654109 130.990258 
L 226.146561 132.04502 
L 230.330407 133.099783 
L 232.513295 134.154545 
z
" clip-path="url(#p137e8980f2)" style="fill: #1d9e75; fill-opacity: 0.7"/>
   </g>
   <g id="matplotlib.axis_1">
    <g id="xtick_1">
     <g id="line2d_1">
      <defs>
       <path id="m61bd0ff2c8" d="M 0 0 
L 0 3.5 
" style="stroke: #000000; stroke-width: 0.8"/>
      </defs>
      <g>
       <use xlink:href="#m61bd0ff2c8" x="61.858781" y="140.2" style="stroke: #000000; stroke-width: 0.8"/>
      </g>
     </g>
     <g id="text_1">
      <!-- original -->
      <g transform="translate(48.963156 152.92625) scale(0.08 -0.08)">
       <defs>
        <path id="ArialMT-6f" d="M 213 1659 
Q 213 2581 725 3025 
Q 1153 3394 1769 3394 
Q 2453 3394 2887 2945 
Q 3322 2497 3322 1706 
Q 3322 1066 3130 698 
Q 2938 331 2570 128 
Q 2203 -75 1769 -75 
Q 1072 -75 642 372 
Q 213 819 213 1659 
z
M 791 1659 
Q 791 1022 1069 705 
Q 1347 388 1769 388 
Q 2188 388 2466 706 
Q 2744 1025 2744 1678 
Q 2744 2294 2464 2611 
Q 2184 2928 1769 2928 
Q 1347 2928 1069 2612 
Q 791 2297 791 1659 
z
" transform="scale(0.015625)"/>
        <path id="ArialMT-72" d="M 416 0 
L 416 3319 
L 922 3319 
L 922 2816 
Q 1116 3169 1280 3281 
Q 1444 3394 1641 3394 
Q 1925 3394 2219 3213 
L 2025 2691 
Q 1819 2813 1613 2813 
Q 1428 2813 1281 2702 
Q 1134 2591 1072 2394 
Q 978 2094 978 1738 
L 978 0 
L 416 0 
z
" transform="scale(0.015625)"/>
        <path id="ArialMT-69" d="M 425 3934 
L 425 4581 
L 988 4581 
L 988 3934 
L 425 3934 
z
M 425 0 
L 425 3319 
L 988 3319 
L 988 0 
L 425 0 
z
" transform="scale(0.015625)"/>
        <path id="ArialMT-67" d="M 319 -275 
L 866 -356 
Q 900 -609 1056 -725 
Q 1266 -881 1628 -881 
Q 2019 -881 2231 -725 
Q 2444 -569 2519 -288 
Q 2563 -116 2559 434 
Q 2191 0 1641 0 
Q 956 0 581 494 
Q 206 988 206 1678 
Q 206 2153 378 2554 
Q 550 2956 876 3175 
Q 1203 3394 1644 3394 
Q 2231 3394 2613 2919 
L 2613 3319 
L 3131 3319 
L 3131 450 
Q 3131 -325 2973 -648 
Q 2816 -972 2473 -1159 
Q 2131 -1347 1631 -1347 
Q 1038 -1347 672 -1080 
Q 306 -813 319 -275 
z
M 784 1719 
Q 784 1066 1043 766 
Q 1303 466 1694 466 
Q 2081 466 2343 764 
Q 2606 1063 2606 1700 
Q 2606 2309 2336 2618 
Q 2066 2928 1684 2928 
Q 1309 2928 1046 2623 
Q 784 2319 784 1719 
z
" transform="scale(0.015625)"/>
        <path id="ArialMT-6e" d="M 422 0 
L 422 3319 
L 928 3319 
L 928 2847 
Q 1294 3394 1984 3394 
Q 2284 3394 2536 3286 
Q 2788 3178 2913 3003 
Q 3038 2828 3088 2588 
Q 3119 2431 3119 2041 
L 3119 0 
L 2556 0 
L 2556 2019 
Q 2556 2363 2490 2533 
Q 2425 2703 2258 2804 
Q 2091 2906 1866 2906 
Q 1506 2906 1245 2678 
Q 984 2450 984 1813 
L 984 0 
L 422 0 
z
" transform="scale(0.015625)"/>
        <path id="ArialMT-61" d="M 2588 409 
Q 2275 144 1986 34 
Q 1697 -75 1366 -75 
Q 819 -75 525 192 
Q 231 459 231 875 
Q 231 1119 342 1320 
Q 453 1522 633 1644 
Q 813 1766 1038 1828 
Q 1203 1872 1538 1913 
Q 2219 1994 2541 2106 
Q 2544 2222 2544 2253 
Q 2544 2597 2384 2738 
Q 2169 2928 1744 2928 
Q 1347 2928 1158 2789 
Q 969 2650 878 2297 
L 328 2372 
Q 403 2725 575 2942 
Q 747 3159 1072 3276 
Q 1397 3394 1825 3394 
Q 2250 3394 2515 3294 
Q 2781 3194 2906 3042 
Q 3031 2891 3081 2659 
Q 3109 2516 3109 2141 
L 3109 1391 
Q 3109 606 3145 398 
Q 3181 191 3288 0 
L 2700 0 
Q 2613 175 2588 409 
z
M 2541 1666 
Q 2234 1541 1622 1453 
Q 1275 1403 1131 1340 
Q 988 1278 909 1158 
Q 831 1038 831 891 
Q 831 666 1001 516 
Q 1172 366 1500 366 
Q 1825 366 2078 508 
Q 2331 650 2450 897 
Q 2541 1088 2541 1459 
L 2541 1666 
z
" transform="scale(0.015625)"/>
        <path id="ArialMT-6c" d="M 409 0 
L 409 4581 
L 972 4581 
L 972 0 
L 409 0 
z
" transform="scale(0.015625)"/>
       </defs>
       <use xlink:href="#ArialMT-6f"/>
       <use xlink:href="#ArialMT-72" transform="translate(55.615234 0)"/>
       <use xlink:href="#ArialMT-69" transform="translate(88.916016 0)"/>
       <use xlink:href="#ArialMT-67" transform="translate(111.132812 0)"/>
       <use xlink:href="#ArialMT-69" transform="translate(166.748047 0)"/>
       <use xlink:href="#ArialMT-6e" transform="translate(188.964844 0)"/>
       <use xlink:href="#ArialMT-61" transform="translate(244.580078 0)"/>
       <use xlink:href="#ArialMT-6c" transform="translate(300.195312 0)"/>
      </g>
     </g>
    </g>
    <g id="xtick_2">
     <g id="line2d_2">
      <g>
       <use xlink:href="#m61bd0ff2c8" x="112.800427" y="140.2" style="stroke: #000000; stroke-width: 0.8"/>
      </g>
     </g>
     <g id="text_2">
      <!-- s1 only -->
      <g transform="translate(100.127302 152.95) scale(0.08 -0.08)">
       <defs>
        <path id="ArialMT-73" d="M 197 991 
L 753 1078 
Q 800 744 1014 566 
Q 1228 388 1613 388 
Q 2000 388 2187 545 
Q 2375 703 2375 916 
Q 2375 1106 2209 1216 
Q 2094 1291 1634 1406 
Q 1016 1563 777 1677 
Q 538 1791 414 1992 
Q 291 2194 291 2438 
Q 291 2659 392 2848 
Q 494 3038 669 3163 
Q 800 3259 1026 3326 
Q 1253 3394 1513 3394 
Q 1903 3394 2198 3281 
Q 2494 3169 2634 2976 
Q 2775 2784 2828 2463 
L 2278 2388 
Q 2241 2644 2061 2787 
Q 1881 2931 1553 2931 
Q 1166 2931 1000 2803 
Q 834 2675 834 2503 
Q 834 2394 903 2306 
Q 972 2216 1119 2156 
Q 1203 2125 1616 2013 
Q 2213 1853 2448 1751 
Q 2684 1650 2818 1456 
Q 2953 1263 2953 975 
Q 2953 694 2789 445 
Q 2625 197 2315 61 
Q 2006 -75 1616 -75 
Q 969 -75 630 194 
Q 291 463 197 991 
z
" transform="scale(0.015625)"/>
        <path id="ArialMT-31" d="M 2384 0 
L 1822 0 
L 1822 3584 
Q 1619 3391 1289 3197 
Q 959 3003 697 2906 
L 697 3450 
Q 1169 3672 1522 3987 
Q 1875 4303 2022 4600 
L 2384 4600 
L 2384 0 
z
" transform="scale(0.015625)"/>
        <path id="ArialMT-20" transform="scale(0.015625)"/>
        <path id="ArialMT-79" d="M 397 -1278 
L 334 -750 
Q 519 -800 656 -800 
Q 844 -800 956 -737 
Q 1069 -675 1141 -563 
Q 1194 -478 1313 -144 
Q 1328 -97 1363 -6 
L 103 3319 
L 709 3319 
L 1400 1397 
Q 1534 1031 1641 628 
Q 1738 1016 1872 1384 
L 2581 3319 
L 3144 3319 
L 1881 -56 
Q 1678 -603 1566 -809 
Q 1416 -1088 1222 -1217 
Q 1028 -1347 759 -1347 
Q 597 -1347 397 -1278 
z
" transform="scale(0.015625)"/>
       </defs>
       <use xlink:href="#ArialMT-73"/>
       <use xlink:href="#ArialMT-31" transform="translate(50 0)"/>
       <use xlink:href="#ArialMT-20" transform="translate(105.615234 0)"/>
       <use xlink:href="#ArialMT-6f" transform="translate(133.398438 0)"/>
       <use xlink:href="#ArialMT-6e" transform="translate(189.013672 0)"/>
       <use xlink:href="#ArialMT-6c" transform="translate(244.628906 0)"/>
       <use xlink:href="#ArialMT-79" transform="translate(266.845703 0)"/>
      </g>
     </g>
    </g>
    <g id="xtick_3">
     <g id="line2d_3">
      <g>
       <use xlink:href="#m61bd0ff2c8" x="163.742073" y="140.2" style="stroke: #000000; stroke-width: 0.8"/>
      </g>
     </g>
     <g id="text_3">
      <!-- switch -->
      <g transform="translate(152.628948 152.92625) scale(0.08 -0.08)">
       <defs>
        <path id="ArialMT-77" d="M 1034 0 
L 19 3319 
L 600 3319 
L 1128 1403 
L 1325 691 
Q 1338 744 1497 1375 
L 2025 3319 
L 2603 3319 
L 3100 1394 
L 3266 759 
L 3456 1400 
L 4025 3319 
L 4572 3319 
L 3534 0 
L 2950 0 
L 2422 1988 
L 2294 2553 
L 1622 0 
L 1034 0 
z
" transform="scale(0.015625)"/>
        <path id="ArialMT-74" d="M 1650 503 
L 1731 6 
Q 1494 -44 1306 -44 
Q 1000 -44 831 53 
Q 663 150 594 308 
Q 525 466 525 972 
L 525 2881 
L 113 2881 
L 113 3319 
L 525 3319 
L 525 4141 
L 1084 4478 
L 1084 3319 
L 1650 3319 
L 1650 2881 
L 1084 2881 
L 1084 941 
Q 1084 700 1114 631 
Q 1144 563 1211 522 
Q 1278 481 1403 481 
Q 1497 481 1650 503 
z
" transform="scale(0.015625)"/>
        <path id="ArialMT-63" d="M 2588 1216 
L 3141 1144 
Q 3050 572 2676 248 
Q 2303 -75 1759 -75 
Q 1078 -75 664 370 
Q 250 816 250 1647 
Q 250 2184 428 2587 
Q 606 2991 970 3192 
Q 1334 3394 1763 3394 
Q 2303 3394 2647 3120 
Q 2991 2847 3088 2344 
L 2541 2259 
Q 2463 2594 2264 2762 
Q 2066 2931 1784 2931 
Q 1359 2931 1093 2626 
Q 828 2322 828 1663 
Q 828 994 1084 691 
Q 1341 388 1753 388 
Q 2084 388 2306 591 
Q 2528 794 2588 1216 
z
" transform="scale(0.015625)"/>
        <path id="ArialMT-68" d="M 422 0 
L 422 4581 
L 984 4581 
L 984 2938 
Q 1378 3394 1978 3394 
Q 2347 3394 2619 3248 
Q 2891 3103 3008 2847 
Q 3125 2591 3125 2103 
L 3125 0 
L 2563 0 
L 2563 2103 
Q 2563 2525 2380 2717 
Q 2197 2909 1863 2909 
Q 1613 2909 1392 2779 
Q 1172 2650 1078 2428 
Q 984 2206 984 1816 
L 984 0 
L 422 0 
z
" transform="scale(0.015625)"/>
       </defs>
       <use xlink:href="#ArialMT-73"/>
       <use xlink:href="#ArialMT-77" transform="translate(50 0)"/>
       <use xlink:href="#ArialMT-69" transform="translate(122.216797 0)"/>
       <use xlink:href="#ArialMT-74" transform="translate(144.433594 0)"/>
       <use xlink:href="#ArialMT-63" transform="translate(172.216797 0)"/>
       <use xlink:href="#ArialMT-68" transform="translate(222.216797 0)"/>
      </g>
     </g>
    </g>
    <g id="xtick_4">
     <g id="line2d_4">
      <g>
       <use xlink:href="#m61bd0ff2c8" x="214.683719" y="140.2" style="stroke: #000000; stroke-width: 0.8"/>
      </g>
     </g>
     <g id="text_4">
      <!-- blend -->
      <g transform="translate(204.897469 152.92625) scale(0.08 -0.08)">
       <defs>
        <path id="ArialMT-62" d="M 941 0 
L 419 0 
L 419 4581 
L 981 4581 
L 981 2947 
Q 1338 3394 1891 3394 
Q 2197 3394 2470 3270 
Q 2744 3147 2920 2923 
Q 3097 2700 3197 2384 
Q 3297 2069 3297 1709 
Q 3297 856 2875 390 
Q 2453 -75 1863 -75 
Q 1275 -75 941 416 
L 941 0 
z
M 934 1684 
Q 934 1088 1097 822 
Q 1363 388 1816 388 
Q 2184 388 2453 708 
Q 2722 1028 2722 1663 
Q 2722 2313 2464 2622 
Q 2206 2931 1841 2931 
Q 1472 2931 1203 2611 
Q 934 2291 934 1684 
z
" transform="scale(0.015625)"/>
        <path id="ArialMT-65" d="M 2694 1069 
L 3275 997 
Q 3138 488 2766 206 
Q 2394 -75 1816 -75 
Q 1088 -75 661 373 
Q 234 822 234 1631 
Q 234 2469 665 2931 
Q 1097 3394 1784 3394 
Q 2450 3394 2872 2941 
Q 3294 2488 3294 1666 
Q 3294 1616 3291 1516 
L 816 1516 
Q 847 969 1125 678 
Q 1403 388 1819 388 
Q 2128 388 2347 550 
Q 2566 713 2694 1069 
z
M 847 1978 
L 2700 1978 
Q 2663 2397 2488 2606 
Q 2219 2931 1791 2931 
Q 1403 2931 1139 2672 
Q 875 2413 847 1978 
z
" transform="scale(0.015625)"/>
        <path id="ArialMT-64" d="M 2575 0 
L 2575 419 
Q 2259 -75 1647 -75 
Q 1250 -75 917 144 
Q 584 363 401 755 
Q 219 1147 219 1656 
Q 219 2153 384 2558 
Q 550 2963 881 3178 
Q 1213 3394 1622 3394 
Q 1922 3394 2156 3267 
Q 2391 3141 2538 2938 
L 2538 4581 
L 3097 4581 
L 3097 0 
L 2575 0 
z
M 797 1656 
Q 797 1019 1065 703 
Q 1334 388 1700 388 
Q 2069 388 2326 689 
Q 2584 991 2584 1609 
Q 2584 2291 2321 2609 
Q 2059 2928 1675 2928 
Q 1300 2928 1048 2622 
Q 797 2316 797 1656 
z
" transform="scale(0.015625)"/>
       </defs>
       <use xlink:href="#ArialMT-62"/>
       <use xlink:href="#ArialMT-6c" transform="translate(55.615234 0)"/>
       <use xlink:href="#ArialMT-65" transform="translate(77.832031 0)"/>
       <use xlink:href="#ArialMT-6e" transform="translate(133.447266 0)"/>
       <use xlink:href="#ArialMT-64" transform="translate(189.0625 0)"/>
      </g>
     </g>
    </g>
    <g id="text_5">
     <!-- Decision mode -->
     <g transform="translate(111.815625 164.36) scale(0.08 -0.08)">
      <defs>
       <path id="ArialMT-44" d="M 494 0 
L 494 4581 
L 2072 4581 
Q 2606 4581 2888 4516 
Q 3281 4425 3559 4188 
Q 3922 3881 4101 3404 
Q 4281 2928 4281 2316 
Q 4281 1794 4159 1391 
Q 4038 988 3847 723 
Q 3656 459 3429 307 
Q 3203 156 2883 78 
Q 2563 0 2147 0 
L 494 0 
z
M 1100 541 
L 2078 541 
Q 2531 541 2789 625 
Q 3047 709 3200 863 
Q 3416 1078 3536 1442 
Q 3656 1806 3656 2325 
Q 3656 3044 3420 3430 
Q 3184 3816 2847 3947 
Q 2603 4041 2063 4041 
L 1100 4041 
L 1100 541 
z
" transform="scale(0.015625)"/>
       <path id="ArialMT-6d" d="M 422 0 
L 422 3319 
L 925 3319 
L 925 2853 
Q 1081 3097 1340 3245 
Q 1600 3394 1931 3394 
Q 2300 3394 2536 3241 
Q 2772 3088 2869 2813 
Q 3263 3394 3894 3394 
Q 4388 3394 4653 3120 
Q 4919 2847 4919 2278 
L 4919 0 
L 4359 0 
L 4359 2091 
Q 4359 2428 4304 2576 
Q 4250 2725 4106 2815 
Q 3963 2906 3769 2906 
Q 3419 2906 3187 2673 
Q 2956 2441 2956 1928 
L 2956 0 
L 2394 0 
L 2394 2156 
Q 2394 2531 2256 2718 
Q 2119 2906 1806 2906 
Q 1569 2906 1367 2781 
Q 1166 2656 1075 2415 
Q 984 2175 984 1722 
L 984 0 
L 422 0 
z
" transform="scale(0.015625)"/>
      </defs>
      <use xlink:href="#ArialMT-44"/>
      <use xlink:href="#ArialMT-65" transform="translate(72.216797 0)"/>
      <use xlink:href="#ArialMT-63" transform="translate(127.832031 0)"/>
      <use xlink:href="#ArialMT-69" transform="translate(177.832031 0)"/>
      <use xlink:href="#ArialMT-73" transform="translate(200.048828 0)"/>
      <use xlink:href="#ArialMT-69" transform="translate(250.048828 0)"/>
      <use xlink:href="#ArialMT-6f" transform="translate(272.265625 0)"/>
      <use xlink:href="#ArialMT-6e" transform="translate(327.880859 0)"/>
      <use xlink:href="#ArialMT-20" transform="translate(383.496094 0)"/>
      <use xlink:href="#ArialMT-6d" transform="translate(411.279297 0)"/>
      <use xlink:href="#ArialMT-6f" transform="translate(494.580078 0)"/>
      <use xlink:href="#ArialMT-64" transform="translate(550.195312 0)"/>
      <use xlink:href="#ArialMT-65" transform="translate(605.810547 0)"/>
     </g>
    </g>
   </g>
   <g id="matplotlib.axis_2">
    <g id="ytick_1">
     <g id="line2d_5">
      <path d="M 34.605 134.154545 
L 241.9375 134.154545 
" clip-path="url(#p137e8980f2)" style="fill: none; stroke: #b0b0b0; stroke-opacity: 0.3; stroke-width: 0.8; stroke-linecap: square"/>
     </g>
     <g id="line2d_6">
      <defs>
       <path id="m22d3a34e0a" d="M 0 0 
L -3.5 0 
" style="stroke: #000000; stroke-width: 0.8"/>
      </defs>
      <g>
       <use xlink:href="#m22d3a34e0a" x="34.605" y="134.154545" style="stroke: #000000; stroke-width: 0.8"/>
      </g>
     </g>
     <g id="text_6">
      <!-- 0 -->
      <g transform="translate(23.15625 137.01767) scale(0.08 -0.08)">
       <defs>
        <path id="ArialMT-30" d="M 266 2259 
Q 266 3072 433 3567 
Q 600 4063 929 4331 
Q 1259 4600 1759 4600 
Q 2128 4600 2406 4451 
Q 2684 4303 2865 4023 
Q 3047 3744 3150 3342 
Q 3253 2941 3253 2259 
Q 3253 1453 3087 958 
Q 2922 463 2592 192 
Q 2263 -78 1759 -78 
Q 1097 -78 719 397 
Q 266 969 266 2259 
z
M 844 2259 
Q 844 1131 1108 757 
Q 1372 384 1759 384 
Q 2147 384 2411 759 
Q 2675 1134 2675 2259 
Q 2675 3391 2411 3762 
Q 2147 4134 1753 4134 
Q 1366 4134 1134 3806 
Q 844 3388 844 2259 
z
" transform="scale(0.015625)"/>
       </defs>
       <use xlink:href="#ArialMT-30"/>
      </g>
     </g>
    </g>
    <g id="ytick_2">
     <g id="line2d_7">
      <path d="M 34.605 106.675207 
L 241.9375 106.675207 
" clip-path="url(#p137e8980f2)" style="fill: none; stroke: #b0b0b0; stroke-opacity: 0.3; stroke-width: 0.8; stroke-linecap: square"/>
     </g>
     <g id="line2d_8">
      <g>
       <use xlink:href="#m22d3a34e0a" x="34.605" y="106.675207" style="stroke: #000000; stroke-width: 0.8"/>
      </g>
     </g>
     <g id="text_7">
      <!-- 5 -->
      <g transform="translate(23.15625 109.538332) scale(0.08 -0.08)">
       <defs>
        <path id="ArialMT-35" d="M 266 1200 
L 856 1250 
Q 922 819 1161 601 
Q 1400 384 1738 384 
Q 2144 384 2425 690 
Q 2706 997 2706 1503 
Q 2706 1984 2436 2262 
Q 2166 2541 1728 2541 
Q 1456 2541 1237 2417 
Q 1019 2294 894 2097 
L 366 2166 
L 809 4519 
L 3088 4519 
L 3088 3981 
L 1259 3981 
L 1013 2750 
Q 1425 3038 1878 3038 
Q 2478 3038 2890 2622 
Q 3303 2206 3303 1553 
Q 3303 931 2941 478 
Q 2500 -78 1738 -78 
Q 1113 -78 717 272 
Q 322 622 266 1200 
z
" transform="scale(0.015625)"/>
       </defs>
       <use xlink:href="#ArialMT-35"/>
      </g>
     </g>
    </g>
    <g id="ytick_3">
     <g id="line2d_9">
      <path d="M 34.605 79.195868 
L 241.9375 79.195868 
" clip-path="url(#p137e8980f2)" style="fill: none; stroke: #b0b0b0; stroke-opacity: 0.3; stroke-width: 0.8; stroke-linecap: square"/>
     </g>
     <g id="line2d_10">
      <g>
       <use xlink:href="#m22d3a34e0a" x="34.605" y="79.195868" style="stroke: #000000; stroke-width: 0.8"/>
      </g>
     </g>
     <g id="text_8">
      <!-- 10 -->
      <g transform="translate(18.7075 82.058993) scale(0.08 -0.08)">
       <use xlink:href="#ArialMT-31"/>
       <use xlink:href="#ArialMT-30" transform="translate(55.615234 0)"/>
      </g>
     </g>
    </g>
    <g id="ytick_4">
     <g id="line2d_11">
      <path d="M 34.605 51.716529 
L 241.9375 51.716529 
" clip-path="url(#p137e8980f2)" style="fill: none; stroke: #b0b0b0; stroke-opacity: 0.3; stroke-width: 0.8; stroke-linecap: square"/>
     </g>
     <g id="line2d_12">
      <g>
       <use xlink:href="#m22d3a34e0a" x="34.605" y="51.716529" style="stroke: #000000; stroke-width: 0.8"/>
      </g>
     </g>
     <g id="text_9">
      <!-- 15 -->
      <g transform="translate(18.7075 54.579654) scale(0.08 -0.08)">
       <use xlink:href="#ArialMT-31"/>
       <use xlink:href="#ArialMT-35" transform="translate(55.615234 0)"/>
      </g>
     </g>
    </g>
    <g id="ytick_5">
     <g id="line2d_13">
      <path d="M 34.605 24.23719 
L 241.9375 24.23719 
" clip-path="url(#p137e8980f2)" style="fill: none; stroke: #b0b0b0; stroke-opacity: 0.3; stroke-width: 0.8; stroke-linecap: square"/>
     </g>
     <g id="line2d_14">
      <g>
       <use xlink:href="#m22d3a34e0a" x="34.605" y="24.23719" style="stroke: #000000; stroke-width: 0.8"/>
      </g>
     </g>
     <g id="text_10">
      <!-- 20 -->
      <g transform="translate(18.7075 27.100315) scale(0.08 -0.08)">
       <defs>
        <path id="ArialMT-32" d="M 3222 541 
L 3222 0 
L 194 0 
Q 188 203 259 391 
Q 375 700 629 1000 
Q 884 1300 1366 1694 
Q 2113 2306 2375 2664 
Q 2638 3022 2638 3341 
Q 2638 3675 2398 3904 
Q 2159 4134 1775 4134 
Q 1369 4134 1125 3890 
Q 881 3647 878 3216 
L 300 3275 
Q 359 3922 746 4261 
Q 1134 4600 1788 4600 
Q 2447 4600 2831 4234 
Q 3216 3869 3216 3328 
Q 3216 3053 3103 2787 
Q 2991 2522 2730 2228 
Q 2469 1934 1863 1422 
Q 1356 997 1212 845 
Q 1069 694 975 541 
L 3222 541 
z
" transform="scale(0.015625)"/>
       </defs>
       <use xlink:href="#ArialMT-32"/>
       <use xlink:href="#ArialMT-30" transform="translate(55.615234 0)"/>
      </g>
     </g>
    </g>
    <g id="text_11">
     <!-- First-departure timestep (hours) -->
     <g transform="translate(13.02375 129.935625) rotate(-90) scale(0.08 -0.08)">
      <defs>
       <path id="ArialMT-46" d="M 525 0 
L 525 4581 
L 3616 4581 
L 3616 4041 
L 1131 4041 
L 1131 2622 
L 3281 2622 
L 3281 2081 
L 1131 2081 
L 1131 0 
L 525 0 
z
" transform="scale(0.015625)"/>
       <path id="ArialMT-2d" d="M 203 1375 
L 203 1941 
L 1931 1941 
L 1931 1375 
L 203 1375 
z
" transform="scale(0.015625)"/>
       <path id="ArialMT-70" d="M 422 -1272 
L 422 3319 
L 934 3319 
L 934 2888 
Q 1116 3141 1344 3267 
Q 1572 3394 1897 3394 
Q 2322 3394 2647 3175 
Q 2972 2956 3137 2557 
Q 3303 2159 3303 1684 
Q 3303 1175 3120 767 
Q 2938 359 2589 142 
Q 2241 -75 1856 -75 
Q 1575 -75 1351 44 
Q 1128 163 984 344 
L 984 -1272 
L 422 -1272 
z
M 931 1641 
Q 931 1000 1190 694 
Q 1450 388 1819 388 
Q 2194 388 2461 705 
Q 2728 1022 2728 1688 
Q 2728 2322 2467 2637 
Q 2206 2953 1844 2953 
Q 1484 2953 1207 2617 
Q 931 2281 931 1641 
z
" transform="scale(0.015625)"/>
       <path id="ArialMT-75" d="M 2597 0 
L 2597 488 
Q 2209 -75 1544 -75 
Q 1250 -75 995 37 
Q 741 150 617 320 
Q 494 491 444 738 
Q 409 903 409 1263 
L 409 3319 
L 972 3319 
L 972 1478 
Q 972 1038 1006 884 
Q 1059 663 1231 536 
Q 1403 409 1656 409 
Q 1909 409 2131 539 
Q 2353 669 2445 892 
Q 2538 1116 2538 1541 
L 2538 3319 
L 3100 3319 
L 3100 0 
L 2597 0 
z
" transform="scale(0.015625)"/>
       <path id="ArialMT-28" d="M 1497 -1347 
Q 1031 -759 709 28 
Q 388 816 388 1659 
Q 388 2403 628 3084 
Q 909 3875 1497 4659 
L 1900 4659 
Q 1522 4009 1400 3731 
Q 1209 3300 1100 2831 
Q 966 2247 966 1656 
Q 966 153 1900 -1347 
L 1497 -1347 
z
" transform="scale(0.015625)"/>
       <path id="ArialMT-29" d="M 791 -1347 
L 388 -1347 
Q 1322 153 1322 1656 
Q 1322 2244 1188 2822 
Q 1081 3291 891 3722 
Q 769 4003 388 4659 
L 791 4659 
Q 1378 3875 1659 3084 
Q 1900 2403 1900 1659 
Q 1900 816 1576 28 
Q 1253 -759 791 -1347 
z
" transform="scale(0.015625)"/>
      </defs>
      <use xlink:href="#ArialMT-46"/>
      <use xlink:href="#ArialMT-69" transform="translate(61.083984 0)"/>
      <use xlink:href="#ArialMT-72" transform="translate(83.300781 0)"/>
      <use xlink:href="#ArialMT-73" transform="translate(116.601562 0)"/>
      <use xlink:href="#ArialMT-74" transform="translate(166.601562 0)"/>
      <use xlink:href="#ArialMT-2d" transform="translate(194.384766 0)"/>
      <use xlink:href="#ArialMT-64" transform="translate(227.685547 0)"/>
      <use xlink:href="#ArialMT-65" transform="translate(283.300781 0)"/>
      <use xlink:href="#ArialMT-70" transform="translate(338.916016 0)"/>
      <use xlink:href="#ArialMT-61" transform="translate(394.53125 0)"/>
      <use xlink:href="#ArialMT-72" transform="translate(450.146484 0)"/>
      <use xlink:href="#ArialMT-74" transform="translate(483.447266 0)"/>
      <use xlink:href="#ArialMT-75" transform="translate(511.230469 0)"/>
      <use xlink:href="#ArialMT-72" transform="translate(566.845703 0)"/>
      <use xlink:href="#ArialMT-65" transform="translate(600.146484 0)"/>
      <use xlink:href="#ArialMT-20" transform="translate(655.761719 0)"/>
      <use xlink:href="#ArialMT-74" transform="translate(683.544922 0)"/>
      <use xlink:href="#ArialMT-69" transform="translate(711.328125 0)"/>
      <use xlink:href="#ArialMT-6d" transform="translate(733.544922 0)"/>
      <use xlink:href="#ArialMT-65" transform="translate(816.845703 0)"/>
      <use xlink:href="#ArialMT-73" transform="translate(872.460938 0)"/>
      <use xlink:href="#ArialMT-74" transform="translate(922.460938 0)"/>
      <use xlink:href="#ArialMT-65" transform="translate(950.244141 0)"/>
      <use xlink:href="#ArialMT-70" transform="translate(1005.859375 0)"/>
      <use xlink:href="#ArialMT-20" transform="translate(1061.474609 0)"/>
      <use xlink:href="#ArialMT-28" transform="translate(1089.257812 0)"/>
      <use xlink:href="#ArialMT-68" transform="translate(1122.558594 0)"/>
      <use xlink:href="#ArialMT-6f" transform="translate(1178.173828 0)"/>
      <use xlink:href="#ArialMT-75" transform="translate(1233.789062 0)"/>
      <use xlink:href="#ArialMT-72" transform="translate(1289.404297 0)"/>
      <use xlink:href="#ArialMT-73" transform="translate(1322.705078 0)"/>
      <use xlink:href="#ArialMT-29" transform="translate(1372.705078 0)"/>
     </g>
    </g>
   </g>
   <g id="LineCollection_1">
    <path d="M 52.943993 123.061686 
L 70.773569 123.061686 
" clip-path="url(#p137e8980f2)" style="fill: none; stroke: #1f77b4; stroke-width: 1.5"/>
   </g>
   <g id="LineCollection_2">
    <path d="M 52.943993 18.741322 
L 70.773569 18.741322 
" clip-path="url(#p137e8980f2)" style="fill: none; stroke: #1f77b4; stroke-width: 1.5"/>
   </g>
   <g id="LineCollection_3">
    <path d="M 52.943993 134.154545 
L 70.773569 134.154545 
" clip-path="url(#p137e8980f2)" style="fill: none; stroke: #1f77b4; stroke-width: 1.5"/>
   </g>
   <g id="LineCollection_4">
    <path d="M 61.858781 134.154545 
L 61.858781 18.741322 
" clip-path="url(#p137e8980f2)" style="fill: none; stroke: #1f77b4; stroke-width: 1.5"/>
   </g>
   <g id="LineCollection_5">
    <path d="M 52.943993 128.658678 
L 70.773569 128.658678 
" clip-path="url(#p137e8980f2)" style="fill: none; stroke: #1f77b4; stroke-width: 1.5"/>
   </g>
   <g id="LineCollection_6">
    <path d="M 103.885639 123.061686 
L 121.715215 123.061686 
" clip-path="url(#p137e8980f2)" style="fill: none; stroke: #ff7f0e; stroke-width: 1.5"/>
   </g>
   <g id="LineCollection_7">
    <path d="M 103.885639 18.741322 
L 121.715215 18.741322 
" clip-path="url(#p137e8980f2)" style="fill: none; stroke: #ff7f0e; stroke-width: 1.5"/>
   </g>
   <g id="LineCollection_8">
    <path d="M 103.885639 134.154545 
L 121.715215 134.154545 
" clip-path="url(#p137e8980f2)" style="fill: none; stroke: #ff7f0e; stroke-width: 1.5"/>
   </g>
   <g id="LineCollection_9">
    <path d="M 112.800427 134.154545 
L 112.800427 18.741322 
" clip-path="url(#p137e8980f2)" style="fill: none; stroke: #ff7f0e; stroke-width: 1.5"/>
   </g>
   <g id="LineCollection_10">
    <path d="M 103.885639 128.658678 
L 121.715215 128.658678 
" clip-path="url(#p137e8980f2)" style="fill: none; stroke: #ff7f0e; stroke-width: 1.5"/>
   </g>
   <g id="LineCollection_11">
    <path d="M 154.827285 125.739273 
L 172.656861 125.739273 
" clip-path="url(#p137e8980f2)" style="fill: none; stroke: #2ca02c; stroke-width: 1.5"/>
   </g>
   <g id="LineCollection_12">
    <path d="M 154.827285 13.245455 
L 172.656861 13.245455 
" clip-path="url(#p137e8980f2)" style="fill: none; stroke: #2ca02c; stroke-width: 1.5"/>
   </g>
   <g id="LineCollection_13">
    <path d="M 154.827285 134.154545 
L 172.656861 134.154545 
" clip-path="url(#p137e8980f2)" style="fill: none; stroke: #2ca02c; stroke-width: 1.5"/>
   </g>
   <g id="LineCollection_14">
    <path d="M 163.742073 134.154545 
L 163.742073 13.245455 
" clip-path="url(#p137e8980f2)" style="fill: none; stroke: #2ca02c; stroke-width: 1.5"/>
   </g>
   <g id="LineCollection_15">
    <path d="M 154.827285 128.658678 
L 172.656861 128.658678 
" clip-path="url(#p137e8980f2)" style="fill: none; stroke: #2ca02c; stroke-width: 1.5"/>
   </g>
   <g id="LineCollection_16">
    <path d="M 205.768931 126.69995 
L 223.598507 126.69995 
" clip-path="url(#p137e8980f2)" style="fill: none; stroke: #d62728; stroke-width: 1.5"/>
   </g>
   <g id="LineCollection_17">
    <path d="M 205.768931 29.733058 
L 223.598507 29.733058 
" clip-path="url(#p137e8980f2)" style="fill: none; stroke: #d62728; stroke-width: 1.5"/>
   </g>
   <g id="LineCollection_18">
    <path d="M 205.768931 134.154545 
L 223.598507 134.154545 
" clip-path="url(#p137e8980f2)" style="fill: none; stroke: #d62728; stroke-width: 1.5"/>
   </g>
   <g id="LineCollection_19">
    <path d="M 214.683719 134.154545 
L 214.683719 29.733058 
" clip-path="url(#p137e8980f2)" style="fill: none; stroke: #d62728; stroke-width: 1.5"/>
   </g>
   <g id="LineCollection_20">
    <path d="M 205.768931 128.658678 
L 223.598507 128.658678 
" clip-path="url(#p137e8980f2)" style="fill: none; stroke: #d62728; stroke-width: 1.5"/>
   </g>
   <g id="patch_3">
    <path d="M 34.605 140.2 
L 34.605 7.2 
" style="fill: none; stroke: #000000; stroke-width: 0.5; stroke-linejoin: miter; stroke-linecap: square"/>
   </g>
   <g id="patch_4">
    <path d="M 34.605 140.2 
L 241.9375 140.2 
" style="fill: none; stroke: #000000; stroke-width: 0.5; stroke-linejoin: miter; stroke-linecap: square"/>
   </g>
   <g id="text_12">
    <g id="patch_5">
     <path d="M 165.7421 23.658125 
L 237.79085 23.658125 
Q 239.59085 23.658125 239.59085 21.858125 
L 239.59085 9.930312 
Q 239.59085 8.130312 237.79085 8.130312 
L 165.7421 8.130312 
Q 163.9421 8.130312 163.9421 9.930312 
L 163.9421 21.858125 
Q 163.9421 23.658125 165.7421 23.658125 
z
" style="fill: #ffffff; opacity: 0.9; stroke: #808080; stroke-linejoin: miter"/>
    </g>
    <!-- α=2.0, β=2.0, κ=5.0 -->
    <g transform="translate(185.670538 14.227812) scale(0.06 -0.06)">
     <defs>
      <path id="ArialMT-3b1" d="M 2884 3319 
L 3459 3319 
Q 3241 2631 3056 1659 
Q 3275 453 3459 0 
L 2900 0 
Q 2766 313 2697 606 
Q 2438 -75 1613 -75 
Q 988 -75 606 394 
Q 225 863 225 1666 
Q 225 2491 608 2942 
Q 991 3394 1622 3394 
Q 2013 3394 2259 3236 
Q 2506 3078 2719 2756 
Q 2741 2866 2884 3319 
z
M 1716 2928 
Q 1313 2928 1078 2603 
Q 844 2278 844 1666 
Q 844 1069 1066 728 
Q 1288 388 1684 388 
Q 2072 388 2331 723 
Q 2591 1059 2591 1691 
Q 2591 2303 2348 2615 
Q 2106 2928 1716 2928 
z
" transform="scale(0.015625)"/>
      <path id="ArialMT-3d" d="M 3381 2694 
L 356 2694 
L 356 3219 
L 3381 3219 
L 3381 2694 
z
M 3381 1303 
L 356 1303 
L 356 1828 
L 3381 1828 
L 3381 1303 
z
" transform="scale(0.015625)"/>
      <path id="ArialMT-2e" d="M 581 0 
L 581 641 
L 1222 641 
L 1222 0 
L 581 0 
z
" transform="scale(0.015625)"/>
      <path id="ArialMT-2c" d="M 569 0 
L 569 641 
L 1209 641 
L 1209 0 
Q 1209 -353 1084 -570 
Q 959 -788 688 -906 
L 531 -666 
Q 709 -588 793 -436 
Q 878 -284 888 0 
L 569 0 
z
" transform="scale(0.015625)"/>
      <path id="ArialMT-3b2" d="M 997 422 
L 997 -1272 
L 438 -1272 
L 438 3144 
Q 438 3672 580 3970 
Q 722 4269 1069 4464 
Q 1416 4659 1841 4659 
Q 2469 4659 2792 4298 
Q 3116 3938 3116 3509 
Q 3116 3091 2855 2834 
Q 2594 2578 2256 2519 
Q 2800 2466 3095 2128 
Q 3391 1791 3391 1297 
Q 3391 766 3042 345 
Q 2694 -75 2034 -75 
Q 1359 -75 997 422 
z
M 1494 2700 
Q 2069 2700 2331 2900 
Q 2594 3100 2594 3478 
Q 2594 3784 2370 3990 
Q 2147 4197 1813 4197 
Q 1522 4197 1308 4044 
Q 1094 3891 1045 3703 
Q 997 3516 997 3047 
L 997 1788 
Q 997 1250 1072 997 
Q 1147 744 1394 541 
Q 1641 338 1963 338 
Q 2353 338 2579 605 
Q 2806 872 2806 1266 
Q 2806 1591 2639 1848 
Q 2472 2106 2226 2198 
Q 1981 2291 1575 2291 
L 1494 2291 
L 1494 2700 
z
" transform="scale(0.015625)"/>
      <path id="ArialMT-3ba" d="M 419 3319 
L 978 3319 
L 978 2016 
L 2325 3319 
L 3069 3319 
L 1584 1941 
L 3197 0 
L 2478 0 
L 1184 1563 
L 978 1372 
L 978 0 
L 419 0 
L 419 3319 
z
" transform="scale(0.015625)"/>
     </defs>
     <use xlink:href="#ArialMT-3b1"/>
     <use xlink:href="#ArialMT-3d" transform="translate(57.8125 0)"/>
     <use xlink:href="#ArialMT-32" transform="translate(116.210938 0)"/>
     <use xlink:href="#ArialMT-2e" transform="translate(171.826172 0)"/>
     <use xlink:href="#ArialMT-30" transform="translate(199.609375 0)"/>
     <use xlink:href="#ArialMT-2c" transform="translate(255.224609 0)"/>
     <use xlink:href="#ArialMT-20" transform="translate(283.007812 0)"/>
     <use xlink:href="#ArialMT-3b2" transform="translate(310.791016 0)"/>
     <use xlink:href="#ArialMT-3d" transform="translate(368.310547 0)"/>
     <use xlink:href="#ArialMT-32" transform="translate(426.708984 0)"/>
     <use xlink:href="#ArialMT-2e" transform="translate(482.324219 0)"/>
     <use xlink:href="#ArialMT-30" transform="translate(510.107422 0)"/>
     <use xlink:href="#ArialMT-2c" transform="translate(565.722656 0)"/>
     <use xlink:href="#ArialMT-20" transform="translate(593.505859 0)"/>
     <use xlink:href="#ArialMT-3ba" transform="translate(621.289062 0)"/>
     <use xlink:href="#ArialMT-3d" transform="translate(671.289062 0)"/>
     <use xlink:href="#ArialMT-35" transform="translate(729.6875 0)"/>
     <use xlink:href="#ArialMT-2e" transform="translate(785.302734 0)"/>
     <use xlink:href="#ArialMT-30" transform="translate(813.085938 0)"/>
    </g>
    <!-- N_agents=500, N_runs=10 -->
    <g transform="translate(165.7421 20.595312) scale(0.06 -0.06)">
     <defs>
      <path id="ArialMT-4e" d="M 488 0 
L 488 4581 
L 1109 4581 
L 3516 984 
L 3516 4581 
L 4097 4581 
L 4097 0 
L 3475 0 
L 1069 3600 
L 1069 0 
L 488 0 
z
" transform="scale(0.015625)"/>
      <path id="ArialMT-5f" d="M -97 -1272 
L -97 -866 
L 3631 -866 
L 3631 -1272 
L -97 -1272 
z
" transform="scale(0.015625)"/>
     </defs>
     <use xlink:href="#ArialMT-4e"/>
     <use xlink:href="#ArialMT-5f" transform="translate(72.216797 0)"/>
     <use xlink:href="#ArialMT-61" transform="translate(127.832031 0)"/>
     <use xlink:href="#ArialMT-67" transform="translate(183.447266 0)"/>
     <use xlink:href="#ArialMT-65" transform="translate(239.0625 0)"/>
     <use xlink:href="#ArialMT-6e" transform="translate(294.677734 0)"/>
     <use xlink:href="#ArialMT-74" transform="translate(350.292969 0)"/>
     <use xlink:href="#ArialMT-73" transform="translate(378.076172 0)"/>
     <use xlink:href="#ArialMT-3d" transform="translate(428.076172 0)"/>
     <use xlink:href="#ArialMT-35" transform="translate(486.474609 0)"/>
     <use xlink:href="#ArialMT-30" transform="translate(542.089844 0)"/>
     <use xlink:href="#ArialMT-30" transform="translate(597.705078 0)"/>
     <use xlink:href="#ArialMT-2c" transform="translate(653.320312 0)"/>
     <use xlink:href="#ArialMT-20" transform="translate(681.103516 0)"/>
     <use xlink:href="#ArialMT-4e" transform="translate(708.886719 0)"/>
     <use xlink:href="#ArialMT-5f" transform="translate(781.103516 0)"/>
     <use xlink:href="#ArialMT-72" transform="translate(836.71875 0)"/>
     <use xlink:href="#ArialMT-75" transform="translate(870.019531 0)"/>
     <use xlink:href="#ArialMT-6e" transform="translate(925.634766 0)"/>
     <use xlink:href="#ArialMT-73" transform="translate(981.25 0)"/>
     <use xlink:href="#ArialMT-3d" transform="translate(1031.25 0)"/>
     <use xlink:href="#ArialMT-31" transform="translate(1089.648438 0)"/>
     <use xlink:href="#ArialMT-30" transform="translate(1145.263672 0)"/>
    </g>
   </g>
  </g>
 </g>
 <defs>
  <clipPath id="p137e8980f2">
   <rect x="34.605" y="7.2" width="207.3325" height="133"/>
  </clipPath>
 </defs>
</svg>
