<?xml version="1.0" encoding="utf-8" standalone="no"?>
<!DOCTYPE svg PUBLIC "-//W3C//DTD SVG 1.1//EN"
  "http://www.w3.org/Graphics/SVG/1.1/DTD/svg11.dtd">
<svg xmlns:xlink="http://www.w3.org/1999/xlink" width="249.08875pt" height="173.22375pt" viewBox="0 0 249.08875 173.22375" xmlns="http://www.w3.org/2000/svg" version="1.1">
 <metadata>
  <rdf:RDF xmlns:dc="http://purl.org/dc/elements/1.1/" xmlns:cc="http://creativecommons.org/ns#" xmlns:rdf="http://www.w3.org/1999/02/22-rdf-syntax-ns#">
   <cc:Work>
    <dc:type rdf:resource="http://purl.org/dc/dcmitype/StillImage"/>
    <dc:date>2026-03-22T18:17:57.607199</dc:date>
    <dc:format>image/svg+xml</dc:format>
    <dc:creator>
     <cc:Agent>
      <dc:title>Matplotlib v3.10.7, https://matplotlib.org/</dc:title>
     </cc:Agent>
    </dc:creator>
   </cc:Work>
  </rdf:RDF>
 </metadata>
 <defs>
  <style type="text/css">*{stroke-linejoin: round; stroke-linecap: butt}</style>
 </defs>
 <g id="figure_1">
  <g id="patch_1">
   <path d="M 0 173.22375 
L 249.08875 173.22375 
L 249.08875 0 
L 0 0 
z
" style="fill: #ffffff"/>
  </g>
  <g id="axes_1">
   <g id="patch_2">
    <path d="M 41.27625 140.2 
L 241.88875 140.2 
L 241.88875 7.2 
L 41.27625 7.2 
z
" style="fill: #ffffff"/>
   </g>
   <g id="FillBetweenPolyCollection_1">
    <defs>
     <path id="m348f261a38" d="M 41.27625 -33.02375 
L 41.27625 -33.02375 
L 44.062535 -33.02375 
L 46.848819 -33.02375 
L 49.635104 -33.02375 
L 52.421389 -33.02375 
L 55.207674 -33.02375 
L 57.993958 -33.02375 
L 60.780243 -33.02375 
L 63.566528 -33.02375 
L 66.352812 -33.02375 
L 69.139097 -33.02375 
L 71.925382 -33.02375 
L 74.711667 -33.02375 
L 77.497951 -33.02375 
L 80.284236 -33.02375 
L 83.070521 -33.02375 
L 85.856806 -33.02375 
L 88.64309 -33.02375 
L 91.429375 -33.02375 
L 94.21566 -33.02375 
L 97.001944 -33.02375 
L 99.788229 -33.02375 
L 102.574514 -33.02375 
L 105.360799 -33.02375 
L 108.147083 -33.02375 
L 110.933368 -33.02375 
L 113.719653 -33.02375 
L 116.505938 -33.02375 
L 119.292222 -33.02375 
L 122.078507 -33.02375 
L 124.864792 -33.02375 
L 127.651076 -33.02375 
L 130.437361 -33.02375 
L 133.223646 -33.02375 
L 136.009931 -33.02375 
L 138.796215 -33.02375 
L 141.5825 -33.02375 
L 144.368785 -33.02375 
L 147.155069 -33.02375 
L 149.941354 -33.02375 
L 152.727639 -33.02375 
L 155.513924 -33.02375 
L 158.300208 -33.02375 
L 161.086493 -33.02375 
L 163.872778 -33.02375 
L 166.659063 -33.02375 
L 169.445347 -33.02375 
L 172.231632 -33.02375 
L 175.017917 -33.02375 
L 177.804201 -33.02375 
L 180.590486 -33.02375 
L 183.376771 -33.02375 
L 186.163056 -33.02375 
L 188.94934 -33.02375 
L 191.735625 -33.02375 
L 194.52191 -33.02375 
L 197.308194 -33.02375 
L 200.094479 -33.02375 
L 202.880764 -33.02375 
L 205.667049 -33.02375 
L 208.453333 -33.02375 
L 211.239618 -33.02375 
L 214.025903 -33.02375 
L 216.812187 -33.02375 
L 219.598472 -33.02375 
L 222.384757 -33.02375 
L 225.171042 -33.02375 
L 227.957326 -33.02375 
L 230.743611 -33.02375 
L 233.529896 -33.02375 
L 236.316181 -33.02375 
L 239.102465 -33.02375 
L 241.88875 -33.02375 
L 241.88875 -33.02375 
L 241.88875 -33.02375 
L 239.102465 -33.02375 
L 236.316181 -33.02375 
L 233.529896 -33.02375 
L 230.743611 -33.02375 
L 227.957326 -33.02375 
L 225.171042 -33.02375 
L 222.384757 -33.02375 
L 219.598472 -33.02375 
L 216.812187 -33.02375 
L 214.025903 -33.02375 
L 211.239618 -33.02375 
L 208.453333 -33.02375 
L 205.667049 -33.02375 
L 202.880764 -33.02375 
L 200.094479 -33.02375 
L 197.308194 -33.02375 
L 194.52191 -33.02375 
L 191.735625 -33.02375 
L 188.94934 -33.02375 
L 186.163056 -33.02375 
L 183.376771 -33.02375 
L 180.590486 -33.02375 
L 177.804201 -33.02375 
L 175.017917 -33.02375 
L 172.231632 -33.02375 
L 169.445347 -33.02375 
L 166.659063 -33.02375 
L 163.872778 -33.02375 
L 161.086493 -33.02375 
L 158.300208 -33.02375 
L 155.513924 -33.02375 
L 152.727639 -33.02375 
L 149.941354 -33.02375 
L 147.155069 -33.02375 
L 144.368785 -33.02375 
L 141.5825 -33.02375 
L 138.796215 -33.02375 
L 136.009931 -33.02375 
L 133.223646 -33.02375 
L 130.437361 -33.02375 
L 127.651076 -33.02375 
L 124.864792 -33.02375 
L 122.078507 -33.02375 
L 119.292222 -33.02375 
L 116.505938 -33.02375 
L 113.719653 -33.02375 
L 110.933368 -33.02375 
L 108.147083 -33.02375 
L 105.360799 -33.02375 
L 102.574514 -33.02375 
L 99.788229 -33.02375 
L 97.001944 -33.02375 
L 94.21566 -33.02375 
L 91.429375 -33.02375 
L 88.64309 -33.02375 
L 85.856806 -33.02375 
L 83.070521 -33.02375 
L 80.284236 -33.02375 
L 77.497951 -33.02375 
L 74.711667 -33.02375 
L 71.925382 -33.02375 
L 69.139097 -33.02375 
L 66.352812 -33.02375 
L 63.566528 -33.02375 
L 60.780243 -33.02375 
L 57.993958 -33.02375 
L 55.207674 -33.02375 
L 52.421389 -33.02375 
L 49.635104 -33.02375 
L 46.848819 -33.02375 
L 44.062535 -33.02375 
L 41.27625 -33.02375 
z
" style="stroke: #888780; stroke-opacity: 0.25"/>
    </defs>
    <g clip-path="url(#pd385b81a31)">
     <use xlink:href="#m348f261a38" x="0" y="173.22375" style="fill: #888780; fill-opacity: 0.25; stroke: #888780; stroke-opacity: 0.25"/>
    </g>
   </g>
   <g id="FillBetweenPolyCollection_2">
    <defs>
     <path id="me1b9bdcb3e" d="M 41.27625 -33.02375 
L 41.27625 -33.02375 
L 44.062535 -33.02375 
L 46.848819 -33.02375 
L 49.635104 -33.02375 
L 52.421389 -33.02375 
L 55.207674 -33.02375 
L 57.993958 -33.02375 
L 60.780243 -33.02375 
L 63.566528 -33.02375 
L 66.352812 -33.02375 
L 69.139097 -33.02375 
L 71.925382 -33.02375 
L 74.711667 -33.02375 
L 77.497951 -33.02375 
L 80.284236 -33.02375 
L 83.070521 -33.02375 
L 85.856806 -33.02375 
L 88.64309 -33.02375 
L 91.429375 -33.02375 
L 94.21566 -33.02375 
L 97.001944 -33.02375 
L 99.788229 -33.02375 
L 102.574514 -33.02375 
L 105.360799 -33.02375 
L 108.147083 -33.02375 
L 110.933368 -33.02375 
L 113.719653 -33.02375 
L 116.505938 -33.02375 
L 119.292222 -33.02375 
L 122.078507 -33.02375 
L 124.864792 -33.02375 
L 127.651076 -33.02375 
L 130.437361 -33.02375 
L 133.223646 -33.02375 
L 136.009931 -33.02375 
L 138.796215 -33.02375 
L 141.5825 -33.02375 
L 144.368785 -33.02375 
L 147.155069 -33.02375 
L 149.941354 -33.02375 
L 152.727639 -33.02375 
L 155.513924 -33.02375 
L 158.300208 -33.02375 
L 161.086493 -33.02375 
L 163.872778 -33.02375 
L 166.659063 -33.02375 
L 169.445347 -33.02375 
L 172.231632 -33.02375 
L 175.017917 -33.02375 
L 177.804201 -33.02375 
L 180.590486 -33.02375 
L 183.376771 -33.02375 
L 186.163056 -33.02375 
L 188.94934 -33.02375 
L 191.735625 -33.02375 
L 194.52191 -33.02375 
L 197.308194 -33.02375 
L 200.094479 -33.02375 
L 202.880764 -33.02375 
L 205.667049 -33.02375 
L 208.453333 -33.02375 
L 211.239618 -33.02375 
L 214.025903 -33.02375 
L 216.812187 -33.02375 
L 219.598472 -33.02375 
L 222.384757 -33.02375 
L 225.171042 -33.02375 
L 227.957326 -33.02375 
L 230.743611 -33.02375 
L 233.529896 -33.02375 
L 236.316181 -33.02375 
L 239.102465 -33.02375 
L 241.88875 -33.02375 
L 241.88875 -33.02375 
L 241.88875 -33.02375 
L 239.102465 -33.02375 
L 236.316181 -33.02375 
L 233.529896 -33.02375 
L 230.743611 -33.02375 
L 227.957326 -33.02375 
L 225.171042 -33.02375 
L 222.384757 -33.02375 
L 219.598472 -33.02375 
L 216.812187 -33.02375 
L 214.025903 -33.02375 
L 211.239618 -33.02375 
L 208.453333 -33.02375 
L 205.667049 -33.02375 
L 202.880764 -33.02375 
L 200.094479 -33.02375 
L 197.308194 -33.02375 
L 194.52191 -33.02375 
L 191.735625 -33.02375 
L 188.94934 -33.02375 
L 186.163056 -33.02375 
L 183.376771 -33.02375 
L 180.590486 -33.02375 
L 177.804201 -33.02375 
L 175.017917 -33.02375 
L 172.231632 -33.02375 
L 169.445347 -33.02375 
L 166.659063 -33.02375 
L 163.872778 -33.02375 
L 161.086493 -33.02375 
L 158.300208 -33.02375 
L 155.513924 -33.02375 
L 152.727639 -33.02375 
L 149.941354 -33.02375 
L 147.155069 -33.02375 
L 144.368785 -33.02375 
L 141.5825 -33.02375 
L 138.796215 -33.02375 
L 136.009931 -33.02375 
L 133.223646 -33.02375 
L 130.437361 -33.02375 
L 127.651076 -33.02375 
L 124.864792 -33.02375 
L 122.078507 -33.02375 
L 119.292222 -33.02375 
L 116.505938 -33.02375 
L 113.719653 -33.02375 
L 110.933368 -33.02375 
L 108.147083 -33.02375 
L 105.360799 -33.02375 
L 102.574514 -33.02375 
L 99.788229 -33.02375 
L 97.001944 -33.02375 
L 94.21566 -33.02375 
L 91.429375 -33.02375 
L 88.64309 -33.02375 
L 85.856806 -33.02375 
L 83.070521 -33.02375 
L 80.284236 -33.02375 
L 77.497951 -33.02375 
L 74.711667 -33.02375 
L 71.925382 -33.02375 
L 69.139097 -33.02375 
L 66.352812 -33.02375 
L 63.566528 -33.02375 
L 60.780243 -33.02375 
L 57.993958 -33.02375 
L 55.207674 -33.02375 
L 52.421389 -33.02375 
L 49.635104 -33.02375 
L 46.848819 -33.02375 
L 44.062535 -33.02375 
L 41.27625 -33.02375 
z
" style="stroke: #378add; stroke-opacity: 0.25"/>
    </defs>
    <g clip-path="url(#pd385b81a31)">
     <use xlink:href="#me1b9bdcb3e" x="0" y="173.22375" style="fill: #378add; fill-opacity: 0.25; stroke: #378add; stroke-opacity: 0.25"/>
    </g>
   </g>
   <g id="FillBetweenPolyCollection_3">
    <defs>
     <path id="mf7909ff22d" d="M 41.27625 -33.02375 
L 41.27625 -33.02375 
L 44.062535 -33.02375 
L 46.848819 -33.02375 
L 49.635104 -33.02375 
L 52.421389 -33.02375 
L 55.207674 -33.02375 
L 57.993958 -33.02375 
L 60.780243 -33.02375 
L 63.566528 -33.02375 
L 66.352812 -33.02375 
L 69.139097 -33.02375 
L 71.925382 -33.02375 
L 74.711667 -33.02375 
L 77.497951 -33.02375 
L 80.284236 -33.02375 
L 83.070521 -33.02375 
L 85.856806 -33.02375 
L 88.64309 -33.02375 
L 91.429375 -33.02375 
L 94.21566 -33.02375 
L 97.001944 -33.02375 
L 99.788229 -33.02375 
L 102.574514 -33.02375 
L 105.360799 -33.02375 
L 108.147083 -33.02375 
L 110.933368 -33.02375 
L 113.719653 -33.02375 
L 116.505938 -33.02375 
L 119.292222 -33.02375 
L 122.078507 -33.02375 
L 124.864792 -33.02375 
L 127.651076 -33.02375 
L 130.437361 -33.02375 
L 133.223646 -33.02375 
L 136.009931 -33.02375 
L 138.796215 -33.02375 
L 141.5825 -33.02375 
L 144.368785 -33.02375 
L 147.155069 -33.02375 
L 149.941354 -33.02375 
L 152.727639 -33.02375 
L 155.513924 -33.02375 
L 158.300208 -33.02375 
L 161.086493 -33.02375 
L 163.872778 -33.02375 
L 166.659063 -33.02375 
L 169.445347 -33.02375 
L 172.231632 -33.02375 
L 175.017917 -33.02375 
L 177.804201 -33.02375 
L 180.590486 -33.02375 
L 183.376771 -33.02375 
L 186.163056 -33.02375 
L 188.94934 -33.02375 
L 191.735625 -33.02375 
L 194.52191 -33.02375 
L 197.308194 -33.02375 
L 200.094479 -33.02375 
L 202.880764 -33.02375 
L 205.667049 -33.02375 
L 208.453333 -33.02375 
L 211.239618 -33.02375 
L 214.025903 -33.02375 
L 216.812187 -33.02375 
L 219.598472 -33.02375 
L 222.384757 -33.02375 
L 225.171042 -33.02375 
L 227.957326 -33.02375 
L 230.743611 -33.02375 
L 233.529896 -33.02375 
L 236.316181 -33.02375 
L 239.102465 -33.02375 
L 241.88875 -33.02375 
L 241.88875 -33.02375 
L 241.88875 -33.02375 
L 239.102465 -33.02375 
L 236.316181 -33.02375 
L 233.529896 -33.02375 
L 230.743611 -33.02375 
L 227.957326 -33.02375 
L 225.171042 -33.02375 
L 222.384757 -33.02375 
L 219.598472 -33.02375 
L 216.812187 -33.02375 
L 214.025903 -33.02375 
L 211.239618 -33.02375 
L 208.453333 -33.02375 
L 205.667049 -33.02375 
L 202.880764 -33.02375 
L 200.094479 -33.02375 
L 197.308194 -33.02375 
L 194.52191 -33.02375 
L 191.735625 -33.02375 
L 188.94934 -33.02375 
L 186.163056 -33.02375 
L 183.376771 -33.02375 
L 180.590486 -33.02375 
L 177.804201 -33.02375 
L 175.017917 -33.02375 
L 172.231632 -33.02375 
L 169.445347 -33.02375 
L 166.659063 -33.02375 
L 163.872778 -33.02375 
L 161.086493 -33.02375 
L 158.300208 -33.02375 
L 155.513924 -33.02375 
L 152.727639 -33.02375 
L 149.941354 -33.02375 
L 147.155069 -33.02375 
L 144.368785 -33.02375 
L 141.5825 -33.02375 
L 138.796215 -33.02375 
L 136.009931 -33.02375 
L 133.223646 -33.02375 
L 130.437361 -33.02375 
L 127.651076 -33.02375 
L 124.864792 -33.02375 
L 122.078507 -33.02375 
L 119.292222 -33.02375 
L 116.505938 -33.02375 
L 113.719653 -33.02375 
L 110.933368 -33.02375 
L 108.147083 -33.02375 
L 105.360799 -33.02375 
L 102.574514 -33.02375 
L 99.788229 -33.02375 
L 97.001944 -33.02375 
L 94.21566 -33.02375 
L 91.429375 -33.02375 
L 88.64309 -33.02375 
L 85.856806 -33.02375 
L 83.070521 -33.02375 
L 80.284236 -33.02375 
L 77.497951 -33.02375 
L 74.711667 -33.02375 
L 71.925382 -33.02375 
L 69.139097 -33.02375 
L 66.352812 -33.02375 
L 63.566528 -33.02375 
L 60.780243 -33.02375 
L 57.993958 -33.02375 
L 55.207674 -33.02375 
L 52.421389 -33.02375 
L 49.635104 -33.02375 
L 46.848819 -33.02375 
L 44.062535 -33.02375 
L 41.27625 -33.02375 
z
" style="stroke: #ba7517; stroke-opacity: 0.25"/>
    </defs>
    <g clip-path="url(#pd385b81a31)">
     <use xlink:href="#mf7909ff22d" x="0" y="173.22375" style="fill: #ba7517; fill-opacity: 0.25; stroke: #ba7517; stroke-opacity: 0.25"/>
    </g>
   </g>
   <g id="FillBetweenPolyCollection_4">
    <defs>
     <path id="m408bcb59c2" d="M 41.27625 -33.02375 
L 41.27625 -33.02375 
L 44.062535 -33.02375 
L 46.848819 -33.02375 
L 49.635104 -33.02375 
L 52.421389 -33.02375 
L 55.207674 -33.02375 
L 57.993958 -33.02375 
L 60.780243 -33.02375 
L 63.566528 -33.02375 
L 66.352812 -33.02375 
L 69.139097 -33.02375 
L 71.925382 -33.02375 
L 74.711667 -33.02375 
L 77.497951 -33.02375 
L 80.284236 -33.02375 
L 83.070521 -33.02375 
L 85.856806 -33.02375 
L 88.64309 -33.02375 
L 91.429375 -33.02375 
L 94.21566 -33.02375 
L 97.001944 -33.02375 
L 99.788229 -33.02375 
L 102.574514 -33.02375 
L 105.360799 -33.02375 
L 108.147083 -33.02375 
L 110.933368 -33.02375 
L 113.719653 -33.02375 
L 116.505938 -33.02375 
L 119.292222 -33.02375 
L 122.078507 -33.02375 
L 124.864792 -33.02375 
L 127.651076 -33.02375 
L 130.437361 -33.02375 
L 133.223646 -33.02375 
L 136.009931 -33.02375 
L 138.796215 -33.02375 
L 141.5825 -33.02375 
L 144.368785 -33.02375 
L 147.155069 -33.02375 
L 149.941354 -33.02375 
L 152.727639 -33.02375 
L 155.513924 -33.02375 
L 158.300208 -33.02375 
L 161.086493 -33.02375 
L 163.872778 -33.02375 
L 166.659063 -33.02375 
L 169.445347 -33.02375 
L 172.231632 -33.02375 
L 175.017917 -33.02375 
L 177.804201 -33.02375 
L 180.590486 -33.02375 
L 183.376771 -33.02375 
L 186.163056 -33.02375 
L 188.94934 -33.02375 
L 191.735625 -33.02375 
L 194.52191 -33.02375 
L 197.308194 -33.02375 
L 200.094479 -33.02375 
L 202.880764 -33.02375 
L 205.667049 -33.02375 
L 208.453333 -33.02375 
L 211.239618 -33.02375 
L 214.025903 -33.02375 
L 216.812187 -33.02375 
L 219.598472 -33.02375 
L 222.384757 -33.02375 
L 225.171042 -33.02375 
L 227.957326 -33.02375 
L 230.743611 -33.02375 
L 233.529896 -33.02375 
L 236.316181 -33.02375 
L 239.102465 -33.02375 
L 241.88875 -33.02375 
L 241.88875 -33.02375 
L 241.88875 -33.02375 
L 239.102465 -33.02375 
L 236.316181 -33.02375 
L 233.529896 -33.02375 
L 230.743611 -33.02375 
L 227.957326 -33.02375 
L 225.171042 -33.02375 
L 222.384757 -33.02375 
L 219.598472 -33.02375 
L 216.812187 -33.02375 
L 214.025903 -33.02375 
L 211.239618 -33.02375 
L 208.453333 -33.02375 
L 205.667049 -33.02375 
L 202.880764 -33.02375 
L 200.094479 -33.02375 
L 197.308194 -33.02375 
L 194.52191 -33.02375 
L 191.735625 -33.02375 
L 188.94934 -33.02375 
L 186.163056 -33.02375 
L 183.376771 -33.02375 
L 180.590486 -33.02375 
L 177.804201 -33.02375 
L 175.017917 -33.02375 
L 172.231632 -33.02375 
L 169.445347 -33.02375 
L 166.659063 -33.02375 
L 163.872778 -33.02375 
L 161.086493 -33.02375 
L 158.300208 -33.02375 
L 155.513924 -33.02375 
L 152.727639 -33.02375 
L 149.941354 -33.02375 
L 147.155069 -33.02375 
L 144.368785 -33.02375 
L 141.5825 -33.02375 
L 138.796215 -33.02375 
L 136.009931 -33.02375 
L 133.223646 -33.02375 
L 130.437361 -33.02375 
L 127.651076 -33.02375 
L 124.864792 -33.02375 
L 122.078507 -33.02375 
L 119.292222 -33.02375 
L 116.505938 -33.02375 
L 113.719653 -33.02375 
L 110.933368 -33.02375 
L 108.147083 -33.02375 
L 105.360799 -33.02375 
L 102.574514 -33.02375 
L 99.788229 -33.02375 
L 97.001944 -33.02375 
L 94.21566 -33.02375 
L 91.429375 -33.02375 
L 88.64309 -33.02375 
L 85.856806 -33.02375 
L 83.070521 -33.02375 
L 80.284236 -33.02375 
L 77.497951 -33.02375 
L 74.711667 -33.02375 
L 71.925382 -33.02375 
L 69.139097 -33.02375 
L 66.352812 -33.02375 
L 63.566528 -33.02375 
L 60.780243 -33.02375 
L 57.993958 -33.02375 
L 55.207674 -33.02375 
L 52.421389 -33.02375 
L 49.635104 -33.02375 
L 46.848819 -33.02375 
L 44.062535 -33.02375 
L 41.27625 -33.02375 
z
" style="stroke: #1d9e75; stroke-opacity: 0.25"/>
    </defs>
    <g clip-path="url(#pd385b81a31)">
     <use xlink:href="#m408bcb59c2" x="0" y="173.22375" style="fill: #1d9e75; fill-opacity: 0.25; stroke: #1d9e75; stroke-opacity: 0.25"/>
    </g>
   </g>
   <g id="matplotlib.axis_1">
    <g id="xtick_1">
     <g id="line2d_1">
      <path d="M 41.27625 140.2 
L 41.27625 7.2 
" clip-path="url(#pd385b81a31)" style="fill: none; stroke: #b0b0b0; stroke-opacity: 0.3; stroke-width: 0.8; stroke-linecap: square"/>
     </g>
     <g id="line2d_2">
      <defs>
       <path id="ma745a78eb5" d="M 0 0 
L 0 3.5 
" style="stroke: #000000; stroke-width: 0.8"/>
      </defs>
      <g>
       <use xlink:href="#ma745a78eb5" x="41.27625" y="140.2" style="stroke: #000000; stroke-width: 0.8"/>
      </g>
     </g>
     <g id="text_1">
      <!-- 0 -->
      <g transform="translate(39.051875 152.92625) scale(0.08 -0.08)">
       <defs>
        <path id="ArialMT-30" d="M 266 2259 
Q 266 3072 433 3567 
Q 600 4063 929 4331 
Q 1259 4600 1759 4600 
Q 2128 4600 2406 4451 
Q 2684 4303 2865 4023 
Q 3047 3744 3150 3342 
Q 3253 2941 3253 2259 
Q 3253 1453 3087 958 
Q 2922 463 2592 192 
Q 2263 -78 1759 -78 
Q 1097 -78 719 397 
Q 266 969 266 2259 
z
M 844 2259 
Q 844 1131 1108 757 
Q 1372 384 1759 384 
Q 2147 384 2411 759 
Q 2675 1134 2675 2259 
Q 2675 3391 2411 3762 
Q 2147 4134 1753 4134 
Q 1366 4134 1134 3806 
Q 844 3388 844 2259 
z
" transform="scale(0.015625)"/>
       </defs>
       <use xlink:href="#ArialMT-30"/>
      </g>
     </g>
    </g>
    <g id="xtick_2">
     <g id="line2d_3">
      <path d="M 69.139097 140.2 
L 69.139097 7.2 
" clip-path="url(#pd385b81a31)" style="fill: none; stroke: #b0b0b0; stroke-opacity: 0.3; stroke-width: 0.8; stroke-linecap: square"/>
     </g>
     <g id="line2d_4">
      <g>
       <use xlink:href="#ma745a78eb5" x="69.139097" y="140.2" style="stroke: #000000; stroke-width: 0.8"/>
      </g>
     </g>
     <g id="text_2">
      <!-- 10 -->
      <g transform="translate(64.690347 152.92625) scale(0.08 -0.08)">
       <defs>
        <path id="ArialMT-31" d="M 2384 0 
L 1822 0 
L 1822 3584 
Q 1619 3391 1289 3197 
Q 959 3003 697 2906 
L 697 3450 
Q 1169 3672 1522 3987 
Q 1875 4303 2022 4600 
L 2384 4600 
L 2384 0 
z
" transform="scale(0.015625)"/>
       </defs>
       <use xlink:href="#ArialMT-31"/>
       <use xlink:href="#ArialMT-30" transform="translate(55.615234 0)"/>
      </g>
     </g>
    </g>
    <g id="xtick_3">
     <g id="line2d_5">
      <path d="M 97.001944 140.2 
L 97.001944 7.2 
" clip-path="url(#pd385b81a31)" style="fill: none; stroke: #b0b0b0; stroke-opacity: 0.3; stroke-width: 0.8; stroke-linecap: square"/>
     </g>
     <g id="line2d_6">
      <g>
       <use xlink:href="#ma745a78eb5" x="97.001944" y="140.2" style="stroke: #000000; stroke-width: 0.8"/>
      </g>
     </g>
     <g id="text_3">
      <!-- 20 -->
      <g transform="translate(92.553194 152.92625) scale(0.08 -0.08)">
       <defs>
        <path id="ArialMT-32" d="M 3222 541 
L 3222 0 
L 194 0 
Q 188 203 259 391 
Q 375 700 629 1000 
Q 884 1300 1366 1694 
Q 2113 2306 2375 2664 
Q 2638 3022 2638 3341 
Q 2638 3675 2398 3904 
Q 2159 4134 1775 4134 
Q 1369 4134 1125 3890 
Q 881 3647 878 3216 
L 300 3275 
Q 359 3922 746 4261 
Q 1134 4600 1788 4600 
Q 2447 4600 2831 4234 
Q 3216 3869 3216 3328 
Q 3216 3053 3103 2787 
Q 2991 2522 2730 2228 
Q 2469 1934 1863 1422 
Q 1356 997 1212 845 
Q 1069 694 975 541 
L 3222 541 
z
" transform="scale(0.015625)"/>
       </defs>
       <use xlink:href="#ArialMT-32"/>
       <use xlink:href="#ArialMT-30" transform="translate(55.615234 0)"/>
      </g>
     </g>
    </g>
    <g id="xtick_4">
     <g id="line2d_7">
      <path d="M 124.864792 140.2 
L 124.864792 7.2 
" clip-path="url(#pd385b81a31)" style="fill: none; stroke: #b0b0b0; stroke-opacity: 0.3; stroke-width: 0.8; stroke-linecap: square"/>
     </g>
     <g id="line2d_8">
      <g>
       <use xlink:href="#ma745a78eb5" x="124.864792" y="140.2" style="stroke: #000000; stroke-width: 0.8"/>
      </g>
     </g>
     <g id="text_4">
      <!-- 30 -->
      <g transform="translate(120.416042 152.92625) scale(0.08 -0.08)">
       <defs>
        <path id="ArialMT-33" d="M 269 1209 
L 831 1284 
Q 928 806 1161 595 
Q 1394 384 1728 384 
Q 2125 384 2398 659 
Q 2672 934 2672 1341 
Q 2672 1728 2419 1979 
Q 2166 2231 1775 2231 
Q 1616 2231 1378 2169 
L 1441 2663 
Q 1497 2656 1531 2656 
Q 1891 2656 2178 2843 
Q 2466 3031 2466 3422 
Q 2466 3731 2256 3934 
Q 2047 4138 1716 4138 
Q 1388 4138 1169 3931 
Q 950 3725 888 3313 
L 325 3413 
Q 428 3978 793 4289 
Q 1159 4600 1703 4600 
Q 2078 4600 2393 4439 
Q 2709 4278 2876 4000 
Q 3044 3722 3044 3409 
Q 3044 3113 2884 2869 
Q 2725 2625 2413 2481 
Q 2819 2388 3044 2092 
Q 3269 1797 3269 1353 
Q 3269 753 2831 336 
Q 2394 -81 1725 -81 
Q 1122 -81 723 278 
Q 325 638 269 1209 
z
" transform="scale(0.015625)"/>
       </defs>
       <use xlink:href="#ArialMT-33"/>
       <use xlink:href="#ArialMT-30" transform="translate(55.615234 0)"/>
      </g>
     </g>
    </g>
    <g id="xtick_5">
     <g id="line2d_9">
      <path d="M 152.727639 140.2 
L 152.727639 7.2 
" clip-path="url(#pd385b81a31)" style="fill: none; stroke: #b0b0b0; stroke-opacity: 0.3; stroke-width: 0.8; stroke-linecap: square"/>
     </g>
     <g id="line2d_10">
      <g>
       <use xlink:href="#ma745a78eb5" x="152.727639" y="140.2" style="stroke: #000000; stroke-width: 0.8"/>
      </g>
     </g>
     <g id="text_5">
      <!-- 40 -->
      <g transform="translate(148.278889 152.92625) scale(0.08 -0.08)">
       <defs>
        <path id="ArialMT-34" d="M 2069 0 
L 2069 1097 
L 81 1097 
L 81 1613 
L 2172 4581 
L 2631 4581 
L 2631 1613 
L 3250 1613 
L 3250 1097 
L 2631 1097 
L 2631 0 
L 2069 0 
z
M 2069 1613 
L 2069 3678 
L 634 1613 
L 2069 1613 
z
" transform="scale(0.015625)"/>
       </defs>
       <use xlink:href="#ArialMT-34"/>
       <use xlink:href="#ArialMT-30" transform="translate(55.615234 0)"/>
      </g>
     </g>
    </g>
    <g id="xtick_6">
     <g id="line2d_11">
      <path d="M 180.590486 140.2 
L 180.590486 7.2 
" clip-path="url(#pd385b81a31)" style="fill: none; stroke: #b0b0b0; stroke-opacity: 0.3; stroke-width: 0.8; stroke-linecap: square"/>
     </g>
     <g id="line2d_12">
      <g>
       <use xlink:href="#ma745a78eb5" x="180.590486" y="140.2" style="stroke: #000000; stroke-width: 0.8"/>
      </g>
     </g>
     <g id="text_6">
      <!-- 50 -->
      <g transform="translate(176.141736 152.92625) scale(0.08 -0.08)">
       <defs>
        <path id="ArialMT-35" d="M 266 1200 
L 856 1250 
Q 922 819 1161 601 
Q 1400 384 1738 384 
Q 2144 384 2425 690 
Q 2706 997 2706 1503 
Q 2706 1984 2436 2262 
Q 2166 2541 1728 2541 
Q 1456 2541 1237 2417 
Q 1019 2294 894 2097 
L 366 2166 
L 809 4519 
L 3088 4519 
L 3088 3981 
L 1259 3981 
L 1013 2750 
Q 1425 3038 1878 3038 
Q 2478 3038 2890 2622 
Q 3303 2206 3303 1553 
Q 3303 931 2941 478 
Q 2500 -78 1738 -78 
Q 1113 -78 717 272 
Q 322 622 266 1200 
z
" transform="scale(0.015625)"/>
       </defs>
       <use xlink:href="#ArialMT-35"/>
       <use xlink:href="#ArialMT-30" transform="translate(55.615234 0)"/>
      </g>
     </g>
    </g>
    <g id="xtick_7">
     <g id="line2d_13">
      <path d="M 208.453333 140.2 
L 208.453333 7.2 
" clip-path="url(#pd385b81a31)" style="fill: none; stroke: #b0b0b0; stroke-opacity: 0.3; stroke-width: 0.8; stroke-linecap: square"/>
     </g>
     <g id="line2d_14">
      <g>
       <use xlink:href="#ma745a78eb5" x="208.453333" y="140.2" style="stroke: #000000; stroke-width: 0.8"/>
      </g>
     </g>
     <g id="text_7">
      <!-- 60 -->
      <g transform="translate(204.004583 152.92625) scale(0.08 -0.08)">
       <defs>
        <path id="ArialMT-36" d="M 3184 3459 
L 2625 3416 
Q 2550 3747 2413 3897 
Q 2184 4138 1850 4138 
Q 1581 4138 1378 3988 
Q 1113 3794 959 3422 
Q 806 3050 800 2363 
Q 1003 2672 1297 2822 
Q 1591 2972 1913 2972 
Q 2475 2972 2870 2558 
Q 3266 2144 3266 1488 
Q 3266 1056 3080 686 
Q 2894 316 2569 119 
Q 2244 -78 1831 -78 
Q 1128 -78 684 439 
Q 241 956 241 2144 
Q 241 3472 731 4075 
Q 1159 4600 1884 4600 
Q 2425 4600 2770 4297 
Q 3116 3994 3184 3459 
z
M 888 1484 
Q 888 1194 1011 928 
Q 1134 663 1356 523 
Q 1578 384 1822 384 
Q 2178 384 2434 671 
Q 2691 959 2691 1453 
Q 2691 1928 2437 2201 
Q 2184 2475 1800 2475 
Q 1419 2475 1153 2201 
Q 888 1928 888 1484 
z
" transform="scale(0.015625)"/>
       </defs>
       <use xlink:href="#ArialMT-36"/>
       <use xlink:href="#ArialMT-30" transform="translate(55.615234 0)"/>
      </g>
     </g>
    </g>
    <g id="xtick_8">
     <g id="line2d_15">
      <path d="M 236.316181 140.2 
L 236.316181 7.2 
" clip-path="url(#pd385b81a31)" style="fill: none; stroke: #b0b0b0; stroke-opacity: 0.3; stroke-width: 0.8; stroke-linecap: square"/>
     </g>
     <g id="line2d_16">
      <g>
       <use xlink:href="#ma745a78eb5" x="236.316181" y="140.2" style="stroke: #000000; stroke-width: 0.8"/>
      </g>
     </g>
     <g id="text_8">
      <!-- 70 -->
      <g transform="translate(231.867431 152.92625) scale(0.08 -0.08)">
       <defs>
        <path id="ArialMT-37" d="M 303 3981 
L 303 4522 
L 3269 4522 
L 3269 4084 
Q 2831 3619 2401 2847 
Q 1972 2075 1738 1259 
Q 1569 684 1522 0 
L 944 0 
Q 953 541 1156 1306 
Q 1359 2072 1739 2783 
Q 2119 3494 2547 3981 
L 303 3981 
z
" transform="scale(0.015625)"/>
       </defs>
       <use xlink:href="#ArialMT-37"/>
       <use xlink:href="#ArialMT-30" transform="translate(55.615234 0)"/>
      </g>
     </g>
    </g>
    <g id="text_9">
     <!-- Time (hours) -->
     <g transform="translate(119.064375 164.34) scale(0.08 -0.08)">
      <defs>
       <path id="ArialMT-54" d="M 1659 0 
L 1659 4041 
L 150 4041 
L 150 4581 
L 3781 4581 
L 3781 4041 
L 2266 4041 
L 2266 0 
L 1659 0 
z
" transform="scale(0.015625)"/>
       <path id="ArialMT-69" d="M 425 3934 
L 425 4581 
L 988 4581 
L 988 3934 
L 425 3934 
z
M 425 0 
L 425 3319 
L 988 3319 
L 988 0 
L 425 0 
z
" transform="scale(0.015625)"/>
       <path id="ArialMT-6d" d="M 422 0 
L 422 3319 
L 925 3319 
L 925 2853 
Q 1081 3097 1340 3245 
Q 1600 3394 1931 3394 
Q 2300 3394 2536 3241 
Q 2772 3088 2869 2813 
Q 3263 3394 3894 3394 
Q 4388 3394 4653 3120 
Q 4919 2847 4919 2278 
L 4919 0 
L 4359 0 
L 4359 2091 
Q 4359 2428 4304 2576 
Q 4250 2725 4106 2815 
Q 3963 2906 3769 2906 
Q 3419 2906 3187 2673 
Q 2956 2441 2956 1928 
L 2956 0 
L 2394 0 
L 2394 2156 
Q 2394 2531 2256 2718 
Q 2119 2906 1806 2906 
Q 1569 2906 1367 2781 
Q 1166 2656 1075 2415 
Q 984 2175 984 1722 
L 984 0 
L 422 0 
z
" transform="scale(0.015625)"/>
       <path id="ArialMT-65" d="M 2694 1069 
L 3275 997 
Q 3138 488 2766 206 
Q 2394 -75 1816 -75 
Q 1088 -75 661 373 
Q 234 822 234 1631 
Q 234 2469 665 2931 
Q 1097 3394 1784 3394 
Q 2450 3394 2872 2941 
Q 3294 2488 3294 1666 
Q 3294 1616 3291 1516 
L 816 1516 
Q 847 969 1125 678 
Q 1403 388 1819 388 
Q 2128 388 2347 550 
Q 2566 713 2694 1069 
z
M 847 1978 
L 2700 1978 
Q 2663 2397 2488 2606 
Q 2219 2931 1791 2931 
Q 1403 2931 1139 2672 
Q 875 2413 847 1978 
z
" transform="scale(0.015625)"/>
       <path id="ArialMT-20" transform="scale(0.015625)"/>
       <path id="ArialMT-28" d="M 1497 -1347 
Q 1031 -759 709 28 
Q 388 816 388 1659 
Q 388 2403 628 3084 
Q 909 3875 1497 4659 
L 1900 4659 
Q 1522 4009 1400 3731 
Q 1209 3300 1100 2831 
Q 966 2247 966 1656 
Q 966 153 1900 -1347 
L 1497 -1347 
z
" transform="scale(0.015625)"/>
       <path id="ArialMT-68" d="M 422 0 
L 422 4581 
L 984 4581 
L 984 2938 
Q 1378 3394 1978 3394 
Q 2347 3394 2619 3248 
Q 2891 3103 3008 2847 
Q 3125 2591 3125 2103 
L 3125 0 
L 2563 0 
L 2563 2103 
Q 2563 2525 2380 2717 
Q 2197 2909 1863 2909 
Q 1613 2909 1392 2779 
Q 1172 2650 1078 2428 
Q 984 2206 984 1816 
L 984 0 
L 422 0 
z
" transform="scale(0.015625)"/>
       <path id="ArialMT-6f" d="M 213 1659 
Q 213 2581 725 3025 
Q 1153 3394 1769 3394 
Q 2453 3394 2887 2945 
Q 3322 2497 3322 1706 
Q 3322 1066 3130 698 
Q 2938 331 2570 128 
Q 2203 -75 1769 -75 
Q 1072 -75 642 372 
Q 213 819 213 1659 
z
M 791 1659 
Q 791 1022 1069 705 
Q 1347 388 1769 388 
Q 2188 388 2466 706 
Q 2744 1025 2744 1678 
Q 2744 2294 2464 2611 
Q 2184 2928 1769 2928 
Q 1347 2928 1069 2612 
Q 791 2297 791 1659 
z
" transform="scale(0.015625)"/>
       <path id="ArialMT-75" d="M 2597 0 
L 2597 488 
Q 2209 -75 1544 -75 
Q 1250 -75 995 37 
Q 741 150 617 320 
Q 494 491 444 738 
Q 409 903 409 1263 
L 409 3319 
L 972 3319 
L 972 1478 
Q 972 1038 1006 884 
Q 1059 663 1231 536 
Q 1403 409 1656 409 
Q 1909 409 2131 539 
Q 2353 669 2445 892 
Q 2538 1116 2538 1541 
L 2538 3319 
L 3100 3319 
L 3100 0 
L 2597 0 
z
" transform="scale(0.015625)"/>
       <path id="ArialMT-72" d="M 416 0 
L 416 3319 
L 922 3319 
L 922 2816 
Q 1116 3169 1280 3281 
Q 1444 3394 1641 3394 
Q 1925 3394 2219 3213 
L 2025 2691 
Q 1819 2813 1613 2813 
Q 1428 2813 1281 2702 
Q 1134 2591 1072 2394 
Q 978 2094 978 1738 
L 978 0 
L 416 0 
z
" transform="scale(0.015625)"/>
       <path id="ArialMT-73" d="M 197 991 
L 753 1078 
Q 800 744 1014 566 
Q 1228 388 1613 388 
Q 2000 388 2187 545 
Q 2375 703 2375 916 
Q 2375 1106 2209 1216 
Q 2094 1291 1634 1406 
Q 1016 1563 777 1677 
Q 538 1791 414 1992 
Q 291 2194 291 2438 
Q 291 2659 392 2848 
Q 494 3038 669 3163 
Q 800 3259 1026 3326 
Q 1253 3394 1513 3394 
Q 1903 3394 2198 3281 
Q 2494 3169 2634 2976 
Q 2775 2784 2828 2463 
L 2278 2388 
Q 2241 2644 2061 2787 
Q 1881 2931 1553 2931 
Q 1166 2931 1000 2803 
Q 834 2675 834 2503 
Q 834 2394 903 2306 
Q 972 2216 1119 2156 
Q 1203 2125 1616 2013 
Q 2213 1853 2448 1751 
Q 2684 1650 2818 1456 
Q 2953 1263 2953 975 
Q 2953 694 2789 445 
Q 2625 197 2315 61 
Q 2006 -75 1616 -75 
Q 969 -75 630 194 
Q 291 463 197 991 
z
" transform="scale(0.015625)"/>
       <path id="ArialMT-29" d="M 791 -1347 
L 388 -1347 
Q 1322 153 1322 1656 
Q 1322 2244 1188 2822 
Q 1081 3291 891 3722 
Q 769 4003 388 4659 
L 791 4659 
Q 1378 3875 1659 3084 
Q 1900 2403 1900 1659 
Q 1900 816 1576 28 
Q 1253 -759 791 -1347 
z
" transform="scale(0.015625)"/>
      </defs>
      <use xlink:href="#ArialMT-54"/>
      <use xlink:href="#ArialMT-69" transform="translate(57.333984 0)"/>
      <use xlink:href="#ArialMT-6d" transform="translate(79.550781 0)"/>
      <use xlink:href="#ArialMT-65" transform="translate(162.851562 0)"/>
      <use xlink:href="#ArialMT-20" transform="translate(218.466797 0)"/>
      <use xlink:href="#ArialMT-28" transform="translate(246.25 0)"/>
      <use xlink:href="#ArialMT-68" transform="translate(279.550781 0)"/>
      <use xlink:href="#ArialMT-6f" transform="translate(335.166016 0)"/>
      <use xlink:href="#ArialMT-75" transform="translate(390.78125 0)"/>
      <use xlink:href="#ArialMT-72" transform="translate(446.396484 0)"/>
      <use xlink:href="#ArialMT-73" transform="translate(479.697266 0)"/>
      <use xlink:href="#ArialMT-29" transform="translate(529.697266 0)"/>
     </g>
    </g>
   </g>
   <g id="matplotlib.axis_2">
    <g id="ytick_1">
     <g id="line2d_17">
      <path d="M 41.27625 140.2 
L 241.88875 140.2 
" clip-path="url(#pd385b81a31)" style="fill: none; stroke: #b0b0b0; stroke-opacity: 0.3; stroke-width: 0.8; stroke-linecap: square"/>
     </g>
     <g id="line2d_18">
      <defs>
       <path id="mb5c325741f" d="M 0 0 
L -3.5 0 
" style="stroke: #000000; stroke-width: 0.8"/>
      </defs>
      <g>
       <use xlink:href="#mb5c325741f" x="41.27625" y="140.2" style="stroke: #000000; stroke-width: 0.8"/>
      </g>
     </g>
     <g id="text_10">
      <!-- 0.00 -->
      <g transform="translate(18.7075 143.063125) scale(0.08 -0.08)">
       <defs>
        <path id="ArialMT-2e" d="M 581 0 
L 581 641 
L 1222 641 
L 1222 0 
L 581 0 
z
" transform="scale(0.015625)"/>
       </defs>
       <use xlink:href="#ArialMT-30"/>
       <use xlink:href="#ArialMT-2e" transform="translate(55.615234 0)"/>
       <use xlink:href="#ArialMT-30" transform="translate(83.398438 0)"/>
       <use xlink:href="#ArialMT-30" transform="translate(139.013672 0)"/>
      </g>
     </g>
    </g>
    <g id="ytick_2">
     <g id="line2d_19">
      <path d="M 41.27625 116.018182 
L 241.88875 116.018182 
" clip-path="url(#pd385b81a31)" style="fill: none; stroke: #b0b0b0; stroke-opacity: 0.3; stroke-width: 0.8; stroke-linecap: square"/>
     </g>
     <g id="line2d_20">
      <g>
       <use xlink:href="#mb5c325741f" x="41.27625" y="116.018182" style="stroke: #000000; stroke-width: 0.8"/>
      </g>
     </g>
     <g id="text_11">
      <!-- 0.01 -->
      <g transform="translate(18.7075 118.881307) scale(0.08 -0.08)">
       <use xlink:href="#ArialMT-30"/>
       <use xlink:href="#ArialMT-2e" transform="translate(55.615234 0)"/>
       <use xlink:href="#ArialMT-30" transform="translate(83.398438 0)"/>
       <use xlink:href="#ArialMT-31" transform="translate(139.013672 0)"/>
      </g>
     </g>
    </g>
    <g id="ytick_3">
     <g id="line2d_21">
      <path d="M 41.27625 91.836364 
L 241.88875 91.836364 
" clip-path="url(#pd385b81a31)" style="fill: none; stroke: #b0b0b0; stroke-opacity: 0.3; stroke-width: 0.8; stroke-linecap: square"/>
     </g>
     <g id="line2d_22">
      <g>
       <use xlink:href="#mb5c325741f" x="41.27625" y="91.836364" style="stroke: #000000; stroke-width: 0.8"/>
      </g>
     </g>
     <g id="text_12">
      <!-- 0.02 -->
      <g transform="translate(18.7075 94.699489) scale(0.08 -0.08)">
       <use xlink:href="#ArialMT-30"/>
       <use xlink:href="#ArialMT-2e" transform="translate(55.615234 0)"/>
       <use xlink:href="#ArialMT-30" transform="translate(83.398438 0)"/>
       <use xlink:href="#ArialMT-32" transform="translate(139.013672 0)"/>
      </g>
     </g>
    </g>
    <g id="ytick_4">
     <g id="line2d_23">
      <path d="M 41.27625 67.654545 
L 241.88875 67.654545 
" clip-path="url(#pd385b81a31)" style="fill: none; stroke: #b0b0b0; stroke-opacity: 0.3; stroke-width: 0.8; stroke-linecap: square"/>
     </g>
     <g id="line2d_24">
      <g>
       <use xlink:href="#mb5c325741f" x="41.27625" y="67.654545" style="stroke: #000000; stroke-width: 0.8"/>
      </g>
     </g>
     <g id="text_13">
      <!-- 0.03 -->
      <g transform="translate(18.7075 70.51767) scale(0.08 -0.08)">
       <use xlink:href="#ArialMT-30"/>
       <use xlink:href="#ArialMT-2e" transform="translate(55.615234 0)"/>
       <use xlink:href="#ArialMT-30" transform="translate(83.398438 0)"/>
       <use xlink:href="#ArialMT-33" transform="translate(139.013672 0)"/>
      </g>
     </g>
    </g>
    <g id="ytick_5">
     <g id="line2d_25">
      <path d="M 41.27625 43.472727 
L 241.88875 43.472727 
" clip-path="url(#pd385b81a31)" style="fill: none; stroke: #b0b0b0; stroke-opacity: 0.3; stroke-width: 0.8; stroke-linecap: square"/>
     </g>
     <g id="line2d_26">
      <g>
       <use xlink:href="#mb5c325741f" x="41.27625" y="43.472727" style="stroke: #000000; stroke-width: 0.8"/>
      </g>
     </g>
     <g id="text_14">
      <!-- 0.04 -->
      <g transform="translate(18.7075 46.335852) scale(0.08 -0.08)">
       <use xlink:href="#ArialMT-30"/>
       <use xlink:href="#ArialMT-2e" transform="translate(55.615234 0)"/>
       <use xlink:href="#ArialMT-30" transform="translate(83.398438 0)"/>
       <use xlink:href="#ArialMT-34" transform="translate(139.013672 0)"/>
      </g>
     </g>
    </g>
    <g id="ytick_6">
     <g id="line2d_27">
      <path d="M 41.27625 19.290909 
L 241.88875 19.290909 
" clip-path="url(#pd385b81a31)" style="fill: none; stroke: #b0b0b0; stroke-opacity: 0.3; stroke-width: 0.8; stroke-linecap: square"/>
     </g>
     <g id="line2d_28">
      <g>
       <use xlink:href="#mb5c325741f" x="41.27625" y="19.290909" style="stroke: #000000; stroke-width: 0.8"/>
      </g>
     </g>
     <g id="text_15">
      <!-- 0.05 -->
      <g transform="translate(18.7075 22.154034) scale(0.08 -0.08)">
       <use xlink:href="#ArialMT-30"/>
       <use xlink:href="#ArialMT-2e" transform="translate(55.615234 0)"/>
       <use xlink:href="#ArialMT-30" transform="translate(83.398438 0)"/>
       <use xlink:href="#ArialMT-35" transform="translate(139.013672 0)"/>
      </g>
     </g>
    </g>
    <g id="text_16">
     <!-- Mean distance from source (km) -->
     <g transform="translate(13.02375 131.0475) rotate(-90) scale(0.08 -0.08)">
      <defs>
       <path id="ArialMT-4d" d="M 475 0 
L 475 4581 
L 1388 4581 
L 2472 1338 
Q 2622 884 2691 659 
Q 2769 909 2934 1394 
L 4031 4581 
L 4847 4581 
L 4847 0 
L 4263 0 
L 4263 3834 
L 2931 0 
L 2384 0 
L 1059 3900 
L 1059 0 
L 475 0 
z
" transform="scale(0.015625)"/>
       <path id="ArialMT-61" d="M 2588 409 
Q 2275 144 1986 34 
Q 1697 -75 1366 -75 
Q 819 -75 525 192 
Q 231 459 231 875 
Q 231 1119 342 1320 
Q 453 1522 633 1644 
Q 813 1766 1038 1828 
Q 1203 1872 1538 1913 
Q 2219 1994 2541 2106 
Q 2544 2222 2544 2253 
Q 2544 2597 2384 2738 
Q 2169 2928 1744 2928 
Q 1347 2928 1158 2789 
Q 969 2650 878 2297 
L 328 2372 
Q 403 2725 575 2942 
Q 747 3159 1072 3276 
Q 1397 3394 1825 3394 
Q 2250 3394 2515 3294 
Q 2781 3194 2906 3042 
Q 3031 2891 3081 2659 
Q 3109 2516 3109 2141 
L 3109 1391 
Q 3109 606 3145 398 
Q 3181 191 3288 0 
L 2700 0 
Q 2613 175 2588 409 
z
M 2541 1666 
Q 2234 1541 1622 1453 
Q 1275 1403 1131 1340 
Q 988 1278 909 1158 
Q 831 1038 831 891 
Q 831 666 1001 516 
Q 1172 366 1500 366 
Q 1825 366 2078 508 
Q 2331 650 2450 897 
Q 2541 1088 2541 1459 
L 2541 1666 
z
" transform="scale(0.015625)"/>
       <path id="ArialMT-6e" d="M 422 0 
L 422 3319 
L 928 3319 
L 928 2847 
Q 1294 3394 1984 3394 
Q 2284 3394 2536 3286 
Q 2788 3178 2913 3003 
Q 3038 2828 3088 2588 
Q 3119 2431 3119 2041 
L 3119 0 
L 2556 0 
L 2556 2019 
Q 2556 2363 2490 2533 
Q 2425 2703 2258 2804 
Q 2091 2906 1866 2906 
Q 1506 2906 1245 2678 
Q 984 2450 984 1813 
L 984 0 
L 422 0 
z
" transform="scale(0.015625)"/>
       <path id="ArialMT-64" d="M 2575 0 
L 2575 419 
Q 2259 -75 1647 -75 
Q 1250 -75 917 144 
Q 584 363 401 755 
Q 219 1147 219 1656 
Q 219 2153 384 2558 
Q 550 2963 881 3178 
Q 1213 3394 1622 3394 
Q 1922 3394 2156 3267 
Q 2391 3141 2538 2938 
L 2538 4581 
L 3097 4581 
L 3097 0 
L 2575 0 
z
M 797 1656 
Q 797 1019 1065 703 
Q 1334 388 1700 388 
Q 2069 388 2326 689 
Q 2584 991 2584 1609 
Q 2584 2291 2321 2609 
Q 2059 2928 1675 2928 
Q 1300 2928 1048 2622 
Q 797 2316 797 1656 
z
" transform="scale(0.015625)"/>
       <path id="ArialMT-74" d="M 1650 503 
L 1731 6 
Q 1494 -44 1306 -44 
Q 1000 -44 831 53 
Q 663 150 594 308 
Q 525 466 525 972 
L 525 2881 
L 113 2881 
L 113 3319 
L 525 3319 
L 525 4141 
L 1084 4478 
L 1084 3319 
L 1650 3319 
L 1650 2881 
L 1084 2881 
L 1084 941 
Q 1084 700 1114 631 
Q 1144 563 1211 522 
Q 1278 481 1403 481 
Q 1497 481 1650 503 
z
" transform="scale(0.015625)"/>
       <path id="ArialMT-63" d="M 2588 1216 
L 3141 1144 
Q 3050 572 2676 248 
Q 2303 -75 1759 -75 
Q 1078 -75 664 370 
Q 250 816 250 1647 
Q 250 2184 428 2587 
Q 606 2991 970 3192 
Q 1334 3394 1763 3394 
Q 2303 3394 2647 3120 
Q 2991 2847 3088 2344 
L 2541 2259 
Q 2463 2594 2264 2762 
Q 2066 2931 1784 2931 
Q 1359 2931 1093 2626 
Q 828 2322 828 1663 
Q 828 994 1084 691 
Q 1341 388 1753 388 
Q 2084 388 2306 591 
Q 2528 794 2588 1216 
z
" transform="scale(0.015625)"/>
       <path id="ArialMT-66" d="M 556 0 
L 556 2881 
L 59 2881 
L 59 3319 
L 556 3319 
L 556 3672 
Q 556 4006 616 4169 
Q 697 4388 901 4523 
Q 1106 4659 1475 4659 
Q 1713 4659 2000 4603 
L 1916 4113 
Q 1741 4144 1584 4144 
Q 1328 4144 1222 4034 
Q 1116 3925 1116 3625 
L 1116 3319 
L 1763 3319 
L 1763 2881 
L 1116 2881 
L 1116 0 
L 556 0 
z
" transform="scale(0.015625)"/>
       <path id="ArialMT-6b" d="M 425 0 
L 425 4581 
L 988 4581 
L 988 1969 
L 2319 3319 
L 3047 3319 
L 1778 2088 
L 3175 0 
L 2481 0 
L 1384 1697 
L 988 1316 
L 988 0 
L 425 0 
z
" transform="scale(0.015625)"/>
      </defs>
      <use xlink:href="#ArialMT-4d"/>
      <use xlink:href="#ArialMT-65" transform="translate(83.300781 0)"/>
      <use xlink:href="#ArialMT-61" transform="translate(138.916016 0)"/>
      <use xlink:href="#ArialMT-6e" transform="translate(194.53125 0)"/>
      <use xlink:href="#ArialMT-20" transform="translate(250.146484 0)"/>
      <use xlink:href="#ArialMT-64" transform="translate(277.929688 0)"/>
      <use xlink:href="#ArialMT-69" transform="translate(333.544922 0)"/>
      <use xlink:href="#ArialMT-73" transform="translate(355.761719 0)"/>
      <use xlink:href="#ArialMT-74" transform="translate(405.761719 0)"/>
      <use xlink:href="#ArialMT-61" transform="translate(433.544922 0)"/>
      <use xlink:href="#ArialMT-6e" transform="translate(489.160156 0)"/>
      <use xlink:href="#ArialMT-63" transform="translate(544.775391 0)"/>
      <use xlink:href="#ArialMT-65" transform="translate(594.775391 0)"/>
      <use xlink:href="#ArialMT-20" transform="translate(650.390625 0)"/>
      <use xlink:href="#ArialMT-66" transform="translate(678.173828 0)"/>
      <use xlink:href="#ArialMT-72" transform="translate(705.957031 0)"/>
      <use xlink:href="#ArialMT-6f" transform="translate(739.257812 0)"/>
      <use xlink:href="#ArialMT-6d" transform="translate(794.873047 0)"/>
      <use xlink:href="#ArialMT-20" transform="translate(878.173828 0)"/>
      <use xlink:href="#ArialMT-73" transform="translate(905.957031 0)"/>
      <use xlink:href="#ArialMT-6f" transform="translate(955.957031 0)"/>
      <use xlink:href="#ArialMT-75" transform="translate(1011.572266 0)"/>
      <use xlink:href="#ArialMT-72" transform="translate(1067.1875 0)"/>
      <use xlink:href="#ArialMT-63" transform="translate(1100.488281 0)"/>
      <use xlink:href="#ArialMT-65" transform="translate(1150.488281 0)"/>
      <use xlink:href="#ArialMT-20" transform="translate(1206.103516 0)"/>
      <use xlink:href="#ArialMT-28" transform="translate(1233.886719 0)"/>
      <use xlink:href="#ArialMT-6b" transform="translate(1267.1875 0)"/>
      <use xlink:href="#ArialMT-6d" transform="translate(1317.1875 0)"/>
      <use xlink:href="#ArialMT-29" transform="translate(1400.488281 0)"/>
     </g>
    </g>
   </g>
   <g id="line2d_29">
    <path d="M 41.27625 140.2 
L 44.062535 140.2 
L 46.848819 140.2 
L 49.635104 140.2 
L 52.421389 140.2 
L 55.207674 140.2 
L 57.993958 140.2 
L 60.780243 140.2 
L 63.566528 140.2 
L 66.352812 140.2 
L 69.139097 140.2 
L 71.925382 140.2 
L 74.711667 140.2 
L 77.497951 140.2 
L 80.284236 140.2 
L 83.070521 140.2 
L 85.856806 140.2 
L 88.64309 140.2 
L 91.429375 140.2 
L 94.21566 140.2 
L 97.001944 140.2 
L 99.788229 140.2 
L 102.574514 140.2 
L 105.360799 140.2 
L 108.147083 140.2 
L 110.933368 140.2 
L 113.719653 140.2 
L 116.505938 140.2 
L 119.292222 140.2 
L 122.078507 140.2 
L 124.864792 140.2 
L 127.651076 140.2 
L 130.437361 140.2 
L 133.223646 140.2 
L 136.009931 140.2 
L 138.796215 140.2 
L 141.5825 140.2 
L 144.368785 140.2 
L 147.155069 140.2 
L 149.941354 140.2 
L 152.727639 140.2 
L 155.513924 140.2 
L 158.300208 140.2 
L 161.086493 140.2 
L 163.872778 140.2 
L 166.659063 140.2 
L 169.445347 140.2 
L 172.231632 140.2 
L 175.017917 140.2 
L 177.804201 140.2 
L 180.590486 140.2 
L 183.376771 140.2 
L 186.163056 140.2 
L 188.94934 140.2 
L 191.735625 140.2 
L 194.52191 140.2 
L 197.308194 140.2 
L 200.094479 140.2 
L 202.880764 140.2 
L 205.667049 140.2 
L 208.453333 140.2 
L 211.239618 140.2 
L 214.025903 140.2 
L 216.812187 140.2 
L 219.598472 140.2 
L 222.384757 140.2 
L 225.171042 140.2 
L 227.957326 140.2 
L 230.743611 140.2 
L 233.529896 140.2 
L 236.316181 140.2 
L 239.102465 140.2 
L 241.88875 140.2 
" clip-path="url(#pd385b81a31)" style="fill: none; stroke: #888780; stroke-width: 1.5; stroke-linecap: square"/>
   </g>
   <g id="line2d_30">
    <path d="M 41.27625 140.2 
L 44.062535 140.2 
L 46.848819 140.2 
L 49.635104 140.2 
L 52.421389 140.2 
L 55.207674 140.2 
L 57.993958 140.2 
L 60.780243 140.2 
L 63.566528 140.2 
L 66.352812 140.2 
L 69.139097 140.2 
L 71.925382 140.2 
L 74.711667 140.2 
L 77.497951 140.2 
L 80.284236 140.2 
L 83.070521 140.2 
L 85.856806 140.2 
L 88.64309 140.2 
L 91.429375 140.2 
L 94.21566 140.2 
L 97.001944 140.2 
L 99.788229 140.2 
L 102.574514 140.2 
L 105.360799 140.2 
L 108.147083 140.2 
L 110.933368 140.2 
L 113.719653 140.2 
L 116.505938 140.2 
L 119.292222 140.2 
L 122.078507 140.2 
L 124.864792 140.2 
L 127.651076 140.2 
L 130.437361 140.2 
L 133.223646 140.2 
L 136.009931 140.2 
L 138.796215 140.2 
L 141.5825 140.2 
L 144.368785 140.2 
L 147.155069 140.2 
L 149.941354 140.2 
L 152.727639 140.2 
L 155.513924 140.2 
L 158.300208 140.2 
L 161.086493 140.2 
L 163.872778 140.2 
L 166.659063 140.2 
L 169.445347 140.2 
L 172.231632 140.2 
L 175.017917 140.2 
L 177.804201 140.2 
L 180.590486 140.2 
L 183.376771 140.2 
L 186.163056 140.2 
L 188.94934 140.2 
L 191.735625 140.2 
L 194.52191 140.2 
L 197.308194 140.2 
L 200.094479 140.2 
L 202.880764 140.2 
L 205.667049 140.2 
L 208.453333 140.2 
L 211.239618 140.2 
L 214.025903 140.2 
L 216.812187 140.2 
L 219.598472 140.2 
L 222.384757 140.2 
L 225.171042 140.2 
L 227.957326 140.2 
L 230.743611 140.2 
L 233.529896 140.2 
L 236.316181 140.2 
L 239.102465 140.2 
L 241.88875 140.2 
" clip-path="url(#pd385b81a31)" style="fill: none; stroke: #378add; stroke-width: 1.5; stroke-linecap: square"/>
   </g>
   <g id="line2d_31">
    <path d="M 41.27625 140.2 
L 44.062535 140.2 
L 46.848819 140.2 
L 49.635104 140.2 
L 52.421389 140.2 
L 55.207674 140.2 
L 57.993958 140.2 
L 60.780243 140.2 
L 63.566528 140.2 
L 66.352812 140.2 
L 69.139097 140.2 
L 71.925382 140.2 
L 74.711667 140.2 
L 77.497951 140.2 
L 80.284236 140.2 
L 83.070521 140.2 
L 85.856806 140.2 
L 88.64309 140.2 
L 91.429375 140.2 
L 94.21566 140.2 
L 97.001944 140.2 
L 99.788229 140.2 
L 102.574514 140.2 
L 105.360799 140.2 
L 108.147083 140.2 
L 110.933368 140.2 
L 113.719653 140.2 
L 116.505938 140.2 
L 119.292222 140.2 
L 122.078507 140.2 
L 124.864792 140.2 
L 127.651076 140.2 
L 130.437361 140.2 
L 133.223646 140.2 
L 136.009931 140.2 
L 138.796215 140.2 
L 141.5825 140.2 
L 144.368785 140.2 
L 147.155069 140.2 
L 149.941354 140.2 
L 152.727639 140.2 
L 155.513924 140.2 
L 158.300208 140.2 
L 161.086493 140.2 
L 163.872778 140.2 
L 166.659063 140.2 
L 169.445347 140.2 
L 172.231632 140.2 
L 175.017917 140.2 
L 177.804201 140.2 
L 180.590486 140.2 
L 183.376771 140.2 
L 186.163056 140.2 
L 188.94934 140.2 
L 191.735625 140.2 
L 194.52191 140.2 
L 197.308194 140.2 
L 200.094479 140.2 
L 202.880764 140.2 
L 205.667049 140.2 
L 208.453333 140.2 
L 211.239618 140.2 
L 214.025903 140.2 
L 216.812187 140.2 
L 219.598472 140.2 
L 222.384757 140.2 
L 225.171042 140.2 
L 227.957326 140.2 
L 230.743611 140.2 
L 233.529896 140.2 
L 236.316181 140.2 
L 239.102465 140.2 
L 241.88875 140.2 
" clip-path="url(#pd385b81a31)" style="fill: none; stroke: #ba7517; stroke-width: 1.5; stroke-linecap: square"/>
   </g>
   <g id="line2d_32">
    <path d="M 41.27625 140.2 
L 44.062535 140.2 
L 46.848819 140.2 
L 49.635104 140.2 
L 52.421389 140.2 
L 55.207674 140.2 
L 57.993958 140.2 
L 60.780243 140.2 
L 63.566528 140.2 
L 66.352812 140.2 
L 69.139097 140.2 
L 71.925382 140.2 
L 74.711667 140.2 
L 77.497951 140.2 
L 80.284236 140.2 
L 83.070521 140.2 
L 85.856806 140.2 
L 88.64309 140.2 
L 91.429375 140.2 
L 94.21566 140.2 
L 97.001944 140.2 
L 99.788229 140.2 
L 102.574514 140.2 
L 105.360799 140.2 
L 108.147083 140.2 
L 110.933368 140.2 
L 113.719653 140.2 
L 116.505938 140.2 
L 119.292222 140.2 
L 122.078507 140.2 
L 124.864792 140.2 
L 127.651076 140.2 
L 130.437361 140.2 
L 133.223646 140.2 
L 136.009931 140.2 
L 138.796215 140.2 
L 141.5825 140.2 
L 144.368785 140.2 
L 147.155069 140.2 
L 149.941354 140.2 
L 152.727639 140.2 
L 155.513924 140.2 
L 158.300208 140.2 
L 161.086493 140.2 
L 163.872778 140.2 
L 166.659063 140.2 
L 169.445347 140.2 
L 172.231632 140.2 
L 175.017917 140.2 
L 177.804201 140.2 
L 180.590486 140.2 
L 183.376771 140.2 
L 186.163056 140.2 
L 188.94934 140.2 
L 191.735625 140.2 
L 194.52191 140.2 
L 197.308194 140.2 
L 200.094479 140.2 
L 202.880764 140.2 
L 205.667049 140.2 
L 208.453333 140.2 
L 211.239618 140.2 
L 214.025903 140.2 
L 216.812187 140.2 
L 219.598472 140.2 
L 222.384757 140.2 
L 225.171042 140.2 
L 227.957326 140.2 
L 230.743611 140.2 
L 233.529896 140.2 
L 236.316181 140.2 
L 239.102465 140.2 
L 241.88875 140.2 
" clip-path="url(#pd385b81a31)" style="fill: none; stroke: #1d9e75; stroke-width: 1.5; stroke-linecap: square"/>
   </g>
   <g id="patch_3">
    <path d="M 41.27625 140.2 
L 41.27625 7.2 
" style="fill: none; stroke: #000000; stroke-width: 0.5; stroke-linejoin: miter; stroke-linecap: square"/>
   </g>
   <g id="patch_4">
    <path d="M 41.27625 140.2 
L 241.88875 140.2 
" style="fill: none; stroke: #000000; stroke-width: 0.5; stroke-linejoin: miter; stroke-linecap: square"/>
   </g>
   <g id="text_17">
    <g id="patch_5">
     <path d="M 165.82775 23.658125 
L 237.8765 23.658125 
Q 239.6765 23.658125 239.6765 21.858125 
L 239.6765 9.930312 
Q 239.6765 8.130312 237.8765 8.130312 
L 165.82775 8.130312 
Q 164.02775 8.130312 164.02775 9.930312 
L 164.02775 21.858125 
Q 164.02775 23.658125 165.82775 23.658125 
z
" style="fill: #ffffff; opacity: 0.9; stroke: #808080; stroke-linejoin: miter"/>
    </g>
    <!-- α=2.0, β=2.0, κ=5.0 -->
    <g transform="translate(185.756188 14.227812) scale(0.06 -0.06)">
     <defs>
      <path id="ArialMT-3b1" d="M 2884 3319 
L 3459 3319 
Q 3241 2631 3056 1659 
Q 3275 453 3459 0 
L 2900 0 
Q 2766 313 2697 606 
Q 2438 -75 1613 -75 
Q 988 -75 606 394 
Q 225 863 225 1666 
Q 225 2491 608 2942 
Q 991 3394 1622 3394 
Q 2013 3394 2259 3236 
Q 2506 3078 2719 2756 
Q 2741 2866 2884 3319 
z
M 1716 2928 
Q 1313 2928 1078 2603 
Q 844 2278 844 1666 
Q 844 1069 1066 728 
Q 1288 388 1684 388 
Q 2072 388 2331 723 
Q 2591 1059 2591 1691 
Q 2591 2303 2348 2615 
Q 2106 2928 1716 2928 
z
" transform="scale(0.015625)"/>
      <path id="ArialMT-3d" d="M 3381 2694 
L 356 2694 
L 356 3219 
L 3381 3219 
L 3381 2694 
z
M 3381 1303 
L 356 1303 
L 356 1828 
L 3381 1828 
L 3381 1303 
z
" transform="scale(0.015625)"/>
      <path id="ArialMT-2c" d="M 569 0 
L 569 641 
L 1209 641 
L 1209 0 
Q 1209 -353 1084 -570 
Q 959 -788 688 -906 
L 531 -666 
Q 709 -588 793 -436 
Q 878 -284 888 0 
L 569 0 
z
" transform="scale(0.015625)"/>
      <path id="ArialMT-3b2" d="M 997 422 
L 997 -1272 
L 438 -1272 
L 438 3144 
Q 438 3672 580 3970 
Q 722 4269 1069 4464 
Q 1416 4659 1841 4659 
Q 2469 4659 2792 4298 
Q 3116 3938 3116 3509 
Q 3116 3091 2855 2834 
Q 2594 2578 2256 2519 
Q 2800 2466 3095 2128 
Q 3391 1791 3391 1297 
Q 3391 766 3042 345 
Q 2694 -75 2034 -75 
Q 1359 -75 997 422 
z
M 1494 2700 
Q 2069 2700 2331 2900 
Q 2594 3100 2594 3478 
Q 2594 3784 2370 3990 
Q 2147 4197 1813 4197 
Q 1522 4197 1308 4044 
Q 1094 3891 1045 3703 
Q 997 3516 997 3047 
L 997 1788 
Q 997 1250 1072 997 
Q 1147 744 1394 541 
Q 1641 338 1963 338 
Q 2353 338 2579 605 
Q 2806 872 2806 1266 
Q 2806 1591 2639 1848 
Q 2472 2106 2226 2198 
Q 1981 2291 1575 2291 
L 1494 2291 
L 1494 2700 
z
" transform="scale(0.015625)"/>
      <path id="ArialMT-3ba" d="M 419 3319 
L 978 3319 
L 978 2016 
L 2325 3319 
L 3069 3319 
L 1584 1941 
L 3197 0 
L 2478 0 
L 1184 1563 
L 978 1372 
L 978 0 
L 419 0 
L 419 3319 
z
" transform="scale(0.015625)"/>
     </defs>
     <use xlink:href="#ArialMT-3b1"/>
     <use xlink:href="#ArialMT-3d" transform="translate(57.8125 0)"/>
     <use xlink:href="#ArialMT-32" transform="translate(116.210938 0)"/>
     <use xlink:href="#ArialMT-2e" transform="translate(171.826172 0)"/>
     <use xlink:href="#ArialMT-30" transform="translate(199.609375 0)"/>
     <use xlink:href="#ArialMT-2c" transform="translate(255.224609 0)"/>
     <use xlink:href="#ArialMT-20" transform="translate(283.007812 0)"/>
     <use xlink:href="#ArialMT-3b2" transform="translate(310.791016 0)"/>
     <use xlink:href="#ArialMT-3d" transform="translate(368.310547 0)"/>
     <use xlink:href="#ArialMT-32" transform="translate(426.708984 0)"/>
     <use xlink:href="#ArialMT-2e" transform="translate(482.324219 0)"/>
     <use xlink:href="#ArialMT-30" transform="translate(510.107422 0)"/>
     <use xlink:href="#ArialMT-2c" transform="translate(565.722656 0)"/>
     <use xlink:href="#ArialMT-20" transform="translate(593.505859 0)"/>
     <use xlink:href="#ArialMT-3ba" transform="translate(621.289062 0)"/>
     <use xlink:href="#ArialMT-3d" transform="translate(671.289062 0)"/>
     <use xlink:href="#ArialMT-35" transform="translate(729.6875 0)"/>
     <use xlink:href="#ArialMT-2e" transform="translate(785.302734 0)"/>
     <use xlink:href="#ArialMT-30" transform="translate(813.085938 0)"/>
    </g>
    <!-- N_agents=500, N_runs=10 -->
    <g transform="translate(165.82775 20.595312) scale(0.06 -0.06)">
     <defs>
      <path id="ArialMT-4e" d="M 488 0 
L 488 4581 
L 1109 4581 
L 3516 984 
L 3516 4581 
L 4097 4581 
L 4097 0 
L 3475 0 
L 1069 3600 
L 1069 0 
L 488 0 
z
" transform="scale(0.015625)"/>
      <path id="ArialMT-5f" d="M -97 -1272 
L -97 -866 
L 3631 -866 
L 3631 -1272 
L -97 -1272 
z
" transform="scale(0.015625)"/>
      <path id="ArialMT-67" d="M 319 -275 
L 866 -356 
Q 900 -609 1056 -725 
Q 1266 -881 1628 -881 
Q 2019 -881 2231 -725 
Q 2444 -569 2519 -288 
Q 2563 -116 2559 434 
Q 2191 0 1641 0 
Q 956 0 581 494 
Q 206 988 206 1678 
Q 206 2153 378 2554 
Q 550 2956 876 3175 
Q 1203 3394 1644 3394 
Q 2231 3394 2613 2919 
L 2613 3319 
L 3131 3319 
L 3131 450 
Q 3131 -325 2973 -648 
Q 2816 -972 2473 -1159 
Q 2131 -1347 1631 -1347 
Q 1038 -1347 672 -1080 
Q 306 -813 319 -275 
z
M 784 1719 
Q 784 1066 1043 766 
Q 1303 466 1694 466 
Q 2081 466 2343 764 
Q 2606 1063 2606 1700 
Q 2606 2309 2336 2618 
Q 2066 2928 1684 2928 
Q 1309 2928 1046 2623 
Q 784 2319 784 1719 
z
" transform="scale(0.015625)"/>
     </defs>
     <use xlink:href="#ArialMT-4e"/>
     <use xlink:href="#ArialMT-5f" transform="translate(72.216797 0)"/>
     <use xlink:href="#ArialMT-61" transform="translate(127.832031 0)"/>
     <use xlink:href="#ArialMT-67" transform="translate(183.447266 0)"/>
     <use xlink:href="#ArialMT-65" transform="translate(239.0625 0)"/>
     <use xlink:href="#ArialMT-6e" transform="translate(294.677734 0)"/>
     <use xlink:href="#ArialMT-74" transform="translate(350.292969 0)"/>
     <use xlink:href="#ArialMT-73" transform="translate(378.076172 0)"/>
     <use xlink:href="#ArialMT-3d" transform="translate(428.076172 0)"/>
     <use xlink:href="#ArialMT-35" transform="translate(486.474609 0)"/>
     <use xlink:href="#ArialMT-30" transform="translate(542.089844 0)"/>
     <use xlink:href="#ArialMT-30" transform="translate(597.705078 0)"/>
     <use xlink:href="#ArialMT-2c" transform="translate(653.320312 0)"/>
     <use xlink:href="#ArialMT-20" transform="translate(681.103516 0)"/>
     <use xlink:href="#ArialMT-4e" transform="translate(708.886719 0)"/>
     <use xlink:href="#ArialMT-5f" transform="translate(781.103516 0)"/>
     <use xlink:href="#ArialMT-72" transform="translate(836.71875 0)"/>
     <use xlink:href="#ArialMT-75" transform="translate(870.019531 0)"/>
     <use xlink:href="#ArialMT-6e" transform="translate(925.634766 0)"/>
     <use xlink:href="#ArialMT-73" transform="translate(981.25 0)"/>
     <use xlink:href="#ArialMT-3d" transform="translate(1031.25 0)"/>
     <use xlink:href="#ArialMT-31" transform="translate(1089.648438 0)"/>
     <use xlink:href="#ArialMT-30" transform="translate(1145.263672 0)"/>
    </g>
   </g>
   <g id="legend_1">
    <g id="patch_6">
     <path d="M 46.17625 52.591719 
L 91.143594 52.591719 
Q 92.543594 52.591719 92.543594 51.191719 
L 92.543594 12.1 
Q 92.543594 10.7 91.143594 10.7 
L 46.17625 10.7 
Q 44.77625 10.7 44.77625 12.1 
L 44.77625 51.191719 
Q 44.77625 52.591719 46.17625 52.591719 
z
" style="fill: #ffffff; opacity: 0.8; stroke: #cccccc; stroke-linejoin: miter"/>
    </g>
    <g id="line2d_33">
     <path d="M 47.57625 16.060469 
L 54.57625 16.060469 
L 61.57625 16.060469 
" style="fill: none; stroke: #888780; stroke-width: 1.5; stroke-linecap: square"/>
    </g>
    <g id="text_18">
     <!-- original -->
     <g transform="translate(67.17625 18.510469) scale(0.07 -0.07)">
      <defs>
       <path id="ArialMT-6c" d="M 409 0 
L 409 4581 
L 972 4581 
L 972 0 
L 409 0 
z
" transform="scale(0.015625)"/>
      </defs>
      <use xlink:href="#ArialMT-6f"/>
      <use xlink:href="#ArialMT-72" transform="translate(55.615234 0)"/>
      <use xlink:href="#ArialMT-69" transform="translate(88.916016 0)"/>
      <use xlink:href="#ArialMT-67" transform="translate(111.132812 0)"/>
      <use xlink:href="#ArialMT-69" transform="translate(166.748047 0)"/>
      <use xlink:href="#ArialMT-6e" transform="translate(188.964844 0)"/>
      <use xlink:href="#ArialMT-61" transform="translate(244.580078 0)"/>
      <use xlink:href="#ArialMT-6c" transform="translate(300.195312 0)"/>
     </g>
    </g>
    <g id="line2d_34">
     <path d="M 47.57625 26.065 
L 54.57625 26.065 
L 61.57625 26.065 
" style="fill: none; stroke: #378add; stroke-width: 1.5; stroke-linecap: square"/>
    </g>
    <g id="text_19">
     <!-- s1 only -->
     <g transform="translate(67.17625 28.515) scale(0.07 -0.07)">
      <defs>
       <path id="ArialMT-79" d="M 397 -1278 
L 334 -750 
Q 519 -800 656 -800 
Q 844 -800 956 -737 
Q 1069 -675 1141 -563 
Q 1194 -478 1313 -144 
Q 1328 -97 1363 -6 
L 103 3319 
L 709 3319 
L 1400 1397 
Q 1534 1031 1641 628 
Q 1738 1016 1872 1384 
L 2581 3319 
L 3144 3319 
L 1881 -56 
Q 1678 -603 1566 -809 
Q 1416 -1088 1222 -1217 
Q 1028 -1347 759 -1347 
Q 597 -1347 397 -1278 
z
" transform="scale(0.015625)"/>
      </defs>
      <use xlink:href="#ArialMT-73"/>
      <use xlink:href="#ArialMT-31" transform="translate(50 0)"/>
      <use xlink:href="#ArialMT-20" transform="translate(105.615234 0)"/>
      <use xlink:href="#ArialMT-6f" transform="translate(133.398438 0)"/>
      <use xlink:href="#ArialMT-6e" transform="translate(189.013672 0)"/>
      <use xlink:href="#ArialMT-6c" transform="translate(244.628906 0)"/>
      <use xlink:href="#ArialMT-79" transform="translate(266.845703 0)"/>
     </g>
    </g>
    <g id="line2d_35">
     <path d="M 47.57625 36.04875 
L 54.57625 36.04875 
L 61.57625 36.04875 
" style="fill: none; stroke: #ba7517; stroke-width: 1.5; stroke-linecap: square"/>
    </g>
    <g id="text_20">
     <!-- switch -->
     <g transform="translate(67.17625 38.49875) scale(0.07 -0.07)">
      <defs>
       <path id="ArialMT-77" d="M 1034 0 
L 19 3319 
L 600 3319 
L 1128 1403 
L 1325 691 
Q 1338 744 1497 1375 
L 2025 3319 
L 2603 3319 
L 3100 1394 
L 3266 759 
L 3456 1400 
L 4025 3319 
L 4572 3319 
L 3534 0 
L 2950 0 
L 2422 1988 
L 2294 2553 
L 1622 0 
L 1034 0 
z
" transform="scale(0.015625)"/>
      </defs>
      <use xlink:href="#ArialMT-73"/>
      <use xlink:href="#ArialMT-77" transform="translate(50 0)"/>
      <use xlink:href="#ArialMT-69" transform="translate(122.216797 0)"/>
      <use xlink:href="#ArialMT-74" transform="translate(144.433594 0)"/>
      <use xlink:href="#ArialMT-63" transform="translate(172.216797 0)"/>
      <use xlink:href="#ArialMT-68" transform="translate(222.216797 0)"/>
     </g>
    </g>
    <g id="line2d_36">
     <path d="M 47.57625 45.950469 
L 54.57625 45.950469 
L 61.57625 45.950469 
" style="fill: none; stroke: #1d9e75; stroke-width: 1.5; stroke-linecap: square"/>
    </g>
    <g id="text_21">
     <!-- blend -->
     <g transform="translate(67.17625 48.400469) scale(0.07 -0.07)">
      <defs>
       <path id="ArialMT-62" d="M 941 0 
L 419 0 
L 419 4581 
L 981 4581 
L 981 2947 
Q 1338 3394 1891 3394 
Q 2197 3394 2470 3270 
Q 2744 3147 2920 2923 
Q 3097 2700 3197 2384 
Q 3297 2069 3297 1709 
Q 3297 856 2875 390 
Q 2453 -75 1863 -75 
Q 1275 -75 941 416 
L 941 0 
z
M 934 1684 
Q 934 1088 1097 822 
Q 1363 388 1816 388 
Q 2184 388 2453 708 
Q 2722 1028 2722 1663 
Q 2722 2313 2464 2622 
Q 2206 2931 1841 2931 
Q 1472 2931 1203 2611 
Q 934 2291 934 1684 
z
" transform="scale(0.015625)"/>
      </defs>
      <use xlink:href="#ArialMT-62"/>
      <use xlink:href="#ArialMT-6c" transform="translate(55.615234 0)"/>
      <use xlink:href="#ArialMT-65" transform="translate(77.832031 0)"/>
      <use xlink:href="#ArialMT-6e" transform="translate(133.447266 0)"/>
      <use xlink:href="#ArialMT-64" transform="translate(189.0625 0)"/>
     </g>
    </g>
   </g>
  </g>
 </g>
 <defs>
  <clipPath id="pd385b81a31">
   <rect x="41.27625" y="7.2" width="200.6125" height="133"/>
  </clipPath>
 </defs>
</svg>
