<?xml version="1.0" encoding="utf-8" standalone="no"?>
<!DOCTYPE svg PUBLIC "-//W3C//DTD SVG 1.1//EN"
  "http://www.w3.org/Graphics/SVG/1.1/DTD/svg11.dtd">
<svg xmlns:xlink="http://www.w3.org/1999/xlink" width="249.07375pt" height="173.22375pt" viewBox="0 0 249.07375 173.22375" xmlns="http://www.w3.org/2000/svg" version="1.1">
 <metadata>
  <rdf:RDF xmlns:dc="http://purl.org/dc/elements/1.1/" xmlns:cc="http://creativecommons.org/ns#" xmlns:rdf="http://www.w3.org/1999/02/22-rdf-syntax-ns#">
   <cc:Work>
    <dc:type rdf:resource="http://purl.org/dc/dcmitype/StillImage"/>
    <dc:date>2026-03-22T21:31:06.240714</dc:date>
    <dc:format>image/svg+xml</dc:format>
    <dc:creator>
     <cc:Agent>
      <dc:title>Matplotlib v3.10.7, https://matplotlib.org/</dc:title>
     </cc:Agent>
    </dc:creator>
   </cc:Work>
  </rdf:RDF>
 </metadata>
 <defs>
  <style type="text/css">*{stroke-linejoin: round; stroke-linecap: butt}</style>
 </defs>
 <g id="figure_1">
  <g id="patch_1">
   <path d="M 0 173.22375 
L 249.07375 173.22375 
L 249.07375 0 
L 0 0 
z
" style="fill: #ffffff"/>
  </g>
  <g id="axes_1">
   <g id="patch_2">
    <path d="M 47.95125 140.2 
L 241.87375 140.2 
L 241.87375 7.2 
L 47.95125 7.2 
z
" style="fill: #ffffff"/>
   </g>
   <g id="FillBetweenPolyCollection_1">
    <defs>
     <path id="m42d63463c9" d="M 47.95125 -159.693194 
L 47.95125 -155.86626 
L 51.991302 -143.777781 
L 56.031354 -134.081634 
L 60.071406 -124.567849 
L 64.111458 -116.38013 
L 68.15151 -109.748667 
L 72.191563 -101.791892 
L 76.231615 -94.501361 
L 80.271667 -88.832089 
L 84.311719 -83.589514 
L 88.351771 -79.224384 
L 92.391823 -74.989056 
L 96.431875 -71.514022 
L 100.471927 -68.390607 
L 104.511979 -65.342994 
L 108.552031 -61.760012 
L 112.592083 -59.077743 
L 116.632135 -57.111523 
L 120.672188 -54.704905 
L 124.71224 -52.574852 
L 128.752292 -50.630153 
L 132.792344 -49.279046 
L 136.832396 -47.338168 
L 140.872448 -45.881769 
L 144.9125 -44.432739 
L 148.952552 -42.890284 
L 152.992604 -41.563664 
L 157.032656 -40.801463 
L 161.072708 -39.951479 
L 165.11276 -39.337495 
L 169.152812 -38.402264 
L 173.192865 -37.866136 
L 177.232917 -37.374518 
L 181.272969 -37.005119 
L 185.313021 -36.814075 
L 189.353073 -36.590528 
L 193.393125 -36.46777 
L 197.433177 -36.183303 
L 201.473229 -35.937878 
L 205.513281 -35.780105 
L 209.553333 -35.476781 
L 213.593385 -35.103718 
L 217.633437 -34.906323 
L 221.67349 -34.724315 
L 225.713542 -34.632992 
L 229.753594 -34.521416 
L 233.793646 -34.419541 
L 237.833698 -34.271941 
L 241.87375 -34.184156 
L 241.87375 -34.794206 
L 241.87375 -34.794206 
L 237.833698 -35.093853 
L 233.793646 -35.290712 
L 229.753594 -35.331562 
L 225.713542 -35.532294 
L 221.67349 -35.65642 
L 217.633437 -35.980524 
L 213.593385 -36.259314 
L 209.553333 -36.510731 
L 205.513281 -36.856067 
L 201.473229 -37.481442 
L 197.433177 -37.645407 
L 193.393125 -37.966313 
L 189.353073 -38.328247 
L 185.313021 -38.683536 
L 181.272969 -38.888387 
L 177.232917 -39.372231 
L 173.192865 -40.059522 
L 169.152812 -40.895795 
L 165.11276 -41.679917 
L 161.072708 -42.31743 
L 157.032656 -43.095866 
L 152.992604 -43.985865 
L 148.952552 -44.971148 
L 144.9125 -46.297832 
L 140.872448 -47.771785 
L 136.832396 -49.101071 
L 132.792344 -51.075352 
L 128.752292 -52.566534 
L 124.71224 -54.406432 
L 120.672188 -56.96712 
L 116.632135 -58.875122 
L 112.592083 -61.831926 
L 108.552031 -64.777942 
L 104.511979 -68.566378 
L 100.471927 -71.15774 
L 96.431875 -74.727827 
L 92.391823 -78.963642 
L 88.351771 -83.771393 
L 84.311719 -88.890839 
L 80.271667 -94.231189 
L 76.231615 -99.868672 
L 72.191563 -105.845449 
L 68.15151 -113.452333 
L 64.111458 -120.963245 
L 60.071406 -129.372171 
L 56.031354 -138.826077 
L 51.991302 -148.8928 
L 47.95125 -159.693194 
z
" style="stroke: #888780; stroke-opacity: 0.25"/>
    </defs>
    <g clip-path="url(#p70430672e4)">
     <use xlink:href="#m42d63463c9" x="0" y="173.22375" style="fill: #888780; fill-opacity: 0.25; stroke: #888780; stroke-opacity: 0.25"/>
    </g>
   </g>
   <g id="FillBetweenPolyCollection_2">
    <defs>
     <path id="m6b733a1986" d="M 47.95125 -159.693194 
L 47.95125 -155.86626 
L 51.991302 -143.777781 
L 56.031354 -134.081634 
L 60.071406 -124.567849 
L 64.111458 -116.38013 
L 68.15151 -109.748667 
L 72.191563 -101.791892 
L 76.231615 -94.501361 
L 80.271667 -88.832089 
L 84.311719 -83.589514 
L 88.351771 -79.224384 
L 92.391823 -74.989056 
L 96.431875 -71.514022 
L 100.471927 -68.390607 
L 104.511979 -65.342994 
L 108.552031 -61.760012 
L 112.592083 -59.077743 
L 116.632135 -57.111523 
L 120.672188 -54.704905 
L 124.71224 -52.574852 
L 128.752292 -50.630153 
L 132.792344 -49.279046 
L 136.832396 -47.338168 
L 140.872448 -45.881769 
L 144.9125 -44.432739 
L 148.952552 -42.890284 
L 152.992604 -41.563664 
L 157.032656 -40.801463 
L 161.072708 -39.951479 
L 165.11276 -39.337495 
L 169.152812 -38.402264 
L 173.192865 -37.866136 
L 177.232917 -37.374518 
L 181.272969 -37.005119 
L 185.313021 -36.814075 
L 189.353073 -36.590528 
L 193.393125 -36.46777 
L 197.433177 -36.183303 
L 201.473229 -35.937878 
L 205.513281 -35.780105 
L 209.553333 -35.476781 
L 213.593385 -35.103718 
L 217.633437 -34.906323 
L 221.67349 -34.724315 
L 225.713542 -34.632992 
L 229.753594 -34.521416 
L 233.793646 -34.419541 
L 237.833698 -34.271941 
L 241.87375 -34.184156 
L 241.87375 -34.794206 
L 241.87375 -34.794206 
L 237.833698 -35.093853 
L 233.793646 -35.290712 
L 229.753594 -35.331562 
L 225.713542 -35.532294 
L 221.67349 -35.65642 
L 217.633437 -35.980524 
L 213.593385 -36.259314 
L 209.553333 -36.510731 
L 205.513281 -36.856067 
L 201.473229 -37.481442 
L 197.433177 -37.645407 
L 193.393125 -37.966313 
L 189.353073 -38.328247 
L 185.313021 -38.683536 
L 181.272969 -38.888387 
L 177.232917 -39.372231 
L 173.192865 -40.059522 
L 169.152812 -40.895795 
L 165.11276 -41.679917 
L 161.072708 -42.31743 
L 157.032656 -43.095866 
L 152.992604 -43.985865 
L 148.952552 -44.971148 
L 144.9125 -46.297832 
L 140.872448 -47.771785 
L 136.832396 -49.101071 
L 132.792344 -51.075352 
L 128.752292 -52.566534 
L 124.71224 -54.406432 
L 120.672188 -56.96712 
L 116.632135 -58.875122 
L 112.592083 -61.831926 
L 108.552031 -64.777942 
L 104.511979 -68.566378 
L 100.471927 -71.15774 
L 96.431875 -74.727827 
L 92.391823 -78.963642 
L 88.351771 -83.771393 
L 84.311719 -88.890839 
L 80.271667 -94.231189 
L 76.231615 -99.868672 
L 72.191563 -105.845449 
L 68.15151 -113.452333 
L 64.111458 -120.963245 
L 60.071406 -129.372171 
L 56.031354 -138.826077 
L 51.991302 -148.8928 
L 47.95125 -159.693194 
z
" style="stroke: #378add; stroke-opacity: 0.25"/>
    </defs>
    <g clip-path="url(#p70430672e4)">
     <use xlink:href="#m6b733a1986" x="0" y="173.22375" style="fill: #378add; fill-opacity: 0.25; stroke: #378add; stroke-opacity: 0.25"/>
    </g>
   </g>
   <g id="FillBetweenPolyCollection_3">
    <defs>
     <path id="mbf480d07ef" d="M 47.95125 -153.891524 
L 47.95125 -150.640052 
L 51.991302 -133.291084 
L 56.031354 -119.674578 
L 60.071406 -108.354625 
L 64.111458 -98.152391 
L 68.15151 -90.57784 
L 72.191563 -83.587735 
L 76.231615 -76.953994 
L 80.271667 -72.602959 
L 84.311719 -68.203919 
L 88.351771 -64.755537 
L 92.391823 -60.182178 
L 96.431875 -56.532634 
L 100.471927 -54.595463 
L 104.511979 -52.569733 
L 108.552031 -51.085631 
L 112.592083 -48.570872 
L 116.632135 -46.293967 
L 120.672188 -45.301413 
L 124.71224 -43.848072 
L 128.752292 -43.101931 
L 132.792344 -41.639248 
L 136.832396 -40.932571 
L 140.872448 -40.191833 
L 144.9125 -39.632698 
L 148.952552 -38.614799 
L 152.992604 -38.107064 
L 157.032656 -37.639197 
L 161.072708 -37.054377 
L 165.11276 -36.691559 
L 169.152812 -36.398184 
L 173.192865 -35.952471 
L 177.232917 -35.746497 
L 181.272969 -35.362878 
L 185.313021 -35.045835 
L 189.353073 -34.842932 
L 193.393125 -34.691395 
L 197.433177 -34.530929 
L 201.473229 -34.38034 
L 205.513281 -34.368796 
L 209.553333 -34.042986 
L 213.593385 -33.870341 
L 217.633437 -33.728369 
L 221.67349 -33.780466 
L 225.713542 -33.76085 
L 229.753594 -33.609962 
L 233.793646 -33.477719 
L 237.833698 -33.465492 
L 241.87375 -33.510068 
L 241.87375 -34.044636 
L 241.87375 -34.044636 
L 237.833698 -34.186114 
L 233.793646 -34.270789 
L 229.753594 -34.246271 
L 225.713542 -34.345611 
L 221.67349 -34.484842 
L 217.633437 -34.59354 
L 213.593385 -34.823013 
L 209.553333 -35.075565 
L 205.513281 -35.325784 
L 201.473229 -35.564646 
L 197.433177 -35.728902 
L 193.393125 -35.869786 
L 189.353073 -36.003614 
L 185.313021 -36.365918 
L 181.272969 -36.745986 
L 177.232917 -37.164309 
L 173.192865 -37.415996 
L 169.152812 -37.777433 
L 165.11276 -38.030651 
L 161.072708 -38.569258 
L 157.032656 -39.246578 
L 152.992604 -40.022193 
L 148.952552 -40.66108 
L 144.9125 -41.484156 
L 140.872448 -42.157726 
L 136.832396 -42.932204 
L 132.792344 -43.641395 
L 128.752292 -44.810672 
L 124.71224 -45.736194 
L 120.672188 -46.544126 
L 116.632135 -48.345496 
L 112.592083 -50.702688 
L 108.552031 -52.921552 
L 104.511979 -54.79146 
L 100.471927 -57.227928 
L 96.431875 -59.613663 
L 92.391823 -63.060991 
L 88.351771 -67.481639 
L 84.311719 -71.280082 
L 80.271667 -76.136537 
L 76.231615 -81.246076 
L 72.191563 -87.415521 
L 68.15151 -95.336642 
L 64.111458 -104.92916 
L 60.071406 -113.091685 
L 56.031354 -124.448127 
L 51.991302 -137.680407 
L 47.95125 -153.891524 
z
" style="stroke: #ba7517; stroke-opacity: 0.25"/>
    </defs>
    <g clip-path="url(#p70430672e4)">
     <use xlink:href="#mbf480d07ef" x="0" y="173.22375" style="fill: #ba7517; fill-opacity: 0.25; stroke: #ba7517; stroke-opacity: 0.25"/>
    </g>
   </g>
   <g id="FillBetweenPolyCollection_4">
    <defs>
     <path id="m6ddc279bf8" d="M 47.95125 -155.741612 
L 47.95125 -152.102041 
L 51.991302 -134.917492 
L 56.031354 -120.561324 
L 60.071406 -108.129985 
L 64.111458 -96.653983 
L 68.15151 -87.554898 
L 72.191563 -79.674906 
L 76.231615 -72.126466 
L 80.271667 -66.708473 
L 84.311719 -61.946579 
L 88.351771 -57.271622 
L 92.391823 -53.925829 
L 96.431875 -50.767596 
L 100.471927 -48.45263 
L 104.511979 -45.783199 
L 108.552031 -43.87882 
L 112.592083 -42.240247 
L 116.632135 -40.670579 
L 120.672188 -39.651087 
L 124.71224 -38.933571 
L 128.752292 -38.023875 
L 132.792344 -37.517645 
L 136.832396 -36.903552 
L 140.872448 -36.640673 
L 144.9125 -36.03489 
L 148.952552 -35.461359 
L 152.992604 -35.093302 
L 157.032656 -34.686261 
L 161.072708 -34.282796 
L 165.11276 -34.09899 
L 169.152812 -33.95834 
L 173.192865 -33.742578 
L 177.232917 -33.680733 
L 181.272969 -33.62428 
L 185.313021 -33.551316 
L 189.353073 -33.479335 
L 193.393125 -33.429652 
L 197.433177 -33.380922 
L 201.473229 -33.256301 
L 205.513281 -33.230785 
L 209.553333 -33.24187 
L 213.593385 -33.26553 
L 217.633437 -33.233748 
L 221.67349 -33.208993 
L 225.713542 -33.200697 
L 229.753594 -33.171115 
L 233.793646 -33.159608 
L 237.833698 -33.08208 
L 241.87375 -33.088384 
L 241.87375 -33.352026 
L 241.87375 -33.352026 
L 237.833698 -33.323372 
L 233.793646 -33.377705 
L 229.753594 -33.411978 
L 225.713542 -33.393217 
L 221.67349 -33.46018 
L 217.633437 -33.45974 
L 213.593385 -33.559819 
L 209.553333 -33.543178 
L 205.513281 -33.780354 
L 201.473229 -33.79514 
L 197.433177 -34.036442 
L 193.393125 -34.06845 
L 189.353073 -34.223215 
L 185.313021 -34.264301 
L 181.272969 -34.288241 
L 177.232917 -34.420249 
L 173.192865 -34.549538 
L 169.152812 -34.877653 
L 165.11276 -35.202322 
L 161.072708 -35.605097 
L 157.032656 -35.783182 
L 152.992604 -35.986993 
L 148.952552 -36.53096 
L 144.9125 -36.958833 
L 140.872448 -37.706435 
L 136.832396 -38.307843 
L 132.792344 -39.095766 
L 128.752292 -39.725606 
L 124.71224 -40.288378 
L 120.672188 -41.347308 
L 116.632135 -42.812153 
L 112.592083 -43.985241 
L 108.552031 -46.131044 
L 104.511979 -48.966036 
L 100.471927 -50.651122 
L 96.431875 -53.689678 
L 92.391823 -57.288893 
L 88.351771 -61.232139 
L 84.311719 -66.039666 
L 80.271667 -70.71733 
L 76.231615 -76.8122 
L 72.191563 -85.064158 
L 68.15151 -93.597336 
L 64.111458 -102.94923 
L 60.071406 -114.993066 
L 56.031354 -127.255127 
L 51.991302 -141.09206 
L 47.95125 -155.741612 
z
" style="stroke: #1d9e75; stroke-opacity: 0.25"/>
    </defs>
    <g clip-path="url(#p70430672e4)">
     <use xlink:href="#m6ddc279bf8" x="0" y="173.22375" style="fill: #1d9e75; fill-opacity: 0.25; stroke: #1d9e75; stroke-opacity: 0.25"/>
    </g>
   </g>
   <g id="matplotlib.axis_1">
    <g id="xtick_1">
     <g id="line2d_1">
      <path d="M 47.95125 140.2 
L 47.95125 7.2 
" clip-path="url(#p70430672e4)" style="fill: none; stroke: #b0b0b0; stroke-opacity: 0.3; stroke-width: 0.8; stroke-linecap: square"/>
     </g>
     <g id="line2d_2">
      <defs>
       <path id="mf542b42fb2" d="M 0 0 
L 0 3.5 
" style="stroke: #000000; stroke-width: 0.8"/>
      </defs>
      <g>
       <use xlink:href="#mf542b42fb2" x="47.95125" y="140.2" style="stroke: #000000; stroke-width: 0.8"/>
      </g>
     </g>
     <g id="text_1">
      <!-- 0 -->
      <g transform="translate(45.726875 152.92625) scale(0.08 -0.08)">
       <defs>
        <path id="ArialMT-30" d="M 266 2259 
Q 266 3072 433 3567 
Q 600 4063 929 4331 
Q 1259 4600 1759 4600 
Q 2128 4600 2406 4451 
Q 2684 4303 2865 4023 
Q 3047 3744 3150 3342 
Q 3253 2941 3253 2259 
Q 3253 1453 3087 958 
Q 2922 463 2592 192 
Q 2263 -78 1759 -78 
Q 1097 -78 719 397 
Q 266 969 266 2259 
z
M 844 2259 
Q 844 1131 1108 757 
Q 1372 384 1759 384 
Q 2147 384 2411 759 
Q 2675 1134 2675 2259 
Q 2675 3391 2411 3762 
Q 2147 4134 1753 4134 
Q 1366 4134 1134 3806 
Q 844 3388 844 2259 
z
" transform="scale(0.015625)"/>
       </defs>
       <use xlink:href="#ArialMT-30"/>
      </g>
     </g>
    </g>
    <g id="xtick_2">
     <g id="line2d_3">
      <path d="M 88.351771 140.2 
L 88.351771 7.2 
" clip-path="url(#p70430672e4)" style="fill: none; stroke: #b0b0b0; stroke-opacity: 0.3; stroke-width: 0.8; stroke-linecap: square"/>
     </g>
     <g id="line2d_4">
      <g>
       <use xlink:href="#mf542b42fb2" x="88.351771" y="140.2" style="stroke: #000000; stroke-width: 0.8"/>
      </g>
     </g>
     <g id="text_2">
      <!-- 10 -->
      <g transform="translate(83.903021 152.92625) scale(0.08 -0.08)">
       <defs>
        <path id="ArialMT-31" d="M 2384 0 
L 1822 0 
L 1822 3584 
Q 1619 3391 1289 3197 
Q 959 3003 697 2906 
L 697 3450 
Q 1169 3672 1522 3987 
Q 1875 4303 2022 4600 
L 2384 4600 
L 2384 0 
z
" transform="scale(0.015625)"/>
       </defs>
       <use xlink:href="#ArialMT-31"/>
       <use xlink:href="#ArialMT-30" transform="translate(55.615234 0)"/>
      </g>
     </g>
    </g>
    <g id="xtick_3">
     <g id="line2d_5">
      <path d="M 128.752292 140.2 
L 128.752292 7.2 
" clip-path="url(#p70430672e4)" style="fill: none; stroke: #b0b0b0; stroke-opacity: 0.3; stroke-width: 0.8; stroke-linecap: square"/>
     </g>
     <g id="line2d_6">
      <g>
       <use xlink:href="#mf542b42fb2" x="128.752292" y="140.2" style="stroke: #000000; stroke-width: 0.8"/>
      </g>
     </g>
     <g id="text_3">
      <!-- 20 -->
      <g transform="translate(124.303542 152.92625) scale(0.08 -0.08)">
       <defs>
        <path id="ArialMT-32" d="M 3222 541 
L 3222 0 
L 194 0 
Q 188 203 259 391 
Q 375 700 629 1000 
Q 884 1300 1366 1694 
Q 2113 2306 2375 2664 
Q 2638 3022 2638 3341 
Q 2638 3675 2398 3904 
Q 2159 4134 1775 4134 
Q 1369 4134 1125 3890 
Q 881 3647 878 3216 
L 300 3275 
Q 359 3922 746 4261 
Q 1134 4600 1788 4600 
Q 2447 4600 2831 4234 
Q 3216 3869 3216 3328 
Q 3216 3053 3103 2787 
Q 2991 2522 2730 2228 
Q 2469 1934 1863 1422 
Q 1356 997 1212 845 
Q 1069 694 975 541 
L 3222 541 
z
" transform="scale(0.015625)"/>
       </defs>
       <use xlink:href="#ArialMT-32"/>
       <use xlink:href="#ArialMT-30" transform="translate(55.615234 0)"/>
      </g>
     </g>
    </g>
    <g id="xtick_4">
     <g id="line2d_7">
      <path d="M 169.152812 140.2 
L 169.152812 7.2 
" clip-path="url(#p70430672e4)" style="fill: none; stroke: #b0b0b0; stroke-opacity: 0.3; stroke-width: 0.8; stroke-linecap: square"/>
     </g>
     <g id="line2d_8">
      <g>
       <use xlink:href="#mf542b42fb2" x="169.152812" y="140.2" style="stroke: #000000; stroke-width: 0.8"/>
      </g>
     </g>
     <g id="text_4">
      <!-- 30 -->
      <g transform="translate(164.704062 152.92625) scale(0.08 -0.08)">
       <defs>
        <path id="ArialMT-33" d="M 269 1209 
L 831 1284 
Q 928 806 1161 595 
Q 1394 384 1728 384 
Q 2125 384 2398 659 
Q 2672 934 2672 1341 
Q 2672 1728 2419 1979 
Q 2166 2231 1775 2231 
Q 1616 2231 1378 2169 
L 1441 2663 
Q 1497 2656 1531 2656 
Q 1891 2656 2178 2843 
Q 2466 3031 2466 3422 
Q 2466 3731 2256 3934 
Q 2047 4138 1716 4138 
Q 1388 4138 1169 3931 
Q 950 3725 888 3313 
L 325 3413 
Q 428 3978 793 4289 
Q 1159 4600 1703 4600 
Q 2078 4600 2393 4439 
Q 2709 4278 2876 4000 
Q 3044 3722 3044 3409 
Q 3044 3113 2884 2869 
Q 2725 2625 2413 2481 
Q 2819 2388 3044 2092 
Q 3269 1797 3269 1353 
Q 3269 753 2831 336 
Q 2394 -81 1725 -81 
Q 1122 -81 723 278 
Q 325 638 269 1209 
z
" transform="scale(0.015625)"/>
       </defs>
       <use xlink:href="#ArialMT-33"/>
       <use xlink:href="#ArialMT-30" transform="translate(55.615234 0)"/>
      </g>
     </g>
    </g>
    <g id="xtick_5">
     <g id="line2d_9">
      <path d="M 209.553333 140.2 
L 209.553333 7.2 
" clip-path="url(#p70430672e4)" style="fill: none; stroke: #b0b0b0; stroke-opacity: 0.3; stroke-width: 0.8; stroke-linecap: square"/>
     </g>
     <g id="line2d_10">
      <g>
       <use xlink:href="#mf542b42fb2" x="209.553333" y="140.2" style="stroke: #000000; stroke-width: 0.8"/>
      </g>
     </g>
     <g id="text_5">
      <!-- 40 -->
      <g transform="translate(205.104583 152.92625) scale(0.08 -0.08)">
       <defs>
        <path id="ArialMT-34" d="M 2069 0 
L 2069 1097 
L 81 1097 
L 81 1613 
L 2172 4581 
L 2631 4581 
L 2631 1613 
L 3250 1613 
L 3250 1097 
L 2631 1097 
L 2631 0 
L 2069 0 
z
M 2069 1613 
L 2069 3678 
L 634 1613 
L 2069 1613 
z
" transform="scale(0.015625)"/>
       </defs>
       <use xlink:href="#ArialMT-34"/>
       <use xlink:href="#ArialMT-30" transform="translate(55.615234 0)"/>
      </g>
     </g>
    </g>
    <g id="text_6">
     <!-- Time (hours) -->
     <g transform="translate(122.394375 164.34) scale(0.08 -0.08)">
      <defs>
       <path id="ArialMT-54" d="M 1659 0 
L 1659 4041 
L 150 4041 
L 150 4581 
L 3781 4581 
L 3781 4041 
L 2266 4041 
L 2266 0 
L 1659 0 
z
" transform="scale(0.015625)"/>
       <path id="ArialMT-69" d="M 425 3934 
L 425 4581 
L 988 4581 
L 988 3934 
L 425 3934 
z
M 425 0 
L 425 3319 
L 988 3319 
L 988 0 
L 425 0 
z
" transform="scale(0.015625)"/>
       <path id="ArialMT-6d" d="M 422 0 
L 422 3319 
L 925 3319 
L 925 2853 
Q 1081 3097 1340 3245 
Q 1600 3394 1931 3394 
Q 2300 3394 2536 3241 
Q 2772 3088 2869 2813 
Q 3263 3394 3894 3394 
Q 4388 3394 4653 3120 
Q 4919 2847 4919 2278 
L 4919 0 
L 4359 0 
L 4359 2091 
Q 4359 2428 4304 2576 
Q 4250 2725 4106 2815 
Q 3963 2906 3769 2906 
Q 3419 2906 3187 2673 
Q 2956 2441 2956 1928 
L 2956 0 
L 2394 0 
L 2394 2156 
Q 2394 2531 2256 2718 
Q 2119 2906 1806 2906 
Q 1569 2906 1367 2781 
Q 1166 2656 1075 2415 
Q 984 2175 984 1722 
L 984 0 
L 422 0 
z
" transform="scale(0.015625)"/>
       <path id="ArialMT-65" d="M 2694 1069 
L 3275 997 
Q 3138 488 2766 206 
Q 2394 -75 1816 -75 
Q 1088 -75 661 373 
Q 234 822 234 1631 
Q 234 2469 665 2931 
Q 1097 3394 1784 3394 
Q 2450 3394 2872 2941 
Q 3294 2488 3294 1666 
Q 3294 1616 3291 1516 
L 816 1516 
Q 847 969 1125 678 
Q 1403 388 1819 388 
Q 2128 388 2347 550 
Q 2566 713 2694 1069 
z
M 847 1978 
L 2700 1978 
Q 2663 2397 2488 2606 
Q 2219 2931 1791 2931 
Q 1403 2931 1139 2672 
Q 875 2413 847 1978 
z
" transform="scale(0.015625)"/>
       <path id="ArialMT-20" transform="scale(0.015625)"/>
       <path id="ArialMT-28" d="M 1497 -1347 
Q 1031 -759 709 28 
Q 388 816 388 1659 
Q 388 2403 628 3084 
Q 909 3875 1497 4659 
L 1900 4659 
Q 1522 4009 1400 3731 
Q 1209 3300 1100 2831 
Q 966 2247 966 1656 
Q 966 153 1900 -1347 
L 1497 -1347 
z
" transform="scale(0.015625)"/>
       <path id="ArialMT-68" d="M 422 0 
L 422 4581 
L 984 4581 
L 984 2938 
Q 1378 3394 1978 3394 
Q 2347 3394 2619 3248 
Q 2891 3103 3008 2847 
Q 3125 2591 3125 2103 
L 3125 0 
L 2563 0 
L 2563 2103 
Q 2563 2525 2380 2717 
Q 2197 2909 1863 2909 
Q 1613 2909 1392 2779 
Q 1172 2650 1078 2428 
Q 984 2206 984 1816 
L 984 0 
L 422 0 
z
" transform="scale(0.015625)"/>
       <path id="ArialMT-6f" d="M 213 1659 
Q 213 2581 725 3025 
Q 1153 3394 1769 3394 
Q 2453 3394 2887 2945 
Q 3322 2497 3322 1706 
Q 3322 1066 3130 698 
Q 2938 331 2570 128 
Q 2203 -75 1769 -75 
Q 1072 -75 642 372 
Q 213 819 213 1659 
z
M 791 1659 
Q 791 1022 1069 705 
Q 1347 388 1769 388 
Q 2188 388 2466 706 
Q 2744 1025 2744 1678 
Q 2744 2294 2464 2611 
Q 2184 2928 1769 2928 
Q 1347 2928 1069 2612 
Q 791 2297 791 1659 
z
" transform="scale(0.015625)"/>
       <path id="ArialMT-75" d="M 2597 0 
L 2597 488 
Q 2209 -75 1544 -75 
Q 1250 -75 995 37 
Q 741 150 617 320 
Q 494 491 444 738 
Q 409 903 409 1263 
L 409 3319 
L 972 3319 
L 972 1478 
Q 972 1038 1006 884 
Q 1059 663 1231 536 
Q 1403 409 1656 409 
Q 1909 409 2131 539 
Q 2353 669 2445 892 
Q 2538 1116 2538 1541 
L 2538 3319 
L 3100 3319 
L 3100 0 
L 2597 0 
z
" transform="scale(0.015625)"/>
       <path id="ArialMT-72" d="M 416 0 
L 416 3319 
L 922 3319 
L 922 2816 
Q 1116 3169 1280 3281 
Q 1444 3394 1641 3394 
Q 1925 3394 2219 3213 
L 2025 2691 
Q 1819 2813 1613 2813 
Q 1428 2813 1281 2702 
Q 1134 2591 1072 2394 
Q 978 2094 978 1738 
L 978 0 
L 416 0 
z
" transform="scale(0.015625)"/>
       <path id="ArialMT-73" d="M 197 991 
L 753 1078 
Q 800 744 1014 566 
Q 1228 388 1613 388 
Q 2000 388 2187 545 
Q 2375 703 2375 916 
Q 2375 1106 2209 1216 
Q 2094 1291 1634 1406 
Q 1016 1563 777 1677 
Q 538 1791 414 1992 
Q 291 2194 291 2438 
Q 291 2659 392 2848 
Q 494 3038 669 3163 
Q 800 3259 1026 3326 
Q 1253 3394 1513 3394 
Q 1903 3394 2198 3281 
Q 2494 3169 2634 2976 
Q 2775 2784 2828 2463 
L 2278 2388 
Q 2241 2644 2061 2787 
Q 1881 2931 1553 2931 
Q 1166 2931 1000 2803 
Q 834 2675 834 2503 
Q 834 2394 903 2306 
Q 972 2216 1119 2156 
Q 1203 2125 1616 2013 
Q 2213 1853 2448 1751 
Q 2684 1650 2818 1456 
Q 2953 1263 2953 975 
Q 2953 694 2789 445 
Q 2625 197 2315 61 
Q 2006 -75 1616 -75 
Q 969 -75 630 194 
Q 291 463 197 991 
z
" transform="scale(0.015625)"/>
       <path id="ArialMT-29" d="M 791 -1347 
L 388 -1347 
Q 1322 153 1322 1656 
Q 1322 2244 1188 2822 
Q 1081 3291 891 3722 
Q 769 4003 388 4659 
L 791 4659 
Q 1378 3875 1659 3084 
Q 1900 2403 1900 1659 
Q 1900 816 1576 28 
Q 1253 -759 791 -1347 
z
" transform="scale(0.015625)"/>
      </defs>
      <use xlink:href="#ArialMT-54"/>
      <use xlink:href="#ArialMT-69" transform="translate(57.333984 0)"/>
      <use xlink:href="#ArialMT-6d" transform="translate(79.550781 0)"/>
      <use xlink:href="#ArialMT-65" transform="translate(162.851562 0)"/>
      <use xlink:href="#ArialMT-20" transform="translate(218.466797 0)"/>
      <use xlink:href="#ArialMT-28" transform="translate(246.25 0)"/>
      <use xlink:href="#ArialMT-68" transform="translate(279.550781 0)"/>
      <use xlink:href="#ArialMT-6f" transform="translate(335.166016 0)"/>
      <use xlink:href="#ArialMT-75" transform="translate(390.78125 0)"/>
      <use xlink:href="#ArialMT-72" transform="translate(446.396484 0)"/>
      <use xlink:href="#ArialMT-73" transform="translate(479.697266 0)"/>
      <use xlink:href="#ArialMT-29" transform="translate(529.697266 0)"/>
     </g>
    </g>
   </g>
   <g id="matplotlib.axis_2">
    <g id="ytick_1">
     <g id="line2d_11">
      <path d="M 47.95125 140.2 
L 241.87375 140.2 
" clip-path="url(#p70430672e4)" style="fill: none; stroke: #b0b0b0; stroke-opacity: 0.3; stroke-width: 0.8; stroke-linecap: square"/>
     </g>
     <g id="line2d_12">
      <defs>
       <path id="m33867d4fa9" d="M 0 0 
L -3.5 0 
" style="stroke: #000000; stroke-width: 0.8"/>
      </defs>
      <g>
       <use xlink:href="#m33867d4fa9" x="47.95125" y="140.2" style="stroke: #000000; stroke-width: 0.8"/>
      </g>
     </g>
     <g id="text_7">
      <!-- 0 -->
      <g transform="translate(36.5025 143.063125) scale(0.08 -0.08)">
       <use xlink:href="#ArialMT-30"/>
      </g>
     </g>
    </g>
    <g id="ytick_2">
     <g id="line2d_13">
      <path d="M 47.95125 116.758825 
L 241.87375 116.758825 
" clip-path="url(#p70430672e4)" style="fill: none; stroke: #b0b0b0; stroke-opacity: 0.3; stroke-width: 0.8; stroke-linecap: square"/>
     </g>
     <g id="line2d_14">
      <g>
       <use xlink:href="#m33867d4fa9" x="47.95125" y="116.758825" style="stroke: #000000; stroke-width: 0.8"/>
      </g>
     </g>
     <g id="text_8">
      <!-- 2000 -->
      <g transform="translate(23.15625 119.62195) scale(0.08 -0.08)">
       <use xlink:href="#ArialMT-32"/>
       <use xlink:href="#ArialMT-30" transform="translate(55.615234 0)"/>
       <use xlink:href="#ArialMT-30" transform="translate(111.230469 0)"/>
       <use xlink:href="#ArialMT-30" transform="translate(166.845703 0)"/>
      </g>
     </g>
    </g>
    <g id="ytick_3">
     <g id="line2d_15">
      <path d="M 47.95125 93.31765 
L 241.87375 93.31765 
" clip-path="url(#p70430672e4)" style="fill: none; stroke: #b0b0b0; stroke-opacity: 0.3; stroke-width: 0.8; stroke-linecap: square"/>
     </g>
     <g id="line2d_16">
      <g>
       <use xlink:href="#m33867d4fa9" x="47.95125" y="93.31765" style="stroke: #000000; stroke-width: 0.8"/>
      </g>
     </g>
     <g id="text_9">
      <!-- 4000 -->
      <g transform="translate(23.15625 96.180775) scale(0.08 -0.08)">
       <use xlink:href="#ArialMT-34"/>
       <use xlink:href="#ArialMT-30" transform="translate(55.615234 0)"/>
       <use xlink:href="#ArialMT-30" transform="translate(111.230469 0)"/>
       <use xlink:href="#ArialMT-30" transform="translate(166.845703 0)"/>
      </g>
     </g>
    </g>
    <g id="ytick_4">
     <g id="line2d_17">
      <path d="M 47.95125 69.876476 
L 241.87375 69.876476 
" clip-path="url(#p70430672e4)" style="fill: none; stroke: #b0b0b0; stroke-opacity: 0.3; stroke-width: 0.8; stroke-linecap: square"/>
     </g>
     <g id="line2d_18">
      <g>
       <use xlink:href="#m33867d4fa9" x="47.95125" y="69.876476" style="stroke: #000000; stroke-width: 0.8"/>
      </g>
     </g>
     <g id="text_10">
      <!-- 6000 -->
      <g transform="translate(23.15625 72.739601) scale(0.08 -0.08)">
       <defs>
        <path id="ArialMT-36" d="M 3184 3459 
L 2625 3416 
Q 2550 3747 2413 3897 
Q 2184 4138 1850 4138 
Q 1581 4138 1378 3988 
Q 1113 3794 959 3422 
Q 806 3050 800 2363 
Q 1003 2672 1297 2822 
Q 1591 2972 1913 2972 
Q 2475 2972 2870 2558 
Q 3266 2144 3266 1488 
Q 3266 1056 3080 686 
Q 2894 316 2569 119 
Q 2244 -78 1831 -78 
Q 1128 -78 684 439 
Q 241 956 241 2144 
Q 241 3472 731 4075 
Q 1159 4600 1884 4600 
Q 2425 4600 2770 4297 
Q 3116 3994 3184 3459 
z
M 888 1484 
Q 888 1194 1011 928 
Q 1134 663 1356 523 
Q 1578 384 1822 384 
Q 2178 384 2434 671 
Q 2691 959 2691 1453 
Q 2691 1928 2437 2201 
Q 2184 2475 1800 2475 
Q 1419 2475 1153 2201 
Q 888 1928 888 1484 
z
" transform="scale(0.015625)"/>
       </defs>
       <use xlink:href="#ArialMT-36"/>
       <use xlink:href="#ArialMT-30" transform="translate(55.615234 0)"/>
       <use xlink:href="#ArialMT-30" transform="translate(111.230469 0)"/>
       <use xlink:href="#ArialMT-30" transform="translate(166.845703 0)"/>
      </g>
     </g>
    </g>
    <g id="ytick_5">
     <g id="line2d_19">
      <path d="M 47.95125 46.435301 
L 241.87375 46.435301 
" clip-path="url(#p70430672e4)" style="fill: none; stroke: #b0b0b0; stroke-opacity: 0.3; stroke-width: 0.8; stroke-linecap: square"/>
     </g>
     <g id="line2d_20">
      <g>
       <use xlink:href="#m33867d4fa9" x="47.95125" y="46.435301" style="stroke: #000000; stroke-width: 0.8"/>
      </g>
     </g>
     <g id="text_11">
      <!-- 8000 -->
      <g transform="translate(23.15625 49.298426) scale(0.08 -0.08)">
       <defs>
        <path id="ArialMT-38" d="M 1131 2484 
Q 781 2613 612 2850 
Q 444 3088 444 3419 
Q 444 3919 803 4259 
Q 1163 4600 1759 4600 
Q 2359 4600 2725 4251 
Q 3091 3903 3091 3403 
Q 3091 3084 2923 2848 
Q 2756 2613 2416 2484 
Q 2838 2347 3058 2040 
Q 3278 1734 3278 1309 
Q 3278 722 2862 322 
Q 2447 -78 1769 -78 
Q 1091 -78 675 323 
Q 259 725 259 1325 
Q 259 1772 486 2073 
Q 713 2375 1131 2484 
z
M 1019 3438 
Q 1019 3113 1228 2906 
Q 1438 2700 1772 2700 
Q 2097 2700 2305 2904 
Q 2513 3109 2513 3406 
Q 2513 3716 2298 3927 
Q 2084 4138 1766 4138 
Q 1444 4138 1231 3931 
Q 1019 3725 1019 3438 
z
M 838 1322 
Q 838 1081 952 856 
Q 1066 631 1291 507 
Q 1516 384 1775 384 
Q 2178 384 2440 643 
Q 2703 903 2703 1303 
Q 2703 1709 2433 1975 
Q 2163 2241 1756 2241 
Q 1359 2241 1098 1978 
Q 838 1716 838 1322 
z
" transform="scale(0.015625)"/>
       </defs>
       <use xlink:href="#ArialMT-38"/>
       <use xlink:href="#ArialMT-30" transform="translate(55.615234 0)"/>
       <use xlink:href="#ArialMT-30" transform="translate(111.230469 0)"/>
       <use xlink:href="#ArialMT-30" transform="translate(166.845703 0)"/>
      </g>
     </g>
    </g>
    <g id="ytick_6">
     <g id="line2d_21">
      <path d="M 47.95125 22.994126 
L 241.87375 22.994126 
" clip-path="url(#p70430672e4)" style="fill: none; stroke: #b0b0b0; stroke-opacity: 0.3; stroke-width: 0.8; stroke-linecap: square"/>
     </g>
     <g id="line2d_22">
      <g>
       <use xlink:href="#m33867d4fa9" x="47.95125" y="22.994126" style="stroke: #000000; stroke-width: 0.8"/>
      </g>
     </g>
     <g id="text_12">
      <!-- 10000 -->
      <g transform="translate(18.7075 25.857251) scale(0.08 -0.08)">
       <use xlink:href="#ArialMT-31"/>
       <use xlink:href="#ArialMT-30" transform="translate(55.615234 0)"/>
       <use xlink:href="#ArialMT-30" transform="translate(111.230469 0)"/>
       <use xlink:href="#ArialMT-30" transform="translate(166.845703 0)"/>
       <use xlink:href="#ArialMT-30" transform="translate(222.460938 0)"/>
      </g>
     </g>
    </g>
    <g id="text_13">
     <!-- Mean distance from source (km) -->
     <g transform="translate(13.02375 131.0475) rotate(-90) scale(0.08 -0.08)">
      <defs>
       <path id="ArialMT-4d" d="M 475 0 
L 475 4581 
L 1388 4581 
L 2472 1338 
Q 2622 884 2691 659 
Q 2769 909 2934 1394 
L 4031 4581 
L 4847 4581 
L 4847 0 
L 4263 0 
L 4263 3834 
L 2931 0 
L 2384 0 
L 1059 3900 
L 1059 0 
L 475 0 
z
" transform="scale(0.015625)"/>
       <path id="ArialMT-61" d="M 2588 409 
Q 2275 144 1986 34 
Q 1697 -75 1366 -75 
Q 819 -75 525 192 
Q 231 459 231 875 
Q 231 1119 342 1320 
Q 453 1522 633 1644 
Q 813 1766 1038 1828 
Q 1203 1872 1538 1913 
Q 2219 1994 2541 2106 
Q 2544 2222 2544 2253 
Q 2544 2597 2384 2738 
Q 2169 2928 1744 2928 
Q 1347 2928 1158 2789 
Q 969 2650 878 2297 
L 328 2372 
Q 403 2725 575 2942 
Q 747 3159 1072 3276 
Q 1397 3394 1825 3394 
Q 2250 3394 2515 3294 
Q 2781 3194 2906 3042 
Q 3031 2891 3081 2659 
Q 3109 2516 3109 2141 
L 3109 1391 
Q 3109 606 3145 398 
Q 3181 191 3288 0 
L 2700 0 
Q 2613 175 2588 409 
z
M 2541 1666 
Q 2234 1541 1622 1453 
Q 1275 1403 1131 1340 
Q 988 1278 909 1158 
Q 831 1038 831 891 
Q 831 666 1001 516 
Q 1172 366 1500 366 
Q 1825 366 2078 508 
Q 2331 650 2450 897 
Q 2541 1088 2541 1459 
L 2541 1666 
z
" transform="scale(0.015625)"/>
       <path id="ArialMT-6e" d="M 422 0 
L 422 3319 
L 928 3319 
L 928 2847 
Q 1294 3394 1984 3394 
Q 2284 3394 2536 3286 
Q 2788 3178 2913 3003 
Q 3038 2828 3088 2588 
Q 3119 2431 3119 2041 
L 3119 0 
L 2556 0 
L 2556 2019 
Q 2556 2363 2490 2533 
Q 2425 2703 2258 2804 
Q 2091 2906 1866 2906 
Q 1506 2906 1245 2678 
Q 984 2450 984 1813 
L 984 0 
L 422 0 
z
" transform="scale(0.015625)"/>
       <path id="ArialMT-64" d="M 2575 0 
L 2575 419 
Q 2259 -75 1647 -75 
Q 1250 -75 917 144 
Q 584 363 401 755 
Q 219 1147 219 1656 
Q 219 2153 384 2558 
Q 550 2963 881 3178 
Q 1213 3394 1622 3394 
Q 1922 3394 2156 3267 
Q 2391 3141 2538 2938 
L 2538 4581 
L 3097 4581 
L 3097 0 
L 2575 0 
z
M 797 1656 
Q 797 1019 1065 703 
Q 1334 388 1700 388 
Q 2069 388 2326 689 
Q 2584 991 2584 1609 
Q 2584 2291 2321 2609 
Q 2059 2928 1675 2928 
Q 1300 2928 1048 2622 
Q 797 2316 797 1656 
z
" transform="scale(0.015625)"/>
       <path id="ArialMT-74" d="M 1650 503 
L 1731 6 
Q 1494 -44 1306 -44 
Q 1000 -44 831 53 
Q 663 150 594 308 
Q 525 466 525 972 
L 525 2881 
L 113 2881 
L 113 3319 
L 525 3319 
L 525 4141 
L 1084 4478 
L 1084 3319 
L 1650 3319 
L 1650 2881 
L 1084 2881 
L 1084 941 
Q 1084 700 1114 631 
Q 1144 563 1211 522 
Q 1278 481 1403 481 
Q 1497 481 1650 503 
z
" transform="scale(0.015625)"/>
       <path id="ArialMT-63" d="M 2588 1216 
L 3141 1144 
Q 3050 572 2676 248 
Q 2303 -75 1759 -75 
Q 1078 -75 664 370 
Q 250 816 250 1647 
Q 250 2184 428 2587 
Q 606 2991 970 3192 
Q 1334 3394 1763 3394 
Q 2303 3394 2647 3120 
Q 2991 2847 3088 2344 
L 2541 2259 
Q 2463 2594 2264 2762 
Q 2066 2931 1784 2931 
Q 1359 2931 1093 2626 
Q 828 2322 828 1663 
Q 828 994 1084 691 
Q 1341 388 1753 388 
Q 2084 388 2306 591 
Q 2528 794 2588 1216 
z
" transform="scale(0.015625)"/>
       <path id="ArialMT-66" d="M 556 0 
L 556 2881 
L 59 2881 
L 59 3319 
L 556 3319 
L 556 3672 
Q 556 4006 616 4169 
Q 697 4388 901 4523 
Q 1106 4659 1475 4659 
Q 1713 4659 2000 4603 
L 1916 4113 
Q 1741 4144 1584 4144 
Q 1328 4144 1222 4034 
Q 1116 3925 1116 3625 
L 1116 3319 
L 1763 3319 
L 1763 2881 
L 1116 2881 
L 1116 0 
L 556 0 
z
" transform="scale(0.015625)"/>
       <path id="ArialMT-6b" d="M 425 0 
L 425 4581 
L 988 4581 
L 988 1969 
L 2319 3319 
L 3047 3319 
L 1778 2088 
L 3175 0 
L 2481 0 
L 1384 1697 
L 988 1316 
L 988 0 
L 425 0 
z
" transform="scale(0.015625)"/>
      </defs>
      <use xlink:href="#ArialMT-4d"/>
      <use xlink:href="#ArialMT-65" transform="translate(83.300781 0)"/>
      <use xlink:href="#ArialMT-61" transform="translate(138.916016 0)"/>
      <use xlink:href="#ArialMT-6e" transform="translate(194.53125 0)"/>
      <use xlink:href="#ArialMT-20" transform="translate(250.146484 0)"/>
      <use xlink:href="#ArialMT-64" transform="translate(277.929688 0)"/>
      <use xlink:href="#ArialMT-69" transform="translate(333.544922 0)"/>
      <use xlink:href="#ArialMT-73" transform="translate(355.761719 0)"/>
      <use xlink:href="#ArialMT-74" transform="translate(405.761719 0)"/>
      <use xlink:href="#ArialMT-61" transform="translate(433.544922 0)"/>
      <use xlink:href="#ArialMT-6e" transform="translate(489.160156 0)"/>
      <use xlink:href="#ArialMT-63" transform="translate(544.775391 0)"/>
      <use xlink:href="#ArialMT-65" transform="translate(594.775391 0)"/>
      <use xlink:href="#ArialMT-20" transform="translate(650.390625 0)"/>
      <use xlink:href="#ArialMT-66" transform="translate(678.173828 0)"/>
      <use xlink:href="#ArialMT-72" transform="translate(705.957031 0)"/>
      <use xlink:href="#ArialMT-6f" transform="translate(739.257812 0)"/>
      <use xlink:href="#ArialMT-6d" transform="translate(794.873047 0)"/>
      <use xlink:href="#ArialMT-20" transform="translate(878.173828 0)"/>
      <use xlink:href="#ArialMT-73" transform="translate(905.957031 0)"/>
      <use xlink:href="#ArialMT-6f" transform="translate(955.957031 0)"/>
      <use xlink:href="#ArialMT-75" transform="translate(1011.572266 0)"/>
      <use xlink:href="#ArialMT-72" transform="translate(1067.1875 0)"/>
      <use xlink:href="#ArialMT-63" transform="translate(1100.488281 0)"/>
      <use xlink:href="#ArialMT-65" transform="translate(1150.488281 0)"/>
      <use xlink:href="#ArialMT-20" transform="translate(1206.103516 0)"/>
      <use xlink:href="#ArialMT-28" transform="translate(1233.886719 0)"/>
      <use xlink:href="#ArialMT-6b" transform="translate(1267.1875 0)"/>
      <use xlink:href="#ArialMT-6d" transform="translate(1317.1875 0)"/>
      <use xlink:href="#ArialMT-29" transform="translate(1400.488281 0)"/>
     </g>
    </g>
   </g>
   <g id="line2d_23">
    <path d="M 47.95125 15.444023 
L 51.991302 26.88846 
L 56.031354 36.769894 
L 60.071406 46.25374 
L 64.111458 54.552063 
L 68.15151 61.62325 
L 72.191563 69.40508 
L 76.231615 76.038734 
L 80.271667 81.692111 
L 84.311719 86.983574 
L 88.351771 91.725862 
L 92.391823 96.247401 
L 96.431875 100.102825 
L 100.471927 103.449576 
L 104.511979 106.269064 
L 108.552031 109.954773 
L 112.592083 112.768916 
L 116.632135 115.230427 
L 120.672188 117.387737 
L 124.71224 119.733108 
L 128.752292 121.625407 
L 132.792344 123.046551 
L 136.832396 125.00413 
L 140.872448 126.396973 
L 144.9125 127.858464 
L 148.952552 129.293034 
L 152.992604 130.448986 
L 157.032656 131.275085 
L 161.072708 132.089296 
L 165.11276 132.715044 
L 169.152812 133.574721 
L 173.192865 134.260921 
L 177.232917 134.850375 
L 181.272969 135.276997 
L 185.313021 135.474945 
L 189.353073 135.764362 
L 193.393125 136.006709 
L 197.433177 136.309395 
L 201.473229 136.51409 
L 205.513281 136.905664 
L 209.553333 137.229994 
L 213.593385 137.542234 
L 217.633437 137.780326 
L 221.67349 138.033383 
L 225.713542 138.141107 
L 229.753594 138.297261 
L 233.793646 138.368624 
L 237.833698 138.540853 
L 241.87375 138.734569 
" clip-path="url(#p70430672e4)" style="fill: none; stroke: #888780; stroke-width: 1.5; stroke-linecap: square"/>
   </g>
   <g id="line2d_24">
    <path d="M 47.95125 15.444023 
L 51.991302 26.88846 
L 56.031354 36.769894 
L 60.071406 46.25374 
L 64.111458 54.552063 
L 68.15151 61.62325 
L 72.191563 69.40508 
L 76.231615 76.038734 
L 80.271667 81.692111 
L 84.311719 86.983574 
L 88.351771 91.725862 
L 92.391823 96.247401 
L 96.431875 100.102825 
L 100.471927 103.449576 
L 104.511979 106.269064 
L 108.552031 109.954773 
L 112.592083 112.768916 
L 116.632135 115.230427 
L 120.672188 117.387737 
L 124.71224 119.733108 
L 128.752292 121.625407 
L 132.792344 123.046551 
L 136.832396 125.00413 
L 140.872448 126.396973 
L 144.9125 127.858464 
L 148.952552 129.293034 
L 152.992604 130.448986 
L 157.032656 131.275085 
L 161.072708 132.089296 
L 165.11276 132.715044 
L 169.152812 133.574721 
L 173.192865 134.260921 
L 177.232917 134.850375 
L 181.272969 135.276997 
L 185.313021 135.474945 
L 189.353073 135.764362 
L 193.393125 136.006709 
L 197.433177 136.309395 
L 201.473229 136.51409 
L 205.513281 136.905664 
L 209.553333 137.229994 
L 213.593385 137.542234 
L 217.633437 137.780326 
L 221.67349 138.033383 
L 225.713542 138.141107 
L 229.753594 138.297261 
L 233.793646 138.368624 
L 237.833698 138.540853 
L 241.87375 138.734569 
" clip-path="url(#p70430672e4)" style="fill: none; stroke: #378add; stroke-width: 1.5; stroke-linecap: square"/>
   </g>
   <g id="line2d_25">
    <path d="M 47.95125 20.957962 
L 51.991302 37.738005 
L 56.031354 51.162397 
L 60.071406 62.500595 
L 64.111458 71.682975 
L 68.15151 80.266509 
L 72.191563 87.722122 
L 76.231615 94.123715 
L 80.271667 98.854002 
L 84.311719 103.48175 
L 88.351771 107.105162 
L 92.391823 111.602165 
L 96.431875 115.150602 
L 100.471927 117.312055 
L 104.511979 119.543153 
L 108.552031 121.220159 
L 112.592083 123.58697 
L 116.632135 125.904018 
L 120.672188 127.30098 
L 124.71224 128.431617 
L 128.752292 129.267449 
L 132.792344 130.583429 
L 136.832396 131.291362 
L 140.872448 132.048971 
L 144.9125 132.665323 
L 148.952552 133.58581 
L 152.992604 134.159122 
L 157.032656 134.780863 
L 161.072708 135.411933 
L 165.11276 135.862645 
L 169.152812 136.135941 
L 173.192865 136.539516 
L 177.232917 136.768347 
L 181.272969 137.169318 
L 185.313021 137.517874 
L 189.353073 137.800477 
L 193.393125 137.943159 
L 197.433177 138.093835 
L 201.473229 138.251257 
L 205.513281 138.37646 
L 209.553333 138.664474 
L 213.593385 138.877073 
L 217.633437 139.062795 
L 221.67349 139.091096 
L 225.713542 139.17052 
L 229.753594 139.295634 
L 233.793646 139.349496 
L 237.833698 139.397947 
L 241.87375 139.446398 
" clip-path="url(#p70430672e4)" style="fill: none; stroke: #ba7517; stroke-width: 1.5; stroke-linecap: square"/>
   </g>
   <g id="line2d_26">
    <path d="M 47.95125 19.301924 
L 51.991302 35.218974 
L 56.031354 49.315524 
L 60.071406 61.662225 
L 64.111458 73.422144 
L 68.15151 82.647633 
L 72.191563 90.854218 
L 76.231615 98.754417 
L 80.271667 104.510848 
L 84.311719 109.230628 
L 88.351771 113.97187 
L 92.391823 117.616389 
L 96.431875 120.995113 
L 100.471927 123.671874 
L 104.511979 125.849132 
L 108.552031 128.218818 
L 112.592083 130.111006 
L 116.632135 131.482384 
L 120.672188 132.724552 
L 124.71224 133.612775 
L 128.752292 134.349009 
L 132.792344 134.917045 
L 136.832396 135.618052 
L 140.872448 136.050196 
L 144.9125 136.726889 
L 148.952552 137.227591 
L 152.992604 137.683602 
L 157.032656 137.989028 
L 161.072708 138.279804 
L 165.11276 138.573094 
L 169.152812 138.805754 
L 173.192865 139.077692 
L 177.232917 139.173259 
L 181.272969 139.26749 
L 185.313021 139.315941 
L 189.353073 139.372475 
L 193.393125 139.474699 
L 197.433177 139.515068 
L 201.473229 139.69803 
L 205.513281 139.71818 
L 209.553333 139.831226 
L 213.593385 139.811075 
L 217.633437 139.877006 
L 221.67349 139.889163 
L 225.713542 139.926793 
L 229.753594 139.932204 
L 233.793646 139.955094 
L 237.833698 140.021024 
L 241.87375 140.003545 
" clip-path="url(#p70430672e4)" style="fill: none; stroke: #1d9e75; stroke-width: 1.5; stroke-linecap: square"/>
   </g>
   <g id="patch_3">
    <path d="M 47.95125 140.2 
L 47.95125 7.2 
" style="fill: none; stroke: #000000; stroke-width: 0.5; stroke-linejoin: miter; stroke-linecap: square"/>
   </g>
   <g id="patch_4">
    <path d="M 47.95125 140.2 
L 241.87375 140.2 
" style="fill: none; stroke: #000000; stroke-width: 0.5; stroke-linejoin: miter; stroke-linecap: square"/>
   </g>
   <g id="text_14">
    <g id="patch_5">
     <path d="M 165.94655 23.658125 
L 237.9953 23.658125 
Q 239.7953 23.658125 239.7953 21.858125 
L 239.7953 9.930312 
Q 239.7953 8.130312 237.9953 8.130312 
L 165.94655 8.130312 
Q 164.14655 8.130312 164.14655 9.930312 
L 164.14655 21.858125 
Q 164.14655 23.658125 165.94655 23.658125 
z
" style="fill: #ffffff; opacity: 0.9; stroke: #808080; stroke-linejoin: miter"/>
    </g>
    <!-- α=2.0, β=2.0, κ=5.0 -->
    <g transform="translate(185.874987 14.227812) scale(0.06 -0.06)">
     <defs>
      <path id="ArialMT-3b1" d="M 2884 3319 
L 3459 3319 
Q 3241 2631 3056 1659 
Q 3275 453 3459 0 
L 2900 0 
Q 2766 313 2697 606 
Q 2438 -75 1613 -75 
Q 988 -75 606 394 
Q 225 863 225 1666 
Q 225 2491 608 2942 
Q 991 3394 1622 3394 
Q 2013 3394 2259 3236 
Q 2506 3078 2719 2756 
Q 2741 2866 2884 3319 
z
M 1716 2928 
Q 1313 2928 1078 2603 
Q 844 2278 844 1666 
Q 844 1069 1066 728 
Q 1288 388 1684 388 
Q 2072 388 2331 723 
Q 2591 1059 2591 1691 
Q 2591 2303 2348 2615 
Q 2106 2928 1716 2928 
z
" transform="scale(0.015625)"/>
      <path id="ArialMT-3d" d="M 3381 2694 
L 356 2694 
L 356 3219 
L 3381 3219 
L 3381 2694 
z
M 3381 1303 
L 356 1303 
L 356 1828 
L 3381 1828 
L 3381 1303 
z
" transform="scale(0.015625)"/>
      <path id="ArialMT-2e" d="M 581 0 
L 581 641 
L 1222 641 
L 1222 0 
L 581 0 
z
" transform="scale(0.015625)"/>
      <path id="ArialMT-2c" d="M 569 0 
L 569 641 
L 1209 641 
L 1209 0 
Q 1209 -353 1084 -570 
Q 959 -788 688 -906 
L 531 -666 
Q 709 -588 793 -436 
Q 878 -284 888 0 
L 569 0 
z
" transform="scale(0.015625)"/>
      <path id="ArialMT-3b2" d="M 997 422 
L 997 -1272 
L 438 -1272 
L 438 3144 
Q 438 3672 580 3970 
Q 722 4269 1069 4464 
Q 1416 4659 1841 4659 
Q 2469 4659 2792 4298 
Q 3116 3938 3116 3509 
Q 3116 3091 2855 2834 
Q 2594 2578 2256 2519 
Q 2800 2466 3095 2128 
Q 3391 1791 3391 1297 
Q 3391 766 3042 345 
Q 2694 -75 2034 -75 
Q 1359 -75 997 422 
z
M 1494 2700 
Q 2069 2700 2331 2900 
Q 2594 3100 2594 3478 
Q 2594 3784 2370 3990 
Q 2147 4197 1813 4197 
Q 1522 4197 1308 4044 
Q 1094 3891 1045 3703 
Q 997 3516 997 3047 
L 997 1788 
Q 997 1250 1072 997 
Q 1147 744 1394 541 
Q 1641 338 1963 338 
Q 2353 338 2579 605 
Q 2806 872 2806 1266 
Q 2806 1591 2639 1848 
Q 2472 2106 2226 2198 
Q 1981 2291 1575 2291 
L 1494 2291 
L 1494 2700 
z
" transform="scale(0.015625)"/>
      <path id="ArialMT-3ba" d="M 419 3319 
L 978 3319 
L 978 2016 
L 2325 3319 
L 3069 3319 
L 1584 1941 
L 3197 0 
L 2478 0 
L 1184 1563 
L 978 1372 
L 978 0 
L 419 0 
L 419 3319 
z
" transform="scale(0.015625)"/>
      <path id="ArialMT-35" d="M 266 1200 
L 856 1250 
Q 922 819 1161 601 
Q 1400 384 1738 384 
Q 2144 384 2425 690 
Q 2706 997 2706 1503 
Q 2706 1984 2436 2262 
Q 2166 2541 1728 2541 
Q 1456 2541 1237 2417 
Q 1019 2294 894 2097 
L 366 2166 
L 809 4519 
L 3088 4519 
L 3088 3981 
L 1259 3981 
L 1013 2750 
Q 1425 3038 1878 3038 
Q 2478 3038 2890 2622 
Q 3303 2206 3303 1553 
Q 3303 931 2941 478 
Q 2500 -78 1738 -78 
Q 1113 -78 717 272 
Q 322 622 266 1200 
z
" transform="scale(0.015625)"/>
     </defs>
     <use xlink:href="#ArialMT-3b1"/>
     <use xlink:href="#ArialMT-3d" transform="translate(57.8125 0)"/>
     <use xlink:href="#ArialMT-32" transform="translate(116.210938 0)"/>
     <use xlink:href="#ArialMT-2e" transform="translate(171.826172 0)"/>
     <use xlink:href="#ArialMT-30" transform="translate(199.609375 0)"/>
     <use xlink:href="#ArialMT-2c" transform="translate(255.224609 0)"/>
     <use xlink:href="#ArialMT-20" transform="translate(283.007812 0)"/>
     <use xlink:href="#ArialMT-3b2" transform="translate(310.791016 0)"/>
     <use xlink:href="#ArialMT-3d" transform="translate(368.310547 0)"/>
     <use xlink:href="#ArialMT-32" transform="translate(426.708984 0)"/>
     <use xlink:href="#ArialMT-2e" transform="translate(482.324219 0)"/>
     <use xlink:href="#ArialMT-30" transform="translate(510.107422 0)"/>
     <use xlink:href="#ArialMT-2c" transform="translate(565.722656 0)"/>
     <use xlink:href="#ArialMT-20" transform="translate(593.505859 0)"/>
     <use xlink:href="#ArialMT-3ba" transform="translate(621.289062 0)"/>
     <use xlink:href="#ArialMT-3d" transform="translate(671.289062 0)"/>
     <use xlink:href="#ArialMT-35" transform="translate(729.6875 0)"/>
     <use xlink:href="#ArialMT-2e" transform="translate(785.302734 0)"/>
     <use xlink:href="#ArialMT-30" transform="translate(813.085938 0)"/>
    </g>
    <!-- N_agents=500, N_runs=10 -->
    <g transform="translate(165.94655 20.595312) scale(0.06 -0.06)">
     <defs>
      <path id="ArialMT-4e" d="M 488 0 
L 488 4581 
L 1109 4581 
L 3516 984 
L 3516 4581 
L 4097 4581 
L 4097 0 
L 3475 0 
L 1069 3600 
L 1069 0 
L 488 0 
z
" transform="scale(0.015625)"/>
      <path id="ArialMT-5f" d="M -97 -1272 
L -97 -866 
L 3631 -866 
L 3631 -1272 
L -97 -1272 
z
" transform="scale(0.015625)"/>
      <path id="ArialMT-67" d="M 319 -275 
L 866 -356 
Q 900 -609 1056 -725 
Q 1266 -881 1628 -881 
Q 2019 -881 2231 -725 
Q 2444 -569 2519 -288 
Q 2563 -116 2559 434 
Q 2191 0 1641 0 
Q 956 0 581 494 
Q 206 988 206 1678 
Q 206 2153 378 2554 
Q 550 2956 876 3175 
Q 1203 3394 1644 3394 
Q 2231 3394 2613 2919 
L 2613 3319 
L 3131 3319 
L 3131 450 
Q 3131 -325 2973 -648 
Q 2816 -972 2473 -1159 
Q 2131 -1347 1631 -1347 
Q 1038 -1347 672 -1080 
Q 306 -813 319 -275 
z
M 784 1719 
Q 784 1066 1043 766 
Q 1303 466 1694 466 
Q 2081 466 2343 764 
Q 2606 1063 2606 1700 
Q 2606 2309 2336 2618 
Q 2066 2928 1684 2928 
Q 1309 2928 1046 2623 
Q 784 2319 784 1719 
z
" transform="scale(0.015625)"/>
     </defs>
     <use xlink:href="#ArialMT-4e"/>
     <use xlink:href="#ArialMT-5f" transform="translate(72.216797 0)"/>
     <use xlink:href="#ArialMT-61" transform="translate(127.832031 0)"/>
     <use xlink:href="#ArialMT-67" transform="translate(183.447266 0)"/>
     <use xlink:href="#ArialMT-65" transform="translate(239.0625 0)"/>
     <use xlink:href="#ArialMT-6e" transform="translate(294.677734 0)"/>
     <use xlink:href="#ArialMT-74" transform="translate(350.292969 0)"/>
     <use xlink:href="#ArialMT-73" transform="translate(378.076172 0)"/>
     <use xlink:href="#ArialMT-3d" transform="translate(428.076172 0)"/>
     <use xlink:href="#ArialMT-35" transform="translate(486.474609 0)"/>
     <use xlink:href="#ArialMT-30" transform="translate(542.089844 0)"/>
     <use xlink:href="#ArialMT-30" transform="translate(597.705078 0)"/>
     <use xlink:href="#ArialMT-2c" transform="translate(653.320312 0)"/>
     <use xlink:href="#ArialMT-20" transform="translate(681.103516 0)"/>
     <use xlink:href="#ArialMT-4e" transform="translate(708.886719 0)"/>
     <use xlink:href="#ArialMT-5f" transform="translate(781.103516 0)"/>
     <use xlink:href="#ArialMT-72" transform="translate(836.71875 0)"/>
     <use xlink:href="#ArialMT-75" transform="translate(870.019531 0)"/>
     <use xlink:href="#ArialMT-6e" transform="translate(925.634766 0)"/>
     <use xlink:href="#ArialMT-73" transform="translate(981.25 0)"/>
     <use xlink:href="#ArialMT-3d" transform="translate(1031.25 0)"/>
     <use xlink:href="#ArialMT-31" transform="translate(1089.648438 0)"/>
     <use xlink:href="#ArialMT-30" transform="translate(1145.263672 0)"/>
    </g>
   </g>
   <g id="legend_1">
    <g id="patch_6">
     <path d="M 192.006406 94.645859 
L 236.97375 94.645859 
Q 238.37375 94.645859 238.37375 93.245859 
L 238.37375 54.154141 
Q 238.37375 52.754141 236.97375 52.754141 
L 192.006406 52.754141 
Q 190.606406 52.754141 190.606406 54.154141 
L 190.606406 93.245859 
Q 190.606406 94.645859 192.006406 94.645859 
z
" style="fill: #ffffff; opacity: 0.8; stroke: #cccccc; stroke-linejoin: miter"/>
    </g>
    <g id="line2d_27">
     <path d="M 193.406406 58.114609 
L 200.406406 58.114609 
L 207.406406 58.114609 
" style="fill: none; stroke: #888780; stroke-width: 1.5; stroke-linecap: square"/>
    </g>
    <g id="text_15">
     <!-- original -->
     <g transform="translate(213.006406 60.564609) scale(0.07 -0.07)">
      <defs>
       <path id="ArialMT-6c" d="M 409 0 
L 409 4581 
L 972 4581 
L 972 0 
L 409 0 
z
" transform="scale(0.015625)"/>
      </defs>
      <use xlink:href="#ArialMT-6f"/>
      <use xlink:href="#ArialMT-72" transform="translate(55.615234 0)"/>
      <use xlink:href="#ArialMT-69" transform="translate(88.916016 0)"/>
      <use xlink:href="#ArialMT-67" transform="translate(111.132812 0)"/>
      <use xlink:href="#ArialMT-69" transform="translate(166.748047 0)"/>
      <use xlink:href="#ArialMT-6e" transform="translate(188.964844 0)"/>
      <use xlink:href="#ArialMT-61" transform="translate(244.580078 0)"/>
      <use xlink:href="#ArialMT-6c" transform="translate(300.195312 0)"/>
     </g>
    </g>
    <g id="line2d_28">
     <path d="M 193.406406 68.119141 
L 200.406406 68.119141 
L 207.406406 68.119141 
" style="fill: none; stroke: #378add; stroke-width: 1.5; stroke-linecap: square"/>
    </g>
    <g id="text_16">
     <!-- s1 only -->
     <g transform="translate(213.006406 70.569141) scale(0.07 -0.07)">
      <defs>
       <path id="ArialMT-79" d="M 397 -1278 
L 334 -750 
Q 519 -800 656 -800 
Q 844 -800 956 -737 
Q 1069 -675 1141 -563 
Q 1194 -478 1313 -144 
Q 1328 -97 1363 -6 
L 103 3319 
L 709 3319 
L 1400 1397 
Q 1534 1031 1641 628 
Q 1738 1016 1872 1384 
L 2581 3319 
L 3144 3319 
L 1881 -56 
Q 1678 -603 1566 -809 
Q 1416 -1088 1222 -1217 
Q 1028 -1347 759 -1347 
Q 597 -1347 397 -1278 
z
" transform="scale(0.015625)"/>
      </defs>
      <use xlink:href="#ArialMT-73"/>
      <use xlink:href="#ArialMT-31" transform="translate(50 0)"/>
      <use xlink:href="#ArialMT-20" transform="translate(105.615234 0)"/>
      <use xlink:href="#ArialMT-6f" transform="translate(133.398438 0)"/>
      <use xlink:href="#ArialMT-6e" transform="translate(189.013672 0)"/>
      <use xlink:href="#ArialMT-6c" transform="translate(244.628906 0)"/>
      <use xlink:href="#ArialMT-79" transform="translate(266.845703 0)"/>
     </g>
    </g>
    <g id="line2d_29">
     <path d="M 193.406406 78.102891 
L 200.406406 78.102891 
L 207.406406 78.102891 
" style="fill: none; stroke: #ba7517; stroke-width: 1.5; stroke-linecap: square"/>
    </g>
    <g id="text_17">
     <!-- switch -->
     <g transform="translate(213.006406 80.552891) scale(0.07 -0.07)">
      <defs>
       <path id="ArialMT-77" d="M 1034 0 
L 19 3319 
L 600 3319 
L 1128 1403 
L 1325 691 
Q 1338 744 1497 1375 
L 2025 3319 
L 2603 3319 
L 3100 1394 
L 3266 759 
L 3456 1400 
L 4025 3319 
L 4572 3319 
L 3534 0 
L 2950 0 
L 2422 1988 
L 2294 2553 
L 1622 0 
L 1034 0 
z
" transform="scale(0.015625)"/>
      </defs>
      <use xlink:href="#ArialMT-73"/>
      <use xlink:href="#ArialMT-77" transform="translate(50 0)"/>
      <use xlink:href="#ArialMT-69" transform="translate(122.216797 0)"/>
      <use xlink:href="#ArialMT-74" transform="translate(144.433594 0)"/>
      <use xlink:href="#ArialMT-63" transform="translate(172.216797 0)"/>
      <use xlink:href="#ArialMT-68" transform="translate(222.216797 0)"/>
     </g>
    </g>
    <g id="line2d_30">
     <path d="M 193.406406 88.004609 
L 200.406406 88.004609 
L 207.406406 88.004609 
" style="fill: none; stroke: #1d9e75; stroke-width: 1.5; stroke-linecap: square"/>
    </g>
    <g id="text_18">
     <!-- blend -->
     <g transform="translate(213.006406 90.454609) scale(0.07 -0.07)">
      <defs>
       <path id="ArialMT-62" d="M 941 0 
L 419 0 
L 419 4581 
L 981 4581 
L 981 2947 
Q 1338 3394 1891 3394 
Q 2197 3394 2470 3270 
Q 2744 3147 2920 2923 
Q 3097 2700 3197 2384 
Q 3297 2069 3297 1709 
Q 3297 856 2875 390 
Q 2453 -75 1863 -75 
Q 1275 -75 941 416 
L 941 0 
z
M 934 1684 
Q 934 1088 1097 822 
Q 1363 388 1816 388 
Q 2184 388 2453 708 
Q 2722 1028 2722 1663 
Q 2722 2313 2464 2622 
Q 2206 2931 1841 2931 
Q 1472 2931 1203 2611 
Q 934 2291 934 1684 
z
" transform="scale(0.015625)"/>
      </defs>
      <use xlink:href="#ArialMT-62"/>
      <use xlink:href="#ArialMT-6c" transform="translate(55.615234 0)"/>
      <use xlink:href="#ArialMT-65" transform="translate(77.832031 0)"/>
      <use xlink:href="#ArialMT-6e" transform="translate(133.447266 0)"/>
      <use xlink:href="#ArialMT-64" transform="translate(189.0625 0)"/>
     </g>
    </g>
   </g>
  </g>
 </g>
 <defs>
  <clipPath id="p70430672e4">
   <rect x="47.95125" y="7.2" width="193.9225" height="133"/>
  </clipPath>
 </defs>
</svg>
